<?xml version="1.0" standalone="no"?>
<!DOCTYPE svg PUBLIC "-//W3C//DTD SVG 1.1//EN" "http://www.w3.org/Graphics/SVG/1.1/DTD/svg11.dtd" >
<svg>
<metadata>
Created by FontForge 20120731 at Mon Oct 20 02:44:00 2014
 By Orthosie Webhosting
Created by MyScriptFont.com
</metadata>
<defs>
<font id="MWCurly" horiz-adv-x="408" >
  <font-face 
    font-family="MWCurly"
    font-weight="500"
    font-stretch="normal"
    units-per-em="1000"
    panose-1="2 0 6 3 0 0 0 0 0 0"
    ascent="800"
    descent="-200"
    x-height="481.5"
    cap-height="609"
    bbox="9.07895 -199 733.633 800.941"
    underline-thickness="50"
    underline-position="-100"
    unicode-range="U+0020-20AC"
  />
<missing-glyph horiz-adv-x="364" 
d="M33 0v666h265v-666h-265zM66 33h199v600h-199v-600z" />
    <glyph glyph-name=".notdef" horiz-adv-x="364" 
d="M33 0v666h265v-666h-265zM66 33h199v600h-199v-600z" />
    <glyph glyph-name=".null" horiz-adv-x="0" 
 />
    <glyph glyph-name="nonmarkingreturn" horiz-adv-x="333" 
 />
    <glyph glyph-name="space" unicode=" " horiz-adv-x="420" 
 />
    <glyph glyph-name="exclam" unicode="!" horiz-adv-x="98" 
d="M30 177q5 14 18.5 12.5t27.5 -16.5q17 -19 10 -33t-30 -11q-19 2 -26.5 15.5t0.5 32.5zM12.5 652.5q4.5 12.5 29.5 9.5q19 -2 22 -11t2 -60q0 -68 -9 -177q-3 -41 -4.5 -60t-5 -32t-6.5 -15t-10 -2q-11 0 -14 14q-5 19 -6 153q-3 168 1.5 180.5z" />
    <glyph glyph-name="numbersign" unicode="#" horiz-adv-x="448" 
d="M310 620q1 8 19 6.5t26 -10.5q7 -8 9.5 -23t2.5 -27.5t5.5 -23.5t19.5 -14q47 -12 1 -54q-29 -26 -26 -48q2 -14 8 -17.5t25 -1.5q35 3 37 -18q3 -19 -24 -30q-10 -5 -23 -6l-29 -3l3 -54q2 -33 9.5 -67t11.5 -50.5t1 -19.5q-19 -19 -44 26q-23 43 -28 103q-4 41 -8 49.5
t-17 4.5q-22 -7 -44.5 -10t-31 -4t-17.5 -7t-12.5 -18t-7 -37.5t-8.5 -34t-16 -8.5q-12 0 -15.5 7.5t-3.5 33.5l-1 41h-49q-32 0 -40.5 3t-8.5 15q0 11 9 16t36 10q51 8 59.5 14t8.5 32v32h-62q-71 0 -75 18q-3 15 43 23q15 3 33 5l57 4l-1 32q0 20 -2.5 38.5t-5 28.5
t-3 18.5t2 13t10.5 7.5q16 6 27 -10.5t14.5 -40t9 -46t13.5 -24.5q12 -5 55 3l43 8l1 54q1 55 3 61zM311 428q0 19 -6 23t-39 4q-36 0 -48.5 -10t-18.5 -44l-6 -31l45 5q41 4 57 15.5t16 37.5z" />
    <glyph glyph-name="dollar" unicode="$" horiz-adv-x="349" 
d="M170 650q6 15 20 13.5t23 -18.5q4 -7 11.5 -12.5t14.5 -5.5q15 0 40 -27.5t40 -59.5t5 -41q-12 -12 -28 -4.5t-23 28.5q-7 22 -21 40.5t-24 18.5q-3 0 -3.5 -2t0.5 -8t3.5 -13t6 -21t5.5 -29q13 -74 23.5 -102.5t28.5 -35.5q20 -10 26 -33t-4 -52q-13 -35 -10.5 -74
t18.5 -53q30 -28 4 -50q-8 -7 -14.5 -6t-17.5 11q-18 16 -18 28q0 41 -54 -15q-39 -42 -45 -60q-1 -11 -15 -22q-7 -8 -15 -6t-13 7.5t-15.5 11.5t-21.5 6q-33 0 -57.5 50t-28.5 127q-2 33 0 43.5t11 10.5q13 0 14 -40q2 -33 15 -70t30.5 -58.5t30.5 -13.5q9 5 7 84
q-1 29 -2 42t-3 25t-9 16.5t-14.5 8t-24.5 6.5q-24 5 -40 41q-12 26 -12 41.5t11 65.5q16 70 30 86q10 12 9.5 17.5t-15.5 21.5q-13 13 -15 20t5 16q11 12 27 13t26 -10q9 -8 40.5 9t37.5 34zM174 557q-8 22 -15 24t-21 -15q-22 -24 13 -164q6 -26 12 -32t21 -5q17 2 20 8.5
t2 35.5q-4 74 -32 148zM102 392q2 51 -11 62q-20 17 -23 -22q-1 -15 1 -42q3 -49 16 -49q8 0 11.5 11t5.5 40zM231 304q-7 19 -24 22.5t-30 -11.5q-10 -13 -8 -84.5t13 -71.5q8 0 24.5 18.5t28.5 50.5t-4 76z" />
    <glyph glyph-name="percent" unicode="%" horiz-adv-x="567" 
d="M399 334.5q11 10.5 77 10.5q46 0 58 -3t19 -18q6 -13 3 -28.5t-18 -50.5q-25 -61 -46.5 -90t-46.5 -37q-19 -7 -28.5 -5t-27.5 16q-20 14 -24 26t-4 50q0 57 13.5 68t13.5 31t11 30.5zM502 275q4 25 1.5 29.5t-21.5 4.5q-29 -1 -43 -12.5t-23 -44.5q-20 -71 2 -84
q19 -11 50 34q27 40 34 73zM83 651q29 13 38.5 10.5t31.5 -26.5q26 -28 26 -60q0 -34 -19 -92t-37 -83q-13 -17 -24 -22t-35 -5h-14.5t-12 1.5t-11.5 5t-8.5 10t-6 16.5t-1.5 26t1.5 36t7.5 48t12 62q8 36 17 49t35 24zM122 535q5 53 -4 59q-8 5 -19 -4.5t-11 -21.5
q0 -5 -14 -39t-19 -69q-4 -25 -2 -33.5t11 -8.5q17 0 35.5 37t22.5 80zM424 658q0 15 26 40q36 35 44 2q1 -3 1 -6q3 -17 -43 -87t-121 -162q-62 -77 -129.5 -173.5t-77.5 -122.5q-6 -16 -19.5 -20.5t-20.5 7.5q-6 9 6 32q27 51 38 71t23 39t18.5 26t29.5 35.5t49 63.5
l79 104q38 51 67.5 97t29.5 54z" />
    <glyph glyph-name="ampersand" unicode="&#x26;" horiz-adv-x="494" 
d="M204 627q51 26 61 27q17 1 42 -26t29 -52q9 -47 -15.5 -124t-61.5 -120q-15 -18 -21 -35q-5 -14 8 -37.5t27 -23.5q12 0 23 -13q21 -26 56.5 -5t95.5 96q25 31 31 26q2 -2 4 -7q5 -14 -14 -37t-19 -29q0 -5 -31 -45t-29 -54q0 -12 -14.5 -16t-75.5 -9q-83 -7 -165.5 -3
t-103.5 15l-21 11l25 22q25 21 44 21q16 0 48 28t32 41q0 9 -12 25t-26 33.5t-25.5 49.5t-10.5 69q1 52 33 99t86 73zM285 581q-16 29 -39.5 23t-64.5 -51q-40 -44 -48.5 -75.5t9.5 -69.5q43 -90 53 -90q7 0 26 27.5t40 68.5q22 42 29 92.5t-5 74.5zM229 210q-33 45 -63 6
q-20 -25 -14.5 -34t42.5 -9q44 0 49.5 5.5t-14.5 31.5z" />
    <glyph glyph-name="quotesingle" unicode="'" horiz-adv-x="143" 
d="M85 675q13 14 23 13t20 -18q9 -14 -2 -35t-11 -30q0 -7 -5 -13t-17.5 -21.5t-24.5 -40.5q-18 -37 -31 -49t-23 -1q-9 8 5 41t32.5 70.5t18.5 49.5q0 16 15 34z" />
    <glyph glyph-name="parenleft" unicode="(" horiz-adv-x="230" 
d="M133.5 629q31.5 17 59.5 15q18 -2 24.5 -9t-2 -15t-27.5 -12q-47 -10 -77.5 -67.5t-50.5 -172.5q-15 -95 5.5 -178t61.5 -93q20 -5 11 -16q-8 -8 -26 -8q-25 0 -52 34t-39 79q-15 56 -10.5 126t20 134t43.5 115t59.5 68z" />
    <glyph glyph-name="parenright" unicode=")" horiz-adv-x="172" 
d="M48 568q14 16 26 6.5t40 -57.5q47 -82 48 -144.5t-44 -158.5l-59 -128q-30 -67 -43 -62q-8 2 -5 31q2 26 11 39.5t9 20.5q0 10 12.5 38t27.5 63.5t27.5 75.5t11.5 83.5t-20 79.5q-2 3 -6 10q-36 66 -40.5 79t3.5 23z" />
    <glyph glyph-name="asterisk" unicode="*" horiz-adv-x="397" 
d="M209 656q19 28 61.5 36t68.5 -13q13 -10 11 -34.5t-19 -49.5q-11 -18 -12.5 -25.5t5.5 -10.5q47 -16 55 -23.5t8 -34.5q0 -31 -9 -39.5t-53 -19.5l-42 -11l3 -48q3 -48 -13 -66q-48 -52 -107 55q-11 20 -16.5 22t-23.5 -7q-39 -19 -53.5 -19t-29.5 19q-18 22 -19 37.5
t15 32.5q10 12 9 17.5t-16 16.5q-14 11 -18 22.5t-4 40.5q1 36 15 60.5t31 17.5q6 -2 14.5 7.5t22 23.5t28.5 20q17 6 25 2.5t24 -22.5l24 -28zM302 641q-12 31 -60 -10q-34 -28 -29 -51q5 -20 36 -3q26 13 41.5 32.5t11.5 31.5zM141 618q0 9 -4 9q-6 0 -10 -10q-3 -8 5 -8
q9 0 9 9zM100 555q-23 24 -32 26t-15 -14q-8 -22 12.5 -38t45.5 -6q9 3 7 9t-18 23zM336 509q-10 9 -42.5 13t-43.5 -3q-8 -5 -8.5 -10.5t5.5 -14.5q10 -17 47.5 -20t43.5 12t-2 23zM147 463q-14 22 -48 -2q-27 -20 -26 -39q1 -13 22 -13q15 0 36 22t16 32zM241 400
q-17 42 -33 41q-17 0 -8 -45q3 -19 10 -31t15 -13.5t16 7.5q7 8 7 16.5t-7 24.5z" />
    <glyph glyph-name="plus" unicode="+" horiz-adv-x="527" 
d="M261 504q-13 24 3.5 37t33.5 -7q8 -10 12 -73t9 -66q7 -4 74.5 7t85.5 19q18 9 29.5 1t7.5 -27q-3 -18 -44 -23q-56 -8 -103.5 -19t-54.5 -17q-7 -7 -10 -91t-17 -98q-24 -25 -31 19q-3 24 -3 73q0 87 -6.5 91.5t-108.5 -9.5q-121 -16 -127 0q-2 4 0 8q3 10 75 26.5
t115 16.5q26 1 37 5t18 17q10 19 12 56t-7 54z" />
    <glyph glyph-name="comma" unicode="," horiz-adv-x="107" 
d="M49 225q37 27 46 -20q9 -50 -21 -145t-50 -94q-5 0 -10 5q-16 16 26 148q8 29 7.5 47t-5.5 27t-4.5 16t11.5 16z" />
    <glyph glyph-name="hyphen" unicode="-" horiz-adv-x="350" 
d="M22 314q17 13 35 7q17 -5 89 -7.5t133 -7t61 -14.5q0 -17 -41 -22.5t-138 -0.5q-151 7 -151 29q0 7 12 16z" />
    <glyph glyph-name="period" unicode="." horiz-adv-x="85" 
d="M19 178q21 26 48 -3q15 -17 4 -33t-35 -13q-19 3 -24.5 18.5t7.5 30.5z" />
    <glyph glyph-name="slash" unicode="/" horiz-adv-x="331" 
d="M268 649q7 7 27.5 5.5t25.5 -9.5q4 -7 -21.5 -55t-68 -122.5t-60.5 -108.5q-54 -105 -77 -131q-14 -16 -14 -37q0 -20 -15 -37.5t-33 -17.5t-21.5 15.5t11.5 37.5q11 18 40.5 72.5t39.5 65.5q8 11 33 60.5t36 67.5q5 7 24 38t43 76.5t24 58.5q0 15 6 21z" />
    <glyph glyph-name="zero" unicode="0" horiz-adv-x="378" 
d="M177 657q44 7 66 3.5t48 -21.5q84 -58 76 -137q-5 -49 -25.5 -143t-31.5 -116q-14 -28 -14 -36q0 -5 -7 -22t-17 -40.5t-15 -37.5q-2 -7 -13 -16t-24 -15q-23 -11 -32.5 -11t-34.5 12q-47 21 -85.5 95.5t-52.5 169.5q-8 68 -2 125.5t26.5 95t48.5 37.5q41 0 2 -57
q-17 -25 -22 -45.5t-7 -72.5q-4 -103 41 -220q14 -37 46 -64.5t52 -19.5q13 5 32 34.5t25 53.5q3 14 12 39.5t17 65.5q8 39 18 84.5t13 59t4.5 34.5t-2.5 33t-13 33q-13 27 -30.5 43t-34 19.5t-35 4t-32 -4t-24.5 -4.5t-13 4q-6 10 7 22t33 15z" />
    <glyph glyph-name="one" unicode="1" horiz-adv-x="112" 
d="M15 552q-8 24 -4.5 46t26.5 18q15 -2 19.5 -13t12.5 -65q6 -44 11 -74q10 -59 18 -173q5 -70 4 -94.5t-9 -32.5q-12 -14 -28 -4q-10 6 -13.5 25.5t-4.5 79.5q-1 72 -10 154t-22 133z" />
    <glyph glyph-name="two" unicode="2" horiz-adv-x="454" 
d="M179 583q37 7 50.5 6t26.5 -11q36 -28 24 -134q-7 -62 -27.5 -109t-68.5 -110q-49 -66 -49 -73t19 -7q30 0 138 15.5t123 21.5q21 9 25 8t4 -16q0 -18 -12 -23q-13 -6 -84 -15q-69 -9 -98.5 -18t-69.5 -12q-26 -2 -52 -6.5t-43 -8.5t-31.5 -6.5t-24 -1.5t-15.5 7t-2 13
t23 22q35 26 90 84t55 68q0 8 14 23t14 26q1 15 18 51q15 32 17.5 88t-10.5 70q-11 10 -37 10q-23 0 -55.5 -18t-32.5 -32q0 -11 -17 -31q-11 -14 -15.5 -15t-12.5 9q-7 8 -5.5 17t13.5 29q18 30 47.5 51t60.5 28z" />
    <glyph glyph-name="three" unicode="3" horiz-adv-x="325" 
d="M261 566q0 -27 -34 -98q-23 -49 -10 -57q4 -2 10 -2q24 0 56 -51.5t32 -89.5q0 -39 -42 -92t-89 -74q-32 -14 -66 -11t-54 23q-17 17 -20.5 36.5t9.5 27.5q8 4 40 -28t34 -32q13 0 53 27.5t57 49.5q18 21 23 36t5 43t-6 42t-25 34q-24 25 -50.5 31.5t-36.5 -9.5
q-10 -15 -41 -24t-50 -2q-22 9 -22 17q0 14 31 39t54 29q32 6 50 24t32 57q12 31 11.5 40t-12.5 22q-10 12 -21 14t-36 -2q-40 -6 -69 -28q-38 -29 -58 -20q-10 5 -4 21q6 14 50 36t93.5 29.5t83.5 -19.5q22 -22 22 -39z" />
    <glyph glyph-name="four" unicode="4" 
d="M146 504q0 4 36.5 47t36.5 57q0 27 16 29t22 -20q2 -8 2 -17q0 -19 4 -25.5t15 -6.5q12 0 16 -15t9 -80q6 -95 15 -103.5t37 3.5q27 11 38 3.5t-1 -29.5q-10 -19 -44 -22l-34 -2l3 -46q7 -113 0 -124q-2 -4 -9 -5q-16 -4 -25 20t-10.5 55.5t-6 61t-12.5 35.5
q-13 8 -117 6q-115 -2 -125 13q-9 12 34 56l68 69q32 31 32 40zM257 525q-13 20 -19 20q-10 0 -78 -83.5t-62 -88.5q10 -10 74.5 -12.5t76.5 5.5q15 12 18.5 75t-10.5 84z" />
    <glyph glyph-name="five" unicode="5" horiz-adv-x="371" 
d="M135 685q53 3 109 1t61 -8q10 -10 -15 -15q-6 -2 -109 -12q-67 -7 -86 -19q-17 -11 -20.5 -23.5t-3.5 -58.5q0 -67 8 -72q6 -3 41 18.5t44 21.5t16 4t13.5 9t27 9.5t52.5 4.5q43 0 54 -3.5t21 -23.5q13 -25 13.5 -45.5t-11.5 -48.5l-29 -67q-10 -24 -23 -40.5t-20 -24.5
t-7 -14q0 -16 -49 -65t-64 -49q-48 0 -57 59l-5 36l29 -27q23 -22 38.5 -19.5t30.5 29.5q1 3 34 49t56.5 93t21.5 81q-2 28 -7 34t-28 8q-30 3 -81 -19.5t-91 -55.5t-63 -30q-17 2 -21 10.5t-5 51.5q-2 59 11 122q12 60 32.5 77.5t81.5 21.5z" />
    <glyph glyph-name="six" unicode="6" 
d="M25 617q12 7 18 7.5t10.5 -7.5t6 -23t2.5 -44q3 -100 44 -193t94 -120q29 -15 41.5 7.5t17.5 99.5l5 88l39 34q22 21 35.5 27.5t30.5 4.5q16 -1 23 -7t5 -22.5t-11.5 -41.5t-30.5 -68q-46 -98 -43 -113q1 -6 7.5 -12.5t14.5 -10.5q30 -13 20 -22q-11 -10 -47 1
q-20 6 -30.5 5t-24.5 -10q-22 -14 -34.5 -14t-43.5 15q-26 12 -51.5 34.5t-33.5 40.5q-4 9 -21.5 39t-27 59.5t-17.5 82.5q-13 86 -12.5 120.5t14.5 42.5zM328 389q0 13 9.5 26t7.5 20q-3 10 -27 -21q-17 -22 -17 -32q0 -4 4 -6.5t9 -2.5q6 0 10 4.5t4 11.5z" />
    <glyph glyph-name="seven" unicode="7" horiz-adv-x="329" 
d="M249 598q73 42 70 -68q-1 -33 -9 -79q-8 -49 -11.5 -100t-4 -81t-3 -55.5t-10.5 -34.5t-24 -6q-18 3 -20.5 55t12.5 102q11 37 14 124.5t-6 92.5q-5 3 -116.5 -3t-122.5 6q-19 18 12 25q24 5 95 8q107 4 124 14z" />
    <glyph glyph-name="eight" unicode="8" horiz-adv-x="347" 
d="M65 624q25 14 53 11.5t51.5 -13t37 -31t7.5 -42.5q-3 -14 2.5 -21t31.5 -18q39 -17 64 -40q16 -15 20.5 -28.5t4.5 -47.5q0 -52 -29.5 -111t-74 -98.5t-82.5 -39.5q-23 0 -57.5 18t-44.5 35q-17 29 -22.5 86.5t2.5 110.5q8 45 7.5 59t-11.5 26q-20 24 -13 55t23.5 56.5
t29.5 32.5zM152 585q-21 14 -28 13t-31 -22q-23 -19 -27.5 -40.5t11.5 -34.5q24 -20 73 18q46 36 2 66zM242 482q-8 0 -22 13q-10 9 -18.5 6t-32.5 -24q-36 -31 -46 -31q-25 -1 -43.5 -56.5t-10.5 -106.5q5 -34 29.5 -63t47.5 -29q16 0 50 29.5t64 71t39.5 87.5t-24.5 79
q-25 24 -33 24z" />
    <glyph glyph-name="nine" unicode="9" horiz-adv-x="372" 
d="M205 591q23 6 60.5 2.5t56.5 -13.5q13 -6 15.5 -23.5t-8.5 -24.5q-9 -6 -5 -48l13 -157q10 -113 20 -139q6 -16 5 -24t-12 -19q-12 -13 -16.5 -13.5t-15.5 11.5q-16 16 -25.5 120.5t-9.5 118.5q-1 27 -12 27q-14 0 -57 -44q-47 -47 -84 -59t-74 7q-27 14 -36.5 33.5
t-9.5 60.5q0 61 54 112t141 72zM260 537q-5 8 -39.5 7t-61.5 -10q-29 -9 -65.5 -47t-42.5 -64q-6 -28 14 -53q24 -27 51.5 -23t55.5 30.5t49.5 59t32.5 62t6 38.5z" />
    <glyph glyph-name="colon" unicode=":" horiz-adv-x="114" 
d="M49 218q19 20 37 16t18 -29q0 -28 -16.5 -36.5t-35.5 10.5q-15 15 -15.5 20t12.5 19zM21 445q16 17 28 18t27 -13q10 -10 9.5 -16t-10.5 -21q-12 -19 -30.5 -19.5t-30.5 17.5q-9 15 7 34z" />
    <glyph glyph-name="semicolon" unicode=";" horiz-adv-x="114" 
d="M59 191q15 9 28 7q14 -3 13 -45.5t-16 -87.5q-6 -17 -11.5 -37t-8.5 -30.5t-7 -21t-8 -15t-11 -5.5q-22 -4 -26.5 10t6.5 49q10 33 15.5 76t10 68t15.5 32zM44 453q11 11 25 11q18 0 28 -13t6.5 -29t-20.5 -24q-28 -12 -44.5 10.5t5.5 44.5z" />
    <glyph glyph-name="less" unicode="&#x3c;" horiz-adv-x="364" 
d="M296 573q5 7 24 3.5t29 -12.5t-0.5 -23.5t-32.5 -22.5q-27 -10 -54.5 -24t-87.5 -40q-50 -21 -71 -39l-20 -19l19 -21q26 -27 101 -63t116 -41q10 -1 17 -6.5t9 -12.5q1 -10 -6.5 -13t-35.5 -3q-27 0 -36.5 2.5t-26.5 11.5t-45 18q-23 7 -38.5 15.5t-20.5 13.5t-9 8.5
t-9 3.5q-15 0 -61.5 41.5t-46.5 54.5q0 17 11 28.5t26 11.5t55 22l101 53q13 7 28 14.5t24.5 12.5t19 9.5t14.5 8.5t7 8z" />
    <glyph glyph-name="equal" unicode="=" horiz-adv-x="482" 
d="M377 344q17 6 40 8t39 0.5t16 -7.5q0 -8 -52 -28q-50 -19 -193 -29t-172 3q-45 21 30 30q20 3 200 13q73 4 92 10zM336 517q72 15 76 -1q3 -9 -27 -25q-50 -27 -196.5 -36.5t-168.5 12.5q-10 10 -10 15t9 14t16.5 9.5t24.5 -5.5q22 -9 82.5 -5.5t115.5 10.5t78 12z" />
    <glyph glyph-name="greater" unicode="&#x3e;" horiz-adv-x="389" 
d="M17 522q10 12 22.5 14t18.5 -8q5 -7 45 -19.5t51 -21.5q10 -9 63 -21t114 -19q46 -6 48 -21q3 -14 -49.5 -74.5t-101.5 -99.5q-46 -36 -71.5 -45t-38.5 6q-11 13 -4.5 22.5t26.5 9.5q21 0 90 69q69 68 68 81q0 6 -10 9q-70 20 -164.5 52.5t-103.5 39.5t-10 12t7 14z" />
    <glyph glyph-name="question" unicode="?" horiz-adv-x="282" 
d="M209 207q10 20 27 21.5t27 -13.5t2 -36t-17 -22.5t-30 14.5q-13 11 -14.5 17t5.5 19zM133 655q18 7 60 8q24 0 37 -4t25 -17q26 -28 11.5 -60.5t-81.5 -98.5l-78 -77l15 -24q19 -32 31 -72.5t4 -47.5q-9 -9 -19 -3q-12 7 -33.5 43t-21.5 48q0 6 -9.5 15.5t-23.5 17.5
q-23 14 -25 19t10 18q16 18 43 30q28 12 76 60t53 69q6 23 -8 36q-10 10 -20.5 9.5t-44.5 -11.5q-51 -17 -65 -38q-8 -12 -22.5 -17.5t-25.5 -1.5t-11 16q0 16 36.5 41t86.5 42z" />
    <glyph glyph-name="at" unicode="@" horiz-adv-x="559" 
d="M361 136q11 0 19.5 9.5t15 18.5t11.5 9t38 21.5t65 37t39 3.5q4 -7 -18.5 -28.5t-52.5 -38.5q-10 -6 -45 -30.5t-64.5 -44.5t-34.5 -20q-7 0 -28 -9.5t-43 -18t-58.5 -7t-75.5 19.5q-49 23 -80.5 63.5t-37.5 88.5q-5 45 8 111t34 104q20 34 33 59q13 26 64.5 71.5
t72.5 49.5q6 2 31.5 9t40 9.5t46.5 1t69 -9.5q50 -12 68.5 -42.5t18.5 -102.5q0 -48 -3.5 -65.5t-18.5 -37.5q-32 -41 -60 -45t-58 29l-20 21l-44 -41q-39 -36 -63.5 -44.5t-49.5 5.5q-22 12 -26 47t15 57q28 33 76.5 47.5t97.5 3.5q19 -4 27.5 -12t14.5 -26q18 -54 45 -26
q25 26 30 79q1 7 1 13q0 28 -5.5 42t-25.5 35q-22 25 -35 29.5t-58 4.5q-37 0 -58.5 -5t-49.5 -20q-55 -30 -79.5 -56.5t-56.5 -89.5q-29 -58 -35 -81t-6 -79q0 -51 4 -70t19 -41q23 -35 61 -54t74 -15q30 3 75.5 22t52.5 30q6 9 23 9zM297 403q0 6 -25 6q-23 0 -50.5 -25.5
t-21.5 -41.5q6 -15 17 -15q10 0 45 33.5t35 42.5z" />
    <glyph glyph-name="A" unicode="A" horiz-adv-x="733" 
d="M229 511q11 43 17 52.5t23 9.5q24 0 33 -15t15 -62q6 -51 16 -69t34 -18q22 0 53.5 8.5t63 22t57.5 25.5t48.5 23.5t23.5 12.5l60 26q27 12 38.5 12t11.5 -13q0 -5 -35 -25t-56 -28q-14 -5 -81 -39q-47 -25 -54.5 -32.5t2.5 -18.5q14 -17 14 -31.5t10 -19.5q10 -7 8 -70
t-14 -104q-11 -39 -28 -54t-42 -8q-17 5 -43.5 28.5t-26.5 32.5q0 13 -32 82t-40 74q-7 5 -34.5 -9t-40.5 -29q-15 -16 -27 -93q-8 -51 -13.5 -64.5t-18.5 -15.5q-27 -4 -28 27q-1 11 10 71q5 25 -2 26q-5 0 -15 -8q-16 -13 -50 -29t-46 -16q-16 0 -25 12q-11 13 5.5 30
t90.5 71q1 1 4 3q62 45 73.5 61t20.5 66q10 53 20 95zM277 415q0 21 -9 21q-10 0 -17.5 -20.5t-0.5 -27.5q6 -5 12 -3.5t10.5 10t4.5 20.5zM484 323q-9 33 -15.5 39.5t-32.5 7.5q-36 3 -58 -14l-22 -17l17 -49q9 -29 20 -50.5t15.5 -30.5t4.5 -18q0 -15 18.5 -31t30 -11.5
t23.5 66.5q8 40 7.5 60t-8.5 48z" />
    <glyph glyph-name="B" unicode="B" horiz-adv-x="416" 
d="M29 555q13 20 36 -11l15 -20l40 20q51 25 84 16t44 -51q5 -23 -13 -59q-6 -9 -10 -17.5t-6 -13.5t-1 -5q34 -10 66 -49t32 -72q0 -18 10 -23t47 -9q36 -3 33 -11q-3 -9 -51 -14q-37 -3 -47 -8t-20 -26q-15 -33 -99.5 -117.5t-102.5 -85.5q-14 -1 -22.5 -1t-17.5 0.5
t-14 4.5t-9.5 8t-6.5 13l-4 18t-2 25t0.5 32.5t1.5 41.5q2 38 5 147.5t6 185.5t6 81zM200 491q1 20 -2 26t-14 7q-39 3 -86 -56q-28 -36 -27 -66q1 -21 19 -5q2 1 4 3q8 8 39 11q28 2 46 24t21 56zM261 278q10 14 5.5 35t-22 40.5t-34.5 19.5q-20 -1 -79.5 -57t-64.5 -80
q-7 -30 1.5 -36.5t29.5 12.5q19 18 87 38t77 28zM216 181q0 5 19 20t13 24q-7 13 -30.5 7.5t-71.5 -30.5q-72 -38 -94 -119q-11 -45 1 -49t56 29q36 27 71.5 66t35.5 52z" />
    <glyph glyph-name="C" unicode="C" horiz-adv-x="556" 
d="M519 295q0 -8 13.5 -22.5t13.5 -23.5q0 -18 -23 -11q-18 6 -30 23q-12 16 -19 18.5t-22 -4.5q-22 -10 -39 -35q-25 -37 -71 -83t-78 -66q-26 -17 -44.5 -22t-49.5 -5q-35 0 -49 5t-38 27q-36 32 -56 73q-13 28 -15.5 54t-0.5 108q2 64 6.5 96t8.5 37.5t11.5 14.5t12.5 27
q6 20 44.5 58t64.5 50q33 14 73.5 12.5t67.5 -19.5l55 -35q20 -13 24.5 -29t-10.5 -22t-51 24q-50 40 -105.5 34.5t-97.5 -54.5q-33 -38 -33 -48.5t-16 -41.5q-9 -17 -12.5 -44.5t-3.5 -85.5q0 -70 4 -91t21 -47q44 -67 98 -67q31 0 89.5 43.5t121.5 112.5q30 33 55.5 56.5
t31.5 23.5q13 0 30.5 -15t17.5 -26z" />
    <glyph glyph-name="D" unicode="D" horiz-adv-x="524" 
d="M65 588q9 10 16 11t15 -8q9 -9 44 1q47 13 95 -14t76 -82q12 -22 15.5 -47.5t4.5 -80.5q0 -58 -3.5 -81.5t-16.5 -49.5q-18 -34 -15 -49t27 -15q21 0 67.5 18t81.5 40q41 26 42 12q1 -13 -33 -43q-24 -22 -37 -28.5t-30.5 -10t-34.5 -11.5q-33 -14 -79 -14q-33 0 -45 -7
t-43 -47q-28 -37 -40.5 -46t-34.5 -9q-20 0 -35 9t-45 40l-47 49l9 71q9 75 16.5 177t13 152t16.5 63zM206 550q-30 9 -43 8t-38 -13q-16 -9 -23.5 -16.5t-13 -30.5t-7 -54.5t-3.5 -96.5l-2 -102l46 -22q46 -23 82 -25q27 -2 35 4.5t26 42.5q16 33 20.5 56.5t4.5 76.5
q1 61 -3.5 77.5t-27.5 47.5q-13 17 -28.5 31t-24.5 16zM164 166q-21 6 -38 15t-22.5 13.5t-12.5 4.5t-16 -10q-11 -10 -11.5 -30.5t9.5 -26.5q9 -6 9 -22q0 -14 16 -30t30 -16q12 0 38.5 32t27.5 47q1 14 -30 23z" />
    <glyph glyph-name="E" unicode="E" horiz-adv-x="401" 
d="M391 275q0 -17 -9 -30.5t-18 -23.5t-9 -16.5t-15.5 -24t-43 -36.5t-60.5 -33t-73.5 -11t-76.5 28q-35 24 -55.5 53.5t-20.5 54.5q0 22 26.5 75.5t43.5 65.5q8 7 10 11t-2.5 9.5t-11 12t-16.5 21.5t-18 34q-9 22 -9 34.5t9 39.5q11 31 40 60t59 39q19 6 70 7q36 0 48 -4.5
t32 -27.5q24 -28 25 -45.5t-23 -20.5q-12 -1 -18.5 5t-14.5 25q-9 21 -17 26.5t-29 5.5q-29 0 -50.5 -10t-51.5 -38q-27 -26 -30.5 -59.5t19.5 -56.5q16 -16 28 -16t62 17q34 12 47.5 13.5t21.5 -4.5q13 -11 13 -22t-46 -35.5t-66 -24.5q-28 0 -67 -51.5t-39 -87.5
q0 -23 32.5 -55t61.5 -37q47 -9 114 30.5t91 90.5q17 36 29 35q8 -1 8 -23z" />
    <glyph glyph-name="F" unicode="F" horiz-adv-x="411" 
d="M124 621.5q22 18.5 41.5 21.5t111.5 1q111 -3 120 -10q4 -3 4 -11q0 -13 -13 -16q-14 -3 -87 -4q-85 0 -117.5 -9t-33.5 -32q-2 -39 2.5 -82t10.5 -51q9 -10 50.5 -8t75.5 6.5t38 6.5q11 2 13.5 -1t0.5 -16q-2 -15 -14 -19t-68 -7q-79 -5 -90 -15q-8 -9 -19 -82.5
t-17 -85.5q-9 -16 -9 -37t-28 -65q-18 -29 -27.5 -35.5t-28.5 -5.5q-27 3 -30 18q-2 9 13 14q2 0 6 1q17 2 37 32.5t26 64.5q4 23 13.5 44.5t11.5 65.5q2 38 -1 47.5t-21 17.5q-24 12 -24.5 21.5t22.5 17.5q7 3 10 4.5t6 4t3 6.5t0.5 9t-1.5 14.5t-3.5 19.5t-3.5 28t-4 37
q-4 48 -1 59.5t25 30z" />
    <glyph glyph-name="G" unicode="G" horiz-adv-x="510" 
d="M192 589q39 19 117 21.5t92 -15.5q14 -17 5.5 -29.5t-30.5 -6.5q-49 12 -78 11t-68 -17q-52 -20 -73 -34q-36 -23 -69 -92.5t-33 -122.5q0 -41 42 -122q10 -20 39.5 -42t46.5 -22q30 0 87 52.5t97.5 113t28.5 81.5q-6 9 -62 5.5t-69 1.5q-12 8 -6.5 22.5t20.5 14.5t76 15
q44 10 58 9.5t45 -14.5q70 -32 19 -57q-19 -10 -47 -55.5t-36 -55.5q-18 -19 -38 -53q-25 -42 -86.5 -83.5t-98.5 -41.5q-19 0 -49 19.5t-46 42.5q-66 98 -66 171q0 22 2 37t4.5 21.5t9 21t9.5 23.5q32 81 60.5 113.5t96.5 66.5z" />
    <glyph glyph-name="H" unicode="H" horiz-adv-x="528" 
d="M205 464q16 0 46.5 -23t34 -23t7.5 52t9 108t12 64q9 11 17 11.5t17 -10.5q10 -12 0 -71q-8 -53 -6 -109.5t12 -59.5q6 -2 45.5 32t77 66t40.5 27q5 -9 -11 -21q-10 -8 -17.5 -21t-27.5 -37t-61 -57l-62 -50l6 -87q6 -87 8 -105q2 -16 -16 -21t-30 9q-10 13 -16 87
q-7 75 -22 75q-7 0 -18 -14q-12 -13 -27 -13q-9 0 -15 -3.5t-11 -7.5t-22.5 -7.5t-47.5 -4.5q-44 0 -51 -3t-4 -20q-1 0 0 -8.5t-1 -21.5t-5.5 -25.5t-12.5 -21.5t-22 -9q-16 0 -19 9t-1 68q2 56 12 120t15 157q6 106 14 115q4 4 11 4q10 0 15.5 -8t6 -19t-0.5 -22.5
t-2.5 -19t-1.5 -8.5q-5 -11 -3.5 -61.5t6.5 -60.5q5 -7 20 6q17 14 51.5 28.5t50.5 14.5zM229 422q-17 12 -24 11.5t-42 -14.5q-36 -15 -60 -39t-29 -51q-3 -18 -0.5 -25.5t14.5 -13.5q26 -14 76.5 -0.5t92.5 45.5q16 12 17 18.5t-10 26.5q-15 28 -35 42z" />
    <glyph glyph-name="I" unicode="I" horiz-adv-x="178" 
d="M54 602q1 7 20 7q22 0 27 -28.5t-5 -103.5q-46 -342 -37 -364q2 -5 5 -6t9 2t15.5 10t24.5 21q49 41 53 37q6 -6 -10 -36.5t-35 -51.5q-20 -22 -46 -29t-46 3q-12 7 -15.5 20t-3.5 56q0 66 9 102q25 94 35 361z" />
    <glyph glyph-name="J" unicode="J" horiz-adv-x="332" 
d="M285 630q8 16 23.5 13t13.5 -20q-1 -9 -5 -27.5t-16 -76t-27 -142.5q-32 -174 -51.5 -242t-42.5 -79q-15 -7 -24 -6.5t-25 8.5q-20 10 -70.5 62t-50.5 63q0 29 75 -38q20 -18 32 -27.5t23.5 -13.5t17.5 -1t12.5 16t11 31t10.5 50l24 123q4 16 17 94t25.5 131.5t26.5 81.5
z" />
    <glyph glyph-name="K" unicode="K" horiz-adv-x="432" 
d="M21 625q1 3 21 0q14 -1 17 -14q4 -14 7 -104q2 -116 9 -116q16 0 48.5 66t36.5 107q3 22 23 25q12 2 18 -1.5t7.5 -14t-2 -27t-12.5 -42.5l-19 -60l23 -47q24 -47 24 -58q0 -15 32.5 -86.5t47.5 -90.5q14 -17 29 -17q14 0 31.5 24t23.5 49q1 10 7 17t13 9q9 1 12.5 -4
t3.5 -21q0 -22 -9 -33t-14 -31q-8 -41 -44.5 -54t-68.5 12q-40 32 -88 168q-33 93 -46 98q-8 3 -18 -11q-29 -39 -48.5 -93.5t-24.5 -110.5t-9.5 -67t-20.5 -11q-15 0 -18.5 5t-1.5 23q1 22 3.5 149t4 243t2.5 119z" />
    <glyph glyph-name="L" unicode="L" horiz-adv-x="432" 
d="M212 618q22 9 31.5 6.5t30.5 -22.5q15 -14 20 -27t5 -37q0 -52 -27.5 -97.5t-70.5 -63.5q-20 -9 -24.5 -17t-4.5 -38q0 -26 7 -43t31 -48q16 -20 37 -38.5t36 -25.5q23 -11 33 -11t32 11q31 15 47 38q17 27 25 16q7 -11 -6 -42q-27 -66 -109 -64q-32 1 -46 8.5t-49 43.5
q-70 68 -74 29q0 -15 -26 -51.5t-41 -40.5q-17 -6 -40 17q-15 16 -17.5 28t1.5 50q13 110 77 119q19 3 26.5 9.5t11.5 22.5q4 17 0.5 27.5t-18.5 27.5q-31 32 -52.5 64t-21.5 43q0 33 28 13q12 -9 27 -26q30 -34 36 -31q2 1 5 9q12 39 40 87.5t40 53.5zM251 507
q10 27 10 35.5t-9.5 18t-15 8.5t-18.5 -14q-19 -19 -19 -35q0 -12 -8 -25.5t-13 -37.5q-7 -37 10 -35q19 2 46 49q9 17 17 36zM64 174q18 6 31.5 48t-1.5 48q-12 4 -21.5 -12.5t-15.5 -48.5q-5 -36 3 -36q2 1 4 1z" />
    <glyph glyph-name="M" unicode="M" horiz-adv-x="610" 
d="M160 225q0 10 -18 36.5t-18 37.5t-18 48.5t-22 54.5q-12 47 -19 11q-6 -24 -6 -79l-3 -152q0 -42 -3.5 -50.5t-19.5 -8.5h-23v222q1 201 8 217q3 6 10 6q13 0 28 -22.5t51 -95.5q30 -62 66 -145q28 -66 47 19q15 68 40.5 129.5t46.5 95.5t37 61t16 36q0 25 17 28
q16 2 21 -20q2 -8 1 -18q-1 -26 -3 -106.5t4.5 -193t24.5 -123.5q8 -5 8 -21.5t19 -33.5q14 -13 19 -12t19 19q20 25 32 63q7 22 22.5 50.5t31 47t20.5 15.5q6 -4 2.5 -24t-12.5 -32q-4 -4 -8.5 -14.5t-8 -19.5t-9.5 -26l-10.5 -30t-11 -28.5t-13.5 -28t-14.5 -22.5t-17 -17
t-18.5 -6t-21.5 4t-23.5 19q-34 36 -52 89t-22 102.5t-4 94t-3.5 71.5t-15.5 27q-11 0 -40 -76.5t-40 -134.5q-8 -44 -23.5 -71t-32.5 -27q-14 0 -25.5 10.5t-11.5 23.5z" />
    <glyph glyph-name="N" unicode="N" horiz-adv-x="534" 
d="M392 594q17 24 39 24q14 0 37.5 -9.5t40.5 -21.5t15 -18q-3 -8 -17.5 -8t-53.5 7q-23 4 -31 1.5t-18 -18.5q-10 -15 -13 -53t-4 -159l-1 -189l-24 -3q-13 -1 -24 6t-28 28q-29 36 -29 42t-41 52q-29 32 -76 95.5t-47 71.5q0 7 -19.5 32.5t-24.5 25.5t-6 -44.5
t-1.5 -118.5t-3.5 -119q-4 -46 -8 -57.5t-17 -13.5q-17 -3 -23 11.5t-4.5 42t5 66.5t6 86t-2.5 99q-6 69 -2 100t22 41q12 6 20 2.5t24 -23.5q26 -31 73 -106q26 -42 68 -95.5t75.5 -88.5t38.5 -29q8 7 13 130q5 97 13 138.5t29 72.5z" />
    <glyph glyph-name="O" unicode="O" horiz-adv-x="525" 
d="M216 665q4 7 25.5 8.5t52.5 -12t52 -43.5q20 -27 28 -27q7 0 23.5 12t39.5 22.5t45 9.5q22 -2 29.5 -9t-1.5 -15.5t-31 -14.5q-37 -10 -66 -32q-21 -15 -25.5 -26t-4.5 -45q0 -32 -9 -60.5t-18 -48t-10 -29.5q0 -22 -43.5 -94.5t-68.5 -92.5q-22 -17 -37 -22t-50 -5
q-46 0 -70 16t-48 63q-17 33 -18.5 108.5t13.5 113.5q14 33 14 46q0 16 25 68t41 69q13 14 39 21t47.5 10.5t25.5 8.5zM289 627q-3 0 -26 3.5t-41 -0.5q-26 -3 -58.5 -37.5t-45.5 -72.5q-7 -22 -5 -29.5t17 -19.5q21 -16 45 -17q34 0 94 41t60 64q0 18 -15 43t-25 25z
M147 182q36 0 69 29t54 70t37 84t23.5 71t7.5 31q0 8 -4.5 14t-9 6.5t-8.5 -4.5q-3 -5 -26 -19.5t-56.5 -30t-68 -16.5t-61.5 21l-21 19l-13 -31q-21 -59 -19 -113.5t29 -92.5t67 -38z" />
    <glyph glyph-name="P" unicode="P" horiz-adv-x="381" 
d="M90 623q7 -9 11.5 -9.5t12 5.5t17 13.5t33 14t54.5 7.5q33 0 49 -5t42 -25q36 -27 49 -51.5t13 -65.5q0 -48 -38.5 -108.5t-88 -101.5t-80.5 -42q-17 0 -41.5 29t-24.5 49q0 26 20.5 65.5t40 52.5t53.5 15.5t38 -9.5q2 -5 -7 -10.5t-25 -9.5q-32 -9 -49 -26.5t-26 -51.5
q-6 -21 -5.5 -30.5t8.5 -17.5q17 -16 47 0.5t65 61.5q67 87 73.5 133t-41.5 84q-35 28 -64 28q-28 0 -64 -23t-36 -40q0 -19 -23 -28q-16 -6 -19.5 -16.5t-5.5 -49.5q-9 -314 -32 -322q-13 -5 -27 8q-8 9 -9 18t3 20.5t8.5 40t4.5 65.5q0 59 10 194q7 83 12 110t15 33
q15 8 27 -5z" />
    <glyph glyph-name="Q" unicode="Q" horiz-adv-x="636" 
d="M167 612q23 14 94 15q44 0 64.5 -4t45.5 -18q34 -21 53 -53t23 -65.5t4 -65.5t3 -59t13 -39q19 -21 37 -60.5t18 -59.5q1 -26 18 -75.5t26 -53.5q5 -1 13 7.5t16 22.5q13 21 20.5 28t9.5 -1.5t-1 -32.5q-4 -35 -17 -57.5t-29 -21.5q-15 0 -34 16.5t-28 37.5
q-31 70 -31 94.5t-15.5 69.5t-24.5 45q-6 0 -14 -16t-20.5 -42t-31.5 -54.5t-56 -57.5t-87 -48q-45 -17 -74 -14t-73 27q-46 27 -62.5 64t-16.5 114q0 127 56 231q19 36 51 75t50 51zM358 567q-22 19 -45 22.5t-40.5 -4.5t-31.5 -20t-21 -22.5t-7 -13.5q0 -12 -19 -50
t-24 -138q-3 -70 -1 -88.5t16 -36.5q23 -29 45.5 -23t64.5 53q48 55 83 77l35 22v73q0 62 -11 91.5t-44 57.5zM226 145q-10 0 -26.5 9t-34.5 25.5t-30.5 46t-12.5 63.5q0 39 15 120t26 104q13 26 13 29t-11 3q-5 0 -13.5 -8.5t-15.5 -20.5l-37 -62q-12 -20 -18 -35.5
t-12.5 -37.5t-13.5 -40q-18 -54 -12 -105t35 -91t71 -49q38 -9 86 11.5t85 60.5q34 38 52 66t11 35t-27 -7.5t-34 -38.5q-20 -32 -48 -55t-48 -23z" />
    <glyph glyph-name="R" unicode="R" horiz-adv-x="534" 
d="M21 611q11 13 19.5 13.5t13.5 -9t8.5 -21t6.5 -23.5t5 -15t50 34q27 22 44 29.5t37 7.5q45 0 66.5 -37.5t12.5 -94t-48 -104.5q-31 -39 -31 -52q0 -2 5.5 -23t16.5 -54t24.5 -65.5t33 -59t40.5 -33.5q40 -12 138 91q95 100 42 -4q-18 -36 -56.5 -72t-78.5 -55l-44 -20
l-36 22q-35 22 -55 62q-19 38 -42.5 99t-23.5 71q0 11 -48 8l-47 -2l-3 -92q-2 -72 -11 -93.5t-32 -12.5q-10 4 -11 12t2 47q7 84 10 167q3 81 1.5 121.5t-10.5 77.5q-10 44 -10 56t11 24zM243 559q-9 20 -26.5 22.5t-37.5 -8.5t-39 -27.5t-33 -34t-18 -29.5
q-8 -22 -4.5 -26t30.5 -2q25 1 46 -26.5t27 -27.5q8 0 27 34.5t28 65.5q11 36 0 59zM137 377q0 14 -12.5 20.5t-21.5 -2.5q-7 -7 -7 -24q0 -10 4.5 -13t16.5 -2q20 3 20 21z" />
    <glyph glyph-name="S" unicode="S" horiz-adv-x="296" 
d="M97 656q22 11 44 11.5t57 -9.5q20 -6 55 -51.5t33 -62.5q-8 -52 -61 29q-22 33 -33.5 42t-34.5 11q-43 3 -70 -32.5t-34 -105.5q-3 -35 -0.5 -47.5t16.5 -26.5q15 -17 53.5 -38t52.5 -21q10 0 52 -40q27 -25 34.5 -38t7.5 -36q0 -22 -7.5 -35.5t-33.5 -38.5
q-114 -110 -187 -34q-21 22 -26 35t-5 50q0 34 4 48.5t18 28.5q22 24 46 24q9 0 9 -7t-19.5 -27.5t-19.5 -61.5q0 -36 15.5 -57t41.5 -21q21 0 64 35t50 57q9 26 -32 59t-71 26q-20 -6 -20 9q0 9 -5.5 13.5t-20.5 14t-30 26.5q-17 20 -21 36t-4 64q0 34 3 54.5t6 28
t14.5 25.5t17.5 30q10 18 41 33z" />
    <glyph glyph-name="T" unicode="T" horiz-adv-x="390" 
d="M250 653q44 5 67 6.5t38 0t19 -5.5t6 -13q2 -13 -8 -16t-54 -3q-65 -1 -75 -11q-6 -6 -13 -65t-15.5 -130.5t-15.5 -97.5q-11 -41 -17 -136q-2 -36 -3 -52.5t-4 -28t-6.5 -14t-10.5 -3.5q-29 -5 -34.5 18.5t6.5 95.5q8 44 21 104t19 101t9 99l5 98h-22q-13 0 -36 -4.5
t-43 -9t-38.5 -6.5t-27.5 4.5t-6 22.5q4 24 239 46z" />
    <glyph glyph-name="U" unicode="U" horiz-adv-x="383" 
d="M26 593q4 7 22 7q13 0 15 -12t-3 -77q-7 -113 14.5 -215.5t63.5 -150.5q19 -21 30 -27.5t22 -2.5q14 4 49.5 50.5t35.5 61.5q0 5 15.5 57t28 120t6.5 114q-3 28 -1.5 38t11.5 14q15 5 28 -12q17 -22 5.5 -105t-46.5 -208q-16 -55 -42 -98t-55 -63l-35 -23l-41 17
q-31 14 -44.5 31.5t-54.5 101.5q-12 24 -12 57t-9 51q-18 33 -19 139.5t16 134.5z" />
    <glyph glyph-name="V" unicode="V" horiz-adv-x="404" 
d="M218 320q10 60 38.5 132t62.5 120.5t57 44.5q16 -3 18 -19.5t-13 -22.5q-16 -5 -41 -33.5t-25 -40.5q0 -13 -13 -27q-9 -11 -25 -70t-23 -113q-3 -20 -9.5 -33.5t-9 -18t0.5 -9.5q5 -10 -13.5 -59.5t-30.5 -57.5q-21 -13 -42 29t-38.5 98t-24.5 64q-6 6 -9.5 33.5
t-17.5 57.5q-12 26 -17.5 51t-19.5 49q-11 19 -12.5 29t4.5 21q10 19 17 19q11 0 23 -20.5t20 -51.5q14 -55 43.5 -132t38.5 -106q5 -19 12 -31.5t11 -10.5q9 2 20.5 35.5t17.5 72.5z" />
    <glyph glyph-name="W" unicode="W" horiz-adv-x="593" 
d="M500 638q26 25 50 32.5t33 -5.5q2 -4 -8 -12.5t-27 -16.5q-34 -16 -48 -38.5t-35 -92.5q-12 -40 -16.5 -122t-5.5 -147t-6 -72q-8 -15 -27.5 -6.5t-39.5 36.5q-12 15 -29.5 47t-34 64t-32.5 62.5t-27 49t-15 17.5q-10 -3 -26 -57l-36 -118q-19 -64 -19 -83.5t-13 -30.5
q-17 -13 -33.5 6.5t-21.5 56.5q-1 10 -9 54.5t-22.5 114.5t-27.5 113q-20 66 -10 76q11 12 26.5 0.5t21.5 -35.5l21 -86q5 -19 11 -46.5t10 -44t8 -32.5t8 -23t8 -5q6 2 12 22.5t14 49.5t15 43q12 23 23 64q17 69 59 32q17 -15 55 -94l57 -118q8 -16 16.5 -26.5t12.5 -8.5
q9 3 11 43q14 256 97 337z" />
    <glyph glyph-name="X" unicode="X" horiz-adv-x="584" 
d="M44 517q0 8 -18.5 38.5t-14.5 40.5q6 17 25 13t27 -24l26 -62q9 -22 16.5 -44.5t13 -34.5t16.5 -26q13 -16 17.5 -17t13.5 12q14 18 14 34t9 21q9 6 28.5 45.5t25.5 63.5q4 17 13.5 24.5t20 6.5t19 -5t11.5 -7q8 -9 7.5 -14.5t-10.5 -16.5q-24 -27 -74 -126.5t-50 -122.5
q0 -31 68 -105q24 -27 58.5 -46.5t58.5 -19.5q18 0 43 25t38 57q13 31 65 93t61 57q15 -10 -48 -102q-18 -27 -41.5 -74t-45.5 -71q-18 -19 -30.5 -24.5t-37.5 -5.5q-40 0 -93.5 34t-90.5 82q-12 16 -18 23.5t-14 11.5t-12 2.5t-12 -11t-14 -21.5l-18 -36q-24 -49 -34 -59
t-24 1.5t-12.5 33.5t16.5 30q12 6 34.5 46t32.5 84t-17 70q-9 8 -18.5 40.5t-18.5 48.5q-12 25 -12 37z" />
    <glyph glyph-name="Y" unicode="Y" horiz-adv-x="353" 
d="M287 640q8 8 25 4.5t25.5 -15t-0.5 -30.5q-6 -10 -10.5 -32t-9 -55t-9.5 -53q-7 -29 -20 -130.5t-22 -154.5q-13 -77 -13 -137t-11 -82q-12 -24 -31 -25.5t-33 18.5q-15 23 -25 86.5t-5.5 105.5t15 78.5t17.5 36.5q4 0 5 -58t2 -119t6 -65q12 -13 19 18q5 24 5 66
q0 50 7.5 97t13 69t0.5 43.5t-27 38.5q-20 16 -64 70.5t-52 60.5q-17 14 -52 72t-33 69q8 43 62 -30q7 -11 16 -23q28 -43 63.5 -88.5t62.5 -73.5t31 -23q8 8 22 93.5t14 122.5q0 39 6 45z" />
    <glyph glyph-name="Z" unicode="Z" horiz-adv-x="505" 
d="M348 649q10 10 27 3t19 -22q3 -17 -22.5 -65.5t-47.5 -68.5q-24 -22 -18.5 -31.5t38.5 -3.5q44 7 55 6t11 -12q0 -12 -44 -28.5t-76 -17.5q-29 0 -55 -31q-144 -169 -144 -181q0 -11 40.5 -21.5t85.5 -11.5q52 0 109 19q52 17 64.5 22.5t37.5 21.5q52 34 59 32
q3 -1 7 -11q6 -15 -32 -48q-40 -35 -116 -55t-153 -15q-51 3 -109.5 17t-73.5 27q-3 3 16.5 28.5t49.5 58.5q115 125 114 147q0 10 -17 10q-12 0 -23 14q-8 12 -5 21t17 13.5t33 1.5q28 -5 43.5 5t49.5 54q61 79 24 79q-14 0 -44 -10q-40 -14 -97 -20q-37 -4 -48 -2t-15 12
q-6 16 10.5 28.5t44.5 12.5q33 -1 107 8t78 14z" />
    <glyph glyph-name="bracketleft" unicode="[" horiz-adv-x="320" 
d="M23 709q12 9 106.5 15t103.5 -6q14 -23 -32 -33q-21 -4 -54 -5l-69 -3l-3 -86q-2 -66 5 -167t2 -160q-10 -139 21 -144q12 -3 109 24q98 28 98 7q0 -14 -30.5 -28.5t-67.5 -26t-44 -16.5q-9 -6 -75 -8q-83 -3 -83 20q0 7 6 16q12 19 16.5 167.5t-4.5 224.5
q-23 194 -5 209z" />
    <glyph glyph-name="backslash" unicode="\" horiz-adv-x="137" 
d="M11.5 664.5q5.5 9.5 24.5 6.5t31 -56.5t23.5 -144.5t21.5 -134q13 -56 14.5 -97.5t-9.5 -45.5q-12 -4 -23.5 20t-21.5 71t-18 96t-18 112t-18 102q-12 61 -6.5 70.5z" />
    <glyph glyph-name="bracketright" unicode="]" horiz-adv-x="273" 
d="M89 719q29 0 53 2.5t36 5t21 5t12.5 3.5t6 -0.5t5.5 -7.5q4 -7 5.5 -114.5t6 -233t15.5 -167.5q15 -57 12 -114l-3 -57l-83 -3q-49 -1 -72 1.5t-40 12.5q-48 27 -9 31q13 1 49 0q76 -1 85 10q5 5 6 23t-1 52t-4.5 74.5t-4.5 106t-2 130.5q-1 147 -10 171q-7 18 -17 21
t-60 1q-53 -3 -72 4.5t-12 27.5q3 8 19 11.5t58 3.5z" />
    <glyph glyph-name="a" unicode="a" horiz-adv-x="511" 
d="M351 145q-27 0 -48 20t-30.5 44t-17 44t-11.5 20q-5 0 -15 -15t-31.5 -44.5t-45.5 -54.5q-25 -26 -38.5 -33.5t-34.5 -7.5q-45 0 -57 13.5t-12 62.5q0 69 26 119.5t95 115.5q30 28 60.5 43t59 22.5t40.5 14.5q40 22 41 -11q1 -22 -13 -73q-22 -85 -16.5 -145.5
t38.5 -87.5q16 -13 44 5.5t62 65.5q40 54 47 55q16 1 0 -37q-6 -12 -14 -26q-20 -32 -30 -50q-10 -21 -43 -40.5t-56 -19.5zM267 447q-12 21 -75 -26q-76 -57 -119 -132q-28 -50 -25 -88q2 -22 7 -28t24 -8q19 -1 31 7t40 43q42 51 67 93q20 34 37.5 82.5t12.5 56.5z" />
    <glyph glyph-name="b" unicode="b" horiz-adv-x="492" 
d="M221 670q19 11 26 10.5t17 -11.5q30 -36 5 -116l-34 -112q-19 -64 -33 -92q-16 -33 -4.5 -95t35.5 -69q12 -4 37 31.5t46 82.5t21 71q0 28 25 35q21 6 28 -9q2 -4 2 -9q0 -16 17 -25q28 -15 47 35q8 22 17 20.5t9 -25.5q0 -17 -16 -45t-33 -39q-8 -6 -30 2t-31.5 0.5
t-29.5 -49.5q-25 -51 -62 -92.5t-57 -41.5q-13 0 -22 10.5t-24 41.5q-2 5 -5 13q-14 29 -20 29q-8 0 -37 -40q-2 -2 -6 -8q-8 -12 -13 -18q-21 -29 -43.5 -40t-35.5 1q-11 12 -5 27.5t23 19.5q21 5 65 71l43 65l6 127q3 80 8 113t20 67q22 53 44 64zM236 568q9 34 -1 48
q-6 8 -12 -12l-14 -40q-7 -23 -14 -59q-6 -32 3 -32q1 0 3 1q12 4 19 31z" />
    <glyph glyph-name="c" unicode="c" horiz-adv-x="509" 
d="M278 441q11 24 29.5 41t39 23.5t41.5 -4t35 -39.5q15 -28 5 -40q-13 -15 -25.5 -12.5t-19.5 21.5q-9 24 -18.5 25.5t-28.5 -18.5q-31 -34 -50.5 -110.5t-9.5 -119.5q14 -53 64.5 -51t107.5 58t51 25q-1 -8 -7 -22q-20 -48 -85.5 -82t-106.5 -18q-25 11 -41 30t-21 36
t-9.5 30t-7.5 13q-6 0 -42 -50q-42 -58 -83 -77.5t-69 6.5q-8 7 -13 21t-4.5 25.5t7 11.5t26.5 -19l21 -20l31 24q28 21 51.5 51t34.5 50t23.5 47.5t13.5 29.5l20 37q39 75 40 77z" />
    <glyph glyph-name="d" unicode="d" horiz-adv-x="670" 
d="M447 545q5 47 14 75t17.5 36t16.5 5q9 -3 7 -64.5t-11 -96.5q-9 -30 -9.5 -137t7.5 -112q5 -3 20 -46.5t33 -60.5q19 -17 32 -10t37 47q30 49 44 43q10 -5 0 -40q-11 -41 -47 -74t-56 -22q-32 18 -57.5 59t-35.5 89q-6 33 -14 46q-6 9 -9 9t-8 -9q-10 -14 -10 -32
q0 -17 -31 -60.5t-53 -57.5q-19 -13 -49.5 -8.5t-36.5 21.5q-6 14 -19 35l-13 21l-48 -51q-38 -42 -61 -48t-59 16q-21 13 -32 40t-2 42q4 5 11.5 3.5t14 -10t6.5 -17.5q0 -5 6.5 -12t15.5 -11q14 -7 24 -4.5t31 18.5q34 26 71.5 86.5t73.5 123t61 88.5q19 18 31 22.5
t39 2.5l42 -4zM423 414q-15 22 -17.5 22t-38.5 -26q-33 -24 -53.5 -56t-35.5 -84q-10 -35 -10 -47.5t10 -31.5q6 -12 13.5 -19.5t12.5 -7.5q11 0 44.5 40t33.5 53q0 8 5.5 17t16 29t19.5 46q10 29 10 39t-10 26z" />
    <glyph glyph-name="e" unicode="e" horiz-adv-x="352" 
d="M162 490q56 22 72 -8q18 -32 -11 -107t-80 -133q-36 -40 -36 -52.5t16 -27t36 -21.5q17 -5 38 13.5t68 81.5q31 42 47.5 57t24.5 10q26 -16 -62 -119q-46 -54 -71.5 -73t-48 -15t-55.5 32q-30 27 -51.5 27t-32.5 14q-7 8 -5.5 12t13.5 7q14 3 17 15.5t3 64.5q0 75 17 115
q15 33 44.5 64.5t56.5 42.5zM185 412q3 26 2 34.5t-10 8.5q-14 0 -35.5 -29t-36.5 -65.5t-22.5 -69.5t5.5 -40q10 -6 31.5 21.5t41 68.5t24.5 71z" />
    <glyph glyph-name="f" unicode="f" horiz-adv-x="385" 
d="M222 632q14 23 22 23q12 0 20 -19.5t1 -32.5q-7 -12 -16 -63t-18 -72q-11 -27 -17 -59q-4 -21 1 -32t29 -35t33 -27.5t23 4.5q12 6 29 23t28 27.5t17 6.5q3 -2 -6.5 -17.5t-26.5 -35.5l-41 -48l6 -70q5 -61 -9 -123.5t-41 -97.5q-21 -29 -46.5 -30.5t-44.5 25.5
q-20 29 -38 72t-18 62q0 14 -4.5 22t-10.5 6t-12 -14q-11 -19 -40 -16q-31 3 -32 18.5t30 29.5q12 7 26 18.5t21 20.5q10 16 29 93.5t26 135.5q5 35 22 73.5t17 49.5q0 15 14 37zM229 321q-15 14 -21.5 14.5t-14.5 -10.5q-9 -15 -22 -57t-10 -45q8 -8 25.5 -3.5t34.5 17.5
q21 17 23.5 42.5t-15.5 41.5zM266 156q6 41 -5 52.5t-37 -8.5q-23 -18 -51 -18q-20 0 -24 -5t-4 -29q0 -35 25.5 -84.5t42.5 -49.5q14 0 29.5 41t23.5 101z" />
    <glyph glyph-name="g" unicode="g" horiz-adv-x="499" 
d="M220 449q14 5 73 3q37 -1 48.5 -4.5t13.5 -13.5q2 -11 -4.5 -20.5t-16 -28.5t-12.5 -49q-4 -44 11 -50t78 15q64 21 74 10q6 -6 3.5 -10t-14.5 -8q-87 -34 -138 -51q-12 -4 -14 -19.5t2 -79.5q18 -285 -2 -309q-13 -16 -39.5 -18.5t-55.5 8.5q-34 14 -69 66t-46 106
q-8 36 -7 52t11 43q14 34 49.5 73t79.5 68q23 15 31 25.5t8 25.5q0 29 -12 32q-6 2 -11 -6q-6 -10 -75 -69q-58 -50 -91.5 -58t-62.5 19q-20 19 -22 45t13 54t42.5 55.5t68 52t86.5 41.5zM279 400q-6 12 -31.5 8.5t-55 -15.5t-60 -32t-47.5 -41q-28 -35 -31 -61.5t20 -29.5
q22 -4 44 9q28 14 97 84t64 78zM291 35q-2 141 -10 160q-8 18 -35 2q-7 -4 -28 -18q-39 -27 -58.5 -65t-19 -76t12.5 -74.5t34.5 -64.5t48.5 -40q34 -17 44 -5q13 16 11 140v41z" />
    <glyph glyph-name="h" unicode="h" horiz-adv-x="474" 
d="M156 691q41 43 80 22q39 -20 37 -81q0 -28 -11 -58q-10 -29 -9 -37t14 -18q22 -18 34.5 -67t16 -98t11.5 -96.5t22 -61.5q18 -18 33.5 -8.5t39.5 53.5q27 51 37 48q13 -4 -13 -68q-5 -13 -12 -27q-16 -33 -24.5 -41t-29.5 -8q-31 0 -58 25q-20 18 -25.5 34.5t-10.5 74.5
q-7 68 -18.5 128t-19.5 69q-5 6 -19 -12.5t-29.5 -51.5t-24.5 -66q-18 -60 -24 -146q-6 -76 -13 -83q-4 -3 -16 -3q-16 0 -19 6t-2 35q1 33 5.5 71t7.5 60t2.5 41t-8.5 27q-13 13 -24 2t-36 -10t-34 12t-4 17.5t24 6.5q18 0 48 23q23 17 27 29.5t4 63.5q1 86 10 128t31 65z
M225 672q-15 27 -29 10q-9 -10 -22 -41q-23 -51 -23 -106q0 -33 4.5 -43.5t14.5 -1.5t28 40q22 37 30 79t-3 63z" />
    <glyph glyph-name="i" unicode="i" horiz-adv-x="325" 
d="M159 526q40 48 79 13q22 -20 13 -80t-45 -131q-21 -48 -13.5 -98t28.5 -87.5t37 -37.5q13 0 19.5 11.5t19.5 55.5q3 13 12.5 3t2.5 -54q-5 -26 -11 -36.5t-20 -15.5q-29 -10 -53 5.5t-46 60.5q-28 56 -36 56t-42 -46q-60 -81 -84 -62q-14 12 -8 24t47 54q54 57 65.5 89.5
t1.5 101.5q-10 65 -2.5 102.5t35.5 71.5zM222 489q6 22 -8 20q-14 -1 -32 -24q-19 -24 -19 -73q0 -51 13 -50q6 1 11 17q2 6 12 32t13 39q4 18 10 39zM228 689q12 11 19.5 10t15.5 -16q9 -18 -4.5 -33.5t-28.5 -3.5q-24 20 -2 43z" />
    <glyph glyph-name="j" unicode="j" horiz-adv-x="280" 
d="M179 463q24 29 43 26q12 -2 15.5 -9.5t2.5 -34.5q-1 -40 -15 -77q-9 -23 -10 -59.5t2 -75.5t5.5 -108.5t0.5 -136.5q-2 -66 -6 -86t-18 -35q-18 -19 -28 -20.5t-27 13.5q-23 21 -16 98.5t36 134.5q15 28 17.5 78t-9.5 63q-10 10 -48 -26q-24 -24 -37 -29.5t-37 -3.5
q-22 1 -29.5 6t-9.5 18q-4 25 7 32t28 -8q13 -12 19.5 -10t30.5 24q32 31 45.5 63t13.5 80q0 34 4.5 49.5t19.5 33.5zM187 -15q6 44 -6 42q-8 -2 -17 -34q-17 -60 0 -70q10 -6 15 14q3 13 8 48zM221 614q5 13 18.5 13t24.5 -13q10 -13 4.5 -22.5t-22.5 -9.5q-16 0 -23 9
t-2 23z" />
    <glyph glyph-name="k" unicode="k" horiz-adv-x="435" 
d="M146 671q8 8 20 14t20 6q22 0 31 -24t8 -53t-3 -53.5t-1 -24.5q4 0 15 6.5t23 11.5t26 6t27 -11t22 -38q15 -45 -8.5 -90t-81.5 -85q-23 -16 -16 -48.5t40 -64.5q40 -39 68 -30.5t53 64.5q7 18 15.5 29.5t11.5 8.5q13 -7 9 -29t-14.5 -46.5t-28.5 -45.5t-34 -25
q-33 -8 -84.5 24.5t-66.5 71.5q-12 29 -21 5q-5 -14 -7 -41q-2 -25 -6 -33t-15 -8t-15 8t-6 35q-2 44 -9.5 44t-36.5 -37q-21 -26 -41 -33.5t-29 7.5q-6 10 16.5 29.5t56.5 69.5l33 51l-2 123q-1 102 5 142.5t26 63.5zM189 599q0 46 -14 44q-17 -3 -26 -59q-5 -32 -0.5 -67
t13.5 -35q7 0 17 42.5t10 74.5zM303 499q-6 20 -23.5 18t-31.5 -23q-56 -83 -46 -112q7 -22 50 14q26 22 41.5 53.5t9.5 49.5z" />
    <glyph glyph-name="l" unicode="l" horiz-adv-x="431" 
d="M185 614q3 21 14 36.5t29.5 20.5t42.5 -16q14 -11 17.5 -25t1.5 -61q-1 -43 -7.5 -72.5t-28.5 -81.5q-34 -83 -50 -110q-14 -28 -14.5 -55t13 -47.5t35.5 -20.5q15 0 51.5 32t68.5 74q18 23 37 28t26 -11q5 -14 -67 -86q-41 -43 -63 -59t-42 -20q-25 -4 -35.5 1t-35.5 31
l-36 38l-49 -53q-32 -33 -44 -41t-21 -2q-20 13 -17.5 24.5t29.5 29.5q35 23 69 67q22 29 27.5 45.5t5.5 49.5q0 39 6.5 88t13.5 84.5t14.5 70.5t8.5 41zM259 591q-3 23 -15 24.5t-21 -20.5q-10 -29 -22.5 -92.5t-12.5 -89.5q0 -32 9 -30t18 37q5 16 18.5 55.5t21 68.5
t4.5 47z" />
    <glyph glyph-name="m" unicode="m" horiz-adv-x="743" 
d="M35 189q0 5 13.5 20t13.5 32q0 22 8 27q5 3 23 37.5t42 81.5t40 70q23 35 23 41.5t14 26.5q25 36 44 13q15 -17 15 -60v-46l48 53q46 53 64.5 51.5t21.5 -57.5q3 -52 9.5 -52t32.5 33q24 30 62 57.5t55 27.5q5 0 12.5 -5t14.5 -19t10.5 -34.5t-0.5 -55t-18 -76.5
q-14 -41 -21 -118q-5 -48 -3.5 -66.5t10.5 -32.5l15 -23l71 75q29 31 52 51.5t25 18.5q7 -7 -16 -44t-61 -80q-29 -32 -44.5 -43t-31.5 -11t-24.5 7t-20.5 29q-17 34 -17 69t17 124q30 159 24 174q-2 6 -9 6q-16 0 -58 -40.5t-58 -72.5q-14 -28 -29 -81.5t-21 -98.5
q-4 -28 -11 -36t-24 -1q-10 3 -11.5 13.5t1.5 42.5l14 130q2 25 5 44.5t4.5 28.5t3 15t1.5 9t-1 4.5t-4 6.5q-5 8 -10 6.5t-17 -16.5q-28 -35 -63.5 -119t-45.5 -139q-13 -77 -33 -77q-7 0 -17 8q-10 9 -8 48.5t15 63.5q7 14 16.5 83.5t14.5 85.5q7 23 -3 18q-19 -9 -54 -72
q-13 -23 -22 -45q-11 -26 -41 -93t-35 -82q-5 -16 -19.5 -22t-23.5 4q-10 10 5 43t15 39z" />
    <glyph glyph-name="n" unicode="n" horiz-adv-x="690" 
d="M423 482q6 0 27.5 18t35.5 16q13 -2 15.5 -13.5t0.5 -61.5q-3 -73 -16 -120q-12 -42 -13 -97.5t11 -67.5q16 -16 38.5 -3t76.5 71q74 79 79 73q10 -9 -20 -55t-70 -85q-50 -49 -74.5 -55t-52.5 23q-23 24 -25 69.5t15 147.5q20 116 1 117q-6 0 -14 -6
q-43 -30 -90.5 -86.5t-47.5 -76.5q0 -5 -6 -20t-20 -46.5t-23 -53.5q-10 -26 -23 -31.5t-26 9.5q-10 12 4 39q20 39 48.5 127t22.5 94q-7 6 -21 -12t-46.5 -64t-64.5 -82q-50 -55 -79 -91q-21 -26 -27 -29t-18 9t-11 17t18 20q22 19 95 109t97 129q24 36 51 62
q18 17 26 19.5t21 -4.5q12 -6 15.5 -14.5t0.5 -23.5q-4 -33 8 -31q9 2 47 37q25 23 34 23z" />
    <glyph glyph-name="o" unicode="o" horiz-adv-x="357" 
d="M160 491q26 0 41 -6t38 -25l36 -32l19 20q18 20 23 36q5 13 13.5 15.5t15.5 -7.5q5 -9 -7.5 -36t-31.5 -49q-15 -16 -20 -36t-9 -78q-4 -70 -12 -95.5t-35 -50.5q-22 -20 -71.5 -22t-81.5 17q-44 26 -56 55t-12 110q0 63 3.5 87t16.5 49q13 22 22 34t21 16t21 3.5t29 -3
t37 -2.5zM212 434q-25 22 -43 24.5t-35 -15.5q-32 -34 -11 -62q20 -26 60 -15q14 3 27 12q20 13 20.5 25.5t-18.5 30.5zM180 329q-41 -3 -54 1t-33 24q-15 14 -24.5 18t-15.5 -2.5t-8.5 -23.5t-2.5 -47q0 -43 5 -57t30 -41q54 -58 110 -28q19 10 34 46t16 71v42z" />
    <glyph glyph-name="p" unicode="p" horiz-adv-x="451" 
d="M237 471q11 11 23 10t16 -13q11 -33 14 -36t19 8q24 16 47.5 13.5t43.5 -23.5q25 -27 34 -54.5t6 -45t-8.5 -38.5t-5.5 -29q0 -15 -40.5 -56.5t-68.5 -56.5q-16 -8 -21 -14.5t-7.5 -25.5t0.5 -55q2 -51 -12 -63q-24 -20 -34 13q-8 30 -14 125q-6 121 -18 121
q-7 0 -20 -26q-12 -25 -45 -51.5t-58 -31.5t-47.5 3.5t-28 22.5t7.5 30q9 10 14.5 9.5t17.5 -11.5q18 -15 37 -8.5t46 37.5q30 33 60.5 100.5t30.5 99.5q0 35 11 46zM387 407q-10 13 -35 11t-39 -17q-16 -18 -21 -58q-3 -28 0.5 -35.5t21.5 -14.5q34 -13 46.5 -15t19 3
t14.5 25q11 26 9 55t-16 46zM340 251q-34 24 -50 -6q-21 -38 -3 -50t48 20q16 17 17 22t-12 14z" />
    <glyph glyph-name="q" unicode="q" horiz-adv-x="617" 
d="M189 291q41 84 90.5 123.5t75.5 34.5l47 -9q25 -5 30 -13.5t-20 -61.5q-18 -39 -33 -96.5t-8 -63.5q4 -5 31 -5q25 0 55.5 19t68.5 48t64 42q15 8 16.5 7t-5.5 -14t-52.5 -52.5t-71.5 -54.5q-10 -6 -11 -11.5t5 -17.5q16 -31 3 -87t-50 -114q-18 -28 -27 -33t-36 -3
l-38 3l-18 126l-36 1q-19 0 -28.5 3.5t-13.5 9t-14 20t-24 28.5q-25 25 -25 39q0 9 -6 12t-16 -0.5t-23 -12.5q-35 -24 -85 15q-20 16 -23.5 33t11.5 30q8 6 12.5 3.5t12.5 -18.5q28 -60 93 8q37 39 49 62zM282 348q0 -5 -18.5 -25t-18.5 -36q0 -20 -13 -37
q-8 -11 -11.5 -32t-0.5 -37.5t11 -16.5q16 0 46 39.5t54 90t24 77.5q0 16 -4 22.5t-13 6.5q-13 0 -34.5 -20t-21.5 -32zM440 87q10 32 11 44t-7 19.5t-17 3.5t-34 -25l-38 -34v-65q0 -66 11 -66q13 0 37 39.5t37 83.5z" />
    <glyph glyph-name="r" unicode="r" horiz-adv-x="489" 
d="M205 513q11 14 21.5 14t87.5 -72q20 -19 28.5 -26.5t20 -22t14.5 -18t6 -18t2 -19.5t-5.5 -24t-8.5 -29.5t-15 -38.5q-21 -57 -22 -75t17 -34q16 -14 29.5 -6.5t53.5 51.5q13 15 25 23t16 6q7 -6 1 -21.5t-23.5 -37.5t-39.5 -43q-31 -27 -55 -27.5t-45.5 26.5t-21.5 53
t22 88q29 79 29 93q0 15 -19.5 39t-27.5 19q-5 -3 -34 -62.5t-36 -63.5q-10 -6 -10 -23q0 -12 -16.5 -30.5t-25.5 -37.5q-14 -28 -49 -68q-23 -26 -35.5 -33t-38.5 -8q-26 0 -33 3t-7 15q0 18 23 21q47 7 108 96q36 52 50.5 78.5t35.5 74.5q16 37 14 57.5t-24 42.5
q-15 15 -17 22t5 16z" />
    <glyph glyph-name="s" unicode="s" horiz-adv-x="453" 
d="M277 575q5 8 17.5 6t21.5 -13q9 -10 7.5 -20.5t-7.5 -26.5t-7 -48t9 -84q23 -116 39 -133q12 -14 44 2q2 0 3 1q33 16 37 11q7 -7 -6.5 -22.5t-35.5 -27.5q-31 -15 -36 -37q-8 -36 -57.5 -32.5t-95.5 42.5q-30 25 -39.5 25t-61.5 -54q-40 -43 -58.5 -51t-33.5 10
q-11 13 -5 27t23 14q26 0 79 66.5t99 153.5t54 139q6 45 10 52zM282 366q-6 15 -11 20.5t-11.5 0t-11 -12t-12.5 -22.5q-3 -4 -4 -6l-3 -6t-3.5 -6.5t-4 -6t-4 -6t-4 -6t-4.5 -6.5t-4.5 -6t-4.5 -5q-14 -16 -6 -23q12 -11 55 -20.5t49 -3.5q7 6 1 45t-17 70zM290 191
q25 0 23 8q-4 9 -28 10q-9 0 -16 -2.5t-7 -6.5q0 -9 28 -9z" />
    <glyph glyph-name="t" unicode="t" horiz-adv-x="499" 
d="M289 577l3 9q8 19 12 27.5t10.5 16.5t13.5 5.5t16 -13.5q7 -9 6.5 -17.5t-9.5 -27.5q-13 -28 -5 -34.5t40 6.5q32 14 37 5q6 -14 1 -21t-21 -14t-33 -11.5t-33.5 -13t-22.5 -18.5q-17 -25 -28.5 -110t-2.5 -117q9 -33 18.5 -45.5t25.5 -12.5q20 0 62.5 26.5t63.5 52.5
q31 37 43 22q3 -6 3 -17t-34 -46t-64 -54q-21 -14 -72 -15q-43 0 -62.5 15.5t-27.5 57.5q-5 29 -15.5 29.5t-22.5 -27.5q-16 -36 -65 -89t-70 -57q-36 -7 -45 11q-8 17 22 28q24 9 59.5 43.5t52.5 64.5q41 76 54 105l34 74q13 28 8 40.5t-30 12.5q-31 0 -29 14q2 16 45 37
q28 13 40.5 24.5t21.5 33.5z" />
    <glyph glyph-name="u" unicode="u" horiz-adv-x="561" 
d="M381 512q4 11 10.5 17.5t10.5 4.5q12 -4 10.5 -45.5t-15.5 -79.5q-29 -81 -28.5 -149.5t30.5 -68.5q6 0 29 18.5t49 44.5q71 71 74 52q0 -5 -3 -17q-5 -22 -67 -83t-79 -61q-26 0 -48 25.5t-26 61.5l-5 43l-27 -52q-18 -36 -41 -61.5t-36 -25.5q-8 0 -27 16
q-11 9 -16 26.5t-9 55.5q-6 66 -12 66t-50 -86q-38 -74 -52.5 -91t-29.5 -5q-14 12 -13 24.5t16 19.5q8 5 12.5 10t25.5 46.5t58 126.5q0 1 5.5 12t13 25.5t15 31t12.5 31.5t5 22q0 13 14 24q9 7 14.5 6.5t14.5 -9.5t9.5 -14.5t-7.5 -14.5q-12 -15 -13 -132t12 -129
q7 -7 12.5 -5t16.5 16q14 19 24.5 39.5t26 58t29.5 66.5q20 41 20 48.5t12 36.5z" />
    <glyph glyph-name="v" unicode="v" horiz-adv-x="579" 
d="M449 536q13 0 25 -12.5t20 -28t20 -28t26 -12.5q23 0 27.5 -11.5t-12.5 -28.5l-18 -19l-38 30q-28 23 -41 23t-13 -24q0 -11 -5 -25t-16 -43t-21 -62q-8 -27 -14.5 -44t-10 -21.5t-5 -9.5t-1.5 -15q0 -20 -15.5 -50t-28.5 -35q-14 -5 -34.5 22t-31.5 66q-9 33 -13 85
t-8 82t-14 30q-9 0 -12.5 -11t-9 -31.5t-16.5 -36.5q-17 -24 -17 -33t-38 -66q-29 -43 -60 -64.5t-52 -13.5q-15 6 -11.5 21.5t20.5 18.5q18 4 44 27q18 17 32.5 40.5t58.5 107.5q56 107 72.5 133t29.5 26q11 0 14 -14q4 -17 4 -123q0 -81 3.5 -115.5t12.5 -55.5
q5 -10 9.5 -17t8.5 -10t6 -1q5 6 15 38.5t23 73.5t22 60q13 29 26.5 86.5t9.5 64.5q-7 10 1.5 18t25.5 8z" />
    <glyph glyph-name="w" unicode="w" horiz-adv-x="698" 
d="M627 517q59 52 61 35q2 -18 -59 -82q-67 -69 -112 -29q-11 10 -14 9q-8 -4 -53 -93q-7 -12 -11 -21q-21 -41 -21 -66q0 -16 -21.5 -56.5t-30.5 -40.5q-21 0 -43.5 34t-22.5 66q0 25 -6 53.5t-11.5 28.5t-35.5 -66q-32 -67 -56 -96.5t-46 -26.5l-22 2l-2 123q0 38 -1 60.5
t-2.5 36.5t-3.5 18.5t-6 3.5q-13 -5 -53 -5q-28 0 -35 3.5t-10 16.5q-3 21 9 35q7 9 12 8.5t15 -9.5q11 -10 18 -10t25 10q15 7 28 19t19 20.5t14 16.5t12.5 8.5t14.5 -5.5q13 -12 11 -39t-7.5 -49.5t-6.5 -24.5q-5 -8 -7.5 -45t-1 -71t6.5 -34q9 0 27.5 26.5t18.5 38.5
q0 7 6 20.5t19 42t25 58.5q14 39 30 53t30 0q8 -9 12 -113q3 -78 8.5 -107t16.5 -29q4 0 7.5 10t10.5 32t17 42q18 34 18 43q0 5 23.5 45.5t29.5 74.5q6 39 21.5 43t35.5 -30q8 -13 18 -22.5t17 -9.5q15 0 64 44z" />
    <glyph glyph-name="x" unicode="x" horiz-adv-x="446" 
d="M303 469q24 18 40.5 24.5t39.5 6.5q39 0 46 -11q11 -18 5 -67.5t-23 -82.5q-20 -38 -28.5 -57.5t-13.5 -29.5l-19 -32q0 -1 -9 -18.5t-16 -28t-24 -27t-39 -27.5q-18 -10 -40.5 2t-28.5 34q-14 50 -61 -49q-18 -36 -29 -50.5t-21 -14.5q-14 0 -19 10t1 28t20 38
q27 38 48 87q9 23 12 28.5t2.5 21t-4 21t-16 35.5t-23.5 58q-15 38 -23 46.5t-27 8.5q-42 0 -43 16q-1 17 37 27q9 2 20 4l36 5l27 -58q28 -58 31 -75q6 -33 29 -7q9 9 29 38q51 71 84 96zM394 430q-3 27 -12 30.5t-54 -28.5q-34 -23 -55 -51.5t-49 -88.5
q-14 -29 -14.5 -40.5t10.5 -39.5q15 -40 24 -46q8 -4 48 39t40 56q0 6 32 74.5t30 94.5z" />
    <glyph glyph-name="y" unicode="y" horiz-adv-x="473" 
d="M242.5 495.5q9.5 23.5 29.5 20.5q13 -1 16.5 -7.5t1.5 -26.5q-14 -218 -8 -242q4 -17 21 -9q3 1 9 4q75 40 120 36q32 -3 31 -11q-1 -10 -41 -16q-78 -11 -116 -59q-13 -18 -15 -39.5t2 -110.5q5 -86 3 -109t-13 -35q-17 -19 -37.5 -18t-33.5 22q-17 25 -15.5 97.5
t18.5 107.5q9 17 14.5 50.5t4.5 59.5t-9 26q-7 0 -18 -36q-9 -29 -32 -60t-36 -31q-12 0 -29 19q-11 13 -15 38t-5 106q-3 130 -11 139q-5 5 -23 -15q-33 -35 -46 -14q-4 7 27 50.5t47 52.5q14 8 27 -3q8 -7 10.5 -36t2.5 -108q0 -154 18 -154q6 0 14 11q17 21 47 121
t30 133q0 23 9.5 46.5zM252 -4q0 59 -9.5 59t-9.5 -64.5t9.5 -59t9.5 64.5z" />
    <glyph glyph-name="z" unicode="z" horiz-adv-x="424" 
d="M84 465q54 17 95 16.5t50 -17.5q10 -19 30 -19q8 0 22.5 -8.5t26.5 -20.5q20 -19 25 -32.5t5 -48.5q0 -37 6 -49t35 -38q29 -25 33 -33t-5 -20q-10 -13 -16.5 -10.5t-33.5 28.5q-53 48 -55 6q0 -12 -18.5 -41.5t-25.5 -43.5q-10 -24 -52.5 -70t-53.5 -46t-26 17
q-10 11 -11.5 23t1.5 37q13 87 54.5 150.5t85.5 63.5q37 0 44 24t-20 55q-16 19 -21.5 20t-17.5 -10q-18 -16 -27.5 -16t-59.5 -55q-38 -42 -56 -50.5t-33 9.5q-7 9 -4 19t19 34q26 38 43 58q12 13 12.5 17.5t-8.5 8.5q-11 4 -42.5 -10t-52.5 -5q-40 18 -3 37q17 9 55 20z
M275 265q0 14 -25 5q-16 -5 -28 -18q-20 -21 -20 -28q0 -5 -8 -16.5t-18.5 -34t-14.5 -53.5q-4 -30 -2.5 -38.5t11.5 -8.5q8 0 13.5 7t9.5 18.5t16 36.5t29 51q37 56 37 79z" />
    <glyph glyph-name="braceleft" unicode="{" horiz-adv-x="299" 
d="M145 705q25 21 37 26t33 2q29 -5 51.5 -25t22.5 -41q0 -25 -12.5 -26t-34.5 22q-24 26 -37 27t-33 -21q-16 -16 -19 -42t-2 -147q0 -80 -1.5 -115.5t-3 -48t-10 -36t-15.5 -50.5q-13 -48 -12.5 -59.5t13.5 -25.5q11 -12 22 -15t37 0q48 6 49 -5q1 -6 -10 -18
q-15 -16 -66 -16q-34 0 -47 4.5t-29 20.5q-21 22 -23.5 47.5t5.5 46t19 51t12 53.5q2 26 -2 31.5t-29 7.5q-26 2 -40.5 13.5t-6.5 24.5q6 11 45 28q33 15 42 35t-2 56q-8 30 -8 73.5t9 48.5t9 22q0 7 11 22t26 29z" />
    <glyph glyph-name="bar" unicode="|" horiz-adv-x="118" 
d="M69 711q5 8 20 5q41 -8 -13 -475q-5 -43 -9 -100q-5 -54 -9.5 -66t-23.5 -10q-14 2 -18 10t-6 36q-2 30 16.5 137.5t22.5 206.5q11 243 20 256z" />
    <glyph glyph-name="braceright" unicode="}" horiz-adv-x="671" 
d="M73 -198l-58 2q42 1 319 1l314 -2q-16 0 -48 -1q-261 -2 -527 0zM317 664q6 0 15 7t16.5 14t21.5 5.5t32 -16.5q15 -11 16 -24.5t-6 -72.5q-12 -97 -9.5 -132t22.5 -54l23 -22l25 24q22 21 48 24t33 -14q5 -15 -50 -66q-49 -46 -64 -79.5t-1 -67.5q12 -29 11 -75
q0 -51 -29 -69.5t-79 0.5q-29 11 -11 21q9 5 29 8q56 6 35 64q-13 36 -11 85t17 68l18 22l-32 32q-28 30 -35.5 74t3.5 130q8 73 0 81q-5 6 -16.5 -2t-23 -20t-24.5 -16.5t-20 7.5q-5 8 15 36t31 28z" />
    <glyph glyph-name="asciitilde" unicode="~" horiz-adv-x="429" 
d="M195 445q15 9 21.5 8.5t15.5 -11.5q10 -13 1 -37q-10 -26 -8.5 -48t13.5 -26q15 -6 19.5 3t5.5 47q1 37 10.5 52.5t27.5 8.5q9 -4 10.5 -14t-1.5 -41q-6 -50 6.5 -54t52.5 35q12 11 22.5 20t17.5 13t9 2q7 -12 -20 -50.5t-59 -61.5q-30 -22 -36 -31.5t-3 -30.5
q5 -30 -9 -35q-15 -6 -27.5 7t-12.5 34q0 14 -8.5 28.5t-19.5 21.5t-18 0q-8 -8 -10 -40q-2 -20 -6.5 -25.5t-19.5 -5.5t-18.5 5t-2.5 26t4.5 40t4.5 25t-2.5 12.5t-17.5 12.5q-44 20 -72 -22q-15 -22 -35 -21t-20 24q0 22 39 50q27 20 39 22.5t38 -4.5q34 -9 43 -5t9 30
t17 36z" />
    <glyph glyph-name="cent" unicode="&#xa2;" horiz-adv-x="321" 
d="M210 628q10 19 28 25t26 -7q5 -8 -7 -38q-20 -48 -20.5 -65t18.5 -25q18 -6 40 -47t15 -54q-10 -15 -28 -6t-31 34q-18 37 -23 37q-6 0 -23.5 -38.5t-17.5 -51.5t-9 -41.5t-18 -53t-13.5 -48t4.5 -26.5q12 -7 48.5 16.5t63.5 55.5q35 43 44 34q12 -12 -11 -44.5
t-63 -64.5t-73 -42q-30 -8 -36 -15.5t-10 -40.5q-3 -32 -7.5 -38.5t-23.5 -6.5h-28v56q0 34 -3.5 49.5t-14.5 27.5q-18 20 -24 56.5t1 77.5q6 30 39 84t46 54q5 0 14.5 6.5t23 17t25.5 16.5q13 6 19.5 21.5t13 41t15.5 43.5zM133 386q22 71 0 64q-9 -3 -25 -20
q-27 -29 -42.5 -82t-5.5 -80l11 -27l17 22q8 10 13.5 21t8 20t9.5 34.5t14 47.5z" />
    <glyph glyph-name="sterling" unicode="&#xa3;" horiz-adv-x="426" 
d="M267 672q10 3 22 7t16.5 5t11 3t12 2h12.5t19 -1q25 -1 30.5 -5.5t5.5 -22.5q0 -19 -7.5 -23t-51.5 -7q-39 -2 -54 -7.5t-35 -26.5q-22 -22 -26.5 -36.5t-5.5 -65.5l-2 -71h56q56 0 63 -8q12 -11 -18 -24q-24 -9 -52 -9q-42 0 -52 -12q-6 -7 -10 -30.5t-9 -57t-11 -54.5
q-8 -27 -0.5 -38t44.5 -24q43 -14 71 -10t62 31q17 14 32 22t19 5q14 -8 1 -31t-41.5 -44.5t-55.5 -25.5q-32 -7 -96 4q-47 8 -59 6.5t-29 -18.5q-46 -43 -96 -4q-19 15 -22.5 37t9.5 46q6 11 16 14t35 1l42 -4l14 50q14 50 14 91l1 41l-57 5q-45 4 -57 10t-6 21q5 13 67 16
l62 3l5 59q5 68 36 118t75 63z" />
    <glyph glyph-name="section" unicode="&#xa7;" horiz-adv-x="412" 
d="M258 727q45 11 70 6t59 -32q14 -12 15 -38.5t-12.5 -32t-41.5 23.5q-25 24 -51 27t-44 -17q-22 -24 -5 -92.5t64 -155.5q19 -33 4 -86t-48 -71q-18 -9 -22 -16t-1 -21q9 -34 -1.5 -81.5t-32.5 -72.5q-42 -48 -98.5 -46.5t-81.5 50.5q-17 33 -20 65q-2 19 0.5 25t13.5 6
q7 0 16.5 -8.5t16.5 -21.5q28 -51 50.5 -61.5t46.5 17.5q39 42 39 82q0 24 -21.5 65t-53.5 75q-27 31 -32.5 57.5t9.5 60.5q9 23 37 53.5t39 30.5q17 0 22.5 14t-5.5 30q-14 19 -8 66q11 84 77 99zM240 438q0 13 -11.5 24t-22.5 11q-14 0 -36 -24t-27 -44q-4 -16 2.5 -28
t34.5 -38q26 -24 38 -31t21 -2q18 12 22.5 37.5t-7.5 51.5q-14 30 -14 43z" />
    <glyph glyph-name="guillemotleft" unicode="&#xab;" horiz-adv-x="446" 
d="M351 218q-13 0 -32.5 18.5t-24.5 18.5q-13 0 -46.5 29.5t-33.5 40.5q1 19 17.5 43.5t59.5 71.5q43 46 62 55t34 -9q7 -8 -2 -22.5t-47 -54.5q-60 -64 -60 -74.5t15 -27t26 -16.5q8 0 27 -18t24 -18q11 0 40.5 -25t25.5 -31q-6 -9 -27.5 -7t-30.5 13q-11 13 -27 13z
M184 515q18 19 35 19t21 -18q2 -10 -26 -39.5t-112 -104.5l-34 -31l18 -42q13 -29 42 -60t48.5 -51t15.5 -30q-3 -9 -11 -10t-22.5 3t-23 4t-53.5 59t-62 92q-15 29 -8 47q4 12 38.5 43t77 67.5t56.5 51.5z" />
    <glyph glyph-name="guillemotright" unicode="&#xbb;" horiz-adv-x="514" 
d="M337 455q-46 41 -28 64q12 16 35 6q14 -6 20 -22q15 -38 116 -76q10 -4 17 -10.5t7 -12.5q0 -10 -49 -85.5t-54 -92.5q-7 -24 -25.5 -44t-30.5 -15q-14 5 -12.5 27t17.5 42q18 23 18 38q0 11 16 28t21 29q6 14 14 26.5t9.5 16.5t-1 11t-13.5 19q-21 23 -33 23t-44 28z
M159 372q0 5 -13.5 19t-13.5 20q0 5 -36.5 52.5t-31.5 54.5q8 14 30.5 8.5t34.5 -24.5q15 -25 56 -67q29 -31 33 -41t-4 -30q-11 -27 -88 -100t-94 -73q-32 0 -17 25q13 21 66 72q78 76 78 84z" />
    <glyph glyph-name="questiondown" unicode="&#xbf;" horiz-adv-x="326" 
d="M228 375q0 20 12 34.5t25.5 6t15.5 -43.5q2 -28 -4.5 -44.5t-35.5 -54.5q-43 -57 -57 -62q-24 -9 -60.5 -43.5t-46.5 -57.5q-8 -20 -8.5 -33.5t6.5 -35.5q19 -64 54 -69.5t88 45.5q33 32 40.5 45t7.5 42q0 27 -4.5 36t-19.5 15q-14 5 -17 9.5t4 11.5q27 33 54.5 10.5
t29.5 -78.5q2 -42 -16 -73t-69 -71q-24 -20 -40 -25.5t-50 -5.5q-52 -1 -68 12q-18 16 -38.5 65.5t-20.5 79.5q0 26 12 42.5t70 69.5q83 75 96 83q13 7 26.5 38t13.5 52zM266 559q20 14 27.5 13t17.5 -18q6 -12 4.5 -19.5t-12.5 -18.5t-18.5 -12.5t-19.5 4.5q-18 11 -18 24
t19 27z" />
    <glyph glyph-name="Agrave" unicode="&#xc0;" horiz-adv-x="615" 
d="M256 551q28 56 35.5 66t18.5 10q18 0 25.5 -21t8.5 -73q0 -38 1.5 -60t6.5 -39t11.5 -22.5t21 -5t30.5 7.5t44 20q74 37 100 56q48 34 46 7v-3q-3 -14 -37 -39t-78 -46q-38 -18 -38 -24t33 -42q24 -28 28 -40.5t0 -63.5q-3 -63 -19.5 -89.5t-52.5 -29.5q-22 -2 -32 4
t-29 35q-29 42 -40 94t-19.5 62.5t-34.5 5.5t-69 -25.5t-53 -33.5q-9 -11 -24 -47t-30 -64.5t-31 -30.5q-25 -4 -29 8t10 47q18 41 28 47q28 17 -24 25q-2 1 -4 1q-41 5 -48 16t17 31q22 17 44.5 22.5t52.5 25.5q20 13 33 29t31.5 50.5t65.5 128.5zM311 399q4 6 -7.5 62.5
t-15.5 56.5q-9 0 -44 -73t-28 -77q10 -3 12 -1.5t16.5 8.5t32.5 11q30 7 34 13zM453 330q-9 9 -27.5 16t-31.5 7.5t-16 -4.5q-3 -29 4 -68.5t21 -67.5q20 -45 27.5 -51t22.5 7q18 16 18 80.5t-18 80.5zM215 776q12 15 22 13t44 -25q40 -27 65 -33q33 -8 31 -20q-1 -3 -5 -5
q-10 -6 -71.5 10.5t-77.5 29.5q-13 10 -14.5 15.5t6.5 14.5z" />
    <glyph glyph-name="Aacute" unicode="&#xc1;" horiz-adv-x="695" 
d="M228 579q-4 12 8.5 26t33.5 11q9 -1 15.5 -5t12 -14.5t9.5 -21.5t12.5 -34t18.5 -44q15 -35 15 -52q0 -13 5.5 -18.5t18 -3t27.5 7.5t41.5 12.5t52.5 11.5q41 7 57.5 17t28.5 10q11 1 36 8t39.5 10.5t24.5 -0.5q4 -4 -14.5 -15.5t-45 -20.5t-40.5 -9q-17 0 -26.5 -9
t-26.5 -13q-22 -6 -47 -15l-25 -10l66 -67l3 -99q2 -71 -1 -87t-18 -29q-21 -17 -45 -17q-20 0 -47.5 23.5t-27.5 40.5q0 9 -13 34t-19 52q-18 96 -55 96q-13 0 -28 -6.5t-34 -19t-27 -16.5q-15 -8 -22 -20.5t-21 -55.5q-21 -66 -57 -52q-9 3 -10 8.5t4 19.5q8 22 -0.5 28
t-28 -8t-41 -14t-26.5 14q-4 11 9.5 30t26.5 19q6 0 13 5.5t22.5 17.5t35.5 22q21 11 34 30t43 84q14 30 26 78.5t7 59.5zM294 467q-14 33 -18 33t-13.5 -23t-9.5 -32q0 -4 -3.5 -10.5t-7.5 -13.5t-5.5 -13.5t0 -10t11 -2t27.5 8.5q28 11 30.5 20t-11.5 43zM459 351
q-31 31 -55 31q-18 0 -20.5 -5t2.5 -30q7 -41 29 -101t34 -74q12 -13 16 -13.5t13 11.5q11 15 11 83q0 48 -4 62t-26 36zM339 773q41 19 48 6q6 -9 -18 -27q-60 -49 -81 -58.5t-31 7.5q-6 9 20 32t62 40z" />
    <glyph glyph-name="Acircumflex" unicode="&#xc2;" horiz-adv-x="473" 
d="M154 423q0 9 18 43t18 49t13.5 30.5t18.5 39.5q6 29 10.5 36t28.5 4q18 -2 22 -12t8 -63q6 -73 25 -123q12 -34 19 -41.5t24 -6.5q25 2 51 21q34 25 49 17q4 -2 4 -7q0 -8 -38 -41q-26 -22 -29.5 -30t6.5 -19q14 -16 37.5 -63.5t23.5 -60.5q0 -6 -7 -13t-16 -12
q-15 -7 -24 -2.5t-30 27.5t-35 46.5t-18 34t-13 17.5t-23 5t-43 -12q-54 -16 -79.5 -33t-39.5 -46q-11 -21 -19 -28t-20 -5q-11 1 -16 7.5t-6 22.5q-2 17 -8.5 24t-23.5 12q-69 21 16 69q38 21 67 55.5t29 57.5zM264 434q-17 53 -25 53q-6 -1 -13 -20l-23 -56
q-13 -30 -8 -38q3 -6 36.5 -2.5t42.5 10.5q6 5 -10 53zM254 334q0 5 -6.5 8t-14.5 3q-13 0 -28 -7t-24 -15.5t-4 -13.5q8 -8 42.5 3t34.5 22zM165 687q-3 10 42.5 57t61.5 47q15 -1 34.5 -16t25.5 -31q2 -7 11 -14.5t18 -11.5q23 -8 20 -19.5t-28 -14.5t-52 26l-27 29
l-35 -33q-25 -25 -45 -30t-26 11z" />
    <glyph glyph-name="Adieresis" unicode="&#xc4;" horiz-adv-x="481" 
d="M174 577q2 8 4 16.5t3 13.5t2.5 11t2.5 9t2.5 6.5t3 5t3 3.5t3.5 2.5t4.5 0.5h5.5q19 0 27 -14t9 -46q1 -26 17.5 -87.5t29.5 -88.5q3 -6 13 -13t26 -12t39.5 2.5t48.5 28.5q34 28 34 15q-1 -11 -28 -39l-36 -36l32 -35q20 -20 28.5 -39t15.5 -56q11 -60 5 -70t-26 -10
t-41.5 7t-38.5 19t-17 24q-1 10 -36 49q-2 2 -4 5q-23 25 -30.5 27.5t-27.5 -7.5q-35 -17 -70 -28q-21 -7 -37.5 -17t-23.5 -18t-14.5 -15t-11.5 -7.5t-15 4.5q-16 10 -13.5 33t-25.5 42q-17 12 -22 22.5t-5 32.5q0 31 17 51t48 27q27 6 47 33q13 19 22 45t30 103zM227 454
q-6 17 -11 23t-10.5 2t-13.5 -19q-22 -42 23 -42q18 0 19.5 4t-7.5 32zM217 385q-26 7 -36 3.5t-17 -22.5q-14 -36 -15.5 -60.5t9.5 -28.5q10 -4 53 13.5t50 28.5q6 10 -11 36t-33 30zM59 304q9 -25 25 6q16 32 10 47q-1 2 -2 3q-6 3 -15 -7.5t-15 -26t-3 -22.5zM393 301
q-23 22 -33.5 24.5t-21.5 -11.5q-6 -8 -5.5 -16.5t9.5 -26.5q13 -25 37 -52.5t33 -27.5q7 0 7 42q0 25 -5 38.5t-21 29.5zM273 722q11 13 27.5 13.5t27.5 -12.5q7 -8 7 -13.5t-7 -14.5q-10 -13 -21.5 -13t-28.5 13q-11 8 -12 13t7 14zM119 732q22 26 50 -2q13 -12 5.5 -25.5
t-28.5 -13.5q-18 0 -27.5 14t0.5 27z" />
    <glyph glyph-name="Ccedilla" unicode="&#xc7;" horiz-adv-x="531" 
d="M189 681q28 8 60.5 8.5t40.5 -7t29.5 -11t32 -19.5t-3.5 -25q-7 -4 -15.5 -4.5t-18 2t-33 5t-50.5 1.5q-48 0 -67.5 -14.5t-58.5 -80.5q-27 -44 -39.5 -127.5t-0.5 -133.5q24 -94 88 -82.5t173 131.5q62 66 87 79t47 -11q11 -12 16 -45t10 -60t17 -30q25 -7 16 -30
q-14 -24 -41 -27q-20 0 -25.5 11.5t-14.5 71.5q-10 67 -18 75q-5 6 -38.5 -23.5t-33.5 -39.5q0 -7 -46 -59q-30 -35 -37.5 -51t-8.5 -45q-2 -107 -48 -130q-29 -13 -35.5 -2.5t10.5 43.5q18 35 21 63q2 20 -5 24.5t-50 8.5q-49 6 -72 22t-46 62q-29 59 -18 161.5t56 186.5
q14 27 53.5 61t66.5 41z" />
    <glyph glyph-name="Egrave" unicode="&#xc8;" horiz-adv-x="369" 
d="M94 610q7 3 27.5 14t33.5 16.5t33.5 10.5t42.5 2.5t45 -12.5q24 -10 31 -23.5t-6 -21.5q-8 -5 -47 9q-38 13 -62.5 6.5t-65.5 -39.5q-39 -33 -58 -74.5t-2 -58.5t45 -14t53 24q22 18 54.5 23t41.5 -9q5 -9 -14.5 -31t-38.5 -28q-16 -5 -57 -55q-25 -32 -33 -48.5
t-8 -40.5q0 -33 10 -46.5t36 -13.5q23 0 77.5 28t82.5 55q37 36 43 15q2 -6 -1 -19q-5 -21 -22.5 -39.5t-58.5 -45.5q-31 -21 -49.5 -25.5t-66.5 -4.5q-51 0 -62.5 3.5t-24.5 25.5q-16 26 -17 59t13 57q33 58 -17 83q-25 12 -35.5 39t-3.5 63q5 28 32.5 67t48.5 49zM45 745
q0 15 17 18.5t24 -8.5q6 -10 22 -10q11 0 32.5 -18t44.5 -20q17 -1 24.5 -8.5t2 -15t-22.5 -9.5q-27 -3 -85.5 26t-58.5 45z" />
    <glyph glyph-name="Eacute" unicode="&#xc9;" horiz-adv-x="368" 
d="M132 608q34 9 63 10t47 -5t30.5 -15t17.5 -17t5 -14q0 -15 -15 -18.5t-28 7.5q-19 17 -36 20t-45 -5q-49 -13 -84.5 -52.5t-23.5 -68.5q5 -15 44.5 -13.5t60.5 18.5q23 18 38 18q26 0 25 -22q-2 -26 -33 -44q-3 -2 -7 -3q-27 -12 -63.5 -53.5t-41.5 -67.5q-8 -35 0 -60.5
t29 -36.5q24 -13 44.5 -12.5t60.5 13.5q35 12 65.5 34t41.5 44q10 20 19 19t12 -22q3 -31 -32 -63.5t-88 -46.5q-84 -23 -130 -9.5t-70 65.5q-13 31 -13.5 42.5t11.5 44.5q16 46 35 67q29 32 -16 40q-8 1 -17.5 10t-16.5 20q-9 17 -10.5 29t3.5 31q8 30 47 68.5t71 47.5z
M291 761q32 21 43 7q5 -8 -3 -23q-7 -14 -63 -43t-74 -29q-15 0 -24 12q-13 15 9 28.5t61.5 27t50.5 20.5z" />
    <glyph glyph-name="Ecircumflex" unicode="&#xca;" horiz-adv-x="362" 
d="M124 579q43 16 88.5 5.5t61.5 -39.5q11 -22 -8 -25q-13 -2 -31 10q-26 17 -67.5 9t-69.5 -35q-46 -45 -37 -81q8 -30 47 -22q30 5 67 36q72 61 79 8q1 -15 -5.5 -24.5t-29.5 -25.5q-20 -14 -40 -36t-34.5 -45.5t-23.5 -45t-8 -37t12 -19.5q17 -6 75.5 14t94.5 45
q44 31 54 21q7 -7 -6 -25.5t-40.5 -39.5t-58.5 -37q-61 -31 -109.5 -25.5t-70.5 45.5q-8 16 0 45.5t17.5 52t12.5 26.5q10 12 1.5 20t-35.5 13q-73 14 -39 127q8 28 32 48t71 37zM77 651q-21 13 -17.5 32t18.5 37t31 31t21 13q7 0 52 -32.5t70 -37.5q53 -9 31 -36
q-10 -11 -31 -13t-27 8q-5 8 -47 24l-42 17l-22 -27q-13 -16 -20 -19t-17 3z" />
    <glyph glyph-name="Edieresis" unicode="&#xcb;" horiz-adv-x="361" 
d="M104 582q32 18 84.5 15.5t72.5 -22.5q18 -19 12 -29q-6 -9 -32 -9.5t-32 8.5q-5 9 -28 9t-39 -8q-15 -9 -30 -13q-28 -9 -44.5 -56t2.5 -66q14 -14 34.5 -8t54.5 34q39 33 77.5 42.5t46.5 -12.5q5 -14 -23 -40.5t-70 -45.5q-35 -16 -51 -33.5t-34 -60.5q-40 -92 4 -120
q26 -17 61.5 -5.5t96.5 57.5q72 54 77 54q23 0 -21 -53q-13 -15 -31 -32q-50 -50 -88 -65.5t-82 -4.5q-38 10 -61 33q-16 17 -18.5 29.5t0.5 57.5q6 63 20 91q21 44 -8 44q-20 0 -32.5 24.5t-12.5 64.5q0 35 5 47t27 30q30 26 62 43zM53 686q6 16 28.5 14t31.5 -18
q19 -37 -22 -37q-19 0 -31.5 13.5t-6.5 27.5zM263 673q-24 0 -28 16t6.5 31.5t21.5 15.5q12 0 23 -19t6 -32q-2 -5 -10.5 -8.5t-18.5 -3.5z" />
    <glyph glyph-name="Icircumflex" unicode="&#xce;" horiz-adv-x="260" 
d="M82 677q13 15 27 12q15 -3 12.5 -79.5t-21.5 -164.5q-14 -67 -16.5 -133.5t-4.5 -95t-17 -36.5q-17 -9 -30 -4t-13 65t14 124q20 91 28 167t10.5 105.5t10.5 39.5zM244 794q-30 -5 -54 1q-3 1 1 1q7 1 28 1q34 0 31 -2q-1 -1 -6 -1zM20 783q5 10 20.5 15t29 1.5
t13.5 -14.5q0 -21 -12.5 -35t-33.5 -14q-42 0 -17 47z" />
    <glyph glyph-name="Idieresis" unicode="&#xcf;" horiz-adv-x="255" 
d="M68 643.5q3 11.5 25 11.5h22l-4 -121q-3 -102 -11.5 -179.5t-8.5 -95.5q0 -27 -13 -36.5t-29 6.5q-6 6 -8.5 15.5t-1.5 34t3.5 52t8 89t9.5 125.5q5 87 8 98.5zM183 789q-1 5 6.5 8t22.5 3q33 0 33 -14t-13 -19t-28.5 1.5t-20.5 20.5zM11 780q-2 12 2.5 16t22.5 4
t22.5 -4t2.5 -16q-2 -21 -25 -21t-25 21z" />
    <glyph glyph-name="Ntilde" unicode="&#xd1;" horiz-adv-x="535" 
d="M427 639q8 21 52 42q43 18 46 1q0 -9 -12 -9q-11 0 -34.5 -24.5t-36.5 -48.5q-16 -30 -23 -82t-9 -150q-2 -115 -14 -132q-9 -13 -39 -5q-26 6 -94 76t-111 136q-50 75 -57 75q-4 0 -5 -21t-5 -76.5t-14 -115.5q-9 -62 -15.5 -82t-16.5 -22q-23 -4 -27.5 13t4.5 73
q7 50 10.5 128t6 129.5t10.5 60.5q28 33 73 -24q26 -33 49 -66.5t23 -38.5q0 -8 37 -52t76 -83t43 -35q4 5 12.5 71t22 138t29.5 91q14 17 19 33zM147 745q28 29 60 29t53 -29q24 -32 47 -33t55 30q35 34 45 25q8 -9 -5.5 -22t-13.5 -21q0 -17 -31.5 -34t-62.5 -17
q-27 0 -38.5 5.5t-29.5 26.5l-26 32l-16 -23q-13 -20 -21 -21.5t-26 11.5q-12 10 -11 15.5t21 25.5z" />
    <glyph glyph-name="Oacute" unicode="&#xd3;" horiz-adv-x="496" 
d="M193 661q10 -3 33.5 0.5t46.5 8t53 1.5t54 -17q28 -17 50 -42t22 -40q0 -8 6.5 -13.5t13.5 -7.5t11.5 -5.5t1.5 -9.5q-6 -9 -23.5 -79t-17.5 -85q0 -18 -24.5 -67.5t-39.5 -63.5q-18 -16 -18 -26q0 -12 -37.5 -49.5t-61.5 -49.5q-33 -15 -68 -16q-47 0 -97.5 43.5
t-74.5 107.5q-26 65 -3 183.5t72 182.5q13 16 49 31.5t52 12.5zM381 594q-34 34 -93 31t-101 -40q-16 -15 -16 -63q0 -34 6 -46t38 -39q41 -34 68.5 -36t65.5 25q40 29 51 47t10 52q-1 24 -7 38.5t-22 30.5zM121 540q6 24 -1 24q-10 -1 -24 -34q-53 -125 -27 -250
q7 -34 31 -70.5t43 -42.5q4 -1 20.5 -8.5t28 -11t32 0t40.5 17.5q15 10 20.5 15t9 9t13 18.5t23.5 31.5q26 34 37.5 67t18.5 44q7 10 10 22t0.5 20t-8.5 8t-35.5 -13.5t-60.5 -18.5q-42 -7 -86 19.5t-69 70t-16 82.5zM308 760q23 22 38 30.5t31 8.5q57 1 -3 -36
q-19 -12 -34 -28.5t-23.5 -25.5t-18.5 -9q-51 0 10 60z" />
    <glyph glyph-name="Ocircumflex" unicode="&#xd4;" horiz-adv-x="498" 
d="M162 652q33 22 75.5 29.5t79.5 2.5t63.5 -12t40.5 -14q10 -6 22.5 -19t21.5 -26q13 -21 16.5 -41.5t2.5 -71.5q-2 -152 -94 -270q-105 -135 -232 -110q-32 7 -49 17.5t-49 47.5l-50 54v107q0 101 19 163t60 97q23 19 31.5 24.5t17 8.5t24.5 13zM348 636q-20 0 -34.5 3
t-20 3t-24.5 -5.5t-62 -20.5q-35 -13 -41.5 -57.5t22.5 -71.5q22 -20 63.5 -23t74.5 14q21 10 61.5 51.5t40.5 52.5t-31.5 32.5t-48.5 21.5zM123 497q-18 38 -23 39q-8 0 -18 -29.5t-18 -78.5q-10 -68 1 -130q8 -43 16.5 -58.5t35.5 -39.5q29 -25 43 -30.5t49.5 -5.5
t49.5 5.5t41 30.5q39 36 74.5 89.5t35.5 75.5q0 12 2 18.5t5 10.5t8.5 19t10.5 41q15 69 -8 62q-9 -2 -25 -21q-29 -32 -57 -45.5t-79 -18.5q-59 -5 -91.5 10t-52.5 56zM346 791q0 8 15 9.5t32.5 -4t23.5 -14.5q11 -18 38 -18q25 0 31.5 -10.5t-9.5 -27.5q-29 -27 -58 -10
t-51 43.5t-22 31.5zM212 770q29 30 59 30q20 0 24 -2.5t-2 -12.5q-12 -22 -39.5 -49t-38.5 -27q-13 0 -22 16q-6 10 -2 19t21 26z" />
    <glyph glyph-name="Odieresis" unicode="&#xd6;" horiz-adv-x="498" 
d="M181 739q31 7 119.5 0.5t106.5 -15.5q24 -13 38 -17q16 -5 31.5 -54.5t10.5 -83.5q-5 -36 -25 -100t-32.5 -82t-12.5 -32q0 -15 -50 -74t-79 -79q-26 -18 -78 -20.5t-82 13.5q-29 15 -56.5 48.5t-44.5 74.5q-13 32 -15.5 52t1.5 61q5 51 18.5 98.5t13.5 62.5
q0 34 48.5 86.5t87.5 60.5zM385 691q-10 9 -94 15l-84 6l3 -26q2 -18 -3.5 -24t-30.5 -14q-32 -11 -54 -31.5t-28 -46.5q-4 -17 0.5 -23t26.5 -16q20 -8 34 -9t36 5q30 8 81 44.5t86.5 73.5t26.5 46zM439 586q1 49 -18 49.5t-72 -46.5q-56 -50 -86 -69t-70 -32
q-41 -11 -53 -10t-27 7t-27 6t-16 -40.5t4 -91.5q5 -35 13 -51.5t33 -41.5q26 -27 39.5 -33t49.5 -6q37 0 51 7t52 45q56 57 90 139t37 168z" />
    <glyph glyph-name="Ugrave" unicode="&#xd9;" horiz-adv-x="479" 
d="M424 581q0 9 -14 28.5t-10 31.5q7 16 26 13t32 -23q10 -15 11 -27t-6 -39q-9 -39 -21.5 -75t-30 -77t-24 -58.5t-13.5 -30.5t-10.5 -18.5t-3.5 -11.5q0 -12 -31.5 -61t-50.5 -66q-26 -23 -61.5 -32t-66.5 1q-57 17 -90.5 98.5t-43.5 233.5q-6 86 -5.5 113.5t8.5 35.5
q12 13 26 8q9 -4 12.5 -41.5t5.5 -92t8 -112t26.5 -111t55.5 -79.5q24 -18 53 -12q28 6 66 54.5t64 111.5l38 89q15 35 32.5 86.5t17.5 62.5zM192 724q7 4 12.5 5t10 -1.5t10.5 -8.5t12.5 -13t17.5 -16.5t24 -18.5q31 -20 8 -23q-12 -2 -35 2q-37 6 -57 34
q-13 20 -13.5 25.5t10.5 14.5z" />
    <glyph glyph-name="Uacute" unicode="&#xda;" horiz-adv-x="525" 
d="M388 398q0 -8 -18 -34t-18 -36q0 -5 -18 -26t-42 -44q-45 -44 -59.5 -51t-53.5 -7q-50 0 -79 21.5t-54 76.5q-23 51 -31 111.5t-3 149.5q5 76 14.5 104t31.5 28q16 0 17 -21.5t-10 -79.5q-18 -87 -5.5 -171.5t52.5 -147.5q13 -21 23 -28t28 -7q32 0 65.5 24.5t57.5 59
t40 63t21 44.5q4 13 29.5 55t39.5 71q8 18 17.5 33.5t13.5 21t8.5 14t3.5 12.5t-2 16q-6 25 4 37.5t16 12t22 -14.5q15 -13 16 -34t-13 -33q-14 -11 -14 -19q0 -6 -32 -52t-32 -53q0 -6 -18 -46.5t-18 -49.5zM275 737q65 66 76 52q6 -9 -19 -52q-44 -73 -77 -73
q-37 0 -17 30q10 16 37 43z" />
    <glyph glyph-name="Ucircumflex" unicode="&#xdb;" horiz-adv-x="478" 
d="M353 427.5q0 12.5 13.5 27t13.5 24.5t9.5 31.5t18 39.5t8 38t-17.5 32q-20 13 -14 24q7 11 38 9.5t41 -13.5q24 -29 -44 -176l-54 -119q-21 -45 -41.5 -74t-52.5 -58q-21 -20 -35 -25t-47 -6q-33 0 -47 5t-37 27q-30 27 -42 54.5t-29 108.5q-41 199 -14 222q15 12 28 7
q9 -3 15 -38t17 -154q13 -141 80 -181q23 -13 31.5 -13t30.5 12q21 11 58 60t37 65q0 5 18 31.5t18 39zM339 682q-22 0 -43.5 13.5t-36 27t-19.5 13.5q-6 0 -37 -31q-27 -27 -41 -31t-27 12q-8 10 -1 21.5t37 42.5q46 46 69 48.5t56 -35.5q32 -37 58 -50q25 -13 20.5 -22
t-35.5 -9z" />
    <glyph glyph-name="Udieresis" unicode="&#xdc;" horiz-adv-x="428" 
d="M375 643.5q3 11.5 24 9.5q20 -3 18.5 -27t-25.5 -103q-51 -172 -76 -229t-70 -110q-23 -27 -35 -33t-44 -6q-44 0 -70.5 19t-49.5 66q-15 32 -20 66t-10 141q-7 158 -7 168t17.5 11t29.5 -8q13 -12 8 -32q-5 -21 5 -144t20 -157.5t35 -63.5t45 -29q15 0 48 32t33 46
q0 7 6 13t15.5 20t15.5 37q3 12 23 69.5t47 173.5q14 59 17 70.5zM265 755q15 16 22 16t28 -16q13 -11 15 -16.5t-6 -14.5q-11 -14 -32 -14.5t-32 13.5q-7 8 -6 14.5t11 17.5zM106 777q22 28 45 0q11 -13 5.5 -27t-21.5 -14q-20 0 -30 14t1 27z" />
    <glyph glyph-name="germandbls" unicode="&#xdf;" horiz-adv-x="529" 
d="M210 532q0 28 27.5 101.5t80.5 131.5q29 32 58.5 34.5t68.5 -22.5q50 -33 54 -95.5t-42 -111.5l-23 -25l23 -21q62 -53 62 -139q0 -43 -20 -78t-80 -95q-30 -31 -45 -39.5t-37 -8.5q-29 0 -40.5 11t-22.5 51q-14 51 3 55q10 2 24 -17q18 -23 18 -39q0 -46 66 17
q55 53 71 101.5t-4 104.5q-12 34 -23 42.5t-46 11.5q-28 2 -34.5 6t-6.5 19q0 13 4 18t11.5 6t23.5 10t34 27q20 22 25.5 35.5t5.5 43.5q0 46 -19 67q-57 60 -113 -41q-74 -132 -103 -444q0 -4 -1 -7q-6 -77 -20 -132.5t-31 -74.5q-14 -16 -46 -26q-21 -7 -32 -5t-35 18
q-36 23 -36 41q0 42 45 9q17 -13 25.5 -14t26.5 7q18 9 25.5 28.5t24.5 101.5q16 76 21.5 132t7.5 84t10 53q14 39 14 68z" />
    <glyph glyph-name="agrave" unicode="&#xe0;" horiz-adv-x="455" 
d="M236 455q9 1 21 3t16 2.5t10 1t9 -0.5t7 -2.5t10 -4.5q10 -6 14 -17.5t4 -38.5q0 -70 31 -134q8 -18 27 -21.5t44 7.5q9 3 12.5 1t3.5 -12q0 -30 -31 -37q-43 -11 -83 31q-28 29 -44 78q-7 22 -20 9q-9 -10 -30 -46q-106 -183 -197 -130q-18 11 -23 21.5t-7 42.5
q-5 87 61.5 159.5t164.5 87.5zM245 394v1q0 19 -7 20t-47 -13q-2 -1 -3 -1q-31 -11 -55.5 -28.5t-24.5 -28.5q0 -9 -17 -33q-20 -29 -29.5 -70.5t1.5 -54.5q14 -16 31 -11.5t43 32.5q33 36 70.5 100t37.5 87zM40 565q-7 10 2 18.5t24 3.5q20 -6 97 -27q75 -20 72 -31
q-1 -6 -31 -4q-36 4 -98 18.5t-66 21.5z" />
    <glyph glyph-name="aacute" unicode="&#xe1;" horiz-adv-x="465" 
d="M185 460q31 7 71.5 6.5t54.5 -8.5q7 -4 7 -63q0 -127 44 -178l23 -27l24 24q33 31 44 20q11 -12 -22 -51q-38 -46 -79.5 -22t-66.5 106q-7 21 -13.5 26.5t-14.5 -4t-19 -34.5q-19 -43 -52 -87.5t-52 -51.5q-24 -9 -50 1t-47 36q-23 27 -26.5 52t9.5 73q17 71 61 119
t104 63zM241 409q-12 19 -69 -8q-31 -14 -57.5 -45.5t-40 -66t-13 -68t18.5 -51.5l18 -18l27 19q12 9 25 26.5t21 32.5t22 42t20 37q14 26 23.5 59t4.5 41zM336 676q10 13 24.5 13t18.5 -13q3 -9 -60 -60.5t-77 -51.5q-19 0 -22 14q-3 23 57 57q47 27 59 41z" />
    <glyph glyph-name="acircumflex" unicode="&#xe2;" horiz-adv-x="440" 
d="M26 338q0 10 18 30t18 28q0 15 36.5 48t67.5 47q60 27 122 -3q16 -8 19 -22.5t4 -79.5q1 -54 4.5 -77.5t13.5 -38.5q13 -19 24.5 -21t20 8t15.5 22.5t15 23.5t14 11q19 0 9 -37q-9 -33 -29 -52q-25 -22 -39 -23t-43 19q-54 35 -54 99q0 32 -11 33.5t-24 -28.5
q-20 -45 -54.5 -84.5t-63.5 -49.5q-24 -8 -34 -7t-26 12q-24 18 -32.5 40.5t-5.5 39t9 36t6 26.5zM244 450q0 14 -7 13q-60 -8 -94 -41q-23 -22 -52 -77t-29 -77q0 -16 10 -28.5t23 -12.5q11 0 47.5 48.5t69 103.5t32.5 71zM255 645q-6 0 -38.5 -40.5t-33.5 -40.5
q-2 0 -26 9q-18 6 -19 10.5t11 23.5q16 25 58 72q33 38 53.5 44t33.5 -19q33 -65 87 -92q29 -15 30 -20q0 -3 -6 -6q-22 -8 -55.5 6.5t-61 33.5t-33.5 19z" />
    <glyph glyph-name="adieresis" unicode="&#xe4;" horiz-adv-x="450" 
d="M147 508q21 12 39.5 14.5t58.5 -1t70 -3.5q24 0 35 -8t9.5 -22t-6 -29t-10.5 -33.5t-6 -30.5q0 -24 12.5 -67t23.5 -57q12 -15 17 -15.5t18 10.5q18 17 27 11t3 -30q-5 -16 -13 -20.5t-35 -6.5t-37 2t-23 22q-12 16 -19.5 39.5t-11 38t-8.5 14.5t-13.5 -16.5t-23.5 -44
t-29 -44.5q-22 -26 -28 -43q-5 -15 -36 -29t-58 -13q-21 0 -46 18.5t-37 41.5q-18 35 0 110q31 135 127 192zM258 476q-35 6 -46 4.5t-36 -15.5q-21 -12 -48.5 -40.5t-27.5 -39.5q0 -7 -19 -46q-20 -41 -16.5 -82.5t29.5 -60.5l24 -18l29 27q36 34 82.5 114.5t56.5 126.5
q4 17 -0.5 21.5t-27.5 8.5zM267 632q5 13 22.5 13t28.5 -13q12 -15 5 -28t-27 -13q-19 0 -27.5 12t-1.5 29zM127 640q10 12 28.5 9.5t35.5 -19.5q9 -8 8.5 -12.5t-11.5 -12.5q-18 -13 -25.5 -12.5t-26.5 15.5q-14 12 -15.5 17.5t6.5 14.5z" />
    <glyph glyph-name="ccedilla" unicode="&#xe7;" horiz-adv-x="553" 
d="M262 182q22 0 58 33.5t62.5 67.5t26.5 40q0 11 27 39.5t37 28.5q14 0 29.5 -22t15.5 -43q0 -20 15 -36q14 -16 8.5 -31t-25.5 -12q-21 3 -38 38l-17 34l-25 -30q-20 -22 -27 -37.5t-32 -46.5q-19 -23 -25.5 -38.5t-6.5 -38.5q0 -36 -18 -64t-42 -28q-18 0 -20.5 12
t13.5 25q13 12 11 40q-2 19 -8 24t-29 7q-20 2 -38 12.5t-31 26.5t-22 30t-15.5 27t-7.5 14.5t-3.5 -0.5t-6.5 -6t-9 -10q-21 -29 -68 -26q-38 2 -41 24q-1 6 2 12q6 16 29 10q15 -4 24 0t21 20q17 21 22 44.5t19 41.5q18 22 18 37t41 70q24 34 38 45.5t32 13.5q27 1 42 1
t30 -5.5t22 -9t18 -10.5t17 -11q18 -8 19 -26.5t-16 -21.5q-10 -2 -18.5 2.5t-25 15t-38.5 18.5q-23 8 -32 6.5t-25 -17.5q-38 -34 -54 -99.5t2 -111.5q13 -34 31.5 -56.5t33.5 -22.5z" />
    <glyph glyph-name="egrave" unicode="&#xe8;" horiz-adv-x="298" 
d="M50 504q15 23 43 23t54 -24q17 -17 21 -30.5t4 -51.5q0 -57 -17 -96q-31 -70 -39 -94.5t-4 -34.5q11 -30 66 13q23 19 59 52q41 40 50 29q6 -8 -19 -40q-23 -31 -23 -40q0 -12 -42.5 -42.5t-58.5 -30.5t-44.5 13t-52.5 13q-26 0 -34 13.5t7 30.5q13 16 7 68
q-6 54 1.5 131t21.5 98zM134 447q-2 17 -12 22.5t-21.5 -2t-17.5 -24.5q-6 -18 -9 -57.5t-1 -71.5t8 -32q12 0 34.5 69.5t18.5 95.5zM14 693q4 9 18 5.5t27.5 -11t31.5 -15.5t28 -8q15 0 21.5 -10t-2.5 -19q-7 -5 -22.5 -4t-34.5 8.5t-36 16.5t-26 19.5t-5 17.5z" />
    <glyph glyph-name="eacute" unicode="&#xe9;" horiz-adv-x="330" 
d="M76 516q24 21 62 21t52 -21q12 -17 9 -40t-22 -62q-24 -48 -41 -65t-42 -17q-21 0 -26 -5t-7 -30q-3 -34 19.5 -73t47.5 -46q25 -6 48.5 10.5t65.5 70.5q59 76 74 52q2 -2 3 -6q5 -11 -24.5 -55.5t-68.5 -84.5q-28 -29 -38.5 -34t-38.5 0q-32 5 -69.5 32t-54.5 58
q-9 17 -12 42.5t-3 78.5q1 75 13 106.5t53 67.5zM141 465q0 44 -36 8q-15 -15 -18 -47.5t9 -39.5q6 -4 17 10t19.5 34.5t8.5 34.5zM179 648q-10 12 12.5 33.5t52 37t38.5 13.5q7 -2 8 -11t-4.5 -19.5t-13.5 -15t-19 -14.5t-19.5 -17.5t-18 -13.5t-19 -4.5t-17.5 11.5z" />
    <glyph glyph-name="ecircumflex" unicode="&#xea;" horiz-adv-x="341" 
d="M217 339q0 -7 -50 -60t-50 -64q0 -14 22.5 -29t33.5 -8q12 7 47 34q42 32 48 14q6 -19 -36 -69q-10 -12 -23 -16.5t-39 -4.5q-30 0 -43 6.5t-39 33.5q-39 39 -55 45q-22 8 -23 24t18 32q14 11 19.5 26t8.5 52q10 113 64 146q53 32 107 3q18 -10 22 -19.5t4 -41.5
q0 -26 -5.5 -44.5t-12.5 -26.5t-12.5 -16.5t-5.5 -16.5zM210 437q2 21 -2 26.5t-23 6.5q-58 5 -75 -71q-12 -54 1 -90q3 -9 7 -9t10.5 7.5t22.5 28.5t32 41q25 29 27 60zM98 685q22 24 55 42t43 18q7 0 26 -18t41.5 -36t37.5 -18q21 0 27.5 -6.5t-3.5 -18.5q-13 -15 -46 -11
t-54 23l-25 25l-28 -24q-25 -21 -42 -23.5t-37 11.5q-12 9 -11.5 14t16.5 22z" />
    <glyph glyph-name="edieresis" unicode="&#xeb;" horiz-adv-x="356" 
d="M113 491q33 28 66 28.5t54 -25.5q12 -16 15 -30t0 -42q-5 -53 -41 -110t-78 -81q-26 -14 -3 -24q15 -7 43 -7q31 0 46 8.5t58 52.5q33 34 48.5 45t21.5 6q8 -9 -6.5 -31.5t-65.5 -80.5q-39 -44 -67 -48q-29 -4 -66.5 6t-50.5 25q-8 10 -22 14.5t-26 4.5t-20.5 5t-8.5 15
q0 8 6.5 16.5t16.5 12.5q14 8 19 19.5t9 44.5q11 103 18.5 129t33.5 47zM204 462q-20 17 -39 9.5t-34.5 -38.5t-20.5 -75q-8 -68 14 -65q23 4 63 79q22 41 25.5 59t-8.5 31zM92 645q12 14 29.5 12.5t30.5 -17.5q11 -14 2 -22.5t-35 -8.5q-28 0 -35 10t8 26zM242 635
q0 28 10 34.5t22 -2.5t21 -23q13 -23 4.5 -35t-34.5 -6q-13 4 -18 10.5t-5 21.5z" />
    <glyph glyph-name="icircumflex" unicode="&#xee;" horiz-adv-x="357" 
d="M116 516q0 16 31.5 51t48.5 31q10 -2 12.5 -16t1.5 -65q-1 -55 -11.5 -102t-37.5 -119q-12 -31 -12.5 -40t10.5 -21q25 -28 63 -13.5t63 61.5q10 18 32.5 36t28.5 12q7 -6 -21.5 -55.5t-51.5 -72.5q-19 -19 -32.5 -24.5t-39.5 -5.5q-21 0 -38 4.5t-25.5 9.5t-16 9
t-14 2.5t-15.5 -9.5q-19 -17 -42 -20.5t-33 8.5q-7 8 -7 13.5t6 14.5q11 13 22.5 13t28.5 19q11 12 14.5 33.5t3.5 83.5q0 58 3 82.5t13 38.5q15 24 15 41zM138 381q9 0 25.5 66t9.5 73q-14 14 -25 -24q-6 -18 -9 -46q-9 -66 -5 -68q1 0 4 -1zM80 667q0 13 31 32t79 27
q4 1 15.5 -8t29 -18t35.5 -9q25 0 27.5 -11.5t-18.5 -30.5q-13 -12 -22 -12t-43 11q-31 10 -43 10t-30 -8q-22 -11 -41.5 -5.5t-19.5 22.5z" />
    <glyph glyph-name="idieresis" unicode="&#xef;" horiz-adv-x="353" 
d="M110 553q11 9 34 6t38 -15q20 -18 -4 -112q-1 -7 -5 -20q-34 -134 -32 -155q2 -14 20 -30q3 -2 4 -3q33 -27 54.5 -21.5t64.5 52.5q58 63 59 40q0 -10 -12 -33q-24 -49 -58.5 -78t-68.5 -29q-20 0 -51 17.5t-37 32.5q-11 29 -56 -15q-30 -29 -45 -19q-15 9 8 38q3 4 6 7
q18 19 37 55q11 22 13 33.5t-4 27.5q-12 31 1.5 118t33.5 103zM125 446q7 -7 14 14q10 31 3 39q-1 1 -2 1q-7 0 -13.5 -24t-1.5 -30zM238 631.5q11 13.5 18 13.5q10 0 19 -15t5 -25q-5 -14 -24 -14q-17 0 -23 13.5t5 27zM93 677q13 13 28.5 13t26.5 -12t5 -28
q-7 -18 -23 -20t-31 14q-12 12 -13 18t7 15z" />
    <glyph glyph-name="oacute" unicode="&#xf3;" horiz-adv-x="409" 
d="M99 467q21 8 69.5 0t64.5 -23q21 -19 21 -29q0 -23 12 -26t39 11q35 20 44 29q9 8 29.5 7.5t20.5 -9.5t-7 -9t-67 -49q-38 -31 -49.5 -46.5t-14.5 -38.5q-17 -125 -125 -123q-42 0 -66.5 15.5t-43.5 52.5q-20 38 -15 81q7 55 32 99.5t56 57.5zM197 413q-20 14 -31 14
q-12 0 -17.5 -13.5t-0.5 -27.5q4 -11 28 -21.5t33 -4.5q12 7 8 24.5t-20 28.5zM169 313q-14 3 -27 12t-20 17.5t-15 16t-13 8t-13 -6.5q-12 -15 -7 -71q3 -33 8.5 -48t17.5 -24q21 -16 37.5 -15.5t44.5 19.5q31 21 34 50q2 22 -4.5 28t-42.5 14zM229 711q48 53 58 53
q28 0 6 -28q-5 -7 -13 -14q-17 -16 -28.5 -34t-15.5 -28.5t-11 -16.5t-19 -5q-25 4 -18 21q7 14 41 52z" />
    <glyph glyph-name="ocircumflex" unicode="&#xf4;" horiz-adv-x="393" 
d="M75 456q27 25 46.5 31t29.5 0t26.5 -14.5t33.5 -8.5q24 0 57 -38l32 -37l22 24q31 33 34 20q3 -10 -19 -42l-35 -52q-17 -25 -23 -58q-6 -34 -48.5 -74.5t-78.5 -46.5q-42 -8 -75 0.5t-49 30.5q-10 15 -14 33.5t-4 56.5q0 61 15 102t50 73zM211 410q-26 26 -54 27.5
t-37 -22.5q-17 -45 16 -79.5t78 -17.5q25 10 24.5 37.5t-27.5 54.5zM179 273q-20 0 -43.5 13.5t-40 27t-21.5 13.5q-9 0 -13 -24.5t0 -47.5q9 -42 44 -51.5t73 19.5q56 43 14 49q-6 1 -13 1zM158 667q20 21 29.5 31t22 20t17.5 13t14.5 1.5t13.5 -6t13 -18t14.5 -26
t17.5 -37.5q15 -32 28 -43t37 -11q12 0 16 -8.5t-0.5 -19.5t-15.5 -17q-18 -10 -28 -10q-13 0 -52 39.5t-39 52.5q0 50 -56 -13q-23 -27 -35.5 -34.5t-29.5 -5.5q-27 2 -30 11.5t63 80.5z" />
    <glyph glyph-name="odieresis" unicode="&#xf6;" horiz-adv-x="374" 
d="M84 512q48 20 103.5 10.5t95.5 -44.5q13 -11 21 -11.5t11.5 4.5t12 6.5t21.5 -4.5q18 -10 15 -21t-23 -14q-16 -2 -36 -35t-20 -58q0 -21 -25.5 -66.5t-54.5 -77.5q-25 -26 -37 -31.5t-47 -5.5q-44 0 -58.5 8t-33.5 43q-13 22 -16.5 44.5t-2.5 77.5q1 81 17.5 120
t56.5 55zM199 474l-45 16q-6 -2 -14 -6t-25.5 -16t-26.5 -25.5t-5.5 -34.5t26.5 -42t41.5 -19t56.5 27q28 19 35 28.5t5 27.5q-1 17 -10 24.5t-38 19.5zM214 289q8 23 2.5 26.5t-24.5 -3.5q-18 -5 -30 -7.5t-35 -1.5t-43 10q-36 15 -12 -58q11 -32 17.5 -39t27.5 -7
q25 0 55.5 25t41.5 55zM77 656q13 8 49 5t39 -13q2 -7 -11 -16.5t-31.5 -16t-30.5 -4.5q-17 3 -22.5 19.5t7.5 25.5zM276 686q12 15 31 12q11 -1 15 -7.5t4 -22.5q0 -17 -4 -22t-17 -5q-22 0 -31.5 15t2.5 30z" />
    <glyph glyph-name="ugrave" unicode="&#xf9;" horiz-adv-x="533" 
d="M107 405q0 15 13.5 46t13.5 49q0 30 20 43q18 11 25 -13q3 -11 2 -30q-3 -33 2 -138t23 -127q12 -15 18 -11t30 41q52 81 70.5 113t18.5 43t9 20t9 25q0 19 10.5 31t27.5 12q19 0 22.5 -17t-6.5 -57q-13 -54 -11.5 -117.5t15.5 -84.5q15 -24 28 -21.5t38 32.5
q29 33 34 28q11 -10 -4 -39t-40.5 -53.5t-43.5 -24.5q-28 0 -49.5 33t-28.5 87q-5 44 -15 45q-6 0 -24.5 -28.5t-34.5 -64.5q-16 -37 -40.5 -52.5t-45 -9t-35.5 34.5t-15 71q0 47 -7 47q-11 0 -20 -13.5t-9 -28.5q0 -18 -30 -58t-46 -43q-21 -4 -21 15q0 17 16 35
q24 26 38.5 51t14.5 39q0 12 14 42.5t14 47.5zM163 679q10 15 33.5 10.5t44 -16.5t44.5 -24.5t36 -12.5q6 0 9 -3.5t2 -7.5q-6 -18 -72.5 -5t-95.5 37q-7 5 -7.5 10t6.5 12z" />
    <glyph glyph-name="uacute" unicode="&#xfa;" horiz-adv-x="552" 
d="M387 473q6 23 16.5 34.5t23.5 8.5q10 -2 12 -16q3 -21 -5 -164q-4 -86 8 -111q9 -17 16 -21t14.5 3t20.5 29q23 40 41 37q17 -3 3 -40q-1 -4 -3 -8q-5 -10 -9.5 -22.5t-7 -17.5t-6.5 -11t-9 -8.5t-13 -4.5q-42 -11 -71 22t-35 99q-6 52 -17 48q-8 -3 -18 -33
q-11 -33 -43 -83q-23 -36 -33 -43t-39 -7q-27 0 -37.5 5.5t-26.5 28.5q-23 34 -23 49q0 22 -11 21q-11 -2 -20 -25q-10 -22 -37.5 -50.5t-39.5 -28.5q-14 0 -22 15.5t-6 32.5t15 21q27 8 40 29t41 103q11 29 18 48.5t14.5 34.5t12.5 22t11.5 10t12 1t13.5 -9q8 -6 8 -12
t-6 -17t-10 -51t2 -93t27 -81l18 -23l27 27q13 12 23 26.5t16 25.5t23 46.5t30 61.5q35 68 41 91zM381 734q10 10 19.5 6.5t9.5 -17.5q0 -17 -38 -52t-57 -35q-30 0 -28 19q3 24 50 50l4 2q27 14 40 27z" />
    <glyph glyph-name="ucircumflex" unicode="&#xfb;" horiz-adv-x="599" 
d="M482 525q10 12 24 9q29 -6 -4 -110q-13 -42 -10 -89.5t21 -81.5q21 -42 40 7q9 23 24 21q12 -1 12 -17q0 -22 -20.5 -52t-34.5 -30q-18 0 -46 25q-16 15 -23.5 30.5t-12.5 44.5q-9 55 -20 56q-9 0 -24 -31q-19 -40 -19 -46t-32 -56q-22 -34 -41 -46.5t-50 -12.5
q-21 0 -54 30.5t-47 64.5q-17 41 -24 41t-26 -41q-23 -50 -63 -71q-32 -17 -41 7q-5 12 32 51t37 46q0 4 13 26t30 65.5t25 96.5q5 31 17.5 42t30.5 -1q9 -5 11.5 -31.5t3.5 -102.5l1 -125l27 -22q13 -11 20 -15.5t17 -5t16 3.5t18.5 18.5t23.5 30.5t32 49q23 34 23 43
q0 8 41 86.5t52 92.5zM328 727q27 11 44.5 5t49.5 -37q17 -16 34 -28t23 -12q17 0 22 -7t-4 -18q-15 -17 -45.5 -11t-60.5 32q-32 27 -46 24.5t-31 -38.5q-11 -23 -37.5 -23t-30.5 10q-3 10 31 53t51 50z" />
    <glyph glyph-name="udieresis" unicode="&#xfc;" horiz-adv-x="543" 
d="M67 254q0 11 18 37t18 32t8 23.5t18 48t14 63.5q6 54 11.5 62t24.5 5q13 -1 16 -14q4 -16 5 -130q0 -144 12 -158q10 -14 44 34q9 13 25 36q126 189 134 209q5 14 18.5 15t24.5 -12q6 -9 6 -15.5t-8 -19.5q-13 -20 -19 -115q-7 -135 22 -136q14 0 40 26q25 27 32 21.5
t-9 -41.5q-25 -55 -55.5 -61t-62.5 38q-18 24 -23 40.5t-5 49.5q0 60 -14 57q-8 -1 -17 -24q-15 -35 -51.5 -88.5t-49.5 -57.5q-36 -15 -60 3t-32 65q-6 35 -13.5 35t-26.5 -43q-25 -55 -52.5 -75t-46.5 3q-7 9 6 25t30.5 33.5t17.5 28.5zM379 654q20 8 26.5 8t12.5 -8
q6 -11 -1.5 -32.5t-17.5 -21.5q-11 0 -26 13.5t-15 23.5q0 9 21 17zM233 691q21 8 27.5 7.5t15.5 -12.5q8 -9 6.5 -15t-13.5 -18q-14 -14 -20 -14.5t-23 10.5q-36 24 7 42z" />
    <glyph glyph-name="eogonek" unicode="&#x119;" horiz-adv-x="355" 
d="M303 301q0 -5 -18 -24t-18 -24q0 -7 -19 -35t-39 -52q-16 -19 -13 -53q2 -28 11 -32.5t35 5.5q17 7 16 -6q-1 -11 -15 -27t-34.5 -17.5t-38 7.5t-29 27t-9.5 40q2 20 -1.5 26t-18.5 8q-22 3 -66 49t-35 55t4 53q-4 35 5.5 93.5t24.5 89.5q5 9 15.5 20t28.5 21t39.5 9.5
t48.5 -12.5q16 -9 21 -17.5t5 -28.5q0 -36 -25.5 -97t-56.5 -98q-29 -34 -30 -51t25 -38q18 -15 53.5 11t79.5 87q54 74 54 82q0 12 15 20.5t23 0.5t-1.5 -26.5t-23 -38.5t-13.5 -27zM142 449q2 32 -16 31q-16 -2 -36 -32q-14 -21 -18.5 -38.5t-4.5 -52.5q0 -57 9 -57
q17 0 40.5 52.5t25.5 96.5z" />
    <glyph glyph-name="quotedblleft" unicode="&#x201c;" horiz-adv-x="259" 
d="M206 653q4 12 24 9q10 -2 13.5 -4t4.5 -12.5t-1.5 -25t-9.5 -47.5q-13 -67 -31 -66q-8 0 -17 10q-12 12 -12 22.5t10 48.5q15 53 19 65zM25 642q17 26 30.5 19.5t12.5 -38.5q-2 -52 -10 -87.5t-17 -35.5q-15 0 -24 26.5t-7 61t15 54.5z" />
    <glyph glyph-name="quotedblbase" unicode="&#x201e;" horiz-adv-x="324" 
d="M273 191q20 8 29 6q11 -3 11.5 -29.5t-6 -56.5t-19 -54.5t-23.5 -24.5q-30 0 -17 103q3 28 8.5 39.5t16.5 16.5zM49 222q8 8 28.5 5t28.5 -13t-5 -57.5t-31.5 -91t-24.5 -45.5q-14 -5 -27.5 10t-4.5 26q11 15 20.5 54.5t9.5 68.5q0 36 6 43z" />
    <glyph glyph-name="bullet" unicode="&#x2022;" horiz-adv-x="225" 
d="M34.5 533.5q17.5 22.5 28.5 26.5t55 2q39 -2 52.5 -6.5t25.5 -21.5q19 -25 19 -70q0 -31 -6 -44.5t-30 -37.5q-35 -37 -57 -37q-19 0 -59.5 26.5t-46.5 43.5q-10 25 -4.5 60.5t23 58z" />
    <glyph glyph-name="Euro" unicode="&#x20ac;" horiz-adv-x="486" 
d="M255 663q33 11 75.5 5.5t59.5 -21.5q21 -20 29 -20q15 -1 38 -24t19 -34q-7 -18 -25.5 -13t-52.5 33q-39 32 -65.5 40t-57.5 -5q-25 -11 -65.5 -50t-40.5 -54q0 -12 -14 -34q-17 -25 -7 -42q5 -9 16 -5q11 5 73 11q58 7 58 -2q1 -1 0 -3q-5 -15 -41 -30t-79 -20
q-58 -7 -58 -22q-1 -7 12 -16q17 -12 80 -10q73 4 70 -14q-4 -17 -70 -28q-17 -3 -35 -4l-64 -6l-3 -42q-3 -53 32.5 -107t80.5 -65q42 -9 61 -6.5t41 20.5q15 13 23 15.5t14 -4.5q12 -11 9 -27t-19 -31q-13 -12 -28 -15t-52 -2q-52 2 -86 18t-73 57q-30 31 -40 64t-10 97
q0 14 -4.5 25.5t-9.5 16.5t-8 9.5t-0.5 8t12.5 9.5q22 11 17.5 30.5t-30.5 24.5q-16 3 -21.5 8.5t-5.5 18.5q0 15 5 18.5t26 2.5q26 -2 45 11.5t19 34.5q0 16 18.5 42t18.5 34q0 13 45.5 54.5t67.5 47.5z" />
  </font>
</defs>
</svg>
