<?xml version="1.0"?>
<svg width="200" height="200" xmlns="http://www.w3.org/2000/svg" xmlns:svg="http://www.w3.org/2000/svg">
 <g>
  <title>Layer 1</title>
  <rect id="svg_2" height="200" width="200" fill="none"/>
  <path d="m34.107201,157.136215c0,-9.132385 7.403309,-16.535889 16.535599,-16.535889s16.535713,7.403488 16.535713,16.535889c0,9.132355 -7.403362,16.53569 -16.535713,16.53569s-16.535599,-7.403336 -16.535599,-16.53569zm24.80344,-115.750557l0,16.535664c50.21899,0 90.94701,40.723339 90.94701,90.947025l16.53569,0c0,-59.35556 -48.131874,-107.482708 -107.482693,-107.482708l-0.000008,0.000019zm0.095089,33.104462c-0.033081,0 -0.062019,0.004143 -0.095089,0.004143l0,16.53569c0.03307,0 0.062008,-0.00412 0.095089,-0.00412c31.951141,0 57.858467,25.899055 57.875008,57.842529l16.535858,0c-0.016541,-41.07946 -33.327888,-74.378242 -74.410866,-74.378242l0,0l0,0zm0,33.071426c-0.033081,0 -0.062019,0.00412 -0.095089,0.00412l0,16.535721c0.03307,0 0.062008,-0.004128 0.095089,-0.004128c13.687439,0 24.787041,11.091599 24.803589,24.771103l16.535713,0c-0.016541,-22.815712 -18.520004,-41.306824 -41.339302,-41.306824l0,0l0,0.000008z" fill="#ffffff" id="svg_1"/>
 </g>
</svg>