<?xml version="1.0"?>
<svg width="200" height="100" xmlns="http://www.w3.org/2000/svg" xmlns:svg="http://www.w3.org/2000/svg">
 <!-- Created with SVG-edit - http://svg-edit.googlecode.com/ -->
 <g display="inline">
  <title>Layer 2</title>
  <rect stroke="null" fill="none" width="100" height="100" id="svg_3"/>
  <path id="svg_2" fill="#7f7f7f" class="path1" d="m85.400101,75.674484q0,6.008911 -3.655685,9.489517t-9.714622,3.480186l-43.766434,0q-6.059301,0 -9.714607,-3.480186t-3.655676,-9.489517q0,-2.653793 0.175103,-5.182884t0.701329,-5.45816t1.327368,-5.433464t2.153419,-4.882484t3.104942,-4.056278t4.281548,-2.679058t5.583452,-1.001331q0.450565,0 2.103218,1.076614t3.730789,2.403774t5.408169,2.403809t6.684967,1.076424t6.685143,-1.076424t5.40815,-2.403809t3.730824,-2.403774t2.103249,-1.076614q3.054329,0 5.583435,1.001331t4.281532,2.679058t3.104935,4.056278t2.153419,4.882484t1.327194,5.433464t0.701141,5.45816t0.175095,5.182884l-0.00132,0l0,0l0,0l0,0l0,0l-0.000023,0l0,0l-0.000031,0l-0.000015,0l-0.000015,0l0.000008,0zm-16.024658,-44.717957q0,7.961956 -5.633446,13.595776t-13.596004,5.633438t-13.595764,-5.633438t-5.633633,-13.595776t5.633633,-13.595964t13.595764,-5.633435t13.595814,5.633435t5.63343,13.595964l0.000198,0l0,0l0,0l0,0l0.000008,0z" stroke="null"/>
 </g>
 <g display="inline">
  <title>Layer 1</title>
  <rect y="0" stroke="null" fill="none" x="100" width="100" height="100" id="svg_5"/>
  <path id="svg_4" class="path1" d="m135.532516,49.835209q-6.404221,0.198502 -10.476067,5.080288l-5.297333,0q-3.24157,0 -5.455322,-1.60743t-2.213867,-4.703209q0,-14.010544 4.901993,-14.010544q0.237312,0 1.719612,0.833557t3.854408,1.686733t4.704353,0.853275q2.648666,0 5.257706,-0.912842q-0.197693,1.468613 -0.197693,2.619499q0,5.516945 3.202103,10.160603l0.000107,0.000095l0,0l0,0l0,0l0,0l0,0l0,0l0,0l0,-0.000015l0,-0.000008l0,0.000008l-0.000015,-0.000008l0.000015,0l0,-0.000011l0,0.000004l0,0.000004zm42.338943,25.282482q0,4.762787 -2.886078,7.521187t-7.66893,2.75843l-34.55127,0q-4.783356,0 -7.669113,-2.75843t-2.885727,-7.521294q0,-2.10363 0.138367,-4.107895t0.55336,-4.326233t1.047607,-4.306404t1.699852,-3.869766t2.451088,-3.214901t3.379807,-2.123379t4.407761,-0.793816q0.395309,0 1.699844,0.853271t2.885742,1.905151t4.230011,1.905167t5.336792,0.853256t5.336823,-0.853256t4.229996,-1.905167t2.885727,-1.905151t1.699905,-0.853271q2.411453,0 4.407852,0.793816t3.380173,2.123379t2.451172,3.214901t1.699554,3.869766t1.047211,4.306404t0.554153,4.326233t0.138306,4.107895l0,0.000099l0,0l0,0l0,0l0,0l0,0l0,0l0,0l0,0l0,0l0,0l0,0l0.000031,0.000008l-0.000031,0l0.000015,0zm-40.480988,-50.683975q0,4.207094 -2.964813,7.183842t-7.155258,2.976654t-7.15535,-2.976654t-2.964813,-7.183842t2.964813,-7.183867t7.15535,-2.976753t7.155258,2.976753t2.964813,7.183867zm27.830658,15.240898q0,6.310646 -4.447327,10.775734t-10.732956,4.465073t-10.73291,-4.465073t-4.447433,-10.775734t4.447433,-10.775736t10.73291,-4.465067t10.732956,4.465067t4.447327,10.775736zm22.770538,8.930222q0,3.095768 -2.213638,4.703224t-5.455505,1.607437l-5.297134,0q-4.071503,-4.881901 -10.476288,-5.080292q3.202148,-4.643745 3.202148,-10.160599q0,-1.15086 -0.197739,-2.61948q2.6091,0.912838 5.25827,0.912838q2.331848,0 4.703842,-0.853271t3.85408,-1.686741t1.719604,-0.833553q4.902313,0 4.902313,14.010536l0,-0.000099l0,0l0,0l0,0l0,0l0,0l0,0l0,0l0.000031,0l0.000015,0zm-5.059616,-24.171139q0,4.2071 -2.965256,7.183849t-7.155014,2.976643t-7.155655,-2.976643t-2.964813,-7.183849t2.964813,-7.183849t7.155655,-2.976755t7.155014,2.976755t2.965256,7.183849z" fill="#7f7f7f" stroke="null"/>
 </g>
</svg>