<?xml version="1.0" standalone="no"?>
<!DOCTYPE svg PUBLIC "-//W3C//DTD SVG 1.1//EN" "http://www.w3.org/Graphics/SVG/1.1/DTD/svg11.dtd" >
<svg>
<metadata>
Created by FontForge 20110222 at Thu Jan 15 09:34:45 2015
 By deploy user
(c) 1997, 2000 Adobe Systems Incorporated. All rights reserved.
</metadata>
<defs>
<font id="ChaparralPro-Italic" horiz-adv-x="322" >
  <font-face 
    font-family="Chaparral Pro"
    font-weight="400"
    font-style="italic"
    font-stretch="normal"
    units-per-em="1000"
    panose-1="2 6 5 3 4 5 5 9 2 3"
    ascent="740"
    descent="-260"
    x-height="421"
    cap-height="650"
    bbox="-171 -316.8 1043 867"
    underline-thickness="54"
    underline-position="-46"
    slope="-10"
    unicode-range="U+0020-FB04"
  />
<missing-glyph horiz-adv-x="500" 
d="M0 0v700h500v-700h-500zM250 395l170 255h-340zM280 350l170 -255v510zM80 50h340l-170 255zM50 605v-510l170 255z" />
    <glyph glyph-name="T_h" unicode="Th" horiz-adv-x="962" 
d="M374 600l-95 -551l96 -3q-4 -29 -9 -47q-18 0 -62 0.5t-65 0.5t-63 -0.5t-62 -0.5q2 19 8 47l79 3q5 0 5 4l92 547q-108 0 -137 -3q-22 -2 -28 -19l-29 -96q-20 0 -50 4q22 110 34 165q10 0 41 -0.5t52 -0.5h167h192l159 1q8 0 10 -2t1 -7q-69 -271 -86 -338l6 -3
q60 69 112.5 98.5t87.5 30.5q18 -3 37.5 -16.5t29.5 -35.5q6 -14 6 -31q0 -74 -80 -300q-4 -6 4 -6q20 0 70 13q3 -14 7 -42q-62 -21 -131 -21q-5 0 -15 10.5t-11 19.5q44 134 63 208q19 71 19 99q0 15 -8 25.5t-23 10.5q-44 0 -111.5 -59.5t-79.5 -104.5q-6 -22 -26 -104
t-24 -96h-70l138 578q3 12 -1 15.5t-19 3.5q-81 3 -231 3z" />
    <glyph glyph-name="Tcaron_h" unicode="&#x164;h" horiz-adv-x="962" 
d="M351 768q12 7 57 34t65 40q7 -8 21 -30q-8 -6 -134 -99q-23 0 -34 1q-32 33 -99 98q16 19 28 29q55 -41 96 -73zM374 600l-95 -551l96 -3q-4 -29 -9 -47q-18 0 -62 0.5t-65 0.5t-63 -0.5t-62 -0.5q2 19 8 47l79 3q5 0 5 4l92 547q-108 0 -137 -3q-22 -2 -28 -19l-29 -96
q-20 0 -50 4q22 110 34 165q10 0 41 -0.5t52 -0.5h167h192l159 1q8 0 10 -2t1 -7q-69 -271 -86 -338l6 -3q60 69 112.5 98.5t87.5 30.5q18 -3 37.5 -16.5t29.5 -35.5q6 -14 6 -31q0 -74 -80 -300q-4 -6 4 -6q20 0 70 13q3 -14 7 -42q-62 -21 -131 -21q-5 0 -15 10.5
t-11 19.5q44 134 63 208q19 71 19 99q0 15 -8 25.5t-23 10.5q-44 0 -111.5 -59.5t-79.5 -104.5q-6 -22 -26 -104t-24 -96h-70l138 578q3 12 -1 15.5t-19 3.5q-81 3 -231 3z" />
    <glyph glyph-name="uni021A_h" unicode="&#x21a;h" horiz-adv-x="962" 
d="M292 -100q0 -50 -35 -93t-84 -69q-13 15 -23 31q71 46 71 89q0 28 -39 39q1 30 18.5 48.5t40.5 18.5q20 0 35.5 -19t15.5 -45zM374 600l-95 -551l96 -3q-4 -29 -9 -47q-18 0 -62 0.5t-65 0.5t-63 -0.5t-62 -0.5q2 19 8 47l79 3q5 0 5 4l92 547q-108 0 -137 -3
q-22 -2 -28 -19l-29 -96q-20 0 -50 4q22 110 34 165q10 0 41 -0.5t52 -0.5h167h192l159 1q8 0 10 -2t1 -7q-69 -271 -86 -338l6 -3q60 69 112.5 98.5t87.5 30.5q18 -3 37.5 -16.5t29.5 -35.5q6 -14 6 -31q0 -74 -80 -300q-4 -6 4 -6q20 0 70 13q3 -14 7 -42
q-62 -21 -131 -21q-5 0 -15 10.5t-11 19.5q44 134 63 208q19 71 19 99q0 15 -8 25.5t-23 10.5q-44 0 -111.5 -59.5t-79.5 -104.5q-6 -22 -26 -104t-24 -96h-70l138 578q3 12 -1 15.5t-19 3.5q-81 3 -231 3z" />
    <glyph glyph-name="f_f_j" unicode="ffj" horiz-adv-x="769" 
d="M639 678q62 0 110 -23q0 -13 -14.5 -35.5t-27.5 -27.5q-59 28 -106 28q-50 0 -81 -37q-21 -26 -32 -60t-23 -103q77 0 149 2q19 0 44 2.5t42 4.5t19 2q5 0 14 -8t13 -15q-11 -57 -33 -176t-29 -156q-15 -74 -29 -114.5t-43 -84.5q-20 -30 -47 -56.5t-46 -39t-24 -12.5
q-11 1 -31.5 19.5t-21.5 28.5q80 31 115 77q32 41 55 161q38 219 54 316q-149 0 -209 -1q-39 -218 -96 -531q-22 -1 -67 -1q27 151 93 532h-206q-51 -289 -93 -532q-22 -1 -68 -1q42 242 91 532h-82q3 21 8 47q9 0 25 1t29 1.5t24 0.5q4 0 6 8q12 70 28 107.5t49 70.5
q68 67 175 67q40 0 59 -12q0 -13 -13.5 -34.5t-24.5 -27.5q-32 16 -71 16q-52 0 -82 -37q-20 -25 -30.5 -58t-23.5 -100q182 0 205 1q3 1 5 6q11 71 28.5 110.5t51.5 73.5q68 68 162 68z" />
    <glyph glyph-name="f_j" unicode="fj" horiz-adv-x="506" 
d="M366 676q63 0 111 -23q0 -12 -14.5 -34.5t-26.5 -28.5q-58 29 -108 29t-81 -37q-22 -27 -33.5 -62.5t-22.5 -100.5q66 1 123 3q35 1 78.5 4.5t55.5 3.5q5 0 12.5 -9t9.5 -16q-48 -262 -62 -331q-15 -74 -29 -114.5t-44 -83.5q-20 -30 -47 -56.5t-46 -39t-24 -12.5
q-10 0 -30.5 18.5t-22.5 29.5q81 30 116 76q32 42 55 162q50 282 55 316h-207q-40 -232 -96 -532q-22 -1 -68 -1q26 148 93 533h-81q1 8 3.5 23t3.5 23q9 0 25 1t29 1.5t24 0.5q5 0 6 7q10 70 28 109t53 74q68 67 162 67z" />
    <glyph glyph-name="f_f" unicode="ff" horiz-adv-x="589" 
d="M374 672q42 0 59 -12q0 -14 -13 -35t-25 -27q-28 16 -70 16q-52 0 -83 -37q-14 -17 -23.5 -43t-14 -45t-14.5 -70q140 0 203 1q4 0 6 7q12 71 28 110.5t50 73.5q68 67 163 67q38 0 58 -13q0 -14 -13.5 -36t-24.5 -27q-45 17 -71 17q-40 0 -70 -36q-14 -17 -24 -44
t-14.5 -47.5t-14.5 -71.5q54 0 152 2q-4 -35 -9 -51q-21 0 -74.5 -0.5t-76.5 -0.5q-17 -97 -96 -531q-22 -1 -67 -1q54 300 93 532h-206q-13 -75 -44.5 -254t-48.5 -278q-22 -1 -68 -1q42 242 91 532h-81q1 7 3.5 23t3.5 24q40 2 78 3q6 0 6 8q12 70 28 107.5t49 70.5
q68 67 175 67z" />
    <glyph glyph-name="f_f_i" unicode="ffi" horiz-adv-x="796" 
d="M374 672q42 0 59 -12q0 -14 -13 -35t-25 -27q-28 16 -70 16q-52 0 -83 -37q-20 -25 -30 -58t-22 -100q139 0 202 1q4 0 6 7q11 71 28.5 110t52.5 73q69 68 161 68q64 0 110 -23q0 -12 -14.5 -35t-26.5 -28q-61 28 -107 28q-50 0 -81 -37q-21 -26 -32 -60t-23 -103
q87 0 145.5 2.5t81.5 5.5l23 2q4 0 13 -9t13 -16q-14 -59 -49 -207t-36 -152q-4 -6 3 -6q22 0 75 16q5 -19 7 -43q-66 -22 -124 -22q-5 0 -18 11t-16 20q13 56 41.5 181.5t38.5 167.5q-58 -1 -206 -1q-11 -60 -43.5 -243t-51.5 -288q-21 -1 -67 -1q17 98 48 277t44 255h-206
q-14 -81 -94 -532q-22 -1 -68 -1q75 432 92 532h-82q3 21 8 47q9 0 25 1t29 1.5t24 0.5q4 0 6 8q12 70 28 107.5t50 70.5q68 67 174 67z" />
    <glyph glyph-name="f_f_l" unicode="ffl" horiz-adv-x="807" 
d="M649 677q37 0 82 -10t69 -24q-8 -33 -37.5 -160.5t-63.5 -273t-38 -161.5q-2 -7 4 -7q30 0 86 15q3 -14 5 -43q-73 -22 -136 -22q-5 0 -16.5 10t-16.5 20l80 350q-28 0 -103.5 -0.5t-105.5 -0.5q-11 -60 -43.5 -243t-51.5 -288q-22 -1 -67 -1q50 288 91 532h-205
q-14 -82 -45 -260t-47 -272q-22 -1 -67 -1q15 90 45 268.5t44 263.5h-82q1 7 3.5 23t3.5 24q41 2 78 3q5 0 7 8q12 70 27 107t49 71q68 67 175 67q39 0 61 -12q0 -14 -13.5 -35.5t-24.5 -26.5q-32 16 -72 16q-52 0 -83 -37q-14 -17 -23.5 -42.5t-14 -45.5t-14.5 -70
q140 0 202 1q5 0 7 7q10 69 28 108.5t54 75.5q67 66 169 66zM616 622q-60 0 -93 -39q-23 -26 -34 -61t-23 -102q34 0 107 0.5t105 0.5q38 167 42 182q-40 19 -104 19z" />
    <glyph glyph-name="f_i" unicode="fi" horiz-adv-x="522" 
d="M365 676q64 0 112 -23q0 -12 -14.5 -34.5t-27.5 -28.5q-56 29 -107 29t-82 -37q-21 -27 -32.5 -62t-22.5 -101q87 0 146 3t81 6l23 2q4 0 13.5 -9t13.5 -16q-9 -39 -44 -185t-42 -174q-2 -6 4 -6q22 0 75 16q5 -19 7 -43q-66 -22 -124 -22q-5 0 -18 11t-17 21
q65 279 80 347h-205q-33 -186 -96 -532q-23 -1 -69 -1q53 296 94 533h-82q1 8 3.5 23t3.5 23q9 0 25 1t29 1.5t24 0.5q6 0 6 7q10 70 28 109t53 74q69 67 162 67z" />
    <glyph glyph-name="f_l" unicode="fl" horiz-adv-x="533" 
d="M374 676q38 0 83 -10t68 -24q-8 -34 -68.5 -293.5t-70.5 -300.5q0 -7 4 -7q31 0 87 15q4 -28 5 -43q-75 -22 -138 -22q-4 0 -15 10t-17 20q5 25 17.5 79.5t31.5 135t31 135.5q-28 0 -103.5 -0.5t-105.5 -0.5q-30 -172 -95 -532q-22 -1 -68 -1q14 78 93 533h-82q2 18 8 46
q9 0 25 1t29 1.5t24 0.5q5 0 6 7q10 69 28 108.5t54 75.5q67 66 169 66zM340 621q-61 0 -92 -38q-23 -26 -34 -61t-23 -103q82 0 212 2q20 88 42 181q-40 19 -105 19z" />
    <glyph glyph-name="uni0162_h" unicode="&#x162;h" horiz-adv-x="962" 
d="M624 304l6 -3q60 69 112.5 98.5t87.5 30.5q18 -3 37.5 -16.5t29.5 -35.5q6 -14 6 -31q0 -74 -80 -300q-4 -6 4 -6q20 0 70 13q3 -14 7 -42q-62 -21 -131 -21q-5 0 -15 10.5t-11 19.5q44 134 63 208q19 71 19 99q0 15 -8 25.5t-23 10.5q-44 0 -111.5 -59.5t-79.5 -104.5
q-6 -22 -26 -104t-24 -96h-70l138 578q3 12 -1 15.5t-19 3.5q-81 3 -231 3l-95 -551l96 -3q-4 -29 -9 -47q-49 0 -75 1l-82 -71q58 -12 58 -63q0 -37 -41 -64t-106 -27l1 36q39 1 61 15.5t22 33.5q0 15 -11 26q-9 10 -43 15q-4 16 -5 24l87 75q-20 0 -59.5 -0.5t-58.5 -0.5
q2 19 8 47l79 3q5 0 5 4l92 547q-108 0 -137 -3q-22 -2 -28 -19l-29 -96q-20 0 -50 4q22 110 34 165q10 0 41 -0.5t52 -0.5h167h192l159 1q8 0 10 -2t1 -7q-69 -271 -86 -338z" />
    <glyph glyph-name=".notdef" horiz-adv-x="500" 
d="M0 0v700h500v-700h-500zM250 395l170 255h-340zM280 350l170 -255v510zM80 50h340l-170 255zM50 605v-510l170 255z" />
    <glyph glyph-name=".null" horiz-adv-x="0" 
 />
    <glyph glyph-name="nonmarkingreturn" horiz-adv-x="333" 
 />
    <glyph glyph-name="space" unicode=" " horiz-adv-x="200" 
 />
    <glyph glyph-name="exclam" unicode="!" horiz-adv-x="253" 
d="M238 658q2 0 2 -2q-44 -208 -105 -489q-28 -4 -51 -4q4 27 9.5 68t11.5 90t9 68q19 150 30 254q14 5 48.5 10t45.5 5zM90 91q24 0 36.5 -15.5t12.5 -34.5q0 -21 -15.5 -35.5t-36.5 -14.5q-24 0 -37.5 12.5t-13.5 32.5q0 22 16 38.5t38 16.5z" />
    <glyph glyph-name="quotedbl" unicode="&#x22;" horiz-adv-x="307" 
d="M186 698q-31 -128 -48 -213q-17 -4 -48 -4q14 143 18 207q26 10 78 10zM329 698q-31 -128 -48 -213q-22 -5 -48 -5q3 28 18 208q26 10 78 10z" />
    <glyph glyph-name="numbersign" unicode="#" horiz-adv-x="512" 
d="M410 420l-47 -140q81 0 112 -1q-4 -28 -10 -46h-118q-37 -107 -69 -199q-34 0 -49 1q46 134 67 198q-35 -1 -110 -1q-8 -24 -23 -66.5t-26.5 -75t-19.5 -56.5q-17 -1 -49 1q53 156 67 197q-20 0 -56 -0.5t-51 -0.5q3 18 12 49h112q25 78 46 140h-114q7 37 10 46
q80 0 119 1q28 79 62 179q21 0 53 -2q-13 -38 -63 -177h109q8 22 61 179q22 0 54 -2q-5 -14 -27 -77t-35 -99h104q-2 -25 -10 -48h-111zM313 280l46 140h-110q-9 -27 -25 -76t-21 -64h110z" />
    <glyph glyph-name="dollar" unicode="$" horiz-adv-x="512" 
d="M103 443q0 43 26 78t58 52q49 28 111 30q2 11 5.5 31.5t6.5 37t6 30.5q32 6 50 6q-18 -94 -19 -102q87 0 125 -25q-6 -36 -35 -58q-52 32 -100 36q-5 -28 -18 -100t-20 -111q72 -26 104 -58t32 -84q0 -80 -73 -131q-48 -35 -127 -45q-3 -15 -9 -48t-9 -48q-14 -2 -46 -4
q6 32 18 98q-111 -2 -167 35q10 38 40 57q65 -45 136 -46q22 123 40 227q-66 25 -100.5 57t-34.5 85zM171 451q0 -32 18.5 -49.5t66.5 -37.5q9 55 34 195q-43 -2 -72 -21q-47 -33 -47 -87zM366 190q0 36 -19 56.5t-66 39.5q-7 -39 -20 -112.5t-18 -99.5q49 5 79 29
q44 34 44 87z" />
    <glyph glyph-name="percent" unicode="%" horiz-adv-x="753" 
d="M558 613l-1 4q-39 0 -121 -0.5t-118 -0.5q32 -30 32 -94q0 -41 -18.5 -84t-52.5 -73q-43 -38 -103 -38q-49 0 -82 31q-37 35 -37 99q0 43 19 87t52 72q45 38 102 38q356 4 382 6q13 -19 19 -33q-80 -107 -227 -311q-205 -284 -248 -342q-18 10 -40 25q35 47 248 342
q63 88 194 272zM186 366q34 0 56 24q45 47 45 139q0 41 -16 63q-16 23 -47 23q-32 0 -57 -22q-23 -21 -35.5 -61.5t-12.5 -79.5q0 -43 20 -66q18 -20 47 -20zM528 -10q-50 0 -83 31q-37 37 -37 99q0 43 19 86.5t52 72.5q45 38 102 38q56 0 88 -35q32 -36 32 -98
q0 -40 -18 -82.5t-52 -72.5q-43 -39 -103 -39zM537 29q35 0 57 25q18 19 31 56.5t13 79.5t-15 64q-18 24 -49 24q-33 0 -55 -21q-23 -22 -35.5 -62.5t-12.5 -79.5q0 -44 19 -66q18 -20 47 -20z" />
    <glyph glyph-name="ampersand" unicode="&#x26;" horiz-adv-x="670" 
d="M556 44l71 -1q-3 -23 -9 -43q-119 -6 -127 -6q-7 11 -26.5 41.5t-28.5 44.5q-28 -22 -44.5 -33.5t-46 -27t-63 -22.5t-74.5 -7q-88 0 -136 41q-54 46 -54 120q0 64 45.5 121t125.5 88l1 4q-72 56 -72 130q0 70 60 120q51 41 129 41q68 0 105 -37t37 -92
q0 -53 -38.5 -97.5t-110.5 -75.5v-4q97 -87 159 -183q52 63 64 147q2 11 -6 11l-58 2q3 20 8 43h100q14 0 42.5 0.5t41.5 0.5q-5 -32 -7 -44l-54 -2q-27 -118 -104 -196q34 -51 44 -67q12 -17 26 -17zM189 502q0 -27 10.5 -49t22.5 -35t38 -37q121 47 121 141q0 39 -22 63
q-22 25 -61 25q-47 0 -75 -27q-34 -32 -34 -81zM94 162q0 -58 37 -91q37 -32 95 -32q100 0 183 81q-95 140 -186 208q-129 -58 -129 -166z" />
    <glyph glyph-name="quotesingle" unicode="'" horiz-adv-x="175" 
d="M188 698q-1 -5 -21.5 -95.5t-26.5 -117.5q-13 -4 -48 -4q11 114 19 207q26 10 77 10z" />
    <glyph glyph-name="parenleft" unicode="(" horiz-adv-x="334" 
d="M57 188q0 156 90 304.5t222 220.5q11 -17 17 -37q-98 -60 -177.5 -198t-79.5 -297q0 -102 29.5 -169.5t81.5 -123.5q-12 -15 -29 -32q-70 63 -112 139.5t-42 192.5z" />
    <glyph glyph-name="parenright" unicode=")" horiz-adv-x="334" 
d="M289 383q0 -163 -91 -308.5t-220 -218.5q-2 5 -6.5 12t-7.5 13l-6 12q46 30 89 76.5t82.5 108.5t63.5 144t24 168q0 182 -112 292q18 22 28 32q67 -53 111.5 -136t44.5 -195z" />
    <glyph glyph-name="asterisk" unicode="*" horiz-adv-x="360" 
d="M198 574l16 125q25 2 46 0l-26 -125l109 73q10 -13 23 -40l-121 -66l100 -70q-11 -19 -29 -37l-93 79l-17 -129q-25 -2 -46 1l27 127l-107 -73q-15 24 -22 41l120 65l-102 69q17 23 29 36z" />
    <glyph glyph-name="plus" unicode="+" horiz-adv-x="512" 
d="M227 262v186q29 3 57 3q-1 -28 -1.5 -92t-0.5 -96q31 0 89 0.5t84 0.5q2 -24 -2 -56h-171q0 -36 -0.5 -103t-0.5 -93q-24 -3 -54 -3v199h-171q0 19 2 53q25 0 81.5 0.5t87.5 0.5z" />
    <glyph glyph-name="comma" unicode="," horiz-adv-x="244" 
d="M148 28q0 -52 -36 -96.5t-87 -71.5q-13 16 -24 32q74 48 74 93q0 28 -40 39q1 31 19.5 50.5t41.5 19.5q21 0 36.5 -19.5t15.5 -46.5z" />
    <glyph glyph-name="hyphen" unicode="-" horiz-adv-x="300" 
d="M139 214h-110q3 23 8 53h108q21 0 61 0.5t60 1.5q-2 -15 -9 -55h-118z" />
    <glyph glyph-name="period" unicode="." horiz-adv-x="244" 
d="M96 99q27 0 39.5 -17t12.5 -36q0 -23 -16 -39t-39 -16q-24 0 -38 14.5t-14 37.5q0 21 15 38.5t40 17.5z" />
    <glyph glyph-name="slash" unicode="/" horiz-adv-x="394" 
d="M3 -54q-19 10 -42 26q125 203 229 376q9 15 201 336q30 -18 46 -30q-35 -57 -117.5 -192.5t-84.5 -139.5q-73 -118 -232 -376z" />
    <glyph glyph-name="zero" unicode="0" horiz-adv-x="512" 
d="M488 432q0 -121 -38 -227t-100 -160q-64 -55 -145 -55q-70 0 -115 49q-48 52 -48 168q0 110 35 214.5t96 162.5q66 62 151 62q79 0 123 -56q41 -54 41 -158zM309 600q-47 0 -87 -40q-45 -47 -74 -152.5t-29 -211.5q0 -72 22 -115q23 -45 79 -45q48 0 84 38
q48 48 77.5 153.5t29.5 210.5q0 78 -20 115q-28 47 -82 47z" />
    <glyph glyph-name="one" unicode="1" horiz-adv-x="512" 
d="M47 46l141 3q5 0 5 5q39 222 84 493q-8 -2 -70 -16t-102 -23q0 2 -2.5 19t-3.5 25q52 16 118 39.5t106.5 39t42.5 15.5q3 0 2 -5q-12 -70 -104 -591l153 -3q-2 -19 -8 -47h-190q-29 0 -89 -0.5t-91 -0.5q2 15 8 47z" />
    <glyph glyph-name="two" unicode="2" horiz-adv-x="512" 
d="M172 557l-25 -95q-13 0 -53 5q13 78 26 143q78 36 165 36q96 0 143 -50q42 -44 42 -115q0 -40 -18 -83t-38.5 -72.5t-59 -68t-54 -52t-49.5 -41.5q-66 -58 -132 -104v-5q95 0 310 5h2q-5 -31 -13 -61q-10 0 -111 0.5t-144 0.5h-139q-6 20 -11 41q115 87 192 157
q41 36 67 60.5t57.5 62t47 76.5t15.5 80q0 46 -23 79q-29 40 -92 40q-59 0 -97 -27q-5 -4 -8 -12z" />
    <glyph glyph-name="three" unicode="3" horiz-adv-x="512" 
d="M312 341l-1 -5q64 -12 97.5 -51t33.5 -92q0 -97 -90 -157q-65 -46 -185 -46q-93 0 -135 14q-1 26 -2 76t-1 66q22 5 53 7l13 -90q2 -8 6 -11q29 -13 82 -13q78 0 124 34q54 40 54 114q0 53 -40 85t-108 32h-59q1 7 2 15.5t2 19t2 16.5q104 -2 167.5 38.5t63.5 105.5
q0 39 -22 66q-26 32 -94 32q-22 0 -49.5 -6t-40.5 -16q-7 -7 -8 -11l-24 -90q-23 1 -54 5q16 90 25 134q70 33 165 33q98 0 141 -44q39 -39 39 -96q0 -61 -44 -103.5t-113 -61.5z" />
    <glyph glyph-name="four" unicode="4" horiz-adv-x="512" 
d="M186 43l87 3q6 0 6 4q10 51 22 123q-22 0 -139 -0.5t-126 -0.5q-13 39 -18 59q17 19 75.5 85t95.5 108q41 45 110 121.5t89 97.5q34 0 65 -3q-9 -51 -34.5 -195t-39.5 -221q24 0 60.5 0.5t46.5 0.5q-3 -26 -11 -51h-105q-7 -42 -23 -128l84 -3q-3 -23 -9 -43h-122
q-22 0 -64 -0.5t-59 -0.5q6 30 9 44zM309 224l61 324l-6 1q-127 -144 -144 -163q-20 -24 -65.5 -77t-66.5 -77q-5 -7 2 -7q50 -1 219 -1z" />
    <glyph glyph-name="five" unicode="5" horiz-adv-x="512" 
d="M85 150l13 -89q0 -7 6 -11q26 -11 71 -11q83 0 132 42q61 51 61 139q0 59 -43 94t-122 35q-66 0 -102 -9l-6 7q29 112 76 288h160q113 0 165 1q-5 -34 -14 -62q-39 0 -128 0.5t-138 0.5q-32 -111 -47 -171q43 5 69 5q100 0 152.5 -52.5t52.5 -122.5q0 -61 -28.5 -111.5
t-68.5 -79.5q-75 -53 -190 -53q-77 0 -118 12q-3 60 -6 140q30 5 53 8z" />
    <glyph glyph-name="six" unicode="6" horiz-adv-x="512" 
d="M137 316h5q76 70 160 70q70 0 112 -47q40 -47 40 -111q0 -62 -25 -112t-65 -80q-58 -46 -138 -46t-128 55q-49 56 -49 152q0 114 36.5 208t89.5 152q83 89 206 89q52 0 90 -13q0 -42 -2 -132q-6 -1 -24 -3.5t-28 -3.5l-10 82q0 8 -4 11q-15 10 -51 10t-70.5 -18.5
t-56.5 -47.5q-57 -73 -88 -215zM277 331q-35 0 -76 -21.5t-70 -62.5q-17 -104 18 -165q10 -18 33 -33t54 -15q50 0 89 37q53 50 53 144q0 45 -23 80q-24 36 -78 36z" />
    <glyph glyph-name="seven" unicode="7" horiz-adv-x="512" 
d="M434 569l-2 4q-233 2 -256 0q-23 -3 -30 -22l-27 -79q-24 3 -50 8q26 104 40 155h85l304 -1q5 -18 12 -58q-143 -203 -264 -456q-22 -47 -35 -118q-22 -3 -80 -3q13 75 41 127q101 187 262 443z" />
    <glyph glyph-name="eight" unicode="8" horiz-adv-x="512" 
d="M22 143q0 61 44.5 111.5t120.5 83.5l1 4q-83 49 -83 127q0 43 23.5 80t52.5 57q57 40 136 40q81 0 124 -43q41 -38 41 -91q0 -113 -137 -173v-4q56 -24 86.5 -62t30.5 -84q0 -100 -94 -160q-59 -39 -154 -39q-87 0 -140 44q-52 40 -52 109zM177 478q0 -42 24.5 -66.5
t93.5 -51.5q59 25 88 58t29 82q0 38 -20 65q-11 16 -34.5 26t-47.5 10q-55 0 -89 -28q-44 -35 -44 -95zM388 175q0 49 -36 80.5t-117 59.5q-59 -23 -98.5 -66t-39.5 -97q0 -48 28 -79q36 -38 99 -38q62 0 105 30q59 41 59 110z" />
    <glyph glyph-name="nine" unicode="9" horiz-adv-x="512" 
d="M50 131q15 3 52 7l14 -82q3 -8 8 -11q13 -8 49 -8q80 0 134 65q25 29 42.5 70.5t24.5 70.5t16 75h-4q-81 -63 -157 -63q-35 0 -66 14.5t-49 34.5q-40 47 -40 118q0 52 27 101t71 81q56 42 131 42q82 0 128 -57q47 -53 47 -151q0 -121 -37.5 -219.5t-85.5 -146.5
q-83 -82 -205 -82q-51 0 -92 8q-6 88 -8 133zM251 306q77 0 144 74q20 108 -17 173q-26 49 -83 49q-54 0 -87 -33q-58 -58 -58 -142q0 -51 21 -82q12 -18 34.5 -28.5t45.5 -10.5z" />
    <glyph glyph-name="colon" unicode=":" horiz-adv-x="244" 
d="M152 415q28 0 40 -16.5t12 -36.5q0 -22 -16 -38t-38 -16q-24 0 -38.5 14.5t-14.5 36.5q0 21 15 38.5t40 17.5zM96 98q28 0 39.5 -16.5t11.5 -36.5q0 -23 -15.5 -38.5t-38.5 -15.5q-24 0 -38 14.5t-14 36.5t15 39t40 17z" />
    <glyph glyph-name="semicolon" unicode=";" horiz-adv-x="244" 
d="M152 415q28 0 40 -16.5t12 -36.5q0 -22 -16 -38t-38 -16q-24 0 -38.5 14t-14.5 37q0 21 15 38.5t40 17.5zM96 94q21 0 36.5 -19.5t15.5 -46.5q0 -52 -36 -96.5t-87 -71.5q-13 16 -24 32q74 48 74 93q0 28 -40 39q1 31 19.5 50.5t41.5 19.5z" />
    <glyph glyph-name="less" unicode="&#x3c;" horiz-adv-x="512" 
d="M170 238q89 -75 234 -194q-15 -24 -31 -41q-98 77 -271 210q-1 15 -1 47q261 192 274 201q17 -21 30 -42q-171 -130 -235 -181z" />
    <glyph glyph-name="equal" unicode="=" horiz-adv-x="512" 
d="M60 283q0 37 1 53q210 0 399 3q0 -22 -2 -56h-398zM59 133q0 25 2 55q276 0 398 1q0 -35 -1 -53q-212 0 -399 -3z" />
    <glyph glyph-name="greater" unicode="&#x3e;" horiz-adv-x="512" 
d="M348 234q-165 135 -235 190q16 25 31 40q37 -27 272 -205q2 -21 0 -47q-225 -170 -272 -205q-15 15 -31 40q51 40 235 187z" />
    <glyph glyph-name="question" unicode="?" horiz-adv-x="430" 
d="M432 526q0 -65 -45 -122t-142 -114q-31 -20 -31 -45q-1 -24 5 -72q-22 -9 -53 -15q-22 44 -22 106q0 8 2 22q52 33 80.5 53.5t61 50.5t46.5 60.5t14 65.5q0 43 -25 67.5t-70 24.5q-44 0 -71 -17q-6 -5 -10 -12l-28 -88q-23 3 -54 8q3 14 14 61t17 72q69 28 151 28
q80 0 119.5 -39t40.5 -95zM168 89q47 0 47 -50q0 -20 -17 -34t-39 -14t-34.5 12t-12.5 30q0 23 17 39.5t39 16.5z" />
    <glyph glyph-name="at" unicode="@" horiz-adv-x="621" 
d="M381 30q9 -13 13 -31q-68 -40 -162 -40q-84 0 -142 51t-58 145q0 60 25 121.5t69 113t112 84t145 32.5q92 0 147 -50t55 -136q0 -112 -73 -174q-56 -48 -141 -48q-16 0 -30 18q1 9 10 50l-5 2q-73 -69 -120 -69q-11 0 -32 12t-28 25q-3 8 -3 20q0 38 15 86q17 49 53.5 89
t83.5 40q43 0 74 -28h4l16 30q8 -1 46 -11q-31 -116 -56 -219q-2 -8 7 -8q44 5 77 35q53 51 53 144q0 70 -42.5 113.5t-128.5 43.5q-79 0 -145 -47.5t-101.5 -119t-35.5 -146.5q0 -81 47.5 -122t118.5 -41q75 0 132 35zM226 168q0 -22 22 -22q21 0 62 33t52 57q5 15 18 67
q-22 28 -61 28q-48 0 -77 -78q-16 -45 -16 -85z" />
    <glyph glyph-name="A" unicode="A" horiz-adv-x="585" 
d="M-48 46l53 3q3 0 8 5q56 100 173.5 318t154.5 286q20 2 53 2q20 -104 61 -328.5t52 -282.5l60 -3q-3 -25 -9 -46h-91q-23 0 -66.5 -0.5t-61.5 -0.5q2 19 8 47l79 3q4 0 4 6q-3 14 -8 44.5t-9.5 55t-8.5 43.5q0 5 -6 5l-241 -2q-17 -31 -77 -152l89 -3q-1 -8 -4 -23
t-4 -23h-132q-15 0 -44 -0.5t-42 -0.5q8 44 9 47zM345 549h-7q-15 -29 -70.5 -135t-83.5 -158q-3 -5 2 -5l210 -1q-7 38 -24.5 143t-26.5 156z" />
    <glyph glyph-name="B" unicode="B" horiz-adv-x="560" 
d="M108 649q86 2 175 2q115 0 169 -29q32 -18 48.5 -48.5t16.5 -62.5q0 -56 -41.5 -100t-99.5 -63v-6q62 -12 96 -50t34 -87q0 -89 -77.5 -147.5t-197.5 -58.5q-14 0 -62 0.5t-57 0.5h-115q1 7 4 22.5t4 22.5l69 3q7 0 8 7l92 546l-75 2q3 16 9 46zM248 602l-40 -240
q14 -2 51 -2q71 0 125.5 38t54.5 100q0 46 -32.5 77t-101.5 31q-37 0 -57 -4zM199 313l-40 -231q-4 -22 12.5 -30t67.5 -8q76 0 131 40t55 110q0 46 -36.5 83.5t-127.5 37.5q-53 0 -62 -2z" />
    <glyph glyph-name="C" unicode="C" horiz-adv-x="572" 
d="M507 464l3 111q0 11 -5 14q-26 16 -82 16q-93 0 -160 -61q-61 -53 -93 -128.5t-32 -150.5q0 -96 38 -149q21 -31 60 -50.5t87 -19.5q64 0 176 38q3 -22 3 -50q-125 -44 -197 -44q-105 0 -176 66q-73 67 -73 196q0 103 50 193t123 144q96 71 225 71q81 0 125 -22
q-4 -29 -10.5 -86t-10.5 -86q-8 -1 -25.5 -1.5t-25.5 -0.5z" />
    <glyph glyph-name="D" unicode="D" horiz-adv-x="668" 
d="M112 649q106 2 199 2q143 0 223 -57q51 -36 75 -94.5t24 -120.5q0 -98 -44.5 -184t-116.5 -135q-89 -61 -240 -61q-21 0 -64.5 0.5t-53.5 0.5q-17 0 -55.5 -0.5t-57.5 -0.5q3 21 8 47l66 2q7 0 7 7l93 545l-72 3q1 5 4 21.5t5 24.5zM251 601l-91 -517q-4 -23 10.5 -31
t69.5 -8q131 0 201 61q46 40 78 107.5t32 158.5q0 106 -55 166q-64 67 -188 67q-40 0 -57 -4z" />
    <glyph glyph-name="E" unicode="E" horiz-adv-x="532" 
d="M9 46l68 3q4 0 6 4l91 548l-73 2q6 32 9 47h113h216h81q-13 -109 -19 -154q-26 -2 -45 -2l1 85q0 16 -22 19q-52 4 -177 4q-8 0 -9 -4l-41 -243q27 0 79.5 0.5t78.5 1.5q25 1 29 20l13 48q24 1 46 0q-7 -43 -17 -95q-14 -82 -16 -94q-15 -1 -47 -1l5 50q1 13 -4 17.5
t-20 4.5q-47 1 -156 1l-40 -241q-2 -13 6.5 -16.5t46.5 -3.5q123 0 157 8q14 3 23 20l44 91q21 -4 43 -13q-44 -129 -53 -154q-15 0 -124 0.5t-186 0.5q-21 0 -60 -0.5t-56 -0.5q6 32 9 47z" />
    <glyph glyph-name="F" unicode="F" horiz-adv-x="521" 
d="M11 46l66 3q5 0 6 6l92 546l-71 2q6 32 10 47h111h215q38 1 81 1q-10 -109 -17 -160q-8 -1 -24 -2t-24 -1l-2 91q0 17 -21 19q-50 4 -160 4q-4 0 -11.5 -0.5t-10.5 -0.5l-46 -260q59 0 155 2q24 0 30 20l14 50q32 0 47 -1q-2 -11 -9 -46t-10 -54q-8 -51 -17 -92
q-15 -1 -48 -1l6 52q1 12 -4 16.5t-20 4.5q-84 2 -152 2l-42 -245l115 -3q-4 -26 -9 -46h-144q-21 0 -59.5 -0.5t-55.5 -0.5q2 7 4.5 23t4.5 24z" />
    <glyph glyph-name="G" unicode="G" horiz-adv-x="640" 
d="M606 233l-50 -2q-5 0 -5 -4l-36 -202q-53 -35 -183 -35q-129 0 -204 75q-72 73 -72 191q0 104 51 196t126 142q100 66 234 66q95 0 140 -32q-6 -54 -20 -162l-51 -3l4 101q0 12 -7 18q-31 27 -100 27q-98 0 -172 -62q-52 -43 -87 -119.5t-35 -164.5q0 -94 40 -145
q62 -81 179 -81q26 0 47.5 4t32 9.5t11.5 10.5l27 170l-104 3q2 19 8 47h143h92q-3 -24 -9 -48z" />
    <glyph glyph-name="H" unicode="H" horiz-adv-x="714" 
d="M12 46l65 3q5 0 6 6l91 546l-70 3q3 16 9 46h113h118q-2 -18 -8 -46l-83 -3q-3 0 -3 -4l-39 -230q0 -4 5 -4h319l40 238l-84 2q2 19 8 47h124q19 0 54.5 0.5t49.5 0.5q-4 -29 -7 -47l-66 -3q-4 0 -4 -4l-95 -548l74 -3q-2 -18 -8 -46h-111q-20 0 -61 -0.5t-59 -0.5
q1 7 3.5 23t4.5 24l80 3q4 0 5 6l43 255q0 4 -4 4l-320 -1l-47 -264l90 -3q-2 -15 -8 -47q-17 0 -59.5 0.5t-63.5 0.5q-18 0 -56.5 -0.5t-54.5 -0.5q6 32 9 47z" />
    <glyph glyph-name="I" unicode="I" horiz-adv-x="313" 
d="M9 46l68 3q4 0 6 5l92 547l-78 3q1 8 5 23t5 23h120h112q-3 -22 -10 -46l-76 -3q-3 0 -3 -4l-95 -548l85 -3q-4 -30 -10 -47q-15 0 -55 0.5t-60 0.5q-19 0 -58.5 -0.5t-56.5 -0.5q2 7 4.5 23t4.5 24z" />
    <glyph glyph-name="J" unicode="J" horiz-adv-x="482" 
d="M504 606l-70 -3q-3 0 -3 -4q-42 -277 -52 -343q-22 -138 -73 -195q-70 -75 -188 -75q-70 0 -112 17q4 108 7 153q23 4 50 4l5 -97q0 -10 6 -12q23 -15 63 -15q71 0 114 50q35 41 52 157q4 25 52 359l-121 4q2 13 9 44h164h106q-4 -25 -9 -44z" />
    <glyph glyph-name="K" unicode="K" horiz-adv-x="611" 
d="M13 46l64 3q3 0 5 4l92 548l-70 3q1 5 4 21.5t5 24.5h113h104q-4 -29 -9 -47l-68 -2q-4 0 -4 -6l-43 -240q42 0 67 7q33 27 107 103.5t119 130.5q4 4 -2 4l-63 3q6 32 9 47h129h72q-4 -26 -9 -46l-49 -3q-143 -149 -255 -253l-1 -5q50 -33 90 -133q43 -99 62 -136
q12 -25 30 -25l71 -3q-2 -8 -5 -24.5t-4 -21.5q-25 -1 -80 -1q-28 -2 -59 -2q-24 38 -78 173q-55 138 -100 138q-46 0 -59 -1l-44 -258l83 -3q-1 -5 -3 -14.5t-3.5 -17.5t-3.5 -15q-15 0 -54.5 0.5t-59.5 0.5q-19 0 -56 -0.5t-52 -0.5q5 26 8 47z" />
    <glyph glyph-name="L" unicode="L" horiz-adv-x="513" 
d="M11 46l67 3q4 0 4 4l96 548l-72 2q6 32 10 47h114h121q-4 -26 -9 -47l-86 -2q-2 0 -4 -4l-94 -529q-2 -14 3.5 -17.5t35.5 -3.5q135 0 160 6q13 4 22 21l51 105q29 -5 47 -12q-32 -93 -62 -168q-14 0 -118.5 0.5t-180.5 0.5q-21 0 -59.5 -0.5t-54.5 -0.5q1 6 9 47z" />
    <glyph glyph-name="M" unicode="M" horiz-adv-x="830" 
d="M163 600l-69 2l9 48h168q40 -202 115 -543h5q62 107 177 321t119 222h164q-2 -16 -8 -48l-62 -2q-5 -2 -5 -6q-16 -96 -50 -302.5t-40 -242.5l71 -3q-4 -32 -8 -46h-108q-20 0 -58 -0.5t-53 -0.5q2 8 5 23.5t4 23.5l73 3q7 0 7 5q16 90 47 279t38 228h-8
q-192 -364 -307 -550q-8 -1 -44 -1q-47 175 -123 554h-7q-15 -87 -91 -515l88 -3q-3 -25 -9 -46h-120q-18 0 -49 -0.5t-44 -0.5q2 8 4.5 23.5t3.5 23.5l65 3q4 0 6 5q74 421 94 546z" />
    <glyph glyph-name="N" unicode="N" horiz-adv-x="697" 
d="M4 46l63 2q5 1 7 6l92 547l-74 3q3 16 9 46h141q16 -33 118.5 -243t147.5 -304l6 1q8 50 79 497l-95 2q2 8 5 23.5t4 23.5h125h93q-2 -12 -8 -46l-60 -2q-4 -1 -5 -6l-102 -594q-20 -8 -52 -8q-127 221 -278 549h-7q-22 -137 -83 -494l99 -2q-3 -25 -9 -47h-131
q-17 0 -49 -0.5t-45 -0.5q8 45 9 47z" />
    <glyph glyph-name="O" unicode="O" horiz-adv-x="703" 
d="M669 394q0 -103 -42.5 -191t-105.5 -140q-90 -73 -216 -73q-106 0 -175 67q-73 70 -73 197q0 105 46 196t113 141q87 69 209 69q105 0 170 -65q74 -74 74 -201zM139 254q0 -98 48 -157q49 -58 136 -58q90 0 151 58q48 43 80.5 119.5t32.5 177.5q0 98 -45 156
q-45 61 -133 61q-89 0 -158 -63q-45 -44 -78.5 -119t-33.5 -175z" />
    <glyph glyph-name="P" unicode="P" horiz-adv-x="539" 
d="M15 46l62 3q5 2 5 6l93 546l-68 2q2 7 5 23t5 23q88 2 157 2q96 0 149 -20q51 -20 75.5 -61t24.5 -91q0 -71 -42 -126.5t-98 -76.5q-61 -24 -145 -24q-13 0 -30 0.5t-20 0.5l-35 -203l111 -3q-4 -27 -9 -47h-145q-72 0 -104 -1q6 32 9 47zM249 601l-51 -290q0 -9 52 -9
q66 0 110 22q85 42 85 150q0 60 -37 95t-113 35q-39 0 -46 -3z" />
    <glyph glyph-name="Q" unicode="Q" horiz-adv-x="702" 
d="M58 254q0 110 47 200.5t115 140.5q87 65 203 65q89 0 147 -43q49 -35 74 -95t25 -130q0 -97 -40 -183.5t-99 -135.5q-59 -50 -126 -69l-1 -5q76 -55 133 -79q30 -13 72 -13q34 0 78 12q5 -18 7 -46q-82 -28 -135 -28q-29 0 -69 22q-75 42 -161 123h-19q-119 0 -187 77
q-64 72 -64 187zM140 261q0 -105 47 -163q47 -59 137 -59q92 0 161 69q102 102 102 286q0 98 -48 160q-43 57 -131 57q-87 0 -153 -59q-50 -46 -82.5 -125t-32.5 -166z" />
    <glyph glyph-name="R" unicode="R" horiz-adv-x="580" 
d="M12 46l63 3q5 0 7 5l92 546l-70 3q2 16 8 46q90 2 156 2q107 0 157 -18q50 -16 76 -55t26 -84q0 -66 -47 -118t-115 -72l-1 -5q8 -3 14.5 -7.5t12.5 -11.5t10.5 -13t9.5 -17t8.5 -18.5t9 -23t8.5 -24.5t9.5 -29t10.5 -31q17 -46 27 -60t24 -15l53 -2q-3 -22 -9 -47
q-44 0 -64 -1h-60q-16 25 -47.5 116.5t-37.5 106.5q-14 32 -33 44.5t-58 12.5q-49 0 -59 -2l-39 -227l82 -4q-3 -20 -9 -47q-33 1 -117 1q-75 0 -106 -1q1 6 3.5 22t4.5 25zM249 601l-47 -274q6 -3 54 -3q89 0 140 47.5t51 113.5q0 55 -36 87.5t-102 32.5q-42 0 -60 -4z" />
    <glyph glyph-name="S" unicode="S" horiz-adv-x="488" 
d="M402 484l-2 90q0 8 -4 14q-20 21 -78 21q-65 0 -100 -30q-47 -41 -47 -97q0 -41 21.5 -61t86.5 -53q11 -6 17 -9q69 -35 99 -71.5t30 -89.5q0 -95 -76 -157q-62 -51 -178 -51q-97 0 -149 29q10 101 16 156q16 3 50 3l1 -102q0 -9 6 -13q29 -22 93 -22q81 0 122 37
q42 36 42 100q0 25 -7.5 43t-28 34.5t-37.5 27t-54 29.5q-64 34 -95 69.5t-31 87.5q0 90 81 147q65 44 162 44q83 0 123 -26q-6 -74 -15 -147z" />
    <glyph glyph-name="T" unicode="T" horiz-adv-x="558" 
d="M122 46l79 3q3 0 5 4l92 547q-108 0 -137 -3q-22 -2 -28 -19l-29 -96q-20 0 -50 4q22 110 34 165q10 0 41 -0.5t52 -0.5h167h168q15 0 33 0.5t29.5 1t20.5 0.5q-15 -118 -22 -166q-7 0 -23.5 -1.5t-25.5 -2.5l2 97q0 9 -4 13.5t-17 5.5q-34 2 -135 2l-95 -551l96 -3
q-4 -29 -9 -47q-18 0 -62 0.5t-65 0.5t-63 -0.5t-62 -0.5q2 19 8 47z" />
    <glyph glyph-name="U" unicode="U" horiz-adv-x="647" 
d="M677 604l-64 -4l-58 -335q-24 -142 -100 -212q-67 -63 -172 -63q-104 0 -155 58q-35 39 -42 95t7 120l57 338l-65 2q3 17 9 47h105h123q-1 -3 -4 -20.5t-5 -26.5l-83 -2q-3 -1 -5 -6l-57 -326q-20 -122 14 -173q35 -53 111 -53q72 0 123 47q54 49 76 171q4 22 25 149
t30 186q0 5 -4 5l-83 2q7 39 9 47h115q19 0 53 0.5t48 0.5q-4 -30 -8 -47z" />
    <glyph glyph-name="V" unicode="V" horiz-adv-x="594" 
d="M655 604l-55 -3q-24 -44 -74 -138.5t-73 -136.5q-93 -173 -188 -336q-5 0 -25.5 -0.5t-29.5 -0.5q-33 149 -66 348q-16 96 -42 260q0 4 -4 4l-56 3q1 7 3.5 22.5t4.5 23.5h99h137q-4 -32 -8 -46l-97 -4q16 -128 32 -229q33 -209 46 -284h7q23 41 47.5 87.5t52 98.5
t40.5 77q71 140 119 244q2 7 -3 7l-86 2q2 19 8 47h130h88q-4 -30 -7 -46z" />
    <glyph glyph-name="W" unicode="W" horiz-adv-x="843" 
d="M287 603l-92 -2q-2 -90 3 -225q0 -12 2 -111.5t4 -159.5h7q9 17 251 516q18 2 53 2q7 -61 25.5 -245t29.5 -277h7q72 178 104 257q52 135 87 237q2 6 -2 6l-89 3q1 4 4.5 20.5t5.5 25.5h132q59 0 84 1q-4 -27 -9 -47l-51 -3q-16 -38 -54.5 -129.5t-59.5 -141.5
q-91 -212 -152 -339q-10 -1 -55 -1q-31 199 -60 497h-6q-132 -274 -252 -496q-11 -1 -56 -1q-13 174 -21 355q-2 42 -5.5 126.5t-5.5 125.5q0 4 -5 4l-58 3q1 8 4.5 23t4.5 23h98h137q-2 -15 -10 -47z" />
    <glyph glyph-name="X" unicode="X" horiz-adv-x="590" 
d="M-33 46l53 3q3 0 10 5q58 66 234 272l2 8q-11 23 -54.5 117.5t-67.5 145.5q-2 4 -6 4l-60 3q1 5 4 21.5t5 24.5h98h132q-4 -26 -9 -46l-83 -4q52 -127 93 -217h7q116 142 162 212q2 6 -3 6l-78 3q2 7 5 23t4 23h129h86q-4 -26 -9 -46l-53 -3q-107 -133 -221 -262l-2 -6
q81 -176 134 -284l67 -3q-7 -34 -10 -46h-96h-132q2 8 5 23t4 23l74 3q7 0 5 7q-2 3 -45 99t-57 125h-6q-27 -31 -92 -113.5t-91 -117.5l82 -3q-9 -43 -10 -46h-132q-15 0 -44.5 -0.5t-42.5 -0.5q1 6 9 47z" />
    <glyph glyph-name="Y" unicode="Y" horiz-adv-x="533" 
d="M106 46l75 3q7 0 7 6l33 197q-38 102 -126 345q-2 4 -6 4l-51 3q1 5 4 21.5t5 24.5h90h134q-4 -26 -9 -46l-86 -4q44 -134 97 -291h7q143 204 192 287q1 2 0.5 3.5t-2.5 1.5l-80 2q1 6 9 47h127q13 0 41 0.5t39 0.5q-4 -27 -9 -47l-48 -3q-7 -10 -106.5 -148t-146.5 -202
l-35 -202l91 -3q-1 -5 -3 -14.5t-3.5 -17.5t-3.5 -15q-17 0 -59.5 0.5t-63.5 0.5q-19 0 -61 -0.5t-62 -0.5q8 38 10 47z" />
    <glyph glyph-name="Z" unicode="Z" horiz-adv-x="555" 
d="M455 191q22 -3 50 -10q-20 -68 -61 -182q-4 0 -51.5 0.5t-113.5 0.5h-113h-167q-7 19 -12 45q73 80 267 302t215 246l-1 5q-243 2 -264 -3q-17 -4 -25 -23l-38 -106q-48 8 -50 9q43 156 49 176q5 0 37.5 -0.5t51.5 -0.5h319q6 -22 12 -57q-325 -375 -479 -537l2 -4
q257 0 299 9q22 5 31 27z" />
    <glyph glyph-name="bracketleft" unicode="[" horiz-adv-x="317" 
d="M116 -82l121 -3q-5 -35 -8 -45q-29 0 -92 0.5t-92 1.5l142 829q114 2 184 2q-5 -32 -8 -44l-113 -3q-7 0 -7 -8z" />
    <glyph glyph-name="backslash" unicode="\" horiz-adv-x="541" 
d="M464 -54q-12 19 -100.5 165t-128.5 211q-92 156 -198 332q19 13 47 30q182 -310 198 -336q146 -246 225 -376q-23 -16 -43 -26z" />
    <glyph glyph-name="bracketright" unicode="]" horiz-adv-x="317" 
d="M-34 -85l121 3l131 731q0 8 -5 8l-112 2q4 30 7 44q72 0 184 -2l-151 -829q-114 -2 -183 -2q1 8 4 23t4 22z" />
    <glyph glyph-name="asciicircum" unicode="^" horiz-adv-x="512" 
d="M440 329q-51 72 -166 229q-16 -23 -72 -101.5t-90 -126.5q-32 22 -42 30q37 54 99 147.5t83 124.5q14 1 46 1q1 -2 72 -108.5t111 -164.5q-17 -14 -41 -31z" />
    <glyph glyph-name="underscore" unicode="_" horiz-adv-x="500" 
d="M-45 -73h500v-54h-500v54z" />
    <glyph glyph-name="grave" unicode="`" horiz-adv-x="458" 
d="M194 637q25 -22 138 -133q-13 -17 -27 -29q-5 4 -64 50.5t-89 69.5q20 23 42 42z" />
    <glyph glyph-name="a" unicode="a" horiz-adv-x="461" 
d="M291 117l-6 2q-118 -131 -189 -131q-18 3 -38.5 17.5t-31.5 34.5q-9 16 -9 40q0 65 32 150q28 77 79.5 138.5t115.5 61.5q56 0 99 -49h6l22 53q24 -7 55 -17q-50 -167 -93 -370q0 -6 5 -6q14 0 68 18q6 -21 9 -42q-68 -26 -123 -26q-3 0 -13 8.5t-13 16.5q2 11 25 101z
M245 376q-35 0 -65.5 -35.5t-50.5 -85.5q-38 -89 -38 -165q0 -21 9 -32.5t23 -11.5q34 0 98.5 60.5t79.5 100.5q10 30 31 120q-34 49 -87 49z" />
    <glyph glyph-name="b" unicode="b" horiz-adv-x="466" 
d="M149 291l6 -2q109 142 200 142q41 -7 67 -54q8 -18 8 -43q0 -44 -15 -105.5t-43 -112.5q-28 -52 -72.5 -89t-104.5 -37q-56 0 -104 50l-25 -53q-22 5 -52 14q16 60 83 339t72 298l-86 -5q-1 7 -2.5 20.5t-2.5 20.5q39 6 74.5 12.5t53 10t19.5 3.5q5 0 13 -7.5t12 -14.5
q-5 -19 -46 -177.5t-55 -209.5zM194 39q69 0 116 89q22 41 34 95.5t12 97.5q0 20 -9 34t-25 14q-43 0 -110 -68.5t-83 -117.5q-9 -27 -22 -87q11 -23 37 -40t50 -17z" />
    <glyph glyph-name="c" unicode="c" horiz-adv-x="360" 
d="M21 121q0 52 22.5 117.5t67.5 114.5q71 77 170 77q45 0 71 -19q-2 -14 -16.5 -35t-24.5 -27q-48 24 -73 24q-46 0 -77 -43q-27 -36 -45.5 -91.5t-18.5 -103.5q0 -91 76 -91q43 0 123 34q7 -16 12 -39q-96 -49 -160 -49q-50 0 -88.5 34.5t-38.5 96.5z" />
    <glyph glyph-name="d" unicode="d" horiz-adv-x="478" 
d="M303 120l-6 2q-54 -63 -107 -98t-88 -36q-20 2 -41 16.5t-33 35.5q-10 16 -10 40q0 64 33 153q29 77 81 137t120 60q56 0 101 -36h5q9 40 55 241l-89 -4q-2 30 -2 42q36 5 71 11.5t53.5 11t20.5 4.5q11 0 26 -22q-5 -22 -40 -171.5t-67 -288t-39 -171.5q-2 -6 5 -6
q17 0 62 16q6 -20 9 -41q-66 -25 -117 -25q-4 0 -14.5 8.5t-13.5 16.5q1 7 4.5 21t9.5 38.5t11 44.5zM129 46q40 0 107.5 64.5t79.5 105.5q20 81 28 121q-32 39 -89 39q-40 0 -73.5 -36.5t-54.5 -90.5q-35 -89 -35 -156q0 -47 37 -47z" />
    <glyph glyph-name="e" unicode="e" horiz-adv-x="404" 
d="M22 108q0 53 24.5 122t70.5 121q69 79 150 79q50 0 79 -32.5t30 -73.5q-4 -27 -19 -53.5t-36 -37.5q-72 -38 -211 -38q-13 -45 -13 -77q0 -35 18 -54.5t50 -19.5q64 0 158 53q6 -13 16 -39q-111 -68 -200 -68q-44 0 -80.5 31.5t-36.5 86.5zM247 382q-43 0 -78 -43
q-33 -46 -49 -101q89 -2 142 25q41 20 41 55q0 26 -14.5 45t-41.5 19z" />
    <glyph glyph-name="f" unicode="f" horiz-adv-x="313" 
d="M381 678q35 0 59 -13q-1 -15 -14.5 -36.5t-25.5 -27.5q-36 18 -71 18q-39 0 -71 -36q-14 -17 -25 -45t-15.5 -47t-16.5 -72q52 0 142 2q-3 -24 -12 -51h-140q-49 -244 -111 -532q-22 -1 -68 -1q4 21 109 532h-82q1 7 5 23t5 24q9 0 25 1t29 1.5t24 0.5q5 0 6 7
q14 72 31.5 111.5t51.5 72.5q72 68 165 68z" />
    <glyph glyph-name="g" unicode="g" horiz-adv-x="426" 
d="M40 223q0 78 55 142.5t140 64.5q41 0 63 -9q8 -2 14 -2q86 0 138 2q0 -31 -1 -46q-17 -1 -50 -2t-50 -2v-4q20 -26 20 -74q0 -69 -37 -125q-62 -93 -178 -81q-20 -13 -30 -20t-18 -15.5t-8 -15.5q0 -20 107 -30q10 -1 16 -2q87 -8 113 -25q18 -10 30.5 -30t12.5 -41
q0 -61 -65.5 -107.5t-190.5 -46.5q-80 0 -130 26.5t-50 72.5q0 38 23 53q33 21 108 65l1 5q-48 15 -48 61q0 8 13 19t67 43v5q-65 34 -65 119zM114 217q0 -91 72 -91q44 0 76.5 47t32.5 118q0 46 -13 69q-16 29 -55 29q-49 0 -81 -50.5t-32 -121.5zM304 -107q0 28 -18.5 38
t-73.5 17q-64 8 -87 11q-7 -4 -21 -13q-36 -22 -51 -32.5t-27.5 -25.5t-12.5 -31q0 -30 36.5 -45.5t84.5 -15.5q74 0 122 25.5t48 71.5z" />
    <glyph glyph-name="h" unicode="h" horiz-adv-x="495" 
d="M169 634l-89 -6q-2 28 -2 41q31 6 66.5 13.5t56 12.5t23.5 5q5 0 14 -7.5t13 -14.5q-23 -92 -95 -374l6 -3q60 69 112.5 98.5t87.5 30.5q18 -3 37.5 -16.5t29.5 -35.5q6 -14 6 -31q0 -74 -80 -300q-4 -6 4 -6q20 0 70 13q3 -14 7 -42q-62 -21 -132 -21q-4 0 -14 10.5
t-12 19.5q40 116 64 208q19 71 19 99q0 36 -32 36q-44 0 -111 -59.5t-79 -104.5q-16 -58 -50 -200h-70q81 336 150 634z" />
    <glyph glyph-name="i" unicode="i" horiz-adv-x="251" 
d="M185 623q23 0 35.5 -15.5t12.5 -33.5q0 -20 -16 -36t-37 -16t-36 15t-15 35q0 19 15.5 35t40.5 16zM119 367l-85 -5q-2 30 -2 43q34 5 67.5 11t51 10t20.5 4q4 0 13.5 -9t13.5 -16q-7 -30 -86 -359q-2 -7 4 -7q16 0 75 16q5 -16 8 -42q-69 -22 -125 -22q-5 0 -18 10.5
t-17 20.5q2 9 80 345z" />
    <glyph glyph-name="j" unicode="j" horiz-adv-x="245" 
d="M179 622q23 0 35.5 -15.5t12.5 -32.5q0 -21 -15 -37t-36 -16q-22 0 -36.5 14.5t-14.5 35.5q0 20 14.5 35.5t39.5 15.5zM122 366l-96 -5v43q37 5 73 11.5t54.5 10.5t21.5 4q5 0 14 -8t13 -15q-28 -158 -61 -333q-15 -74 -29 -114.5t-43 -84.5q-20 -30 -47 -56.5t-46 -39
t-24 -12.5q-10 0 -30.5 18.5t-22.5 29.5q79 28 116 76q33 43 54 162q37 212 53 313z" />
    <glyph glyph-name="k" unicode="k" horiz-adv-x="448" 
d="M136 219l6 -3q84 101 155 157.5t108 56.5q9 0 20.5 -18t13.5 -38q-88 -13 -200 -120v-5q49 -23 78 -112q20 -63 32 -85q4 -8 15 -8q26 2 63 13q4 -24 5 -42q-63 -21 -133 -21q-23 38 -46 113q-34 101 -60 101q-8 0 -17 -9q-25 -22 -53 -53q-15 -60 -35 -146h-69
q41 169 149 634l-86 -6q-1 15 -3 43q29 4 64 11.5t57 12.5t23 5q4 0 13.5 -7t14.5 -15q-42 -174 -115 -459z" />
    <glyph glyph-name="l" unicode="l" horiz-adv-x="249" 
d="M169 635l-95 -5q-2 30 -2 43q38 4 74.5 11t55.5 11.5t22 4.5q13 0 26 -22q-63 -257 -148 -631q0 -6 4 -6q30 0 86 15q5 -23 6 -44q-69 -21 -139 -21q-4 0 -15.5 10t-16.5 20q19 75 142 614z" />
    <glyph glyph-name="m" unicode="m" horiz-adv-x="739" 
d="M119 369l-80 -8q-2 28 -2 42q33 5 63 12t44.5 11t17.5 4q11 0 26 -21q-2 -13 -23 -102l9 -3q53 65 100.5 95t81.5 31q39 -6 60 -44q6 -10 6 -28q0 -15 -8 -57l7 -2q98 128 184 128q16 -2 35.5 -16t28.5 -34q7 -13 7 -30q0 -66 -74 -300q-2 -6 3 -6q21 0 70 15
q6 -28 7 -42q-69 -23 -127 -23q-5 0 -14 10t-13 20q24 75 54 193q22 85 22 116q0 14 -8 24t-25 10q-40 0 -102 -64t-74 -110q-7 -27 -23 -92t-24 -98h-67q16 67 56 230q17 70 17 106q0 12 -7 21.5t-21 9.5q-42 0 -103.5 -63.5t-73.5 -110.5q-4 -17 -13.5 -54.5t-20 -82
t-13.5 -56.5h-67q55 237 84 369z" />
    <glyph glyph-name="n" unicode="n" horiz-adv-x="510" 
d="M120 367l-79 -8q-2 30 -2 43q29 5 59.5 12t48.5 11.5t20 4.5q5 0 13.5 -7t12.5 -14q-2 -9 -11.5 -47t-15.5 -61l7 -3q56 65 112 98t94 34q44 -8 65 -51q6 -12 6 -32q0 -74 -80 -300q-2 -7 4 -7q15 0 72 16q4 -21 6 -42q-62 -23 -129 -23q-5 0 -15 9.5t-13 20.5
q38 115 62 206q19 79 19 101q0 37 -31 37q-45 0 -112.5 -61t-80.5 -106q-6 -22 -27 -108.5t-22 -89.5h-69q47 192 86 367z" />
    <glyph glyph-name="o" unicode="o" horiz-adv-x="439" 
d="M397 282q0 -64 -26 -126.5t-75 -110.5q-58 -55 -142 -55q-66 0 -101 43q-29 37 -29 92q0 73 27.5 139t74.5 110q61 56 140 56q58 0 93 -37q38 -40 38 -111zM171 34q51 0 88 47q26 31 44 88.5t18 110.5q0 49 -16 75q-18 30 -55 30q-51 0 -93 -55q-22 -29 -39.5 -84
t-17.5 -112q0 -47 16 -72q16 -28 55 -28z" />
    <glyph glyph-name="p" unicode="p" horiz-adv-x="472" 
d="M149 285l10 -2q111 147 204 148q18 -2 38 -18t30 -38q8 -16 8 -37q0 -123 -59 -226q-26 -50 -70 -86t-101 -36t-99 38q-45 -225 -53 -263q-22 -1 -68 -1q78 398 117 604l-81 -4v42q38 6 67.5 12t42 9t14.5 3q5 0 14 -7.5t13 -14.5q-4 -16 -13 -59t-14 -64zM365 321
q0 20 -9 34t-25 14q-44 0 -110.5 -69t-81.5 -119q-2 -10 -10.5 -51t-9.5 -47q36 -44 86 -44q74 0 117 90q43 89 43 192z" />
    <glyph glyph-name="q" unicode="q" horiz-adv-x="462" 
d="M300 121l-6 3q-118 -133 -194 -136q-41 6 -69 46q-11 16 -11 45q0 75 33 160q29 77 80 134t118 57q58 0 105 -44h5l20 48q27 -6 54 -15q-60 -229 -141 -599q-2 -5 5 -5q23 0 75 17q6 -28 7 -43q-77 -25 -128 -25q-5 0 -17 11t-17 21q5 18 35 139t46 186zM93 90
q0 -20 9 -32t23 -12q37 0 107 66.5t83 107.5q14 44 27 112q-33 45 -89 45q-77 0 -127 -132q-33 -83 -33 -155z" />
    <glyph glyph-name="r" unicode="r" horiz-adv-x="364" 
d="M120 370l-78 -8q-2 14 -2 42q28 4 58.5 10.5t47.5 11t19 4.5q4 0 13 -8t13 -15q-9 -34 -29 -124l7 -2q45 67 87.5 108t69.5 41q26 0 49 -14q0 -18 -12 -44.5t-21 -31.5q-23 10 -41 10q-31 0 -87 -66.5t-72 -128.5q-7 -27 -36 -155h-69q53 229 83 370z" />
    <glyph glyph-name="s" unicode="s" horiz-adv-x="365" 
d="M282 294l-5 65q0 7 -6 12q-20 13 -52 13q-35 0 -57 -12q-37 -21 -37 -60q0 -19 9.5 -32t21 -19.5t39.5 -18.5q54 -24 79.5 -49.5t25.5 -65.5q0 -75 -69 -113q-41 -24 -123 -24q-65 0 -97 18q1 20 3 61t3 61q14 2 44 2l7 -72q0 -8 6 -11q20 -14 60 -14q42 0 66 15
q31 20 31 61q0 29 -16.5 43.5t-56.5 32.5q-52 22 -77 45.5t-25 67.5q0 35 23 64.5t53 44.5q43 21 109 21q59 0 95 -21q-8 -72 -11 -113q-6 -1 -21 -1.5t-22 -0.5z" />
    <glyph glyph-name="t" unicode="t" horiz-adv-x="345" 
d="M127 87q0 -42 46 -42q44 0 114 20q2 -11 4 -43q-85 -31 -153 -31q-23 0 -48 17.5t-34 45.5q-3 9 -3 18q0 13 7 50t16.5 79t10.5 49q17 71 27 119h-78q1 5 3 14.5t3.5 17t2.5 13.5q49 4 74 5q6 0 8 7q4 15 13 48t12 45q37 17 65 17q3 0 3 -4q-9 -45 -25 -113q103 0 151 1
q-3 -23 -10 -51h-152q-12 -47 -27 -121q-30 -132 -30 -161z" />
    <glyph glyph-name="u" unicode="u" horiz-adv-x="487" 
d="M116 367l-75 -7q-2 16 -4 42q30 5 63 12t51 11.5t20 4.5q5 0 14 -9t11 -18q-37 -113 -61 -222q-15 -69 -15 -94q0 -38 31 -38q36 0 100 61.5t75 100.5q11 38 46 208q24 1 70 1q-65 -297 -80 -372q-2 -6 4 -6q18 0 72 17q6 -21 9 -42q-69 -26 -123 -26q-4 0 -13.5 9
t-14.5 18q11 57 20 97l-6 1q-115 -126 -185 -128q-39 6 -65 42q-11 15 -11 42q0 72 67 295z" />
    <glyph glyph-name="v" unicode="v" horiz-adv-x="448" 
d="M100 368l-76 -7q-2 14 -4 42q19 4 51.5 11.5t51 11.5t21.5 4q5 0 15 -8.5t15 -17.5q-20 -322 -21 -357q0 -10 8 -4q47 42 95 108q37 54 67.5 117t30.5 96q0 8 -10 8l-57 -6q-2 15 -4 43q17 3 45 8t46 8t21 3q5 0 18 -13t13 -18q0 -48 -39.5 -127t-82.5 -135
q-32 -43 -66 -77.5t-53.5 -49.5t-23.5 -15q-40 0 -74 5q-1 117 13 370z" />
    <glyph glyph-name="w" unicode="w" horiz-adv-x="674" 
d="M349 279h-6q-32 -80 -75.5 -150.5t-71.5 -103t-34 -32.5q-37 0 -71 5q-5 155 4 370l-77 -10q-4 31 -5 42q122 30 123 30q5 0 16 -9t15 -18q-12 -283 -13 -352q0 -2 1 -3.5t3 -1t4 2.5q39 49 79 116q75 129 100 233q26 10 63 8q6 -329 7 -358q0 -4 3 -4.5t5 2.5
q45 53 84 121q28 48 52 109t24 90q0 8 -7 8l-60 -5q-1 6 -1.5 13t-1 15.5t-0.5 13.5q16 3 44.5 7.5t44.5 7t20 2.5q5 0 18 -13.5t14 -18.5q-1 -43 -33.5 -118t-72.5 -139q-23 -36 -52 -71.5t-48.5 -55t-23.5 -19.5q-39 0 -69 5q-6 132 -2 281z" />
    <glyph glyph-name="x" unicode="x" horiz-adv-x="436" 
d="M221 273h5q47 57 99 107t70 50q9 0 25 -17.5t20 -33.5q-97 -47 -197 -150l-2 -5q54 -137 68 -171q3 -8 13 -8q26 0 66 12q4 -19 6 -42q-53 -21 -135 -21q-1 2 -71 190h-4q-94 -105 -121 -193q-20 -2 -84 -2q8 35 64.5 105t124.5 135l1 6q-6 15 -23 61t-28 73l-77 -18
q-7 24 -11 41q20 7 49 17t45.5 15.5t19.5 5.5q13 0 32 -14q11 -32 45 -143z" />
    <glyph glyph-name="y" unicode="y" horiz-adv-x="430" 
d="M86 366l-77 -14q-3 22 -6 42q28 8 58 17t46 14t18 5q14 0 30 -22q23 -240 39 -383h5q48 76 72 129q69 148 69 211q0 9 -9 9l-59 -6l-3 42q20 3 47.5 8t43.5 8t20 3q5 0 18 -13.5t13 -18.5q0 -46 -30.5 -124.5t-67.5 -147.5q-81 -148 -207 -286q-33 -35 -64 -60t-39 -25
q-13 0 -32.5 17.5t-20.5 32.5q54 26 102 65q54 43 87 90q-21 131 -53 407z" />
    <glyph glyph-name="z" unicode="z" horiz-adv-x="415" 
d="M326 149q32 -6 46 -10q-24 -79 -43 -140q-5 0 -46 0.5t-84 0.5h-108h-85q-10 25 -15 40q42 45 152.5 163.5t154.5 165.5l-1 5q-78 0 -150 -2q-22 0 -29 -15l-29 -80q-21 3 -46 8q6 25 17.5 71t16.5 65q3 0 35 -0.5t60 -0.5q68 -1 200 -1q6 -19 12 -53
q-156 -172 -305 -316v-5q163 3 180 4q25 2 33 21z" />
    <glyph glyph-name="braceleft" unicode="{" horiz-adv-x="334" 
d="M234 -98q-1 -14 -7 -39q-81 0 -126 36t-45 94q0 42 32.5 121.5t32.5 105.5q0 25 -17 37.5t-60 11.5q2 23 6 43q62 -1 85 26q11 14 14.5 37.5t3.5 85.5q0 69 12 109t42 72q61 65 177 66q-1 -19 -8 -42q-88 0 -124 -52q-20 -28 -26.5 -66t-6.5 -114q0 -116 -83 -141l-1 -6
q23 -5 35 -23t12 -42q0 -30 -30.5 -112.5t-30.5 -113.5q0 -43 28.5 -68t84.5 -26z" />
    <glyph glyph-name="bar" unicode="|" horiz-adv-x="512" 
d="M230 750h53v-1000h-53v1000z" />
    <glyph glyph-name="braceright" unicode="}" horiz-adv-x="334" 
d="M-33 -137q1 17 7 42q82 1 122 51q21 26 27 62.5t6 116.5q0 65 18.5 101t63.5 51l1 6q-48 18 -48 68q0 26 28 104.5t27 116.5q0 85 -110 86q2 22 6 40q84 0 126.5 -35t42.5 -95q0 -42 -29.5 -122t-29.5 -100q0 -47 80 -47q-3 -22 -8 -42q-60 4 -84 -27
q-13 -16 -15.5 -42.5t-2.5 -99.5q0 -111 -49 -164q-63 -71 -179 -71z" />
    <glyph glyph-name="asciitilde" unicode="~" horiz-adv-x="512" 
d="M165 310q40 0 99 -36q3 -2 14 -9t16 -9.5t14.5 -7t17.5 -6.5t17 -2q49 0 55 73q24 1 49 0q-2 -55 -31 -95t-75 -40q-34 0 -95 37q-4 3 -14 9t-16 9.5t-15 7.5t-18 6t-19 2q-25 0 -41.5 -19.5t-22.5 -50.5q-21 -2 -47 0q5 56 36 93.5t76 37.5z" />
    <glyph glyph-name="uni00A0" unicode="&#xa0;" horiz-adv-x="200" 
 />
    <glyph glyph-name="exclamdown" unicode="&#xa1;" horiz-adv-x="253" 
d="M3 -233q-1 0 -1 2q86 404 103 485q25 5 52 5q-2 -12 -30 -227q-18 -139 -30 -251q-14 -5 -47.5 -9.5t-46.5 -4.5zM150 330q-25 0 -37 15t-12 34q0 21 16 36t36 15q24 0 37.5 -13.5t13.5 -33.5q0 -21 -16 -37t-38 -16z" />
    <glyph glyph-name="cent" unicode="&#xa2;" horiz-adv-x="512" 
d="M78 257q0 88 63 171.5t158 102.5q5 23 17 99q23 5 51 7q-7 -35 -18 -101q6 1 23 1q58 0 86 -23q-2 -15 -14.5 -33t-23.5 -23q-38 26 -82 26q-29 -171 -57 -327q60 5 118 37q6 -16 10 -41q-69 -38 -136 -45q-10 -53 -18 -104q-15 -2 -47 -4q2 14 8.5 49t9.5 56
q-59 1 -103.5 41t-44.5 111zM154 265q0 -40 19.5 -71t62.5 -37q8 45 26.5 156t28.5 168q-57 -13 -97 -79t-40 -137z" />
    <glyph glyph-name="sterling" unicode="&#xa3;" horiz-adv-x="512" 
d="M-18 47l65 3q11 0 17 6q60 54 77 163q5 29 6 62h-103q2 7 5 22t5 23q31 1 92 1q5 0 5 6q7 105 11 122q16 88 73 137q61 54 161 54q56 0 89 -16q-4 -58 -11 -142q-9 -1 -26 -2.5t-26 -2.5l-2 92q-1 10 -8 13q-17 9 -46 9q-49 0 -84 -32q-31 -29 -46 -103q-2 -9 -12 -134
q47 0 179 2q-4 -27 -10 -48q-120 0 -171 -1q0 -3 -2 -17.5t-4 -23.5q-19 -108 -87 -182q-10 -10 7 -10q192 0 225 7q12 3 23 21l46 97q15 -2 47 -11q-24 -73 -60 -163q-17 0 -133 0.5t-191 0.5q-20 0 -60 -0.5t-60 -0.5z" />
    <glyph glyph-name="currency" unicode="&#xa4;" horiz-adv-x="512" 
d="M267 495q59 0 99 -28q13 16 36 42t32 37q22 -18 38 -36q-9 -10 -20 -22t-25.5 -28.5t-23.5 -26.5q38 -46 38 -112q0 -82 -48 -129q11 -12 78 -88q-21 -19 -38 -31q-13 16 -41 47.5t-35 39.5q-41 -30 -102 -30q-56 0 -94 25q-8 -9 -34.5 -39t-39.5 -44q-24 18 -37 31
q14 15 41 45.5t32 36.5q-44 46 -44 120q0 72 45 123q-15 17 -39.5 44t-32.5 37q25 25 38 36q25 -27 72 -83q44 33 105 33zM262 449q-49 0 -80 -29q-45 -45 -45 -109q0 -69 41 -107q30 -27 80 -27q49 0 79 26q45 37 45 114q0 69 -42 106q-29 26 -78 26z" />
    <glyph glyph-name="yen" unicode="&#xa5;" horiz-adv-x="512" 
d="M247 48l94 -3q-9 -43 -10 -46q-17 0 -59 0.5t-63 0.5q-19 0 -61 -0.5t-61 -0.5q3 25 9 46l78 3q6 0 9 6l14 90h-152q5 33 7 39q101 0 152 1l10 66h-154q4 21 8 39q22 0 69 0.5t69 0.5q-58 157 -105 292q-4 4 -7 5l-50 2q1 7 4.5 23t4.5 23q12 0 41 -0.5t43 -0.5
q25 0 69 0.5t62 0.5q-1 -9 -8 -46l-84 -3q15 -46 44 -139.5t44 -139.5h5q78 116 175 274q5 5 -3 5l-78 3q1 6 2.5 13.5t3.5 17t3 14.5h122q13 0 39.5 0.5t37.5 0.5q-4 -27 -9 -45l-47 -4q-157 -227 -207 -296q23 0 68 0.5t66 0.5q-5 -32 -9 -41h-152l-11 -66h153
q-4 -26 -9 -40h-151z" />
    <glyph glyph-name="brokenbar" unicode="&#xa6;" horiz-adv-x="512" 
d="M230 675h53v-350h-53v350zM230 175h53v-350h-53v350z" />
    <glyph glyph-name="section" unicode="&#xa7;" horiz-adv-x="451" 
d="M389 219q0 -88 -80 -146q14 -23 14 -59q0 -91 -66 -144q-56 -45 -129 -45q-46 0 -89 15.5t-66 41.5q7 14 20 27t26 15q52 -52 119 -52q46 0 81 30q39 36 39 96q0 39 -20 64t-70 62q-54 40 -79 74.5t-25 81.5q0 81 81 144q-16 26 -16 66q0 37 20 73t54 60q50 35 119 35
q87 0 132 -47q-13 -32 -44 -42q-50 41 -102 41q-40 0 -73 -24q-41 -30 -41 -82q0 -38 18.5 -60t82.5 -72q48 -37 71 -72.5t23 -80.5zM124 300q0 -26 12.5 -48.5t25.5 -34.5t43 -36q59 -46 81 -74q43 34 43 94q0 25 -12.5 48t-26.5 36.5t-42 36.5q-59 50 -78 70
q-46 -36 -46 -92z" />
    <glyph glyph-name="dieresis" unicode="&#xa8;" horiz-adv-x="458" 
d="M196 581q20 0 29.5 -12t9.5 -27q0 -19 -13 -33t-31 -14t-29.5 10.5t-11.5 27.5q0 18 12.5 33t33.5 15zM352 581q18 0 28.5 -12.5t10.5 -27.5q0 -18 -12 -32t-32 -14q-19 0 -29.5 12t-10.5 26q0 19 11.5 33.5t33.5 14.5z" />
    <glyph glyph-name="copyright" unicode="&#xa9;" horiz-adv-x="745" 
d="M385 660q139 0 232 -96t93 -236t-96 -239t-235 -99q-140 0 -232.5 95.5t-92.5 236.5q0 140 96 239t235 99zM382 622q-120 0 -199.5 -87t-79.5 -211q0 -125 79 -210.5t200 -85.5q120 0 199.5 87.5t79.5 210.5q0 124 -79 210t-200 86zM463 385l-10 64q0 4 -4 8
q-17 10 -44 10q-45 0 -74 -28q-52 -49 -52 -126q0 -58 34 -95q33 -34 90 -34q47 0 97 24q7 -24 8 -40q-63 -28 -118 -28q-68 0 -114 35q-62 45 -62 125q0 100 77 166q54 43 131 43q50 0 76 -12q4 -67 5 -107q-23 -4 -40 -5z" />
    <glyph glyph-name="ordfeminine" unicode="&#xaa;" horiz-adv-x="364" 
d="M261 409l-5 2q-34 -40 -72.5 -65.5t-62.5 -25.5q-13 0 -33.5 13.5t-26.5 28.5q-4 8 -4 26q0 54 24 116q20 55 60 98.5t88 43.5q44 0 73 -31h3l15 33q29 -7 45 -13q-30 -108 -65 -269q0 -4 4 -4q14 0 49 9q3 -11 5 -34q-51 -17 -92 -17q-4 0 -11 6.5t-10 12.5q4 27 16 70z
M231 603q-50 0 -85 -86q-27 -61 -27 -116q0 -13 6.5 -22t14.5 -9q23 0 68.5 39.5t57.5 67.5q16 50 24 94q-23 32 -59 32z" />
    <glyph glyph-name="guillemotleft" unicode="&#xab;" horiz-adv-x="421" 
d="M112 217q34 -64 79 -139q-9 -8 -36 -26q-86 113 -116 149l6 39q3 2 161 146q15 -12 29 -31q-61 -67 -123 -138zM274 217q22 -40 77 -134q-21 -17 -36 -26q-48 65 -112 144q1 6 3 19t3 19q8 7 154 142q11 -10 28 -31q-15 -18 -55.5 -63t-61.5 -70z" />
    <glyph glyph-name="logicalnot" unicode="&#xac;" horiz-adv-x="512" 
d="M397 33l-1 190h-344q0 19 2 53q63 0 197 1t197 2q4 0 4 -4q0 -37 -1 -122.5t-1 -116.5q-26 -3 -53 -3z" />
    <glyph glyph-name="uni00AD" unicode="&#xad;" horiz-adv-x="300" 
d="M139 214h-110q3 23 8 53h108q21 0 61 0.5t60 1.5q-2 -15 -9 -55h-118z" />
    <glyph glyph-name="registered" unicode="&#xae;" horiz-adv-x="458" 
d="M260 660q78 0 130.5 -53.5t52.5 -132.5q0 -78 -54 -133.5t-132 -55.5t-130.5 53.5t-52.5 132.5q0 78 54 133.5t132 55.5zM259 630q-65 0 -107.5 -46t-42.5 -112q0 -67 42 -112t107 -45t107.5 46t42.5 112q0 67 -42 112t-107 45zM194 400v147h-22v26q12 0 34.5 0.5
t32.5 0.5q40 0 59 -5t30 -18t11 -27q0 -40 -42 -55v-4q15 -8 37 -52q6 -13 15 -13h15q0 -17 -1 -26h-55q-6 8 -18.5 35t-16.5 33q-7 10 -24 10h-13v-52h24v-26h-88v26h22zM236 547v-68h13q45 0 45 36q0 32 -44 32h-14z" />
    <glyph glyph-name="macron" unicode="&#xaf;" horiz-adv-x="458" 
d="M373 554q-1 -6 -9 -47q-137 0 -202 1q3 20 8 44q136 2 203 2z" />
    <glyph glyph-name="degree" unicode="&#xb0;" horiz-adv-x="314" 
d="M180 449q-42 0 -72 26t-30 72q0 43 32.5 75.5t83.5 32.5q45 0 73 -27t28 -68q0 -48 -32 -79.5t-83 -31.5zM185 490q24 0 39 17.5t15 48.5q0 26 -13 42t-36 16q-25 0 -40.5 -18t-15.5 -49q0 -26 14.5 -41.5t36.5 -15.5z" />
    <glyph glyph-name="plusminus" unicode="&#xb1;" horiz-adv-x="512" 
d="M220 316l1 153q27 3 55 3q0 -96 -1 -155q31 0 89.5 0.5t84.5 0.5q0 -21 -2 -55q-110 0 -172 -1q-1 -54 -1 -146q-48 -3 -53 -3v149q-88 2 -172 0q0 21 2 53q52 1 169 1zM448 55q2 -24 -2 -54q-56 0 -195.5 -0.5t-202.5 -0.5q0 21 2 53q150 0 398 2z" />
    <glyph glyph-name="twosuperior" unicode="&#xb2;" 
d="M315 667q0 -66 -112 -153q-11 -8 -22 -15.5t-21.5 -14t-13.5 -8.5l1 -4q19 1 74.5 3.5t69.5 2.5q2 0 2 -2q-1 -18 -7 -45h-147h-75q-7 22 -8 29q66 43 100 71q97 77 97 134q0 24 -12 37q-14 17 -41 17q-28 0 -46 -13q-2 -2 -3 -6l-16 -52q-14 1 -39 5q3 17 16 85
q36 19 94 19q61 0 88 -29q21 -22 21 -61z" />
    <glyph glyph-name="threesuperior" unicode="&#xb3;" 
d="M231 604v-6q35 -4 53.5 -24.5t18.5 -49.5q0 -46 -44 -76q-36 -25 -113 -25q-52 0 -77 7q0 13 -1.5 42t-2.5 44q22 5 40 5l9 -49q2 -4 4 -5q15 -7 41 -7q42 0 62 16q21 16 21 44q0 26 -20.5 41.5t-53.5 15.5h-39q2 11 4 37q52 -2 88 15.5t36 47.5q0 17 -12 29
q-13 13 -44 13q-28 0 -45 -10q-3 -3 -4 -5l-13 -45q-31 3 -41 4q7 36 15 76q45 17 99 17q59 0 84 -25q22 -20 22 -47q0 -29 -22.5 -50.5t-64.5 -29.5z" />
    <glyph glyph-name="acute" unicode="&#xb4;" horiz-adv-x="458" 
d="M349 631q15 -14 37 -46q-13 -9 -72 -49.5t-88 -60.5q-9 10 -25 30q133 114 148 126z" />
    <glyph glyph-name="mu" unicode="&#xb5;" horiz-adv-x="512" 
d="M328 111l-5 2q-46 -50 -96 -86.5t-79 -36.5q-13 0 -25.5 7.5t-17.5 18.5l-5 -1q-16 -111 -30 -248q-30 -12 -76 -12q25 151 65 362q29 149 69 301q44 2 71 2q-25 -94 -57 -240q-12 -66 -12 -85q0 -18 10 -30t24 -12q37 0 101 59.5t75 100.5q5 16 24 101t24 104q46 2 69 2
q-3 -14 -20.5 -94t-34.5 -159t-25 -117q-2 -8 5 -8q18 0 71 17q6 -21 9 -42q-67 -26 -124 -26q-4 0 -14 9.5t-15 18.5q1 12 19 92z" />
    <glyph glyph-name="paragraph" unicode="&#xb6;" horiz-adv-x="516" 
d="M484 601l-119 -722q-3 -1 -52 -9l117 732h-66l-121 -731q-22 -6 -53 -9l59 366h-17q-44 0 -82 19q-100 44 -100 167q0 71 39 125.5t95 79.5q71 32 219 32q17 0 143 -3q-5 -36 -7 -47h-55z" />
    <glyph glyph-name="periodcentered" unicode="&#xb7;" horiz-adv-x="244" 
d="M124 316q28 0 40 -16.5t12 -36.5q0 -23 -15.5 -38.5t-38.5 -15.5q-24 0 -38 14t-14 37q0 21 14.5 38.5t39.5 17.5z" />
    <glyph glyph-name="cedilla" unicode="&#xb8;" horiz-adv-x="458" 
d="M169 12h53l-78 -73q24 -4 38.5 -20t14.5 -37q0 -38 -38 -63t-97 -27l1 35q35 2 56 14.5t21 33.5q0 35 -51 37q-1 3 -3 10t-3 10z" />
    <glyph glyph-name="onesuperior" unicode="&#xb9;" 
d="M74 431l3 18t4 18l77 2q2 0 2 2q18 98 38 218q-41 -7 -83 -17q-4 23 -5 37q30 7 67 19.5t61.5 21t28.5 8.5q1 0 1 -3q-8 -46 -26 -143t-26 -143l80 -1q-1 -14 -7 -37h-110h-105z" />
    <glyph glyph-name="ordmasculine" unicode="&#xba;" horiz-adv-x="347" 
d="M345 539q0 -112 -70 -177q-44 -42 -106 -42q-53 0 -82 33q-23 29 -23 75q0 104 72 176q45 42 108 42q47 0 71 -24q30 -32 30 -83zM175 356q37 0 63 34q18 23 31.5 64.5t13.5 81.5q0 36 -11 54q-13 20 -38 20q-37 0 -64 -38q-43 -59 -43 -142q0 -38 11 -55q14 -19 37 -19z
" />
    <glyph glyph-name="guillemotright" unicode="&#xbb;" horiz-adv-x="421" 
d="M128 221q-26 49 -76 133q15 12 35 25q74 -96 112 -143q-2 -20 -6 -37q-21 -19 -73.5 -67.5t-81.5 -74.5q-1 1 -28 31q63 68 118 133zM289 220q-29 55 -78 139q6 6 35 27q69 -93 117 -150q-2 -21 -6 -38q-31 -28 -87 -79.5t-74 -67.5q-15 13 -29 31q68 72 122 138z" />
    <glyph glyph-name="onequarter" unicode="&#xbc;" horiz-adv-x="764" 
d="M91 327q5 29 7 36l77 2q2 0 2 2q18 98 38 218q-41 -7 -83 -17q-4 23 -5 37q30 7 67 19.5t61.5 21t28.5 8.5q1 0 1 -3q-6 -35 -24 -134.5t-28 -151.5l80 -2q-5 -29 -7 -36h-110h-105zM658 635q-237 -335 -249 -352q-96 -137 -214 -298q-22 11 -37 22q119 165 211 296
q125 177 250 356q22 -10 39 -24zM507 0q3 23 5 32l53 1q3 0 3 2q1 7 3.5 21.5t3.5 21.5h-151q-1 4 -6 17.5t-7 20.5q30 31 99 104q66 70 98 102q40 0 58 -2q-19 -112 -34 -205h60q-2 -18 -6 -37h-61q-3 -23 -8 -45l45 -1q-1 -13 -5 -32h-74h-76zM609 268h-6
q-13 -15 -37.5 -41t-32.5 -34q-37 -38 -67 -73q-3 -5 1 -5h114z" />
    <glyph glyph-name="onehalf" unicode="&#xbd;" horiz-adv-x="764" 
d="M67 327q3 9 7 36l77 2q2 0 2 2q18 98 38 218q-37 -6 -83 -17q-4 23 -5 37q30 7 67 19.5t61.5 21t28.5 8.5q1 0 1 -3q-6 -35 -24 -134.5t-28 -151.5l81 -2q-3 -15 -8 -36h-110h-105zM634 635q-237 -335 -249 -352q-65 -93 -213 -298q-21 10 -38 22q119 165 211 296
q16 23 108 153.5t143 202.5q20 -9 38 -24zM701 236q0 -69 -113 -153q-8 -6 -56 -38l1 -5q103 6 144 7q2 0 2 -2q-1 -19 -7 -45h-147h-75q-5 16 -8 28q62 42 100 71q97 77 97 134q0 25 -12 38q-14 16 -41 16q-30 0 -46 -12q-2 -1 -3 -6l-16 -53q-22 4 -39 5q3 18 9.5 51
t6.5 35q38 18 94 18q62 0 88 -29q21 -22 21 -60z" />
    <glyph glyph-name="threequarters" unicode="&#xbe;" horiz-adv-x="764" 
d="M262 500l-1 -6q35 -4 54 -24.5t19 -49.5q0 -46 -44 -76q-38 -25 -114 -25q-46 0 -77 7q0 13 -1.5 42.5t-2.5 44.5q24 4 41 5l9 -50q1 0 2 -2t1 -3q21 -7 42 -7q41 0 61 16q21 16 21 44q0 27 -20 42t-54 15h-38q2 28 4 37q52 -2 87.5 15.5t35.5 48.5q0 19 -12 28
q-13 13 -44 13q-28 0 -45 -10q0 -1 -2 -2.5t-2 -2.5l-13 -45q-5 0 -18.5 1.5t-21.5 2.5q9 47 15 76q45 17 98 17q58 0 85 -25q21 -19 21 -47q0 -29 -22.5 -50.5t-63.5 -29.5zM670 635q-30 -42 -83 -116.5t-93.5 -132t-72.5 -103.5q-72 -101 -214 -298q-22 11 -37 22
q119 165 211 296q42 60 126.5 180.5t123.5 175.5q22 -10 39 -24zM513 0q1 12 5 32l53 1q3 0 3 2q3 12 7 43h-150q-9 21 -14 38q30 31 99 104q12 12 32.5 34t37 39t29.5 29q39 0 57 -2q-15 -96 -34 -205h60q0 -11 -6 -37h-61q-1 -7 -3.5 -22.5t-3.5 -22.5l44 -1
q-1 -13 -5 -32h-73h-77zM615 268h-6q-23 -27 -70 -75q-51 -56 -66 -73q-5 -5 1 -5h113z" />
    <glyph glyph-name="questiondown" unicode="&#xbf;" horiz-adv-x="430" 
d="M271 331q-46 0 -46 50q0 20 16.5 34.5t38.5 14.5q23 0 35.5 -12t12.5 -31q0 -22 -17.5 -39t-39.5 -17zM169 -235q-82 0 -121 39.5t-40 94.5q1 66 45.5 121.5t140.5 111.5q31 20 32 43q1 25 -5 74q29 12 52 15q8 -14 15 -46.5t8 -58.5q0 -9 -2 -23q-103 -64 -152.5 -114
t-49.5 -112q0 -43 24.5 -68t70.5 -25q44 0 72 17q7 5 9 12l29 88q38 -4 54 -8q-13 -63 -31 -133q-69 -28 -151 -28z" />
    <glyph glyph-name="Agrave" unicode="&#xc0;" horiz-adv-x="585" 
d="M415 701q-68 34 -178 90q19 34 34 53q26 -17 83.5 -55.5t81.5 -54.5q-7 -16 -21 -33zM-48 46l53 3q3 0 8 5q56 100 173.5 318t154.5 286q20 2 53 2q20 -104 61 -328.5t52 -282.5l60 -3q-3 -25 -9 -46h-91q-23 0 -66.5 -0.5t-61.5 -0.5q2 19 8 47l79 3q4 0 4 6
q-3 14 -8 44.5t-9.5 55t-8.5 43.5q0 5 -6 5l-241 -2q-17 -31 -77 -152l89 -3q-1 -8 -4 -23t-4 -23h-132q-15 0 -44 -0.5t-42 -0.5q8 44 9 47zM345 549h-7q-15 -29 -70.5 -135t-83.5 -158q-3 -5 2 -5l210 -1q-7 38 -24.5 143t-26.5 156z" />
    <glyph glyph-name="Aacute" unicode="&#xc1;" horiz-adv-x="585" 
d="M459 844q18 -25 31 -55q-26 -13 -89 -44t-89 -44q-19 34 -19 35q28 18 89.5 58t76.5 50zM-48 46l53 3q3 0 8 5q56 100 173.5 318t154.5 286q20 2 53 2q20 -104 61 -328.5t52 -282.5l60 -3q-3 -25 -9 -46h-91q-23 0 -66.5 -0.5t-61.5 -0.5q2 19 8 47l79 3q4 0 4 6
q-3 14 -8 44.5t-9.5 55t-8.5 43.5q0 5 -6 5l-241 -2q-17 -31 -77 -152l89 -3q-1 -8 -4 -23t-4 -23h-132q-15 0 -44 -0.5t-42 -0.5q8 44 9 47zM345 549h-7q-15 -29 -70.5 -135t-83.5 -158q-3 -5 2 -5l210 -1q-7 38 -24.5 143t-26.5 156z" />
    <glyph glyph-name="Acircumflex" unicode="&#xc2;" horiz-adv-x="585" 
d="M380 779q-16 -10 -58.5 -35.5t-61.5 -37.5q-14 14 -25 31q96 70 133 98h36q18 -17 53 -53t44 -45q-13 -16 -29 -29q-38 31 -92 71zM-48 46l53 3q3 0 8 5q56 100 173.5 318t154.5 286q20 2 53 2q20 -104 61 -328.5t52 -282.5l60 -3q-3 -25 -9 -46h-91q-23 0 -66.5 -0.5
t-61.5 -0.5q2 19 8 47l79 3q4 0 4 6q-3 14 -8 44.5t-9.5 55t-8.5 43.5q0 5 -6 5l-241 -2q-17 -31 -77 -152l89 -3q-1 -8 -4 -23t-4 -23h-132q-15 0 -44 -0.5t-42 -0.5q8 44 9 47zM345 549h-7q-15 -29 -70.5 -135t-83.5 -158q-3 -5 2 -5l210 -1q-7 38 -24.5 143t-26.5 156z
" />
    <glyph glyph-name="Atilde" unicode="&#xc3;" horiz-adv-x="585" 
d="M322 807q28 0 67 -27q31 -20 49 -20q14 0 25 13t14 32h39q-4 -37 -29.5 -67t-61.5 -30q-17 0 -58 25q-36 22 -56 22q-12 0 -25 -12t-17 -30q-18 -2 -38 0q5 36 32 65t59 29zM-48 46l53 3q3 0 8 5q56 100 173.5 318t154.5 286q20 2 53 2q20 -104 61 -328.5t52 -282.5
l60 -3q-3 -25 -9 -46h-91q-23 0 -66.5 -0.5t-61.5 -0.5q2 19 8 47l79 3q4 0 4 6q-3 14 -8 44.5t-9.5 55t-8.5 43.5q0 5 -6 5l-241 -2q-17 -31 -77 -152l89 -3q-1 -8 -4 -23t-4 -23h-132q-15 0 -44 -0.5t-42 -0.5q8 44 9 47zM345 549h-7q-15 -29 -70.5 -135t-83.5 -158
q-3 -5 2 -5l210 -1q-7 38 -24.5 143t-26.5 156z" />
    <glyph glyph-name="Adieresis" unicode="&#xc4;" horiz-adv-x="585" 
d="M296 804q20 0 29.5 -12t9.5 -28q0 -18 -12.5 -31.5t-31.5 -13.5q-17 0 -29 10.5t-12 26.5q0 19 12 33.5t34 14.5zM462 804q19 0 29 -12t10 -28q0 -19 -12 -32t-31 -13q-20 0 -31 11t-11 26q0 20 12 34t34 14zM-48 46l53 3q3 0 8 5q56 100 173.5 318t154.5 286q20 2 53 2
q20 -104 61 -328.5t52 -282.5l60 -3q-3 -25 -9 -46h-91q-23 0 -66.5 -0.5t-61.5 -0.5q2 19 8 47l79 3q4 0 4 6q-3 14 -8 44.5t-9.5 55t-8.5 43.5q0 5 -6 5l-241 -2q-17 -31 -77 -152l89 -3q-1 -8 -4 -23t-4 -23h-132q-15 0 -44 -0.5t-42 -0.5q8 44 9 47zM345 549h-7
q-15 -29 -70.5 -135t-83.5 -158q-3 -5 2 -5l210 -1q-7 38 -24.5 143t-26.5 156z" />
    <glyph glyph-name="Aring" unicode="&#xc5;" horiz-adv-x="585" 
d="M367 700q-39 0 -64 20.5t-25 54.5q0 41 30.5 66.5t74.5 25.5q40 0 64.5 -21.5t24.5 -54.5q0 -36 -28.5 -63.5t-76.5 -27.5zM371 736q20 0 36 13.5t16 38.5q0 18 -12 31t-31 13q-24 0 -38.5 -14.5t-14.5 -39.5q0 -19 12.5 -30.5t31.5 -11.5zM-48 46l53 3q3 0 8 5
q56 100 173.5 318t154.5 286q20 2 53 2q20 -104 61 -328.5t52 -282.5l60 -3q-3 -25 -9 -46h-91q-23 0 -66.5 -0.5t-61.5 -0.5q2 19 8 47l79 3q4 0 4 6q-3 14 -8 44.5t-9.5 55t-8.5 43.5q0 5 -6 5l-241 -2q-17 -31 -77 -152l89 -3q-1 -8 -4 -23t-4 -23h-132q-15 0 -44 -0.5
t-42 -0.5q8 44 9 47zM345 549h-7q-15 -29 -70.5 -135t-83.5 -158q-3 -5 2 -5l210 -1q-7 38 -24.5 143t-26.5 156z" />
    <glyph glyph-name="AE" unicode="&#xc6;" horiz-adv-x="833" 
d="M417 267l-183 -1q-91 -130 -151 -217l86 -3q-2 -18 -8 -46h-134q-14 0 -43 -0.5t-42 -0.5q2 13 8 47l53 3q4 0 9 5q68 91 218.5 297t216.5 295q2 4 7 4h96h191h81q-3 -26 -9.5 -77t-9.5 -77q-28 -2 -45 -2l1 84q0 18 -22 19q-42 5 -177 5q-7 0 -8 -5l-48 -280q55 0 159 2
q24 0 29 20l12 48h47l-18 -96q-5 -28 -15 -88q-15 -1 -47 -1l5 46q1 12 -4 16t-20 5q-47 1 -156 1l-35 -203q-2 -13 6 -16.5t46 -3.5q124 0 158 8q14 3 23 20l42 87q23 -5 44 -13q-2 -5 -21.5 -62.5t-30.5 -87.5q-15 0 -124 0.5t-186 0.5q-21 0 -60 -0.5t-56 -0.5q6 32 9 47
l70 3q3 0 5 4l36 210q0 4 -5 4zM430 314l47 284h-6q-41 -56 -113.5 -157.5t-86.5 -120.5q-4 -6 1 -6h158z" />
    <glyph glyph-name="Ccedilla" unicode="&#xc7;" horiz-adv-x="572" 
d="M227 -75l76 65q-107 2 -174 66q-73 67 -73 196q0 103 50 193t123 144q96 71 225 71q81 0 125 -22q-4 -29 -10.5 -86t-10.5 -86q-8 -1 -25.5 -1.5t-25.5 -0.5l3 111q0 11 -5 14q-26 16 -82 16q-93 0 -160 -61q-61 -53 -93 -128.5t-32 -150.5q0 -96 38 -149
q21 -31 60 -50.5t87 -19.5q64 0 176 38q3 -22 3 -50q-76 -27 -132 -37l-79 -68q59 -12 59 -63q0 -37 -41 -64t-106 -27v36q39 1 61 15.5t22 33.5q0 16 -11 26q-9 10 -43 15q-1 4 -2.5 12t-2.5 12z" />
    <glyph glyph-name="Egrave" unicode="&#xc8;" horiz-adv-x="532" 
d="M404 701q-68 34 -178 90q19 34 34 53q30 -20 90 -60.5t74 -49.5q-6 -13 -20 -33zM9 46l68 3q4 0 6 4l91 548l-73 2q6 32 9 47h113h216h81q-13 -109 -19 -154q-26 -2 -45 -2l1 85q0 16 -22 19q-52 4 -177 4q-8 0 -9 -4l-41 -243q27 0 79.5 0.5t78.5 1.5q25 1 29 20l13 48
q24 1 46 0q-7 -43 -17 -95q-14 -82 -16 -94q-15 -1 -47 -1l5 50q1 13 -4 17.5t-20 4.5q-47 1 -156 1l-40 -241q-2 -13 6.5 -16.5t46.5 -3.5q123 0 157 8q14 3 23 20l44 91q21 -4 43 -13q-44 -129 -53 -154q-15 0 -124 0.5t-186 0.5q-21 0 -60 -0.5t-56 -0.5q6 32 9 47z" />
    <glyph glyph-name="Eacute" unicode="&#xc9;" horiz-adv-x="532" 
d="M443 844q18 -25 31 -55q-54 -26 -178 -88q-14 23 -20 35q27 17 86 55.5t81 52.5zM9 46l68 3q4 0 6 4l91 548l-73 2q6 32 9 47h113h216h81q-13 -109 -19 -154q-26 -2 -45 -2l1 85q0 16 -22 19q-52 4 -177 4q-8 0 -9 -4l-41 -243q27 0 79.5 0.5t78.5 1.5q25 1 29 20l13 48
q24 1 46 0q-7 -43 -17 -95q-14 -82 -16 -94q-15 -1 -47 -1l5 50q1 13 -4 17.5t-20 4.5q-47 1 -156 1l-40 -241q-2 -13 6.5 -16.5t46.5 -3.5q123 0 157 8q14 3 23 20l44 91q21 -4 43 -13q-44 -129 -53 -154q-15 0 -124 0.5t-186 0.5q-21 0 -60 -0.5t-56 -0.5q6 32 9 47z" />
    <glyph glyph-name="Ecircumflex" unicode="&#xca;" horiz-adv-x="532" 
d="M354 780q-85 -51 -120 -73q-14 15 -25 31q25 18 71.5 53t60.5 45h37q15 -15 48.5 -49t48.5 -49q-15 -16 -29 -29q-10 8 -92 71zM9 46l68 3q4 0 6 4l91 548l-73 2q6 32 9 47h113h216h81q-13 -109 -19 -154q-26 -2 -45 -2l1 85q0 16 -22 19q-52 4 -177 4q-8 0 -9 -4
l-41 -243q27 0 79.5 0.5t78.5 1.5q25 1 29 20l13 48q24 1 46 0q-7 -43 -17 -95q-14 -82 -16 -94q-15 -1 -47 -1l5 50q1 13 -4 17.5t-20 4.5q-47 1 -156 1l-40 -241q-2 -13 6.5 -16.5t46.5 -3.5q123 0 157 8q14 3 23 20l44 91q21 -4 43 -13q-44 -129 -53 -154q-15 0 -124 0.5
t-186 0.5q-21 0 -60 -0.5t-56 -0.5q6 32 9 47z" />
    <glyph glyph-name="Edieresis" unicode="&#xcb;" horiz-adv-x="532" 
d="M267 805q39 0 39 -40q0 -18 -12.5 -31.5t-31.5 -13.5q-17 0 -29 10.5t-12 26.5q0 19 12.5 33.5t33.5 14.5zM433 805q19 0 29 -12t10 -28q0 -19 -12 -32t-30 -13q-20 0 -31.5 11t-11.5 27q0 19 12 33t34 14zM9 46l68 3q4 0 6 4l91 548l-73 2q6 32 9 47h113h216h81
q-13 -109 -19 -154q-26 -2 -45 -2l1 85q0 16 -22 19q-52 4 -177 4q-8 0 -9 -4l-41 -243q27 0 79.5 0.5t78.5 1.5q25 1 29 20l13 48q24 1 46 0q-7 -43 -17 -95q-14 -82 -16 -94q-15 -1 -47 -1l5 50q1 13 -4 17.5t-20 4.5q-47 1 -156 1l-40 -241q-2 -13 6.5 -16.5t46.5 -3.5
q123 0 157 8q14 3 23 20l44 91q21 -4 43 -13q-44 -129 -53 -154q-15 0 -124 0.5t-186 0.5q-21 0 -60 -0.5t-56 -0.5q6 32 9 47z" />
    <glyph glyph-name="Igrave" unicode="&#xcc;" horiz-adv-x="313" 
d="M289 701q-68 34 -178 90q19 34 34 53q26 -17 83.5 -55.5t81.5 -54.5q-12 -21 -21 -33zM9 46l68 3q4 0 6 5l92 547l-78 3q1 8 5 23t5 23h120h112q-3 -22 -10 -46l-76 -3q-3 0 -3 -4l-95 -548l85 -3q-4 -30 -10 -47q-15 0 -55 0.5t-60 0.5q-19 0 -58.5 -0.5t-56.5 -0.5
q2 7 4.5 23t4.5 24z" />
    <glyph glyph-name="Iacute" unicode="&#xcd;" horiz-adv-x="313" 
d="M327 844q17 -23 32 -55q-32 -15 -101 -49.5t-78 -38.5q-19 34 -19 35q28 18 89.5 58t76.5 50zM9 46l68 3q4 0 6 5l92 547l-78 3q1 8 5 23t5 23h120h112q-3 -22 -10 -46l-76 -3q-3 0 -3 -4l-95 -548l85 -3q-4 -30 -10 -47q-15 0 -55 0.5t-60 0.5q-19 0 -58.5 -0.5
t-56.5 -0.5q2 7 4.5 23t4.5 24z" />
    <glyph glyph-name="Icircumflex" unicode="&#xce;" horiz-adv-x="313" 
d="M238 780q-85 -51 -121 -73q-15 17 -24 31q25 18 71.5 53t60.5 45h37q38 -38 96 -98q-11 -14 -28 -29q-25 19 -92 71zM9 46l68 3q4 0 6 5l92 547l-78 3q1 8 5 23t5 23h120h112q-3 -22 -10 -46l-76 -3q-3 0 -3 -4l-95 -548l85 -3q-4 -30 -10 -47q-15 0 -55 0.5t-60 0.5
q-19 0 -58.5 -0.5t-56.5 -0.5q2 7 4.5 23t4.5 24z" />
    <glyph glyph-name="Idieresis" unicode="&#xcf;" horiz-adv-x="313" 
d="M157 805q20 0 29.5 -12t9.5 -28q0 -18 -12.5 -31.5t-31.5 -13.5q-17 0 -29 10.5t-12 26.5q0 20 12 34t34 14zM323 805q19 0 29 -12t10 -28q0 -19 -12 -32t-31 -13q-20 0 -31 11t-11 27q0 19 12 33t34 14zM9 46l68 3q4 0 6 5l92 547l-78 3q1 8 5 23t5 23h120h112
q-3 -22 -10 -46l-76 -3q-3 0 -3 -4l-95 -548l85 -3q-4 -30 -10 -47q-15 0 -55 0.5t-60 0.5q-19 0 -58.5 -0.5t-56.5 -0.5q2 7 4.5 23t4.5 24z" />
    <glyph glyph-name="Eth" unicode="&#xd0;" horiz-adv-x="668" 
d="M175 600l-72 3q1 5 4 21.5t5 24.5q106 2 199 2q144 0 223 -57q52 -37 75.5 -95t23.5 -118q0 -99 -45 -185t-117 -136q-88 -61 -239 -61q-21 0 -64.5 0.5t-53.5 0.5q-17 0 -55.5 -0.5t-57.5 -0.5q3 21 8 47l66 2q7 0 7 7l41 246h-91q1 6 3.5 21.5t4.5 21.5q15 0 45 0.5
t46 0.5zM197 301l-37 -217q-4 -23 10.5 -31t69.5 -8q129 0 201 61q46 40 78 108t32 161q0 103 -55 163q-64 67 -188 67q-39 0 -58 -4l-45 -256q23 0 78 0.5t91 0.5q-1 -7 -9 -45h-168z" />
    <glyph glyph-name="Ntilde" unicode="&#xd1;" horiz-adv-x="697" 
d="M376 807q26 0 68 -27q29 -20 48 -20q15 0 26 13t14 32h38q-3 -36 -28.5 -66.5t-61.5 -30.5q-8 0 -17 3t-13 4.5t-16 9.5l-12 8q-38 22 -56 22q-12 0 -25 -12t-18 -30q-18 -2 -37 0q5 36 32 65t58 29zM4 46l63 2q5 1 7 6l92 547l-74 3q3 16 9 46h141q16 -33 118.5 -243
t147.5 -304l6 1q8 50 79 497l-95 2q2 8 5 23.5t4 23.5h125h93q-2 -12 -8 -46l-60 -2q-4 -1 -5 -6l-102 -594q-20 -8 -52 -8q-127 221 -278 549h-7q-22 -137 -83 -494l99 -2q-3 -25 -9 -47h-131q-17 0 -49 -0.5t-45 -0.5q8 45 9 47z" />
    <glyph glyph-name="Ograve" unicode="&#xd2;" horiz-adv-x="703" 
d="M485 707l-178 89q19 33 34 54q112 -75 165 -110q-9 -19 -21 -33zM669 394q0 -103 -42.5 -191t-105.5 -140q-90 -73 -216 -73q-106 0 -175 67q-73 70 -73 197q0 105 46 196t113 141q87 69 209 69q105 0 170 -65q74 -74 74 -201zM139 254q0 -98 48 -157q49 -58 136 -58
q90 0 151 58q48 43 80.5 119.5t32.5 177.5q0 98 -45 156q-45 61 -133 61q-89 0 -158 -63q-45 -44 -78.5 -119t-33.5 -175z" />
    <glyph glyph-name="Oacute" unicode="&#xd3;" horiz-adv-x="703" 
d="M520 849q18 -25 31 -55q-27 -13 -89.5 -43.5t-88.5 -43.5q-13 19 -20 34q22 14 80.5 52t86.5 56zM669 394q0 -103 -42.5 -191t-105.5 -140q-90 -73 -216 -73q-106 0 -175 67q-73 70 -73 197q0 105 46 196t113 141q87 69 209 69q105 0 170 -65q74 -74 74 -201zM139 254
q0 -98 48 -157q49 -58 136 -58q90 0 151 58q48 43 80.5 119.5t32.5 177.5q0 98 -45 156q-45 61 -133 61q-89 0 -158 -63q-45 -44 -78.5 -119t-33.5 -175z" />
    <glyph glyph-name="Ocircumflex" unicode="&#xd4;" horiz-adv-x="703" 
d="M440 780q-16 -10 -58.5 -35.5t-61.5 -37.5q-14 15 -25 31q20 15 65 48t68 50h36q68 -68 97 -98q-13 -16 -29 -29q-38 31 -92 71zM669 394q0 -103 -42.5 -191t-105.5 -140q-90 -73 -216 -73q-106 0 -175 67q-73 70 -73 197q0 105 46 196t113 141q87 69 209 69
q105 0 170 -65q74 -74 74 -201zM139 254q0 -98 48 -157q49 -58 136 -58q90 0 151 58q48 43 80.5 119.5t32.5 177.5q0 98 -45 156q-45 61 -133 61q-89 0 -158 -63q-45 -44 -78.5 -119t-33.5 -175z" />
    <glyph glyph-name="Otilde" unicode="&#xd5;" horiz-adv-x="703" 
d="M375 812q28 0 68 -26q29 -20 48 -20q15 0 26 12.5t14 31.5q20 2 38 0q-3 -36 -28.5 -66t-61.5 -30q-8 0 -16.5 2.5t-13.5 5.5t-15 8.5t-13 7.5q-2 1 -12.5 7.5t-14.5 8.5t-12.5 4.5t-16.5 2.5q-12 0 -25 -12.5t-18 -30.5h-37q5 36 32 65t58 29zM669 394
q0 -103 -42.5 -191t-105.5 -140q-90 -73 -216 -73q-106 0 -175 67q-73 70 -73 197q0 105 46 196t113 141q87 69 209 69q105 0 170 -65q74 -74 74 -201zM139 254q0 -98 48 -157q49 -58 136 -58q90 0 151 58q48 43 80.5 119.5t32.5 177.5q0 98 -45 156q-45 61 -133 61
q-89 0 -158 -63q-45 -44 -78.5 -119t-33.5 -175z" />
    <glyph glyph-name="Odieresis" unicode="&#xd6;" horiz-adv-x="703" 
d="M360 805q20 0 29.5 -12t9.5 -28q0 -18 -12.5 -31.5t-31.5 -13.5q-17 0 -29 10.5t-12 26.5q0 20 12 34t34 14zM526 805q19 0 29 -12t10 -28q0 -19 -12 -32t-31 -13q-20 0 -31 11t-11 27q0 19 12 33t34 14zM669 394q0 -103 -42.5 -191t-105.5 -140q-90 -73 -216 -73
q-106 0 -175 67q-73 70 -73 197q0 105 46 196t113 141q87 69 209 69q105 0 170 -65q74 -74 74 -201zM139 254q0 -98 48 -157q49 -58 136 -58q90 0 151 58q48 43 80.5 119.5t32.5 177.5q0 98 -45 156q-45 61 -133 61q-89 0 -158 -63q-45 -44 -78.5 -119t-33.5 -175z" />
    <glyph glyph-name="multiply" unicode="&#xd7;" horiz-adv-x="512" 
d="M292 231q29 -29 82.5 -84t75.5 -78q-13 -18 -34 -35q-51 52 -161 162l-162 -162q-24 24 -34 35q25 26 78 80t80 82q-69 71 -150 151q19 21 39 39q21 -21 71.5 -72t77.5 -78q98 100 151 154q21 -18 40 -40q-74 -72 -154 -154z" />
    <glyph glyph-name="Oslash" unicode="&#xd8;" horiz-adv-x="703" 
d="M422 660q88 0 146 -48q9 11 30.5 38.5t33.5 42.5q19 -12 41 -34q-4 -4 -28.5 -33t-38.5 -46q63 -71 63 -185q0 -93 -36.5 -180t-99.5 -142q-95 -83 -222 -83q-90 0 -149 45q-11 -13 -23 -27t-26.5 -31t-22.5 -26q-21 13 -39 28q13 15 38 43t38 43q-70 70 -70 190
q0 115 51 207t123 141q81 57 191 57zM405 612q-86 0 -148 -58q-121 -116 -121 -301q0 -87 37 -139q91 114 190 240q119 149 169 211q-26 26 -53.5 36.5t-73.5 10.5zM328 38q89 0 152 63q110 110 110 296q0 87 -32 129q-46 -58 -161 -205q-105 -131 -195 -240q43 -43 126 -43
z" />
    <glyph glyph-name="Ugrave" unicode="&#xd9;" horiz-adv-x="647" 
d="M450 701q-68 34 -178 90q19 34 34 53q26 -17 83.5 -55.5t81.5 -54.5q-12 -21 -21 -33zM677 604l-64 -4l-58 -335q-24 -142 -100 -212q-67 -63 -172 -63q-104 0 -155 58q-35 39 -42 95t7 120l57 338l-65 2q3 17 9 47h105h123q-1 -3 -4 -20.5t-5 -26.5l-83 -2q-3 -1 -5 -6
l-57 -326q-20 -122 14 -173q35 -53 111 -53q72 0 123 47q54 49 76 171q4 22 25 149t30 186q0 5 -4 5l-83 2q7 39 9 47h115q19 0 53 0.5t48 0.5q-4 -30 -8 -47z" />
    <glyph glyph-name="Uacute" unicode="&#xda;" horiz-adv-x="647" 
d="M510 844q18 -25 31 -55q-26 -13 -89 -44t-89 -44q-6 10 -20 35q27 17 86 55.5t81 52.5zM677 604l-64 -4l-58 -335q-24 -142 -100 -212q-67 -63 -172 -63q-104 0 -155 58q-35 39 -42 95t7 120l57 338l-65 2q3 17 9 47h105h123q-1 -3 -4 -20.5t-5 -26.5l-83 -2q-3 -1 -5 -6
l-57 -326q-20 -122 14 -173q35 -53 111 -53q72 0 123 47q54 49 76 171q4 22 25 149t30 186q0 5 -4 5l-83 2q7 39 9 47h115q19 0 53 0.5t48 0.5q-4 -30 -8 -47z" />
    <glyph glyph-name="Ucircumflex" unicode="&#xdb;" horiz-adv-x="647" 
d="M419 780q-16 -10 -58.5 -35.5t-61.5 -37.5q-15 15 -25 31q25 18 71.5 53t60.5 45h37q68 -68 97 -98q-14 -16 -29 -29q-10 8 -92 71zM677 604l-64 -4l-58 -335q-24 -142 -100 -212q-67 -63 -172 -63q-104 0 -155 58q-35 39 -42 95t7 120l57 338l-65 2q3 17 9 47h105h123
q-1 -3 -4 -20.5t-5 -26.5l-83 -2q-3 -1 -5 -6l-57 -326q-20 -122 14 -173q35 -53 111 -53q72 0 123 47q54 49 76 171q4 22 25 149t30 186q0 5 -4 5l-83 2q7 39 9 47h115q19 0 53 0.5t48 0.5q-4 -30 -8 -47z" />
    <glyph glyph-name="Udieresis" unicode="&#xdc;" horiz-adv-x="647" 
d="M336 805q20 0 29 -12t9 -28q0 -18 -12.5 -31.5t-31.5 -13.5q-17 0 -29 10.5t-12 26.5q0 19 12.5 33.5t34.5 14.5zM501 805q19 0 29 -12t10 -28q0 -19 -12 -32t-30 -13q-20 0 -31.5 11t-11.5 27q0 19 12 33t34 14zM677 604l-64 -4l-58 -335q-24 -142 -100 -212
q-67 -63 -172 -63q-104 0 -155 58q-35 39 -42 95t7 120l57 338l-65 2q3 17 9 47h105h123q-1 -3 -4 -20.5t-5 -26.5l-83 -2q-3 -1 -5 -6l-57 -326q-20 -122 14 -173q35 -53 111 -53q72 0 123 47q54 49 76 171q4 22 25 149t30 186q0 5 -4 5l-83 2q7 39 9 47h115q19 0 53 0.5
t48 0.5q-4 -30 -8 -47z" />
    <glyph glyph-name="Yacute" unicode="&#xdd;" horiz-adv-x="533" 
d="M457 844q18 -25 31 -55q-26 -13 -89 -44t-89 -44q-6 10 -20 35q27 17 86 55.5t81 52.5zM106 46l75 3q7 0 7 6l33 197q-38 102 -126 345q-2 4 -6 4l-51 3q1 5 4 21.5t5 24.5h90h134q-4 -26 -9 -46l-86 -4q44 -134 97 -291h7q143 204 192 287q1 2 0.5 3.5t-2.5 1.5l-80 2
q1 6 9 47h127q13 0 41 0.5t39 0.5q-4 -27 -9 -47l-48 -3q-7 -10 -106.5 -148t-146.5 -202l-35 -202l91 -3q-1 -5 -3 -14.5t-3.5 -17.5t-3.5 -15q-17 0 -59.5 0.5t-63.5 0.5q-19 0 -61 -0.5t-62 -0.5q8 38 10 47z" />
    <glyph glyph-name="Thorn" unicode="&#xde;" horiz-adv-x="527" 
d="M168 143l-16 -93l109 -3q-4 -27 -9 -47h-143q-71 0 -103 -1q6 32 9 47l60 3q6 1 6 6l91 546l-67 3q7 34 10 46h109h111q-4 -29 -9 -46l-76 -3q-4 0 -4 -5l-12 -68q6 0 17 0.5t16 0.5q88 0 139 -21q47 -18 71.5 -59t24.5 -88q0 -70 -39.5 -122t-93.5 -74q-61 -25 -148 -25
q-29 0 -53 3zM226 482l-49 -286q4 -9 51 -9q73 0 112 21q85 43 85 149q0 57 -37.5 92.5t-111.5 35.5q-44 0 -50 -3z" />
    <glyph glyph-name="germandbls" unicode="&#xdf;" horiz-adv-x="546" 
d="M37 416l78 3q5 0 6 7q11 68 30 111t55 78q66 63 145 63q64 0 101 -45q43 -54 29 -164q-12 -11 -43.5 -29.5t-44.5 -26.5q-58 -41 -58 -83q0 -24 13.5 -38t50.5 -34q50 -26 74.5 -53.5t24.5 -67.5q0 -75 -65 -116q-47 -31 -123 -31q-60 0 -96 17q4 82 6 122q14 2 44 2
l7 -71q0 -6 6 -12q22 -12 54 -12q42 0 67 19q31 23 31 66q0 28 -15.5 46t-51.5 36q-50 27 -73 50.5t-23 64.5q0 59 82 117q54 38 66 54q9 73 -20 108q-25 28 -63 28q-46 0 -82 -38q-38 -43 -66 -194q-46 -263 -101 -555q-22 -1 -67 -1q19 105 96 532h-81q1 7 3.5 23t3.5 24z
" />
    <glyph glyph-name="agrave" unicode="&#xe0;" horiz-adv-x="461" 
d="M227 637q25 -22 138 -133q-13 -17 -27 -29q-5 4 -64 50.5t-89 69.5q20 23 42 42zM291 117l-6 2q-118 -131 -189 -131q-18 3 -38.5 17.5t-31.5 34.5q-9 16 -9 40q0 65 32 150q28 77 79.5 138.5t115.5 61.5q56 0 99 -49h6l22 53q24 -7 55 -17q-50 -167 -93 -370q0 -6 5 -6
q14 0 68 18q6 -21 9 -42q-68 -26 -123 -26q-3 0 -13 8.5t-13 16.5q2 11 25 101zM245 376q-35 0 -65.5 -35.5t-50.5 -85.5q-38 -89 -38 -165q0 -21 9 -32.5t23 -11.5q34 0 98.5 60.5t79.5 100.5q10 30 31 120q-34 49 -87 49z" />
    <glyph glyph-name="aacute" unicode="&#xe1;" horiz-adv-x="461" 
d="M396 631q17 -16 36 -46q-22 -15 -77 -53t-82 -57q-10 10 -26 30q104 89 149 126zM291 117l-6 2q-118 -131 -189 -131q-18 3 -38.5 17.5t-31.5 34.5q-9 16 -9 40q0 65 32 150q28 77 79.5 138.5t115.5 61.5q56 0 99 -49h6l22 53q24 -7 55 -17q-50 -167 -93 -370q0 -6 5 -6
q14 0 68 18q6 -21 9 -42q-68 -26 -123 -26q-3 0 -13 8.5t-13 16.5q2 11 25 101zM245 376q-35 0 -65.5 -35.5t-50.5 -85.5q-38 -89 -38 -165q0 -21 9 -32.5t23 -11.5q34 0 98.5 60.5t79.5 100.5q10 30 31 120q-34 49 -87 49z" />
    <glyph glyph-name="acircumflex" unicode="&#xe2;" horiz-adv-x="461" 
d="M298 561q-19 -15 -57 -47.5t-47 -40.5q-10 10 -26 28q20 20 60.5 60t57.5 57h39q10 -14 24 -35t30 -46.5t24 -37.5q-15 -13 -31 -25q-37 45 -74 87zM291 117l-6 2q-118 -131 -189 -131q-18 3 -38.5 17.5t-31.5 34.5q-9 16 -9 40q0 65 32 150q28 77 79.5 138.5t115.5 61.5
q56 0 99 -49h6l22 53q24 -7 55 -17q-50 -167 -93 -370q0 -6 5 -6q14 0 68 18q6 -21 9 -42q-68 -26 -123 -26q-3 0 -13 8.5t-13 16.5q2 11 25 101zM245 376q-35 0 -65.5 -35.5t-50.5 -85.5q-38 -89 -38 -165q0 -21 9 -32.5t23 -11.5q34 0 98.5 60.5t79.5 100.5q10 30 31 120
q-34 49 -87 49z" />
    <glyph glyph-name="atilde" unicode="&#xe3;" horiz-adv-x="461" 
d="M253 595q6 0 12.5 -1.5t11.5 -3.5t11.5 -6t9.5 -6.5t9.5 -8t8.5 -6.5q27 -23 41 -23q25 0 36 53h36q-6 -45 -27 -74.5t-53 -29.5q-23 0 -55 28q-3 2 -10 8t-10.5 8.5t-8.5 5.5t-9.5 4.5t-8.5 1.5q-25 0 -40 -50h-37q8 45 31 72.5t52 27.5zM291 117l-6 2
q-118 -131 -189 -131q-18 3 -38.5 17.5t-31.5 34.5q-9 16 -9 40q0 65 32 150q28 77 79.5 138.5t115.5 61.5q56 0 99 -49h6l22 53q24 -7 55 -17q-50 -167 -93 -370q0 -6 5 -6q14 0 68 18q6 -21 9 -42q-68 -26 -123 -26q-3 0 -13 8.5t-13 16.5q2 11 25 101zM245 376
q-35 0 -65.5 -35.5t-50.5 -85.5q-38 -89 -38 -165q0 -21 9 -32.5t23 -11.5q34 0 98.5 60.5t79.5 100.5q10 30 31 120q-34 49 -87 49z" />
    <glyph glyph-name="adieresis" unicode="&#xe4;" horiz-adv-x="461" 
d="M219 578q20 0 29.5 -12t9.5 -26q0 -19 -13 -33t-31 -14t-29.5 10.5t-11.5 27.5q0 18 12.5 32.5t33.5 14.5zM375 578q18 0 28.5 -12.5t10.5 -26.5q0 -18 -12 -32t-32 -14q-19 0 -30 12t-11 26q0 18 12 32.5t34 14.5zM291 117l-6 2q-118 -131 -189 -131q-18 3 -38.5 17.5
t-31.5 34.5q-9 16 -9 40q0 65 32 150q28 77 79.5 138.5t115.5 61.5q56 0 99 -49h6l22 53q24 -7 55 -17q-50 -167 -93 -370q0 -6 5 -6q14 0 68 18q6 -21 9 -42q-68 -26 -123 -26q-3 0 -13 8.5t-13 16.5q2 11 25 101zM245 376q-35 0 -65.5 -35.5t-50.5 -85.5q-38 -89 -38 -165
q0 -21 9 -32.5t23 -11.5q34 0 98.5 60.5t79.5 100.5q10 30 31 120q-34 49 -87 49z" />
    <glyph glyph-name="aring" unicode="&#xe5;" horiz-adv-x="461" 
d="M311 651q36 0 59.5 -21t23.5 -51q0 -39 -30.5 -66.5t-72.5 -27.5q-35 0 -60 20.5t-25 53.5q0 39 31 65.5t74 26.5zM306 616q-23 0 -38 -14.5t-15 -39.5q0 -18 12.5 -30.5t29.5 -12.5q21 0 36.5 15t15.5 41q0 19 -12 30t-29 11zM291 117l-6 2q-118 -131 -189 -131
q-18 3 -38.5 17.5t-31.5 34.5q-9 16 -9 40q0 65 32 150q28 77 79.5 138.5t115.5 61.5q56 0 99 -49h6l22 53q24 -7 55 -17q-50 -167 -93 -370q0 -6 5 -6q14 0 68 18q6 -21 9 -42q-68 -26 -123 -26q-3 0 -13 8.5t-13 16.5q2 11 25 101zM245 376q-35 0 -65.5 -35.5t-50.5 -85.5
q-38 -89 -38 -165q0 -21 9 -32.5t23 -11.5q34 0 98.5 60.5t79.5 100.5q10 30 31 120q-34 49 -87 49z" />
    <glyph glyph-name="ae" unicode="&#xe6;" horiz-adv-x="660" 
d="M370 357h5q65 73 152 73q45 0 74.5 -31.5t30.5 -71.5q-2 -24 -17 -51.5t-34 -40.5q-71 -40 -215 -40q-13 -45 -13 -78q0 -35 18 -54t51 -19q60 0 157 53q6 -13 16 -39q-116 -68 -200 -68q-43 0 -73.5 27t-34.5 69q-1 8 -1 27l-4 2q-48 -55 -99 -90.5t-86 -36.5
q-17 3 -38.5 17.5t-31.5 35.5q-8 18 -8 38q0 68 32 154q12 33 29.5 65t42 63t57 50t66.5 19q67 0 124 -73zM503 382q-48 0 -82 -44q-31 -42 -47 -100q92 -2 145 25q40 21 40 55q0 27 -14.5 45.5t-41.5 18.5zM92 90q0 -20 9.5 -32t22.5 -12q34 0 94 56.5t79 98.5
q18 63 43 115q-33 60 -92 60q-67 0 -120 -125q-36 -86 -36 -161z" />
    <glyph glyph-name="ccedilla" unicode="&#xe7;" horiz-adv-x="360" 
d="M83 -68l62 58q-49 1 -86.5 35.5t-37.5 95.5q0 52 22.5 117.5t67.5 114.5q71 77 170 77q45 0 71 -19q-2 -14 -16.5 -35t-24.5 -27q-48 24 -73 24q-46 0 -77 -43q-27 -36 -45.5 -91.5t-18.5 -103.5q0 -91 76 -91q43 0 123 34q7 -16 12 -39q-50 -26 -99 -40l-65 -60
q24 -4 38.5 -20t14.5 -37q0 -38 -38 -63t-97 -27l1 35q35 2 56 14.5t21 33.5q0 35 -51 37q-1 3 -3 10t-3 10z" />
    <glyph glyph-name="egrave" unicode="&#xe8;" horiz-adv-x="404" 
d="M205 636q74 -70 138 -133l-27 -30q-139 109 -153 120q13 16 42 43zM22 108q0 53 24.5 122t70.5 121q69 79 150 79q50 0 79 -32.5t30 -73.5q-4 -27 -19 -53.5t-36 -37.5q-72 -38 -211 -38q-13 -45 -13 -77q0 -35 18 -54.5t50 -19.5q64 0 158 53q6 -13 16 -39
q-111 -68 -200 -68q-44 0 -80.5 31.5t-36.5 86.5zM247 382q-43 0 -78 -43q-33 -46 -49 -101q89 -2 142 25q41 20 41 55q0 26 -14.5 45t-41.5 19z" />
    <glyph glyph-name="eacute" unicode="&#xe9;" horiz-adv-x="404" 
d="M359 630q18 -18 36 -47q-94 -66 -159 -110q-15 17 -25 31q28 23 81.5 69t66.5 57zM22 108q0 53 24.5 122t70.5 121q69 79 150 79q50 0 79 -32.5t30 -73.5q-4 -27 -19 -53.5t-36 -37.5q-72 -38 -211 -38q-13 -45 -13 -77q0 -35 18 -54.5t50 -19.5q64 0 158 53
q6 -13 16 -39q-111 -68 -200 -68q-44 0 -80.5 31.5t-36.5 86.5zM247 382q-43 0 -78 -43q-33 -46 -49 -101q89 -2 142 25q41 20 41 55q0 26 -14.5 45t-41.5 19z" />
    <glyph glyph-name="ecircumflex" unicode="&#xea;" horiz-adv-x="404" 
d="M281 560q-19 -16 -59.5 -50t-45.5 -38q-18 18 -26 27q20 19 60.5 59t58.5 58q12 1 38 1q13 -19 42 -64t37 -56q-12 -11 -31 -24q-13 15 -40 47t-34 40zM22 108q0 53 24.5 122t70.5 121q69 79 150 79q50 0 79 -32.5t30 -73.5q-4 -27 -19 -53.5t-36 -37.5q-72 -38 -211 -38
q-13 -45 -13 -77q0 -35 18 -54.5t50 -19.5q64 0 158 53q6 -13 16 -39q-111 -68 -200 -68q-44 0 -80.5 31.5t-36.5 86.5zM247 382q-43 0 -78 -43q-33 -46 -49 -101q89 -2 142 25q41 20 41 55q0 26 -14.5 45t-41.5 19z" />
    <glyph glyph-name="edieresis" unicode="&#xeb;" horiz-adv-x="404" 
d="M204 577q20 0 29.5 -12t9.5 -27q0 -19 -12.5 -32.5t-31.5 -13.5q-18 0 -29.5 10.5t-11.5 27.5t12.5 32t33.5 15zM360 577q18 0 28.5 -12.5t10.5 -27.5q0 -18 -12 -31.5t-32 -13.5q-18 0 -29 12t-11 25q0 19 11.5 33.5t33.5 14.5zM22 108q0 53 24.5 122t70.5 121
q69 79 150 79q50 0 79 -32.5t30 -73.5q-4 -27 -19 -53.5t-36 -37.5q-72 -38 -211 -38q-13 -45 -13 -77q0 -35 18 -54.5t50 -19.5q64 0 158 53q6 -13 16 -39q-111 -68 -200 -68q-44 0 -80.5 31.5t-36.5 86.5zM247 382q-43 0 -78 -43q-33 -46 -49 -101q89 -2 142 25
q41 20 41 55q0 26 -14.5 45t-41.5 19z" />
    <glyph glyph-name="igrave" unicode="&#xec;" horiz-adv-x="251" 
d="M91 637q25 -22 138 -133q-13 -17 -27 -29q-5 4 -64 50.5t-89 69.5q20 23 42 42zM119 367l-85 -5q-2 30 -2 43q34 5 67.5 11t51 10t20.5 4q4 0 13.5 -9t13.5 -16q-7 -30 -86 -359q-2 -7 4 -7q16 0 75 16q5 -16 8 -42q-69 -22 -125 -22q-5 0 -18 10.5t-17 20.5q2 9 80 345z
" />
    <glyph glyph-name="iacute" unicode="&#xed;" horiz-adv-x="251" 
d="M263 631q15 -14 37 -46q-22 -15 -77 -53t-82 -57q-10 10 -26 30q133 114 148 126zM119 367l-85 -5q-2 30 -2 43q34 5 67.5 11t51 10t20.5 4q4 0 13.5 -9t13.5 -16q-7 -30 -86 -359q-2 -7 4 -7q16 0 75 16q5 -16 8 -42q-69 -22 -125 -22q-5 0 -18 10.5t-17 20.5
q2 9 80 345z" />
    <glyph glyph-name="icircumflex" unicode="&#xee;" horiz-adv-x="251" 
d="M176 561q-19 -15 -57 -47.5t-47 -40.5q-19 19 -26 28q20 20 60.5 60t57.5 57h38q6 -9 79 -119q-15 -13 -31 -25q-37 45 -74 87zM119 367l-85 -5q-2 30 -2 43q34 5 67.5 11t51 10t20.5 4q4 0 13.5 -9t13.5 -16q-7 -30 -86 -359q-2 -7 4 -7q16 0 75 16q5 -16 8 -42
q-69 -22 -125 -22q-5 0 -18 10.5t-17 20.5q2 9 80 345z" />
    <glyph glyph-name="idieresis" unicode="&#xef;" horiz-adv-x="251" 
d="M90 578q20 0 29.5 -11.5t9.5 -26.5q0 -19 -12.5 -33t-30.5 -14q-19 0 -30.5 10.5t-11.5 27.5t13 32t33 15zM246 578q18 0 29 -12.5t11 -26.5q0 -18 -12 -32t-33 -14q-18 0 -29 12t-11 26q0 18 11.5 32.5t33.5 14.5zM119 367l-85 -5q-2 30 -2 43q34 5 67.5 11t51 10
t20.5 4q4 0 13.5 -9t13.5 -16q-7 -30 -86 -359q-2 -7 4 -7q16 0 75 16q5 -16 8 -42q-69 -22 -125 -22q-5 0 -18 10.5t-17 20.5q2 9 80 345z" />
    <glyph glyph-name="eth" unicode="&#xf0;" horiz-adv-x="432" 
d="M23 131q0 68 27.5 132t70.5 103q57 52 124 52q48 0 79 -33l5 2q-10 95 -50 156q-10 -5 -58 -26t-76 -34q-11 21 -19 41q26 11 70 30.5t59 26.5q-48 61 -127 79q5 16 17 41q51 -8 94 -35t69 -62q16 8 35.5 17t44 20t37.5 17q12 -26 17 -44q-17 -7 -53 -23l-54 -24
q28 -42 43.5 -103t15.5 -119q0 -201 -98 -299q-58 -56 -139 -56q-67 0 -102 43q-32 36 -32 98zM99 134q0 -48 17 -72q17 -29 54 -29q49 0 85 48q27 36 47 96t20 119q0 21 -2 28.5t-11 19.5q-22 30 -66 30t-90 -55q-18 -22 -36 -75.5t-18 -109.5z" />
    <glyph glyph-name="ntilde" unicode="&#xf1;" horiz-adv-x="510" 
d="M270 593q9 0 19 -4t15 -7.5t15.5 -11.5t13.5 -10q27 -22 41 -22q25 0 36 52q19 2 36 0q-5 -45 -26.5 -74t-53.5 -29q-22 0 -56 28t-47 28q-24 0 -39 -50q-18 -2 -37 0q8 45 31 72.5t52 27.5zM120 367l-79 -8q-2 30 -2 43q29 5 59.5 12t48.5 11.5t20 4.5q5 0 13.5 -7
t12.5 -14q-2 -9 -11.5 -47t-15.5 -61l7 -3q56 65 112 98t94 34q44 -8 65 -51q6 -12 6 -32q0 -74 -80 -300q-2 -7 4 -7q15 0 72 16q4 -21 6 -42q-62 -23 -129 -23q-5 0 -15 9.5t-13 20.5q38 115 62 206q19 79 19 101q0 37 -31 37q-45 0 -112.5 -61t-80.5 -106
q-6 -22 -27 -108.5t-22 -89.5h-69q47 192 86 367z" />
    <glyph glyph-name="ograve" unicode="&#xf2;" horiz-adv-x="439" 
d="M210 636q37 -35 138 -133q-16 -20 -27 -30q-105 85 -153 120q13 16 42 43zM397 282q0 -64 -26 -126.5t-75 -110.5q-58 -55 -142 -55q-66 0 -101 43q-29 37 -29 92q0 73 27.5 139t74.5 110q61 56 140 56q58 0 93 -37q38 -40 38 -111zM171 34q51 0 88 47q26 31 44 88.5
t18 110.5q0 49 -16 75q-18 30 -55 30q-51 0 -93 -55q-22 -29 -39.5 -84t-17.5 -112q0 -47 16 -72q16 -28 55 -28z" />
    <glyph glyph-name="oacute" unicode="&#xf3;" horiz-adv-x="439" 
d="M365 630q18 -18 36 -47q-94 -66 -159 -110q-11 12 -26 31q10 8 149 126zM397 282q0 -64 -26 -126.5t-75 -110.5q-58 -55 -142 -55q-66 0 -101 43q-29 37 -29 92q0 73 27.5 139t74.5 110q61 56 140 56q58 0 93 -37q38 -40 38 -111zM171 34q51 0 88 47q26 31 44 88.5
t18 110.5q0 49 -16 75q-18 30 -55 30q-51 0 -93 -55q-22 -29 -39.5 -84t-17.5 -112q0 -47 16 -72q16 -28 55 -28z" />
    <glyph glyph-name="ocircumflex" unicode="&#xf4;" horiz-adv-x="439" 
d="M278 560q-3 -3 -105 -88q-18 18 -26 27q47 47 119 117q12 1 38 1q13 -19 42 -64t37 -56q-12 -11 -31 -24q-13 15 -40 47t-34 40zM397 282q0 -64 -26 -126.5t-75 -110.5q-58 -55 -142 -55q-66 0 -101 43q-29 37 -29 92q0 73 27.5 139t74.5 110q61 56 140 56q58 0 93 -37
q38 -40 38 -111zM171 34q51 0 88 47q26 31 44 88.5t18 110.5q0 49 -16 75q-18 30 -55 30q-51 0 -93 -55q-22 -29 -39.5 -84t-17.5 -112q0 -47 16 -72q16 -28 55 -28z" />
    <glyph glyph-name="otilde" unicode="&#xf5;" horiz-adv-x="439" 
d="M238 594q9 0 18.5 -4t15 -7t16.5 -11.5t13 -10.5q27 -22 40 -22q27 0 36 52q19 2 37 0q-5 -45 -26.5 -74t-53.5 -29q-22 0 -56 28t-47 28q-24 0 -39 -51q-25 0 -37 1q8 45 31 72.5t52 27.5zM397 282q0 -64 -26 -126.5t-75 -110.5q-58 -55 -142 -55q-66 0 -101 43
q-29 37 -29 92q0 73 27.5 139t74.5 110q61 56 140 56q58 0 93 -37q38 -40 38 -111zM171 34q51 0 88 47q26 31 44 88.5t18 110.5q0 49 -16 75q-18 30 -55 30q-51 0 -93 -55q-22 -29 -39.5 -84t-17.5 -112q0 -47 16 -72q16 -28 55 -28z" />
    <glyph glyph-name="odieresis" unicode="&#xf6;" horiz-adv-x="439" 
d="M212 577q20 0 29.5 -12t9.5 -27q0 -19 -12.5 -32.5t-30.5 -13.5q-19 0 -30.5 10.5t-11.5 27.5t12.5 32t33.5 15zM368 577q18 0 29 -13t11 -27q0 -18 -12.5 -31.5t-32.5 -13.5q-18 0 -29 12t-11 25q0 19 11.5 33.5t33.5 14.5zM397 282q0 -64 -26 -126.5t-75 -110.5
q-58 -55 -142 -55q-66 0 -101 43q-29 37 -29 92q0 73 27.5 139t74.5 110q61 56 140 56q58 0 93 -37q38 -40 38 -111zM171 34q51 0 88 47q26 31 44 88.5t18 110.5q0 49 -16 75q-18 30 -55 30q-51 0 -93 -55q-22 -29 -39.5 -84t-17.5 -112q0 -47 16 -72q16 -28 55 -28z" />
    <glyph glyph-name="divide" unicode="&#xf7;" horiz-adv-x="512" 
d="M254 426q20 0 33 -14t13 -34q0 -19 -12.5 -34.5t-33.5 -15.5q-23 0 -36 15.5t-13 34.5q0 20 13.5 34t35.5 14zM453 266q2 -25 -2 -55q-275 0 -397 -1q0 36 1 53q64 1 201.5 2t196.5 1zM253 148q21 0 33.5 -14.5t12.5 -35.5q0 -19 -12 -34t-32 -15q-24 0 -37 15t-13 35
t13 34.5t35 14.5z" />
    <glyph glyph-name="oslash" unicode="&#xf8;" horiz-adv-x="439" 
d="M265 430q53 0 80 -29q31 35 49 56q17 -13 32 -31q-19 -22 -51 -59q22 -35 22 -87q0 -62 -25.5 -125t-74.5 -110q-58 -55 -134 -55q-56 0 -89 30q-7 -7 -26 -26.5t-29 -29.5q-21 16 -29 27q9 9 27.5 29.5t28.5 30.5q-22 35 -22 81q0 69 28 133.5t75 109.5q59 55 138 55z
M250 385q-53 0 -95 -57q-22 -28 -41 -79.5t-19 -101.5q0 -27 3 -47q61 73 211 255q-16 30 -59 30zM175 34q50 0 89 49q27 32 45 81.5t18 102.5q0 21 -2 49q-118 -141 -213 -252q20 -30 63 -30z" />
    <glyph glyph-name="ugrave" unicode="&#xf9;" horiz-adv-x="487" 
d="M218 637q26 -24 79.5 -75.5t59.5 -57.5q-18 -20 -28 -29q-19 15 -72 57t-80 63q23 27 41 42zM116 367l-75 -7q-2 16 -4 42q30 5 63 12t51 11.5t20 4.5q5 0 14 -9t11 -18q-37 -113 -61 -222q-15 -69 -15 -94q0 -38 31 -38q36 0 100 61.5t75 100.5q11 38 46 208q24 1 70 1
q-65 -297 -80 -372q-2 -6 4 -6q18 0 72 17q6 -21 9 -42q-69 -26 -123 -26q-4 0 -13.5 9t-14.5 18q11 57 20 97l-6 1q-115 -126 -185 -128q-39 6 -65 42q-11 15 -11 42q0 72 67 295z" />
    <glyph glyph-name="uacute" unicode="&#xfa;" horiz-adv-x="487" 
d="M402 631q15 -14 37 -46q-13 -9 -72 -49.5t-88 -60.5q-9 10 -25 30q133 114 148 126zM116 367l-75 -7q-2 16 -4 42q30 5 63 12t51 11.5t20 4.5q5 0 14 -9t11 -18q-37 -113 -61 -222q-15 -69 -15 -94q0 -38 31 -38q36 0 100 61.5t75 100.5q11 38 46 208q24 1 70 1
q-65 -297 -80 -372q-2 -6 4 -6q18 0 72 17q6 -21 9 -42q-69 -26 -123 -26q-4 0 -13.5 9t-14.5 18q11 57 20 97l-6 1q-115 -126 -185 -128q-39 6 -65 42q-11 15 -11 42q0 72 67 295z" />
    <glyph glyph-name="ucircumflex" unicode="&#xfb;" horiz-adv-x="487" 
d="M314 561q-2 -2 -105 -88q-10 10 -26 28q47 47 119 117h38q13 -18 41 -61.5t38 -57.5q-2 -2 -31 -25q-1 1 -30.5 36t-43.5 51zM116 367l-75 -7q-2 16 -4 42q30 5 63 12t51 11.5t20 4.5q5 0 14 -9t11 -18q-37 -113 -61 -222q-15 -69 -15 -94q0 -38 31 -38q36 0 100 61.5
t75 100.5q11 38 46 208q24 1 70 1q-65 -297 -80 -372q-2 -6 4 -6q18 0 72 17q6 -21 9 -42q-69 -26 -123 -26q-4 0 -13.5 9t-14.5 18q11 57 20 97l-6 1q-115 -126 -185 -128q-39 6 -65 42q-11 15 -11 42q0 72 67 295z" />
    <glyph glyph-name="udieresis" unicode="&#xfc;" horiz-adv-x="487" 
d="M228 578q20 0 29.5 -12t9.5 -26q0 -19 -12.5 -33t-30.5 -14q-19 0 -30.5 10.5t-11.5 27.5t13 32t33 15zM384 578q18 0 29 -12.5t11 -26.5q0 -18 -12 -32t-33 -14q-18 0 -29 12t-11 26q0 18 11.5 32.5t33.5 14.5zM116 367l-75 -7q-2 16 -4 42q30 5 63 12t51 11.5t20 4.5
q5 0 14 -9t11 -18q-37 -113 -61 -222q-15 -69 -15 -94q0 -38 31 -38q36 0 100 61.5t75 100.5q11 38 46 208q24 1 70 1q-65 -297 -80 -372q-2 -6 4 -6q18 0 72 17q6 -21 9 -42q-69 -26 -123 -26q-4 0 -13.5 9t-14.5 18q11 57 20 97l-6 1q-115 -126 -185 -128q-39 6 -65 42
q-11 15 -11 42q0 72 67 295z" />
    <glyph glyph-name="yacute" unicode="&#xfd;" horiz-adv-x="430" 
d="M356 631q17 -16 36 -46q-94 -66 -159 -110q-18 20 -25 30q133 114 148 126zM86 366l-77 -14q-3 22 -6 42q28 8 58 17t46 14t18 5q14 0 30 -22q23 -240 39 -383h5q48 76 72 129q69 148 69 211q0 9 -9 9l-59 -6l-3 42q20 3 47.5 8t43.5 8t20 3q5 0 18 -13.5t13 -18.5
q0 -46 -30.5 -124.5t-67.5 -147.5q-81 -148 -207 -286q-33 -35 -64 -60t-39 -25q-13 0 -32.5 17.5t-20.5 32.5q54 26 102 65q54 43 87 90q-21 131 -53 407z" />
    <glyph glyph-name="thorn" unicode="&#xfe;" horiz-adv-x="470" 
d="M148 286l8 -3q110 147 202 148q23 -3 42.5 -19.5t28.5 -37.5q7 -15 7 -35q0 -124 -58 -227q-27 -50 -71.5 -86t-100.5 -36q-59 0 -100 38q-19 -99 -53 -263q-22 -1 -67 -1q8 43 65 342.5t85 450.5l-82 -4v43q39 5 70.5 10.5t45.5 9t16 3.5q5 0 14 -7.5t13 -14.5
q-53 -259 -65 -311zM362 321q0 47 -36 47q-43 0 -109.5 -68.5t-80.5 -116.5q-7 -25 -20 -98q32 -46 87 -46q38 0 68 26t47 63q44 91 44 193z" />
    <glyph glyph-name="ydieresis" unicode="&#xff;" horiz-adv-x="430" 
d="M190 578q20 0 29.5 -12t9.5 -26q0 -19 -12.5 -33t-30.5 -14q-19 0 -30.5 10.5t-11.5 27.5q0 18 12.5 32.5t33.5 14.5zM346 578q18 0 28.5 -12.5t10.5 -26.5q0 -18 -12 -32t-32 -14q-18 0 -29 12t-11 26q0 18 11.5 32.5t33.5 14.5zM86 366l-77 -14q-3 22 -6 42q28 8 58 17
t46 14t18 5q14 0 30 -22q23 -240 39 -383h5q48 76 72 129q69 148 69 211q0 9 -9 9l-59 -6l-3 42q20 3 47.5 8t43.5 8t20 3q5 0 18 -13.5t13 -18.5q0 -46 -30.5 -124.5t-67.5 -147.5q-81 -148 -207 -286q-33 -35 -64 -60t-39 -25q-13 0 -32.5 17.5t-20.5 32.5q54 26 102 65
q54 43 87 90q-21 131 -53 407z" />
    <glyph glyph-name="Amacron" unicode="&#x100;" horiz-adv-x="585" 
d="M484 787q-2 -18 -10 -51q-30 0 -103 0.5t-106 0.5q3 26 9 48q140 2 210 2zM-48 46l53 3q3 0 8 5q56 100 173.5 318t154.5 286q20 2 53 2q20 -104 61 -328.5t52 -282.5l60 -3q-3 -25 -9 -46h-91q-23 0 -66.5 -0.5t-61.5 -0.5q2 19 8 47l79 3q4 0 4 6q-3 14 -8 44.5
t-9.5 55t-8.5 43.5q0 5 -6 5l-241 -2q-17 -31 -77 -152l89 -3q-1 -8 -4 -23t-4 -23h-132q-15 0 -44 -0.5t-42 -0.5q8 44 9 47zM345 549h-7q-15 -29 -70.5 -135t-83.5 -158q-3 -5 2 -5l210 -1q-7 38 -24.5 143t-26.5 156z" />
    <glyph glyph-name="amacron" unicode="&#x101;" horiz-adv-x="461" 
d="M404 554q-1 -18 -9 -47q-136 0 -201 1q3 20 8 44q136 2 202 2zM291 117l-6 2q-118 -131 -189 -131q-18 3 -38.5 17.5t-31.5 34.5q-9 16 -9 40q0 65 32 150q28 77 79.5 138.5t115.5 61.5q56 0 99 -49h6l22 53q24 -7 55 -17q-50 -167 -93 -370q0 -6 5 -6q14 0 68 18
q6 -21 9 -42q-68 -26 -123 -26q-3 0 -13 8.5t-13 16.5q2 11 25 101zM245 376q-35 0 -65.5 -35.5t-50.5 -85.5q-38 -89 -38 -165q0 -21 9 -32.5t23 -11.5q34 0 98.5 60.5t79.5 100.5q10 30 31 120q-34 49 -87 49z" />
    <glyph glyph-name="Abreve" unicode="&#x102;" horiz-adv-x="585" 
d="M457 834q27 -4 46 -9q-13 -40 -49.5 -69t-87.5 -29q-46 0 -74.5 29t-34.5 69q18 6 46 12q17 -56 69 -56q57 0 85 53zM-48 46l53 3q3 0 8 5q56 100 173.5 318t154.5 286q20 2 53 2q20 -104 61 -328.5t52 -282.5l60 -3q-3 -25 -9 -46h-91q-23 0 -66.5 -0.5t-61.5 -0.5
q2 19 8 47l79 3q4 0 4 6q-3 14 -8 44.5t-9.5 55t-8.5 43.5q0 5 -6 5l-241 -2q-17 -31 -77 -152l89 -3q-1 -8 -4 -23t-4 -23h-132q-15 0 -44 -0.5t-42 -0.5q8 44 9 47zM345 549h-7q-15 -29 -70.5 -135t-83.5 -158q-3 -5 2 -5l210 -1q-7 38 -24.5 143t-26.5 156z" />
    <glyph glyph-name="abreve" unicode="&#x103;" horiz-adv-x="461" 
d="M303 487q-42 0 -68 29t-30 67q32 10 39 11q17 -57 67 -57q51 0 77 54q26 -4 41 -9q-12 -38 -45 -66.5t-81 -28.5zM291 117l-6 2q-118 -131 -189 -131q-18 3 -38.5 17.5t-31.5 34.5q-9 16 -9 40q0 65 32 150q28 77 79.5 138.5t115.5 61.5q56 0 99 -49h6l22 53
q24 -7 55 -17q-50 -167 -93 -370q0 -6 5 -6q14 0 68 18q6 -21 9 -42q-68 -26 -123 -26q-3 0 -13 8.5t-13 16.5q2 11 25 101zM245 376q-35 0 -65.5 -35.5t-50.5 -85.5q-38 -89 -38 -165q0 -21 9 -32.5t23 -11.5q34 0 98.5 60.5t79.5 100.5q10 30 31 120q-34 49 -87 49z" />
    <glyph glyph-name="Aogonek" unicode="&#x104;" horiz-adv-x="585" 
d="M345 549h-7q-15 -29 -70.5 -135t-83.5 -158q-3 -5 2 -5l210 -1q-7 38 -24.5 143t-26.5 156zM558 0h-38q-38 -2 -85 -45t-47 -82q0 -16 10 -24.5t24 -8.5q27 0 55 22q10 -13 13 -30q-50 -45 -99 -45q-32 0 -54.5 20t-22.5 52q0 39 36 77.5t83 63.5q-8 0 -47.5 -0.5
t-46.5 -0.5q2 19 8 47l79 3q4 0 4 6q-3 14 -8 44.5t-9.5 55t-8.5 43.5q0 5 -6 5l-241 -2q-17 -31 -77 -152l89 -3q-1 -8 -4 -23t-4 -23h-132q-15 0 -44 -0.5t-42 -0.5q8 44 9 47l53 3q3 0 8 5q56 100 173.5 318t154.5 286q32 2 53 2q20 -104 61 -328.5t52 -282.5l60 -3
q-3 -25 -9 -46z" />
    <glyph glyph-name="aogonek" unicode="&#x105;" horiz-adv-x="461" 
d="M415 17q-29 -10 -59 -18q-46 -27 -78.5 -60.5t-32.5 -65.5q0 -16 10 -24.5t24 -8.5q27 0 55 22q10 -13 13 -30q-52 -45 -98 -45q-32 0 -55 19t-23 49q0 67 115 139q-17 14 -20 21q2 12 25 102l-6 2q-118 -131 -189 -131q-18 3 -38.5 17.5t-31.5 34.5q-9 16 -9 40
q0 65 32 150q28 77 79.5 138.5t115.5 61.5q56 0 99 -49h6l22 53q24 -7 55 -17q-50 -167 -93 -370q0 -6 5 -6q14 0 68 18q6 -21 9 -42zM245 376q-35 0 -65.5 -35.5t-50.5 -85.5q-38 -89 -38 -165q0 -21 9 -32.5t23 -11.5q34 0 98.5 60.5t79.5 100.5q10 30 31 120
q-34 49 -87 49z" />
    <glyph glyph-name="Cacute" unicode="&#x106;" horiz-adv-x="572" 
d="M523 844q16 -24 31 -54q-23 -11 -86.5 -42.5t-92.5 -45.5q-15 24 -19 34q109 71 167 108zM507 464l3 111q0 11 -5 14q-26 16 -82 16q-93 0 -160 -61q-61 -53 -93 -128.5t-32 -150.5q0 -96 38 -149q21 -31 60 -50.5t87 -19.5q64 0 176 38q3 -22 3 -50q-125 -44 -197 -44
q-105 0 -176 66q-73 67 -73 196q0 103 50 193t123 144q96 71 225 71q81 0 125 -22q-4 -29 -10.5 -86t-10.5 -86q-8 -1 -25.5 -1.5t-25.5 -0.5z" />
    <glyph glyph-name="cacute" unicode="&#x107;" horiz-adv-x="360" 
d="M343 631q17 -16 36 -46q-94 -66 -159 -110q-18 20 -26 30q104 89 149 126zM21 121q0 52 22.5 117.5t67.5 114.5q71 77 170 77q45 0 71 -19q-2 -14 -16.5 -35t-24.5 -27q-48 24 -73 24q-46 0 -77 -43q-27 -36 -45.5 -91.5t-18.5 -103.5q0 -91 76 -91q43 0 123 34
q7 -16 12 -39q-96 -49 -160 -49q-50 0 -88.5 34.5t-38.5 96.5z" />
    <glyph glyph-name="Ccaron" unicode="&#x10c;" horiz-adv-x="572" 
d="M419 768q12 7 57 34t65 40q7 -8 21 -30q-8 -6 -134 -99q-23 0 -34 1q-32 33 -99 98q16 19 28 29q55 -41 96 -73zM507 464l3 111q0 11 -5 14q-26 16 -82 16q-93 0 -160 -61q-61 -53 -93 -128.5t-32 -150.5q0 -96 38 -149q21 -31 60 -50.5t87 -19.5q64 0 176 38
q3 -22 3 -50q-125 -44 -197 -44q-105 0 -176 66q-73 67 -73 196q0 103 50 193t123 144q96 71 225 71q81 0 125 -22q-4 -29 -10.5 -86t-10.5 -86q-8 -1 -25.5 -1.5t-25.5 -0.5z" />
    <glyph glyph-name="ccaron" unicode="&#x10d;" horiz-adv-x="360" 
d="M250 540q19 15 56.5 47t52.5 44q19 -16 27 -26l-57.5 -57.5t-66.5 -64.5q-27 0 -39 1q-14 21 -41 65t-39 62q13 11 31 21q66 -80 76 -92zM21 121q0 52 22.5 117.5t67.5 114.5q71 77 170 77q45 0 71 -19q-2 -14 -16.5 -35t-24.5 -27q-48 24 -73 24q-46 0 -77 -43
q-27 -36 -45.5 -91.5t-18.5 -103.5q0 -91 76 -91q43 0 123 34q7 -16 12 -39q-96 -49 -160 -49q-50 0 -88.5 34.5t-38.5 96.5z" />
    <glyph glyph-name="Dcaron" unicode="&#x10e;" horiz-adv-x="668" 
d="M397 768q115 70 121 74q9 -8 22 -30q-23 -17 -71.5 -52.5t-63.5 -46.5q-23 0 -33 1q-66 66 -100 98q12 15 28 29q42 -30 97 -73zM112 649q106 2 199 2q143 0 223 -57q51 -36 75 -94.5t24 -120.5q0 -98 -44.5 -184t-116.5 -135q-89 -61 -240 -61q-21 0 -64.5 0.5
t-53.5 0.5q-17 0 -55.5 -0.5t-57.5 -0.5q3 21 8 47l66 2q7 0 7 7l93 545l-72 3q1 5 4 21.5t5 24.5zM251 601l-91 -517q-4 -23 10.5 -31t69.5 -8q131 0 201 61q46 40 78 107.5t32 158.5q0 106 -55 166q-64 67 -188 67q-40 0 -57 -4z" />
    <glyph glyph-name="dcaron" unicode="&#x10f;" horiz-adv-x="543" 
d="M619 697q-43 -108 -88 -187q-15 0 -41 7q33 81 62 182q39 5 67 -2zM303 120l-6 2q-54 -63 -107 -98t-88 -36q-20 2 -41 16.5t-33 35.5q-10 16 -10 40q0 64 33 153q29 77 81 137t120 60q56 0 101 -36h5q9 40 55 241l-89 -4q-2 30 -2 42q36 5 71 11.5t53.5 11t20.5 4.5
q11 0 26 -22q-5 -22 -40 -171.5t-67 -288t-39 -171.5q-2 -6 5 -6q17 0 62 16q6 -20 9 -41q-66 -25 -117 -25q-4 0 -14.5 8.5t-13.5 16.5q1 7 4.5 21t9.5 38.5t11 44.5zM129 46q40 0 107.5 64.5t79.5 105.5q20 81 28 121q-32 39 -89 39q-40 0 -73.5 -36.5t-54.5 -90.5
q-35 -89 -35 -156q0 -47 37 -47z" />
    <glyph glyph-name="Dcroat" unicode="&#x110;" horiz-adv-x="668" 
d="M175 600l-72 3q1 5 4 21.5t5 24.5q106 2 199 2q144 0 223 -57q52 -37 75.5 -95t23.5 -118q0 -99 -45 -185t-117 -136q-88 -61 -239 -61q-21 0 -64.5 0.5t-53.5 0.5q-17 0 -55.5 -0.5t-57.5 -0.5q3 21 8 47l66 2q7 0 7 7l41 246h-91q1 6 3.5 21.5t4.5 21.5q15 0 45 0.5
t46 0.5zM197 301l-37 -217q-4 -23 10.5 -31t69.5 -8q129 0 201 61q46 40 78 108t32 161q0 103 -55 163q-64 67 -188 67q-39 0 -58 -4l-45 -256q23 0 78 0.5t91 0.5q-1 -7 -9 -45h-168z" />
    <glyph glyph-name="dcroat" unicode="&#x111;" horiz-adv-x="478" 
d="M413 635l-89 -4q-2 30 -2 42q36 5 71 11.5t53.5 11t20.5 4.5q11 0 26 -22q-11 -50 -30 -132q12 0 36 0.5t36 0.5q-2 -19 -5 -41h-77q-14 -59 -40 -171.5t-43 -186t-23 -101.5q-2 -6 5 -6q17 0 62 16q6 -20 9 -41q-66 -25 -117 -25q-4 0 -14.5 8.5t-13.5 16.5q1 7 4.5 21
t9.5 38.5t11 44.5l-6 2q-54 -63 -107 -98t-88 -36q-20 2 -41 16.5t-33 35.5q-10 16 -10 40q0 64 33 153q29 77 81 137t120 60q56 0 101 -36h5q15 61 26 112h-135q4 25 5 39q24 0 70 0.5t69 0.5q18 81 20 89zM129 46q40 0 107.5 64.5t79.5 105.5q20 81 28 121q-32 39 -89 39
q-40 0 -73.5 -36.5t-54.5 -90.5q-35 -89 -35 -156q0 -47 37 -47z" />
    <glyph glyph-name="Emacron" unicode="&#x112;" horiz-adv-x="532" 
d="M453 787q-1 -6 -4.5 -24t-5.5 -27q-31 0 -104 0.5t-106 0.5q3 26 9 48q140 2 211 2zM9 46l68 3q4 0 6 4l91 548l-73 2q6 32 9 47h113h216h81q-13 -109 -19 -154q-26 -2 -45 -2l1 85q0 16 -22 19q-52 4 -177 4q-8 0 -9 -4l-41 -243q27 0 79.5 0.5t78.5 1.5q25 1 29 20
l13 48q24 1 46 0q-7 -43 -17 -95q-14 -82 -16 -94q-15 -1 -47 -1l5 50q1 13 -4 17.5t-20 4.5q-47 1 -156 1l-40 -241q-2 -13 6.5 -16.5t46.5 -3.5q123 0 157 8q14 3 23 20l44 91q21 -4 43 -13q-44 -129 -53 -154q-15 0 -124 0.5t-186 0.5q-21 0 -60 -0.5t-56 -0.5q6 32 9 47
z" />
    <glyph glyph-name="emacron" unicode="&#x113;" horiz-adv-x="404" 
d="M376 554q-4 -26 -9 -47q-137 0 -201 1q5 32 8 44q134 2 202 2zM22 108q0 53 24.5 122t70.5 121q69 79 150 79q50 0 79 -32.5t30 -73.5q-4 -27 -19 -53.5t-36 -37.5q-72 -38 -211 -38q-13 -45 -13 -77q0 -35 18 -54.5t50 -19.5q64 0 158 53q6 -13 16 -39
q-111 -68 -200 -68q-44 0 -80.5 31.5t-36.5 86.5zM247 382q-43 0 -78 -43q-33 -46 -49 -101q89 -2 142 25q41 20 41 55q0 26 -14.5 45t-41.5 19z" />
    <glyph glyph-name="Edotaccent" unicode="&#x116;" horiz-adv-x="532" 
d="M352 819q23 0 35.5 -15.5t12.5 -33.5q0 -20 -16.5 -36t-36.5 -16q-21 0 -36 15t-15 35q0 19 15.5 35t40.5 16zM9 46l68 3q4 0 6 4l91 548l-73 2q6 32 9 47h113h216h81q-13 -109 -19 -154q-26 -2 -45 -2l1 85q0 16 -22 19q-52 4 -177 4q-8 0 -9 -4l-41 -243q27 0 79.5 0.5
t78.5 1.5q25 1 29 20l13 48q24 1 46 0q-7 -43 -17 -95q-14 -82 -16 -94q-15 -1 -47 -1l5 50q1 13 -4 17.5t-20 4.5q-47 1 -156 1l-40 -241q-2 -13 6.5 -16.5t46.5 -3.5q123 0 157 8q14 3 23 20l44 91q21 -4 43 -13q-44 -129 -53 -154q-15 0 -124 0.5t-186 0.5
q-21 0 -60 -0.5t-56 -0.5q6 32 9 47z" />
    <glyph glyph-name="edotaccent" unicode="&#x117;" horiz-adv-x="404" 
d="M291 623q23 0 35.5 -15.5t12.5 -33.5q0 -20 -16 -36t-36 -16q-22 0 -37 15t-15 35q0 19 15.5 35t40.5 16zM22 108q0 53 24.5 122t70.5 121q69 79 150 79q50 0 79 -32.5t30 -73.5q-4 -27 -19 -53.5t-36 -37.5q-72 -38 -211 -38q-13 -45 -13 -77q0 -35 18 -54.5t50 -19.5
q64 0 158 53q6 -13 16 -39q-111 -68 -200 -68q-44 0 -80.5 31.5t-36.5 86.5zM247 382q-43 0 -78 -43q-33 -46 -49 -101q89 -2 142 25q41 20 41 55q0 26 -14.5 45t-41.5 19z" />
    <glyph glyph-name="Eogonek" unicode="&#x118;" horiz-adv-x="532" 
d="M426 -1q-61 -27 -95 -61t-34 -65q0 -16 10 -24.5t25 -8.5q26 0 55 22q10 -13 13 -30q-52 -45 -99 -45q-31 0 -54.5 19t-23.5 49q0 70 127 144q-15 0 -86 0.5t-148 0.5q-21 0 -60 -0.5t-56 -0.5q6 32 9 47l68 3q4 0 6 4l91 548l-73 2q6 32 9 47h113h216h81
q-13 -109 -19 -154q-26 -2 -45 -2l1 85q0 16 -22 19q-52 4 -177 4q-8 0 -9 -4l-41 -243q27 0 79.5 0.5t78.5 1.5q25 1 29 20l13 48q24 1 46 0q-7 -43 -17 -95q-14 -82 -16 -94q-15 -1 -47 -1l5 50q1 13 -4 17.5t-20 4.5q-47 1 -156 1l-40 -241q-2 -13 6.5 -16.5t46.5 -3.5
q123 0 157 8q14 3 23 20l44 91q21 -4 43 -13q-41 -119 -53 -154z" />
    <glyph glyph-name="eogonek" unicode="&#x119;" horiz-adv-x="404" 
d="M247 382q-43 0 -78 -43q-33 -46 -49 -101q89 -2 142 25q41 20 41 55q0 26 -14.5 45t-41.5 19zM337 56q-41 -26 -94 -87.5t-53 -95.5q0 -16 10 -24.5t24 -8.5q27 0 55 22q10 -13 13 -30q-52 -45 -98 -45q-32 0 -55.5 19t-23.5 49q0 68 108 152q-45 -17 -84 -17
q-44 0 -80.5 32t-36.5 87q0 52 24.5 121t70.5 121q69 79 150 79q50 0 79 -32.5t30 -73.5q-4 -27 -19 -53.5t-36 -37.5q-72 -38 -211 -38q-13 -45 -13 -77q0 -35 18 -54.5t50 -19.5q64 0 158 53q7 -14 14 -41z" />
    <glyph glyph-name="Ecaron" unicode="&#x11a;" horiz-adv-x="532" 
d="M349 768q115 70 121 74q9 -8 22 -30q-23 -17 -71.5 -52.5t-63.5 -46.5q-23 0 -33 1q-66 66 -100 98q12 15 28 29q42 -30 97 -73zM9 46l68 3q4 0 6 4l91 548l-73 2q6 32 9 47h113h216h81q-13 -109 -19 -154q-26 -2 -45 -2l1 85q0 16 -22 19q-52 4 -177 4q-8 0 -9 -4
l-41 -243q27 0 79.5 0.5t78.5 1.5q25 1 29 20l13 48q24 1 46 0q-7 -43 -17 -95q-14 -82 -16 -94q-15 -1 -47 -1l5 50q1 13 -4 17.5t-20 4.5q-47 1 -156 1l-40 -241q-2 -13 6.5 -16.5t46.5 -3.5q123 0 157 8q14 3 23 20l44 91q21 -4 43 -13q-44 -129 -53 -154q-15 0 -124 0.5
t-186 0.5q-21 0 -60 -0.5t-56 -0.5q6 32 9 47z" />
    <glyph glyph-name="ecaron" unicode="&#x11b;" horiz-adv-x="404" 
d="M267 540q22 17 65 54l44 37q18 -14 27 -26l-57.5 -57.5t-66.5 -64.5q-26 0 -39 1q-14 21 -41 65t-39 62q24 17 31 21q12 -14 38 -46t38 -46zM22 108q0 53 24.5 122t70.5 121q69 79 150 79q50 0 79 -32.5t30 -73.5q-4 -27 -19 -53.5t-36 -37.5q-72 -38 -211 -38
q-13 -45 -13 -77q0 -35 18 -54.5t50 -19.5q64 0 158 53q6 -13 16 -39q-111 -68 -200 -68q-44 0 -80.5 31.5t-36.5 86.5zM247 382q-43 0 -78 -43q-33 -46 -49 -101q89 -2 142 25q41 20 41 55q0 26 -14.5 45t-41.5 19z" />
    <glyph glyph-name="Gbreve" unicode="&#x11e;" horiz-adv-x="640" 
d="M514 832q30 -4 45 -10q-13 -40 -49.5 -68.5t-87.5 -28.5q-46 0 -74.5 29t-33.5 69q42 11 46 12q17 -56 69 -56q57 0 85 53zM606 233l-50 -2q-5 0 -5 -4l-36 -202q-53 -35 -183 -35q-129 0 -204 75q-72 73 -72 191q0 104 51 196t126 142q100 66 234 66q95 0 140 -32
q-6 -54 -20 -162l-51 -3l4 101q0 12 -7 18q-31 27 -100 27q-98 0 -172 -62q-52 -43 -87 -119.5t-35 -164.5q0 -94 40 -145q62 -81 179 -81q26 0 47.5 4t32 9.5t11.5 10.5l27 170l-104 3q2 19 8 47h143h92q-3 -24 -9 -48z" />
    <glyph glyph-name="gbreve" unicode="&#x11f;" horiz-adv-x="426" 
d="M245 487q-42 0 -68 29t-30 67q32 10 39 11q17 -57 67 -57q52 0 78 54q26 -4 40 -9q-12 -38 -45 -66.5t-81 -28.5zM40 223q0 78 55 142.5t140 64.5q41 0 63 -9q8 -2 14 -2q86 0 138 2q0 -31 -1 -46q-17 -1 -50 -2t-50 -2v-4q20 -26 20 -74q0 -69 -37 -125
q-62 -93 -178 -81q-20 -13 -30 -20t-18 -15.5t-8 -15.5q0 -20 107 -30q10 -1 16 -2q87 -8 113 -25q18 -10 30.5 -30t12.5 -41q0 -61 -65.5 -107.5t-190.5 -46.5q-80 0 -130 26.5t-50 72.5q0 38 23 53q33 21 108 65l1 5q-48 15 -48 61q0 8 13 19t67 43v5q-65 34 -65 119z
M114 217q0 -91 72 -91q44 0 76.5 47t32.5 118q0 46 -13 69q-16 29 -55 29q-49 0 -81 -50.5t-32 -121.5zM304 -107q0 28 -18.5 38t-73.5 17q-64 8 -87 11q-7 -4 -21 -13q-36 -22 -51 -32.5t-27.5 -25.5t-12.5 -31q0 -30 36.5 -45.5t84.5 -15.5q74 0 122 25.5t48 71.5z" />
    <glyph glyph-name="uni0122" unicode="&#x122;" horiz-adv-x="640" 
d="M357 -125q0 -50 -35 -93t-84 -69q-13 15 -23 31q71 46 71 89q0 28 -39 39q1 30 18.5 48.5t40.5 18.5q20 0 35.5 -19t15.5 -45zM606 233l-50 -2q-5 0 -5 -4l-36 -202q-53 -35 -183 -35q-129 0 -204 75q-72 73 -72 191q0 104 51 196t126 142q100 66 234 66q95 0 140 -32
q-6 -54 -20 -162l-51 -3l4 101q0 12 -7 18q-31 27 -100 27q-98 0 -172 -62q-52 -43 -87 -119.5t-35 -164.5q0 -94 40 -145q62 -81 179 -81q26 0 47.5 4t32 9.5t11.5 10.5l27 170l-104 3q2 19 8 47h143h92q-3 -24 -9 -48z" />
    <glyph glyph-name="uni0123" unicode="&#x123;" horiz-adv-x="426" 
d="M196 540q0 46 31.5 86t76.5 63q14 -14 21 -28q-64 -43 -64 -82q0 -25 34 -35q-1 -27 -17 -44t-36 -17q-18 0 -32 16.5t-14 40.5zM40 223q0 78 55 142.5t140 64.5q41 0 63 -9q8 -2 14 -2q86 0 138 2q0 -31 -1 -46q-17 -1 -50 -2t-50 -2v-4q20 -26 20 -74q0 -69 -37 -125
q-62 -93 -178 -81q-20 -13 -30 -20t-18 -15.5t-8 -15.5q0 -20 107 -30q10 -1 16 -2q87 -8 113 -25q18 -10 30.5 -30t12.5 -41q0 -61 -65.5 -107.5t-190.5 -46.5q-80 0 -130 26.5t-50 72.5q0 38 23 53q33 21 108 65l1 5q-48 15 -48 61q0 8 13 19t67 43v5q-65 34 -65 119z
M114 217q0 -91 72 -91q44 0 76.5 47t32.5 118q0 46 -13 69q-16 29 -55 29q-49 0 -81 -50.5t-32 -121.5zM304 -107q0 28 -18.5 38t-73.5 17q-64 8 -87 11q-7 -4 -21 -13q-36 -22 -51 -32.5t-27.5 -25.5t-12.5 -31q0 -30 36.5 -45.5t84.5 -15.5q74 0 122 25.5t48 71.5z" />
    <glyph glyph-name="Imacron" unicode="&#x12a;" horiz-adv-x="313" 
d="M351 787q-8 -42 -10 -51q-30 0 -103 0.5t-107 0.5q3 26 9 48q140 2 211 2zM9 46l68 3q4 0 6 5l92 547l-78 3q1 8 5 23t5 23h120h112q-3 -22 -10 -46l-76 -3q-3 0 -3 -4l-95 -548l85 -3q-4 -30 -10 -47q-15 0 -55 0.5t-60 0.5q-19 0 -58.5 -0.5t-56.5 -0.5q2 7 4.5 23
t4.5 24z" />
    <glyph glyph-name="imacron" unicode="&#x12b;" horiz-adv-x="251" 
d="M265 554q-1 -18 -9 -47q-136 0 -201 1q3 20 8 44q136 2 202 2zM119 367l-85 -5q-2 30 -2 43q34 5 67.5 11t51 10t20.5 4q4 0 13.5 -9t13.5 -16q-7 -30 -86 -359q-2 -7 4 -7q16 0 75 16q5 -16 8 -42q-69 -22 -125 -22q-5 0 -18 10.5t-17 20.5q2 9 80 345z" />
    <glyph glyph-name="Iogonek" unicode="&#x12e;" horiz-adv-x="313" 
d="M230 -1l-54 1q-38 -2 -84.5 -45t-46.5 -82q0 -16 10 -24.5t24 -8.5q27 0 55 22q10 -13 13 -30q-52 -45 -99 -45q-32 0 -54.5 20t-22.5 52q0 39 35.5 77.5t82.5 63.5q-20 0 -46.5 -0.5t-42.5 -0.5q2 7 4.5 23t4.5 24l68 3q4 0 6 5l92 547l-78 3q1 8 5 23t5 23h120h112
q-3 -22 -10 -46l-76 -3q-3 0 -3 -4l-95 -548l85 -3q-4 -28 -10 -47z" />
    <glyph glyph-name="iogonek" unicode="&#x12f;" horiz-adv-x="251" 
d="M185 623q23 0 35.5 -15.5t12.5 -33.5q0 -20 -16 -36t-37 -16t-36 15t-15 35q0 19 15.5 35t40.5 16zM199 14q-15 -5 -37.5 -10.5t-25.5 -6.5q-42 -24 -71 -58t-29 -66q0 -16 10 -24.5t24 -8.5q27 0 56 22q9 -14 12 -30q-50 -45 -98 -45q-32 0 -55 19t-23 49q0 70 105 139
q-18 11 -28 29q10 44 23.5 102.5t30.5 130.5t26 111l-85 -5q-2 30 -2 43q34 5 67.5 11t51 10t20.5 4q4 0 13.5 -9t13.5 -16q-7 -30 -86 -359q-2 -6 4 -6q22 0 75 16q4 -14 8 -42z" />
    <glyph glyph-name="Idotaccent" unicode="&#x130;" horiz-adv-x="313" 
d="M246 819q23 0 35.5 -15.5t12.5 -33.5q0 -20 -16.5 -36t-36.5 -16q-21 0 -36.5 15t-15.5 35q0 19 16 35t41 16zM9 46l68 3q4 0 6 5l92 547l-78 3q1 8 5 23t5 23h120h112q-3 -22 -10 -46l-76 -3q-3 0 -3 -4l-95 -548l85 -3q-4 -30 -10 -47q-15 0 -55 0.5t-60 0.5
q-19 0 -58.5 -0.5t-56.5 -0.5q2 7 4.5 23t4.5 24z" />
    <glyph glyph-name="dotlessi" unicode="&#x131;" horiz-adv-x="251" 
d="M119 367l-85 -5q-2 30 -2 43q34 5 67.5 11t51 10t20.5 4q4 0 13.5 -9t13.5 -16q-7 -30 -86 -359q-2 -7 4 -7q16 0 75 16q5 -16 8 -42q-69 -22 -125 -22q-5 0 -18 10.5t-17 20.5q2 9 80 345z" />
    <glyph glyph-name="uni0136" unicode="&#x136;" horiz-adv-x="611" 
d="M342 -100q0 -50 -35 -93t-84 -69q-10 13 -23 31q71 46 71 89q0 28 -39 39q1 30 19 48.5t40 18.5q21 0 36 -18.5t15 -45.5zM13 46l64 3q3 0 5 4l92 548l-70 3q1 5 4 21.5t5 24.5h113h104q-4 -29 -9 -47l-68 -2q-4 0 -4 -6l-43 -240q42 0 67 7q33 27 107 103.5t119 130.5
q4 4 -2 4l-63 3q6 32 9 47h129h72q-4 -26 -9 -46l-49 -3q-143 -149 -255 -253l-1 -5q50 -33 90 -133q43 -99 62 -136q12 -25 30 -25l71 -3q-2 -8 -5 -24.5t-4 -21.5q-25 -1 -80 -1q-28 -2 -59 -2q-24 38 -78 173q-55 138 -100 138q-46 0 -59 -1l-44 -258l83 -3
q-1 -5 -3 -14.5t-3.5 -17.5t-3.5 -15q-15 0 -54.5 0.5t-59.5 0.5q-19 0 -56 -0.5t-52 -0.5q5 26 8 47z" />
    <glyph glyph-name="uni0137" unicode="&#x137;" horiz-adv-x="448" 
d="M222 -99q0 -46 -31.5 -86t-76.5 -63q-15 16 -21 28q64 43 64 82q0 26 -34 36q1 27 17 44t36 17q18 0 32 -17t14 -41zM136 219l6 -3q84 101 155 157.5t108 56.5q9 0 20.5 -18t13.5 -38q-88 -13 -200 -120v-5q49 -23 78 -112q20 -63 32 -85q4 -8 15 -8q26 2 63 13
q4 -24 5 -42q-63 -21 -133 -21q-23 38 -46 113q-34 101 -60 101q-8 0 -17 -9q-25 -22 -53 -53q-15 -60 -35 -146h-69q41 169 149 634l-86 -6q-1 15 -3 43q29 4 64 11.5t57 12.5t23 5q4 0 13.5 -7t14.5 -15q-42 -174 -115 -459z" />
    <glyph glyph-name="Lacute" unicode="&#x139;" horiz-adv-x="513" 
d="M380 844q17 -23 32 -55q-32 -15 -101 -49.5t-78 -38.5q-19 34 -19 35q28 18 89.5 58t76.5 50zM11 46l67 3q4 0 4 4l96 548l-72 2q6 32 10 47h114h121q-4 -26 -9 -47l-86 -2q-2 0 -4 -4l-94 -529q-2 -14 3.5 -17.5t35.5 -3.5q135 0 160 6q13 4 22 21l51 105q29 -5 47 -12
q-32 -93 -62 -168q-14 0 -118.5 0.5t-180.5 0.5q-21 0 -59.5 -0.5t-54.5 -0.5q1 6 9 47z" />
    <glyph glyph-name="lacute" unicode="&#x13a;" horiz-adv-x="249" 
d="M303 864q18 -25 31 -55q-26 -13 -89 -44t-89 -44q-11 17 -19 35q25 16 82.5 54t83.5 54zM169 635l-95 -5q-2 30 -2 43q38 4 74.5 11t55.5 11.5t22 4.5q13 0 26 -22q-63 -257 -148 -631q0 -6 4 -6q30 0 86 15q5 -23 6 -44q-69 -21 -139 -21q-4 0 -15.5 10t-16.5 20
q19 75 142 614z" />
    <glyph glyph-name="uni013B" unicode="&#x13b;" horiz-adv-x="513" 
d="M290 -115q0 -50 -35 -93t-84 -69q-13 15 -23 31q71 46 71 89q0 28 -39 39q1 30 18.5 48.5t40.5 18.5q20 0 35.5 -19t15.5 -45zM11 46l67 3q4 0 4 4l96 548l-72 2q6 32 10 47h114h121q-4 -26 -9 -47l-86 -2q-2 0 -4 -4l-94 -529q-2 -14 3.5 -17.5t35.5 -3.5q135 0 160 6
q13 4 22 21l51 105q29 -5 47 -12q-32 -93 -62 -168q-14 0 -118.5 0.5t-180.5 0.5q-21 0 -59.5 -0.5t-54.5 -0.5q1 6 9 47z" />
    <glyph glyph-name="uni013C" unicode="&#x13c;" horiz-adv-x="249" 
d="M123 -119q0 -46 -32 -86t-77 -63q-9 10 -21 28q65 43 65 82q0 26 -35 36q1 27 17 44t36 17q18 0 32.5 -17t14.5 -41zM169 635l-95 -5q-2 30 -2 43q38 4 74.5 11t55.5 11.5t22 4.5q13 0 26 -22q-63 -257 -148 -631q0 -6 4 -6q30 0 86 15q5 -23 6 -44q-69 -21 -139 -21
q-4 0 -15.5 10t-16.5 20q19 75 142 614z" />
    <glyph glyph-name="Lcaron" unicode="&#x13d;" horiz-adv-x="513" 
d="M514 697q-39 -96 -88 -187q-15 0 -41 7q33 81 62 182q39 5 67 -2zM11 46l67 3q4 0 4 4l96 548l-72 2q6 32 10 47h114h121q-4 -26 -9 -47l-86 -2q-2 0 -4 -4l-94 -529q-2 -14 3.5 -17.5t35.5 -3.5q135 0 160 6q13 4 22 21l51 105q29 -5 47 -12q-32 -93 -62 -168
q-14 0 -118.5 0.5t-180.5 0.5q-21 0 -59.5 -0.5t-54.5 -0.5q1 6 9 47z" />
    <glyph glyph-name="lcaron" unicode="&#x13e;" horiz-adv-x="297" 
d="M376 697q-39 -96 -88 -187q-15 0 -41 7q33 81 62 182q39 5 67 -2zM169 635l-95 -5q-2 30 -2 43q38 4 74.5 11t55.5 11.5t22 4.5q13 0 26 -22q-63 -257 -148 -631q0 -6 4 -6q30 0 86 15q5 -23 6 -44q-69 -21 -139 -21q-4 0 -15.5 10t-16.5 20q19 75 142 614z" />
    <glyph glyph-name="Lslash" unicode="&#x141;" horiz-adv-x="518" 
d="M131 313l51 288l-71 2q6 32 9 47h115h121q-3 -19 -10 -47l-86 -2q-3 0 -3 -4l-46 -250q56 25 146 68q9 -22 14 -48q-66 -28 -169 -75l-39 -224q-2 -14 3 -17.5t35 -3.5q135 0 161 6q13 4 22 21l50 105q28 -5 48 -12q-34 -99 -63 -168q-14 0 -118 0.5t-180 0.5
q-21 0 -59.5 -0.5t-54.5 -0.5q3 21 8 47l67 3q5 0 5 4l36 206q-4 -2 -35.5 -15.5t-50.5 -22.5q-10 18 -15 43q26 11 109 49z" />
    <glyph glyph-name="lslash" unicode="&#x142;" horiz-adv-x="293" 
d="M190 635l-95 -5q-2 30 -2 43q39 4 75.5 11t55.5 11.5t21 4.5q12 0 27 -22q-50 -201 -63 -261q26 10 84 36q1 -4 5 -17.5t6 -21.5q-74 -31 -106 -45q-4 -17 -74 -322q-2 -7 4 -7q23 0 85 15q5 -21 6 -43q-72 -21 -138 -21q-4 0 -15 10t-17 20q5 22 30.5 133.5t42.5 182.5
q-8 -4 -35 -15t-42 -18q-7 18 -13 36q34 15 100 43q13 58 32.5 141.5t25.5 110.5z" />
    <glyph glyph-name="Nacute" unicode="&#x143;" horiz-adv-x="697" 
d="M527 844q17 -23 32 -55q-32 -15 -101 -49.5t-78 -38.5q-19 34 -19 35q28 18 89.5 58t76.5 50zM4 46l63 2q5 1 7 6l92 547l-74 3q3 16 9 46h141q16 -33 118.5 -243t147.5 -304l6 1q8 50 79 497l-95 2q2 8 5 23.5t4 23.5h125h93q-2 -12 -8 -46l-60 -2q-4 -1 -5 -6
l-102 -594q-20 -8 -52 -8q-127 221 -278 549h-7q-22 -137 -83 -494l99 -2q-3 -25 -9 -47h-131q-17 0 -49 -0.5t-45 -0.5q8 45 9 47z" />
    <glyph glyph-name="nacute" unicode="&#x144;" horiz-adv-x="510" 
d="M375 631q15 -14 37 -46q-13 -9 -72 -49.5t-88 -60.5q-9 10 -25 30q133 114 148 126zM120 367l-79 -8q-2 30 -2 43q29 5 59.5 12t48.5 11.5t20 4.5q5 0 13.5 -7t12.5 -14q-2 -9 -11.5 -47t-15.5 -61l7 -3q56 65 112 98t94 34q44 -8 65 -51q6 -12 6 -32q0 -74 -80 -300
q-2 -7 4 -7q15 0 72 16q4 -21 6 -42q-62 -23 -129 -23q-5 0 -15 9.5t-13 20.5q38 115 62 206q19 79 19 101q0 37 -31 37q-45 0 -112.5 -61t-80.5 -106q-6 -22 -27 -108.5t-22 -89.5h-69q47 192 86 367z" />
    <glyph glyph-name="uni0145" unicode="&#x145;" horiz-adv-x="697" 
d="M385 -100q0 -50 -34.5 -93t-84.5 -69q-10 13 -23 31q71 46 71 89q0 29 -38 39q1 30 18.5 48.5t39.5 18.5q21 0 36 -18.5t15 -45.5zM4 46l63 2q5 1 7 6l92 547l-74 3q3 16 9 46h141q16 -33 118.5 -243t147.5 -304l6 1q8 50 79 497l-95 2q2 8 5 23.5t4 23.5h125h93
q-2 -12 -8 -46l-60 -2q-4 -1 -5 -6l-102 -594q-20 -8 -52 -8q-127 221 -278 549h-7q-22 -137 -83 -494l99 -2q-3 -25 -9 -47h-131q-17 0 -49 -0.5t-45 -0.5q8 45 9 47z" />
    <glyph glyph-name="uni0146" unicode="&#x146;" horiz-adv-x="510" 
d="M253 -99q0 -46 -32 -86t-77 -63q-9 10 -21 28q65 42 65 82q0 26 -35 36q1 27 17.5 44t36.5 17q18 0 32 -17t14 -41zM120 367l-79 -8q-2 30 -2 43q29 5 59.5 12t48.5 11.5t20 4.5q5 0 13.5 -7t12.5 -14q-2 -9 -11.5 -47t-15.5 -61l7 -3q56 65 112 98t94 34q44 -8 65 -51
q6 -12 6 -32q0 -74 -80 -300q-2 -7 4 -7q15 0 72 16q4 -21 6 -42q-62 -23 -129 -23q-5 0 -15 9.5t-13 20.5q38 115 62 206q19 79 19 101q0 37 -31 37q-45 0 -112.5 -61t-80.5 -106q-6 -22 -27 -108.5t-22 -89.5h-69q47 192 86 367z" />
    <glyph glyph-name="Ncaron" unicode="&#x147;" horiz-adv-x="697" 
d="M427 768q115 70 121 74q9 -8 22 -30q-101 -74 -135 -99q-23 0 -33 1q-66 66 -100 98q12 15 28 29q42 -30 97 -73zM4 46l63 2q5 1 7 6l92 547l-74 3q3 16 9 46h141q16 -33 118.5 -243t147.5 -304l6 1q8 50 79 497l-95 2q2 8 5 23.5t4 23.5h125h93q-2 -12 -8 -46l-60 -2
q-4 -1 -5 -6l-102 -594q-20 -8 -52 -8q-127 221 -278 549h-7q-22 -137 -83 -494l99 -2q-3 -25 -9 -47h-131q-17 0 -49 -0.5t-45 -0.5q8 45 9 47z" />
    <glyph glyph-name="ncaron" unicode="&#x148;" horiz-adv-x="510" 
d="M290 540q19 15 56.5 47t52.5 44q19 -16 27 -26l-57.5 -57.5t-66.5 -64.5q-27 0 -39 1q-14 21 -41 65t-39 62q13 11 31 21q66 -80 76 -92zM120 367l-79 -8q-2 30 -2 43q29 5 59.5 12t48.5 11.5t20 4.5q5 0 13.5 -7t12.5 -14q-2 -9 -11.5 -47t-15.5 -61l7 -3q56 65 112 98
t94 34q44 -8 65 -51q6 -12 6 -32q0 -74 -80 -300q-2 -7 4 -7q15 0 72 16q4 -21 6 -42q-62 -23 -129 -23q-5 0 -15 9.5t-13 20.5q38 115 62 206q19 79 19 101q0 37 -31 37q-45 0 -112.5 -61t-80.5 -106q-6 -22 -27 -108.5t-22 -89.5h-69q47 192 86 367z" />
    <glyph glyph-name="Omacron" unicode="&#x14c;" horiz-adv-x="703" 
d="M547 787l-9 -51q-31 0 -104 0.5t-106 0.5q3 26 9 48q140 2 210 2zM669 394q0 -103 -42.5 -191t-105.5 -140q-90 -73 -216 -73q-106 0 -175 67q-73 70 -73 197q0 105 46 196t113 141q87 69 209 69q105 0 170 -65q74 -74 74 -201zM139 254q0 -98 48 -157q49 -58 136 -58
q90 0 151 58q48 43 80.5 119.5t32.5 177.5q0 98 -45 156q-45 61 -133 61q-89 0 -158 -63q-45 -44 -78.5 -119t-33.5 -175z" />
    <glyph glyph-name="omacron" unicode="&#x14d;" horiz-adv-x="439" 
d="M371 554q-4 -26 -9 -47q-137 0 -202 1q1 3 4 19.5t5 24.5q134 2 202 2zM397 282q0 -64 -26 -126.5t-75 -110.5q-58 -55 -142 -55q-66 0 -101 43q-29 37 -29 92q0 73 27.5 139t74.5 110q61 56 140 56q58 0 93 -37q38 -40 38 -111zM171 34q51 0 88 47q26 31 44 88.5
t18 110.5q0 49 -16 75q-18 30 -55 30q-51 0 -93 -55q-22 -29 -39.5 -84t-17.5 -112q0 -47 16 -72q16 -28 55 -28z" />
    <glyph glyph-name="Ohungarumlaut" unicode="&#x150;" horiz-adv-x="703" 
d="M489 856q17 -21 30 -48q-29 -16 -85.5 -47.5t-79.5 -44.5q-4 6 -22 34q93 62 157 106zM640 852q12 -16 28 -49q-6 -3 -68.5 -36.5t-95.5 -51.5q-13 19 -22 35q24 15 79 51t79 51zM669 394q0 -103 -42.5 -191t-105.5 -140q-90 -73 -216 -73q-106 0 -175 67q-73 70 -73 197
q0 105 46 196t113 141q87 69 209 69q105 0 170 -65q74 -74 74 -201zM139 254q0 -98 48 -157q49 -58 136 -58q90 0 151 58q48 43 80.5 119.5t32.5 177.5q0 98 -45 156q-45 61 -133 61q-89 0 -158 -63q-45 -44 -78.5 -119t-33.5 -175z" />
    <glyph glyph-name="ohungarumlaut" unicode="&#x151;" horiz-adv-x="439" 
d="M282 636q18 -15 37 -42q-27 -20 -77 -59t-64 -50q-9 9 -27 29q114 106 131 122zM410 632q22 -22 34 -42q-53 -42 -139 -111q-18 20 -26 30q77 73 131 123zM397 282q0 -64 -26 -126.5t-75 -110.5q-58 -55 -142 -55q-66 0 -101 43q-29 37 -29 92q0 73 27.5 139t74.5 110
q61 56 140 56q58 0 93 -37q38 -40 38 -111zM171 34q51 0 88 47q26 31 44 88.5t18 110.5q0 49 -16 75q-18 30 -55 30q-51 0 -93 -55q-22 -29 -39.5 -84t-17.5 -112q0 -47 16 -72q16 -28 55 -28z" />
    <glyph glyph-name="OE" unicode="&#x152;" horiz-adv-x="961" 
d="M55 255q0 117 52 211t126 143q75 51 185 51q65 0 112.5 -25.5t72.5 -66.5q1 10 13 82h73h180h80q-1 -6 -18 -154q-28 -2 -45 -2v85q0 17 -21 19q-52 4 -173 4q-9 0 -13 -2l-42 -243q28 0 80.5 0.5t79.5 1.5q25 1 29 21l13 47q24 1 45 0q-9 -52 -17 -95q-14 -82 -16 -94
q-15 -1 -46 -1l5 50q2 13 -3 17.5t-21 4.5q-96 2 -157 1l-42 -243q-2 -13 7 -16.5t47 -3.5q122 0 158 8q14 3 22 20l44 91q19 -4 44 -13q-30 -89 -54 -154q-23 0 -120.5 0.5t-131.5 0.5q-18 0 -50 -0.5t-46 -0.5q2 12 4.5 26t5 32t4.5 29q-85 -96 -222 -96q-119 0 -190 85
q-54 64 -54 180zM137 253q0 -97 44 -152q47 -63 138 -63q140 0 213 138q26 145 54 321q-45 114 -174 114q-96 0 -158 -59q-46 -44 -81.5 -120t-35.5 -179z" />
    <glyph glyph-name="oe" unicode="&#x153;" horiz-adv-x="676" 
d="M314 71h-5q-65 -81 -152 -81q-66 0 -103 43q-30 35 -30 93q0 72 27.5 137t73.5 109q59 58 137 58q91 0 112 -97h6q38 49 76 73t87 24q45 0 74.5 -32t30.5 -71q-2 -26 -17.5 -53t-34.5 -39q-74 -40 -214 -40q-13 -39 -13 -78q0 -34 18 -53.5t50 -19.5q64 0 158 53
q6 -13 16 -39q-111 -68 -195 -68q-36 0 -64.5 21t-37.5 60zM172 34q50 0 87 47q25 30 44 88t19 111q0 43 -17 75q-15 30 -53 30q-54 0 -95 -55q-22 -28 -39.5 -83t-17.5 -112q0 -48 16 -73q16 -28 56 -28zM520 382q-45 0 -78 -43q-34 -42 -51 -101q89 -2 144 25q40 21 40 56
q0 26 -14.5 44.5t-40.5 18.5z" />
    <glyph glyph-name="Racute" unicode="&#x154;" horiz-adv-x="580" 
d="M463 844q17 -26 31 -55q-32 -15 -101 -49.5t-78 -38.5q-19 34 -19 35q25 16 83 54t84 54zM12 46l63 3q5 0 7 5l92 546l-70 3q2 16 8 46q90 2 156 2q107 0 157 -18q50 -16 76 -55t26 -84q0 -66 -47 -118t-115 -72l-1 -5q8 -3 14.5 -7.5t12.5 -11.5t10.5 -13t9.5 -17
t8.5 -18.5t9 -23t8.5 -24.5t9.5 -29t10.5 -31q17 -46 27 -60t24 -15l53 -2q-3 -22 -9 -47q-44 0 -64 -1h-60q-16 25 -47.5 116.5t-37.5 106.5q-14 32 -33 44.5t-58 12.5q-49 0 -59 -2l-39 -227l82 -4q-3 -20 -9 -47q-33 1 -117 1q-75 0 -106 -1q1 6 3.5 22t4.5 25zM249 601
l-47 -274q6 -3 54 -3q89 0 140 47.5t51 113.5q0 55 -36 87.5t-102 32.5q-42 0 -60 -4z" />
    <glyph glyph-name="racute" unicode="&#x155;" horiz-adv-x="364" 
d="M322 631q15 -14 37 -46q-13 -9 -72 -49.5t-88 -60.5q-18 20 -25 30q133 114 148 126zM120 370l-78 -8q-2 14 -2 42q28 4 58.5 10.5t47.5 11t19 4.5q4 0 13 -8t13 -15q-9 -34 -29 -124l7 -2q45 67 87.5 108t69.5 41q26 0 49 -14q0 -18 -12 -44.5t-21 -31.5q-23 10 -41 10
q-31 0 -87 -66.5t-72 -128.5q-7 -27 -36 -155h-69q53 229 83 370z" />
    <glyph glyph-name="uni0156" unicode="&#x156;" horiz-adv-x="580" 
d="M336 -100q0 -50 -34.5 -93t-84.5 -69q-10 13 -23 31q71 46 71 89q0 29 -38 39q1 30 18.5 48.5t39.5 18.5q21 0 36 -18.5t15 -45.5zM12 46l63 3q5 0 7 5l92 546l-70 3q2 16 8 46q90 2 156 2q107 0 157 -18q50 -16 76 -55t26 -84q0 -66 -47 -118t-115 -72l-1 -5
q8 -3 14.5 -7.5t12.5 -11.5t10.5 -13t9.5 -17t8.5 -18.5t9 -23t8.5 -24.5t9.5 -29t10.5 -31q17 -46 27 -60t24 -15l53 -2q-3 -22 -9 -47q-44 0 -64 -1h-60q-16 25 -47.5 116.5t-37.5 106.5q-14 32 -33 44.5t-58 12.5q-49 0 -59 -2l-39 -227l82 -4q-3 -20 -9 -47
q-33 1 -117 1q-75 0 -106 -1q1 6 3.5 22t4.5 25zM249 601l-47 -274q6 -3 54 -3q89 0 140 47.5t51 113.5q0 55 -36 87.5t-102 32.5q-42 0 -60 -4z" />
    <glyph glyph-name="uni0157" unicode="&#x157;" horiz-adv-x="364" 
d="M143 -110q0 -46 -32 -86t-77 -63q-9 11 -21 28q65 42 65 82q0 25 -35 36q1 27 17.5 44t36.5 17q18 0 32 -17t14 -41zM120 370l-78 -8q-2 14 -2 42q28 4 58.5 10.5t47.5 11t19 4.5q4 0 13 -8t13 -15q-9 -34 -29 -124l7 -2q45 67 87.5 108t69.5 41q26 0 49 -14
q0 -18 -12 -44.5t-21 -31.5q-23 10 -41 10q-31 0 -87 -66.5t-72 -128.5q-7 -27 -36 -155h-69q53 229 83 370z" />
    <glyph glyph-name="Rcaron" unicode="&#x158;" horiz-adv-x="580" 
d="M342 768q109 67 121 74q10 -10 22 -30q-101 -74 -135 -99q-23 0 -33 1q-34 34 -100 98q12 15 28 29q42 -30 97 -73zM12 46l63 3q5 0 7 5l92 546l-70 3q2 16 8 46q90 2 156 2q107 0 157 -18q50 -16 76 -55t26 -84q0 -66 -47 -118t-115 -72l-1 -5q8 -3 14.5 -7.5
t12.5 -11.5t10.5 -13t9.5 -17t8.5 -18.5t9 -23t8.5 -24.5t9.5 -29t10.5 -31q17 -46 27 -60t24 -15l53 -2q-3 -22 -9 -47q-44 0 -64 -1h-60q-16 25 -47.5 116.5t-37.5 106.5q-14 32 -33 44.5t-58 12.5q-49 0 -59 -2l-39 -227l82 -4q-3 -20 -9 -47q-33 1 -117 1q-75 0 -106 -1
q1 6 3.5 22t4.5 25zM249 601l-47 -274q6 -3 54 -3q89 0 140 47.5t51 113.5q0 55 -36 87.5t-102 32.5q-42 0 -60 -4z" />
    <glyph glyph-name="rcaron" unicode="&#x159;" horiz-adv-x="364" 
d="M236 540q21 16 59.5 48.5t50.5 42.5q19 -17 26 -26q-18 -17 -62 -61l-61 -61q-27 0 -39 1q-14 22 -42.5 67t-38.5 60q24 17 31 21q12 -14 38 -46t38 -46zM120 370l-78 -8q-2 14 -2 42q28 4 58.5 10.5t47.5 11t19 4.5q4 0 13 -8t13 -15q-9 -34 -29 -124l7 -2
q45 67 87.5 108t69.5 41q26 0 49 -14q0 -18 -12 -44.5t-21 -31.5q-23 10 -41 10q-31 0 -87 -66.5t-72 -128.5q-7 -27 -36 -155h-69q53 229 83 370z" />
    <glyph glyph-name="Sacute" unicode="&#x15a;" horiz-adv-x="488" 
d="M423 844q18 -25 31 -55q-54 -26 -178 -88q-14 23 -20 35q27 17 86 55.5t81 52.5zM402 484l-2 90q0 8 -4 14q-20 21 -78 21q-65 0 -100 -30q-47 -41 -47 -97q0 -41 21.5 -61t86.5 -53q11 -6 17 -9q69 -35 99 -71.5t30 -89.5q0 -95 -76 -157q-62 -51 -178 -51
q-97 0 -149 29q10 101 16 156q16 3 50 3l1 -102q0 -9 6 -13q29 -22 93 -22q81 0 122 37q42 36 42 100q0 25 -7.5 43t-28 34.5t-37.5 27t-54 29.5q-64 34 -95 69.5t-31 87.5q0 90 81 147q65 44 162 44q83 0 123 -26q-6 -74 -15 -147z" />
    <glyph glyph-name="sacute" unicode="&#x15b;" horiz-adv-x="365" 
d="M317 631q15 -14 37 -46q-13 -9 -72 -49.5t-88 -60.5q-9 10 -25 30q133 114 148 126zM282 294l-5 65q0 7 -6 12q-20 13 -52 13q-35 0 -57 -12q-37 -21 -37 -60q0 -19 9.5 -32t21 -19.5t39.5 -18.5q54 -24 79.5 -49.5t25.5 -65.5q0 -75 -69 -113q-41 -24 -123 -24
q-65 0 -97 18q1 20 3 61t3 61q14 2 44 2l7 -72q0 -8 6 -11q20 -14 60 -14q42 0 66 15q31 20 31 61q0 29 -16.5 43.5t-56.5 32.5q-52 22 -77 45.5t-25 67.5q0 35 23 64.5t53 44.5q43 21 109 21q59 0 95 -21q-8 -72 -11 -113q-6 -1 -21 -1.5t-22 -0.5z" />
    <glyph glyph-name="uni015E" unicode="&#x15e;" horiz-adv-x="488" 
d="M402 484l-2 90q0 8 -4 14q-20 21 -78 21q-65 0 -100 -30q-47 -41 -47 -97q0 -41 21.5 -61t86.5 -53q11 -6 17 -9q69 -35 99 -71.5t30 -89.5q0 -95 -76 -157q-37 -30 -90 -42l-81 -69q58 -12 58 -63q0 -37 -41 -64t-106 -27l1 36q39 1 61 15.5t22 32.5q0 16 -11 27t-43 14
q-4 15 -5 24l76 65h-19q-97 0 -149 29q10 101 16 156q16 3 50 3l1 -102q0 -9 6 -13q29 -22 93 -22q81 0 122 37q42 36 42 100q0 25 -7.5 43t-28 34.5t-37.5 27t-54 29.5q-64 34 -95 69.5t-31 87.5q0 90 81 147q65 44 162 44q83 0 123 -26q-6 -74 -15 -147z" />
    <glyph glyph-name="uni015F" unicode="&#x15f;" horiz-adv-x="365" 
d="M282 294l-5 65q0 7 -6 12q-20 13 -52 13q-35 0 -57 -12q-37 -21 -37 -60q0 -19 9.5 -32t21 -19.5t39.5 -18.5q54 -24 79.5 -49.5t25.5 -65.5q0 -75 -69 -113q-17 -9 -36 -15l-74 -69q24 -4 38.5 -20t14.5 -37q0 -38 -38 -63t-97 -27l1 35q35 2 56 14.5t21 33.5
q0 36 -51 37q-1 3 -3 10t-3 10l73 67h-25q-65 0 -97 18q1 20 3 61t3 61q14 2 44 2l7 -72q0 -8 6 -11q20 -14 60 -14q42 0 66 15q31 20 31 61q0 29 -16.5 43.5t-56.5 32.5q-52 22 -77 45.5t-25 67.5q0 35 23 64.5t53 44.5q43 21 109 21q59 0 95 -21q-8 -72 -11 -113
q-6 -1 -21 -1.5t-22 -0.5z" />
    <glyph glyph-name="Scaron" unicode="&#x160;" horiz-adv-x="488" 
d="M330 768q81 48 122 74q8 -8 21 -30q-8 -6 -134 -99q-23 0 -34 1q-32 33 -99 98q16 19 28 29q55 -41 96 -73zM402 484l-2 90q0 8 -4 14q-20 21 -78 21q-65 0 -100 -30q-47 -41 -47 -97q0 -41 21.5 -61t86.5 -53q11 -6 17 -9q69 -35 99 -71.5t30 -89.5q0 -95 -76 -157
q-62 -51 -178 -51q-97 0 -149 29q10 101 16 156q16 3 50 3l1 -102q0 -9 6 -13q29 -22 93 -22q81 0 122 37q42 36 42 100q0 25 -7.5 43t-28 34.5t-37.5 27t-54 29.5q-64 34 -95 69.5t-31 87.5q0 90 81 147q65 44 162 44q83 0 123 -26q-6 -74 -15 -147z" />
    <glyph glyph-name="scaron" unicode="&#x161;" horiz-adv-x="365" 
d="M234 540q19 15 56.5 47t52.5 44q19 -16 27 -26l-57.5 -57.5t-66.5 -64.5q-26 0 -39 1q-14 21 -41 65t-39 62q13 11 31 21q66 -80 76 -92zM282 294l-5 65q0 7 -6 12q-20 13 -52 13q-35 0 -57 -12q-37 -21 -37 -60q0 -19 9.5 -32t21 -19.5t39.5 -18.5q54 -24 79.5 -49.5
t25.5 -65.5q0 -75 -69 -113q-41 -24 -123 -24q-65 0 -97 18q1 20 3 61t3 61q14 2 44 2l7 -72q0 -8 6 -11q20 -14 60 -14q42 0 66 15q31 20 31 61q0 29 -16.5 43.5t-56.5 32.5q-52 22 -77 45.5t-25 67.5q0 35 23 64.5t53 44.5q43 21 109 21q59 0 95 -21q-8 -72 -11 -113
q-6 -1 -21 -1.5t-22 -0.5z" />
    <glyph glyph-name="uni0162" unicode="&#x162;" horiz-adv-x="558" 
d="M133 578l-29 -96q-20 0 -50 4q22 110 34 165q10 0 41 -0.5t52 -0.5h167h168q15 0 33 0.5t29.5 1t20.5 0.5q-15 -118 -22 -166q-7 0 -23.5 -1.5t-25.5 -2.5l2 97q0 9 -4 13.5t-17 5.5q-34 2 -135 2l-95 -551l96 -3q-4 -29 -9 -47q-50 0 -77 1l-82 -71q59 -12 59 -63
q0 -37 -41 -64t-106 -27v36q39 1 61 15.5t22 33.5q0 16 -11 26q-9 10 -43 15q-1 4 -2.5 12t-2.5 12l87 75q-19 0 -58.5 -0.5t-57.5 -0.5q2 19 8 47l79 3q3 0 5 4l92 547q-108 0 -137 -3q-22 -2 -28 -19z" />
    <glyph glyph-name="uni0163" unicode="&#x163;" horiz-adv-x="345" 
d="M71 -68l64 59q-23 2 -47 19t-32 44q-3 9 -3 18q0 13 7 50t16.5 79t10.5 49q17 71 27 119h-78q1 5 3 14.5t3.5 17t2.5 13.5q49 4 74 5q6 0 8 7q4 15 13 48t12 45q37 17 65 17q3 0 3 -4q-9 -45 -25 -113q103 0 151 1q-3 -23 -10 -51h-152q-12 -47 -27 -121
q-30 -132 -30 -161q0 -42 46 -42q44 0 114 20q2 -11 4 -43q-39 -15 -98 -26l-61 -57q24 -4 38.5 -20t14.5 -37q0 -38 -38 -63t-97 -27l1 35q35 2 56 14.5t21 33.5q0 35 -51 37q-1 3 -3 10t-3 10z" />
    <glyph glyph-name="Tcaron" unicode="&#x164;" horiz-adv-x="558" 
d="M350 768q12 7 57 34t65 40q8 -8 21 -30q-8 -6 -134 -99q-23 0 -34 1q-66 66 -99 98q16 19 28 29q55 -41 96 -73zM122 46l79 3q3 0 5 4l92 547q-108 0 -137 -3q-22 -2 -28 -19l-29 -96q-20 0 -50 4q22 110 34 165q10 0 41 -0.5t52 -0.5h167h168q15 0 33 0.5t29.5 1
t20.5 0.5q-15 -118 -22 -166q-7 0 -23.5 -1.5t-25.5 -2.5l2 97q0 9 -4 13.5t-17 5.5q-34 2 -135 2l-95 -551l96 -3q-4 -29 -9 -47q-18 0 -62 0.5t-65 0.5t-63 -0.5t-62 -0.5q2 19 8 47z" />
    <glyph glyph-name="tcaron" unicode="&#x165;" horiz-adv-x="345" 
d="M395 697q-32 -82 -82 -178q-2 0 -42 7q36 95 57 173q38 5 67 -2zM127 87q0 -42 46 -42q44 0 114 20q2 -11 4 -43q-85 -31 -153 -31q-23 0 -48 17.5t-34 45.5q-3 9 -3 18q0 13 7 50t16.5 79t10.5 49q17 71 27 119h-78q1 5 3 14.5t3.5 17t2.5 13.5q49 4 74 5q6 0 8 7
q4 15 13 48t12 45q37 17 65 17q3 0 3 -4q-9 -45 -25 -113q103 0 151 1q-3 -23 -10 -51h-152q-12 -47 -27 -121q-30 -132 -30 -161z" />
    <glyph glyph-name="Umacron" unicode="&#x16a;" horiz-adv-x="647" 
d="M520 787q-2 -18 -10 -51q-30 0 -103 0.5t-107 0.5q1 4 4 21.5t5 26.5q140 2 211 2zM677 604l-64 -4l-58 -335q-24 -142 -100 -212q-67 -63 -172 -63q-104 0 -155 58q-35 39 -42 95t7 120l57 338l-65 2q3 17 9 47h105h123q-1 -3 -4 -20.5t-5 -26.5l-83 -2q-3 -1 -5 -6
l-57 -326q-20 -122 14 -173q35 -53 111 -53q72 0 123 47q54 49 76 171q4 22 25 149t30 186q0 5 -4 5l-83 2q7 39 9 47h115q19 0 53 0.5t48 0.5q-4 -30 -8 -47z" />
    <glyph glyph-name="umacron" unicode="&#x16b;" horiz-adv-x="487" 
d="M388 556l-9 -48q-29 0 -99 0.5t-103 0.5q3 17 8 45q34 0 101.5 1t101.5 1zM116 367l-75 -7q-2 16 -4 42q30 5 63 12t51 11.5t20 4.5q5 0 14 -9t11 -18q-37 -113 -61 -222q-15 -69 -15 -94q0 -38 31 -38q36 0 100 61.5t75 100.5q11 38 46 208q24 1 70 1q-65 -297 -80 -372
q-2 -6 4 -6q18 0 72 17q6 -21 9 -42q-69 -26 -123 -26q-4 0 -13.5 9t-14.5 18q11 57 20 97l-6 1q-115 -126 -185 -128q-39 6 -65 42q-11 15 -11 42q0 72 67 295z" />
    <glyph glyph-name="Uring" unicode="&#x16e;" horiz-adv-x="647" 
d="M411 700q-39 0 -64.5 20.5t-25.5 54.5q0 41 31 66.5t75 25.5q39 0 64 -21.5t25 -54.5q0 -36 -28.5 -63.5t-76.5 -27.5zM414 736q21 0 37 13.5t16 38.5q0 18 -12 31t-31 13q-24 0 -39 -14.5t-15 -39.5q0 -18 13 -30t31 -12zM677 604l-64 -4l-58 -335q-24 -142 -100 -212
q-67 -63 -172 -63q-104 0 -155 58q-35 39 -42 95t7 120l57 338l-65 2q3 17 9 47h105h123q-1 -3 -4 -20.5t-5 -26.5l-83 -2q-3 -1 -5 -6l-57 -326q-20 -122 14 -173q35 -53 111 -53q72 0 123 47q54 49 76 171q4 22 25 149t30 186q0 5 -4 5l-83 2q7 39 9 47h115q19 0 53 0.5
t48 0.5q-4 -30 -8 -47z" />
    <glyph glyph-name="uring" unicode="&#x16f;" horiz-adv-x="487" 
d="M298 651q36 0 59.5 -21t23.5 -51q0 -39 -30.5 -66.5t-72.5 -27.5q-35 0 -60 20.5t-25 53.5q0 39 30.5 65.5t74.5 26.5zM293 616q-23 0 -38 -14.5t-15 -39.5q0 -18 12 -30.5t30 -12.5q21 0 36.5 15t15.5 41q0 19 -12 30t-29 11zM116 367l-75 -7q-2 16 -4 42q30 5 63 12
t51 11.5t20 4.5q5 0 14 -9t11 -18q-37 -113 -61 -222q-15 -69 -15 -94q0 -38 31 -38q36 0 100 61.5t75 100.5q11 38 46 208q24 1 70 1q-65 -297 -80 -372q-2 -6 4 -6q18 0 72 17q6 -21 9 -42q-69 -26 -123 -26q-4 0 -13.5 9t-14.5 18q11 57 20 97l-6 1q-115 -126 -185 -128
q-39 6 -65 42q-11 15 -11 42q0 72 67 295z" />
    <glyph glyph-name="Uhungarumlaut" unicode="&#x170;" horiz-adv-x="647" 
d="M461 856q17 -21 30 -48q-31 -17 -89.5 -49.5t-75.5 -42.5q-2 2 -22 34q93 62 157 106zM612 852q12 -16 28 -49q-6 -3 -68.5 -36.5t-95.5 -51.5q-13 19 -22 35q24 15 79 51t79 51zM677 604l-64 -4l-58 -335q-24 -142 -100 -212q-67 -63 -172 -63q-104 0 -155 58
q-35 39 -42 95t7 120l57 338l-65 2q3 17 9 47h105h123q-1 -3 -4 -20.5t-5 -26.5l-83 -2q-3 -1 -5 -6l-57 -326q-20 -122 14 -173q35 -53 111 -53q72 0 123 47q54 49 76 171q4 22 25 149t30 186q0 5 -4 5l-83 2q7 39 9 47h115q19 0 53 0.5t48 0.5q-4 -30 -8 -47z" />
    <glyph glyph-name="uhungarumlaut" unicode="&#x171;" horiz-adv-x="487" 
d="M296 636q18 -15 37 -42q-45 -35 -141 -109q-5 5 -15 16.5t-11 12.5q70 65 130 122zM424 632q21 -21 35 -42q-52 -39 -140 -111q-18 20 -26 30q77 73 131 123zM116 367l-75 -7q-2 16 -4 42q30 5 63 12t51 11.5t20 4.5q5 0 14 -9t11 -18q-37 -113 -61 -222q-15 -69 -15 -94
q0 -38 31 -38q36 0 100 61.5t75 100.5q11 38 46 208q24 1 70 1q-65 -297 -80 -372q-2 -6 4 -6q18 0 72 17q6 -21 9 -42q-69 -26 -123 -26q-4 0 -13.5 9t-14.5 18q11 57 20 97l-6 1q-115 -126 -185 -128q-39 6 -65 42q-11 15 -11 42q0 72 67 295z" />
    <glyph glyph-name="Uogonek" unicode="&#x172;" horiz-adv-x="647" 
d="M94 650h105h123q-1 -3 -4 -20.5t-5 -26.5l-83 -2q-3 -1 -5 -6l-57 -326q-20 -122 14 -173q35 -53 111 -53q72 0 123 47q54 49 76 171q4 22 25 149t30 186q0 5 -4 5l-83 2q7 39 9 47h115q19 0 53 0.5t48 0.5q-4 -30 -8 -47l-64 -4l-58 -335q-25 -145 -101 -212
q-33 -30 -94 -52q-38 -15 -79.5 -53.5t-41.5 -74.5q0 -16 10 -24.5t24 -8.5q27 0 55 22q11 -14 14 -30q-52 -45 -99 -45q-32 0 -55 19t-23 48q0 64 111 136q-99 2 -148 58q-35 39 -42 95t7 120l57 338l-65 2q3 17 9 47z" />
    <glyph glyph-name="uogonek" unicode="&#x173;" horiz-adv-x="487" 
d="M447 17q-36 -12 -61 -18q-45 -25 -79 -59.5t-34 -66.5q0 -16 10 -24.5t25 -8.5q27 0 55 22q10 -13 13 -30q-52 -45 -99 -45q-31 0 -54 19t-23 49q0 69 117 140q-14 12 -21 23q11 57 20 97l-6 1q-115 -126 -185 -128q-39 6 -65 42q-11 15 -11 42q0 72 67 295l-75 -7
q-2 16 -4 42q30 5 63 12t51 11.5t20 4.5q5 0 14 -9t11 -18q-37 -113 -61 -222q-15 -69 -15 -94q0 -38 31 -38q36 0 100 61.5t75 100.5q11 38 46 208q24 1 70 1q-65 -297 -80 -372q-2 -6 4 -6q18 0 72 17q6 -21 9 -42z" />
    <glyph glyph-name="Ydieresis" unicode="&#x178;" horiz-adv-x="533" 
d="M275 805q20 0 29.5 -12t9.5 -28q0 -18 -12.5 -31.5t-31.5 -13.5q-17 0 -29 10.5t-12 26.5q0 20 12 34t34 14zM441 805q19 0 29 -12t10 -28q0 -19 -12 -32t-31 -13q-20 0 -31 11t-11 27q0 19 12 33t34 14zM106 46l75 3q7 0 7 6l33 197q-38 102 -126 345q-2 4 -6 4l-51 3
q1 5 4 21.5t5 24.5h90h134q-4 -26 -9 -46l-86 -4q44 -134 97 -291h7q143 204 192 287q1 2 0.5 3.5t-2.5 1.5l-80 2q1 6 9 47h127q13 0 41 0.5t39 0.5q-4 -27 -9 -47l-48 -3q-7 -10 -106.5 -148t-146.5 -202l-35 -202l91 -3q-1 -5 -3 -14.5t-3.5 -17.5t-3.5 -15
q-17 0 -59.5 0.5t-63.5 0.5q-19 0 -61 -0.5t-62 -0.5q8 38 10 47z" />
    <glyph glyph-name="Zacute" unicode="&#x179;" horiz-adv-x="555" 
d="M456 844q18 -25 31 -55q-54 -26 -178 -88q-14 23 -20 35q27 17 86 55.5t81 52.5zM455 191q22 -3 50 -10q-20 -68 -61 -182q-4 0 -51.5 0.5t-113.5 0.5h-113h-167q-7 19 -12 45q73 80 267 302t215 246l-1 5q-243 2 -264 -3q-17 -4 -25 -23l-38 -106q-48 8 -50 9
q43 156 49 176q5 0 37.5 -0.5t51.5 -0.5h319q6 -22 12 -57q-325 -375 -479 -537l2 -4q257 0 299 9q22 5 31 27z" />
    <glyph glyph-name="zacute" unicode="&#x17a;" horiz-adv-x="415" 
d="M328 631q17 -16 36 -46q-94 -66 -159 -110q-18 20 -25 30q133 114 148 126zM326 149q32 -6 46 -10q-24 -79 -43 -140q-5 0 -46 0.5t-84 0.5h-108h-85q-10 25 -15 40q42 45 152.5 163.5t154.5 165.5l-1 5q-78 0 -150 -2q-22 0 -29 -15l-29 -80q-21 3 -46 8q6 25 17.5 71
t16.5 65q3 0 35 -0.5t60 -0.5q68 -1 200 -1q6 -19 12 -53q-156 -172 -305 -316v-5q163 3 180 4q25 2 33 21z" />
    <glyph glyph-name="Zdotaccent" unicode="&#x17b;" horiz-adv-x="555" 
d="M363 819q23 0 35.5 -15.5t12.5 -33.5q0 -20 -16 -36t-36 -16q-22 0 -37 15t-15 35q0 19 15.5 35t40.5 16zM455 191q22 -3 50 -10q-20 -68 -61 -182q-4 0 -51.5 0.5t-113.5 0.5h-113h-167q-7 19 -12 45q73 80 267 302t215 246l-1 5q-243 2 -264 -3q-17 -4 -25 -23
l-38 -106q-48 8 -50 9q43 156 49 176q5 0 37.5 -0.5t51.5 -0.5h319q6 -22 12 -57q-325 -375 -479 -537l2 -4q257 0 299 9q22 5 31 27z" />
    <glyph glyph-name="zdotaccent" unicode="&#x17c;" horiz-adv-x="415" 
d="M257 623q23 0 35.5 -15.5t12.5 -33.5q0 -20 -16 -36t-36 -16q-22 0 -37 15t-15 35q0 19 16 35t40 16zM326 149q32 -6 46 -10q-24 -79 -43 -140q-5 0 -46 0.5t-84 0.5h-108h-85q-10 25 -15 40q42 45 152.5 163.5t154.5 165.5l-1 5q-78 0 -150 -2q-22 0 -29 -15l-29 -80
q-21 3 -46 8q6 25 17.5 71t16.5 65q3 0 35 -0.5t60 -0.5q68 -1 200 -1q6 -19 12 -53q-156 -172 -305 -316v-5q163 3 180 4q25 2 33 21z" />
    <glyph glyph-name="Zcaron" unicode="&#x17d;" horiz-adv-x="555" 
d="M365 768q115 70 121 74q9 -8 22 -30q-101 -74 -135 -99q-23 0 -33 1q-66 66 -100 98q12 15 28 29q42 -30 97 -73zM455 191q22 -3 50 -10q-20 -68 -61 -182q-4 0 -51.5 0.5t-113.5 0.5h-113h-167q-7 19 -12 45q73 80 267 302t215 246l-1 5q-243 2 -264 -3q-17 -4 -25 -23
l-38 -106q-48 8 -50 9q43 156 49 176q5 0 37.5 -0.5t51.5 -0.5h319q6 -22 12 -57q-325 -375 -479 -537l2 -4q257 0 299 9q22 5 31 27z" />
    <glyph glyph-name="zcaron" unicode="&#x17e;" horiz-adv-x="415" 
d="M247 540q21 16 59.5 48.5t50.5 42.5q19 -17 26 -26l-57.5 -57.5t-66.5 -64.5q-26 0 -39 1q-4 7 -34 54.5t-46 72.5q24 17 31 21q12 -14 38 -46t38 -46zM326 149q32 -6 46 -10q-24 -79 -43 -140q-5 0 -46 0.5t-84 0.5h-108h-85q-10 25 -15 40q42 45 152.5 163.5
t154.5 165.5l-1 5q-78 0 -150 -2q-22 0 -29 -15l-29 -80q-21 3 -46 8q6 25 17.5 71t16.5 65q3 0 35 -0.5t60 -0.5q68 -1 200 -1q6 -19 12 -53q-156 -172 -305 -316v-5q163 3 180 4q25 2 33 21z" />
    <glyph glyph-name="florin" unicode="&#x192;" horiz-adv-x="512" 
d="M471 646q38 0 58 -11q-1 -14 -12.5 -35t-24.5 -28q-52 12 -77 12q-43 0 -72 -32q-26 -25 -40.5 -62t-31.5 -125q28 0 87.5 0.5t92.5 0.5q-3 -24 -10 -48q-125 0 -179 -1q-42 -220 -62 -286q-25 -85 -88.5 -136.5t-137.5 -51.5q-34 0 -53 8q2 13 13 32.5t22 28.5
q33 -9 59 -9q39 0 72.5 34t47.5 97q21 90 56 283h-106q3 19 10 47q17 0 50 0.5t48 0.5q6 0 8 7q17 89 36.5 130t61.5 77q76 67 172 67z" />
    <glyph glyph-name="uni0218" unicode="&#x218;" horiz-adv-x="488" 
d="M271 -125q0 -50 -34.5 -93t-84.5 -69q-10 13 -23 31q71 46 71 89q0 29 -38 39q1 30 18.5 48.5t39.5 18.5q21 0 36 -18.5t15 -45.5zM402 484l-2 90q0 8 -4 14q-20 21 -78 21q-65 0 -100 -30q-47 -41 -47 -97q0 -41 21.5 -61t86.5 -53q11 -6 17 -9q69 -35 99 -71.5
t30 -89.5q0 -95 -76 -157q-62 -51 -178 -51q-97 0 -149 29q10 101 16 156q16 3 50 3l1 -102q0 -9 6 -13q29 -22 93 -22q81 0 122 37q42 36 42 100q0 25 -7.5 43t-28 34.5t-37.5 27t-54 29.5q-64 34 -95 69.5t-31 87.5q0 90 81 147q65 44 162 44q83 0 123 -26
q-6 -74 -15 -147z" />
    <glyph glyph-name="uni0219" unicode="&#x219;" horiz-adv-x="365" 
d="M179 -116q0 -46 -31.5 -85.5t-76.5 -62.5q-16 18 -21 28q64 43 64 82q0 25 -34 35q1 27 17 44t36 17q18 0 32 -17t14 -41zM282 294l-5 65q0 7 -6 12q-20 13 -52 13q-35 0 -57 -12q-37 -21 -37 -60q0 -19 9.5 -32t21 -19.5t39.5 -18.5q54 -24 79.5 -49.5t25.5 -65.5
q0 -75 -69 -113q-41 -24 -123 -24q-65 0 -97 18q1 20 3 61t3 61q14 2 44 2l7 -72q0 -8 6 -11q20 -14 60 -14q42 0 66 15q31 20 31 61q0 29 -16.5 43.5t-56.5 32.5q-52 22 -77 45.5t-25 67.5q0 35 23 64.5t53 44.5q43 21 109 21q59 0 95 -21q-8 -72 -11 -113q-6 -1 -21 -1.5
t-22 -0.5z" />
    <glyph glyph-name="uni021A" unicode="&#x21a;" horiz-adv-x="558" 
d="M300 -100q0 -50 -34.5 -93t-84.5 -69q-10 13 -23 31q71 46 71 89q0 29 -38 39q1 30 18.5 48.5t39.5 18.5q21 0 36 -18.5t15 -45.5zM122 46l79 3q3 0 5 4l92 547q-108 0 -137 -3q-22 -2 -28 -19l-29 -96q-20 0 -50 4q22 110 34 165q10 0 41 -0.5t52 -0.5h167h168
q15 0 33 0.5t29.5 1t20.5 0.5q-15 -118 -22 -166q-7 0 -23.5 -1.5t-25.5 -2.5l2 97q0 9 -4 13.5t-17 5.5q-34 2 -135 2l-95 -551l96 -3q-4 -29 -9 -47q-18 0 -62 0.5t-65 0.5t-63 -0.5t-62 -0.5q2 19 8 47z" />
    <glyph glyph-name="uni021B" unicode="&#x21b;" horiz-adv-x="345" 
d="M171 -114q0 -46 -32 -86t-77 -63q-9 11 -21 28q65 43 65 82q0 25 -35 36q1 27 17 44t36 17q18 0 32.5 -17t14.5 -41zM127 87q0 -42 46 -42q44 0 114 20q2 -11 4 -43q-85 -31 -153 -31q-23 0 -48 17.5t-34 45.5q-3 9 -3 18q0 13 7 50t16.5 79t10.5 49q17 71 27 119h-78
q1 5 3 14.5t3.5 17t2.5 13.5q49 4 74 5q6 0 8 7q4 15 13 48t12 45q37 17 65 17q3 0 3 -4q-9 -45 -25 -113q103 0 151 1q-3 -23 -10 -51h-152q-12 -47 -27 -121q-30 -132 -30 -161z" />
    <glyph glyph-name="circumflex" unicode="&#x2c6;" horiz-adv-x="458" 
d="M277 561q-1 -1 -105 -88q-10 10 -26 28q47 47 119 117h38q10 -14 24 -35t30 -46.5t24 -37.5q-15 -13 -31 -25q-48 58 -73 87z" />
    <glyph glyph-name="caron" unicode="&#x2c7;" horiz-adv-x="458" 
d="M264 540q19 15 56.5 47t52.5 44q19 -16 27 -26q-21 -20 -66.5 -65t-57.5 -57q-27 0 -39 1q-23 36 -80 127q13 11 31 21q66 -80 76 -92z" />
    <glyph glyph-name="uni02C9" unicode="&#x2c9;" horiz-adv-x="458" 
d="M373 554q-1 -6 -9 -47q-137 0 -202 1q3 20 8 44q136 2 203 2z" />
    <glyph glyph-name="breve" unicode="&#x2d8;" horiz-adv-x="458" 
d="M261 487q-42 0 -68 29t-30 67q32 10 39 11q17 -57 67 -57q52 0 78 54q24 -4 40 -9q-12 -38 -44.5 -66.5t-81.5 -28.5z" />
    <glyph glyph-name="dotaccent" unicode="&#x2d9;" horiz-adv-x="458" 
d="M272 623q23 0 35.5 -15.5t12.5 -33.5q0 -20 -16.5 -36t-36.5 -16q-21 0 -36.5 15t-15.5 35q0 19 16 35t41 16z" />
    <glyph glyph-name="ring" unicode="&#x2da;" horiz-adv-x="458" 
d="M283 651q36 0 59.5 -21t23.5 -51q0 -39 -30.5 -66.5t-72.5 -27.5q-35 0 -60 20.5t-25 53.5q0 39 31 65.5t74 26.5zM278 616q-23 0 -38 -14.5t-15 -39.5q0 -18 12.5 -30.5t29.5 -12.5q21 0 36.5 15t15.5 41q0 19 -12 30t-29 11z" />
    <glyph glyph-name="ogonek" unicode="&#x2db;" horiz-adv-x="458" 
d="M308 4h59q-120 -77 -120 -131q0 -16 10 -24.5t25 -8.5q27 0 55 22q10 -13 13 -30q-52 -45 -99 -45q-31 0 -54.5 19t-23.5 49q0 41 37 76.5t98 72.5z" />
    <glyph glyph-name="tilde" unicode="&#x2dc;" horiz-adv-x="458" 
d="M231 598q7 0 14.5 -2t14.5 -6.5t11.5 -7t12.5 -9t10 -8.5q28 -22 41 -22q25 0 36 52h36q-6 -45 -27 -74.5t-53 -29.5q-18 0 -55 28q-34 28 -47 28q-25 0 -40 -50h-37q8 45 31 73t52 28z" />
    <glyph glyph-name="hungarumlaut" unicode="&#x2dd;" horiz-adv-x="458" 
d="M281 636q18 -15 37 -42q-45 -35 -141 -109q-8 9 -26 29q70 65 130 122zM409 632q21 -21 35 -42q-52 -39 -140 -111q-18 20 -26 30q77 73 131 123z" />
    <glyph glyph-name="pi" unicode="&#x3c0;" horiz-adv-x="545" 
d="M536 419h-68l-51 -275q-18 -98 -12 -144h-68q-12 32 8 137l53 282h-158q-4 -15 -12 -49t-13 -52q-63 -237 -121 -318h-70q66 106 121 316q12 43 25 103q-64 0 -101 -10l-2 44q30 24 128 24h355z" />
    <glyph glyph-name="uni2010" unicode="&#x2010;" horiz-adv-x="300" 
d="M139 214h-110q3 23 8 53h108q21 0 61 0.5t60 1.5q-2 -15 -9 -55h-118z" />
    <glyph glyph-name="figuredash" unicode="&#x2012;" horiz-adv-x="512" 
d="M255 273h-220q3 22 8 50h221q40 0 115 0.5t113 1.5q-3 -30 -9 -52h-228z" />
    <glyph glyph-name="endash" unicode="&#x2013;" horiz-adv-x="500" 
d="M239 223h-210q1 8 4 26t4 26q70 1 210 1q85 0 219 2q-6 -37 -10 -56q-31 0 -109.5 0.5t-107.5 0.5z" />
    <glyph glyph-name="emdash" unicode="&#x2014;" horiz-adv-x="1000" 
d="M478 223h-449q3 28 8 52q74 1 221.5 1t221.5 1q324 0 486 1q-5 -33 -9 -56q-78 0 -240.5 0.5t-238.5 0.5z" />
    <glyph glyph-name="quoteleft" unicode="&#x2018;" horiz-adv-x="181" 
d="M134 476q-20 0 -35.5 19t-15.5 45q0 50 34 94.5t84 69.5q16 -18 25 -32q-71 -44 -71 -91q0 -27 38 -37q-2 -30 -19.5 -49t-39.5 -19z" />
    <glyph glyph-name="quoteright" unicode="&#x2019;" horiz-adv-x="181" 
d="M202 633q0 -48 -34 -91.5t-85 -70.5q-18 22 -23 31q69 45 69 90q0 28 -38 38q1 30 18.5 49t40.5 19q21 0 36.5 -19t15.5 -46z" />
    <glyph glyph-name="quotesinglbase" unicode="&#x201a;" horiz-adv-x="224" 
d="M92 94q21 0 36 -19t15 -46q0 -49 -34 -92.5t-84 -69.5q-18 22 -23 31q69 44 69 90q0 28 -38 37q1 30 18.5 49.5t40.5 19.5z" />
    <glyph glyph-name="quotedblleft" unicode="&#x201c;" horiz-adv-x="332" 
d="M134 481q-20 0 -36 18.5t-16 44.5q0 48 33.5 90.5t83.5 69.5q13 -13 23 -31q-68 -45 -68 -89q0 -25 37 -37q-1 -28 -18 -47t-39 -19zM287 481q-20 0 -35.5 18.5t-15.5 44.5q0 48 33.5 91.5t82.5 68.5q16 -16 24 -31q-69 -46 -69 -89q0 -25 38 -37q-1 -29 -18.5 -47.5
t-39.5 -18.5z" />
    <glyph glyph-name="quotedblright" unicode="&#x201d;" horiz-adv-x="332" 
d="M147 698q21 0 36 -18t15 -45q0 -47 -33.5 -90t-82.5 -69q-14 17 -22 31q67 44 67 88q0 28 -37 36q1 30 18.5 48.5t38.5 18.5zM301 698q20 0 35.5 -18.5t15.5 -44.5q0 -48 -34 -91t-82 -68q-18 22 -23 31q68 45 68 88q0 28 -37 36q1 30 18 48.5t39 18.5z" />
    <glyph glyph-name="quotedblbase" unicode="&#x201e;" horiz-adv-x="372" 
d="M88 94q20 0 35.5 -18.5t15.5 -44.5q0 -48 -34 -91t-83 -68q-16 20 -22 30q68 45 68 89q0 26 -38 36q1 30 18.5 48.5t39.5 18.5zM241 94q21 0 36.5 -18.5t15.5 -44.5q0 -48 -34 -91t-83 -68q-16 20 -23 30q69 44 69 89q0 26 -38 36q1 30 18 48.5t39 18.5z" />
    <glyph glyph-name="dagger" unicode="&#x2020;" horiz-adv-x="443" 
d="M314 652q3 0 1 -4q-40 -199 -44 -216q25 0 77 0.5t79 0.5q-2 -30 -8 -53h-156q-8 -40 -46.5 -236t-56.5 -283l-56 -4q14 83 45.5 267.5t43.5 255.5h-144q3 27 8 50q92 2 136 2q7 0 9 7q8 40 20 112.5t14 85.5q34 15 78 15z" />
    <glyph glyph-name="daggerdbl" unicode="&#x2021;" horiz-adv-x="445" 
d="M322 652q1 0 1 -5q-20 -98 -43 -215q25 0 77 0.5t79 0.5q-1 -19 -8 -53h-157q-30 -154 -46 -231h158q-1 -19 -7 -50q-23 0 -80 -0.5t-81 -0.5q-7 -39 -23 -119t-23 -118q-10 -1 -33 -3l-23 -1q7 41 21.5 122.5t20.5 117.5q-91 0 -147 -1q3 30 9 53h141q5 0 6 7
q26 151 38 224h-144q3 22 8 50q92 2 137 2q9 0 9 7q16 89 33 197q34 16 77 16z" />
    <glyph glyph-name="bullet" unicode="&#x2022;" horiz-adv-x="308" 
d="M249 269q0 -42 -27.5 -72t-68.5 -30q-44 0 -70.5 28t-26.5 69q0 40 28.5 72.5t71.5 32.5t68 -30t25 -70z" />
    <glyph glyph-name="onedotenleader" unicode="&#x2024;" horiz-adv-x="261" 
d="M125 99q27 0 39.5 -17t12.5 -36q0 -23 -16 -39t-39 -16q-24 0 -38 14.5t-14 37.5q0 21 15 38.5t40 17.5z" />
    <glyph glyph-name="twodotenleader" unicode="&#x2025;" horiz-adv-x="522" 
d="M125 99q27 0 39.5 -17t12.5 -36q0 -23 -16 -39t-39 -16q-24 0 -38 14.5t-14 37.5q0 21 15 38.5t40 17.5zM386 99q27 0 39.5 -17t12.5 -36q0 -23 -16 -39t-39 -16q-24 0 -38 14.5t-14 37.5q0 21 15 38.5t40 17.5z" />
    <glyph glyph-name="ellipsis" unicode="&#x2026;" horiz-adv-x="783" 
d="M125 99q27 0 39.5 -17t12.5 -36q0 -23 -16 -39t-39 -16q-24 0 -38 14.5t-14 37.5q0 21 15 38.5t40 17.5zM386 99q27 0 39.5 -17t12.5 -36q0 -23 -16 -39t-39 -16q-24 0 -38 14.5t-14 37.5q0 21 15 38.5t40 17.5zM647 99q27 0 39.5 -17t12.5 -36q0 -23 -16 -39t-39 -16
q-24 0 -38 14.5t-14 37.5q0 21 15 38.5t40 17.5z" />
    <glyph glyph-name="perthousand" unicode="&#x2030;" horiz-adv-x="1094" 
d="M870 -10q-50 0 -83 31q-37 37 -37 99q0 43 19 86.5t52 72.5q45 38 102 38q56 0 88 -35q32 -36 32 -98q0 -40 -18 -82.5t-52 -72.5q-44 -39 -103 -39zM879 29q35 0 57 25q18 19 31 56.5t13 79.5t-15 64q-18 24 -49 24q-33 0 -55 -21q-23 -22 -36 -62.5t-13 -79.5
q0 -43 20 -66q18 -20 47 -20zM558 613l-1 4q-39 0 -121 -0.5t-118 -0.5q32 -30 32 -94q0 -41 -18.5 -84t-52.5 -73q-43 -38 -103 -38q-49 0 -82 31q-37 35 -37 99q0 43 19 87t52 72q45 38 102 38q356 4 382 6q13 -19 19 -33q-80 -107 -227 -311q-205 -284 -248 -342
q-18 10 -40 25q35 47 248 342q63 88 194 272zM186 366q34 0 56 24q45 47 45 139q0 41 -16 63q-16 23 -47 23q-32 0 -57 -22q-23 -21 -35.5 -61.5t-12.5 -79.5q0 -43 20 -66q18 -20 47 -20zM528 -10q-50 0 -83 31q-37 37 -37 99q0 43 19 86.5t52 72.5q45 38 102 38
q56 0 88 -35q32 -36 32 -98q0 -40 -18 -82.5t-52 -72.5q-43 -39 -103 -39zM537 29q35 0 57 25q18 19 31 56.5t13 79.5t-15 64q-18 24 -49 24q-33 0 -55 -21q-23 -22 -35.5 -62.5t-12.5 -79.5q0 -44 19 -66q18 -20 47 -20z" />
    <glyph glyph-name="guilsinglleft" unicode="&#x2039;" horiz-adv-x="265" 
d="M113 216q26 -52 79 -139q-9 -8 -36 -26q-76 100 -116 149q1 14 5 39q78 67 162 146q17 -13 28 -31q-87 -98 -122 -138z" />
    <glyph glyph-name="guilsinglright" unicode="&#x203a;" horiz-adv-x="265" 
d="M132 221q-38 72 -78 138q9 9 36 27q62 -85 116 -150q-2 -21 -6 -38q-31 -28 -87 -79.5t-74 -67.5q-6 5 -29 31q72 77 122 139z" />
    <glyph glyph-name="fraction" unicode="&#x2044;" horiz-adv-x="126" 
d="M329 635q-237 -335 -249 -352q-65 -93 -213 -298q-25 12 -38 22q150 208 211 296q239 339 251 356q20 -9 38 -24z" />
    <glyph glyph-name="zero.superior" unicode="&#x2070;" 
d="M327 644q0 -58 -20 -111.5t-53 -80.5q-35 -29 -85 -29q-40 0 -67 29t-27 87q0 48 17.5 99t49.5 83q36 35 90 35q46 0 70 -32q25 -31 25 -80zM223 721q-23 0 -39 -18q-22 -24 -35.5 -72.5t-13.5 -96.5q0 -39 11 -57q10 -18 32 -18q23 0 40 18q22 24 36 71.5t14 98.5
q0 42 -14 59q-12 15 -31 15z" />
    <glyph glyph-name="four.superior" unicode="&#x2074;" 
d="M146 431q1 5 2.5 16t2.5 16l54 2q2 0 2 1q3 15 7 43h-150q-5 12 -13 38q41 44 98 104q12 12 33 34t37.5 39t28.5 29q21 1 58 -1q-23 -138 -35 -206q40 0 61 1q-1 -14 -7 -37h-60q-1 -7 -4 -22.5t-4 -22.5l44 -2q-2 -23 -5 -32h-73h-77zM248 699h-5q-12 -13 -35.5 -38
t-35.5 -37q-51 -56 -66 -73q-3 -3 1 -5h113z" />
    <glyph glyph-name="five.superior" unicode="&#x2075;" 
d="M305 546q0 -55 -41 -88q-42 -34 -118 -34q-49 0 -75 7q0 13 -1.5 41.5t-2.5 42.5q11 2 41 4l7 -48q0 -3 3 -4q14 -6 38 -6q38 0 64 20q26 19 26 55q0 25 -19.5 43.5t-64.5 18.5q-18 0 -62 -4l-3 3q32 120 40 152h97h94q-4 -30 -8 -42h-144q-11 -32 -23 -71q28 2 37 2
q51 0 83 -25t32 -67z" />
    <glyph glyph-name="six.superior" unicode="&#x2076;" 
d="M143 603l2 -1q42 30 84 30t66 -28q20 -23 20 -59q0 -60 -48 -96q-33 -26 -82 -26q-47 0 -72 24q-34 31 -34 89q0 51 18.5 98t48.5 77q45 45 113 45q41 0 63 -8q0 -48 -1 -76q-11 -2 -41 -4l-5 39q-1 6 -6 8q-6 3 -23 3q-37 0 -59 -25q-29 -34 -44 -90zM210 591
q-42 0 -72 -35q-8 -50 12 -78q15 -20 40 -20q26 0 43 17q25 23 25 64q0 24 -13 38q-11 14 -35 14z" />
    <glyph glyph-name="seven.superior" unicode="&#x2077;" 
d="M87 661q2 9 10.5 40t12.5 48h62h159q8 -23 9 -41q-79 -103 -133 -220q-12 -25 -17 -59q-32 -2 -59 -2q4 34 20 64q53 100 131 213l-1 3q-113 0 -125 -1q-10 -1 -15 -11l-14 -42q-16 2 -40 8z" />
    <glyph glyph-name="eight.superior" unicode="&#x2078;" 
d="M253 600v-2q60 -23 60 -75q0 -47 -46 -78q-36 -22 -91 -22q-58 0 -86 24q-26 21 -26 55q0 31 23.5 56.5t63.5 40.5v2q-45 25 -45 66q0 45 45 71q31 18 76 18q47 0 71 -21q25 -20 25 -51q0 -53 -70 -84zM161 672q0 -20 11.5 -32t41.5 -25q55 22 55 65q0 19 -11 30
q-12 14 -37 14t-40 -12q-20 -13 -20 -40zM257 516q0 25 -16.5 40t-54.5 28q-28 -12 -46.5 -32.5t-18.5 -44.5q0 -23 16 -37q17 -15 47 -15t50 15q23 19 23 46z" />
    <glyph glyph-name="nine.superior" unicode="&#x2079;" 
d="M258 578l-3 1q-35 -26 -77 -26q-41 0 -67 23q-25 23 -25 65q0 45 37 82q36 33 93 33q48 0 76 -31q29 -31 29 -84q0 -54 -21 -106t-55 -79q-42 -33 -102 -33q-39 0 -66 8q0 11 -1.5 36.5t-2.5 39.5q24 4 40 5l9 -43q0 -3 4 -5q10 -5 28 -5q33 0 59 23q31 30 45 96z
M194 590q35 0 66 31q9 52 -9 78q-13 23 -44 23q-25 0 -43 -18q-21 -24 -21 -58q0 -28 12 -41q12 -15 39 -15z" />
    <glyph glyph-name="parenleft.superior" unicode="&#x207d;" horiz-adv-x="189" 
d="M82 531q0 84 49.5 161.5t118.5 110.5q8 -11 13 -27q-49 -32 -87.5 -100.5t-38.5 -147.5q0 -88 54 -146q-8 -11 -23 -24q-86 64 -86 173z" />
    <glyph glyph-name="parenright.superior" unicode="&#x207e;" horiz-adv-x="189" 
d="M187 631q0 -86 -49 -160.5t-120 -112.5q-13 23 -15 28q51 36 89.5 101t38.5 147q0 89 -55 144q18 21 23 25q88 -62 88 -172z" />
    <glyph glyph-name="n.superior" unicode="&#x207f;" horiz-adv-x="392" 
d="M126 595l-58 -6q-2 26 -2 36q22 3 45.5 8.5t37 9t16.5 3.5t10.5 -6t9.5 -11q-17 -68 -19 -75l6 -2q40 46 81.5 70t71.5 24q32 -5 50 -39q4 -9 4 -23q0 -55 -59 -219q-2 -5 3 -5q14 0 53 12q3 -13 5 -34q-48 -17 -101 -17q-4 0 -11.5 7t-10.5 15q29 83 46 152q14 49 14 72
q0 26 -21 26q-33 0 -83 -44t-59 -77q-22 -84 -36 -145h-57q29 113 64 268z" />
    <glyph glyph-name="zero.inferior" unicode="&#x2080;" 
d="M278 105q0 -59 -20 -112.5t-53 -80.5q-35 -29 -85 -29q-40 0 -67 29t-27 87q0 48 17.5 99t49.5 83q36 35 90 35q46 0 70 -32q25 -31 25 -79zM174 181q-22 0 -39 -18q-22 -24 -35.5 -72t-13.5 -96q0 -40 11 -57q9 -19 32 -19t40 18q22 24 36 71.5t14 98.5q0 41 -14 60
q-13 14 -31 14z" />
    <glyph glyph-name="one.inferior" unicode="&#x2081;" 
d="M25 -109q5 27 7 37l77 1q2 0 2 2q19 103 38 219q-8 -2 -36 -7.5t-47 -9.5q-4 23 -5 36q29 7 67 19.5t62 21t28 8.5q1 0 1 -2q-7 -39 -25 -137.5t-27 -149.5l80 -1q-1 -14 -7 -37q-20 0 -57 0.5t-53 0.5q-17 0 -51.5 -0.5t-53.5 -0.5z" />
    <glyph glyph-name="two.inferior" unicode="&#x2082;" 
d="M266 127q0 -67 -112 -152q-27 -20 -57 -38l1 -5q19 1 74.5 3.5t69.5 2.5q2 0 2 -2q-1 -18 -7 -45q-13 0 -70 0.5t-77 0.5q-16 0 -40.5 -0.5t-34.5 -0.5q-7 22 -8 29q58 38 100 71q97 77 97 134q0 24 -12 37q-14 17 -41 17q-30 0 -46 -13l-3 -6l-16 -52q-6 1 -19.5 2.5
t-19.5 2.5q3 17 9 50t7 36q38 18 94 18q61 0 88 -29q21 -22 21 -61z" />
    <glyph glyph-name="three.inferior" unicode="&#x2083;" 
d="M182 64v-6q35 -4 53.5 -24.5t18.5 -49.5q0 -46 -44 -76q-36 -25 -113 -25q-45 0 -77 7q0 13 -1.5 42.5t-2.5 44.5q25 4 40 5l9 -50l1 -2l3 -3q19 -7 41 -7q42 0 62 16q21 16 21 44q0 27 -20.5 42t-53.5 15h-39q1 8 4 37q53 -2 88.5 15.5t35.5 48.5q0 18 -12 28
q-13 13 -44 13q-29 0 -45 -10q-3 -3 -4 -5l-13 -45q-28 2 -41 4q9 47 15 76q45 17 99 17q59 0 84 -25q22 -19 22 -47q0 -29 -22.5 -50.5t-64.5 -29.5z" />
    <glyph glyph-name="four.inferior" unicode="&#x2084;" 
d="M97 -109q1 5 2.5 16t2.5 16l54 2q2 0 2 1q3 15 7 43h-150q-5 12 -13 38q41 44 98 104q19 20 54 56.5t45 46.5q22 0 58 -2q-32 -187 -35 -206q40 0 61 1q-1 -14 -7 -37h-61q-5 -37 -7 -45l44 -2q-2 -23 -5 -32q-11 0 -36 0.5t-37 0.5q-13 0 -39 -0.5t-38 -0.5zM199 159
l-5 1q-48 -52 -71 -75q-15 -17 -66 -73q-6 -6 1 -6h113z" />
    <glyph glyph-name="five.inferior" unicode="&#x2085;" 
d="M256 6q0 -55 -41 -88q-42 -34 -118 -34q-49 0 -75 7q0 13 -1.5 41.5t-2.5 42.5q6 1 20 2.5t21 2.5l7 -48q0 -4 3 -5q13 -6 38 -6q38 0 64 20q26 19 26 55q0 25 -19.5 43.5t-64.5 18.5q-40 0 -62 -4l-3 3q32 120 40 152h96h95q-5 -30 -8 -42q-90 0 -144 1q-9 -27 -23 -71
q13 1 37 1q51 0 83 -25t32 -67z" />
    <glyph glyph-name="six.inferior" unicode="&#x2086;" 
d="M94 63l2 -1q40 30 84 30q42 0 66 -28q20 -23 20 -59q0 -60 -48 -96q-33 -26 -82 -26q-45 0 -72 24q-34 32 -34 90q0 51 18.5 98t48.5 76q43 45 113 45q41 0 63 -8q0 -48 -1 -76q-11 -2 -41 -4l-5 40q-2 5 -6 7q-8 4 -23 4q-36 0 -59 -26q-29 -34 -44 -90zM161 51
q-42 0 -72 -35q-8 -50 12 -78q14 -19 40 -19q25 0 43 16q25 23 25 64q0 23 -13 39q-10 13 -35 13z" />
    <glyph glyph-name="seven.inferior" unicode="&#x2087;" 
d="M38 121q3 11 7.5 29t8.5 32.5t7 27.5q15 0 35 -0.5t27 -0.5h159q8 -23 9 -41q-79 -103 -133 -220q-12 -24 -17 -58q-24 -3 -59 -3q4 33 20 65q50 95 131 213l-1 2q-113 0 -125 -1q-10 -1 -15 -10l-14 -43q-16 2 -40 8z" />
    <glyph glyph-name="eight.inferior" unicode="&#x2088;" 
d="M204 61v-3q60 -23 60 -74q0 -48 -46 -78q-35 -23 -91 -23q-57 0 -86 24q-26 21 -26 55q0 31 24 57t63 40v2q-45 25 -45 67q0 44 45 70q31 18 76 18q46 0 71 -20q25 -22 25 -51q0 -55 -70 -84zM112 132q0 -20 11.5 -32t41.5 -25q55 22 55 65q0 19 -11 30q-12 14 -37 14
t-40 -11q-20 -15 -20 -41zM208 -24q0 25 -16.5 40t-54.5 28q-28 -11 -46.5 -32t-18.5 -44q0 -24 16 -38q17 -15 47 -15q31 0 50 16q23 18 23 45z" />
    <glyph glyph-name="nine.inferior" unicode="&#x2089;" 
d="M209 38l-3 1q-35 -26 -77 -26q-41 0 -67 23q-25 25 -25 65q0 45 37 82q35 33 93 33q50 0 76 -31q28 -30 28 -84t-20.5 -106t-54.5 -79q-42 -33 -102 -33q-39 0 -66 8q-1 19 -5 76q27 4 41 5l9 -43q0 -3 4 -5q10 -5 28 -5q33 0 59 24q31 28 45 95zM145 50q35 0 66 32
q9 50 -9 77q-13 23 -44 23q-26 0 -43 -18q-21 -24 -21 -57q0 -29 12 -42q13 -15 39 -15z" />
    <glyph glyph-name="parenleft.inferior" unicode="&#x208d;" horiz-adv-x="189" 
d="M33 -8q0 83 49.5 160.5t118.5 110.5q8 -12 13 -27q-49 -32 -87.5 -100.5t-38.5 -147.5q0 -86 54 -146q-9 -12 -23 -23q-86 62 -86 173z" />
    <glyph glyph-name="parenright.inferior" unicode="&#x208e;" horiz-adv-x="189" 
d="M138 91q0 -86 -49 -160.5t-120 -112.5q-3 4 -8 14t-8 14q52 36 90.5 101t38.5 147q0 89 -55 144q11 14 23 26q88 -64 88 -173z" />
    <glyph glyph-name="colonmonetary" unicode="&#x20a1;" horiz-adv-x="513" 
d="M276 590l23 117q28 4 46 1l-23 -109q24 5 63 7l21 101q26 3 45 2l-22 -104q30 -1 60.5 -9.5t39.5 -17.5q-1 -16 -12 -34.5t-24 -27.5q-11 11 -33.5 21.5t-42.5 11.5l-98 -465q53 3 135 32q4 -28 4 -47q-94 -33 -150 -37l-23 -107q-13 -1 -42 -1l23 107q-38 2 -62 8
l-26 -113q-28 -2 -42 -1l30 126q-54 23 -86.5 74t-32.5 132q0 112 62 207t167 126zM278 83l97 471q-41 0 -65 -7l-93 -453q24 -9 61 -11zM180 111l85 423q-62 -28 -103.5 -99.5t-41.5 -171.5q0 -114 60 -152z" />
    <glyph glyph-name="Euro" unicode="&#x20ac;" horiz-adv-x="512" 
d="M-4 233l5 41h49q3 40 11 68h-50l5 41h57q47 126 144 195q92 66 221 66q79 0 119 -21q-7 -63 -20 -170l-51 -3l3 111q0 10 -5 13q-25 16 -76 16q-91 0 -157 -56q-68 -57 -100 -151h267l-5 -41h-274q-5 -20 -10 -68h274l-5 -41h-268q3 -71 37 -117q21 -30 59.5 -49.5
t85.5 -19.5q67 0 166 37q4 -31 3 -51q-120 -43 -189 -43q-100 0 -171 65q-70 66 -72 178h-53z" />
    <glyph glyph-name="uni2113" unicode="&#x2113;" horiz-adv-x="445" 
d="M367 142l33 -34q-69 -115 -185 -115q-71 0 -104 44.5t-30 114.5l1 11q-39 -26 -57 -37l-18 40q66 43 85 58l51 265q20 106 66 157.5t106 51.5q46 0 73 -31.5t27 -82.5q0 -170 -260 -377l-2 -16q-16 -136 79 -136q69 0 135 87zM211 504l-43 -226q186 168 186 300
q0 66 -49 66q-30 0 -55.5 -35.5t-38.5 -104.5z" />
    <glyph glyph-name="trademark" unicode="&#x2122;" horiz-adv-x="618" 
d="M125 431l36 1v186q-36 0 -47 -3l-7 -50q-11 0 -33 2q1 31 3 83h111h104q2 -42 3 -83q-6 -1 -17 -1.5t-17 -0.5l-7 50q-10 3 -47 3v-186l40 -1q0 -22 -1 -32h-59h-62v32zM319 431l32 1q1 59 1 186h-33v32h95q6 -19 27 -85t32 -98h5q5 17 19 58t24.5 74.5t15.5 50.5h91
q0 -20 -1 -32h-33v-187h35v-32h-55h-44v32l24 1q2 52 2 158h-5q-23 -71 -63 -179q-11 -1 -33 -1q-36 100 -61 184h-6q1 -49 1 -163h25q0 -22 -1 -32h-44h-51q0 20 1 32z" />
    <glyph glyph-name="Omega" unicode="&#x2126;" horiz-adv-x="684" 
d="M245 48l-10 -48h-229l11 58h141v3q-38 39 -63 97.5t-25 124.5q0 159 95.5 268t238.5 109q112 0 180 -74t68 -183q0 -111 -52.5 -200.5t-127.5 -141.5v-3h131l-9 -58h-230l8 48q81 46 143.5 139.5t62.5 206.5q0 85 -47 146t-134 61q-76 0 -135.5 -49.5t-88 -120.5
t-28.5 -146q0 -81 28 -142.5t72 -94.5z" />
    <glyph glyph-name="estimated" unicode="&#x212e;" horiz-adv-x="816" 
d="M798 312h-603q-5 0 -5 -5v-181q0 -12 8 -22q93 -98 229 -98q144 0 239 110h55q-52 -60 -129 -95t-166 -35q-154 0 -263.5 97.5t-109.5 236.5t109.5 237.5t263.5 98.5t263 -98.5t109 -237.5v-8zM661 336v183q0 13 -9 22q-93 95 -225 95q-133 0 -228 -97q-9 -9 -9 -24v-179
q0 -5 5 -5h462q4 0 4 5z" />
    <glyph glyph-name="onethird" unicode="&#x2153;" horiz-adv-x="764" 
d="M71 327q5 29 7 36l77 2q2 0 2 2q31 181 38 218q-37 -6 -84 -17q-1 6 -2 18.5t-2 18.5q30 7 67 19.5t61 21t28 8.5q3 0 1 -3q-11 -67 -52 -286l81 -2q-5 -29 -7 -36h-111h-104zM637 635q-35 -50 -249 -352q-65 -93 -213 -298q-25 12 -38 22q153 212 212 296
q42 60 126.5 180.5t123.5 175.5q20 -9 38 -24zM617 172v-5q35 -4 53.5 -25t18.5 -50q0 -46 -44 -75q-36 -25 -113 -25q-50 0 -77 6q0 14 -1.5 43t-2.5 44q24 4 40 5l9 -49q2 -4 4 -5q18 -8 41 -8q42 0 62 16q21 18 21 45q0 26 -20.5 41.5t-53.5 15.5q-3 0 -19.5 -0.5
t-19.5 -0.5q2 12 4 38q52 -2 88 15.5t36 47.5q0 17 -12 29q-13 13 -44 13q-29 0 -45 -11q-2 -1 -4 -5l-13 -45q-11 2 -41 4q7 39 15 76q42 18 99 18q59 0 84 -25q22 -20 22 -48t-22.5 -49.5t-64.5 -30.5z" />
    <glyph glyph-name="twothirds" unicode="&#x2154;" horiz-adv-x="764" 
d="M316 563q0 -68 -112 -153q-11 -8 -22 -15.5t-21.5 -14t-13.5 -8.5l1 -4q19 1 74.5 3.5t69.5 2.5q2 0 2 -2q-1 -18 -7 -45h-147h-75q-5 16 -8 28q70 47 101 71q96 77 96 134q0 25 -12 38q-13 16 -41 16q-29 0 -46 -12l-3 -6l-16 -52q-6 0 -19 1.5t-20 2.5q1 7 7 38.5
t10 47.5q36 18 94 18q61 0 87 -29q21 -23 21 -60zM643 635q-237 -335 -249 -352q-96 -137 -214 -298q-22 11 -37 22q119 165 211 296q125 177 250 356q20 -9 39 -24zM623 172l-1 -5q35 -4 54 -25t19 -50q0 -46 -44 -75q-36 -25 -113 -25q-51 0 -78 6q0 14 -1.5 43t-2.5 44
q28 4 41 5l9 -49q2 -4 4 -5q18 -8 41 -8q41 0 61 16q21 18 21 45t-20.5 42t-53.5 15q-2 0 -18.5 -0.5t-19.5 -0.5q2 26 4 38q51 -2 87 15.5t36 47.5q0 18 -11 29q-15 13 -45 13q-29 0 -44 -11q-3 -2 -5 -5l-13 -45q-12 2 -40 4q7 39 15 76q42 18 99 18t84 -25q21 -21 21 -48
q0 -28 -22.5 -49.5t-63.5 -30.5z" />
    <glyph glyph-name="oneeighth" unicode="&#x215b;" horiz-adv-x="764" 
d="M72 327q3 9 7 36l77 2q2 0 2 2q18 98 38 218q-37 -6 -83 -17q-4 24 -4 37q29 7 66.5 19.5t61.5 21t28 8.5q1 0 1 -3q-6 -35 -24 -134.5t-28 -151.5l81 -2q-5 -26 -8 -36h-110h-105zM639 635q-237 -335 -249 -352q-65 -93 -213 -298q-21 10 -38 22q119 165 211 296
q239 339 251 356q20 -9 38 -24zM631 169v-2q61 -24 61 -75q0 -47 -47 -78q-35 -22 -90 -22q-60 0 -87 24q-25 19 -25 54q0 32 23.5 57.5t62.5 39.5v3q-44 24 -44 66q0 45 44 70q33 19 76 19q45 0 71 -21q26 -20 26 -51q0 -55 -71 -84zM539 241q0 -20 12 -32.5t42 -24.5
q55 21 55 64q0 17 -11 31q-14 14 -38 14q-25 0 -40 -12q-20 -13 -20 -40zM635 85q0 25 -16.5 39.5t-54.5 27.5q-28 -11 -46 -31.5t-18 -44.5q0 -25 16 -38q14 -14 46 -14t50 15q23 18 23 46z" />
    <glyph glyph-name="threeeighths" unicode="&#x215c;" horiz-adv-x="764" 
d="M245 500v-6q35 -4 54 -24.5t19 -49.5q0 -45 -45 -76q-36 -25 -113 -25q-46 0 -77 7q0 13 -1.5 42.5t-2.5 44.5q24 4 40 5l9 -50l2 -2q1 -2 2 -3q19 -7 41 -7q42 0 62 16q21 16 21 44q0 27 -20.5 42t-53.5 15h-39q1 6 2.5 18.5t2.5 18.5q52 -2 87.5 15.5t35.5 48.5
q0 18 -12 28q-13 13 -44 13q-28 0 -45 -10q-3 -3 -4 -5l-13 -45q-5 0 -19 1.5t-21 2.5q2 9 4.5 25t5 28.5l4.5 22.5q45 17 99 17q58 0 85 -25q21 -19 21 -47q0 -29 -22.5 -50.5t-64.5 -29.5zM652 635q-237 -335 -249 -352q-65 -93 -213 -298q-21 10 -38 22q119 165 211 296
q16 23 108 153.5t143 202.5q20 -9 38 -24zM639 169v-2q60 -24 60 -75q0 -47 -46 -78q-36 -22 -91 -22q-59 0 -86 24q-26 20 -26 54q0 32 23.5 57.5t63.5 39.5v3q-45 24 -45 66q0 44 45 70q33 19 76 19q45 0 71 -21q25 -20 25 -51q0 -55 -70 -84zM547 241q0 -20 11.5 -32.5
t41.5 -24.5q55 21 55 64q0 19 -11 31q-14 14 -37 14q-25 0 -40 -12q-20 -13 -20 -40zM643 85q0 25 -16.5 39.5t-54.5 27.5q-28 -11 -46.5 -31.5t-18.5 -44.5t16 -38t47 -14q30 0 50 15q23 19 23 46z" />
    <glyph glyph-name="fiveeighths" unicode="&#x215d;" horiz-adv-x="764" 
d="M318 441q0 -53 -41 -88q-44 -34 -118 -34q-44 0 -74 8q-1 14 -2.5 42t-2.5 42q13 2 41 4l7 -48q0 -3 4 -5q14 -6 37 -6q38 0 64 20q26 21 26 56q0 25 -19.5 43.5t-64.5 18.5q-36 0 -61 -5l-3 4q4 16 40 152h96h94q-4 -30 -8 -42h-144q-3 -11 -11 -35t-11 -36q26 2 36 2
q52 0 83.5 -25.5t31.5 -67.5zM647 635q-237 -335 -249 -352q-65 -93 -213 -298q-21 10 -38 22q119 165 211 296q16 23 108 153.5t143 202.5q20 -9 38 -24zM634 169v-2q60 -24 60 -75q0 -47 -46 -78q-36 -22 -91 -22q-59 0 -86 24q-26 20 -26 54q0 32 23.5 57.5t63.5 39.5v3
q-45 24 -45 66q0 44 45 70q33 19 76 19q45 0 71 -21q25 -20 25 -51q0 -55 -70 -84zM542 241q0 -20 11.5 -32.5t41.5 -24.5q55 21 55 64q0 19 -11 31q-14 14 -37 14q-25 0 -40 -12q-20 -13 -20 -40zM638 85q0 25 -16.5 39.5t-54.5 27.5q-28 -11 -46.5 -31.5t-18.5 -44.5
t16 -38t47 -14t50 15q23 19 23 46z" />
    <glyph glyph-name="seveneighths" unicode="&#x215e;" horiz-adv-x="764" 
d="M108 556q15 60 23 89h61h160q5 -17 9 -41q-78 -103 -133 -220q-11 -23 -18 -59q-15 -2 -59 -2q6 38 20 64q58 106 132 213l-1 2q-97 1 -125 -1q-12 0 -15 -10l-14 -42q-6 1 -20 3.5t-20 3.5zM609 635q-30 -42 -83 -116.5t-93.5 -132t-72.5 -103.5q-72 -101 -214 -298
q-20 10 -38 22q153 212 212 296q42 60 126.5 180.5t123.5 175.5q22 -10 39 -24zM601 169v-2q60 -24 60 -75q0 -47 -46 -78q-36 -22 -91 -22q-59 0 -86 24q-26 20 -26 54q0 32 23.5 57.5t63.5 39.5v3q-45 24 -45 66q0 44 45 70q33 19 76 19q44 0 71 -21q25 -20 25 -51
q0 -55 -70 -84zM509 241q0 -20 11.5 -32.5t41.5 -24.5q55 21 55 64q0 19 -11 31q-14 14 -37 14q-25 0 -40 -12q-20 -13 -20 -40zM605 85q0 25 -16.5 39.5t-54.5 27.5q-28 -11 -46.5 -31.5t-18.5 -44.5t16 -38t46 -14q31 0 51 15q23 19 23 46z" />
    <glyph glyph-name="partialdiff" unicode="&#x2202;" horiz-adv-x="511" 
d="M119 619l-18 47q77 51 166 51q95 0 158 -75.5t63 -211.5q0 -111 -34.5 -210t-104.5 -165t-160 -66q-79 0 -122 52t-43 129q0 108 70.5 185.5t174.5 77.5q49 0 89 -27.5t53 -60.5h2q9 43 9 89q-1 108 -49.5 166t-116.5 58q-77 0 -137 -39zM265 376q-72 0 -120.5 -59.5
t-48.5 -144.5q0 -58 28 -92t76 -34q71 0 123.5 66.5t73.5 164.5q-12 40 -49 69.5t-83 29.5z" />
    <glyph glyph-name="Delta" unicode="&#x2206;" horiz-adv-x="599" 
d="M-2 43l339 612h79l116 -612l-8 -43h-533zM459 59l-71 371q-11 64 -23 153h-5q-25 -53 -68 -134l-211 -390h378z" />
    <glyph glyph-name="product" unicode="&#x220f;" horiz-adv-x="563" 
d="M537 582l-135 -669h-70l136 669h-252l-135 -669h-69l135 669h-77l12 63h543l-12 -63h-76z" />
    <glyph glyph-name="summation" unicode="&#x2211;" horiz-adv-x="447" 
d="M-58 -87l7 46l298 321l-174 315l9 50h428l-11 -62h-342v-3l166 -301l-274 -300v-3h374l-10 -63h-471z" />
    <glyph glyph-name="minus" unicode="&#x2212;" horiz-adv-x="512" 
d="M444 264q0 -30 -3 -56h-397q0 19 2 53q65 1 203 2t195 1z" />
    <glyph glyph-name="uni2215" unicode="&#x2215;" horiz-adv-x="126" 
d="M329 635q-237 -335 -249 -352q-65 -93 -213 -298q-25 12 -38 22q150 208 211 296q239 339 251 356q20 -9 38 -24z" />
    <glyph glyph-name="uni2219" unicode="&#x2219;" horiz-adv-x="244" 
d="M124 316q28 0 40 -16.5t12 -36.5q0 -23 -15.5 -38.5t-38.5 -15.5q-24 0 -38 14t-14 37q0 21 14.5 38.5t39.5 17.5z" />
    <glyph glyph-name="radical" unicode="&#x221a;" horiz-adv-x="523" 
d="M633 818l-368 -913h-55l-76 426l-73 -29l-12 42l134 55l57 -355q5 -29 7 -55q1 1 1 0q3 8 10 28t10 29l308 772h57z" />
    <glyph glyph-name="infinity" unicode="&#x221e;" horiz-adv-x="718" 
d="M535 121q-11 0 -22 2t-20 4t-20 8t-18 9.5t-18.5 12.5t-16 12.5t-16.5 14.5t-15 13.5t-15.5 15l-14.5 14.5q-38 -37 -55 -52.5t-54.5 -34.5t-75.5 -19q-61 0 -100 40t-39 103q0 59 42.5 101.5t104.5 42.5q12 0 23.5 -2t23.5 -6.5t21 -8t21.5 -13t18.5 -13.5t19 -16
t16.5 -15.5t17.5 -17t16 -15.5q28 28 40.5 39.5t38.5 31.5t51.5 28t53.5 8q61 0 100.5 -40.5t39.5 -103.5q0 -59 -42.5 -101t-105.5 -42zM536 174q38 0 64.5 26.5t26.5 63.5q0 39 -25 65t-63 26q-27 0 -56.5 -16.5t-44.5 -31t-43 -43.5q7 -6 23.5 -23t26.5 -25.5t26 -20
t32 -16.5t33 -5zM179 174q27 0 57 17t44 30t43 43q-4 3 -29 28t-35.5 33t-33 19t-43.5 11q-38 0 -64.5 -27t-26.5 -64q0 -39 25 -64.5t63 -25.5z" />
    <glyph glyph-name="integral" unicode="&#x222b;" horiz-adv-x="275" 
d="M362 786l-18 -50q-11 4 -28 4q-18 0 -32.5 -8t-25 -24.5t-17.5 -31t-13 -40t-8.5 -37.5t-6.5 -36q-9 -59 -29.5 -219t-33.5 -238q-7 -44 -16.5 -77t-27.5 -70t-48 -57.5t-70 -20.5q-28 0 -48 10l15 50q20 -5 34 -5q75 0 100 171q12 75 32.5 236t31.5 225q37 226 168 226
q25 0 41 -8z" />
    <glyph glyph-name="approxequal" unicode="&#x2248;" horiz-adv-x="512" 
d="M434 351l31 -35q-21 -25 -52.5 -42t-64.5 -17q-25 0 -57 10q-9 3 -24 9.5t-16 7.5q-7 2 -19.5 8t-18.5 8q-24 8 -45 8q-43 0 -87 -44l-30 35q51 59 117 59q25 0 55 -10q1 0 41 -17q6 -2 18.5 -8t19.5 -8q21 -8 46 -8q42 0 86 44zM438 207l31 -34q-52 -60 -118 -60
q-30 0 -55 10q-1 0 -41 17q-39 16 -41 17q-21 7 -43 7q-43 0 -87 -44l-30 36q21 24 52.5 41t64.5 17q27 0 54 -9q10 -3 25.5 -9.5t17.5 -7.5q31 -14 36 -16q25 -9 47 -9q43 0 87 44z" />
    <glyph glyph-name="notequal" unicode="&#x2260;" horiz-adv-x="513" 
d="M308 283l-35 -95h187q0 -17 -2 -53q-134 0 -205 -1q-15 -41 -35 -97q-38 15 -49 20q12 32 27 77q-23 0 -69 -0.5t-68 -1.5q0 32 3 56h154q16 43 34 95h-190q0 21 2 53q31 0 100.5 0.5t106.5 0.5q5 16 16.5 48.5t17.5 48.5q36 -14 51 -22q-17 -50 -27 -74q23 0 68 0.5
t65 0.5q2 -26 -2 -56h-150z" />
    <glyph glyph-name="lessequal" unicode="&#x2264;" horiz-adv-x="512" 
d="M169 343q14 -12 234 -194q-16 -25 -31 -40q-53 40 -144.5 111t-126.5 98q-1 16 -1 47q61 45 273 202q16 -17 30 -42q-12 -10 -113.5 -88.5t-120.5 -93.5zM58 -3q0 50 2 56h398q0 -35 -1 -53q-345 0 -399 -3z" />
    <glyph glyph-name="greaterequal" unicode="&#x2265;" horiz-adv-x="513" 
d="M346 337q-190 153 -234 190q15 24 30 40q114 -85 273 -205v-47q-46 -35 -137 -103.5t-136 -102.5q-12 14 -31 41q219 174 235 187zM61 -2q0 50 2 54q150 0 398 2q0 -20 -2 -54q-14 -1 -196.5 -1.5t-201.5 -0.5z" />
    <glyph glyph-name="lozenge" unicode="&#x25ca;" horiz-adv-x="491" 
d="M468 324l-240 -350h-60l-116 350l241 351h60zM400 323l-84 270l-5 20h-2q-3 -8 -12 -20l-177 -267l84 -271q4 -11 5 -20h1q6 11 13 21z" />
    <glyph glyph-name="Euro.fitted" unicode="&#xe000;" horiz-adv-x="565" 
d="M23 232l5 40h49q2 30 11 69h-49l4 40h58q47 124 142 192q95 70 227 70q84 0 124 -21q-6 -57 -20 -171q-8 -1 -25.5 -1t-25.5 -1l3 111q0 10 -5 12q-24 17 -81 17q-96 0 -163 -60q-65 -55 -99 -148h277l-5 -40h-283q-8 -31 -10 -69h282l-5 -40h-276q3 -72 36 -118
q22 -30 62 -49t87 -19q70 0 172 37q3 -24 3 -51q-127 -43 -195 -43q-105 0 -175 65q-71 65 -71 178h-54z" />
    <glyph glyph-name="Euro.oldstyle" unicode="&#xe001;" horiz-adv-x="507" 
d="M0 160l5 38h49q0 20 6 54h-46l5 38h50q34 102 122 162q75 54 189 54q76 0 108 -17q-6 -67 -15 -139q-7 0 -23 -1t-24 -1l1 86q0 8 -5 11q-20 12 -66 12q-76 0 -132 -46q-55 -44 -81 -121h251l-5 -38h-254q-6 -29 -4 -54h247l-5 -38h-239q6 -40 31 -71q39 -49 120 -49
q56 0 146 28q3 -42 3 -46q-96 -32 -163 -32q-99 0 -155 51q-50 43 -60 119h-56z" />
    <glyph glyph-name="cent.fitted" unicode="&#xe005;" horiz-adv-x="448" 
d="M54 257q0 88 63 171.5t158 102.5q5 23 17 99q23 5 51 7q-7 -35 -18 -101q6 1 23 1q58 0 86 -23q-2 -15 -14.5 -33t-23.5 -23q-38 26 -82 26q-29 -171 -57 -327q60 5 118 37q7 -24 10 -41q-71 -38 -136 -45q-4 -20 -10 -55t-9 -49q-14 -2 -46 -4q2 14 8.5 49t9.5 56
q-59 1 -103.5 41t-44.5 111zM129 265q0 -40 20 -71t62 -37q8 47 18 102t21 121t17 101q-57 -13 -97.5 -79t-40.5 -137z" />
    <glyph glyph-name="degree.oldstyle" unicode="&#xe006;" horiz-adv-x="274" 
d="M138 404q-42 0 -72 26t-30 72q0 42 32.5 74.5t83.5 32.5q46 0 73.5 -26.5t27.5 -67.5q0 -48 -32 -79.5t-83 -31.5zM143 445q25 0 39.5 17t14.5 48q0 26 -13 42t-36 16q-25 0 -40.5 -17.5t-15.5 -48.5q0 -26 14.5 -41.5t36.5 -15.5z" />
    <glyph glyph-name="dollar.fitted" unicode="&#xe007;" horiz-adv-x="471" 
d="M85 443q0 43 26 78t58 52q49 28 111 30q2 11 5.5 31.5t6.5 37t6 30.5q32 6 50 6q-4 -18 -11 -54.5t-9 -47.5q88 0 126 -25q-2 -14 -12.5 -31t-22.5 -27q-52 32 -100 36q-33 -183 -38 -211q72 -26 104 -58t32 -84q0 -80 -73 -131q-48 -35 -127 -45q-3 -15 -9 -48t-9 -48
q-16 -2 -46 -4q6 32 18 98q-111 -2 -167 35q10 38 40 57q65 -45 136 -46q22 123 40 227q-66 25 -100.5 57t-34.5 85zM153 451q0 -32 18.5 -49.5t66.5 -37.5q9 55 34 195q-43 -2 -72 -21q-47 -33 -47 -87zM348 190q0 36 -19 56.5t-66 39.5q-12 -64 -38 -212q47 4 79 29
q44 34 44 87z" />
    <glyph glyph-name="florin.fitted" unicode="&#xe00a;" horiz-adv-x="447" 
d="M444 646q38 0 58 -11q-1 -14 -12.5 -35t-24.5 -28q-52 12 -76 12q-44 0 -73 -32q-25 -25 -40 -62.5t-31 -124.5q28 0 87.5 0.5t92.5 0.5q-2 -18 -11 -48q-125 0 -179 -1q-43 -227 -62 -286q-25 -85 -88.5 -136.5t-137.5 -51.5q-33 0 -52 8q2 13 12.5 32.5t21.5 28.5
q36 -9 59 -9q39 0 72.5 34t47.5 97q21 90 56 283h-106q2 7 5 23t5 24q17 0 50 0.5t48 0.5q6 0 8 7q17 89 36.5 130t62.5 77q76 67 171 67z" />
    <glyph glyph-name="florin.oldstyle" unicode="&#xe00b;" horiz-adv-x="410" 
d="M367 506q33 0 57 -11q-1 -11 -11 -30.5t-21 -26.5q-39 13 -64 13q-39 0 -61 -25q-20 -20 -31.5 -51t-23.5 -104q99 0 152 1q-4 -27 -10 -45h-149q-24 -168 -44 -233q-21 -70 -73.5 -112t-116.5 -42q-32 0 -51 9q2 13 11 30.5t20 26.5q26 -11 50 -11q32 0 59.5 27.5
t39.5 79.5q11 46 40 225h-88q3 19 8 42q58 2 81 2q5 0 6 6q14 77 28.5 111t48.5 63q62 55 143 55z" />
    <glyph glyph-name="numbersign.oldstyle" unicode="&#xe00c;" horiz-adv-x="535" 
d="M286 120l-116 -1q-38 -106 -57 -163q-24 -2 -50 0q24 67 55 163h-106q1 11 9 46q19 0 57 -0.5t57 -0.5q7 22 46 142h-115q6 30 9 44h122q8 22 16 46.5t17.5 53.5t14.5 44q18 3 55 3q-34 -98 -51 -146h116q9 26 25.5 75t23.5 69q36 2 54 1q-8 -23 -50 -145q19 0 54.5 0.5
t50.5 0.5q-2 -14 -11 -46h-111q-32 -94 -48 -142h114q-4 -25 -9 -44h-121q-4 -11 -25 -72t-32 -91q-22 -3 -49 -1q37 107 55 164zM233 306l-48 -142h117l24 72t23 70h-116z" />
    <glyph glyph-name="bullet.001" unicode="&#xe00d;" horiz-adv-x="1000" 
d="M616 636q1 -30 1.5 -71.5t1 -92.5t0.5 -77q-50 -2 -239 -2v241q79 4 236 2zM334 353q1 -31 1 -119t1 -121q-94 -5 -238 -3q-4 107 1 243q106 3 235 0zM901 353q0 -181 -1 -242q-118 -3 -236 0q-2 85 0 243q42 1 131 0t106 -1zM617 68q0 -21 1 -111t0 -130q-157 -2 -238 0
q-2 48 1 243q168 0 236 -2z" />
    <glyph glyph-name="bullet.002" unicode="&#xe00e;" horiz-adv-x="1000" 
d="M515 734q73 -143 134 -300q0 -1 -4 -7q-114 -4 -294 -2q43 118 137 309h27zM998 246q0 -20 -1 -30q-186 -99 -299 -144q-1 26 -1 312q200 -79 301 -138zM0 213l1 25q136 72 305 143q3 -121 1 -314q-216 96 -307 146zM351 26l4 10q197 2 296 -1q-60 -163 -129 -305h-32
q-54 100 -139 296z" />
    <glyph glyph-name="bullet.003" unicode="&#xe00f;" horiz-adv-x="1000" 
d="M335 635q1 -35 1 -118t1 -120q-60 -3 -241 -3q0 39 -0.5 123t-0.5 117q79 3 240 1zM902 635q0 -98 -2 -240q-92 -2 -239 0q-2 81 0 242q164 0 241 -2zM618 350q2 -136 2 -240q-124 -3 -241 0q-2 52 1 241q169 0 238 -1zM335 67q2 -75 0 -241q-70 -3 -238 0q-5 122 0 240
q101 3 238 1zM902 66q0 -148 -3 -241q-86 -1 -238 1q0 203 1 240q82 2 240 0z" />
    <glyph glyph-name="bullet.004" unicode="&#xe010;" horiz-adv-x="1000" 
d="M15 723q209 3 462 1q7 -230 0 -487q-66 -1 -462 -1v487zM82 650q-5 -234 0 -339q92 -4 333 3q1 75 -5 338q-78 2 -112 1.5t-111 -2t-105 -1.5zM163 567q25 1 166 1q2 -48 2 -172q-52 -2 -168 0q-2 89 0 171zM664 567q26 1 168 1q2 -46 2 -173q-107 -4 -170 0v172z
M521 226q167 1 462 -1q3 -182 0 -486q-203 -3 -462 1q-5 234 0 486zM588 154q-6 -206 -3 -340q301 -4 333 -3q3 258 0 338q-234 6 -330 5zM668 64q46 2 168 2q2 -56 2 -172h-170v170zM163 62h168q1 -17 1 -174q-112 -2 -169 -1q-2 112 0 175z" />
    <glyph glyph-name="bullet.005" unicode="&#xe011;" horiz-adv-x="916" 
d="M85 262l7 4q478 0 668 4q2 301 -1 420q34 2 74 0q-1 -193 -1 -486l-8 -5q-119 -1 -219.5 -0.5t-226 0t-220.5 -2.5q-3 -102 0 -421h-67l-7 5q1 105 1 265.5v216.5zM200 408v279q90 1 281 1q1 -46 1 -137.5v-141.5q-46 -1 -282 -1zM270 473q122 0 144 1q0 6 -1 64t-2 84
q-112 -2 -145 -3q3 -136 4 -146zM435 -223q-2 174 -2 281q186 0 282 -2v-279q-185 -2 -280 0zM505 -159l4 -2q12 1 62.5 2t76.5 3q0 102 -2 146q-23 0 -73 -0.5t-72 -1.5q4 -141 4 -147z" />
    <glyph glyph-name="bullet.006" unicode="&#xe012;" horiz-adv-x="1000" 
d="M759 429v-85h233v-68q-71 -1 -232 -1v-84q159 0 232 -2v-65q-68 -1 -232 -1v-82q29 0 112 -0.5t120 -0.5v-68h-236v-234q-11 0 -35 0.5t-32 0.5q0 29 -1.5 112t-1.5 113h-80v-225q-20 -1 -67 -1v226h-80q-1 -32 -0.5 -114t0.5 -111h-68q0 27 -0.5 110.5t-0.5 114.5h-78
q-1 -42 -2 -127t-1 -98q-33 -2 -67 0v231q-23 0 -108 0.5t-127 1.5q-1 21 -1 66q32 0 115 1t119 2q-1 30 -1 83q-24 1 -113 0.5t-119 -0.5v65q195 3 232 3v85q-31 1 -114 1h-118q-1 12 -1 67h233v84q-30 0 -112.5 0.5t-119.5 0.5q-1 12 -1 67q35 0 120 0.5t116 0.5v228h66
q1 -30 1.5 -110t0.5 -112h82v221q21 1 66 1q2 -108 2 -222h79q2 63 2 222h66q0 -162 1 -222h80q0 110 2 222h66v-227q32 -1 117 -1.5t119 -0.5q2 -42 2 -66q-138 -2 -235 -2zM686 433q-134 3 -376 3v-399q252 -4 381 -2q0 99 -2.5 240.5t-2.5 157.5z" />
    <glyph glyph-name="bullet.007" unicode="&#xe013;" horiz-adv-x="1000" 
d="M500 -216l-8 14q252 544 438 905l18 1q3 -271 1 -920q-67 0 -224 -0.5t-225 0.5zM418 -203l-9 -11q-31 -1 -359 -1v889l10 6q247 5 357 0q0 -526 1 -883zM594 -144l5 -8q195 3 277 7q4 215 13 615l-8 1q-169 -347 -287 -615z" />
    <glyph glyph-name="bullet.008" unicode="&#xe014;" horiz-adv-x="1000" 
d="M409 680l9 -9q-1 -355 -1 -886q-79 -2 -357 0l-9 6q-1 107 -1 890q328 0 359 -1zM948 -237h-18q-167 326 -439 905l3.5 7l3.5 7q68 1 226 0.5t225 -0.5q2 -647 -1 -919zM605 616l-5 -7q113 -272 281 -612l8 1q-2 99 -7.5 325.5t-6.5 289.5q-55 3 -270 3z" />
    <glyph glyph-name="bullet.009" unicode="&#xe015;" horiz-adv-x="1000" 
d="M508 -205l-6 -14h-452q-2 647 1 920l18 -1q160 -311 439 -905zM591 -218l-10 8q1 357 1 890q44 0 179 0.5t181 -0.5l7 -6q1 -216 1 -891q-34 0 -168.5 -1t-190.5 0zM397 -156l5 8q-93 219 -281 613h-8q1 -88 3.5 -307.5t4.5 -307.5q109 -6 276 -6z" />
    <glyph glyph-name="bullet.010" unicode="&#xe016;" horiz-adv-x="1000" 
d="M502 681l7 -13q-279 -596 -439 -905l-18 -1q-1 78 -1 919h451zM582 671l9 9q56 -1 190.5 0t168.5 1q0 -204 -0.5 -500.5t-0.5 -391.5l-9 -7q-291 0 -358 2v887zM401 606l-3 8q-197 3 -273 0q-5 -125 -10 -617l8 -2q207 444 278 611z" />
    <glyph glyph-name="bullet.011" unicode="&#xe017;" horiz-adv-x="860" 
d="M235 -315l-6 4q24 69 69 180q-140 0 -201 1v703q386 2 665 1q3 -304 2 -703h-199q10 -30 33 -90.5t33 -89.5l-6 -7q-221 -2 -390 1zM431 219l9 1q5 -14 102 -277q5 0 61.5 1t84.5 2q4 276 4 558q-299 -2 -520 -6q-4 -540 -4 -554q141 -3 158 -3q83 224 105 278z" />
    <glyph glyph-name="bullet.012" unicode="&#xe018;" horiz-adv-x="860" 
d="M658 754l4 -7q-22 -78 -50 -183h148q2 -412 0 -688q-390 -2 -659 0v687q50 1 144 1q-12 34 -32 96.5t-29 88.5l5 5q310 2 469 0zM424 183l10 -1q108 384 138 502q-110 6 -288 4l-4 -6q131 -458 144 -499z" />
    <glyph glyph-name="bullet.013" unicode="&#xe019;" horiz-adv-x="1000" 
d="M89 23l-6 5q-2 259 0 389l4 6q26 -11 86 -35t81 -33q0 148 1 219h662q2 -199 2 -703q-302 -3 -663 -2q-1 77 -1 219q-87 -36 -166 -65zM583 222l1 -9q-114 -48 -256 -102q0 -50 2 -166q191 -3 518 -3q-1 76 -1.5 192.5t-1.5 205t-2 160.5q-63 0 -236 1.5t-279 1.5
q0 -28 -0.5 -88.5t-0.5 -88.5q72 -28 256 -104z" />
    <glyph glyph-name="bullet.014" unicode="&#xe01a;" horiz-adv-x="1000" 
d="M911 -7l-7 -3q-65 21 -164 48v-158q-491 0 -650 2q-3 482 -1 680h650q1 -55 1 -151q31 10 85 29t80 28l6 -5v-470zM361 228l-1 -10q282 -83 483 -139q4 178 0 288l-5 6q-47 -15 -219.5 -66t-257.5 -79z" />
    <glyph glyph-name="bullet.015" unicode="&#xe01b;" horiz-adv-x="1000" 
d="M0 56v676h1000v-670l-7 1q-35 44 -148 167l-7 -1q-64 -65 -150 -163l-5 -1q-67 96 -161 215h-6q-1 -1 -172 -207l-8 -1q-89 107 -154 176l-10 -1q-73 -83 -165 -191h-7zM0 -268v155q781 -3 1000 1v-156h-1000z" />
    <glyph glyph-name="bullet.016" unicode="&#xe01c;" horiz-adv-x="394" 
d="M207 395h-21q-56 92 -168 297l5 8q291 0 344 -1q-61 -127 -160 -304zM194 334q40 0 66 -29t26 -70q0 -45 -25 -75t-66 -30q-42 0 -70.5 28t-28.5 70q0 46 28.5 76t69.5 30zM184 71l20 -1q57 -93 168 -297l-5 -8q-231 -2 -344 1q85 172 161 305z" />
    <glyph glyph-name="bullet.017" unicode="&#xe01d;" horiz-adv-x="1000" 
d="M660 218v22q69 42 290 169l7 -5q2 -233 0 -348q-157 81 -297 162zM340 241v-19q-171 -105 -291 -171l-7 5q-2 233 0 348q151 -77 298 -163zM590 230q0 -42 -24 -69t-61 -27q-45 0 -70 27t-25 67q0 41 25.5 71t63.5 30q39 0 65 -28t26 -71z" />
    <glyph glyph-name="bullet.018" unicode="&#xe01e;" horiz-adv-x="574" 
d="M0 315v33q160 2 251 1q64 -43 114.5 -88.5t112.5 -111.5q67 0 96 1v-33q-152 -2 -251 -1q-41 23 -122.5 94t-111.5 106q-12 0 -43 -0.5t-46 -0.5z" />
    <glyph glyph-name="bullet.019" unicode="&#xe01f;" horiz-adv-x="574" 
d="M574 348v-33q-56 2 -89 2q-30 -35 -111.5 -106.5t-122.5 -94.5q-98 -1 -251 1v32h96q62 66 112.5 111.5t114.5 88.5q91 1 251 -1z" />
    <glyph glyph-name="bullet.020" unicode="&#xe020;" horiz-adv-x="982" 
d="M48 93l4 3q119 -74 146 -93l-1 -3q-25 -1 -78.5 -0.5t-75.5 0.5q-6 48 5 93zM144 385h3q8 -24 22.5 -70.5t16.5 -53.5q-39 -8 -107 -19q4 28 23.5 73.5t41.5 69.5zM410 538l3 -3q-27 -83 -40 -117q-62 29 -117 59q20 21 68 40.5t86 20.5zM717 473l-2 -4q-34 -19 -103 -52
q-20 48 -47 119q42 -3 85.5 -22t66.5 -41zM833 378l3 3q29 -34 46.5 -79.5t22.5 -77.5q-16 4 -35 9.5t-40 12.5t-33 10q22 80 36 122zM902 156q-75 -48 -177 -106h-5q-12 107 -73 178q-54 62 -152 62q-59 0 -99.5 -16.5t-74.5 -56.5q-60 -71 -69 -177l-5 1q-111 78 -184 133
l1 3q188 34 203 37v2q-58 170 -69 206l2 5q71 -31 203 -96h1q48 132 79 209h6q43 -93 90 -210h2q78 40 195 97l4 -5q-37 -122 -63 -207v-1q145 -41 185 -53v-5zM937 4l-3 -4h-163v4q82 46 156 86q7 -20 10 -86zM322 0l-3 6q0 46 14.5 88t35.5 66q50 56 122 56q81 0 122 -65
q36 -60 39 -149q-33 -2 -178 -2h-152z" />
    <glyph glyph-name="bullet.021" unicode="&#xe021;" horiz-adv-x="886" 
d="M825 96q3 -25 -1.5 -56t-12.5 -39q-73 -1 -301 -1q-349 2 -440 3q-15 23 -15 93q60 -15 301 -22l1 2q-185 175 -268 286q2 22 16.5 46t30.5 32q37 -57 131.5 -164.5t132.5 -138.5h2q0 83 -11 464q14 11 42 18.5t50 3.5q-2 -56 -5 -243t-1 -251l2 -1q52 55 130.5 154
t114.5 157q11 1 30 -24.5t23 -50.5q-32 -51 -109.5 -138.5t-140.5 -149.5l1 -2q65 1 174 8.5t123 13.5z" />
    <glyph glyph-name="bullet.022" unicode="&#xe022;" horiz-adv-x="1000" 
d="M500 484l4 6q242 4 492 2l3 -4q-60 -141 -231 -514h-7q-172 321 -261 510zM255 490l7 1q107 -234 228 -514l-3 -4q-277 -3 -489 0l-5 5q103 211 262 512zM592 434l-3 -3q10 -20 74.5 -144t93.5 -180h4q97 199 152 324l-1 3q-119 6 -320 0zM251 356h-4q-45 -87 -164 -323
l3 -3q101 -3 316 1l1 3q-63 142 -152 322z" />
    <glyph glyph-name="bullet.023" unicode="&#xe023;" horiz-adv-x="1000" 
d="M762 84h-9q-116 185 -244 411l5 9q112 4 476 1l4 -10q-169 -307 -232 -411zM490 -33l-5 -10q-125 -2 -472 1l-6 10q105 190 241 408l8 1q84 -138 234 -410z" />
    <glyph glyph-name="bullet.024" unicode="&#xe024;" horiz-adv-x="672" 
d="M501 -48l-12 1q-166 227 -331 439q-106 -137 -158 -205v99q90 124 155 215l12 -1q291 -386 329 -436h9q19 25 167 222v-99q-15 -21 -74.5 -103t-96.5 -132zM508 271h-11l-142 213l2 12q190 2 292 1l4 -12q-57 -87 -145 -214zM306 -26l-3 -11q-126 -3 -292 -1l-3 11
q82 127 140 214l11 1q60 -86 147 -214z" />
    <glyph glyph-name="bullet.025" unicode="&#xe025;" horiz-adv-x="1000" 
d="M743 -24l-6 -5q-83 0 -246 0.5t-245 1.5l-6 4q-1 243 1 741l6 2q557 -260 694 -327l1 -8q-127 -267 -199 -409zM705 30l5 2q63 137 147 332l-2 7q-231 107 -549 247l-4 -4q0 -98 2 -578q58 0 125 -1t148 -2.5t128 -2.5zM674 121l-3 -3q-79 11 -321 50l-2 5
q111 154 214 280l3 1q52 -150 109 -333zM421 199q87 -16 193 -28l1 2q-27 76 -71 186h-3q-109 -141 -121 -157z" />
    <glyph glyph-name="bullet.026" unicode="&#xe026;" horiz-adv-x="1000" 
d="M16 -27l-2 6q226 487 327 694l8 1q235 -112 407 -199l5 -6q0 -83 -0.5 -246t-1.5 -245l-4 -6q-242 -1 -739 1zM116 38l4 -4q99 -1 577 2q0 65 2 198.5t3 202.5l-2 5q-141 65 -330 147l-7 -2q-115 -245 -247 -549zM553 79q-68 49 -282 222l-1 3q139 51 328 117l3 -3
q-22 -193 -43 -337zM366 284v-3q109 -89 159 -129l3 1q13 105 20 208l-2 1q-32 -13 -180 -78z" />
    <glyph glyph-name="bullet.027" unicode="&#xe027;" horiz-adv-x="1000" 
d="M244 -11l-5 6q0 83 0.5 246t1.5 245l4 6q243 1 739 -1l2 -6q-226 -487 -327 -694l-8 -1q-184 87 -407 199zM298 27l2 -5q141 -65 330 -147l7 2q124 266 247 549l-4 4q-99 1 -577 -2q0 -65 -2 -198t-3 -203zM402 47l-3 3q19 164 43 333l5 2q124 -88 279 -222l1 -3
q-120 -46 -325 -113zM632 180v3q-71 62 -156 129l-3 -1q-11 -81 -22 -205l2 -1q97 38 179 75z" />
    <glyph glyph-name="bullet.028" unicode="&#xe028;" horiz-adv-x="1000" 
d="M257 488l6 5q83 0 246 -0.5t245 -1.5l6 -4q1 -243 -1 -741l-6 -2q-557 260 -694 327l-1 8q93 198 199 409zM295 433l-5 -2q-62 -133 -147 -331l2 -7q261 -120 549 -247l4 4q1 100 -2 578q-65 0 -198 2t-203 3zM324 342l3 3q91 -11 324 -49l2 -6q-43 -61 -219 -282l-3 -1
q-76 228 -107 335zM448 99h3q82 102 130 163l-1 3q-77 13 -197 28l-1 -2q46 -139 66 -192z" />
    <glyph glyph-name="bullet.029" unicode="&#xe029;" horiz-adv-x="1000" 
d="M775 566l-1 -13q-18 -22 -213 -258q117 -119 252 -241h9q38 48 107.5 139t70.5 93v-99q-169 -229 -171 -232l-15 1q-110 107 -349 331q148 175 218 264q-45 35 -132 101t-105 80h99q47 -34 123.5 -89t106.5 -77zM478 525l1 -13q-62 -70 -194 -232l1 -12
q165 -159 325 -305h-99q-51 48 -146 134.5t-133 121.5q-2 53 0 105q145 173 149 179l-1 9q-22 19 -148 123q-2 42 0 83q164 -130 245 -193zM710 310l99 120q65 -60 99 -92q-15 -18 -48 -59.5t-51 -64.5q-15 14 -32 30.5t-36.5 35.5t-30.5 30z" />
    <glyph glyph-name="bullet.030" unicode="&#xe02a;" horiz-adv-x="1000" 
d="M446 732h99q-170 -135 -228 -181q91 -114 218 -264q-293 -277 -349 -331l-15 -1q-34 45 -89 121t-82 111v99q24 -31 84 -110t94 -122h9q135 121 252 241q-200 243 -213 258l-1 13q21 15 98 73t123 93zM714 268l1 12q-132 162 -194 232l1 13q76 59 245 194q1 -41 0 -83
q-14 -12 -67 -56t-81 -68l-1 -9q4 -6 149 -179q2 -52 0 -105q-38 -35 -133 -121.5t-146 -134.5h-99q164 148 325 305zM290 310q-2 -2 -40.5 -39.5t-58.5 -56.5q-33 42 -99 124q34 32 99 92q45 -54 99 -120z" />
    <glyph glyph-name="bullet.031" unicode="&#xe02b;" horiz-adv-x="1000" 
d="M545 -268h-99q18 14 105 80t132 101q-70 89 -218 264q299 283 349 331l15 1q74 -95 171 -223v-99q-177 224 -178 225h-9q-130 -119 -252 -243q30 -36 100.5 -121.5t112.5 -136.5l1 -13q-136 -97 -230 -166zM286 196l-1 -12q132 -162 194 -232l-1 -13q-81 -62 -245 -194
q-1 41 0 83q14 12 67 56t81 68l1 9q-4 6 -149 179q-2 53 0 105q38 35 133 121.5t146 134.5h99q-162 -147 -325 -305zM710 154q48 48 99 96q30 -36 99 -124q-70 -66 -99 -92z" />
    <glyph glyph-name="bullet.032" unicode="&#xe02c;" horiz-adv-x="1000" 
d="M545 -268h-99q-71 55 -221 166l1 13q45 53 117 141t96 117q-121 124 -252 243h-9q-37 -46 -101 -127.5t-77 -97.5v99q113 149 171 223l15 -1q66 -63 184 -175t165 -156q-127 -150 -218 -264q58 -46 228 -181zM715 184l-1 12q-160 157 -325 305h99q51 -48 146 -134.5
t133 -121.5q2 -52 0 -105q-145 -173 -149 -179l1 -9q28 -24 81 -68t67 -56q1 -42 0 -83q-149 122 -245 194l-1 13q62 70 194 232zM290 154l-99 -120q-29 26 -99 92q33 42 99 124q51 -48 99 -96z" />
    <glyph glyph-name="bullet.033" unicode="&#xe02d;" horiz-adv-x="1000" 
d="M889 353l1 -15q-67 -133 -212 -379q-49 0 -138.5 -1t-164.5 -1t-147 2q-5 441 0 744l11 4q383 -195 650 -354zM552 467l-7 2q-137 -151 -254 -298l2 -6q162 -49 353 -92l4 5q-41 184 -98 389z" />
    <glyph glyph-name="bullet.034" unicode="&#xe02e;" horiz-adv-x="1000" 
d="M379 621l15 1q154 -78 379 -212q0 -49 1 -138.5t1 -164.5t-2 -147q-440 -5 -744 0l-4 11q195 383 354 650zM258 299l-2 -7q122 -122 282 -267l7 2q48 165 94 370l-6 5q-194 -49 -375 -103z" />
    <glyph glyph-name="bullet.035" unicode="&#xe02f;" horiz-adv-x="1000" 
d="M621 -157l-15 -1q-117 60 -379 212q0 49 -1 138.5t-1 164.5t2 147q441 5 744 0l4 -11q-190 -374 -354 -650zM735 180l2 7q-150 138 -298 254l-6 -2q-31 -146 -63 -369l6 -4q134 38 359 114z" />
    <glyph glyph-name="bullet.036" unicode="&#xe030;" horiz-adv-x="1000" 
d="M111 111l-1 15q74 143 212 379q49 0 138.5 1t164.5 1t147 -2q5 -440 0 -744l-11 -4q-374 190 -650 354zM433 -10l7 -2q113 112 268 281l-2 6q-127 43 -361 107l-4 -5q35 -162 92 -387z" />
    <glyph glyph-name="sterling.fitted" unicode="&#xe031;" horiz-adv-x="526" 
d="M-5 47l65 3q11 0 17 6q60 54 77 163q4 23 7 62h-104q4 15 10 45q31 1 92 1q5 0 5 6q7 105 11 122q16 86 73 137q61 54 162 54q55 0 88 -16q-4 -58 -11 -142q-8 -1 -25.5 -2.5t-25.5 -2.5l-3 92q-1 11 -8 13q-15 9 -45 9q-50 0 -85 -32q-31 -29 -46 -103q-4 -24 -11 -134
q48 0 178 2q-4 -27 -10 -48q-120 0 -171 -1q0 -3 -2 -17.5t-4 -23.5q-19 -108 -87 -182q-10 -10 7 -10q193 0 225 7q12 3 23 21l46 97q14 -2 47 -11q-24 -73 -60 -163q-17 0 -133 0.5t-191 0.5q-20 0 -60 -0.5t-60 -0.5z" />
    <glyph glyph-name="sterling.oldstyle" unicode="&#xe032;" horiz-adv-x="497" 
d="M8 44l58 2q9 0 14 5q44 38 56 119q4 22 6 45h-90q2 7 5 20t4 20q27 1 79 1q4 0 4 5q5 82 7 93q13 66 61 107q52 45 143 45q48 0 89 -16q-2 -21 -5 -61.5t-4 -53.5q-16 -2 -48 -4l-2 71q0 7 -6 10q-12 9 -45 9q-46 0 -73 -24q-31 -28 -41 -80q-2 -12 -7 -100q100 0 162 1
q-5 -33 -9 -43h-155q-2 -20 -4 -28q-14 -79 -64 -134q-7 -8 4 -8q153 0 200 5q10 3 17 16l36 78q32 -6 45 -11q-21 -66 -48 -133h-285h-112q1 7 3.5 22t4.5 22z" />
    <glyph glyph-name="yen.fitted" unicode="&#xe033;" horiz-adv-x="529" 
d="M264 48l94 -3q-3 -18 -10 -46q-17 0 -59 0.5t-63 0.5q-20 0 -61 -0.5t-61 -0.5q0 3 9 46l79 3q5 0 8 6l15 90h-153q5 30 8 39q100 0 151 1l10 66h-154q3 21 8 39q23 0 69 0.5t69 0.5q-21 57 -58.5 161.5t-46.5 130.5q-4 4 -7 5l-50 2q1 7 4 23t5 23q12 0 41 -0.5t43 -0.5
q25 0 69 0.5t63 0.5q-3 -25 -9 -46l-84 -3q15 -46 44 -139.5t44 -139.5h6q101 153 174 274q5 5 -3 5l-78 3q1 6 2.5 13.5t3.5 17t3 14.5h122q13 0 39.5 0.5t37.5 0.5q-4 -27 -9 -45l-47 -4q-157 -227 -207 -296q23 0 68 0.5t66 0.5q-2 -23 -8 -41h-153l-11 -66h153
q-4 -24 -8 -40h-152z" />
    <glyph glyph-name="yen.oldstyle" unicode="&#xe034;" horiz-adv-x="463" 
d="M165 49l11 61h-131q1 6 3 18.5t3 18.5h131l7 46h-132l6 36h118q-9 19 -44.5 98.5t-53.5 120.5q-1 4 -5 4l-45 1q1 8 3.5 23l3.5 21q12 0 37 -0.5t36 -0.5q20 0 56.5 0.5t51.5 0.5q-5 -32 -8 -44l-62 -2q17 -43 82 -206h4q71 96 145 202q0 4 -3 4l-59 2l3.5 21t4.5 22h100
q11 0 33.5 0.5t32.5 0.5q-3 -20 -8 -43l-41 -2q-93 -126 -173 -222q74 0 114 1q-1 -9 -6 -38h-131l-9 -46q87 0 131 1q-1 -16 -7 -37h-130l-11 -66l81 -2q-4 -26 -9 -43h-106q-17 0 -53 -0.5t-53 -0.5q3 20 8 44l68 2q6 0 6 4z" />
    <glyph glyph-name="uniF634" unicode="&#xf634;" horiz-adv-x="458" 
d="M265 -100q0 -50 -34.5 -93t-84.5 -69q-10 13 -23 31q71 46 71 89q0 29 -38 39q1 30 18.5 48.5t39.5 18.5q21 0 36 -18.5t15 -45.5z" />
    <glyph glyph-name="space_uni0326" unicode="&#xf6c3;" horiz-adv-x="458" 
d="M227 -99q0 -46 -32 -86t-77 -63q-9 10 -21 28q65 42 65 82q0 26 -35 36q1 27 17 44t36 17q19 0 33 -17t14 -41z" />
    <glyph glyph-name="acute.cap" unicode="&#xf6c9;" horiz-adv-x="458" 
d="M407 844q17 -23 32 -55q-32 -15 -101 -49.5t-78 -38.5q-19 34 -19 35q28 18 89.5 58t76.5 50z" />
    <glyph glyph-name="caron.cap" unicode="&#xf6ca;" horiz-adv-x="458" 
d="M332 768q115 70 121 74q9 -8 22 -30q-101 -74 -135 -99q-23 0 -33 1q-66 66 -100 98q12 15 28 29q42 -30 97 -73z" />
    <glyph glyph-name="dieresis.cap" unicode="&#xf6cb;" horiz-adv-x="458" 
d="M247 805q20 0 29.5 -12t9.5 -28q0 -18 -12.5 -31.5t-31.5 -13.5q-17 0 -29 10.5t-12 26.5q0 20 12 34t34 14zM413 805q19 0 29 -12t10 -28q0 -19 -12 -32t-31 -13q-20 0 -31 11t-11 27q0 19 12 33t34 14z" />
    <glyph glyph-name="grave.cap" unicode="&#xf6ce;" horiz-adv-x="458" 
d="M392 701q-33 16 -178 90q19 34 34 53q30 -20 90 -60.5t74 -49.5q-6 -13 -20 -33z" />
    <glyph glyph-name="hungarumlaut.cap" unicode="&#xf6cf;" horiz-adv-x="458" 
d="M367 856q14 -18 29 -48q-29 -16 -85.5 -47.5t-79.5 -44.5q-4 6 -11.5 18t-9.5 16q41 28 157 106zM517 852q12 -16 28 -49q-108 -58 -164 -88q-3 6 -11 17.5t-11 17.5q24 15 79 51t79 51z" />
    <glyph glyph-name="macron.cap" unicode="&#xf6d0;" horiz-adv-x="458" 
d="M450 787q-2 -18 -10 -51q-30 0 -103 0.5t-106 0.5q3 26 9 48q140 2 210 2z" />
    <glyph glyph-name="R_p" unicode="&#xf6dd;" horiz-adv-x="994" 
d="M355 301l-1 -5q10 -4 18 -9.5t15 -16.5t12 -18.5t12 -25.5t10.5 -28t12.5 -35.5t13 -38.5q16 -46 26 -60t24 -14l76 -3q6 30 29.5 148t33.5 174l-68 -4v42q32 6 58.5 11.5t38 8.5t13.5 3q5 0 14 -7t14 -14q-21 -96 -27 -123l9 -2q112 145 201 146q16 -2 35 -17.5
t29 -36.5q7 -14 7 -37q0 -125 -58 -226q-27 -51 -70 -86.5t-100 -35.5q-52 0 -93 37q-8 -44 -28.5 -146t-23.5 -116q-23 -1 -69 -1q4 19 20.5 103.5t25.5 132.5q-15 0 -45 -0.5t-42 -0.5q-9 0 -27.5 -0.5t-31.5 -0.5q-16 25 -47.5 116t-37.5 106q-14 30 -34 43t-55 13
q-45 0 -51 -2l-39 -225l80 -4q-1 -7 -8 -47q-32 1 -116 1q-75 0 -106 -1q1 6 3.5 22t4.5 25l63 3q5 0 7 5l92 542l-70 2q2 19 8 47q21 0 72.5 0.5t78.5 0.5q101 0 152 -17q50 -17 76 -55.5t26 -82.5q0 -66 -47 -117.5t-115 -72.5zM249 597l-47 -273q4 -2 46 -2
q86 0 137.5 47.5t51.5 111.5q0 55 -35.5 87.5t-97.5 32.5q-37 0 -55 -4zM887 322q0 19 -9 32.5t-22 13.5q-42 0 -107.5 -68.5t-79.5 -117.5q-7 -25 -20 -98q14 -20 36.5 -32t42.5 -12q36 0 67 26.5t49 63.5q43 87 43 192z" />
    <glyph glyph-name="cent.inferior" unicode="&#xf6df;" 
d="M36 20q0 53 40 97t98 49q2 9 5 27.5t5 27.5q16 4 37 4q-3 -19 -11 -59h9q36 0 58 -15q-1 -9 -8.5 -21.5t-14.5 -16.5q-27 16 -51 17q-18 -108 -28 -162q36 3 72 24q1 -2 9 -29q-35 -23 -87 -30q-7 -42 -10 -57q-24 -2 -35 -3q4 20 10 60q-43 1 -70.5 23t-27.5 64zM90 26
q0 -51 51 -57q18 108 27 161q-31 -5 -54.5 -35.5t-23.5 -68.5z" />
    <glyph glyph-name="cent.superior" unicode="&#xf6e0;" 
d="M85 560q0 53 40 97t98 49q1 9 5 27.5t5 27.5q24 4 37 4q-3 -19 -11 -59h9q37 0 58 -16q-1 -9 -8.5 -21.5t-14.5 -15.5q-27 16 -51 17q-18 -108 -28 -162q36 3 72 24q2 -5 5 -16t4 -13q-39 -25 -87 -30q-5 -33 -10 -57q-1 0 -14.5 -1.5t-20.5 -1.5q4 20 10 60
q-44 1 -71 23t-27 64zM139 566q0 -52 51 -57q5 26 13.5 80t13.5 80q-30 -4 -54 -34.5t-24 -68.5z" />
    <glyph glyph-name="comma.inferior" unicode="&#xf6e1;" horiz-adv-x="161" 
d="M110 -85q0 -42 -30 -78t-72 -58q-11 13 -20 26q60 37 60 75q0 24 -34 32q1 25 16.5 40.5t34.5 15.5q17 0 31 -15.5t14 -37.5z" />
    <glyph glyph-name="comma.superior" unicode="&#xf6e2;" horiz-adv-x="161" 
d="M159 455q0 -42 -30.5 -78.5t-71.5 -57.5q-9 10 -20 25q60 39 60 76q0 22 -34 31q1 25 16.5 41t34.5 16q17 0 31 -15.5t14 -37.5z" />
    <glyph glyph-name="dollar.inferior" unicode="&#xf6e3;" 
d="M112 -65l18 104q-79 23 -79 77q0 38 34 64q31 21 81 23l9 53q11 2 37 4l-11 -57q45 0 74 -16q-2 -10 -8.5 -23t-13.5 -18q-23 20 -58 23l-17 -96q79 -22 79 -77q0 -42 -36 -69q-34 -24 -81 -26l-10 -52q-11 -1 -35 -1l10 53q-59 0 -93 21q4 29 24 42q36 -26 76 -29z
M145 82l15 88q-27 -2 -43 -14q-18 -15 -18 -34q0 -26 46 -40zM163 30l-17 -95q28 0 46 16q15 15 15 37q0 29 -44 42z" />
    <glyph glyph-name="dollar.superior" unicode="&#xf6e4;" 
d="M161 475l18 103q-79 25 -79 78q0 38 34 63q28 21 81 24l9 53q11 2 37 4l-11 -57q46 0 74 -17q-5 -28 -22 -40q-23 20 -58 23l-17 -96q79 -22 79 -77q0 -44 -36 -69q-33 -25 -81 -27l-10 -51q-6 -1 -17.5 -1.5t-17.5 -0.5l10 54q-59 0 -93 21q2 10 9 23t15 19
q33 -26 76 -29zM194 622l15 88q-27 -2 -43 -14q-18 -15 -18 -34q0 -26 46 -40zM212 570l-17 -95q28 0 46 16q15 14 15 36q0 30 -44 43z" />
    <glyph glyph-name="hyphen.inferior" unicode="&#xf6e5;" horiz-adv-x="242" 
d="M101 20h-82q5 34 7 44q54 0 79 1q61 0 90 1q-2 -19 -8 -46h-86z" />
    <glyph glyph-name="hyphen.superior" unicode="&#xf6e6;" horiz-adv-x="242" 
d="M150 560h-82q5 34 7 44h79q16 0 45.5 0.5t44.5 1.5q-3 -23 -8 -46h-86z" />
    <glyph glyph-name="period.inferior" unicode="&#xf6e7;" horiz-adv-x="161" 
d="M57 -30q41 0 41 -42q0 -19 -12 -31.5t-31 -12.5t-30.5 11.5t-11.5 29.5q0 17 12 31t32 14z" />
    <glyph glyph-name="period.superior" unicode="&#xf6e8;" horiz-adv-x="161" 
d="M106 510q41 0 41 -42q0 -19 -12 -31.5t-31 -12.5t-30.5 11.5t-11.5 29.5q0 17 12 31t32 14z" />
    <glyph glyph-name="b.superior" unicode="&#xf6ea;" horiz-adv-x="373" 
d="M58 330q7 29 113 466l-63 -5q-1 6 -1.5 12t-1 12.5t-0.5 10.5q29 4 56 9t40 7.5t16 2.5q4 0 11 -5.5t10 -10.5q-42 -161 -75 -282l4 -2q79 101 150 101q33 -7 51 -40q6 -12 6 -32q0 -86 -42 -159q-20 -40 -54.5 -67t-80.5 -27q-43 0 -78 35l-18 -36q-1 0 -17.5 4t-25.5 6
zM195 361q51 0 84 64q35 67 35 136q0 33 -26 33q-30 0 -79.5 -49.5t-60.5 -84.5q-2 -5 -8.5 -29.5t-7.5 -28.5q8 -17 26.5 -29t36.5 -12z" />
    <glyph glyph-name="d.superior" unicode="&#xf6eb;" horiz-adv-x="375" 
d="M270 413l-4 2q-83 -93 -145 -95q-39 6 -58 37q-7 11 -7 30q0 53 23 115q22 57 61.5 100.5t92.5 43.5q43 0 74 -24h5q6 26 19.5 86t19.5 86l-66 -2q0 6 -0.5 17t-1.5 17q27 3 54 8.5t41.5 8.5t17.5 3q8 0 21 -17q-67 -275 -108 -463q-1 -4 2 -4q15 0 47 11q6 -21 7 -33
q-54 -18 -92 -18q-3 0 -11 6t-10 11q1 6 18 74zM143 369q28 0 78 47t58 76q2 6 6 21.5t8.5 35t6.5 25.5q-23 29 -64 29q-29 0 -53.5 -27t-40.5 -67q-26 -64 -26 -111q0 -29 27 -29z" />
    <glyph glyph-name="e.superior" unicode="&#xf6ec;" horiz-adv-x="334" 
d="M249 646q40 0 63 -24t23 -55q-6 -46 -40 -69q-64 -29 -159 -27q-9 -31 -9 -54q0 -53 49 -53q46 0 119 39q6 -16 11 -33q-79 -49 -150 -49q-36 0 -63.5 23t-27.5 67q0 38 17.5 87t50.5 88q51 60 116 60zM236 607q-31 0 -56 -30q-22 -27 -36 -72q66 0 101 19q31 14 31 39
q0 44 -40 44z" />
    <glyph glyph-name="i.superior" unicode="&#xf6ed;" horiz-adv-x="206" 
d="M187 791q18 0 28 -12t10 -27t-12.5 -27.5t-28.5 -12.5q-17 0 -29 12t-12 27q0 16 12 28t32 12zM135 596l-64 -4q0 24 -1 35q25 4 51 9t40 7.5t16 2.5q9 0 22 -19q-7 -28 -33 -134.5t-30 -127.5q-2 -5 2 -5q12 0 57 12q4 -25 5 -34q-46 -17 -96 -17q-4 0 -15 8t-14 15
q13 56 60 252z" />
    <glyph glyph-name="l.superior" unicode="&#xf6ee;" horiz-adv-x="199" 
d="M168 793l-70 -3q-1 7 -2 20.5t-1 14.5q29 3 57 8t42.5 8.5t16.5 3.5q10 0 23 -17q-61 -245 -110 -463q-2 -5 3 -5q16 0 64 12q2 -14 4 -36q-50 -15 -107 -15q-3 0 -12 7t-14 15q10 39 52.5 222t53.5 228z" />
    <glyph glyph-name="m.superior" unicode="&#xf6ef;" horiz-adv-x="569" 
d="M132 597l-60 -6q0 6 -0.5 18t-0.5 17q25 4 47.5 9t34 8t14.5 3q9 0 22 -18q-2 -8 -4.5 -18.5t-6 -25.5t-6.5 -26l6 -2q74 90 136 90q29 -4 45 -32q5 -10 5 -21q0 -5 -6 -39l4 -2q72 92 137 92q13 -2 27.5 -12t22.5 -26q5 -10 5 -21q0 -50 -55 -220q-2 -4 3 -4q13 0 51 11
q5 -17 6 -34q-58 -17 -100 -17q-4 0 -11 7.5t-10 14.5q20 60 41 142q15 60 15 83q0 25 -22 25q-28 0 -74 -46t-55 -80q-3 -14 -15.5 -63.5t-18.5 -76.5h-56q28 102 41 169q14 51 14 76q0 9 -5 16t-14 7q-30 0 -75 -46t-55 -80q-13 -52 -34 -142h-56q10 41 63 270z" />
    <glyph glyph-name="r.superior" unicode="&#xf6f1;" horiz-adv-x="286" 
d="M162 541l5 -2q33 48 64.5 77.5t52.5 29.5q18 0 40 -11q0 -13 -9.5 -33.5t-16.5 -26.5q-21 7 -32 7q-23 0 -64.5 -48t-53.5 -93q-4 -15 -27 -114h-57q12 49 62 271l-58 -6q-2 24 -2 35q21 3 44.5 8t37 8t15.5 3q3 0 10.5 -6.5t9.5 -11.5q0 -2 -7 -32.5t-14 -54.5z" />
    <glyph glyph-name="s.superior" unicode="&#xf6f2;" horiz-adv-x="302" 
d="M261 542l-4 49q0 5 -4 8q-16 10 -35 10q-28 0 -43 -8q-27 -17 -27 -43q0 -12 7.5 -21.5t16 -14t28.5 -13.5q40 -17 59.5 -37t19.5 -50q0 -56 -52 -84q-34 -18 -92 -18q-53 0 -77 14q1 16 2.5 46.5t2.5 46.5q22 2 36 2l5 -54q0 -6 5 -8q17 -10 42 -10q29 0 48 11
q23 15 23 43q0 18 -12.5 29t-42.5 24q-38 17 -57 35t-19 50q0 27 16.5 48.5t38.5 31.5q34 17 86 17q47 0 72 -16q-1 -14 -3.5 -43t-3.5 -43q-5 -1 -17.5 -1.5t-18.5 -0.5z" />
    <glyph glyph-name="t.superior" unicode="&#xf6f3;" horiz-adv-x="282" 
d="M141 393q0 -29 35 -29q30 0 84 14q3 -16 3 -35q-67 -23 -118 -23q-17 0 -36.5 13t-25.5 33q-2 4 -2 14q0 12 25 131q19 81 20 86h-59q1 7 3.5 20t3.5 18q36 2 55 2q5 0 6 5q3 10 9.5 33t9.5 34q33 14 53 14q3 0 3 -3q-1 -7 -18 -82h119q-1 -10 -8 -41h-120
q-11 -41 -20 -87q-22 -104 -22 -117z" />
    <glyph glyph-name="breve.sc" unicode="&#xf6f4;" horiz-adv-x="458" 
d="M286 553q-42 0 -68 29t-30 67q17 6 39 12q17 -58 67 -58t78 54q21 -2 40 -8q-12 -39 -45 -67.5t-81 -28.5z" />
    <glyph glyph-name="caron.sc" unicode="&#xf6f5;" horiz-adv-x="458" 
d="M251 616q18 15 55 46t51 43q15 -10 27 -26q-18 -17 -61 -60l-60 -60q-26 0 -39 1q-12 19 -39 61.5t-41 63.5q17 13 32 21q15 -17 75 -90z" />
    <glyph glyph-name="circumflex.sc" unicode="&#xf6f6;" horiz-adv-x="458" 
d="M296 632q-3 -3 -105 -88q-18 18 -26 27q83 83 119 117q12 1 38 1q12 -17 40 -60t39 -59q-11 -10 -32 -25q-5 6 -32 38.5t-41 48.5z" />
    <glyph glyph-name="dotaccent.sc" unicode="&#xf6f7;" horiz-adv-x="458" 
d="M285 667q23 0 35.5 -15.5t12.5 -33.5q0 -20 -16 -36t-36 -16q-22 0 -37 15t-15 35q0 19 16 35t40 16z" />
    <glyph glyph-name="hungarumlaut.sc" unicode="&#xf6f8;" horiz-adv-x="458" 
d="M347 689q12 -16 29 -49q-159 -81 -165 -84q-7 11 -21 35q68 43 157 98zM512 685q12 -18 27 -50q-82 -40 -164 -85q-11 20 -21 36q21 13 76.5 47.5t81.5 51.5z" />
    <glyph glyph-name="lslash.sc" unicode="&#xf6f9;" horiz-adv-x="452" 
d="M82 48l25 147q-10 -4 -20.5 -9t-23 -11t-21.5 -10q-12 21 -15 39q79 36 88 40l35 207l-59 2q3 22 8 43h101h103q-1 -4 -4 -19.5t-5 -23.5l-70 -2q-2 0 -3 -3l-30 -171q83 38 110 51q6 -11 15 -43q-26 -11 -71.5 -31.5t-62.5 -28.5l-30 -166q-2 -10 4.5 -13t30.5 -3
q95 0 127 5q11 3 17 16l41 82q28 -6 46 -12q-30 -83 -51 -134h-251h-102q2 7 4 21.5t4 21.5l56 2q2 0 4 3z" />
    <glyph glyph-name="oe.sc" unicode="&#xf6fa;" horiz-adv-x="814" 
d="M529 233l-30 -175q-2 -10 6 -12.5t39 -2.5q99 0 127 6q11 3 18 16l34 67q19 -4 42 -13q-28 -80 -42 -119h-213h-85q1 8 4.5 28.5t5.5 31.5q-64 -70 -174 -70q-104 0 -165 68q-48 55 -48 150q0 84 36 148.5t87 100.5q68 49 171 49q52 0 93 -22.5t61 -55.5q2 14 6 39.5
t4 28.5h66h149h71q-8 -80 -14 -122q-28 -2 -43 -2l-1 63q0 13 -17 14q-27 4 -140 4q-8 0 -11 -2l-30 -175q87 0 130 2q20 0 24 14l9 36q21 2 43 0q-3 -13 -7.5 -38.5t-6.5 -36.5q-5 -31 -12 -74h-44l4 37q1 9 -3 12.5t-16 3.5q-39 1 -128 1zM125 208q0 -80 40 -128
q39 -45 110 -45q108 0 168 97q26 147 40 239q-19 41 -59 65.5t-88 24.5q-76 0 -126 -45q-85 -73 -85 -208z" />
    <glyph glyph-name="ogonek.sc" unicode="&#xf6fb;" horiz-adv-x="458" 
d="M281 24h37q-56 -54 -56 -104q0 -19 12 -29t30 -10q20 0 42 8q4 -22 5 -34q-36 -17 -70 -17q-29 0 -54 18t-25 49q0 54 79 119z" />
    <glyph glyph-name="ring.sc" unicode="&#xf6fc;" horiz-adv-x="458" 
d="M300 721q37 0 62 -20.5t25 -51.5q0 -39 -32 -66.5t-75 -27.5q-35 0 -61.5 21t-26.5 53q0 40 32 66t76 26zM296 686q-23 0 -39 -14.5t-16 -38.5q0 -18 13 -30t31 -12q21 0 37 14.5t16 40.5q0 19 -12.5 29.5t-29.5 10.5z" />
    <glyph glyph-name="scaron.sc" unicode="&#xf6fd;" horiz-adv-x="420" 
d="M282 628q3 2 107 89q13 -10 27 -26q-18 -17 -61 -60t-61 -60h-39q-56 89 -80 126q18 13 32 21q11 -14 37.5 -45t37.5 -45zM29 139q24 3 48 3l3 -79q0 -7 5 -10q23 -16 75 -16q66 0 99 27q32 26 32 70q0 25 -15 44t-32 28.5t-58 29.5q-54 25 -80.5 54t-26.5 72
q0 33 18 62.5t46 47.5q50 34 136 34q69 0 113 -21q-3 -35 -11 -118q-7 -1 -14.5 -1.5t-17 -1t-14.5 -0.5l-3 70q0 7 -4 11q-19 15 -61 15q-57 0 -84 -21q-35 -29 -35 -68q0 -32 19 -48.5t72 -41.5q7 -3 11 -5q58 -27 84 -56.5t26 -71.5q0 -72 -58 -117q-52 -41 -152 -41
q-79 0 -130 24q2 21 4.5 62.5t4.5 62.5z" />
    <glyph glyph-name="tilde.sc" unicode="&#xf6fe;" horiz-adv-x="458" 
d="M350 558q-18 0 -55 28q-3 2 -10 8t-10.5 8.5t-8.5 5.5t-9.5 4.5t-8.5 1.5q-25 0 -40 -50h-36q7 45 30 72.5t52 27.5q6 0 12.5 -1.5t11.5 -3.5t11.5 -6t9.5 -6.5t9.5 -8t8.5 -6.5q27 -22 41 -22q27 0 36 52h36q-6 -45 -27 -74.5t-53 -29.5z" />
    <glyph glyph-name="zcaron.sc" unicode="&#xf6ff;" horiz-adv-x="473" 
d="M295 628q3 2 107 89q10 -7 27 -26q-86 -86 -121 -120h-39q-14 21 -41.5 65t-38.5 61q23 16 32 21q59 -72 74 -90zM387 154q19 -4 47 -11q-20 -63 -49 -144q-2 0 -92.5 0.5t-141.5 0.5h-137q-3 9 -13 40q162 166 377 405l-1 4q-191 0 -207 -3q-14 -2 -19 -18l-32 -81
q-27 4 -47 9q26 96 39 141q9 0 37.5 -0.5t42.5 -0.5h262q7 -22 12 -51q-235 -257 -374 -396l2 -2q198 -2 237 6q16 4 24 21z" />
    <glyph glyph-name="exclam.sc" unicode="&#xf721;" horiz-adv-x="255" 
d="M214 506q2 0 2 -2q-14 -59 -44.5 -184t-42.5 -175q-30 -4 -51 -4q7 47 23 169q19 155 23 185q38 11 90 11zM92 90q23 0 35.5 -15.5t12.5 -34.5q0 -21 -15.5 -35t-36.5 -14q-23 0 -37 13t-14 32q0 21 16 37.5t39 16.5z" />
    <glyph glyph-name="dollar.oldstyle" unicode="&#xf724;" horiz-adv-x="393" 
d="M50 322q0 50 44.5 87t119.5 40q1 7 6.5 36t8.5 43q17 5 44 5q-15 -80 -16 -83q73 -2 111 -25q-5 -31 -31 -51q-39 30 -89 33q-3 -16 -12.5 -70.5t-15.5 -84.5q61 -18 90 -45t28 -72q0 -55 -47 -94t-122 -43q-2 -9 -7 -36.5t-8 -42.5q-26 -2 -40 -2q11 59 14 79
q-99 6 -138 31q7 35 32 52q49 -37 115 -40q19 114 29 167q-59 22 -87.5 46.5t-28.5 69.5zM110 329q0 -25 17.5 -39.5t53.5 -26.5q18 98 26 143q-40 0 -68.5 -22t-28.5 -55zM277 126q0 26 -17 42t-55 29q-13 -74 -28 -157q47 3 73.5 25.5t26.5 60.5z" />
    <glyph glyph-name="ampersand.sc" unicode="&#xf726;" horiz-adv-x="585" 
d="M548 40q-5 -31 -7 -40q-69 -4 -117 -5q-8 8 -24.5 32t-20.5 30q-29 -22 -48.5 -33.5t-58.5 -22.5t-86 -11q-80 2 -119 33q-47 35 -47 92q0 50 37.5 93t103.5 67l1 3q-64 45 -64 102q0 53 49 89q43 34 115 34q65 0 98 -30q31 -29 31 -72q0 -85 -123 -131l1 -3
q73 -57 132 -136q38 46 49 106q2 8 -5 8l-48 2q1 8 3.5 22.5t3.5 17.5h87h74q-2 -21 -6 -40l-46 -2q-22 -92 -85 -149q15 -20 31 -41q11 -14 28 -14zM167 385q0 -29 14 -47.5t47 -43.5q98 34 98 103q0 29 -19 48q-18 17 -51 17q-39 0 -63 -19q-26 -23 -26 -58zM203 36
q88 0 149 56q-80 106 -154 156q-104 -40 -104 -121q0 -47 30 -68q30 -23 79 -23z" />
    <glyph glyph-name="zero.oldstyle" unicode="&#xf730;" horiz-adv-x="527" 
d="M236 -10q-90 0 -142 53q-56 58 -56 149q0 51 21.5 104t67.5 90q65 54 160 54q83 0 135 -49q57 -55 57 -148q0 -113 -76 -188q-68 -65 -167 -65zM244 43q65 0 112 47q53 53 53 147q0 73 -39 114q-36 36 -93 36q-65 0 -109 -40q-60 -55 -60 -154q0 -69 37 -110
q37 -40 99 -40z" />
    <glyph glyph-name="one.oldstyle" unicode="&#xf731;" horiz-adv-x="403" 
d="M19 44l128 3q1 0 5 4q12 64 53 302q-24 -6 -69 -18t-69 -18q-6 26 -7 42q39 12 96 33.5t94.5 36.5t39.5 15q3 0 2 -4q-11 -67 -37.5 -212.5t-32.5 -180.5l125 -3q-5 -32 -8 -44h-161q-28 0 -83.5 -0.5t-83.5 -0.5q3 20 8 45z" />
    <glyph glyph-name="two.oldstyle" unicode="&#xf732;" horiz-adv-x="438" 
d="M382 54q-6 -38 -11 -54h-247h-112q-8 31 -10 51q103 50 156 82q80 46 116 86t36 82q0 41 -25 63q-23 21 -62 21q-75 0 -141 -74q-18 15 -32 35q84 94 192 94q67 0 108 -38q35 -35 35 -90q0 -114 -180 -208q-30 -16 -99 -45v-8q153 3 276 3z" />
    <glyph glyph-name="three.oldstyle" unicode="&#xf733;" horiz-adv-x="419" 
d="M225 160v-8q55 -6 85.5 -42.5t30.5 -85.5q0 -87 -69.5 -142.5t-187.5 -55.5q-90 0 -137 27q5 15 20 45q42 -22 123 -22q73 0 123.5 37.5t50.5 102.5q0 50 -37 79.5t-102 29.5q-30 0 -42 -1q0 8 -0.5 24t-0.5 23q94 1 149 37.5t55 94.5q0 34 -22.5 58t-68.5 24
q-75 0 -134 -67q-10 10 -30 32q74 90 187 90q67 0 104 -35.5t37 -88.5q0 -58 -35.5 -97.5t-98.5 -58.5z" />
    <glyph glyph-name="four.oldstyle" unicode="&#xf734;" horiz-adv-x="495" 
d="M244 -180q21 111 34 184q-18 0 -134 -0.5t-127 -0.5q-1 3 -8.5 24t-10.5 32q80 90 171 189q83 91 179 192q40 0 78 -3q-18 -99 -70 -382q42 -1 103 -1q-7 -36 -10 -49h-102q-6 -33 -18 -96t-16 -86q-21 -3 -69 -3zM286 55l59 308l-6 1q-32 -36 -81.5 -91.5t-63.5 -71.5
q-10 -11 -56 -63t-65 -74q-6 -7 1 -7q92 -2 212 -2z" />
    <glyph glyph-name="five.oldstyle" unicode="&#xf735;" horiz-adv-x="417" 
d="M48 162l-6 7q8 30 31 122t36 139h136q21 0 74 -0.5t73 -0.5q-5 -32 -12 -56q-35 0 -113.5 -0.5t-114.5 -0.5q-27 -96 -44 -151q20 1 50 1q96 0 146 -50q46 -46 46 -120q0 -93 -64 -156q-74 -71 -204 -71q-71 0 -115 23q10 25 19 46q44 -18 100 -18q92 0 142 48
q49 47 49 119q0 48 -28 79q-41 44 -130 44q-11 0 -71 -4z" />
    <glyph glyph-name="six.oldstyle" unicode="&#xf736;" horiz-adv-x="477" 
d="M130 314l5 -2q64 72 153 72q67 0 103 -42q40 -45 40 -116q0 -47 -18 -96t-54 -84q-59 -56 -138 -56q-80 0 -127 44q-55 50 -55 150q0 81 35 166.5t106 160.5q85 88 207 120q7 -15 15 -43q-101 -32 -165 -99q-68 -68 -107 -175zM222 36q51 0 85 36q49 52 49 144
q0 57 -25 88q-24 27 -68 27q-82 0 -143 -88q-6 -29 -6 -65q0 -73 36 -112q27 -30 72 -30z" />
    <glyph glyph-name="seven.oldstyle" unicode="&#xf737;" horiz-adv-x="429" 
d="M32 370q3 33 11 60h241h114q8 -21 15 -53q-47 -75 -107 -179t-130.5 -228.5t-81.5 -143.5q-48 18 -55 22q74 130 289 520l-1 5q-172 0 -295 -3z" />
    <glyph glyph-name="eight.oldstyle" unicode="&#xf738;" horiz-adv-x="488" 
d="M29 133q0 57 41.5 108t117.5 76l1 6q-88 52 -88 127q0 60 47 104q58 55 148 55q79 0 118 -39q35 -35 35 -86q0 -52 -34.5 -93.5t-93.5 -63.5l-1 -6q115 -51 115 -149q0 -73 -58 -126q-61 -56 -164 -56q-94 0 -142 44q-42 39 -42 99zM170 457q0 -35 22.5 -61.5t74.5 -52.5
q114 47 114 133q0 40 -22 62q-26 26 -72 26q-52 0 -81 -28q-36 -31 -36 -79zM364 163q0 49 -31 77t-96 55q-60 -20 -98.5 -62t-38.5 -91q0 -48 28 -76q34 -31 92 -31q64 0 105 38q39 36 39 90z" />
    <glyph glyph-name="nine.oldstyle" unicode="&#xf739;" horiz-adv-x="477" 
d="M344 124l-5 3q-69 -72 -150 -72q-64 0 -105 39q-47 45 -47 124q0 87 62 155q64 67 156 67q83 0 128 -52q46 -56 46 -140q0 -101 -42 -194.5t-116 -155.5q-89 -72 -196 -91q-5 10 -15 45q102 25 166 83q77 67 118 189zM246 394q-53 0 -92 -44q-43 -49 -43 -124
q0 -62 32 -94q23 -25 65 -25q77 0 140 83q6 22 6 70q0 63 -33 103q-29 31 -75 31z" />
    <glyph glyph-name="question.sc" unicode="&#xf73f;" horiz-adv-x="441" 
d="M395 391q0 -54 -39.5 -95.5t-117.5 -79.5q-24 -12 -24 -29q0 -23 6 -51q-23 -10 -50 -14q-9 14 -16.5 46.5t-4.5 53.5q89 45 127.5 79.5t38.5 83.5q0 34 -25.5 54t-63.5 20q-37 0 -64 -16q-9 -4 -10 -11l-21 -69q-34 4 -51 7q5 25 22 108q48 28 140 28q73 0 113 -33.5
t40 -81.5zM181 85q24 0 36 -14.5t12 -34.5q0 -19 -16 -32t-37 -13q-22 0 -35 12t-13 32q0 19 15.5 34.5t37.5 15.5z" />
    <glyph glyph-name="grave.sc" unicode="&#xf760;" horiz-adv-x="458" 
d="M176 694q90 -53 168 -101q-17 -31 -22 -39q-23 11 -85 41t-94 45q12 21 33 54z" />
    <glyph glyph-name="a.sc" unicode="&#xf761;" horiz-adv-x="505" 
d="M-31 43l46 2q4 0 5 4q40 68 132 227.5t130 225.5q26 2 51 2q15 -66 102 -459l51 -2q-4 -31 -7 -43h-83h-107q0 2 6 43l63 2q3 0 3 5q-12 62 -19 97q-1 4 -5 4l-197 -1q-42 -80 -55 -105l71 -2q0 -2 -6 -43h-112h-77q1 7 4 21.5t4 21.5zM290 415h-6q-18 -34 -59.5 -109
t-59.5 -109q-3 -4 2 -4l166 -1q-7 38 -22 115t-21 108z" />
    <glyph glyph-name="b.sc" unicode="&#xf762;" horiz-adv-x="487" 
d="M90 495q74 2 153 2q106 0 147 -23q25 -13 39 -37t14 -49q0 -42 -33 -75t-82 -47v-5q52 -8 81 -38t29 -70q0 -66 -62 -109.5t-162 -43.5h-112h-95q1 8 3.5 22.5t3.5 19.5l58 2q6 0 6 6l66 401l-62 2q2 17 8 42zM215 453l-29 -173q5 -2 41 -2q56 0 99.5 27t43.5 72
q0 79 -108 79q-20 0 -47 -3zM178 235l-28 -165q-3 -17 10 -23t50 -6q65 0 108.5 27t43.5 78q0 36 -30 63t-104 27q-42 0 -50 -1z" />
    </font>
</defs>
</svg>
