<?xml version="1.0" standalone="no"?>
<!DOCTYPE svg PUBLIC "-//W3C//DTD SVG 1.1//EN" "http://www.w3.org/Graphics/SVG/1.1/DTD/svg11.dtd" >
<svg>
<metadata>
Created by FontForge 20110222 at Fri Jan  9 10:23:55 2015
 By deploy user
Copyright 2013 Google Inc. All Rights Reserved.
</metadata>
<defs>
<font id="NotoSansGujarati" horiz-adv-x="0" >
  <font-face 
    font-family="Noto Sans Gujarati"
    font-weight="400"
    font-stretch="normal"
    units-per-em="2048"
    panose-1="2 11 5 2 4 5 4 2 2 4"
    ascent="1638"
    descent="-410"
    bbox="-1270 -806 2670 1836"
    underline-thickness="102"
    underline-position="-103"
    unicode-range="U+000D-A839"
  />
<missing-glyph horiz-adv-x="1229" 
d="M193 1462h841v-1462h-841v1462zM297 104h633v1254h-633v-1254z" />
    <glyph glyph-name=".notdef" horiz-adv-x="1229" 
d="M193 1462h841v-1462h-841v1462zM297 104h633v1254h-633v-1254z" />
    <glyph glyph-name="glyph1" 
 />
    <glyph glyph-name="glyph1" 
 />
    <glyph glyph-name="uni000D" unicode="&#xd;" horiz-adv-x="612" 
 />
    <glyph glyph-name="space" unicode=" " horiz-adv-x="612" 
 />
    <glyph glyph-name="space" unicode="&#xa0;" horiz-adv-x="612" 
 />
    <glyph glyph-name="uni0A81" unicode="&#xa81;" 
d="M-273 1807q44 0 75 -33.5t31 -78.5q0 -46 -31 -79t-75 -33t-75 33.5t-31 78.5t31 78.5t75 33.5zM-677 1612l142 57q43 -95 106.5 -139.5t156.5 -44.5q92 0 156 44t107 140l142 -57q-62 -135 -166 -203t-239 -68q-140 0 -243 70t-162 201zM-358 1234zM-409 1836z" />
    <glyph glyph-name="uni0A82" unicode="&#xa82;" 
d="M-273 1680q47 0 80 -35.5t33 -83.5q0 -49 -33 -84t-80 -35t-80 35.5t-33 83.5t33 83.5t80 35.5zM-358 1234zM-303 1836z" />
    <glyph glyph-name="uni0A83" unicode="&#xa83;" horiz-adv-x="508" 
d="M254 994q52 0 88.5 -39t36.5 -92t-36.5 -92t-88.5 -39t-88.5 39t-36.5 92t36.5 92t88.5 39zM254 365q52 0 88.5 -39t36.5 -92t-36.5 -92t-88.5 -39t-88.5 39t-36.5 92t36.5 92t88.5 39zM250 1234z" />
    <glyph glyph-name="uni0A85" unicode="&#xa85;" horiz-adv-x="1808" 
d="M119 1041l-55 139q54 24 125 39t140 15q187 0 289.5 -94t102.5 -263q0 -119 -77 -216t-211 -144q36 -75 103.5 -116.5t153.5 -41.5q111 0 179.5 46t97 126.5t28.5 227.5v157l164 -22v-217q39 -63 117 -63q98 0 174 82v538l164 -22v-901q0 -64 8.5 -91.5t26.5 -43
t51 -21.5t91 -6l-16 -149h-21q-114 0 -183 34.5t-95 96t-26 173.5v211q-72 -49 -174 -49q-90 0 -148 45q-43 -145 -153 -222.5t-272 -77.5q-145 0 -254 68.5t-182 205.5h-27q-84 0 -126.5 30.5t-42.5 85.5q0 106 113 106q93 0 164 -71q96 30 152.5 96t56.5 148
q0 99 -57 152.5t-177 53.5q-47 0 -104 -13t-100 -32zM863 0z" />
    <glyph glyph-name="uni0A86" unicode="&#xa86;" horiz-adv-x="2351" 
d="M119 1041l-55 139q54 24 125 39t140 15q187 0 289.5 -94t102.5 -263q0 -119 -77 -216t-211 -144q36 -75 103.5 -116.5t153.5 -41.5q111 0 179.5 46t97 126.5t28.5 227.5v157l164 -22v-217q39 -63 117 -63q98 0 174 82v538l164 -22v-901q0 -64 8.5 -91.5t26.5 -43
t51 -21.5t91 -6l-16 -149h-21q-114 0 -183 34.5t-95 96t-26 173.5v211q-72 -49 -174 -49q-90 0 -148 45q-43 -145 -153 -222.5t-272 -77.5q-145 0 -254 68.5t-182 205.5h-27q-84 0 -126.5 30.5t-42.5 85.5q0 106 113 106q93 0 164 -71q96 30 152.5 96t56.5 148
q0 99 -57 152.5t-177 53.5q-47 0 -104 -13t-100 -32zM1993 1234l164 -22v-901q0 -64 8.5 -91.5t26.5 -43t51 -21.5t91 -6l-16 -149h-21q-114 0 -183 34.5t-95 96t-26 173.5v930zM863 0z" />
    <glyph glyph-name="uni0A87" unicode="&#xa87;" horiz-adv-x="1299" 
d="M594 1065q-84 19 -145 19q-92 0 -143 -40.5t-51 -110.5q0 -77 42.5 -131t127.5 -97q84 31 187 31q49 0 80 -4l-19 -148q-27 2 -59 2q-122 0 -195.5 -59t-73.5 -165q0 -112 74.5 -172t224.5 -60q183 0 290 95t107 258q0 71 -18 143.5t-86 194.5q-51 90 -72.5 138t-33 97.5
t-11.5 104.5q0 102 48 182t144 147l109 -137q-74 -53 -102.5 -95.5t-28.5 -104.5q0 -86 71 -216q60 -111 88.5 -175.5t44 -137t15.5 -141.5q0 -234 -146.5 -368.5t-425.5 -134.5q-215 0 -336 104t-121 276q0 77 26 141.5t78 116.5q-99 66 -146.5 146t-47.5 181
q0 125 92.5 207t248.5 82q101 0 191 -22zM643 0zM442 1234zM1015 1342zM751 1836z" />
    <glyph glyph-name="uni0A88" unicode="&#xa88;" horiz-adv-x="1299" 
d="M594 1065q-84 19 -145 19q-92 0 -143 -40.5t-51 -110.5q0 -77 42.5 -131t127.5 -97q84 31 187 31q49 0 80 -4l-19 -148q-27 2 -59 2q-122 0 -195.5 -59t-73.5 -165q0 -112 74.5 -172t224.5 -60q183 0 290 95t107 258q0 110 -34 224.5t-113 266.5q-81 155 -120 241
t-57 156.5t-18 141.5q0 144 91.5 233.5t243.5 89.5q131 0 225.5 -69.5t165.5 -227.5l-152 -57q-88 206 -237 206q-76 0 -121.5 -46t-45.5 -132q0 -70 26 -152t137 -297q104 -202 140.5 -330t36.5 -248q0 -234 -146.5 -368.5t-425.5 -134.5q-215 0 -336 104t-121 276
q0 77 26 141.5t78 116.5q-99 66 -146.5 146t-47.5 181q0 125 92.5 207t248.5 82q101 0 191 -22zM643 0zM242 1234z" />
    <glyph glyph-name="uni0A89" unicode="&#xa89;" horiz-adv-x="1279" 
d="M1043 1538q-28 8 -74 13t-82 5q-187 0 -321.5 -88.5t-206 -265.5t-71.5 -418q0 -321 117.5 -487.5t339.5 -166.5q130 0 199.5 56.5t69.5 163.5q0 147 -132 235q-82 -26 -190 -33l-30 150q170 10 260.5 64.5t90.5 146.5q0 78 -54.5 124t-149.5 46q-129 0 -257 -63l-52 141
q165 73 312 73q173 0 269.5 -84t96.5 -231q0 -165 -146 -265q73 -66 110 -147t37 -165q0 -169 -114 -265.5t-313 -96.5q-304 0 -469 207t-165 602q0 269 90.5 480.5t261 325t410.5 113.5q100 0 191 -22zM693 0zM1052 1234zM793 1836z" />
    <glyph glyph-name="uni0A8A" unicode="&#xa8a;" horiz-adv-x="1820" 
d="M500 1161q165 73 312 73q173 0 269.5 -84t96.5 -231q0 -165 -146 -265q73 -66 110 -147t37 -165q0 -171 -114.5 -266.5t-322.5 -95.5q-296 0 -460 208t-164 595q0 271 90.5 483.5t265 327t416.5 114.5q255 0 435 -126t301 -400v-867q0 -64 8.5 -91.5t26.5 -43t51 -21.5
t91 -6l-16 -153h-21q-114 0 -183 34.5t-95 96t-26 173.5v837q-90 207 -231.5 310.5t-334.5 103.5q-196 0 -332 -94t-206 -271.5t-70 -405.5q0 -324 116.5 -489t340.5 -165q130 0 199.5 56.5t69.5 163.5q0 147 -132 235q-82 -26 -190 -33l-30 150q170 10 260.5 64.5
t90.5 146.5q0 78 -54.5 124t-149.5 46q-129 0 -257 -63zM923 0zM1532 1234zM1040 1836z" />
    <glyph glyph-name="uni0A8B" unicode="&#xa8b;" horiz-adv-x="1702" 
d="M834 630l-536 -354l-102 143l496 294q-70 102 -150.5 163.5t-204.5 61.5q-68 0 -125.5 -16t-130.5 -56l-58 143q70 37 151 60t155 23q154 0 254 -64.5t235 -239.5l16 9v437l164 -22v-308q112 -115 259 -115q41 0 70 8q-20 40 -20 82q0 58 37.5 91.5t99.5 33.5
q65 0 104 -40.5t39 -107.5q0 -74 -62 -133q52 -80 73.5 -138.5t21.5 -121.5q0 -98 -52.5 -171t-170.5 -130l-84 131q81 38 113 80t32 98q0 96 -55 187q-59 -17 -126 -17q-74 0 -147 23t-132 65v-418q0 -64 8.5 -91.5t26.5 -43t51 -21.5t91 -6l-16 -149h-21q-114 0 -183 34.5
t-95 96t-26 173.5v326zM943 0zM1406 302z" />
    <glyph glyph-name="uni0A8C" unicode="&#xa8c;" horiz-adv-x="1427" 
d="M1466 -107q-140 -71 -277 -71q-151 0 -239 79.5t-88 209.5q0 105 66 178t196 109q51 103 51 200q0 87 -42.5 134t-120.5 47q-102 0 -172.5 -76t-113.5 -226l-157 49q25 96 64 165q-105 81 -208 81q-80 0 -125 -45t-45 -121q0 -89 67 -189t218 -236l-110 -107
q-187 166 -265 291.5t-78 248.5q0 141 96.5 224.5t231.5 83.5q167 0 308 -115q87 81 207 105v322l164 -22v-297q114 -23 180 -108.5t66 -216.5q0 -153 -83 -307q-122 -19 -182 -63t-60 -120q0 -61 46 -95.5t117 -34.5q57 0 104 13t128 54zM633 0zM463 214zM1210 -548z" />
    <glyph glyph-name="uni0A8D" unicode="&#xa8d;" horiz-adv-x="1808" 
d="M119 1041l-55 139q54 24 125 39t140 15q187 0 289.5 -94t102.5 -263q0 -119 -77 -216t-211 -144q36 -75 103.5 -116.5t153.5 -41.5q111 0 179.5 46t97 126.5t28.5 227.5v157l164 -22v-217q39 -63 117 -63q98 0 174 82v538l164 -22v-901q0 -64 8.5 -91.5t26.5 -43
t51 -21.5t91 -6l-16 -149h-21q-114 0 -183 34.5t-95 96t-26 173.5v211q-72 -49 -174 -49q-90 0 -148 45q-43 -145 -153 -222.5t-272 -77.5q-145 0 -254 68.5t-182 205.5h-27q-84 0 -126.5 30.5t-42.5 85.5q0 106 113 106q93 0 164 -71q96 30 152.5 96t56.5 148
q0 99 -57 152.5t-177 53.5q-47 0 -104 -13t-100 -32zM863 0zM1707 1337q-78 -24 -165 -24q-156 0 -293 93.5t-267 290.5l125 81q118 -173 213.5 -243.5t221.5 -70.5q65 0 117 19zM1450 1234zM1463 1836zM1257 1638z" />
    <glyph glyph-name="uni0A8F" unicode="&#xa8f;" horiz-adv-x="1808" 
d="M119 1041l-55 139q54 24 125 39t140 15q187 0 289.5 -94t102.5 -263q0 -119 -77 -216t-211 -144q36 -75 103.5 -116.5t153.5 -41.5q111 0 179.5 46t97 126.5t28.5 227.5v157l164 -22v-217q39 -63 117 -63q98 0 174 82v538l164 -22v-901q0 -64 8.5 -91.5t26.5 -43
t51 -21.5t91 -6l-16 -149h-21q-114 0 -183 34.5t-95 96t-26 173.5v211q-72 -49 -174 -49q-90 0 -148 45q-43 -145 -153 -222.5t-272 -77.5q-145 0 -254 68.5t-182 205.5h-27q-84 0 -126.5 30.5t-42.5 85.5q0 106 113 106q93 0 164 -71q96 30 152.5 96t56.5 148
q0 99 -57 152.5t-177 53.5q-47 0 -104 -13t-100 -32zM863 0zM1451 1313q-52 191 -116.5 281t-170.5 90q-56 0 -106 -19l-48 146q82 25 165 25q127 0 203.5 -60.5t128 -178.5t90.5 -284h-146zM1450 1234z" />
    <glyph glyph-name="uni0A90" unicode="&#xa90;" horiz-adv-x="1808" 
d="M119 1041l-55 139q54 24 125 39t140 15q187 0 289.5 -94t102.5 -263q0 -119 -77 -216t-211 -144q36 -75 103.5 -116.5t153.5 -41.5q111 0 179.5 46t97 126.5t28.5 227.5v157l164 -22v-217q39 -63 117 -63q98 0 174 82v538l164 -22v-901q0 -64 8.5 -91.5t26.5 -43
t51 -21.5t91 -6l-16 -149h-21q-114 0 -183 34.5t-95 96t-26 173.5v211q-72 -49 -174 -49q-90 0 -148 45q-43 -145 -153 -222.5t-272 -77.5q-145 0 -254 68.5t-182 205.5h-27q-84 0 -126.5 30.5t-42.5 85.5q0 106 113 106q93 0 164 -71q96 30 152.5 96t56.5 148
q0 99 -57 152.5t-177 53.5q-47 0 -104 -13t-100 -32zM863 0zM1467 1313l-10 43l-80 -79q-123 99 -199 137t-166 38q-68 0 -119 -20l-48 144q78 24 165 24q111 0 203 -48t240 -178q-39 163 -90.5 238t-158.5 75q-56 0 -106 -19l-48 143q82 25 165 25q113 0 184 -55.5
t119.5 -167.5t83.5 -300h-135zM1450 1234z" />
    <glyph glyph-name="uni0A91" unicode="&#xa91;" horiz-adv-x="2351" 
d="M119 1041l-55 139q54 24 125 39t140 15q187 0 289.5 -94t102.5 -263q0 -119 -77 -216t-211 -144q36 -75 103.5 -116.5t153.5 -41.5q111 0 179.5 46t97 126.5t28.5 227.5v157l164 -22v-217q39 -63 117 -63q98 0 174 82v538l164 -22v-901q0 -64 8.5 -91.5t26.5 -43
t51 -21.5t91 -6l-16 -149h-21q-114 0 -183 34.5t-95 96t-26 173.5v211q-72 -49 -174 -49q-90 0 -148 45q-43 -145 -153 -222.5t-272 -77.5q-145 0 -254 68.5t-182 205.5h-27q-84 0 -126.5 30.5t-42.5 85.5q0 106 113 106q93 0 164 -71q96 30 152.5 96t56.5 148
q0 99 -57 152.5t-177 53.5q-47 0 -104 -13t-100 -32zM1993 1234l164 -22v-901q0 -64 8.5 -91.5t26.5 -43t51 -21.5t91 -6l-16 -149h-21q-114 0 -183 34.5t-95 96t-26 173.5v930zM863 0zM2250 1337q-78 -24 -165 -24q-156 0 -293 93.5t-267 290.5l125 81
q118 -173 213.5 -243.5t221.5 -70.5q65 0 117 19zM1993 1234zM2006 1836zM1800 1638z" />
    <glyph glyph-name="uni0A93" unicode="&#xa93;" horiz-adv-x="2351" 
d="M119 1041l-55 139q54 24 125 39t140 15q187 0 289.5 -94t102.5 -263q0 -119 -77 -216t-211 -144q36 -75 103.5 -116.5t153.5 -41.5q111 0 179.5 46t97 126.5t28.5 227.5v157l164 -22v-217q39 -63 117 -63q98 0 174 82v538l164 -22v-901q0 -64 8.5 -91.5t26.5 -43
t51 -21.5t91 -6l-16 -149h-21q-114 0 -183 34.5t-95 96t-26 173.5v211q-72 -49 -174 -49q-90 0 -148 45q-43 -145 -153 -222.5t-272 -77.5q-145 0 -254 68.5t-182 205.5h-27q-84 0 -126.5 30.5t-42.5 85.5q0 106 113 106q93 0 164 -71q96 30 152.5 96t56.5 148
q0 99 -57 152.5t-177 53.5q-47 0 -104 -13t-100 -32zM1993 1234l164 -22v-901q0 -64 8.5 -91.5t26.5 -43t51 -21.5t91 -6l-16 -149h-21q-114 0 -183 34.5t-95 96t-26 173.5v930zM863 0zM1994 1313q-52 191 -116.5 281t-170.5 90q-56 0 -106 -19l-48 146q82 25 165 25
q127 0 203.5 -60.5t128 -178.5t90.5 -284h-146zM1993 1234z" />
    <glyph glyph-name="uni0A94" unicode="&#xa94;" horiz-adv-x="2351" 
d="M119 1041l-55 139q54 24 125 39t140 15q187 0 289.5 -94t102.5 -263q0 -119 -77 -216t-211 -144q36 -75 103.5 -116.5t153.5 -41.5q111 0 179.5 46t97 126.5t28.5 227.5v157l164 -22v-217q39 -63 117 -63q98 0 174 82v538l164 -22v-901q0 -64 8.5 -91.5t26.5 -43
t51 -21.5t91 -6l-16 -149h-21q-114 0 -183 34.5t-95 96t-26 173.5v211q-72 -49 -174 -49q-90 0 -148 45q-43 -145 -153 -222.5t-272 -77.5q-145 0 -254 68.5t-182 205.5h-27q-84 0 -126.5 30.5t-42.5 85.5q0 106 113 106q93 0 164 -71q96 30 152.5 96t56.5 148
q0 99 -57 152.5t-177 53.5q-47 0 -104 -13t-100 -32zM1993 1234l164 -22v-901q0 -64 8.5 -91.5t26.5 -43t51 -21.5t91 -6l-16 -149h-21q-114 0 -183 34.5t-95 96t-26 173.5v930zM863 0zM2010 1313l-10 43l-80 -79q-123 99 -199 137t-166 38q-68 0 -119 -20l-48 144
q78 24 165 24q111 0 203 -48t240 -178q-39 163 -90.5 238t-158.5 75q-56 0 -106 -19l-48 143q82 25 165 25q113 0 184 -55.5t119.5 -167.5t83.5 -300h-135zM1993 1234z" />
    <glyph glyph-name="uni0A95" unicode="&#xa95;" horiz-adv-x="1047" 
d="M77 577l285 102q-76 59 -114 126t-38 142q0 128 98 207.5t260 79.5q128 0 238 -27l-30 -149q-68 17 -106.5 21.5t-84.5 4.5q-99 0 -153 -39.5t-54 -112.5q0 -52 37.5 -100t113.5 -92l421 157l66 -144l-330 -114q129 -85 185.5 -167t56.5 -181q0 -138 -103 -224.5
t-294 -86.5q-277 0 -494 169l92 128q185 -147 392 -147q119 0 179 41t60 123q0 45 -20.5 84.5t-74 88t-153.5 110.5l-378 -145zM572 0zM644 1234zM439 1234zM1040 749zM64 580z" />
    <glyph glyph-name="uni0A96" unicode="&#xa96;" horiz-adv-x="1528" 
d="M13 1063l16 149h21q89 0 146 -19.5t91 -52.5t50.5 -83.5t16.5 -148.5v-189q0 -107 21.5 -153.5t61.5 -67.5t100 -21q64 0 103.5 26.5t57 72.5t17.5 143v267l164 -22v-217q39 -63 117 -63q98 0 174 82v468l164 -22v-901q0 -64 8.5 -91.5t26.5 -43t51 -21.5t91 -6l-16 -149
h-21q-114 0 -183 34.5t-95 96t-26 173.5v281q-72 -49 -174 -49q-80 0 -133 35q-32 -116 -117.5 -179t-210.5 -63q-124 0 -198.5 47.5t-110.5 125t-36 217.5v182q0 79 -16 109t-49.5 41.5t-111.5 11.5z" />
    <glyph glyph-name="uni0A97" unicode="&#xa97;" horiz-adv-x="1339" 
d="M430 364q-123 0 -223.5 64t-184.5 192l130 89q65 -101 127 -148t143 -47q92 0 141.5 69.5t49.5 203.5q0 149 -57.5 224t-171.5 75t-222 -56l-52 138q59 30 135.5 48t148.5 18q183 0 283.5 -115.5t100.5 -334.5q0 -208 -89 -314t-259 -106zM981 1234l164 -22v-901
q0 -64 8.5 -91.5t26.5 -43t51 -21.5t91 -6l-16 -149h-21q-114 0 -183 34.5t-95 96t-26 173.5v930z" />
    <glyph glyph-name="uni0A98" unicode="&#xa98;" horiz-adv-x="1271" 
d="M913 329q-154 -110 -351 -110q-180 0 -286 87t-106 229q0 114 62 191q-142 104 -142 252q0 112 92 184t249 72q101 0 191 -22l-28 -145q-84 19 -145 19q-95 0 -144.5 -32t-49.5 -92q0 -93 98 -151q77 30 178 30q49 0 124 -12l-24 -146q-42 10 -104 10q-91 0 -141.5 -39.5
t-50.5 -113.5q0 -82 60 -127.5t166 -45.5q101 0 187 38t165 117v712l164 -22v-901q0 -64 8.5 -91.5t26.5 -43t51 -21.5t91 -6l-16 -149h-21q-114 0 -183 34.5t-95 96t-26 173.5v25z" />
    <glyph glyph-name="uni0A99" unicode="&#xa99;" horiz-adv-x="1004" 
d="M770 1066q-80 20 -187 20q-88 0 -138.5 -35t-50.5 -98q0 -42 18.5 -72t57.5 -60.5t145 -95.5q176 -108 241 -196t65 -215q0 -151 -105.5 -242.5t-283.5 -91.5q-152 0 -278.5 76t-234.5 241l143 87q85 -130 172 -192t201 -62q102 0 160 47.5t58 130.5q0 87 -53.5 148
t-206.5 151q-143 85 -203.5 162.5t-60.5 186.5q0 125 96.5 201.5t260.5 76.5q123 0 214 -23zM818 983q50 0 84 -32.5t34 -82.5t-34.5 -83t-83.5 -33t-83.5 33t-34.5 83t34 82.5t84 32.5zM632 1234zM447 1234zM585 0zM502 0zM485 577zM42 236z" />
    <glyph glyph-name="uni0A9A" unicode="&#xa9a;" horiz-adv-x="1353" 
d="M995 375q-77 -58 -155 -82.5t-173 -24.5q-133 0 -232.5 54t-166.5 163h-28q-84 0 -126.5 30.5t-42.5 85.5q0 106 113 106q93 0 164 -71q96 30 152.5 96t56.5 148q0 99 -57 152.5t-177 53.5q-47 0 -104 -13t-100 -32l-55 139q54 24 125 39t140 15q187 0 289.5 -94
t102.5 -263q0 -120 -77.5 -217t-209.5 -143q84 -101 227 -101q92 0 168.5 31.5t165.5 122.5v664l164 -22v-901q0 -64 8.5 -91.5t26.5 -43t51 -21.5t91 -6l-16 -149h-21q-114 0 -183 34.5t-95 96t-26 173.5v71z" />
    <glyph glyph-name="uni0A9B" unicode="&#xa9b;" horiz-adv-x="1512" 
d="M673 584q-29 2 -59 2q-122 0 -195.5 -59t-73.5 -165q0 -232 303 -232q183 0 323.5 88t218.5 240.5t78 304.5q0 158 -48 240.5t-140 82.5q-68 0 -107.5 -41.5t-39.5 -100.5q0 -107 72.5 -165t215.5 -86l-51 -147q-399 106 -399 389q0 132 80.5 215.5t218.5 83.5
q166 0 266 -122t100 -349q0 -194 -96.5 -379.5t-275.5 -294.5t-412 -109q-224 0 -348 103t-124 277q0 155 104 258q-99 66 -146.5 146t-47.5 181q0 125 92.5 207t248.5 82q101 0 191 -22l-28 -147q-84 19 -145 19q-92 0 -143 -40.5t-51 -110.5q0 -77 42.5 -131t127.5 -97
q84 31 187 31q25 0 80 -4zM772 0zM1075 1234zM711 0zM890 1234z" />
    <glyph glyph-name="uni0A9C" unicode="&#xa9c;" horiz-adv-x="1786" 
d="M1240 932q188 135 478 304l83 -136q-280 -160 -459 -284q90 -116 135 -233t45 -236q0 -173 -95 -270t-260 -97q-173 0 -267 97t-94 251q0 142 74 263t238 250q-86 87 -185 143.5t-210 82.5q51 -93 51 -209q0 -88 -43.5 -164.5t-125 -118.5t-191.5 -42q-159 0 -253 93
t-94 245q0 158 123 260.5t335 102.5q208 0 384.5 -73.5t330.5 -228.5zM547 1090q-10 0 -20 1h-20q-132 0 -203.5 -60.5t-71.5 -163.5q0 -86 49 -135t133 -49q93 0 145 50.5t52 131.5q0 130 -64 225zM1218 726q-115 -87 -179.5 -182t-64.5 -215q0 -100 48.5 -150.5
t141.5 -50.5q94 0 142 56t48 164q0 102 -34 196.5t-102 181.5zM1182 0zM1412 1234zM1267 1234zM1062 0zM1735 1088z" />
    <glyph glyph-name="uni0A9D" unicode="&#xa9d;" horiz-adv-x="1430" 
d="M798 654q17 -80 17 -178q0 -244 -98 -370t-277 -126q-137 0 -238 65.5t-180 190.5l129 88q80 -119 141 -156.5t144 -37.5q103 0 157 88.5t54 262.5q0 183 -65.5 280t-195.5 97q-64 0 -114 -12t-113 -43l-52 139q64 30 143 47.5t150 17.5q121 0 208.5 -52.5t141.5 -156.5
q84 40 183 45v391l164 -22v-388q119 -36 183 -134t64 -244q0 -135 -58.5 -245t-185.5 -214l-114 126q104 78 148.5 155t44.5 184q0 115 -59.5 180.5t-163.5 65.5q-80 0 -158 -44zM1012 0z" />
    <glyph glyph-name="uni0A9E" unicode="&#xa9e;" horiz-adv-x="1417" 
d="M1059 725q-82 -46 -204 -46q-51 0 -87 7q-20 -161 -105 -241.5t-236 -80.5q-236 0 -405 256l130 89q65 -101 127 -148t143 -47q92 0 141.5 69.5t49.5 203.5q0 149 -57.5 224t-170.5 75q-114 0 -223 -56l-52 138q59 30 135.5 48t148.5 18q168 0 267 -101t111 -295
q32 -10 80 -10q126 0 207 71v335l164 -22v-901q0 -64 8.5 -91.5t26.5 -43t51 -21.5t91 -6l-16 -149h-21q-114 0 -183 34.5t-95 96t-26 173.5v421z" />
    <glyph glyph-name="uni0A9F" unicode="&#xa9f;" horiz-adv-x="923" 
d="M848 233l76 -145q-114 -60 -210 -84t-211 -24q-183 0 -298 100t-115 251q0 73 27 135.5t91 123.5t206 139q116 62 164.5 94.5t69.5 63t21 70.5q0 64 -44.5 96.5t-128.5 32.5q-79 0 -137.5 -14t-110.5 -40l-52 138q148 64 304 64q160 0 247 -74t87 -200q0 -73 -29 -130.5
t-83.5 -101t-156.5 -98.5q-120 -65 -185 -110t-93.5 -92.5t-28.5 -111.5q0 -83 67.5 -134.5t181.5 -51.5q92 0 173.5 24.5t167.5 78.5zM568 1234zM383 1234zM549 0zM461 0z" />
    <glyph glyph-name="uni0AA0" unicode="&#xaa0;" horiz-adv-x="1059" 
d="M818 1064q-81 22 -196 22q-79 0 -120 -26.5t-41 -74.5t41.5 -88.5t169.5 -117.5q180 -110 251 -210.5t71 -231.5q0 -164 -120.5 -260.5t-331.5 -96.5q-214 0 -333 102.5t-119 276.5q0 139 96.5 239.5t274.5 138.5q-83 56 -124 119t-41 133q0 108 86 176.5t236 68.5
q133 0 230 -23zM626 627h-13q-157 0 -256 -74t-99 -199q0 -108 73 -167t208 -59t211 55t76 159q0 90 -45.5 153t-154.5 132zM679 1234zM611 0zM529 0zM494 1234z" />
    <glyph glyph-name="uni0AA1" unicode="&#xaa1;" horiz-adv-x="986" 
d="M770 1064q-77 22 -176 22q-95 0 -147.5 -34.5t-52.5 -98.5q0 -53 37 -96.5t184 -131.5q133 -82 194 -143t86.5 -126t25.5 -150q0 -145 -107 -235.5t-282 -90.5q-156 0 -280 74.5t-233 242.5l143 87q85 -130 172 -192t201 -62q99 0 158.5 46t59.5 126q0 86 -54 150.5
t-206 154.5q-143 85 -203.5 162.5t-60.5 186.5q0 122 95.5 200t251.5 78q134 0 224 -23zM585 0zM632 1234zM493 0zM447 1234zM583 577zM110 236z" />
    <glyph glyph-name="uni0AA2" unicode="&#xaa2;" horiz-adv-x="1056" 
d="M473 129q-33 82 -33 160q0 119 81 190t211 71q131 0 207.5 -72t76.5 -197q0 -135 -116.5 -218t-329.5 -83q-230 0 -355 101.5t-125 271.5q0 92 35.5 160t101.5 120.5t193 117.5q117 59 164 88.5t68 59t21 68.5q0 55 -43.5 87t-117.5 32q-87 0 -146 -13.5t-113 -40.5
l-52 138q147 64 305 64q155 0 243.5 -72t88.5 -192q0 -101 -67 -180t-244 -160q-165 -76 -218.5 -136.5t-53.5 -142.5q0 -92 55.5 -149t162.5 -73zM620 122q116 5 178.5 46.5t62.5 114.5q0 58 -31.5 91.5t-90.5 33.5q-69 0 -109 -40t-40 -109q0 -75 30 -137zM614 0z
M602 1234zM528 0zM437 1234zM630 128zM417 778z" />
    <glyph glyph-name="uni0AA3" unicode="&#xaa3;" horiz-adv-x="1683" 
d="M568 727q64 -81 122 -115.5t122 -34.5q82 0 121 61.5t39 189.5q0 131 -49.5 196t-144.5 65q-111 0 -196 -47l-51 134q117 58 258 58q161 0 254 -107.5t93 -298.5q0 -197 -81 -297.5t-239 -100.5q-99 0 -196.5 53.5t-174.5 151.5zM1325 1234l164 -22v-901q0 -64 8.5 -91.5
t26.5 -43t51 -21.5t91 -6l-16 -149h-21q-114 0 -183 34.5t-95 96t-26 173.5v930zM153 1234l164 -22v-575q0 -108 5 -145t26.5 -66.5t82.5 -65t220 -102.5q139 -59 205 -109.5t88.5 -98.5t22.5 -112q0 -112 -97 -229l-133 93q27 31 42 61.5t15 64.5q0 42 -22 74t-80.5 66
t-168.5 80q-152 62 -222 104.5t-100 85t-39 88t-9 140.5v668zM856 -548zM399 177z" />
    <glyph glyph-name="uni0AA4" unicode="&#xaa4;" horiz-adv-x="1173" 
d="M815 738h-239q-126 0 -186.5 -15.5t-96.5 -57.5t-36 -107q0 -92 69.5 -193t216.5 -231l-111 -110q-189 168 -266 294.5t-77 252.5q0 86 44 158t136.5 114.5t280.5 42.5h265v348l164 -22v-901q0 -64 8.5 -91.5t26.5 -43t51 -21.5t91 -6l-16 -149h-21q-114 0 -183 34.5
t-95 96t-26 173.5v434zM472 172z" />
    <glyph glyph-name="uni0AA5" unicode="&#xaa5;" horiz-adv-x="1280" 
d="M922 412q-84 -62 -170.5 -87.5t-188.5 -25.5q-173 0 -292 88.5t-185 265.5q207 56 310.5 136t103.5 187q0 56 -34.5 88t-91.5 32q-58 0 -92 -25.5t-34 -68.5q0 -42 22 -69.5t70 -51.5l-95 -111q-155 86 -155 236q0 99 77 163.5t206 64.5q136 0 211.5 -74.5t75.5 -188.5
q0 -129 -87.5 -226.5t-269.5 -172.5q40 -63 103 -94t149 -31q106 0 194 34.5t173 117.5v635l164 -22v-901q0 -64 8.5 -91.5t26.5 -43t51 -21.5t91 -6l-16 -149h-21q-114 0 -183 34.5t-95 96t-26 173.5v108zM335 918zM116 505z" />
    <glyph glyph-name="uni0AA6" unicode="&#xaa6;" horiz-adv-x="956" 
d="M674 1060q-92 24 -175 24q-118 0 -181 -43t-63 -118q0 -70 43.5 -123.5t132.5 -97.5q91 34 199 34q81 0 154 -13l-28 -147q-58 10 -122 10q-132 0 -210.5 -60.5t-78.5 -165.5q0 -115 68.5 -173.5t198.5 -58.5q83 0 127 18q-7 17 -7 47q0 51 31.5 81t85.5 30
q55 0 87.5 -34.5t32.5 -84.5q0 -96 -100 -150.5t-259 -54.5q-197 0 -313.5 104t-116.5 276q0 76 27.5 140t82.5 117q-103 66 -151.5 143.5t-48.5 174.5q0 133 102 216t286 83q51 0 115 -7.5t109 -19.5zM638 0zM559 1234zM374 1234z" />
    <glyph glyph-name="uni0AA7" unicode="&#xaa7;" horiz-adv-x="1241" 
d="M233 727q-143 108 -143 258q0 115 83 201.5t248 137.5l60 -148q-109 -30 -167.5 -80t-58.5 -126q0 -99 97 -159q77 30 179 30q49 0 124 -12l-24 -146q-42 10 -104 10q-91 0 -141.5 -39.5t-50.5 -113.5q0 -82 59.5 -127.5t164.5 -45.5q93 0 169 29.5t155 103.5v734
l164 -22v-901q0 -64 8.5 -91.5t26.5 -43t51 -21.5t91 -6l-16 -149h-21q-114 0 -183 34.5t-95 96t-26 173.5v9q-140 -94 -324 -94q-178 0 -283.5 87t-105.5 229q0 116 63 192z" />
    <glyph glyph-name="uni0AA8" unicode="&#xaa8;" horiz-adv-x="1119" 
d="M761 672h-369v-117q0 -57 -28 -87t-77 -30q-48 0 -105 44t-95 109t-38 121q0 108 124 108h588v414l164 -22v-901q0 -64 8.5 -91.5t26.5 -43t51 -21.5t91 -6l-16 -149h-21q-114 0 -183 34.5t-95 96t-26 173.5v368z" />
    <glyph glyph-name="uni0AAA" unicode="&#xaaa;" horiz-adv-x="1163" 
d="M805 407q-119 -78 -264 -78q-103 0 -180.5 40.5t-124 119.5t-46.5 228v184q0 79 -16 109t-49.5 41.5t-111.5 11.5l16 149h21q89 0 146 -19.5t91 -52.5t50.5 -83.5t16.5 -148.5v-176q0 -145 46.5 -200t157.5 -55q62 0 126.5 28t120.5 80v649l164 -22v-901q0 -64 8.5 -91.5
t26.5 -43t51 -21.5t91 -6l-16 -149h-21q-114 0 -183 34.5t-95 96t-26 173.5v103z" />
    <glyph glyph-name="uni0AAB" unicode="&#xaab;" horiz-adv-x="1047" 
d="M77 577l285 102q-76 59 -114 126t-38 142q0 128 98 207.5t260 79.5q128 0 238 -27l-30 -149q-68 17 -106.5 21.5t-84.5 4.5q-99 0 -153 -39.5t-54 -112.5q0 -52 37.5 -100t113.5 -92l421 157l66 -144l-330 -114q129 -85 185.5 -167t56.5 -181q0 -138 -103 -224.5
t-294 -86.5h-24q-12 0 -25 1q49 -59 91.5 -91t89 -45.5t120.5 -13.5h48l-18 -154h-32q-142 0 -256 71.5t-232 245.5q-104 13 -154 54.5t-50 100.5q0 45 30.5 72.5t77.5 27.5q55 0 102 -29t92 -83q57 -12 135 -12q113 0 173.5 43.5t60.5 125.5q0 45 -20.5 84.5t-74 88
t-153.5 110.5l-378 -145zM644 1234zM439 1234zM690 -548zM934 580zM1040 749z" />
    <glyph glyph-name="uni0AAC" unicode="&#xaac;" horiz-adv-x="1504" 
d="M1146 515q-72 -49 -174 -49q-93 0 -150 47q-41 -101 -130 -152.5t-215 -51.5q-174 0 -280.5 114t-106.5 302q0 183 110.5 311.5t330.5 197.5l47 -149q-320 -96 -320 -363q0 -128 60.5 -196.5t161.5 -68.5q77 0 126 34.5t67 94t18 169.5v161l164 -22v-217q39 -63 117 -63
q98 0 174 82v538l164 -22v-901q0 -64 8.5 -91.5t26.5 -43t51 -21.5t91 -6l-16 -149h-21q-114 0 -183 34.5t-95 96t-26 173.5v211z" />
    <glyph glyph-name="uni0AAD" unicode="&#xaad;" horiz-adv-x="1656" 
d="M593 211l-114 -111q-208 183 -297 343.5t-89 342.5q0 200 118.5 324t310.5 124q131 0 221 -55.5t133.5 -152.5t43.5 -253v-25h378v486l164 -22v-901q0 -64 8.5 -91.5t26.5 -43t51 -21.5t91 -6l-16 -149h-21q-114 0 -183 34.5t-95 96t-26 173.5v296h-378v-78
q0 -60 -27 -94t-72 -34q-48 0 -107 43.5t-98.5 107t-39.5 113.5q0 43 32 66.5t93 23.5h55v13q0 118 -22.5 184.5t-74 103.5t-136.5 37q-126 0 -195.5 -84t-69.5 -219q0 -147 74.5 -279t260.5 -293zM579 248z" />
    <glyph glyph-name="uni0AAE" unicode="&#xaae;" horiz-adv-x="1218" 
d="M860 500h-428v-78q0 -60 -27 -94t-72 -34q-48 0 -107 43.5t-98.5 107t-39.5 113.5q0 43 32 66.5t93 23.5h55v254q0 79 -16 109t-49.5 41.5t-111.5 11.5l16 149h21q89 0 146 -19.5t91 -52.5t50.5 -83.5t16.5 -148.5v-261h428v586l164 -22v-901q0 -64 8.5 -91.5t26.5 -43
t51 -21.5t91 -6l-16 -149h-21q-114 0 -183 34.5t-95 96t-26 173.5v196z" />
    <glyph glyph-name="uni0AAF" unicode="&#xaaf;" horiz-adv-x="1217" 
d="M859 425q-77 -55 -148.5 -75.5t-154.5 -20.5q-165 0 -283.5 89t-183.5 265q268 75 268 241q0 75 -50.5 119.5t-136.5 44.5q-55 0 -104 -11l-37 140q78 17 152 17q160 0 250.5 -83t90.5 -225q0 -205 -223 -313q36 -64 103 -100t148 -36q178 0 309 134v623l164 -22v-901
q0 -64 8.5 -91.5t26.5 -43t51 -21.5t91 -6l-16 -149h-21q-114 0 -183 34.5t-95 96t-26 173.5v121zM119 535z" />
    <glyph glyph-name="uni0AB0" unicode="&#xab0;" horiz-adv-x="912" 
d="M843 0q-153 0 -279 87.5t-261 307.5q-29 -2 -55 -2q-94 0 -141 29t-47 95q0 47 34.5 75.5t89.5 28.5q51 0 89.5 -15.5t75.5 -42.5q139 31 215.5 105.5t76.5 179.5q0 113 -67 174.5t-187 61.5q-74 0 -138 -14.5t-137 -48.5l-52 141q169 72 331 72q197 0 308 -102t111 -286
q0 -144 -93.5 -255t-257.5 -165q79 -111 138.5 -168t117 -80.5t137.5 -23.5h41l-18 -154h-32zM522 0zM520 1234zM456 0zM350 1234zM748 541z" />
    <glyph glyph-name="uni0AB2" unicode="&#xab2;" horiz-adv-x="1334" 
d="M842 271q-115 -55 -270 -55q-221 0 -351.5 130.5t-130.5 352.5q0 198 136 339t386 196l41 -152q-201 -42 -298 -140t-97 -261q0 -149 83 -232t224 -83q122 0 214 42zM976 720l-476 -98l-38 151l514 103v358l164 -22v-901q0 -64 8.5 -91.5t26.5 -43t51 -21.5t91 -6
l-16 -149h-21q-114 0 -183 34.5t-95 96t-26 173.5v416z" />
    <glyph glyph-name="uni0AB3" unicode="&#xab3;" horiz-adv-x="1536" 
d="M1178 813q0 88 -10 140t-46.5 83t-90.5 31q-56 0 -92 -31t-46.5 -80t-10.5 -142v-47q0 -120 -15.5 -201.5t-60 -143.5t-121 -97.5t-189.5 -35.5q-182 0 -294 117.5t-112 317.5q0 179 111 309.5t330 200.5l47 -149q-156 -51 -238 -141.5t-82 -226.5t62.5 -208.5
t173.5 -72.5q62 0 103.5 17.5t68.5 49.5t39.5 80.5t12.5 146.5v107q0 146 33.5 217t104.5 114.5t175 43.5q100 0 169 -41t105.5 -110.5t36.5 -195.5v-554q0 -64 8.5 -91.5t26.5 -43t51 -21.5t91 -6l-16 -149h-21q-114 0 -183 34.5t-95 96t-26 173.5v509zM1043 1234z" />
    <glyph glyph-name="uni0AB5" unicode="&#xab5;" horiz-adv-x="1183" 
d="M825 423q-78 -52 -154.5 -73t-170.5 -21q-180 0 -295 105t-115 272q0 183 123 291t326 108q43 0 100.5 -6.5t96.5 -16.5l-27 -145q-89 18 -164 18q-138 0 -214 -64.5t-76 -181.5q0 -109 65 -170.5t177 -61.5q96 0 171 29.5t157 106.5v621l164 -22v-901q0 -64 8.5 -91.5
t26.5 -43t51 -21.5t91 -6l-16 -149h-21q-114 0 -183 34.5t-95 96t-26 173.5v119z" />
    <glyph glyph-name="uni0AB6" unicode="&#xab6;" horiz-adv-x="1387" 
d="M475 680q-173 41 -256.5 116t-83.5 196q0 103 81.5 172.5t221.5 69.5q104 0 191.5 -46t135.5 -134t48 -208q0 -149 -94.5 -266t-257.5 -171q110 -156 178.5 -205.5t175.5 -49.5h27l-18 -154h-32q-132 0 -247.5 88t-240.5 289q-30 -2 -60 -2q-181 0 -181 124
q0 47 34.5 75.5t89.5 28.5q92 0 169 -61q146 35 219 113.5t73 199.5q0 113 -59.5 173.5t-154.5 60.5q-67 0 -103.5 -29.5t-36.5 -72.5q0 -71 63 -109.5t172 -60.5zM1029 1234l164 -22v-901q0 -64 8.5 -91.5t26.5 -43t51 -21.5t91 -6l-16 -149h-21q-114 0 -183 34.5t-95 96
t-26 173.5v930zM447 557zM363 828z" />
    <glyph glyph-name="uni0AB7" unicode="&#xab7;" horiz-adv-x="1183" 
d="M825 421q-127 -92 -284 -92q-103 0 -180.5 40.5t-124 119.5t-46.5 228v212q0 62 -16 88t-49 36t-112 10l16 149h21q152 0 226 -62l421 -311q54 -40 128 -102v497l164 -22v-901q0 -64 8.5 -91.5t26.5 -43t51 -21.5t91 -6l-16 -149h-21q-114 0 -183 34.5t-95 96t-26 173.5
v117zM354 732q0 -145 46.5 -200t157.5 -55q134 0 260 109l-260 193q-130 97 -213 169q9 -51 9 -144v-72zM857 438z" />
    <glyph glyph-name="uni0AB8" unicode="&#xab8;" horiz-adv-x="1457" 
d="M1099 668q-86 -53 -208 -53q-91 0 -162 26q-44 -74 -111 -127t-158 -85q81 -114 141 -171.5t118.5 -80.5t135.5 -23h41l-18 -154h-32q-154 0 -281 88.5t-259 307.5q-31 -3 -62 -3q-89 0 -135 29t-46 95q0 47 34.5 75.5t89.5 28.5q90 0 163 -56q131 35 197.5 107.5
t66.5 175.5q0 113 -63 174.5t-177 61.5q-72 0 -132.5 -15t-126.5 -48l-52 141q161 72 318 72q188 0 295 -101.5t107 -286.5q0 -34 -5 -64q47 -18 107 -18q131 0 214 85v385l164 -22v-901q0 -64 8.5 -91.5t26.5 -43t51 -21.5t91 -6l-16 -149h-21q-114 0 -183 34.5t-95 96
t-26 173.5v364zM563 541z" />
    <glyph glyph-name="uni0AB9" unicode="&#xab9;" horiz-adv-x="1296" 
d="M527 680q141 -203 340 -203q150 0 150 104q0 60 -42 94t-153 74q-135 48 -198.5 111t-63.5 150q0 106 82.5 165t231.5 59q97 0 203 -23l-31 -148q-92 25 -197 25q-127 0 -127 -76q0 -39 38.5 -65.5t131.5 -59.5q153 -55 221 -124.5t68 -178.5q0 -121 -84.5 -188
t-231.5 -67q-286 0 -478 266zM337 895q-74 -145 -74 -303q0 -214 143 -338t397 -124q238 0 418 84l66 -147q-127 -47 -231 -67t-252 -20q-227 0 -386.5 78t-241 221t-81.5 326q0 187 87 358zM884 1234zM699 1234zM742 0z" />
    <glyph glyph-name="uni0ABC" unicode="&#xabc;" 
d="M-527 -156q47 0 80 -35.5t33 -83.5q0 -49 -33 -84t-80 -35t-80 35.5t-33 83.5t33 83.5t80 35.5zM-527 0z" />
    <glyph glyph-name="uni0ABD" unicode="&#xabd;" horiz-adv-x="964" 
d="M855 1064h-298q-69 0 -89 -9.5t-31.5 -24.5t-11.5 -39q0 -29 12.5 -52t51 -61t141.5 -120q146 -118 198 -201.5t52 -188.5q0 -136 -92.5 -213t-251.5 -77q-152 0 -277.5 75.5t-233.5 241.5l144 87q82 -123 168 -188.5t200 -65.5q83 0 128.5 37t45.5 104q0 72 -47 133
t-178 165q-117 94 -171.5 169t-54.5 167q0 68 39 116.5t99.5 70.5t179.5 22h277v-148z" />
    <glyph glyph-name="uni0ABE" unicode="&#xabe;" horiz-adv-x="543" 
d="M185 1234l164 -22v-901q0 -64 8.5 -91.5t26.5 -43t51 -21.5t91 -6l-16 -149h-21q-114 0 -183 34.5t-95 96t-26 173.5v930z" />
    <glyph glyph-name="uni0ABF" unicode="&#xabf;" horiz-adv-x="543" 
d="M1167 1313q-171 198 -303.5 286t-252.5 88q-105 0 -161.5 -38.5t-78.5 -111.5t-22 -221v-1001q0 -64 8.5 -91.5t26.5 -43t51 -21.5t91 -6l-16 -153h-21q-114 0 -183 34.5t-95 96t-26 173.5v1073q0 170 46 263t140 144.5t226 51.5q173 0 338 -101t356 -331zM1175 1234z
M1277 1461z" />
    <glyph glyph-name="uni0AC0" unicode="&#xac0;" horiz-adv-x="543" 
d="M349 315q0 -64 8.5 -91.5t26.5 -43t51 -21.5t91 -6l-16 -153h-21q-114 0 -183 34.5t-95 96t-26 173.5v947q-27 192 -102.5 314.5t-170.5 122.5q-68 0 -106 -49t-38 -139q0 -87 25 -187h-159q-30 114 -30 206q0 144 81 230.5t212 86.5q174 0 291 -151t161 -419v-951z
M59 1234z" />
    <glyph glyph-name="uni0AC1" unicode="&#xac1;" 
d="M-518 -48q107 48 228 48q152 0 238.5 -73.5t86.5 -202.5q0 -125 -97 -198.5t-270 -73.5q-180 0 -328.5 83.5t-284.5 259.5l128 88q123 -157 231.5 -221t253.5 -64q216 0 216 141q0 57 -44 89t-120 32q-98 0 -185 -44zM-358 0zM-927 -257z" />
    <glyph glyph-name="uni0AC2" unicode="&#xac2;" 
d="M-139 -501q-113 -47 -226 -47q-153 0 -240 75.5t-87 202.5q0 118 95 194t255 76q187 0 337 -90.5t290 -296.5l-125 -80q-125 177 -239.5 252.5t-251.5 75.5q-102 0 -156 -34.5t-54 -99.5q0 -63 43 -96t122 -33q46 0 88 9t97 35zM-358 0zM270 -327z" />
    <glyph glyph-name="uni0AC3" unicode="&#xac3;" 
d="M49 -477q-140 -71 -277 -71q-151 0 -239 79.5t-88 209.5q0 122 95 203.5t266 91.5v-137q-105 -15 -156.5 -56.5t-51.5 -112.5q0 -61 46 -95.5t117 -34.5q57 0 104 13t128 54zM-358 0zM-194 -104z" />
    <glyph glyph-name="uni0AC4" unicode="&#xac4;" 
d="M125 -736q-136 -70 -273 -70q-154 0 -240.5 73t-86.5 196q0 58 32 108q-112 77 -112 210q0 103 95 174t266 81v-137q-102 -10 -156 -44.5t-54 -90.5q0 -53 43 -81.5t123 -28.5q57 0 103.5 11t128.5 46l51 -129q-136 -70 -273 -70q-36 0 -69 5q-27 -31 -27 -71
q0 -54 42.5 -82t123.5 -28q57 0 103.5 11t128.5 46zM-358 0z" />
    <glyph glyph-name="uni0AC5" unicode="&#xac5;" 
d="M-101 1337q-78 -24 -165 -24q-156 0 -293 93.5t-267 290.5l125 81q118 -173 213.5 -243.5t221.5 -70.5q65 0 117 19zM-358 1234zM-345 1836zM-551 1638z" />
    <glyph glyph-name="uni0AC7" unicode="&#xac7;" 
d="M-357 1313q-52 191 -116.5 281t-170.5 90q-56 0 -106 -19l-48 146q82 25 165 25q127 0 203.5 -60.5t128 -178.5t90.5 -284h-146zM-358 1234z" />
    <glyph glyph-name="uni0AC8" unicode="&#xac8;" 
d="M-341 1313l-10 43l-80 -79q-123 99 -199 137t-166 38q-68 0 -119 -20l-48 144q78 24 165 24q111 0 203 -48t240 -178q-39 163 -90.5 238t-158.5 75q-56 0 -106 -19l-48 143q82 25 165 25q113 0 184 -55.5t119.5 -167.5t83.5 -300h-135zM-358 1234z" />
    <glyph glyph-name="uni0AC9" unicode="&#xac9;" horiz-adv-x="543" 
d="M185 1234l164 -22v-901q0 -64 8.5 -91.5t26.5 -43t51 -21.5t91 -6l-16 -149h-21q-114 0 -183 34.5t-95 96t-26 173.5v930zM442 1337q-78 -24 -165 -24q-156 0 -293 93.5t-267 290.5l125 81q118 -173 213.5 -243.5t221.5 -70.5q65 0 117 19zM185 1234zM198 1836zM-8 1638z
" />
    <glyph glyph-name="uni0ACB" unicode="&#xacb;" horiz-adv-x="543" 
d="M185 1234l164 -22v-901q0 -64 8.5 -91.5t26.5 -43t51 -21.5t91 -6l-16 -149h-21q-114 0 -183 34.5t-95 96t-26 173.5v930zM186 1313q-52 191 -116.5 281t-170.5 90q-56 0 -106 -19l-48 146q82 25 165 25q127 0 203.5 -60.5t128 -178.5t90.5 -284h-146zM185 1234z" />
    <glyph glyph-name="uni0ACC" unicode="&#xacc;" horiz-adv-x="543" 
d="M185 1234l164 -22v-901q0 -64 8.5 -91.5t26.5 -43t51 -21.5t91 -6l-16 -149h-21q-114 0 -183 34.5t-95 96t-26 173.5v930zM202 1313l-10 43l-80 -79q-123 99 -199 137t-166 38q-68 0 -119 -20l-48 144q78 24 165 24q111 0 203 -48t240 -178q-39 163 -90.5 238t-158.5 75
q-56 0 -106 -19l-48 143q82 25 165 25q113 0 184 -55.5t119.5 -167.5t83.5 -300h-135zM185 1234z" />
    <glyph glyph-name="uni0ACD" unicode="&#xacd;" 
d="M-384 -106q78 24 165 24q154 0 290.5 -91.5t269.5 -292.5l-125 -81q-118 173 -213.5 243.5t-221.5 70.5q-65 0 -117 -19zM-358 0zM326 -407z" />
    <glyph glyph-name="uni0AD0" unicode="&#xad0;" horiz-adv-x="1823" 
d="M922 1759q44 0 75 -33.5t31 -78.5q0 -46 -31 -79t-75 -33t-75 33.5t-31 78.5t31 78.5t75 33.5zM518 1564l142 57q43 -95 106.5 -139.5t156.5 -44.5q92 0 156 44t107 140l142 -57q-62 -135 -166 -203t-239 -68q-140 0 -243 70t-162 201zM173 1161q166 73 331 73
q190 0 289.5 -86t99.5 -243q0 -155 -117 -255l30 -31q38 -23 86 -23q41 0 73.5 23t69.5 82l61 98q74 120 146 166t180 46q135 0 224.5 -97.5t89.5 -269.5q0 -165 -98 -263.5t-262 -98.5q-83 0 -153.5 31.5t-144.5 98.5l100 107q51 -47 98.5 -69t105.5 -22q81 0 135 59
t54 159q0 101 -42 159t-113 58q-54 0 -95 -30.5t-94 -119.5l-54 -91q-52 -88 -113.5 -129t-145.5 -41h-12q17 -59 17 -117q0 -161 -107 -258t-288 -97q-152 0 -272.5 74.5t-226.5 242.5l142 86q84 -128 164.5 -190.5t187.5 -62.5q112 0 173.5 53.5t61.5 155.5
q0 145 -115 234q-105 -42 -265 -58l-30 156q200 16 292 71.5t92 157.5q0 87 -59 135t-170 48q-76 0 -134.5 -13.5t-139.5 -49.5zM724 1836z" />
    <glyph glyph-name="uni0AE0" unicode="&#xae0;" horiz-adv-x="1833" 
d="M834 630l-536 -354l-102 143l496 294q-70 102 -150.5 163.5t-204.5 61.5q-68 0 -125.5 -16t-130.5 -56l-58 143q70 37 151 60t155 23q154 0 254 -64.5t235 -239.5l16 9v437l164 -22v-303q118 -120 277 -120q44 0 73 8q-21 38 -21 82q0 58 39.5 91.5t102.5 33.5
q65 0 104 -40.5t39 -107.5q0 -85 -64 -141q63 -115 106 -266q-116 -15 -173.5 -55.5t-57.5 -115.5q0 -61 46 -95.5t117 -34.5q57 0 104 13t128 54l56 -144q-140 -71 -277 -71q-151 0 -239 79.5t-88 209.5q0 90 52 159t147 105q-28 71 -44 102q-53 -14 -129 -14
q-80 0 -158.5 24.5t-139.5 68.5v-423q0 -64 8.5 -91.5t26.5 -43t51 -21.5t91 -6l-16 -149h-21q-114 0 -183 34.5t-95 96t-26 173.5v326zM943 0z" />
    <glyph glyph-name="uni0AE1" unicode="&#xae1;" horiz-adv-x="1427" 
d="M867 231q0 93 75 159t215 91q18 57 18 117q0 87 -42.5 134t-120.5 47q-102 0 -172.5 -76t-113.5 -226l-157 49q25 96 64 165q-105 81 -208 81q-80 0 -125 -45t-45 -121q0 -89 67 -189t218 -236l-110 -107q-187 166 -265 291.5t-78 248.5q0 141 96.5 224.5t231.5 83.5
q167 0 308 -115q87 81 207 105v322l164 -22v-297q114 -23 180 -108.5t66 -216.5q0 -116 -45 -228q-136 -11 -206.5 -46.5t-70.5 -101.5q0 -52 43 -80.5t123 -28.5q57 0 103.5 11t128.5 46l51 -129q-136 -70 -273 -70q-36 0 -69 5q-27 -29 -27 -71q0 -54 42.5 -82t123.5 -28
q57 0 103.5 11t128.5 46l51 -129q-136 -70 -273 -70q-154 0 -240.5 73t-86.5 196q0 58 32 108q-112 77 -112 209zM633 0zM470 214zM1266 -548z" />
    <glyph glyph-name="uni0AE2" unicode="&#xae2;" 
d="M79 -752q-108 -54 -216 -54q-119 0 -188.5 63t-69.5 168q0 183 242 236q23 48 23 97q0 55 -31 84.5t-88 29.5q-76 0 -126.5 -59.5t-81.5 -170.5l-142 37q23 82 54 133q-34 25 -70 40t-80 15q-60 0 -97 -36.5t-37 -92.5q0 -80 55 -157.5t178 -188.5l-102 -98
q-145 125 -212 232t-67 214q0 122 77.5 191.5t188.5 69.5q63 0 120.5 -19.5t124.5 -70.5q98 90 238 90q103 0 174.5 -63.5t71.5 -173.5q0 -112 -62 -216q-111 -12 -162.5 -43.5t-51.5 -86.5q0 -44 35 -68.5t88 -24.5q46 0 82 10.5t92 40.5zM-358 0zM-669 -572z" />
    <glyph glyph-name="uni0AE3" unicode="&#xae3;" 
d="M-466 -89q98 90 238 90q100 0 173 -65.5t73 -180.5v-9q-1 -6 -1 -9q-155 -26 -155 -105q0 -35 34.5 -54.5t88.5 -19.5q46 0 82 10.5t92 40.5l40 -125q-108 -52 -216 -52q-19 0 -39 2q-2 -9 -2 -21q0 -44 35 -68.5t88 -24.5q46 0 82 10.5t92 40.5l40 -125
q-108 -52 -216 -52q-119 0 -188.5 61t-69.5 165q0 34 7 59q-87 56 -87 160q0 118 129 179q-30 54 -103 54q-76 0 -126.5 -59.5t-81.5 -170.5l-142 37q23 82 54 133q-34 25 -70 40t-80 15q-60 0 -97 -36.5t-37 -92.5q0 -80 55 -157.5t178 -188.5l-102 -98q-145 125 -212 232
t-67 214q0 122 77.5 191.5t188.5 69.5q63 0 120.5 -19.5t124.5 -70.5zM-358 0zM-663 -572z" />
    <glyph glyph-name="uni0AE6" unicode="&#xae6;" horiz-adv-x="1128" 
d="M565 201q-124 0 -223 53.5t-154 151.5t-55 221q0 119 54.5 216t153.5 152t222 55q127 0 226 -55t152 -152t53 -219q0 -123 -56.5 -219.5t-155 -150t-217.5 -53.5zM568 898q-117 0 -192 -78t-75 -198t71.5 -194.5t187.5 -74.5t191 78t75 199q0 120 -71 194t-187 74z
M547 1234z" />
    <glyph glyph-name="uni0AE7" unicode="&#xae7;" horiz-adv-x="1128" 
d="M688 599q-74 -29 -163 -29q-152 0 -251 93.5t-99 242.5q0 141 93.5 234.5t245.5 93.5q159 0 248.5 -92t89.5 -301v-530q0 -64 8.5 -91.5t26.5 -43t51 -21.5t91 -6l-16 -149h-21q-114 0 -183 34.5t-95 96t-26 173.5v295zM688 764v43q0 160 -43.5 219.5t-127.5 59.5
q-82 0 -129.5 -52t-47.5 -139q0 -83 51.5 -130t136.5 -47q89 0 160 46z" />
    <glyph glyph-name="uni0AE8" unicode="&#xae8;" horiz-adv-x="1128" 
d="M860 0q-145 0 -257.5 87t-224.5 307l-16 -1q-23 -1 -78 4t-91 33t-36 87q0 47 34.5 75.5t89.5 28.5q51 0 89.5 -15.5t75.5 -42.5q139 31 215.5 105.5t76.5 179.5q0 113 -67 174.5t-187 61.5q-74 0 -138 -14.5t-137 -48.5l-52 141q169 72 331 72q197 0 308 -102t111 -286
q0 -147 -98.5 -260.5t-268.5 -164.5q89 -154 157 -211t171 -57q73 0 155 41l57 -141q-100 -53 -220 -53zM814 541z" />
    <glyph glyph-name="uni0AE9" unicode="&#xae9;" horiz-adv-x="1128" 
d="M691 573q-105 -42 -265 -58l-30 156q200 16 292 71.5t92 158.5q0 87 -59 135t-170 48q-76 0 -134.5 -13.5t-139.5 -49.5l-52 141q166 73 331 73q190 0 289.5 -86t99.5 -243q0 -156 -117 -256q71 -66 107 -147.5t36 -167.5q0 -161 -107 -258t-288 -97q-152 0 -272.5 74.5
t-226.5 242.5l142 86q84 -128 164.5 -190.5t187.5 -62.5q112 0 173.5 53.5t61.5 155.5q0 145 -115 234z" />
    <glyph glyph-name="uni0AEA" unicode="&#xaea;" horiz-adv-x="1128" 
d="M123 1234q276 -239 441 -414q199 198 439 414l109 -119l-242 -217q-138 -122 -204 -186q103 -112 149.5 -211.5t46.5 -221.5q0 -136 -82 -217.5t-232 -81.5q-148 0 -232.5 86.5t-84.5 213.5q0 120 56.5 219t169.5 213q-104 107 -441 402zM558 601q-66 -71 -101 -123
t-49 -96t-14 -103q0 -72 40.5 -112.5t111.5 -40.5q72 0 112.5 42.5t40.5 113.5q0 87 -34 159.5t-107 159.5zM140 1086z" />
    <glyph glyph-name="uni0AEB" unicode="&#xaeb;" horiz-adv-x="1128" 
d="M752 401q-106 -72 -244 -72q-91 0 -159.5 36.5t-110 113.5t-41.5 220v202q0 79 -16 109t-49.5 41.5t-111.5 11.5l16 149h21q89 0 146 -19.5t91 -52.5t50.5 -83.5t16.5 -148.5v-202q0 -94 18 -140t53 -67.5t101 -21.5q62 0 119.5 29.5t99.5 76.5v651l164 -22v-901
q0 -64 8.5 -91.5t26.5 -43t51 -21.5t91 -6l-16 -149h-21q-114 0 -183 34.5t-95 96t-26 173.5v97z" />
    <glyph glyph-name="uni0AEC" unicode="&#xaec;" horiz-adv-x="1128" 
d="M351 645q-158 123 -158 290q0 136 107.5 217.5t307.5 81.5q114 0 237 -29l-28 -148q-101 26 -201 26q-124 0 -189.5 -42.5t-65.5 -117.5q0 -111 113 -185q105 49 244 49q93 0 183 -15l-28 -148q-76 12 -164 12q-127 0 -195.5 -52.5t-68.5 -153.5q0 -89 64 -144.5
t197 -96.5q160 -50 237 -116t77 -169q0 -58 -20.5 -111.5t-76.5 -125.5l-133 93q57 67 57 126q0 50 -40 81t-172 77q-190 67 -274 157.5t-84 234.5q0 120 74 209zM949 148zM720 -548z" />
    <glyph glyph-name="uni0AED" unicode="&#xaed;" horiz-adv-x="1128" 
d="M51 563l169 22q42 -233 132.5 -343t244.5 -110q145 0 211.5 109t66.5 365q0 131 -35 244t-98.5 174.5t-147.5 61.5q-78 0 -124 -46t-46 -122q0 -118 100 -174.5t311 -56.5l-3 -153q-283 0 -430.5 100t-147.5 290q0 137 92 223.5t253 86.5q129 0 230.5 -73.5t159.5 -221.5
t58 -357q0 -601 -442 -601q-233 0 -367 145.5t-187 436.5z" />
    <glyph glyph-name="uni0AEE" unicode="&#xaee;" horiz-adv-x="1128" 
d="M853 1234l129 -121l-431 -422q-148 -145 -192 -216t-44 -147q0 -92 66 -145t177 -53q94 0 180.5 26t203.5 98l76 -142q-213 -132 -470 -132q-171 0 -285.5 96.5t-114.5 255.5q0 111 47.5 198t171.5 212zM892 1086z" />
    <glyph glyph-name="uni0AEF" unicode="&#xaef;" horiz-adv-x="1128" 
d="M764 1082q-256 -78 -375 -202.5t-119 -334.5q0 -196 116.5 -304t316.5 -108q150 0 300 53l62 -145q-162 -61 -357 -61q-190 0 -328 73t-210 205.5t-72 304.5q0 236 160 410.5t459 259.5zM1018 591l-510 -121l-38 156l511 118z" />
    <glyph glyph-name="uni0AF0" unicode="&#xaf0;" horiz-adv-x="784" 
d="M393 -1q-130 0 -217.5 80.5t-87.5 205.5q0 122 85.5 203t219.5 81q131 0 217 -81t86 -203q0 -123 -86 -204.5t-217 -81.5zM392 435q-74 0 -118 -42.5t-44 -107.5q0 -68 45.5 -110t116.5 -42q72 0 117 42.5t45 109.5q0 66 -45.5 108t-116.5 42zM419 1234z" />
    <glyph glyph-name="uni0AF1" unicode="&#xaf1;" horiz-adv-x="1688" 
d="M1297 -1q-130 0 -217.5 80.5t-87.5 205.5q0 122 85.5 203t219.5 81q131 0 217 -81t86 -203q0 -123 -86 -204.5t-217 -81.5zM1296 435q-74 0 -118 -42.5t-44 -107.5q0 -68 45.5 -110t116.5 -42q72 0 117 42.5t45 109.5q0 66 -45.5 108t-116.5 42zM1323 1234zM397 130
q130 13 197 70.5t67 149.5q0 130 -107 216q-101 -37 -248 -51l-30 156q200 16 292 71.5t92 158.5q0 87 -59 135t-170 48q-76 0 -134.5 -13.5t-139.5 -49.5l-52 141q166 73 331 73q190 0 289.5 -86t99.5 -243q0 -168 -131 -266q65 -64 98.5 -141.5t33.5 -156.5
q0 -137 -86.5 -227.5t-248.5 -119.5q89 -122 169 -182.5t202 -60.5h41l-18 -154h-32q-150 0 -275.5 85t-256.5 298q-129 1 -190 30t-61 104q0 47 34.5 75.5t89.5 28.5q61 0 108.5 -23t94.5 -66zM372 1234zM688 -548z" />
    <glyph glyph-name="uni200B" unicode="&#x200b;" 
 />
    <glyph glyph-name="uni200B" unicode="&#xfeff;" 
 />
    <glyph glyph-name="afii61664" unicode="&#x200c;" 
d="M-54 -339v1952h108v-1952h-108zM54 1836zM48 -548z" />
    <glyph glyph-name="afii301" unicode="&#x200d;" 
d="M74 1323l225 -220l-75 -73l-170 169v-1537h-108v1537l-170 -169l-75 73l225 220l-225 217l75 73l224 -220l224 220l75 -74zM83 1836zM39 -548z" />
    <glyph glyph-name="uni25CC" unicode="&#x25cc;" horiz-adv-x="1044" 
d="M581 995q0 -59 -60 -59q-58 0 -58 59q0 58 58 58q60 0 60 -58zM316 893q0 -59 -59 -59t-59 59t59 59t59 -59zM846 893q0 -59 -59 -59t-59 59t59 59t59 -59zM938 638q0 -59 -60 -59q-59 0 -59 59t59 59q60 0 60 -59zM224 638q0 -59 -59 -59t-59 59t59 59t59 -59zM316 383
q0 -59 -59 -59t-59 59t59 59t59 -59zM846 383q0 -59 -59 -59t-59 59t59 59t59 -59zM581 281q0 -59 -60 -59q-58 0 -58 59t58 59q60 0 60 -59z" />
    <glyph glyph-name="uni0A95_uni0ABC.nukt" horiz-adv-x="1047" 
d="M77 577l285 102q-76 59 -114 126t-38 142q0 128 98 207.5t260 79.5q128 0 238 -27l-30 -149q-68 17 -106.5 21.5t-84.5 4.5q-99 0 -153 -39.5t-54 -112.5q0 -52 37.5 -100t113.5 -92l421 157l66 -144l-330 -114q129 -85 185.5 -167t56.5 -181q0 -138 -103 -224.5
t-294 -86.5q-277 0 -494 169l92 128q185 -147 392 -147q119 0 179 41t60 123q0 45 -20.5 84.5t-74 88t-153.5 110.5l-378 -145zM572 0zM644 1234zM439 1234zM1040 749zM64 580zM523 -156q47 0 80 -35.5t33 -83.5q0 -49 -33 -84t-80 -35t-80 35.5t-33 83.5t33 83.5t80 35.5z
M523 0z" />
    <glyph glyph-name="uni0A96_uni0ABC.nukt" horiz-adv-x="1528" 
d="M13 1063l16 149h21q89 0 146 -19.5t91 -52.5t50.5 -83.5t16.5 -148.5v-189q0 -107 21.5 -153.5t61.5 -67.5t100 -21q64 0 103.5 26.5t57 72.5t17.5 143v267l164 -22v-217q39 -63 117 -63q98 0 174 82v468l164 -22v-901q0 -64 8.5 -91.5t26.5 -43t51 -21.5t91 -6l-16 -149
h-21q-114 0 -183 34.5t-95 96t-26 173.5v281q-72 -49 -174 -49q-80 0 -133 35q-32 -116 -117.5 -179t-210.5 -63q-124 0 -198.5 47.5t-110.5 125t-36 217.5v182q0 79 -16 109t-49.5 41.5t-111.5 11.5zM608 189q47 0 80 -35.5t33 -83.5q0 -49 -33 -84t-80 -35t-80 35.5
t-33 83.5t33 83.5t80 35.5z" />
    <glyph glyph-name="uni0A97_uni0ABC.nukt" horiz-adv-x="1339" 
d="M430 364q-123 0 -223.5 64t-184.5 192l130 89q65 -101 127 -148t143 -47q92 0 141.5 69.5t49.5 203.5q0 149 -57.5 224t-171.5 75t-222 -56l-52 138q59 30 135.5 48t148.5 18q183 0 283.5 -115.5t100.5 -334.5q0 -208 -89 -314t-259 -106zM981 1234l164 -22v-901
q0 -64 8.5 -91.5t26.5 -43t51 -21.5t91 -6l-16 -149h-21q-114 0 -183 34.5t-95 96t-26 173.5v930zM511 218q47 0 80 -35.5t33 -83.5q0 -49 -33 -84t-80 -35t-80 35.5t-33 83.5t33 83.5t80 35.5z" />
    <glyph glyph-name="uni0A98_uni0ABC.nukt" horiz-adv-x="1271" 
d="M913 329q-154 -110 -351 -110q-180 0 -286 87t-106 229q0 114 62 191q-142 104 -142 252q0 112 92 184t249 72q101 0 191 -22l-28 -145q-84 19 -145 19q-95 0 -144.5 -32t-49.5 -92q0 -93 98 -151q77 30 178 30q49 0 124 -12l-24 -146q-42 10 -104 10q-91 0 -141.5 -39.5
t-50.5 -113.5q0 -82 60 -127.5t166 -45.5q101 0 187 38t165 117v712l164 -22v-901q0 -64 8.5 -91.5t26.5 -43t51 -21.5t91 -6l-16 -149h-21q-114 0 -183 34.5t-95 96t-26 173.5v25zM523 55q47 0 80 -35.5t33 -83.5q0 -49 -33 -84t-80 -35t-80 35.5t-33 83.5t33 83.5t80 35.5
zM523 211z" />
    <glyph glyph-name="uni0A99_uni0ABC.nukt" horiz-adv-x="1004" 
d="M770 1066q-80 20 -187 20q-88 0 -138.5 -35t-50.5 -98q0 -42 18.5 -72t57.5 -60.5t145 -95.5q176 -108 241 -196t65 -215q0 -151 -105.5 -242.5t-283.5 -91.5q-152 0 -278.5 76t-234.5 241l143 87q85 -130 172 -192t201 -62q102 0 160 47.5t58 130.5q0 87 -53.5 148
t-206.5 151q-143 85 -203.5 162.5t-60.5 186.5q0 125 96.5 201.5t260.5 76.5q123 0 214 -23zM818 983q50 0 84 -32.5t34 -82.5t-34.5 -83t-83.5 -33t-83.5 33t-34.5 83t34 82.5t84 32.5zM632 1234zM447 1234zM585 0zM502 0zM485 577zM42 236zM502 -156q47 0 80 -35.5
t33 -83.5q0 -49 -33 -84t-80 -35t-80 35.5t-33 83.5t33 83.5t80 35.5zM502 0z" />
    <glyph glyph-name="uni0A9A_uni0ABC.nukt" horiz-adv-x="1353" 
d="M995 375q-77 -58 -155 -82.5t-173 -24.5q-133 0 -232.5 54t-166.5 163h-28q-84 0 -126.5 30.5t-42.5 85.5q0 106 113 106q93 0 164 -71q96 30 152.5 96t56.5 148q0 99 -57 152.5t-177 53.5q-47 0 -104 -13t-100 -32l-55 139q54 24 125 39t140 15q187 0 289.5 -94
t102.5 -263q0 -120 -77.5 -217t-209.5 -143q84 -101 227 -101q92 0 168.5 31.5t165.5 122.5v664l164 -22v-901q0 -64 8.5 -91.5t26.5 -43t51 -21.5t91 -6l-16 -149h-21q-114 0 -183 34.5t-95 96t-26 173.5v71zM534 127q47 0 80 -35.5t33 -83.5q0 -49 -33 -84t-80 -35
t-80 35.5t-33 83.5t33 83.5t80 35.5zM534 283z" />
    <glyph glyph-name="uni0A9B_uni0ABC.nukt" horiz-adv-x="1512" 
d="M673 584q-29 2 -59 2q-122 0 -195.5 -59t-73.5 -165q0 -232 303 -232q183 0 323.5 88t218.5 240.5t78 304.5q0 158 -48 240.5t-140 82.5q-68 0 -107.5 -41.5t-39.5 -100.5q0 -107 72.5 -165t215.5 -86l-51 -147q-399 106 -399 389q0 132 80.5 215.5t218.5 83.5
q166 0 266 -122t100 -349q0 -194 -96.5 -379.5t-275.5 -294.5t-412 -109q-224 0 -348 103t-124 277q0 155 104 258q-99 66 -146.5 146t-47.5 181q0 125 92.5 207t248.5 82q101 0 191 -22l-28 -147q-84 19 -145 19q-92 0 -143 -40.5t-51 -110.5q0 -77 42.5 -131t127.5 -97
q84 31 187 31q25 0 80 -4zM772 0zM1075 1234zM711 0zM890 1234zM726 -156q47 0 80 -35.5t33 -83.5q0 -49 -33 -84t-80 -35t-80 35.5t-33 83.5t33 83.5t80 35.5zM726 0z" />
    <glyph glyph-name="uni0A9C_uni0ABC.nukt" horiz-adv-x="1786" 
d="M1240 932q188 135 478 304l83 -136q-280 -160 -459 -284q90 -116 135 -233t45 -236q0 -173 -95 -270t-260 -97q-173 0 -267 97t-94 251q0 142 74 263t238 250q-86 87 -185 143.5t-210 82.5q51 -93 51 -209q0 -88 -43.5 -164.5t-125 -118.5t-191.5 -42q-159 0 -253 93
t-94 245q0 158 123 260.5t335 102.5q208 0 384.5 -73.5t330.5 -228.5zM547 1090q-10 0 -20 1h-20q-132 0 -203.5 -60.5t-71.5 -163.5q0 -86 49 -135t133 -49q93 0 145 50.5t52 131.5q0 130 -64 225zM1218 726q-115 -87 -179.5 -182t-64.5 -215q0 -100 48.5 -150.5
t141.5 -50.5q94 0 142 56t48 164q0 102 -34 196.5t-102 181.5zM1182 0zM1412 1234zM1267 1234zM1062 0zM1735 1088zM1144 -156q47 0 80 -35.5t33 -83.5q0 -49 -33 -84t-80 -35t-80 35.5t-33 83.5t33 83.5t80 35.5zM1144 0z" />
    <glyph glyph-name="uni0A9D_uni0ABC.nukt" horiz-adv-x="1430" 
d="M798 654q17 -80 17 -178q0 -244 -98 -370t-277 -126q-137 0 -238 65.5t-180 190.5l129 88q80 -119 141 -156.5t144 -37.5q103 0 157 88.5t54 262.5q0 183 -65.5 280t-195.5 97q-64 0 -114 -12t-113 -43l-52 139q64 30 143 47.5t150 17.5q121 0 208.5 -52.5t141.5 -156.5
q84 40 183 45v391l164 -22v-388q119 -36 183 -134t64 -244q0 -135 -58.5 -245t-185.5 -214l-114 126q104 78 148.5 155t44.5 184q0 115 -59.5 180.5t-163.5 65.5q-80 0 -158 -44zM1012 0zM715 -156q47 0 80 -35.5t33 -83.5q0 -49 -33 -84t-80 -35t-80 35.5t-33 83.5t33 83.5
t80 35.5zM715 0z" />
    <glyph glyph-name="uni0A9E_uni0ABC.nukt" horiz-adv-x="1417" 
d="M1059 725q-82 -46 -204 -46q-51 0 -87 7q-20 -161 -105 -241.5t-236 -80.5q-236 0 -405 256l130 89q65 -101 127 -148t143 -47q92 0 141.5 69.5t49.5 203.5q0 149 -57.5 224t-170.5 75q-114 0 -223 -56l-52 138q59 30 135.5 48t148.5 18q168 0 267 -101t111 -295
q32 -10 80 -10q126 0 207 71v335l164 -22v-901q0 -64 8.5 -91.5t26.5 -43t51 -21.5t91 -6l-16 -149h-21q-114 0 -183 34.5t-95 96t-26 173.5v421zM511 218q47 0 80 -35.5t33 -83.5q0 -49 -33 -84t-80 -35t-80 35.5t-33 83.5t33 83.5t80 35.5z" />
    <glyph glyph-name="uni0A9F_uni0ABC.nukt" horiz-adv-x="923" 
d="M848 233l76 -145q-114 -60 -210 -84t-211 -24q-183 0 -298 100t-115 251q0 73 27 135.5t91 123.5t206 139q116 62 164.5 94.5t69.5 63t21 70.5q0 64 -44.5 96.5t-128.5 32.5q-79 0 -137.5 -14t-110.5 -40l-52 138q148 64 304 64q160 0 247 -74t87 -200q0 -73 -29 -130.5
t-83.5 -101t-156.5 -98.5q-120 -65 -185 -110t-93.5 -92.5t-28.5 -111.5q0 -83 67.5 -134.5t181.5 -51.5q92 0 173.5 24.5t167.5 78.5zM568 1234zM383 1234zM549 0zM461 0zM461 -156q47 0 80 -35.5t33 -83.5q0 -49 -33 -84t-80 -35t-80 35.5t-33 83.5t33 83.5t80 35.5z
M461 0z" />
    <glyph glyph-name="uni0AA0_uni0ABC.nukt" horiz-adv-x="1059" 
d="M818 1064q-81 22 -196 22q-79 0 -120 -26.5t-41 -74.5t41.5 -88.5t169.5 -117.5q180 -110 251 -210.5t71 -231.5q0 -164 -120.5 -260.5t-331.5 -96.5q-214 0 -333 102.5t-119 276.5q0 139 96.5 239.5t274.5 138.5q-83 56 -124 119t-41 133q0 108 86 176.5t236 68.5
q133 0 230 -23zM626 627h-13q-157 0 -256 -74t-99 -199q0 -108 73 -167t208 -59t211 55t76 159q0 90 -45.5 153t-154.5 132zM679 1234zM611 0zM529 0zM494 1234zM529 -156q47 0 80 -35.5t33 -83.5q0 -49 -33 -84t-80 -35t-80 35.5t-33 83.5t33 83.5t80 35.5zM529 0z" />
    <glyph glyph-name="uni0AA1_uni0ABC.nukt" horiz-adv-x="986" 
d="M770 1064q-77 22 -176 22q-95 0 -147.5 -34.5t-52.5 -98.5q0 -53 37 -96.5t184 -131.5q133 -82 194 -143t86.5 -126t25.5 -150q0 -145 -107 -235.5t-282 -90.5q-156 0 -280 74.5t-233 242.5l143 87q85 -130 172 -192t201 -62q99 0 158.5 46t59.5 126q0 86 -54 150.5
t-206 154.5q-143 85 -203.5 162.5t-60.5 186.5q0 122 95.5 200t251.5 78q134 0 224 -23zM585 0zM632 1234zM493 0zM447 1234zM583 577zM110 236zM493 -156q47 0 80 -35.5t33 -83.5q0 -49 -33 -84t-80 -35t-80 35.5t-33 83.5t33 83.5t80 35.5zM493 0z" />
    <glyph glyph-name="uni0AA2_uni0ABC.nukt" horiz-adv-x="1056" 
d="M473 129q-33 82 -33 160q0 119 81 190t211 71q131 0 207.5 -72t76.5 -197q0 -135 -116.5 -218t-329.5 -83q-230 0 -355 101.5t-125 271.5q0 92 35.5 160t101.5 120.5t193 117.5q117 59 164 88.5t68 59t21 68.5q0 55 -43.5 87t-117.5 32q-87 0 -146 -13.5t-113 -40.5
l-52 138q147 64 305 64q155 0 243.5 -72t88.5 -192q0 -101 -67 -180t-244 -160q-165 -76 -218.5 -136.5t-53.5 -142.5q0 -92 55.5 -149t162.5 -73zM620 122q116 5 178.5 46.5t62.5 114.5q0 58 -31.5 91.5t-90.5 33.5q-69 0 -109 -40t-40 -109q0 -75 30 -137zM614 0z
M602 1234zM528 0zM437 1234zM630 128zM417 778zM528 -156q47 0 80 -35.5t33 -83.5q0 -49 -33 -84t-80 -35t-80 35.5t-33 83.5t33 83.5t80 35.5zM528 0z" />
    <glyph glyph-name="uni0AA3_uni0ABC.nukt" horiz-adv-x="1683" 
d="M568 727q64 -81 122 -115.5t122 -34.5q82 0 121 61.5t39 189.5q0 131 -49.5 196t-144.5 65q-111 0 -196 -47l-51 134q117 58 258 58q161 0 254 -107.5t93 -298.5q0 -197 -81 -297.5t-239 -100.5q-99 0 -196.5 53.5t-174.5 151.5zM1325 1234l164 -22v-901q0 -64 8.5 -91.5
t26.5 -43t51 -21.5t91 -6l-16 -149h-21q-114 0 -183 34.5t-95 96t-26 173.5v930zM153 1234l164 -22v-575q0 -108 5 -145t26.5 -66.5t82.5 -65t220 -102.5q139 -59 205 -109.5t88.5 -98.5t22.5 -112q0 -112 -97 -229l-133 93q27 31 42 61.5t15 64.5q0 42 -22 74t-80.5 66
t-168.5 80q-152 62 -222 104.5t-100 85t-39 88t-9 140.5v668zM856 -548zM399 177zM460 -156q47 0 80 -35.5t33 -83.5q0 -49 -33 -84t-80 -35t-80 35.5t-33 83.5t33 83.5t80 35.5zM460 0z" />
    <glyph glyph-name="uni0AA4_uni0ABC.nukt" horiz-adv-x="1173" 
d="M815 738h-239q-126 0 -186.5 -15.5t-96.5 -57.5t-36 -107q0 -92 69.5 -193t216.5 -231l-111 -110q-189 168 -266 294.5t-77 252.5q0 86 44 158t136.5 114.5t280.5 42.5h265v348l164 -22v-901q0 -64 8.5 -91.5t26.5 -43t51 -21.5t91 -6l-16 -149h-21q-114 0 -183 34.5
t-95 96t-26 173.5v434zM472 172zM477 -128q47 0 80 -35.5t33 -83.5q0 -49 -33 -84t-80 -35t-80 35.5t-33 83.5t33 83.5t80 35.5zM477 28z" />
    <glyph glyph-name="uni0AA5_uni0ABC.nukt" horiz-adv-x="1280" 
d="M922 412q-84 -62 -170.5 -87.5t-188.5 -25.5q-173 0 -292 88.5t-185 265.5q207 56 310.5 136t103.5 187q0 56 -34.5 88t-91.5 32q-58 0 -92 -25.5t-34 -68.5q0 -42 22 -69.5t70 -51.5l-95 -111q-155 86 -155 236q0 99 77 163.5t206 64.5q136 0 211.5 -74.5t75.5 -188.5
q0 -129 -87.5 -226.5t-269.5 -172.5q40 -63 103 -94t149 -31q106 0 194 34.5t173 117.5v635l164 -22v-901q0 -64 8.5 -91.5t26.5 -43t51 -21.5t91 -6l-16 -149h-21q-114 0 -183 34.5t-95 96t-26 173.5v108zM335 918zM116 505zM482 149q47 0 80 -35.5t33 -83.5q0 -49 -33 -84
t-80 -35t-80 35.5t-33 83.5t33 83.5t80 35.5zM482 305z" />
    <glyph glyph-name="uni0AA6_uni0ABC.nukt" horiz-adv-x="956" 
d="M674 1060q-92 24 -175 24q-118 0 -181 -43t-63 -118q0 -70 43.5 -123.5t132.5 -97.5q91 34 199 34q81 0 154 -13l-28 -147q-58 10 -122 10q-132 0 -210.5 -60.5t-78.5 -165.5q0 -115 68.5 -173.5t198.5 -58.5q83 0 127 18q-7 17 -7 47q0 51 31.5 81t85.5 30
q55 0 87.5 -34.5t32.5 -84.5q0 -96 -100 -150.5t-259 -54.5q-197 0 -313.5 104t-116.5 276q0 76 27.5 140t82.5 117q-103 66 -151.5 143.5t-48.5 174.5q0 133 102 216t286 83q51 0 115 -7.5t109 -19.5zM638 0zM559 1234zM374 1234zM494 -156q47 0 80 -35.5t33 -83.5
q0 -49 -33 -84t-80 -35t-80 35.5t-33 83.5t33 83.5t80 35.5zM494 0z" />
    <glyph glyph-name="uni0AA7_uni0ABC.nukt" horiz-adv-x="1241" 
d="M233 727q-143 108 -143 258q0 115 83 201.5t248 137.5l60 -148q-109 -30 -167.5 -80t-58.5 -126q0 -99 97 -159q77 30 179 30q49 0 124 -12l-24 -146q-42 10 -104 10q-91 0 -141.5 -39.5t-50.5 -113.5q0 -82 59.5 -127.5t164.5 -45.5q93 0 169 29.5t155 103.5v734
l164 -22v-901q0 -64 8.5 -91.5t26.5 -43t51 -21.5t91 -6l-16 -149h-21q-114 0 -183 34.5t-95 96t-26 173.5v9q-140 -94 -324 -94q-178 0 -283.5 87t-105.5 229q0 116 63 192zM523 55q47 0 80 -35.5t33 -83.5q0 -49 -33 -84t-80 -35t-80 35.5t-33 83.5t33 83.5t80 35.5z
M523 211z" />
    <glyph glyph-name="uni0AA8_uni0ABC.nukt" horiz-adv-x="1119" 
d="M761 672h-369v-117q0 -57 -28 -87t-77 -30q-48 0 -105 44t-95 109t-38 121q0 108 124 108h588v414l164 -22v-901q0 -64 8.5 -91.5t26.5 -43t51 -21.5t91 -6l-16 -149h-21q-114 0 -183 34.5t-95 96t-26 173.5v368zM396 218q47 0 80 -35.5t33 -83.5q0 -49 -33 -84t-80 -35
t-80 35.5t-33 83.5t33 83.5t80 35.5z" />
    <glyph glyph-name="uni0AAA_uni0ABC.nukt" horiz-adv-x="1163" 
d="M805 407q-119 -78 -264 -78q-103 0 -180.5 40.5t-124 119.5t-46.5 228v184q0 79 -16 109t-49.5 41.5t-111.5 11.5l16 149h21q89 0 146 -19.5t91 -52.5t50.5 -83.5t16.5 -148.5v-176q0 -145 46.5 -200t157.5 -55q62 0 126.5 28t120.5 80v649l164 -22v-901q0 -64 8.5 -91.5
t26.5 -43t51 -21.5t91 -6l-16 -149h-21q-114 0 -183 34.5t-95 96t-26 173.5v103zM417 165q47 0 80 -35.5t33 -83.5q0 -49 -33 -84t-80 -35t-80 35.5t-33 83.5t33 83.5t80 35.5zM417 321z" />
    <glyph glyph-name="uni0AAB_uni0ABC.nukt" horiz-adv-x="1047" 
d="M77 577l285 102q-76 59 -114 126t-38 142q0 128 98 207.5t260 79.5q128 0 238 -27l-30 -149q-68 17 -106.5 21.5t-84.5 4.5q-99 0 -153 -39.5t-54 -112.5q0 -52 37.5 -100t113.5 -92l421 157l66 -144l-330 -114q129 -85 185.5 -167t56.5 -181q0 -138 -103 -224.5
t-294 -86.5h-24q-12 0 -25 1q49 -59 91.5 -91t89 -45.5t120.5 -13.5h48l-18 -154h-32q-142 0 -256 71.5t-232 245.5q-104 13 -154 54.5t-50 100.5q0 45 30.5 72.5t77.5 27.5q55 0 102 -29t92 -83q57 -12 135 -12q113 0 173.5 43.5t60.5 125.5q0 45 -20.5 84.5t-74 88
t-153.5 110.5l-378 -145zM644 1234zM439 1234zM690 -548zM934 580zM1040 749zM303 -275q47 0 80 -35.5t33 -83.5q0 -49 -33 -84t-80 -35t-80 35.5t-33 83.5t33 83.5t80 35.5zM303 -119z" />
    <glyph glyph-name="uni0AAC_uni0ABC.nukt" horiz-adv-x="1504" 
d="M1146 515q-72 -49 -174 -49q-93 0 -150 47q-41 -101 -130 -152.5t-215 -51.5q-174 0 -280.5 114t-106.5 302q0 183 110.5 311.5t330.5 197.5l47 -149q-320 -96 -320 -363q0 -128 60.5 -196.5t161.5 -68.5q77 0 126 34.5t67 94t18 169.5v161l164 -22v-217q39 -63 117 -63
q98 0 174 82v538l164 -22v-901q0 -64 8.5 -91.5t26.5 -43t51 -21.5t91 -6l-16 -149h-21q-114 0 -183 34.5t-95 96t-26 173.5v211zM676 149q47 0 80 -35.5t33 -83.5q0 -49 -33 -84t-80 -35t-80 35.5t-33 83.5t33 83.5t80 35.5zM676 305z" />
    <glyph glyph-name="uni0AAD_uni0ABC.nukt" horiz-adv-x="1656" 
d="M593 211l-114 -111q-208 183 -297 343.5t-89 342.5q0 200 118.5 324t310.5 124q131 0 221 -55.5t133.5 -152.5t43.5 -253v-25h378v486l164 -22v-901q0 -64 8.5 -91.5t26.5 -43t51 -21.5t91 -6l-16 -149h-21q-114 0 -183 34.5t-95 96t-26 173.5v296h-378v-78
q0 -60 -27 -94t-72 -34q-48 0 -107 43.5t-98.5 107t-39.5 113.5q0 43 32 66.5t93 23.5h55v13q0 118 -22.5 184.5t-74 103.5t-136.5 37q-126 0 -195.5 -84t-69.5 -219q0 -147 74.5 -279t260.5 -293zM579 248zM909 159q47 0 80 -35.5t33 -83.5q0 -49 -33 -84t-80 -35t-80 35.5
t-33 83.5t33 83.5t80 35.5zM909 315z" />
    <glyph glyph-name="uni0AAE_uni0ABC.nukt" horiz-adv-x="1218" 
d="M860 500h-428v-78q0 -60 -27 -94t-72 -34q-48 0 -107 43.5t-98.5 107t-39.5 113.5q0 43 32 66.5t93 23.5h55v254q0 79 -16 109t-49.5 41.5t-111.5 11.5l16 149h21q89 0 146 -19.5t91 -52.5t50.5 -83.5t16.5 -148.5v-261h428v586l164 -22v-901q0 -64 8.5 -91.5t26.5 -43
t51 -21.5t91 -6l-16 -149h-21q-114 0 -183 34.5t-95 96t-26 173.5v196zM513 134q47 0 80 -35.5t33 -83.5q0 -49 -33 -84t-80 -35t-80 35.5t-33 83.5t33 83.5t80 35.5zM513 290z" />
    <glyph glyph-name="uni0AAF_uni0ABC.nukt" horiz-adv-x="1217" 
d="M859 425q-77 -55 -148.5 -75.5t-154.5 -20.5q-165 0 -283.5 89t-183.5 265q268 75 268 241q0 75 -50.5 119.5t-136.5 44.5q-55 0 -104 -11l-37 140q78 17 152 17q160 0 250.5 -83t90.5 -225q0 -205 -223 -313q36 -64 103 -100t148 -36q178 0 309 134v623l164 -22v-901
q0 -64 8.5 -91.5t26.5 -43t51 -21.5t91 -6l-16 -149h-21q-114 0 -183 34.5t-95 96t-26 173.5v121zM119 535zM448 165q47 0 80 -35.5t33 -83.5q0 -49 -33 -84t-80 -35t-80 35.5t-33 83.5t33 83.5t80 35.5zM448 321z" />
    <glyph glyph-name="uni0AB0_uni0ABC.nukt" horiz-adv-x="912" 
d="M843 0q-153 0 -279 87.5t-261 307.5q-29 -2 -55 -2q-94 0 -141 29t-47 95q0 47 34.5 75.5t89.5 28.5q51 0 89.5 -15.5t75.5 -42.5q139 31 215.5 105.5t76.5 179.5q0 113 -67 174.5t-187 61.5q-74 0 -138 -14.5t-137 -48.5l-52 141q169 72 331 72q197 0 308 -102t111 -286
q0 -144 -93.5 -255t-257.5 -165q79 -111 138.5 -168t117 -80.5t137.5 -23.5h41l-18 -154h-32zM522 0zM520 1234zM456 0zM350 1234zM748 541zM407 -8q47 0 80 -35.5t33 -83.5q0 -49 -33 -84t-80 -35t-80 35.5t-33 83.5t33 83.5t80 35.5zM407 148z" />
    <glyph glyph-name="uni0AB2_uni0ABC.nukt" horiz-adv-x="1334" 
d="M842 271q-115 -55 -270 -55q-221 0 -351.5 130.5t-130.5 352.5q0 198 136 339t386 196l41 -152q-201 -42 -298 -140t-97 -261q0 -149 83 -232t224 -83q122 0 214 42zM976 720l-476 -98l-38 151l514 103v358l164 -22v-901q0 -64 8.5 -91.5t26.5 -43t51 -21.5t91 -6
l-16 -149h-21q-114 0 -183 34.5t-95 96t-26 173.5v416zM543 55q47 0 80 -35.5t33 -83.5q0 -49 -33 -84t-80 -35t-80 35.5t-33 83.5t33 83.5t80 35.5zM543 211z" />
    <glyph glyph-name="uni0AB3_uni0ABC.nukt" horiz-adv-x="1536" 
d="M1178 813q0 88 -10 140t-46.5 83t-90.5 31q-56 0 -92 -31t-46.5 -80t-10.5 -142v-47q0 -120 -15.5 -201.5t-60 -143.5t-121 -97.5t-189.5 -35.5q-182 0 -294 117.5t-112 317.5q0 179 111 309.5t330 200.5l47 -149q-156 -51 -238 -141.5t-82 -226.5t62.5 -208.5
t173.5 -72.5q62 0 103.5 17.5t68.5 49.5t39.5 80.5t12.5 146.5v107q0 146 33.5 217t104.5 114.5t175 43.5q100 0 169 -41t105.5 -110.5t36.5 -195.5v-554q0 -64 8.5 -91.5t26.5 -43t51 -21.5t91 -6l-16 -149h-21q-114 0 -183 34.5t-95 96t-26 173.5v509zM1043 1234zM620 134
q47 0 80 -35.5t33 -83.5q0 -49 -33 -84t-80 -35t-80 35.5t-33 83.5t33 83.5t80 35.5zM620 290z" />
    <glyph glyph-name="uni0AB5_uni0ABC.nukt" horiz-adv-x="1183" 
d="M825 423q-78 -52 -154.5 -73t-170.5 -21q-180 0 -295 105t-115 272q0 183 123 291t326 108q43 0 100.5 -6.5t96.5 -16.5l-27 -145q-89 18 -164 18q-138 0 -214 -64.5t-76 -181.5q0 -109 65 -170.5t177 -61.5q96 0 171 29.5t157 106.5v621l164 -22v-901q0 -64 8.5 -91.5
t26.5 -43t51 -21.5t91 -6l-16 -149h-21q-114 0 -183 34.5t-95 96t-26 173.5v119zM458 165q47 0 80 -35.5t33 -83.5q0 -49 -33 -84t-80 -35t-80 35.5t-33 83.5t33 83.5t80 35.5zM458 321z" />
    <glyph glyph-name="uni0AB6_uni0ABC.nukt" horiz-adv-x="1387" 
d="M475 680q-173 41 -256.5 116t-83.5 196q0 103 81.5 172.5t221.5 69.5q104 0 191.5 -46t135.5 -134t48 -208q0 -149 -94.5 -266t-257.5 -171q110 -156 178.5 -205.5t175.5 -49.5h27l-18 -154h-32q-132 0 -247.5 88t-240.5 289q-30 -2 -60 -2q-181 0 -181 124
q0 47 34.5 75.5t89.5 28.5q92 0 169 -61q146 35 219 113.5t73 199.5q0 113 -59.5 173.5t-154.5 60.5q-67 0 -103.5 -29.5t-36.5 -72.5q0 -71 63 -109.5t172 -60.5zM1029 1234l164 -22v-901q0 -64 8.5 -91.5t26.5 -43t51 -21.5t91 -6l-16 -149h-21q-114 0 -183 34.5t-95 96
t-26 173.5v930zM447 557zM363 828zM397 -8q47 0 80 -35.5t33 -83.5q0 -49 -33 -84t-80 -35t-80 35.5t-33 83.5t33 83.5t80 35.5zM397 148z" />
    <glyph glyph-name="uni0AB7_uni0ABC.nukt" horiz-adv-x="1183" 
d="M825 421q-127 -92 -284 -92q-103 0 -180.5 40.5t-124 119.5t-46.5 228v212q0 62 -16 88t-49 36t-112 10l16 149h21q152 0 226 -62l421 -311q54 -40 128 -102v497l164 -22v-901q0 -64 8.5 -91.5t26.5 -43t51 -21.5t91 -6l-16 -149h-21q-114 0 -183 34.5t-95 96t-26 173.5
v117zM354 732q0 -145 46.5 -200t157.5 -55q134 0 260 109l-260 193q-130 97 -213 169q9 -51 9 -144v-72zM857 438zM416 165q47 0 80 -35.5t33 -83.5q0 -49 -33 -84t-80 -35t-80 35.5t-33 83.5t33 83.5t80 35.5zM416 321z" />
    <glyph glyph-name="uni0AB8_uni0ABC.nukt" horiz-adv-x="1457" 
d="M1099 668q-86 -53 -208 -53q-91 0 -162 26q-44 -74 -111 -127t-158 -85q81 -114 141 -171.5t118.5 -80.5t135.5 -23h41l-18 -154h-32q-154 0 -281 88.5t-259 307.5q-31 -3 -62 -3q-89 0 -135 29t-46 95q0 47 34.5 75.5t89.5 28.5q90 0 163 -56q131 35 197.5 107.5
t66.5 175.5q0 113 -63 174.5t-177 61.5q-72 0 -132.5 -15t-126.5 -48l-52 141q161 72 318 72q188 0 295 -101.5t107 -286.5q0 -34 -5 -64q47 -18 107 -18q131 0 214 85v385l164 -22v-901q0 -64 8.5 -91.5t26.5 -43t51 -21.5t91 -6l-16 -149h-21q-114 0 -183 34.5t-95 96
t-26 173.5v364zM563 541zM397 -8q47 0 80 -35.5t33 -83.5q0 -49 -33 -84t-80 -35t-80 35.5t-33 83.5t33 83.5t80 35.5zM397 148z" />
    <glyph glyph-name="uni0AB9_uni0ABC.nukt" horiz-adv-x="1296" 
d="M527 680q141 -203 340 -203q150 0 150 104q0 60 -42 94t-153 74q-135 48 -198.5 111t-63.5 150q0 106 82.5 165t231.5 59q97 0 203 -23l-31 -148q-92 25 -197 25q-127 0 -127 -76q0 -39 38.5 -65.5t131.5 -59.5q153 -55 221 -124.5t68 -178.5q0 -121 -84.5 -188
t-231.5 -67q-286 0 -478 266zM337 895q-74 -145 -74 -303q0 -214 143 -338t397 -124q238 0 418 84l66 -147q-127 -47 -231 -67t-252 -20q-227 0 -386.5 78t-241 221t-81.5 326q0 187 87 358zM884 1234zM699 1234zM742 0zM648 -156q47 0 80 -35.5t33 -83.5q0 -49 -33 -84
t-80 -35t-80 35.5t-33 83.5t33 83.5t80 35.5zM648 0z" />
    <glyph glyph-name="uni0A95_uni0ACD_uni0AB7.akhn" horiz-adv-x="1469" 
d="M1111 622q-65 -29 -150.5 -45.5t-174.5 -16.5q-182 0 -327 63q-114 -64 -155 -113.5t-41 -114.5q0 -78 62 -123t180 -45q51 0 87 14q-8 21 -8 47q0 51 31.5 81t85.5 30q55 0 87.5 -34.5t32.5 -84.5q0 -56 -41 -104q28 -63 72 -90.5t117 -27.5h17l-17 -147h-28
q-194 0 -295 187q-69 -19 -148 -19q-182 0 -292.5 87t-110.5 222q0 95 54 168.5t178 142.5q-84 48 -130.5 119t-46.5 152q0 118 86.5 191t233.5 73q140 0 227.5 -65.5t87.5 -176.5q0 -75 -41 -140t-134 -130q58 -14 155 -14q206 0 346 83v443l164 -22v-901q0 -64 8.5 -91.5
t26.5 -43t51 -21.5t91 -6l-16 -149h-21q-114 0 -183 34.5t-95 96t-26 173.5v318zM464 778q78 43 117.5 91t39.5 101q0 56 -39.5 89t-111.5 33q-76 0 -116.5 -33.5t-40.5 -94.5q0 -54 40 -103t111 -83z" />
    <glyph glyph-name="uni0A9C_uni0ACD_uni0A9E.akhn" horiz-adv-x="1413" 
d="M1055 839q-37 -7 -98 -7q-160 0 -309 96q-81 51 -131 73.5t-103 22.5q-66 0 -102 -32.5t-36 -88.5q0 -64 54.5 -100t184.5 -60q167 -31 245 -103t78 -193q0 -142 -100.5 -219.5t-286.5 -85.5q33 -32 66.5 -48.5t68 -22.5t108.5 -6h27l-18 -154h-32q-128 0 -226.5 56.5
t-186.5 183.5q-185 28 -185 143q0 42 29.5 71t78.5 29q54 0 99.5 -26.5t89.5 -78.5q27 -4 61 -4q117 0 179 38t62 107q0 50 -23 81t-65 49t-132 36q-177 33 -260.5 110t-83.5 202q0 117 83 190.5t225 73.5q50 0 94 -9t85 -27t107 -60q65 -42 97.5 -58.5t73.5 -27t87 -10.5
q53 0 95 12v242l164 -22v-901q0 -64 8.5 -91.5t26.5 -43t51 -21.5t91 -6l-16 -149h-21q-114 0 -183 34.5t-95 96t-26 173.5v535z" />
    <glyph glyph-name="uni0AB0_uni0ACD.rphf" 
d="M-379 1295q-75 131 -75 250q0 138 85.5 214.5t230.5 76.5q119 0 218 -51l-45 -135q-80 44 -157 44q-80 0 -124.5 -44.5t-44.5 -121.5q0 -89 71 -216zM-358 1234z" />
    <glyph glyph-name="uni0AB0_uni0ACD.blwf" 
d="M-415 -183l-442 -290l-97 135l530 314h59l299 -369l-121 -79zM-510 0zM-518 -548z" />
    <glyph glyph-name="uni0A95_uni0ACD.half" horiz-adv-x="1047" 
d="M776 1058q-68 17 -106.5 21.5t-84.5 4.5q-99 0 -153 -39.5t-54 -112.5q0 -52 38 -100t114 -93h574v-145h-225q-99 0 -157 9q108 -70 157 -143.5t49 -168.5q0 -138 -103 -224.5t-294 -86.5q-277 0 -494 169l92 128q185 -147 392 -147q239 0 239 164q0 45 -20.5 84.5
t-74 88t-153.5 110.5l-378 -145l-57 145l285 102q-76 59 -114 126t-38 142q0 128 98 207.5t260 79.5q128 0 238 -27zM54 580z" />
    <glyph glyph-name="uni0A96_uni0ACD.half" horiz-adv-x="1148" 
d="M13 1063l16 149h21q89 0 146 -19.5t91 -52.5t50.5 -83.5t16.5 -148.5v-189q0 -107 21.5 -153.5t61.5 -67.5t100 -21q64 0 103.5 26.5t57 72.5t17.5 143v267l164 -22v-217q39 -63 117 -63q82 0 145 54l58 -138q-54 -37 -97.5 -50.5t-105.5 -13.5q-80 0 -133 35
q-32 -116 -117.5 -179t-210.5 -63q-124 0 -198.5 47.5t-110.5 125t-36 217.5v182q0 79 -16 109t-49.5 41.5t-111.5 11.5zM1170 1234z" />
    <glyph glyph-name="uni0A97_uni0ACD.half" horiz-adv-x="839" 
d="M430 364q-123 0 -223.5 64t-184.5 192l130 89q65 -101 127 -148t143 -47q92 0 141.5 69.5t49.5 203.5q0 149 -57.5 224t-171.5 75t-222 -56l-52 138q59 30 135.5 48t148.5 18q183 0 283.5 -115.5t100.5 -334.5q0 -208 -89 -314t-259 -106z" />
    <glyph glyph-name="uni0A98_uni0ACD.half" horiz-adv-x="899" 
d="M976 370q-99 -81 -198 -116t-216 -35q-180 0 -286 87t-106 229q0 114 62 191q-142 104 -142 252q0 112 92 184t249 72q101 0 191 -22l-28 -145q-84 19 -145 19q-95 0 -144.5 -32t-49.5 -92q0 -93 98 -151q77 30 178 30q49 0 124 -12l-24 -146q-42 10 -104 10
q-91 0 -141.5 -39.5t-50.5 -113.5q0 -82 60 -127.5t166 -45.5q96 0 174 32t162 107z" />
    <glyph glyph-name="uni0A99_uni0ACD.half" horiz-adv-x="1004" 
d="M770 1066q-80 20 -187 20q-88 0 -138.5 -35t-50.5 -98q0 -42 18.5 -72t57.5 -60.5t145 -95.5q176 -108 241 -196t65 -215q0 -151 -105.5 -242.5t-283.5 -91.5q-152 0 -278.5 76t-234.5 241l143 87q85 -130 172 -192t201 -62q102 0 160 47.5t58 130.5q0 87 -53.5 148
t-206.5 151q-143 85 -203.5 162.5t-60.5 186.5q0 125 96.5 201.5t260.5 76.5q123 0 214 -23zM818 983q50 0 84 -32.5t34 -82.5t-34.5 -83t-83.5 -33t-83.5 33t-34.5 83t34 82.5t84 32.5zM632 1234zM447 1234zM585 0zM502 0zM485 577zM42 236zM272 -106q78 24 165 24
q154 0 290.5 -91.5t269.5 -292.5l-125 -81q-118 173 -213.5 243.5t-221.5 70.5q-65 0 -117 -19zM298 0zM982 -407z" />
    <glyph glyph-name="uni0A9A_uni0ACD.half" horiz-adv-x="961" 
d="M1046 405q-104 -80 -188 -108.5t-191 -28.5q-133 0 -232.5 54t-166.5 163h-28q-84 0 -126.5 30.5t-42.5 85.5q0 106 113 106q93 0 164 -71q96 30 152.5 96t56.5 148q0 99 -57 152.5t-177 53.5q-47 0 -104 -13t-100 -32l-55 139q54 24 125 39t140 15q187 0 289.5 -94
t102.5 -263q0 -120 -77.5 -217t-209.5 -143q42 -51 98.5 -76t128.5 -25q87 0 158.5 27.5t143.5 94.5z" />
    <glyph glyph-name="uni0A9B_uni0ACD.half" horiz-adv-x="1512" 
d="M673 584q-29 2 -59 2q-122 0 -195.5 -59t-73.5 -165q0 -232 303 -232q183 0 323.5 88t218.5 240.5t78 304.5q0 158 -48 240.5t-140 82.5q-68 0 -107.5 -41.5t-39.5 -100.5q0 -107 72.5 -165t215.5 -86l-51 -147q-399 106 -399 389q0 132 80.5 215.5t218.5 83.5
q166 0 266 -122t100 -349q0 -194 -96.5 -379.5t-275.5 -294.5t-412 -109q-224 0 -348 103t-124 277q0 155 104 258q-99 66 -146.5 146t-47.5 181q0 125 92.5 207t248.5 82q101 0 191 -22l-28 -147q-84 19 -145 19q-92 0 -143 -40.5t-51 -110.5q0 -77 42.5 -131t127.5 -97
q84 31 187 31q25 0 80 -4zM772 0zM1075 1234zM711 0zM890 1234zM490 -106q78 24 165 24q154 0 290.5 -91.5t269.5 -292.5l-125 -81q-118 173 -213.5 243.5t-221.5 70.5q-65 0 -117 -19zM516 0zM1200 -407z" />
    <glyph glyph-name="uni0A9C_uni0ACD.half" horiz-adv-x="1705" 
d="M1315 851q118 25 249 25h181v-148h-168q-103 0 -172 -11q58 -91 87.5 -183.5t29.5 -186.5q0 -173 -95 -270t-260 -97q-175 0 -268 99t-93 262q0 151 89 267.5t263 190.5q-92 105 -201 172t-234 96q51 -93 51 -209q0 -88 -43.5 -164.5t-125 -118.5t-191.5 -42
q-159 0 -253 93t-94 245q0 158 123 260.5t335 102.5q236 0 433.5 -96t356.5 -287zM547 1090q-10 0 -20 1h-20q-132 0 -203.5 -60.5t-71.5 -163.5q0 -86 49 -135t133 -49q93 0 145 50.5t52 131.5q0 130 -64 225zM1252 681q-136 -47 -207 -134.5t-71 -204.5q0 -214 190 -214
q94 0 142 56t48 164q0 89 -25.5 172t-76.5 161z" />
    <glyph glyph-name="uni0A9D_uni0ACD.half" horiz-adv-x="1292" 
d="M799 652q16 -85 16 -176q0 -244 -98 -370t-277 -126q-137 0 -238 65.5t-180 190.5l129 88q80 -119 141 -156.5t144 -37.5q103 0 157 88.5t54 262.5q0 183 -65.5 280t-195.5 97q-64 0 -114 -12t-113 -43l-52 139q64 30 143 47.5t150 17.5q121 0 208.5 -52.5t141.5 -156.5
q86 40 183 45v391l164 -22v-381q64 -15 118 -55.5t98 -107.5l-139 -83q-46 57 -91 85t-114 28q-97 0 -170 -46z" />
    <glyph glyph-name="uni0A9E_uni0ACD.half" horiz-adv-x="1008" 
d="M1083 732q-50 -27 -97.5 -40t-130.5 -13q-51 0 -87 7q-20 -161 -105 -241.5t-236 -80.5q-236 0 -405 256l130 89q65 -101 127 -148t143 -47q92 0 141.5 69.5t49.5 203.5q0 149 -57.5 224t-170.5 75q-114 0 -223 -56l-52 138q59 30 135.5 48t148.5 18q168 0 267 -101
t111 -295q32 -10 80 -10q100 0 177 48z" />
    <glyph glyph-name="uni0A9F_uni0ACD.half" horiz-adv-x="923" 
d="M848 233l76 -145q-114 -60 -210 -84t-211 -24q-183 0 -298 100t-115 251q0 73 27 135.5t91 123.5t206 139q116 62 164.5 94.5t69.5 63t21 70.5q0 64 -44.5 96.5t-128.5 32.5q-79 0 -137.5 -14t-110.5 -40l-52 138q148 64 304 64q160 0 247 -74t87 -200q0 -73 -29 -130.5
t-83.5 -101t-156.5 -98.5q-120 -65 -185 -110t-93.5 -92.5t-28.5 -111.5q0 -83 67.5 -134.5t181.5 -51.5q92 0 173.5 24.5t167.5 78.5zM568 1234zM383 1234zM549 0zM461 0zM286 -106q78 24 165 24q154 0 290.5 -91.5t269.5 -292.5l-125 -81q-118 173 -213.5 243.5
t-221.5 70.5q-65 0 -117 -19zM312 0zM996 -407z" />
    <glyph glyph-name="uni0AA0_uni0ACD.half" horiz-adv-x="1059" 
d="M818 1064q-81 22 -196 22q-79 0 -120 -26.5t-41 -74.5t41.5 -88.5t169.5 -117.5q180 -110 251 -210.5t71 -231.5q0 -164 -120.5 -260.5t-331.5 -96.5q-214 0 -333 102.5t-119 276.5q0 139 96.5 239.5t274.5 138.5q-83 56 -124 119t-41 133q0 108 86 176.5t236 68.5
q133 0 230 -23zM626 627h-13q-157 0 -256 -74t-99 -199q0 -108 73 -167t208 -59t211 55t76 159q0 90 -45.5 153t-154.5 132zM679 1234zM611 0zM529 0zM494 1234zM339 -106q78 24 165 24q154 0 290.5 -91.5t269.5 -292.5l-125 -81q-118 173 -213.5 243.5t-221.5 70.5
q-65 0 -117 -19zM365 0zM1049 -407z" />
    <glyph glyph-name="uni0AA1_uni0ACD.half" horiz-adv-x="986" 
d="M770 1064q-77 22 -176 22q-95 0 -147.5 -34.5t-52.5 -98.5q0 -53 37 -96.5t184 -131.5q133 -82 194 -143t86.5 -126t25.5 -150q0 -145 -107 -235.5t-282 -90.5q-156 0 -280 74.5t-233 242.5l143 87q85 -130 172 -192t201 -62q99 0 158.5 46t59.5 126q0 86 -54 150.5
t-206 154.5q-143 85 -203.5 162.5t-60.5 186.5q0 122 95.5 200t251.5 78q134 0 224 -23zM585 0zM632 1234zM493 0zM447 1234zM583 577zM110 236zM272 -106q78 24 165 24q154 0 290.5 -91.5t269.5 -292.5l-125 -81q-118 173 -213.5 243.5t-221.5 70.5q-65 0 -117 -19zM298 0z
M982 -407z" />
    <glyph glyph-name="uni0AA2_uni0ACD.half" horiz-adv-x="1056" 
d="M473 129q-33 82 -33 160q0 119 81 190t211 71q131 0 207.5 -72t76.5 -197q0 -135 -116.5 -218t-329.5 -83q-230 0 -355 101.5t-125 271.5q0 92 35.5 160t101.5 120.5t193 117.5q117 59 164 88.5t68 59t21 68.5q0 55 -43.5 87t-117.5 32q-87 0 -146 -13.5t-113 -40.5
l-52 138q147 64 305 64q155 0 243.5 -72t88.5 -192q0 -101 -67 -180t-244 -160q-165 -76 -218.5 -136.5t-53.5 -142.5q0 -92 55.5 -149t162.5 -73zM620 122q116 5 178.5 46.5t62.5 114.5q0 58 -31.5 91.5t-90.5 33.5q-69 0 -109 -40t-40 -109q0 -75 30 -137zM614 0z
M602 1234zM528 0zM437 1234zM630 128zM417 778zM353 -106q78 24 165 24q154 0 290.5 -91.5t269.5 -292.5l-125 -81q-118 173 -213.5 243.5t-221.5 70.5q-65 0 -117 -19zM379 0zM1063 -407z" />
    <glyph glyph-name="uni0AA3_uni0ACD.half" horiz-adv-x="1197" 
d="M568 727q64 -81 122 -115.5t122 -34.5q82 0 121 61.5t39 189.5q0 131 -49.5 196t-144.5 65q-111 0 -196 -47l-51 134q117 58 258 58q161 0 254 -107.5t93 -298.5q0 -197 -81 -297.5t-239 -100.5q-99 0 -196.5 53.5t-174.5 151.5zM153 1234l164 -22v-575q0 -108 5 -145
t26.5 -66.5t82.5 -65t220 -102.5q139 -59 205 -109.5t88.5 -98.5t22.5 -112q0 -112 -97 -229l-133 93q27 31 42 61.5t15 64.5q0 42 -22 74t-80.5 66t-168.5 80q-152 62 -222 104.5t-100 85t-39 88t-9 140.5v668zM779 -548zM390 177z" />
    <glyph glyph-name="uni0AA4_uni0ACD.half" horiz-adv-x="753" 
d="M815 738h-239q-126 0 -186.5 -15.5t-96.5 -57.5t-36 -107q0 -92 69.5 -193t216.5 -231l-111 -110q-189 168 -266 294.5t-77 252.5q0 86 44 158t136.5 114.5t280.5 42.5h265v-148zM473 172zM712 1234z" />
    <glyph glyph-name="uni0AA5_uni0ACD.half" horiz-adv-x="879" 
d="M954 432q-92 -71 -184.5 -102t-206.5 -31q-345 0 -477 354q207 56 310.5 136t103.5 187q0 56 -34.5 88t-91.5 32q-58 0 -92 -25.5t-34 -68.5q0 -42 22 -69.5t70 -51.5l-95 -111q-155 86 -155 236q0 99 77 163.5t206 64.5q136 0 211.5 -74.5t75.5 -188.5
q0 -129 -87.5 -226.5t-269.5 -172.5q81 -125 252 -125q96 0 176.5 28t157.5 94zM240 918zM209 505z" />
    <glyph glyph-name="uni0AA6_uni0ACD.half" horiz-adv-x="956" 
d="M674 1060q-92 24 -175 24q-118 0 -181 -43t-63 -118q0 -70 43.5 -123.5t132.5 -97.5q91 34 199 34q81 0 154 -13l-28 -147q-58 10 -122 10q-132 0 -210.5 -60.5t-78.5 -165.5q0 -115 68.5 -173.5t198.5 -58.5q83 0 127 18q-7 17 -7 47q0 51 31.5 81t85.5 30
q55 0 87.5 -34.5t32.5 -84.5q0 -96 -100 -150.5t-259 -54.5q-197 0 -313.5 104t-116.5 276q0 76 27.5 140t82.5 117q-103 66 -151.5 143.5t-48.5 174.5q0 133 102 216t286 83q51 0 115 -7.5t109 -19.5zM638 0zM559 1234zM374 1234zM346 -106q78 24 165 24q154 0 290.5 -91.5
t269.5 -292.5l-125 -81q-118 173 -213.5 243.5t-221.5 70.5q-65 0 -117 -19zM372 0zM1056 -407z" />
    <glyph glyph-name="uni0AA7_uni0ACD.half" horiz-adv-x="869" 
d="M944 360q-85 -75 -177.5 -108t-207.5 -33q-178 0 -283.5 87t-105.5 229q0 116 63 192q-143 108 -143 258q0 115 83 201.5t248 137.5l60 -148q-109 -30 -167.5 -80t-58.5 -126q0 -99 97 -159q77 30 179 30q49 0 124 -12l-24 -146q-42 10 -104 10q-91 0 -141.5 -39.5
t-50.5 -113.5q0 -82 59.5 -127.5t164.5 -45.5q87 0 159 28t149 99zM709 1234z" />
    <glyph glyph-name="uni0AA8_uni0ACD.half" horiz-adv-x="721" 
d="M761 672h-369v-117q0 -57 -28 -87t-77 -30q-48 0 -105 44t-95 109t-38 121q0 108 124 108h588v-148zM690 1234z" />
    <glyph glyph-name="uni0AAA_uni0ACD.half" horiz-adv-x="795" 
d="M834 421q-73 -50 -142 -71t-151 -21q-103 0 -180.5 40.5t-124 119.5t-46.5 228v184q0 79 -16 109t-49.5 41.5t-111.5 11.5l16 149h21q89 0 146 -19.5t91 -52.5t50.5 -83.5t16.5 -148.5v-176q0 -145 46.5 -200t157.5 -55t217 82zM335 1234z" />
    <glyph glyph-name="uni0AAB_uni0ACD.half" horiz-adv-x="1047" 
d="M526 125q113 0 173.5 43.5t60.5 125.5q0 45 -20.5 84.5t-74 88t-153.5 110.5l-378 -145l-57 145l285 102q-76 59 -114 126t-38 142q0 128 98 207.5t260 79.5q128 0 238 -27l-30 -149q-68 17 -106.5 21.5t-84.5 4.5q-99 0 -153 -39.5t-54 -112.5q0 -52 38 -100t114 -93
h574v-145h-234q-88 0 -128 5q98 -73 142 -146.5t44 -161.5q0 -138 -103 -224.5t-294 -86.5h-24q-12 0 -25 1q49 -59 91.5 -91t89 -45.5t120.5 -13.5h48l-18 -154h-32q-142 0 -256 71.5t-232 245.5q-104 13 -154 54.5t-50 100.5q0 45 30.5 72.5t77.5 27.5q55 0 102 -29
t92 -83q57 -12 135 -12zM701 -548zM183 580z" />
    <glyph glyph-name="uni0AAC_uni0ACD.half" horiz-adv-x="1124" 
d="M1175 530q-54 -37 -97.5 -50.5t-105.5 -13.5q-93 0 -150 47q-41 -101 -130 -152.5t-215 -51.5q-174 0 -280.5 114t-106.5 302q0 183 110.5 311.5t330.5 197.5l47 -149q-320 -96 -320 -363q0 -129 60.5 -197t161.5 -68q77 0 126 34.5t67 94t18 169.5v161l164 -22v-217
q39 -63 117 -63q82 0 145 54z" />
    <glyph glyph-name="uni0AAD_uni0ACD.half" horiz-adv-x="1268" 
d="M1298 600h-378v-78q0 -60 -27 -94t-72 -34q-48 0 -107 43.5t-98.5 107t-39.5 113.5q0 43 32 66.5t93 23.5h55v13q0 118 -22.5 184.5t-74 103.5t-136.5 37q-126 0 -195.5 -84t-69.5 -219q0 -147 74.5 -279t260.5 -293l-114 -111q-208 183 -297 343.5t-89 342.5
q0 200 118.5 324t310.5 124q131 0 221 -55.5t133.5 -152.5t43.5 -253v-25h378v-148zM543 248z" />
    <glyph glyph-name="uni0AAE_uni0ACD.half" horiz-adv-x="830" 
d="M860 500h-428v-78q0 -60 -27 -94t-72 -34q-48 0 -107 43.5t-98.5 107t-39.5 113.5q0 43 32 66.5t93 23.5h55v254q0 79 -16 109t-49.5 41.5t-111.5 11.5l16 149h21q89 0 146 -19.5t91 -52.5t50.5 -83.5t16.5 -148.5v-261h428v-148zM408 1234z" />
    <glyph glyph-name="uni0AAF_uni0ACD.half" horiz-adv-x="847" 
d="M905 450q-92 -69 -171.5 -95t-177.5 -26q-165 0 -283.5 89t-183.5 265q268 75 268 241q0 75 -50.5 119.5t-136.5 44.5q-55 0 -104 -11l-37 140q78 17 152 17q160 0 250.5 -83t90.5 -225q0 -205 -223 -313q36 -64 103 -100t148 -36q76 0 142.5 24t136.5 81zM110 535z" />
    <glyph glyph-name="uni0AB0_uni0ACD.half" horiz-adv-x="912" 
d="M843 0q-153 0 -279 87.5t-261 307.5q-29 -2 -55 -2q-94 0 -141 29t-47 95q0 47 34.5 75.5t89.5 28.5q51 0 89.5 -15.5t75.5 -42.5q139 31 215.5 105.5t76.5 179.5q0 113 -67 174.5t-187 61.5q-74 0 -138 -14.5t-137 -48.5l-52 141q169 72 331 72q197 0 308 -102t111 -286
q0 -144 -93.5 -255t-257.5 -165q79 -111 138.5 -168t117 -80.5t137.5 -23.5h41l-18 -154h-32zM522 0zM520 1234zM456 0zM350 1234zM748 541zM358 -106q78 24 165 24q154 0 290.5 -91.5t269.5 -292.5l-125 -81q-118 173 -213.5 243.5t-221.5 70.5q-65 0 -117 -19zM384 0z
M1068 -407z" />
    <glyph glyph-name="uni0AB2_uni0ACD.half" horiz-adv-x="948" 
d="M842 271q-115 -55 -270 -55q-221 0 -351.5 130.5t-130.5 352.5q0 198 136 339t386 196l41 -152q-201 -42 -298 -140t-97 -261q0 -149 83 -232t224 -83q122 0 214 42zM993 722l-493 -100l-38 151l501 100z" />
    <glyph glyph-name="uni0AB3_uni0ACD.half" horiz-adv-x="1109" 
d="M1110 943q-42 17 -86 17q-75 0 -108.5 -50.5t-33.5 -155.5v-11q0 -111 -17.5 -189.5t-63 -138t-120.5 -93t-185 -33.5q-182 0 -294 117.5t-112 317.5q0 179 111 309.5t330 200.5l47 -149q-156 -51 -238 -141.5t-82 -226.5t62.5 -208.5t173.5 -72.5q62 0 103.5 17.5
t68.5 49.5t39.5 80.5t12.5 146.5v32q0 123 32 190t99.5 110t170.5 43q65 0 131 -22z" />
    <glyph glyph-name="uni0AB5_uni0ACD.half" horiz-adv-x="845" 
d="M893 477q-107 -86 -196 -117t-197 -31q-180 0 -295 105t-115 272q0 183 123 291t326 108q43 0 100.5 -6.5t96.5 -16.5l-27 -145q-89 18 -164 18q-138 0 -214 -64.5t-76 -181.5q0 -109 65 -170.5t177 -61.5q81 0 149.5 23.5t163.5 104.5zM792 1234z" />
    <glyph glyph-name="uni0AB6_uni0ACD.half" horiz-adv-x="892" 
d="M475 680q-173 41 -256.5 116t-83.5 196q0 103 81.5 172.5t221.5 69.5q104 0 191.5 -46t135.5 -134t48 -208q0 -149 -94.5 -266t-257.5 -171q110 -156 178.5 -205.5t175.5 -49.5h27l-18 -154h-32q-132 0 -247.5 88t-240.5 289q-30 -2 -60 -2q-181 0 -181 124
q0 47 34.5 75.5t89.5 28.5q92 0 169 -61q146 35 219 113.5t73 199.5q0 113 -59.5 173.5t-154.5 60.5q-67 0 -103.5 -29.5t-36.5 -72.5q0 -71 63 -109.5t172 -60.5zM458 557zM380 828z" />
    <glyph glyph-name="uni0AB7_uni0ACD.half" horiz-adv-x="878" 
d="M919 481q-103 -84 -187 -118t-191 -34q-103 0 -180.5 40.5t-124 119.5t-46.5 228v212q0 62 -16 88t-49 36t-112 10l16 149h21q152 0 226 -62l421 -311q111 -82 222 -187v-171zM354 732q0 -145 46.5 -200t157.5 -55q134 0 260 109l-260 193q-130 97 -213 169q9 -51 9 -144
v-72zM361 1234zM897 438zM895 734z" />
    <glyph glyph-name="uni0AB8_uni0ACD.half" horiz-adv-x="1084" 
d="M1123 675q-94 -60 -232 -60q-91 0 -162 26q-44 -74 -111 -127t-158 -85q81 -114 141 -171.5t118.5 -80.5t135.5 -23h41l-18 -154h-32q-154 0 -281 88.5t-259 307.5q-31 -3 -62 -3q-89 0 -135 29t-46 95q0 47 34.5 75.5t89.5 28.5q90 0 163 -56q131 35 197.5 107.5
t66.5 175.5q0 113 -63 174.5t-177 61.5q-72 0 -132.5 -15t-126.5 -48l-52 141q161 72 318 72q188 0 295 -101.5t107 -286.5q0 -34 -5 -64q47 -18 107 -18q114 0 190 63zM536 541z" />
    <glyph glyph-name="uni0AB9_uni0ACD.half" horiz-adv-x="985" 
d="M763 1062q-83 22 -169 22q-106 0 -162.5 -42t-56.5 -119q0 -98 88 -166q101 32 218 32q105 0 193 -15t185 -53l-58 -147q-91 39 -163 53t-165 14q-185 0 -292.5 -98t-107.5 -259q0 -140 79.5 -244.5t246.5 -178.5l-85 -134q-198 91 -303.5 238.5t-105.5 325.5
q0 125 54.5 228t157.5 170q-107 103 -107 246q0 132 99.5 215.5t276.5 83.5q115 0 207 -25zM516 -548z" />
    <glyph glyph-name="uni0A95_uni0ACD_uni0AB7.akhn_uni0ACD.half" horiz-adv-x="990" 
d="M464 778q157 87 157 192q0 56 -39.5 89t-111.5 33q-76 0 -116.5 -33.5t-40.5 -94.5q0 -54 40 -103t111 -83zM1056 602q-131 -42 -270 -42q-182 0 -327 63q-114 -64 -155 -113.5t-41 -114.5q0 -78 62 -123t180 -45q51 0 87 14q-8 21 -8 47q0 51 31.5 81t85.5 30
q55 0 87.5 -34.5t32.5 -84.5q0 -56 -41 -104q28 -63 72 -90.5t117 -27.5h17l-17 -147h-28q-194 0 -295 187q-69 -19 -148 -19q-182 0 -292.5 87t-110.5 222q0 95 54 168.5t178 142.5q-84 48 -130.5 119t-46.5 152q0 118 86.5 191t233.5 73q140 0 227.5 -65.5t87.5 -176.5
q0 -75 -41 -140t-134 -130q58 -14 155 -14q146 0 246 37z" />
    <glyph glyph-name="uni0A9C_uni0ACD_uni0A9E.akhn_uni0ACD.half" horiz-adv-x="986" 
d="M1055 839q-37 -7 -98 -7q-160 0 -309 96q-81 51 -131 73.5t-103 22.5q-66 0 -102 -32.5t-36 -88.5q0 -64 54.5 -100t184.5 -60q167 -31 245 -103t78 -193q0 -142 -100.5 -219.5t-286.5 -85.5q33 -32 66.5 -48.5t68 -22.5t108.5 -6h27l-18 -154h-32q-128 0 -226.5 56.5
t-186.5 183.5q-185 28 -185 143q0 42 29.5 71t78.5 29q54 0 99.5 -26.5t89.5 -78.5q27 -4 61 -4q117 0 179 38t62 107q0 50 -23 81t-65 49t-132 36q-177 33 -260.5 110t-83.5 202q0 117 83 190.5t225 73.5q50 0 94 -9t85 -27t107 -60q65 -42 97.5 -58.5t73.5 -27t87 -10.5
q53 0 95 12v-153zM886 1234z" />
    <glyph glyph-name="uni0A95_uni0ABC.nukt_uni0ACD.half" horiz-adv-x="1047" 
d="M776 1058q-68 17 -106.5 21.5t-84.5 4.5q-99 0 -153 -39.5t-54 -112.5q0 -52 38 -100t114 -93h574v-145h-225q-99 0 -157 9q108 -70 157 -143.5t49 -168.5q0 -138 -103 -224.5t-294 -86.5q-277 0 -494 169l92 128q185 -147 392 -147q239 0 239 164q0 45 -20.5 84.5
t-74 88t-153.5 110.5l-378 -145l-57 145l285 102q-76 59 -114 126t-38 142q0 128 98 207.5t260 79.5q128 0 238 -27zM54 580zM523 -156q47 0 80 -35.5t33 -83.5q0 -49 -33 -84t-80 -35t-80 35.5t-33 83.5t33 83.5t80 35.5zM523 0z" />
    <glyph glyph-name="uni0A96_uni0ABC.nukt_uni0ACD.half" horiz-adv-x="1148" 
d="M13 1063l16 149h21q89 0 146 -19.5t91 -52.5t50.5 -83.5t16.5 -148.5v-189q0 -107 21.5 -153.5t61.5 -67.5t100 -21q64 0 103.5 26.5t57 72.5t17.5 143v267l164 -22v-217q39 -63 117 -63q82 0 145 54l58 -138q-54 -37 -97.5 -50.5t-105.5 -13.5q-80 0 -133 35
q-32 -116 -117.5 -179t-210.5 -63q-124 0 -198.5 47.5t-110.5 125t-36 217.5v182q0 79 -16 109t-49.5 41.5t-111.5 11.5zM1170 1234zM608 189q47 0 80 -35.5t33 -83.5q0 -49 -33 -84t-80 -35t-80 35.5t-33 83.5t33 83.5t80 35.5z" />
    <glyph glyph-name="uni0A97_uni0ABC.nukt_uni0ACD.half" horiz-adv-x="839" 
d="M430 364q-123 0 -223.5 64t-184.5 192l130 89q65 -101 127 -148t143 -47q92 0 141.5 69.5t49.5 203.5q0 149 -57.5 224t-171.5 75t-222 -56l-52 138q59 30 135.5 48t148.5 18q183 0 283.5 -115.5t100.5 -334.5q0 -208 -89 -314t-259 -106zM511 218q47 0 80 -35.5
t33 -83.5q0 -49 -33 -84t-80 -35t-80 35.5t-33 83.5t33 83.5t80 35.5z" />
    <glyph glyph-name="uni0A98_uni0ABC.nukt_uni0ACD.half" horiz-adv-x="899" 
d="M976 370q-99 -81 -198 -116t-216 -35q-180 0 -286 87t-106 229q0 114 62 191q-142 104 -142 252q0 112 92 184t249 72q101 0 191 -22l-28 -145q-84 19 -145 19q-95 0 -144.5 -32t-49.5 -92q0 -93 98 -151q77 30 178 30q49 0 124 -12l-24 -146q-42 10 -104 10
q-91 0 -141.5 -39.5t-50.5 -113.5q0 -82 60 -127.5t166 -45.5q96 0 174 32t162 107zM523 55q47 0 80 -35.5t33 -83.5q0 -49 -33 -84t-80 -35t-80 35.5t-33 83.5t33 83.5t80 35.5zM523 211z" />
    <glyph glyph-name="uni0A99_uni0ABC.nukt_uni0ACD.half" horiz-adv-x="1004" 
d="M770 1066q-80 20 -187 20q-88 0 -138.5 -35t-50.5 -98q0 -42 18.5 -72t57.5 -60.5t145 -95.5q176 -108 241 -196t65 -215q0 -151 -105.5 -242.5t-283.5 -91.5q-152 0 -278.5 76t-234.5 241l143 87q85 -130 172 -192t201 -62q102 0 160 47.5t58 130.5q0 87 -53.5 148
t-206.5 151q-143 85 -203.5 162.5t-60.5 186.5q0 125 96.5 201.5t260.5 76.5q123 0 214 -23zM818 983q50 0 84 -32.5t34 -82.5t-34.5 -83t-83.5 -33t-83.5 33t-34.5 83t34 82.5t84 32.5zM632 1234zM447 1234zM585 0zM502 0zM485 577zM42 236zM244 -156q47 0 80 -35.5
t33 -83.5q0 -49 -33 -84t-80 -35t-80 35.5t-33 83.5t33 83.5t80 35.5zM244 0zM418 -106q78 24 165 24q154 0 290.5 -91.5t269.5 -292.5l-125 -81q-118 173 -213.5 243.5t-221.5 70.5q-65 0 -117 -19zM444 0zM1128 -407z" />
    <glyph glyph-name="uni0A9A_uni0ABC.nukt_uni0ACD.half" horiz-adv-x="961" 
d="M1046 405q-104 -80 -188 -108.5t-191 -28.5q-133 0 -232.5 54t-166.5 163h-28q-84 0 -126.5 30.5t-42.5 85.5q0 106 113 106q93 0 164 -71q96 30 152.5 96t56.5 148q0 99 -57 152.5t-177 53.5q-47 0 -104 -13t-100 -32l-55 139q54 24 125 39t140 15q187 0 289.5 -94
t102.5 -263q0 -120 -77.5 -217t-209.5 -143q42 -51 98.5 -76t128.5 -25q87 0 158.5 27.5t143.5 94.5zM534 127q47 0 80 -35.5t33 -83.5q0 -49 -33 -84t-80 -35t-80 35.5t-33 83.5t33 83.5t80 35.5zM534 283z" />
    <glyph glyph-name="uni0A9B_uni0ABC.nukt_uni0ACD.half" horiz-adv-x="1512" 
d="M673 584q-29 2 -59 2q-122 0 -195.5 -59t-73.5 -165q0 -232 303 -232q183 0 323.5 88t218.5 240.5t78 304.5q0 158 -48 240.5t-140 82.5q-68 0 -107.5 -41.5t-39.5 -100.5q0 -107 72.5 -165t215.5 -86l-51 -147q-399 106 -399 389q0 132 80.5 215.5t218.5 83.5
q166 0 266 -122t100 -349q0 -194 -96.5 -379.5t-275.5 -294.5t-412 -109q-224 0 -348 103t-124 277q0 155 104 258q-99 66 -146.5 146t-47.5 181q0 125 92.5 207t248.5 82q101 0 191 -22l-28 -147q-84 19 -145 19q-92 0 -143 -40.5t-51 -110.5q0 -77 42.5 -131t127.5 -97
q84 31 187 31q25 0 80 -4zM772 0zM1075 1234zM711 0zM890 1234zM414 -156q47 0 80 -35.5t33 -83.5q0 -49 -33 -84t-80 -35t-80 35.5t-33 83.5t33 83.5t80 35.5zM414 0zM618 -106q78 24 165 24q154 0 290.5 -91.5t269.5 -292.5l-125 -81q-118 173 -213.5 243.5t-221.5 70.5
q-65 0 -117 -19zM644 0zM1328 -407z" />
    <glyph glyph-name="uni0A9C_uni0ABC.nukt_uni0ACD.half" horiz-adv-x="1705" 
d="M1315 851q118 25 249 25h181v-148h-168q-103 0 -172 -11q58 -91 87.5 -183.5t29.5 -186.5q0 -173 -95 -270t-260 -97q-175 0 -268 99t-93 262q0 151 89 267.5t263 190.5q-92 105 -201 172t-234 96q51 -93 51 -209q0 -88 -43.5 -164.5t-125 -118.5t-191.5 -42
q-159 0 -253 93t-94 245q0 158 123 260.5t335 102.5q236 0 433.5 -96t356.5 -287zM547 1090q-10 0 -20 1h-20q-132 0 -203.5 -60.5t-71.5 -163.5q0 -86 49 -135t133 -49q93 0 145 50.5t52 131.5q0 130 -64 225zM1252 681q-136 -47 -207 -134.5t-71 -204.5q0 -214 190 -214
q94 0 142 56t48 164q0 89 -25.5 172t-76.5 161zM1144 -156q47 0 80 -35.5t33 -83.5q0 -49 -33 -84t-80 -35t-80 35.5t-33 83.5t33 83.5t80 35.5zM1144 0z" />
    <glyph glyph-name="uni0A9D_uni0ABC.nukt_uni0ACD.half" horiz-adv-x="1292" 
d="M799 652q16 -85 16 -176q0 -244 -98 -370t-277 -126q-137 0 -238 65.5t-180 190.5l129 88q80 -119 141 -156.5t144 -37.5q103 0 157 88.5t54 262.5q0 183 -65.5 280t-195.5 97q-64 0 -114 -12t-113 -43l-52 139q64 30 143 47.5t150 17.5q121 0 208.5 -52.5t141.5 -156.5
q86 40 183 45v391l164 -22v-381q64 -15 118 -55.5t98 -107.5l-139 -83q-46 57 -91 85t-114 28q-97 0 -170 -46zM715 -156q47 0 80 -35.5t33 -83.5q0 -49 -33 -84t-80 -35t-80 35.5t-33 83.5t33 83.5t80 35.5zM715 0z" />
    <glyph glyph-name="uni0A9E_uni0ABC.nukt_uni0ACD.half" horiz-adv-x="1008" 
d="M1083 732q-50 -27 -97.5 -40t-130.5 -13q-51 0 -87 7q-20 -161 -105 -241.5t-236 -80.5q-236 0 -405 256l130 89q65 -101 127 -148t143 -47q92 0 141.5 69.5t49.5 203.5q0 149 -57.5 224t-170.5 75q-114 0 -223 -56l-52 138q59 30 135.5 48t148.5 18q168 0 267 -101
t111 -295q32 -10 80 -10q100 0 177 48zM511 218q47 0 80 -35.5t33 -83.5q0 -49 -33 -84t-80 -35t-80 35.5t-33 83.5t33 83.5t80 35.5z" />
    <glyph glyph-name="uni0A9F_uni0ABC.nukt_uni0ACD.half" horiz-adv-x="923" 
d="M848 233l76 -145q-114 -60 -210 -84t-211 -24q-183 0 -298 100t-115 251q0 73 27 135.5t91 123.5t206 139q116 62 164.5 94.5t69.5 63t21 70.5q0 64 -44.5 96.5t-128.5 32.5q-79 0 -137.5 -14t-110.5 -40l-52 138q148 64 304 64q160 0 247 -74t87 -200q0 -73 -29 -130.5
t-83.5 -101t-156.5 -98.5q-120 -65 -185 -110t-93.5 -92.5t-28.5 -111.5q0 -83 67.5 -134.5t181.5 -51.5q92 0 173.5 24.5t167.5 78.5zM568 1234zM383 1234zM549 0zM461 0zM224 -156q47 0 80 -35.5t33 -83.5q0 -49 -33 -84t-80 -35t-80 35.5t-33 83.5t33 83.5t80 35.5z
M224 0zM398 -106q78 24 165 24q154 0 290.5 -91.5t269.5 -292.5l-125 -81q-118 173 -213.5 243.5t-221.5 70.5q-65 0 -117 -19zM424 0zM1108 -407z" />
    <glyph glyph-name="uni0AA0_uni0ABC.nukt_uni0ACD.half" horiz-adv-x="1059" 
d="M818 1064q-81 22 -196 22q-79 0 -120 -26.5t-41 -74.5t41.5 -88.5t169.5 -117.5q180 -110 251 -210.5t71 -231.5q0 -164 -120.5 -260.5t-331.5 -96.5q-214 0 -333 102.5t-119 276.5q0 139 96.5 239.5t274.5 138.5q-83 56 -124 119t-41 133q0 108 86 176.5t236 68.5
q133 0 230 -23zM626 627h-13q-157 0 -256 -74t-99 -199q0 -108 73 -167t208 -59t211 55t76 159q0 90 -45.5 153t-154.5 132zM679 1234zM611 0zM529 0zM494 1234zM244 -156q47 0 80 -35.5t33 -83.5q0 -49 -33 -84t-80 -35t-80 35.5t-33 83.5t33 83.5t80 35.5zM244 0z
M418 -106q78 24 165 24q154 0 290.5 -91.5t269.5 -292.5l-125 -81q-118 173 -213.5 243.5t-221.5 70.5q-65 0 -117 -19zM444 0zM1128 -407z" />
    <glyph glyph-name="uni0AA1_uni0ABC.nukt_uni0ACD.half" horiz-adv-x="986" 
d="M770 1064q-77 22 -176 22q-95 0 -147.5 -34.5t-52.5 -98.5q0 -53 37 -96.5t184 -131.5q133 -82 194 -143t86.5 -126t25.5 -150q0 -145 -107 -235.5t-282 -90.5q-156 0 -280 74.5t-233 242.5l143 87q85 -130 172 -192t201 -62q99 0 158.5 46t59.5 126q0 86 -54 150.5
t-206 154.5q-143 85 -203.5 162.5t-60.5 186.5q0 122 95.5 200t251.5 78q134 0 224 -23zM585 0zM632 1234zM493 0zM447 1234zM583 577zM110 236zM244 -156q47 0 80 -35.5t33 -83.5q0 -49 -33 -84t-80 -35t-80 35.5t-33 83.5t33 83.5t80 35.5zM244 0zM418 -106q78 24 165 24
q154 0 290.5 -91.5t269.5 -292.5l-125 -81q-118 173 -213.5 243.5t-221.5 70.5q-65 0 -117 -19zM444 0zM1128 -407z" />
    <glyph glyph-name="uni0AA2_uni0ABC.nukt_uni0ACD.half" horiz-adv-x="1056" 
d="M473 129q-33 82 -33 160q0 119 81 190t211 71q131 0 207.5 -72t76.5 -197q0 -135 -116.5 -218t-329.5 -83q-230 0 -355 101.5t-125 271.5q0 92 35.5 160t101.5 120.5t193 117.5q117 59 164 88.5t68 59t21 68.5q0 55 -43.5 87t-117.5 32q-87 0 -146 -13.5t-113 -40.5
l-52 138q147 64 305 64q155 0 243.5 -72t88.5 -192q0 -101 -67 -180t-244 -160q-165 -76 -218.5 -136.5t-53.5 -142.5q0 -92 55.5 -149t162.5 -73zM620 122q116 5 178.5 46.5t62.5 114.5q0 58 -31.5 91.5t-90.5 33.5q-69 0 -109 -40t-40 -109q0 -75 30 -137zM614 0z
M602 1234zM528 0zM437 1234zM630 128zM417 778zM244 -156q47 0 80 -35.5t33 -83.5q0 -49 -33 -84t-80 -35t-80 35.5t-33 83.5t33 83.5t80 35.5zM244 0zM418 -106q78 24 165 24q154 0 290.5 -91.5t269.5 -292.5l-125 -81q-118 173 -213.5 243.5t-221.5 70.5q-65 0 -117 -19z
M444 0zM1128 -407z" />
    <glyph glyph-name="uni0AA3_uni0ABC.nukt_uni0ACD.half" horiz-adv-x="1197" 
d="M568 727q64 -81 122 -115.5t122 -34.5q82 0 121 61.5t39 189.5q0 131 -49.5 196t-144.5 65q-111 0 -196 -47l-51 134q117 58 258 58q161 0 254 -107.5t93 -298.5q0 -197 -81 -297.5t-239 -100.5q-99 0 -196.5 53.5t-174.5 151.5zM153 1234l164 -22v-575q0 -108 5 -145
t26.5 -66.5t82.5 -65t220 -102.5q139 -59 205 -109.5t88.5 -98.5t22.5 -112q0 -112 -97 -229l-133 93q27 31 42 61.5t15 64.5q0 42 -22 74t-80.5 66t-168.5 80q-152 62 -222 104.5t-100 85t-39 88t-9 140.5v668zM779 -548zM390 177zM460 -156q47 0 80 -35.5t33 -83.5
q0 -49 -33 -84t-80 -35t-80 35.5t-33 83.5t33 83.5t80 35.5zM460 0z" />
    <glyph glyph-name="uni0AA4_uni0ABC.nukt_uni0ACD.half" horiz-adv-x="753" 
d="M815 738h-239q-126 0 -186.5 -15.5t-96.5 -57.5t-36 -107q0 -92 69.5 -193t216.5 -231l-111 -110q-189 168 -266 294.5t-77 252.5q0 86 44 158t136.5 114.5t280.5 42.5h265v-148zM473 172zM712 1234zM477 -128q47 0 80 -35.5t33 -83.5q0 -49 -33 -84t-80 -35t-80 35.5
t-33 83.5t33 83.5t80 35.5zM477 28z" />
    <glyph glyph-name="uni0AA5_uni0ABC.nukt_uni0ACD.half" horiz-adv-x="879" 
d="M954 432q-92 -71 -184.5 -102t-206.5 -31q-345 0 -477 354q207 56 310.5 136t103.5 187q0 56 -34.5 88t-91.5 32q-58 0 -92 -25.5t-34 -68.5q0 -42 22 -69.5t70 -51.5l-95 -111q-155 86 -155 236q0 99 77 163.5t206 64.5q136 0 211.5 -74.5t75.5 -188.5
q0 -129 -87.5 -226.5t-269.5 -172.5q81 -125 252 -125q96 0 176.5 28t157.5 94zM240 918zM209 505zM482 149q47 0 80 -35.5t33 -83.5q0 -49 -33 -84t-80 -35t-80 35.5t-33 83.5t33 83.5t80 35.5zM482 305z" />
    <glyph glyph-name="uni0AA6_uni0ABC.nukt_uni0ACD.half" horiz-adv-x="956" 
d="M674 1060q-92 24 -175 24q-118 0 -181 -43t-63 -118q0 -70 43.5 -123.5t132.5 -97.5q91 34 199 34q81 0 154 -13l-28 -147q-58 10 -122 10q-132 0 -210.5 -60.5t-78.5 -165.5q0 -115 68.5 -173.5t198.5 -58.5q83 0 127 18q-7 17 -7 47q0 51 31.5 81t85.5 30
q55 0 87.5 -34.5t32.5 -84.5q0 -96 -100 -150.5t-259 -54.5q-197 0 -313.5 104t-116.5 276q0 76 27.5 140t82.5 117q-103 66 -151.5 143.5t-48.5 174.5q0 133 102 216t286 83q51 0 115 -7.5t109 -19.5zM638 0zM559 1234zM374 1234zM250 -156q47 0 80 -35.5t33 -83.5
q0 -49 -33 -84t-80 -35t-80 35.5t-33 83.5t33 83.5t80 35.5zM250 0zM424 -106q78 24 165 24q154 0 290.5 -91.5t269.5 -292.5l-125 -81q-118 173 -213.5 243.5t-221.5 70.5q-65 0 -117 -19zM450 0zM1134 -407z" />
    <glyph glyph-name="uni0AA7_uni0ABC.nukt_uni0ACD.half" horiz-adv-x="869" 
d="M944 360q-85 -75 -177.5 -108t-207.5 -33q-178 0 -283.5 87t-105.5 229q0 116 63 192q-143 108 -143 258q0 115 83 201.5t248 137.5l60 -148q-109 -30 -167.5 -80t-58.5 -126q0 -99 97 -159q77 30 179 30q49 0 124 -12l-24 -146q-42 10 -104 10q-91 0 -141.5 -39.5
t-50.5 -113.5q0 -82 59.5 -127.5t164.5 -45.5q87 0 159 28t149 99zM709 1234zM523 55q47 0 80 -35.5t33 -83.5q0 -49 -33 -84t-80 -35t-80 35.5t-33 83.5t33 83.5t80 35.5zM523 211z" />
    <glyph glyph-name="uni0AA8_uni0ABC.nukt_uni0ACD.half" horiz-adv-x="721" 
d="M761 672h-369v-117q0 -57 -28 -87t-77 -30q-48 0 -105 44t-95 109t-38 121q0 108 124 108h588v-148zM690 1234zM396 218q47 0 80 -35.5t33 -83.5q0 -49 -33 -84t-80 -35t-80 35.5t-33 83.5t33 83.5t80 35.5z" />
    <glyph glyph-name="uni0AAA_uni0ABC.nukt_uni0ACD.half" horiz-adv-x="795" 
d="M834 421q-73 -50 -142 -71t-151 -21q-103 0 -180.5 40.5t-124 119.5t-46.5 228v184q0 79 -16 109t-49.5 41.5t-111.5 11.5l16 149h21q89 0 146 -19.5t91 -52.5t50.5 -83.5t16.5 -148.5v-176q0 -145 46.5 -200t157.5 -55t217 82zM335 1234zM417 165q47 0 80 -35.5
t33 -83.5q0 -49 -33 -84t-80 -35t-80 35.5t-33 83.5t33 83.5t80 35.5zM417 321z" />
    <glyph glyph-name="uni0AAB_uni0ABC.nukt_uni0ACD.half" horiz-adv-x="1047" 
d="M526 125q113 0 173.5 43.5t60.5 125.5q0 45 -20.5 84.5t-74 88t-153.5 110.5l-378 -145l-57 145l285 102q-76 59 -114 126t-38 142q0 128 98 207.5t260 79.5q128 0 238 -27l-30 -149q-68 17 -106.5 21.5t-84.5 4.5q-99 0 -153 -39.5t-54 -112.5q0 -52 38 -100t114 -93
h574v-145h-234q-88 0 -128 5q98 -73 142 -146.5t44 -161.5q0 -138 -103 -224.5t-294 -86.5h-24q-12 0 -25 1q49 -59 91.5 -91t89 -45.5t120.5 -13.5h48l-18 -154h-32q-142 0 -256 71.5t-232 245.5q-104 13 -154 54.5t-50 100.5q0 45 30.5 72.5t77.5 27.5q55 0 102 -29
t92 -83q57 -12 135 -12zM701 -548zM183 580zM303 -275q47 0 80 -35.5t33 -83.5q0 -49 -33 -84t-80 -35t-80 35.5t-33 83.5t33 83.5t80 35.5zM303 -119z" />
    <glyph glyph-name="uni0AAC_uni0ABC.nukt_uni0ACD.half" horiz-adv-x="1124" 
d="M1175 530q-54 -37 -97.5 -50.5t-105.5 -13.5q-93 0 -150 47q-41 -101 -130 -152.5t-215 -51.5q-174 0 -280.5 114t-106.5 302q0 183 110.5 311.5t330.5 197.5l47 -149q-320 -96 -320 -363q0 -129 60.5 -197t161.5 -68q77 0 126 34.5t67 94t18 169.5v161l164 -22v-217
q39 -63 117 -63q82 0 145 54zM676 149q47 0 80 -35.5t33 -83.5q0 -49 -33 -84t-80 -35t-80 35.5t-33 83.5t33 83.5t80 35.5zM676 305z" />
    <glyph glyph-name="uni0AAD_uni0ABC.nukt_uni0ACD.half" horiz-adv-x="1268" 
d="M1298 600h-378v-78q0 -60 -27 -94t-72 -34q-48 0 -107 43.5t-98.5 107t-39.5 113.5q0 43 32 66.5t93 23.5h55v13q0 118 -22.5 184.5t-74 103.5t-136.5 37q-126 0 -195.5 -84t-69.5 -219q0 -147 74.5 -279t260.5 -293l-114 -111q-208 183 -297 343.5t-89 342.5
q0 200 118.5 324t310.5 124q131 0 221 -55.5t133.5 -152.5t43.5 -253v-25h378v-148zM543 248zM909 159q47 0 80 -35.5t33 -83.5q0 -49 -33 -84t-80 -35t-80 35.5t-33 83.5t33 83.5t80 35.5zM909 315z" />
    <glyph glyph-name="uni0AAE_uni0ABC.nukt_uni0ACD.half" horiz-adv-x="830" 
d="M860 500h-428v-78q0 -60 -27 -94t-72 -34q-48 0 -107 43.5t-98.5 107t-39.5 113.5q0 43 32 66.5t93 23.5h55v254q0 79 -16 109t-49.5 41.5t-111.5 11.5l16 149h21q89 0 146 -19.5t91 -52.5t50.5 -83.5t16.5 -148.5v-261h428v-148zM408 1234zM513 134q47 0 80 -35.5
t33 -83.5q0 -49 -33 -84t-80 -35t-80 35.5t-33 83.5t33 83.5t80 35.5zM513 290z" />
    <glyph glyph-name="uni0AAF_uni0ABC.nukt_uni0ACD.half" horiz-adv-x="847" 
d="M905 450q-92 -69 -171.5 -95t-177.5 -26q-165 0 -283.5 89t-183.5 265q268 75 268 241q0 75 -50.5 119.5t-136.5 44.5q-55 0 -104 -11l-37 140q78 17 152 17q160 0 250.5 -83t90.5 -225q0 -205 -223 -313q36 -64 103 -100t148 -36q76 0 142.5 24t136.5 81zM110 535z
M448 165q47 0 80 -35.5t33 -83.5q0 -49 -33 -84t-80 -35t-80 35.5t-33 83.5t33 83.5t80 35.5zM448 321z" />
    <glyph glyph-name="uni0AB0_uni0ABC.nukt_uni0ACD.half" horiz-adv-x="912" 
d="M843 0q-153 0 -279 87.5t-261 307.5q-29 -2 -55 -2q-94 0 -141 29t-47 95q0 47 34.5 75.5t89.5 28.5q51 0 89.5 -15.5t75.5 -42.5q139 31 215.5 105.5t76.5 179.5q0 113 -67 174.5t-187 61.5q-74 0 -138 -14.5t-137 -48.5l-52 141q169 72 331 72q197 0 308 -102t111 -286
q0 -144 -93.5 -255t-257.5 -165q79 -111 138.5 -168t117 -80.5t137.5 -23.5h41l-18 -154h-32zM522 0zM520 1234zM456 0zM350 1234zM748 541zM254 -156q47 0 80 -35.5t33 -83.5q0 -49 -33 -84t-80 -35t-80 35.5t-33 83.5t33 83.5t80 35.5zM254 0zM428 -106q78 24 165 24
q154 0 290.5 -91.5t269.5 -292.5l-125 -81q-118 173 -213.5 243.5t-221.5 70.5q-65 0 -117 -19zM454 0zM1138 -407z" />
    <glyph glyph-name="uni0AB2_uni0ABC.nukt_uni0ACD.half" horiz-adv-x="948" 
d="M842 271q-115 -55 -270 -55q-221 0 -351.5 130.5t-130.5 352.5q0 198 136 339t386 196l41 -152q-201 -42 -298 -140t-97 -261q0 -149 83 -232t224 -83q122 0 214 42zM993 722l-493 -100l-38 151l501 100zM543 55q47 0 80 -35.5t33 -83.5q0 -49 -33 -84t-80 -35t-80 35.5
t-33 83.5t33 83.5t80 35.5zM543 211z" />
    <glyph glyph-name="uni0AB3_uni0ABC.nukt_uni0ACD.half" horiz-adv-x="1109" 
d="M1110 943q-42 17 -86 17q-75 0 -108.5 -50.5t-33.5 -155.5v-11q0 -111 -17.5 -189.5t-63 -138t-120.5 -93t-185 -33.5q-182 0 -294 117.5t-112 317.5q0 179 111 309.5t330 200.5l47 -149q-156 -51 -238 -141.5t-82 -226.5t62.5 -208.5t173.5 -72.5q62 0 103.5 17.5
t68.5 49.5t39.5 80.5t12.5 146.5v32q0 123 32 190t99.5 110t170.5 43q65 0 131 -22zM620 134q47 0 80 -35.5t33 -83.5q0 -49 -33 -84t-80 -35t-80 35.5t-33 83.5t33 83.5t80 35.5zM620 290z" />
    <glyph glyph-name="uni0AB5_uni0ABC.nukt_uni0ACD.half" horiz-adv-x="845" 
d="M893 477q-107 -86 -196 -117t-197 -31q-180 0 -295 105t-115 272q0 183 123 291t326 108q43 0 100.5 -6.5t96.5 -16.5l-27 -145q-89 18 -164 18q-138 0 -214 -64.5t-76 -181.5q0 -109 65 -170.5t177 -61.5q81 0 149.5 23.5t163.5 104.5zM792 1234zM458 165q47 0 80 -35.5
t33 -83.5q0 -49 -33 -84t-80 -35t-80 35.5t-33 83.5t33 83.5t80 35.5zM458 321z" />
    <glyph glyph-name="uni0AB6_uni0ABC.nukt_uni0ACD.half" horiz-adv-x="892" 
d="M475 680q-173 41 -256.5 116t-83.5 196q0 103 81.5 172.5t221.5 69.5q104 0 191.5 -46t135.5 -134t48 -208q0 -149 -94.5 -266t-257.5 -171q110 -156 178.5 -205.5t175.5 -49.5h27l-18 -154h-32q-132 0 -247.5 88t-240.5 289q-30 -2 -60 -2q-181 0 -181 124
q0 47 34.5 75.5t89.5 28.5q92 0 169 -61q146 35 219 113.5t73 199.5q0 113 -59.5 173.5t-154.5 60.5q-67 0 -103.5 -29.5t-36.5 -72.5q0 -71 63 -109.5t172 -60.5zM458 557zM380 828zM397 -8q47 0 80 -35.5t33 -83.5q0 -49 -33 -84t-80 -35t-80 35.5t-33 83.5t33 83.5
t80 35.5zM397 148z" />
    <glyph glyph-name="uni0AB7_uni0ABC.nukt_uni0ACD.half" horiz-adv-x="878" 
d="M919 481q-103 -84 -187 -118t-191 -34q-103 0 -180.5 40.5t-124 119.5t-46.5 228v212q0 62 -16 88t-49 36t-112 10l16 149h21q152 0 226 -62l421 -311q111 -82 222 -187v-171zM354 732q0 -145 46.5 -200t157.5 -55q134 0 260 109l-260 193q-130 97 -213 169q9 -51 9 -144
v-72zM361 1234zM897 438zM895 734zM416 165q47 0 80 -35.5t33 -83.5q0 -49 -33 -84t-80 -35t-80 35.5t-33 83.5t33 83.5t80 35.5zM416 321z" />
    <glyph glyph-name="uni0AB8_uni0ABC.nukt_uni0ACD.half" horiz-adv-x="1084" 
d="M1123 675q-94 -60 -232 -60q-91 0 -162 26q-44 -74 -111 -127t-158 -85q81 -114 141 -171.5t118.5 -80.5t135.5 -23h41l-18 -154h-32q-154 0 -281 88.5t-259 307.5q-31 -3 -62 -3q-89 0 -135 29t-46 95q0 47 34.5 75.5t89.5 28.5q90 0 163 -56q131 35 197.5 107.5
t66.5 175.5q0 113 -63 174.5t-177 61.5q-72 0 -132.5 -15t-126.5 -48l-52 141q161 72 318 72q188 0 295 -101.5t107 -286.5q0 -34 -5 -64q47 -18 107 -18q114 0 190 63zM536 541zM397 -8q47 0 80 -35.5t33 -83.5q0 -49 -33 -84t-80 -35t-80 35.5t-33 83.5t33 83.5t80 35.5z
M397 148z" />
    </font>
</defs>
</svg>
