<?xml version="1.0" encoding="UTF-8"?>
<svg width="140px" height="22px" viewBox="0 0 140 22" version="1.1" xmlns="http://www.w3.org/2000/svg" xmlns:xlink="http://www.w3.org/1999/xlink">
    <!-- Generator: Sketch 46 (44423) - http://www.bohemiancoding.com/sketch -->
    <title>Group 20</title>
    <desc>Created with Sketch.</desc>
    <defs>
        <polygon id="path-1" points="0 10.3879121 0 20.5365568 20.095 20.5365568 20.095 0.239267399 0 0.239267399 0 10.3879121"></polygon>
    </defs>
    <g id="Web" stroke="none" stroke-width="1" fill="none" fill-rule="evenodd">
        <g id="Report---Class-Usage-Report---Blank-state" transform="translate(-68.000000, -54.000000)">
            <g id="Group-23" transform="translate(19.000000, 45.000000)">
                <g id="Group-20" transform="translate(49.000000, 9.000000)">
                    <polyline id="Fill-1" fill="#FFFFFF" points="35.579 19.6121758 35.579 8.25371429 30.4603333 15.7825495 30.3863333 15.7825495 25.2676667 8.25371429 25.2676667 19.6121758 24.3436667 19.6121758 24.3436667 6.53503297 25.2493333 6.53503297 30.4416667 14.2690989 35.6343333 6.53503297 36.5396667 6.53503297 36.5396667 19.6121758 35.579 19.6121758"></polyline>
                    <polygon id="Fill-2" fill="#FFFFFF" points="39.7943333 19.6125128 40.7553333 19.6125128 40.7553333 6.53503297 39.7943333 6.53503297"></polygon>
                    <polyline id="Fill-3" fill="#FFFFFF" points="54.0433333 19.6121758 44.9323333 7.99254212 44.9323333 19.6121758 44.0083333 19.6121758 44.0083333 6.53503297 44.914 6.53503297 53.84 17.9120293 53.84 6.53503297 54.763 6.53503297 54.763 19.6121758 54.0433333 19.6121758"></polyline>
                    <path d="M68.0523333,13.0741099 C68.0523333,9.97340659 65.779,7.43211722 62.1753333,7.43211722 L58.8303333,7.43211722 L58.8303333,18.7161026 L62.1753333,18.7161026 C65.779,18.7161026 68.0523333,16.2304176 68.0523333,13.1115165 L68.0523333,13.0741099 Z M62.1753333,19.6121758 L57.87,19.6121758 L57.87,6.53503297 L62.1753333,6.53503297 C66.2413333,6.53503297 69.0496667,9.35569231 69.0496667,13.0363663 L69.0496667,13.0741099 C69.0496667,16.7547839 66.2413333,19.6121758 62.1753333,19.6121758 L62.1753333,19.6121758 Z" id="Fill-4" fill="#FFFFFF"></path>
                    <path d="M75.7783333,19.7998828 C73.82,19.7998828 71.843,19.1083663 70.291,17.7064615 L71.9723333,15.6713407 C73.1366667,16.6422271 74.3556667,17.2585934 75.8346667,17.2585934 C76.999,17.2585934 77.7003333,16.7908425 77.7003333,16.0261978 L77.7003333,15.9881172 C77.7003333,15.2591941 77.2576667,14.8868132 75.096,14.3260513 C72.4896667,13.6527326 70.8083333,12.9238095 70.8083333,10.3279267 L70.8083333,10.2905201 C70.8083333,7.91705495 72.6933333,6.348337 75.335,6.348337 C77.2206667,6.348337 78.8273333,6.9458315 80.14,8.01073993 L78.661,10.1776264 C77.516,9.3749011 76.389,8.88962637 75.298,8.88962637 C74.2083333,8.88962637 73.636,9.3930989 73.636,10.029011 L73.636,10.0664176 C73.636,10.9247473 74.1906667,11.2058022 76.425,11.7844249 C79.0506667,12.4756044 80.528,13.428967 80.528,15.7073993 L80.528,15.7451429 C80.528,18.3420366 78.569,19.7998828 75.7783333,19.7998828" id="Fill-5" fill="#FFFFFF"></path>
                    <path d="M89.6223333,11.1124542 C89.6223333,9.82276923 88.7346667,9.13158974 87.3116667,9.13158974 L85.113,9.13158974 L85.113,13.1297143 L87.3666667,13.1297143 C88.7896667,13.1297143 89.6223333,12.2700366 89.6223333,11.1501978 L89.6223333,11.1124542 Z M87.2746667,15.6895385 L85.113,15.6895385 L85.113,19.6121758 L82.2673333,19.6121758 L82.2673333,6.53503297 L87.5526667,6.53503297 C90.6376667,6.53503297 92.5046667,8.38480586 92.5046667,11.0555018 L92.5046667,11.0932454 C92.5046667,14.1198095 90.1766667,15.6895385 87.2746667,15.6895385 L87.2746667,15.6895385 Z" id="Fill-6" fill="#FFFFFF"></path>
                    <path d="M98.3083333,9.89825641 L96.59,14.1380073 L100.027333,14.1380073 L98.3083333,9.89825641 Z M102.226,19.6121758 L101.042333,16.6796337 L95.573,16.6796337 L94.391,19.6121758 L91.4893333,19.6121758 L97.033,6.44168498 L99.657,6.44168498 L105.200667,19.6121758 L102.226,19.6121758 L102.226,19.6121758 Z" id="Fill-7" fill="#FFFFFF"></path>
                    <path d="M114.387,10.9998974 C114.387,9.76716484 113.538,9.13158974 112.151,9.13158974 L109.324667,9.13158974 L109.324667,12.8874139 L112.207333,12.8874139 C113.593,12.8874139 114.387,12.1389451 114.387,11.037641 L114.387,10.9998974 Z M114.332,19.6121758 L111.560667,15.4276923 L109.324667,15.4276923 L109.324667,19.6121758 L106.477667,19.6121758 L106.477667,6.53503297 L112.391667,6.53503297 C115.441,6.53503297 117.269333,8.1607033 117.269333,10.8509451 L117.269333,10.8883516 C117.269333,12.9989597 116.142333,14.3260513 114.498333,14.9424176 L117.657333,19.6121758 L114.332,19.6121758 L114.332,19.6121758 Z" id="Fill-8" fill="#FFFFFF"></path>
                    <polyline id="Fill-9" fill="#FFFFFF" points="127.472333 19.6121758 123.462667 14.0449963 121.965667 15.6140513 121.965667 19.6121758 119.120333 19.6121758 119.120333 6.53503297 121.965667 6.53503297 121.965667 12.2518388 127.213667 6.53503297 130.651 6.53503297 125.383667 12.0833407 130.89 19.6121758 127.472333 19.6121758"></polyline>
                    <polyline id="Fill-10" fill="#FFFFFF" points="133.33 0.15367033 137.513 0.15367033 137.513 1.39347985 134.756667 1.39347985 134.756667 2.18912821 137.252667 2.18912821 137.252667 3.33794872 134.756667 3.33794872 134.756667 4.17201465 137.55 4.17201465 137.55 5.41081319 133.33 5.41081319 133.33 0.15367033"></polyline>
                    <polygon id="Fill-11" fill="#FFFFFF" points="138.313667 5.41047619 139.762667 5.41047619 139.762667 0.15367033 138.313667 0.15367033"></polygon>
                    <g id="Group-15" transform="translate(0.000000, 1.347985)">
                        <mask id="mask-2" fill="white">
                            <use xlink:href="#path-1"></use>
                        </mask>
                        <g id="Clip-13"></g>
                        <path d="M6.33866667,7.54602198 C6.33866667,9.01903297 7.231,10.4168938 8.50866667,10.943956 C8.683,11.0164103 8.859,11.2071502 8.859,11.4700073 L8.859,13.5927473 L11.2366667,13.5927473 L11.2366667,11.4700073 C11.2366667,11.2809524 11.3443333,11.044381 11.585,10.943956 C12.8633333,10.4168938 13.7556667,9.01903297 13.7556667,7.54602198 C13.7556667,5.48731136 12.092,3.81243956 10.0473333,3.81243956 C8.00233333,3.81243956 6.33866667,5.48731136 6.33866667,7.54602198 Z" id="Fill-12" fill="#FFFFFF" mask="url(#mask-2)"></path>
                        <path d="M11.941,11.5643663 L11.941,13.8057289 C11.941,14.1187985 11.69,14.3051575 11.447,14.3051575 L8.64733333,14.3051575 C8.33866667,14.3051575 8.15433333,14.0517363 8.15433333,13.8057289 L8.15433333,11.5660513 C6.64866667,10.9065495 5.63433333,9.30008791 5.63433333,7.54602198 C5.63433333,5.09437363 7.614,3.1000293 10.0473333,3.1000293 C12.4803333,3.1000293 14.46,5.09437363 14.46,7.54602198 C14.46,9.29435897 13.4516667,10.8967766 11.941,11.5643663 Z M11.2323333,15.5348571 L8.86233333,15.5348571 C8.66733333,15.5348571 8.51,15.3761319 8.51,15.178652 C8.51,14.9825201 8.66733333,14.8224469 8.86233333,14.8224469 L11.2323333,14.8224469 C11.427,14.8224469 11.5846667,14.9825201 11.5846667,15.178652 C11.5846667,15.3761319 11.427,15.5348571 11.2323333,15.5348571 Z M11.2323333,16.6102125 L8.86233333,16.6102125 C8.66733333,16.6102125 8.51,16.4514872 8.51,16.2540073 C8.51,16.0578755 8.66733333,15.8981392 8.86233333,15.8981392 L11.2323333,15.8981392 C11.427,15.8981392 11.5846667,16.0578755 11.5846667,16.2540073 C11.5846667,16.4514872 11.427,16.6102125 11.2323333,16.6102125 Z M10.4016667,17.6852308 L9.693,17.6852308 C9.49833333,17.6852308 9.34066667,17.5268425 9.34066667,17.3293626 C9.34066667,17.1332308 9.49833333,16.9731575 9.693,16.9731575 L10.4016667,16.9731575 C10.5963333,16.9731575 10.754,17.1332308 10.754,17.3293626 C10.754,17.5268425 10.5963333,17.6852308 10.4016667,17.6852308 Z M10.0473333,0.239267399 C4.498,0.239267399 0,4.78770696 0,10.397348 C0,16.007663 4.498,20.5567766 10.0473333,20.5567766 C15.5966667,20.5567766 20.095,16.007663 20.095,10.397348 C20.095,4.78770696 15.5966667,0.239267399 10.0473333,0.239267399 L10.0473333,0.239267399 Z" id="Fill-14" fill="#FFFFFF" mask="url(#mask-2)"></path>
                    </g>
                </g>
            </g>
        </g>
    </g>
</svg>