<?xml version="1.0" standalone="no"?>
<!DOCTYPE svg PUBLIC "-//W3C//DTD SVG 1.1//EN" "http://www.w3.org/Graphics/SVG/1.1/DTD/svg11.dtd" >
<svg>
<metadata>
Created by FontForge 20110222 at Thu Sep  5 02:01:23 2013
 By Orthosie Webhosting
(c)GeM / A. Ho:feld
</metadata>
<defs>
<font id="ACharmingFontRegular" horiz-adv-x="1024" >
  <font-face 
    font-family="ACharmingFontRegular"
    font-weight="400"
    font-stretch="normal"
    units-per-em="2048"
    panose-1="0 0 4 0 0 0 0 0 0 0"
    ascent="1638"
    descent="-410"
    x-height="666"
    cap-height="1343"
    bbox="-762 -694.571 2095 1866"
    underline-thickness="150"
    underline-position="-142"
    unicode-range="U+0020-FB02"
  />
<missing-glyph 
d="M128 0v1866h768v-1866h-768zM256 128h512v1610h-512v-1610z" />
    <glyph glyph-name=".notdef" 
d="M128 0v1866h768v-1866h-768zM256 128h512v1610h-512v-1610z" />
    <glyph glyph-name=".null" horiz-adv-x="0" 
 />
    <glyph glyph-name="nonmarkingreturn" horiz-adv-x="377" 
 />
    <glyph glyph-name="space" unicode=" " horiz-adv-x="377" 
 />
    <glyph glyph-name="exclam" unicode="!" horiz-adv-x="176" 
d="M61 1288q-26 12 -55 55l158 -6l-62 -1018zM152 166l-46 -164l-49 211z" />
    <glyph glyph-name="quotedbl" unicode="&#x22;" horiz-adv-x="367" 
d="M145 1200l-53 -371l-41 420zM330 1200l-51 -371l-43 420z" />
    <glyph glyph-name="numbersign" unicode="#" horiz-adv-x="684" 
d="M272 678l172 2l-4 -113h-186zM326 989l-158 8q27 -45 51 -55l-10 -207h-174l78 -57l92 2l-6 -113h-181l78 -57h99l-21 -399l70 399h192l-20 -399l69 399h160l-78 57h-73l20 111l150 2l-80 55h-62l45 254l-157 8q26 -45 49 -55l-10 -207h-166z" />
    <glyph glyph-name="dollar" unicode="$" horiz-adv-x="815" 
d="M365 784q-24 4 -48 11l-14 4q-161 46 -166 207q-4 137 215 137h2zM381 223q-147 10 -215 37q-119 47 -135 156q10 86 121 123q24 8 145 26q41 6 51 6h21l8 -168q-8 -1 -33 -2q-117 -3 -147 76l-15 12q-2 -29 24 -64.5t54 -47.5q59 -25 117 -21zM422 563q96 -20 96 -82
q0 -53 -100 -71zM426 684l137 -25q164 -30 168 -213q2 -119 -57.5 -174.5t-179.5 -52.5l-84 2l8 139q113 21 117 107q4 80 -113 123zM451 1339l-158 7q31 -43 55 -56l4 -112q-262 -23 -256 -217q6 -195 168 -250l103 -19l2 -88q-31 6 -64 6q-87 0 -164 -32
q-118 -49 -118 -150q0 -22 8 -49q28 -215 354 -229l10 -330l13 330h28q183 0 263.5 79t74.5 260q-6 197 -170 252l-172 31l14 369q102 -8 154 -39q111 -66 119 -244q3 28 14 115q14 108 58 133h-23q-55 0 -135 65q-127 11 -187 11z" />
    <glyph glyph-name="percent" unicode="%" horiz-adv-x="891" 
d="M872 1352q-40 -273 -385 -572q-84 -73 -264 -225q-198 -225 -198 -530v-19q28 273 235 463l383 352q209 192 238 531h-9zM856 541v0l4 -2q-33 -210 -104 -344q-22 -43 -90 -172l-7 -13q-143 201 -153 578l110 78q154 -56 240 -125zM692 84v0q78 192 78 375q0 41 -4 78
q-104 51 -158 61q-8 -53 -8 -109q0 -223 92 -405zM383 1214v0l2 -2q-28 -203 -102 -344q-21 -44 -90 -172l-7 -12q-145 201 -153 578l108 77q154 -55 242 -125zM219 758v0q78 192 78 375q0 41 -6 77q-105 52 -158 62q-6 -53 -6 -109q0 -223 92 -405z" />
    <glyph glyph-name="ampersand" unicode="&#x26;" horiz-adv-x="956" 
d="M303 432v0h-4q25 -35 53 -78q39 -43 80 -43q37 0 88 25h-2q17 -46 141 -132.5t125 -88.5q-18 -78 -202 -78q-164 0 -271 53q-141 70 -141 217q0 199 96 291q73 70 262 88l-6 4l8 2q-180 33 -235 74q-74 55 -74 188q0 32 4 72q15 148 77 214q68 71 214 71q47 0 100 -31
q70 -41 64 -104q-5 -24 -133 -104t-131 -101q-5 -40 59 -78q52 -31 100 -39q-102 37 -98 86q20 21 109 64q113 54 129 65q68 44 73 100q10 101 -124 150q-100 37 -215 33q-138 -4 -229.5 -93.5t-110.5 -228.5q-5 -36 -5 -51q0 -234 273 -289q-171 -31 -249 -109
q-85 -86 -85 -255q0 -320 477 -320q95 0 211 23q166 33 170 90q2 25 -123 114q-138 98 -162 125q5 43 82 72l9 2q20 6 30 10q19 2 31 2q82 0 145 -104q-63 174 -168 174q-10 0 -26 -2q-40 -10 -150 -72q-94 -53 -153 -53q-66 0 -113 45z" />
    <glyph glyph-name="quotesingle" unicode="'" horiz-adv-x="197" 
d="M145 1200l-53 -371l-41 420z" />
    <glyph glyph-name="parenleft" unicode="(" horiz-adv-x="543" 
d="M41 358q0 -405 129 -702q145 -334 389 -348q-422 190 -422 1118q0 278 109 547q137 338 372 360q-270 0 -440 -370q-137 -299 -137 -605z" />
    <glyph glyph-name="parenright" unicode=")" horiz-adv-x="590" 
d="M555 358v0q0 -405 -129 -702q-145 -334 -389 -348q422 190 422 1118q0 278 -109 547q-137 338 -373 360q271 0 441 -370q137 -299 137 -605z" />
    <glyph glyph-name="asterisk" unicode="*" horiz-adv-x="600" 
d="M573 809q-6 22 -59 65l-43 35q-11 9 -25 23q3 14 3 24q0 13 -3 25q7 6 25 23q98 86 102 100q-4 1 -11 1q-22 0 -77 -18l-49 -16q-24 -8 -33 -8q-22 20 -51 33l-16 78q-10 50 -27 71q-15 -13 -30 -71l-21 -80q-31 -11 -53 -31q-45 10 -31 10q-10 0 -27 4l-43 10
q-65 15 -73 15q8 -25 63 -66l43 -32q2 -3 27 -23q-4 -10 -4 -25q0 -14 4 -26l-27 -21q-100 -78 -106 -98q23 -2 72.5 13.5t70.5 15.5q-14 0 31 10q22 -23 53 -31q39 -139 51 -151q33 88 43 151q29 8 51 31zM498 1069v0q26 12 45 16q-62 -51 -105 -79q-6 20 -16 36l12 7h4
q6 0 60 20zM307 1206v0q17 -67 23 -106q-17 2 -25 2q-10 0 -24 -2q18 65 26 106zM360 1063v0q5 -2 13 -8q-4 -2 -11 -4q0 6 -2 12zM395 1038q19 -22 29 -51q-14 -10 -27 -18q-18 12 -41 16q9 21 9 43q12 6 30 10zM426 963v0v-13q-4 2 -8 6q6 5 8 7zM494 866l49 -39
q-97 35 -105 35h-4l-12 6q10 17 16 39q8 -4 21 -14zM336 1071v0q4 -14 6 -31q-20 -10 -37 -26q-16 16 -37 26q2 15 4 31q17 4 33 4q17 0 31 -4zM319 997v0q11 11 21 17q0 -13 -4 -25q-4 4 -17 8zM350 965q12 -2 23 -9q-11 -6 -23 -8q-2 3 -4 8zM397 944v0q13 -8 27 -20
q-10 -29 -29 -50q-18 5 -30 11q0 22 -9 43q23 6 41 16zM236 1055v0q8 6 12 8v-12q-4 2 -12 4zM270 1014v0q9 -6 19 -17q-6 -8 -15 -8q-4 12 -4 25zM313 971q4 -8 9 -15q-5 -8 -9 -14h-16q-6 6 -8 14q2 7 8 15h16zM336 922v0q4 -11 4 -25l-21 16q7 7 17 9zM362 862v0
q7 -2 11 -6l-13 -6q2 6 2 12zM246 1028v0q2 -22 6 -43q-19 -6 -39 -16q-14 8 -27 20q9 27 29 49q18 -4 31 -10zM260 965v0q2 -4 2 -9t-2 -8q-12 2 -24 8q12 7 24 9zM274 922v0q11 -2 15 -9l-19 -16q0 14 4 25zM305 899v0q17 -14 37 -27q-2 -16 -6 -30q-14 -4 -31 -4
q-16 0 -33 4q-2 16 -4 30q21 13 37 27zM186 1044h2q-12 -16 -18 -36q-3 1 -18 12l-39 27q-14 9 -50 34q72 -18 107 -30h6zM182 963q4 -2 11 -7q-7 -4 -11 -8v15zM213 944v0q18 -10 39 -16q-4 -21 -6 -43q-13 -6 -31 -11q-20 21 -29 50q13 12 27 20zM248 862v0v-12l-12 6
q6 2 12 6zM330 811l-23 -104q-18 67 -26 104h49zM170 905v0q6 -20 18 -37l-12 -8h-6q-92 -16 -107 -31q31 31 107 76z" />
    <glyph glyph-name="plus" unicode="+" horiz-adv-x="684" 
d="M651 487l-86 58h-194l10 194l-82 86l14 -280h-280l84 -58h196l15 -225l10 -69l33 294h280z" />
    <glyph glyph-name="comma" unicode="," horiz-adv-x="176" 
d="M129 166l-53 -371l-41 420z" />
    <glyph glyph-name="hyphen" unicode="-" horiz-adv-x="592" 
d="M31 545l84 -58h448l-86 58h-446z" />
    <glyph glyph-name="hyphen" unicode="&#x2010;" horiz-adv-x="592" 
d="M31 545l84 -58h448l-86 58h-446z" />
    <glyph glyph-name="period" unicode="." horiz-adv-x="176" 
d="M133 166l-43 -162l-51 211z" />
    <glyph glyph-name="slash" unicode="/" horiz-adv-x="891" 
d="M872 1352q-40 -273 -385 -572q-84 -73 -264 -225q-198 -225 -198 -530v-19q28 273 235 463l383 352q209 192 238 531h-9z" />
    <glyph glyph-name="zero" unicode="0" horiz-adv-x="762" 
d="M178 635q-31 153 -31 338q0 61 29 256q95 -20 213 -60q37 -13 209 -86v-82q-20 -33 -33 -49q-54 -66 -223 -182q-105 -72 -164 -135zM231 221v0q50 -112 111 -209q103 213 168 359q129 291 235 723q-186 143 -503 262l-207 -146q10 -364 84 -661q-44 -100 -41 -205
q1 -51 32.5 -87t82.5 -40q22 -2 38 4zM133 492v0q35 -119 80 -228q-25 -18 -47 -18q-20 0 -43 18q-39 31 -33 86q9 78 43 142zM598 942v0v-35q0 -248 -229 -739q-33 57 -64 115v4q44 53 57 141q6 40 -7 86q-14 53 -44 72l2 -11q22 -36 22 -85q0 -76 -54 -154
q-64 136 -82 217l-4 18q55 56 208 177q139 110 195 194z" />
    <glyph glyph-name="one" unicode="1" horiz-adv-x="299" 
d="M158 1192q-119 16 -133 37l239 108l-57 -1382z" />
    <glyph glyph-name="two" unicode="2" horiz-adv-x="752" 
d="M207 176v0q-39 -110 -66 -213q-92 17 -96 100q-2 55 29 80q47 37 102 37q12 0 31 -4zM662 -12v0q88 0 167 61l-4 14q-43 -28 -127 -32q-41 -2 -69 4q-54 12 -207 112q-71 47 -141 74q193 298 252 400q169 292 169 409q0 147 -184 273q-66 45 -168 45q-124 0 -204 -52
q-95 -61 -95 -178q0 -80 74 -155q35 -36 121 -62q78 -24 137 -24h41l-39 18q-81 10 -147 57q-78 56 -78 129v33q0 193 182 207q109 8 166 -43q81 -72 92 -166q4 -31 -2 -68q-15 -100 -164 -389q-175 -339 -205 -419h-18q-81 0 -152 -80q-34 -38 -30 -111q6 -108 98 -141
q-23 -66 -39 -99q2 9 21 27q28 45 34 68h2q15 -4 29 -4q86 0 123 98q18 48 14 86l-14 -21q-6 -42 -39.5 -73t-75.5 -29q-11 2 -16 2q37 100 86 203q74 -31 176 -90q146 -84 234 -84z" />
    <glyph glyph-name="three" unicode="3" horiz-adv-x="856" 
d="M209 932v0q49 8 104 39q68 38 68 78q0 52 -121 102q-137 56 -160 98q2 33 40 54q32 18 69 18q233 0 332 -31q196 -61 198 -262q2 -199 -77 -262q-47 -37 -246 -72l6 -4l-6 -2q180 -20 251 -94q74 -77 72 -256q-4 -301 -438 -301q-22 0 -92 6q-94 8 -103 72q7 11 134 90.5
t151 130.5q-53 72 -182 94q88 -33 88 -72q0 -7 -153.5 -115t-153.5 -124q0 -39 92 -72q115 -41 278 -41q200 0 332 64q170 82 176 262q6 168 -63 249t-236 111q165 31 224 88q75 72 75 250q0 326 -483 326q-48 0 -176 -13q-65 -7 -127 -28q-92 -32 -92 -72q0 -16 153.5 -124
t153.5 -115q0 -41 -88 -72z" />
    <glyph glyph-name="four" unicode="4" horiz-adv-x="1106" 
d="M760 793l-160 6q31 -43 55 -54l15 -274l-68 53q-69 54 -170 54q-76 0 -147 -39q356 381 387 721q2 22 2 34v2l-4 -2q-54 47 -80 60l-21 -156q-44 -328 -290 -610q-2 -4 -211 -242q-15 -17 -39 -53q65 57 116 104q134 95 269 95q94 0 149 -41l113 -84l31 -826l28 807
q35 -8 70 -8q141 0 225 90l80 117q-51 -55 -139 -89q-82 -32 -162 -32q-39 0 -70 8z" />
    <glyph glyph-name="five" unicode="5" horiz-adv-x="983" 
d="M199 727h-9l9 4l-9 2l9 2v-8zM78 1352v0h-4q11 -10 41 -56q22 -34 61 -47l14 -579l9 55q61 6 116 6q252 0 385 -127q78 -74 76 -268q-2 -164 -146 -240q-113 -59 -292 -59q-22 0 -92 6q-94 8 -103 72q7 11 134 90.5t151 130.5q-53 72 -182 94q88 -33 88 -72
q0 -7 -153.5 -115t-153.5 -124q0 -39 92 -72q115 -41 278 -41q200 0 330 64q171 84 178 262q6 148 -69 260q-118 176 -408 176q-111 0 -229 -33l61 504q67 2 212 26q138 23 212 23q162 0 246 -110q-66 168 -246 168q-67 0 -198.5 -27t-198.5 -27q-127 0 -209 60z" />
    <glyph glyph-name="six" unicode="6" horiz-adv-x="952" 
d="M584 6v0q130 -4 228 92t95 226q-2 110 -95 194t-204 84q-89 0 -156 -60t-69 -147q-4 -211 221 -211q68 0 133 80q-59 -47 -137 -47q-74 0 -114 47q-38 44 -35 119q3 85 47 140q48 61 131 61q68 0 135 -105q61 -95 63 -168q4 -125 -62 -201q-69 -81 -192 -81q-32 0 -67 6
q-223 63 -303 258q-60 147 -60 448q0 225 131 394q142 184 361 184q92 0 92 -80q0 -3 -39 -79t-39 -103q0 -123 129 -172q-69 61 -69 131q0 15 53 100t53 90q0 65 -53 101q-47 32 -115 32q-257 0 -433 -193q-171 -188 -171 -448q0 -269 133 -462q151 -220 408 -230z" />
    <glyph glyph-name="seven" unicode="7" horiz-adv-x="1008" 
d="M45 1346v0h-4q29 -37 55 -74q43 -43 150 -37q47 2 203 27q127 20 202 20q17 0 35 -2q-65 -100 -65 -209q0 -166 131 -201l-27 23q-55 47 -55 143q0 101 75 234q99 -27 152 -99q-37 97 -117 138q37 33 82 18q70 -23 70 -129q0 -121 -74 -258q-42 -78 -184 -270
q-155 -210 -201 -363q-29 -97 -29 -211q0 -61 9 -129l6 43q-8 74 33 221q24 84 40 119q43 91 216 309q155 195 194 322q25 81 25 160q0 200 -131 217q-58 7 -107 -27q-37 8 -78 8q-67 0 -198.5 -25.5t-198.5 -25.5q-129 0 -209 58z" />
    <glyph glyph-name="eight" unicode="8" horiz-adv-x="956" 
d="M522 6v0q287 6 371 180q31 64 31 133q0 94 -56 191q-101 174 -260 176q91 -14 150 -156q49 -118 49 -225q0 -270 -270 -270q-149 0 -247 59q-118 71 -118 211q0 201 96 293q73 70 262 88l-6 4l8 2q-180 33 -235 74q-74 55 -74 188q0 32 4 72q15 148 78 215q69 72 215 70
q121 -2 187 -87q61 -78 61 -202q0 -100 -39 -191q-49 -114 -133 -124q-12 -54 -123 -132q-87 -61 -100 -73q-54 -50 -54 -107q0 -51 33 -81.5t84 -30.5q70 0 156 55q-64 -29 -121 -29q-98 0 -98 68q0 26 20 57q3 9 95 91q89 82 102 126q0 6 18 28.5t23 22.5q101 6 172 132
q61 108 61 219q0 156 -109 233q-94 67 -256 67q-31 0 -48 -1q-139 -8 -229 -95.5t-111 -226.5q-5 -33 -5 -51q0 -234 273 -289q-171 -31 -249 -109q-85 -86 -85 -255q0 -328 477 -320z" />
    <glyph glyph-name="nine" unicode="9" horiz-adv-x="952" 
d="M367 1339v0q-129 5 -228 -91.5t-96 -225.5q3 -114 93.5 -197.5t205.5 -83.5q90 0 156.5 59t68.5 148q5 211 -221 211q-67 0 -131 -80q57 47 135 47q154 0 150 -165q-2 -85 -47 -140q-49 -61 -131 -61q-69 0 -136 104q-61 94 -63 168q-4 126 61 203q68 82 193 82
q33 0 67 -6q227 -64 306 -260q57 -141 57 -447q0 -222 -131 -393q-143 -186 -359 -186q-94 0 -94 79q0 3 40 79.5t40 103.5q0 123 -131 172q72 -62 72 -131q0 -16 -54.5 -101t-54.5 -90q0 -64 54 -101q47 -32 114 -32q258 0 435 194q171 188 171 449q0 267 -135 463
q-151 219 -407 229z" />
    <glyph glyph-name="colon" unicode=":" horiz-adv-x="176" 
d="M131 168l-43 -164l-51 211zM137 676l-47 -162l-47 211z" />
    <glyph glyph-name="semicolon" unicode=";" horiz-adv-x="176" 
d="M129 168l-53 -373l-41 420zM139 676l-45 -162l-49 211z" />
    <glyph glyph-name="less" unicode="&#x3c;" horiz-adv-x="907" 
d="M858 801q-231 0 -436 -74q-229 -82 -369 -238q256 -239 715 -253l68 100q-39 -5 -82 -6q-339 -12 -654 182q233 200 508 200q128 0 191 -24z" />
    <glyph glyph-name="equal" unicode="=" horiz-adv-x="717" 
d="M674 588l-84 57h-549l84 -57h549zM674 385l-84 57h-549l84 -57h549z" />
    <glyph glyph-name="greater" unicode="&#x3e;" horiz-adv-x="907" 
d="M53 236q232 0 437 73q230 81 368 238q-256 237 -715 254l-67 -99q27 3 82 5q334 12 653 -185q-111 -93 -255 -146q-151 -57 -288 -50q-103 5 -155 24z" />
    <glyph glyph-name="question" unicode="?" horiz-adv-x="709" 
d="M424 168l-94 49l51 -211zM545 838v0q127 163 127 264q0 114 -180 211q-80 43 -205 35q-66 -4 -133 -29q-117 -43 -117 -150q0 -62 72 -122q36 -30 118 -50q72 -18 129 -18q23 0 43 2l-37 14q-71 6 -135 41q-79 43 -84 105l-2 24q-13 152 181 162q112 6 161 -31
q78 -59 90 -131q4 -23 -2 -55q-14 -80 -153 -285q-111 -164 -111 -280q0 -135 150 -250l12 12q-64 52 -86 162q-11 53 -4 90q14 81 166 279z" />
    <glyph glyph-name="at" unicode="@" horiz-adv-x="905" 
d="M455 16v0l120 172q84 121 150 269q-145 -203 -238 -289q-96 123 -144 191q-91 130 -116 202q-59 173 -59 404q0 57 33 245q107 -14 250 -57q61 -18 243 -80v-170q0 -158 -114 -414q-15 111 -15 213q0 185 53 271l-102 92l-18 -94q-25 20 -113 84l-113 -78q-6 -74 -6 -143
q0 -281 103 -435q100 148 139 211q22 -104 86 -227q147 276 274 698q-219 140 -592 254l-241 -139q-6 -411 123 -711q80 -187 297 -469zM496 680v0q-2 -68 -95 -199q-47 144 -47 320q0 94 17 184q43 -12 125 -61q-11 -60 -11 -117q0 -66 11 -127z" />
    <glyph glyph-name="A" unicode="A" horiz-adv-x="1087" 
d="M1102 -289v0l12 2q-63 185 -192 688q57 64 79 199q-55 -113 -94 -131l-198 795l-131 94q10 -58 10 -115q0 -213 -86 -635q-34 -4 -56 -10q-133 -37 -249 -190q-147 -194 -154 -494q-2 -73 50.5 -122.5t125.5 -49.5q129 0 213 229q55 150 146 570l135 -105q84 -65 137 -69
q65 -187 252 -656zM664 997q55 -233 143 -503l-86 57q-59 39 -131 53zM473 567v0q5 0 10 -2q-88 -432 -114 -540v4q-54 -222 -199 -222q-92 0 -100 111q-11 141 141 373q26 40 119 149q75 88 125 123q8 4 18 4z" />
    <glyph glyph-name="B" unicode="B" horiz-adv-x="1042" 
d="M766 94v0q240 103 240 242q0 162 -107 244q-80 61 -262 94q183 35 258 86q111 75 111 231q0 118 -201 226q-226 122 -543 122q-57 0 -127 -18q-93 -24 -93 -63q0 -6 1 -9q2 -8 154.5 -106t152.5 -109q0 -35 -86 -65v-4q66 10 117 30l18 -665q-51 22 -135 35v-5
q86 -30 86 -65q0 -11 -152.5 -109t-154.5 -106q-1 -3 -1 -8q0 -40 93 -64q69 -18 127 -18q74 0 144 6l2 -55h4v57q176 18 354 96zM375 1180v0v-29l-148 57q-74 28 -71 56q5 47 108 47q41 0 92 -2q19 -105 19 -129zM831 530v0q43 -53 43 -186q0 -123 -178 -219
q-141 -76 -282 -96l8 190q27 27 27 55q0 19 -21 39l39 981q135 -26 254 -96q153 -90 153 -207q0 -131 -43 -182q-75 -89 -284 -119q-22 -3 -86 -12l8 -2q-2 -4 -12 -10q14 5 88 -9q218 -42 286 -127zM399 201v0l7 -174q-68 -9 -142 -9q-93 0 -102 50q-5 24 102 73
q28 12 135 60z" />
    <glyph glyph-name="C" unicode="C" horiz-adv-x="840" 
d="M1100 -287q48 11 311 111v4q-255 -89 -336 -98l-37 -4q-89 -10 -188 0q-126 12 -184 38q-414 183 -523 674q-10 99 -10 185q0 511 393 673q51 21 92 21q89 0 89 -103q0 -27 -110 -235.5t-110 -265.5q0 -150 142 -213q-78 82 -78 164q0 40 123 261t123 249q0 57 -35 106
q-53 57 -133 57q-85 0 -195 -59q-95 -51 -166 -121q-237 -233 -237 -598q0 -248 116 -448q119 -206 336 -316q202 -102 437 -102q59 0 120 6z" />
    <glyph glyph-name="D" unicode="D" horiz-adv-x="1030" 
d="M846 143v0q161 156 164 576q2 347 -209 495q-178 125 -539 125q-57 0 -127 -18q-93 -24 -93 -63q0 -6 1 -9q2 -8 154.5 -106t152.5 -109q0 -35 -86 -65v-4q66 10 117 30l18 -665q-51 22 -135 35v-5q86 -30 86 -65q0 -11 -152.5 -109t-154.5 -106q-1 -3 -1 -8
q0 -40 93 -64q69 -18 127 -18q74 0 144 6l2 -55h4v57q317 33 434 145zM375 1180v0v-29l-148 57q-74 28 -71 56q5 47 108 47q41 0 92 -2q19 -105 19 -129zM786 1104q72 -119 93 -381q-5 -313 -86 -461q-106 -194 -379 -233l8 190q27 27 27 55q0 19 -21 39l39 981
q230 -43 319 -190zM399 201v0l7 -174q-68 -9 -142 -9q-93 0 -102 50q-5 24 102 73q28 12 135 60z" />
    <glyph glyph-name="E" unicode="E" horiz-adv-x="907" 
d="M506 623q63 24 119 24q61 0 96 -22q59 -47 106 -95q-106 193 -258 193q-24 0 -213 -53l9 280q67 58 67 180q0 34 -22 91l-7 18v-90q0 -55 -38 -102l6 208q53 -13 129 -36q209 -64 299 -64q194 0 299 178l-37 -28q-45 -50 -148 -76q-47 -12 -86 -12q-86 0 -273 72
q-179 69 -269 63q-120 -8 -201 -146q-23 -39 -23 -84q0 -50 23 -98q56 -117 172 -117q14 0 25 4l10 -256l-39 -6q-98 0 -148 75q-45 66 -41 167h-14q-6 -45 -6 -80q0 -217 248 -231l16 -353q-87 -8 -148 -65q-65 -60 -65 -146q0 -44 29 -82q80 -104 199 -135l4 -80h12l2 78
q49 -9 85 -9q119 0 336 64q245 72 361 72q56 0 117 -12q137 -27 199 -78l47 -39q-119 191 -400 191q-127 0 -403 -64q-212 -49 -301 -49h-41l8 274l53 -6q64 -7 106 -45q46 -42 46 -104v-86q37 88 37 104q0 105 -64 163t-170 58h-8l8 359l113 16l41 17h-4zM266 1268v0
l10 -273q-28 -6 -55 -6q-100 0 -123 98q-16 69 13 103q65 76 155 78zM307 152v0l10 -275q-93 15 -157 72q-25 22 -25 76q0 64 57 98q47 29 115 29z" />
    <glyph glyph-name="F" unicode="F" horiz-adv-x="842" 
d="M506 592q63 22 119 22q61 0 96 -18q61 -51 106 -94q-106 190 -260 190q-28 0 -143 -30l4 122q143 72 143 269q0 22 -16 69v-43q0 -62 -34 -118t-89 -82l14 368q140 -30 248 -61q302 -88 416 -88q227 0 385 174l-8 8q-61 -67 -211 -104q-61 -15 -127 -15q-125 0 -383 99
q-224 86 -363 86q-191 0 -309 -195q-28 -46 -28 -107q0 -118 79 -208q42 -48 80 -58q62 -16 107 -16h8l4 -125q-20 -6 -37 -12l-57 -7q-98 0 -148 75q-45 66 -41 167h-14q-6 -45 -6 -80q0 -225 274 -231l33 8l27 -838h12l35 852l47 7l43 14h-6zM324 1251v0l14 -399
q-23 -2 -53 -2q-157 0 -191 141q-5 21 3 81.5t20 70.5q82 96 207 108z" />
    <glyph glyph-name="G" unicode="G" horiz-adv-x="885" 
d="M778 16v0q70 177 70 291q0 138 -113 254q-49 51 -129 41q-111 -13 -137 -100q-17 -56 -20 -90q-7 -85 45 -162q23 -34 69.5 -59t87.5 -25q8 0 21 2l-17 12q-58 11 -97.5 63t-39.5 113v33q0 184 111 197q68 8 100 -39q48 -71 57 -160t-77 -352l-25 6q-420 149 -526 557
q-11 80 -11 150q0 426 396 559q48 16 92 16q90 0 90 -86q0 -4 -110.5 -190.5t-110.5 -221.5q0 -125 141 -178q-78 68 -78 137q0 16 124 211.5t124 208.5q0 47 -37 88q-51 47 -131 47q-184 0 -366 -147q-238 -192 -238 -496q0 -215 125 -381q180 -239 530 -309l-10 -29
q-70 -203 -70 -331q0 -160 93 -299l10 4q-39 65 -53 196q-6 60 -2 113q8 95 112 356z" />
    <glyph glyph-name="H" unicode="H" horiz-adv-x="1042" 
d="M926 573q100 7 192 60l-8 10q-57 -33 -168 -33h-16l26 727l-164 6q33 -47 58 -59l20 -672q-65 0 -299 117q-180 90 -282 90q-19 0 -43 -2l18 520l-164 6q33 -47 58 -59l14 -489q-133 -60 -127 -168q6 -111 135 -144l23 -663h4l22 655q119 4 172 94q27 45 19 88l-10 -14
q-12 -47 -53 -77t-90 -30q-8 0 -17 1h-17l13 231q82 0 336 -111q176 -77 288 -84l25 -753h6zM170 760v0l6 -217q-112 18 -117 104q-4 84 111 113z" />
    <glyph glyph-name="I" unicode="I" horiz-adv-x="252" 
d="M150 -180l53 1517l-160 6q31 -47 55 -59l47 -1464h5z" />
    <glyph glyph-name="J" unicode="J" horiz-adv-x="211" 
d="M137 -53l33 1296l-104 90l6 -1343q2 -447 -449 -447q-368 0 -368 185q0 90 131 90q54 0 160.5 -27t160.5 -27q154 0 193 111q-68 -39 -144 -39q-56 0 -167 23.5t-167 23.5q-74 0 -127 -42q-57 -45 -57 -117q0 -127 162 -195q112 -47 266 -47q187 0 325 119
q146 125 146 309v37z" />
    <glyph glyph-name="K" unicode="K" horiz-adv-x="721" 
d="M743 -430v0q15 -45 37 -96q-104 796 -358 1161q134 120 207 344q55 170 57 301q0 19 -22 33l-48 30q5 -116 -59 -301q-80 -231 -203 -321q-55 61 -100 94q-10 6 -68 43l19 479l-164 6q31 -47 57 -59l27 -1702h4l53 1155q183 -158 332 -444q174 -334 229 -723z" />
    <glyph glyph-name="L" unicode="L" horiz-adv-x="586" 
d="M1051 -289v0q137 0 262 62l-8 10q-62 -29 -199 -33q-65 -2 -113 6q-103 17 -331 113q-199 84 -314 90l41 1378l-164 6q33 -47 58 -59l41 -1325q-123 0 -232 -78q-54 -39 -49 -114q9 -123 180 -148q85 -12 166 27q41 20 71 63.5t25 85.5l-12 -14q-14 -47 -76 -80
q-30 -16 -57 -20l8 219q98 -19 348 -109q222 -80 355 -80zM324 -96v0l8 -226q-12 -4 -45 -2q-220 10 -226 111q-4 60 43 84q72 37 166 37q23 0 54 -4z" />
    <glyph glyph-name="M" unicode="M" horiz-adv-x="981" 
d="M168 1341q-6 -2 -10 -4l-115 2q4 -51 10 -57l64 -1462h4l55 1354q393 -406 385 -1188q0 -6 2 -9q7 -6 8 11l15 370q6 153 -39 322q170 170 256 395l51 -1255h4l84 1526l-145 -5q0 -11 -6 -34q-3 -8 6 -15q-36 -144 -70 -225q-74 -175 -201 -315q-30 97 -67 184
q-61 144 -283 403q-2 4 -6 7z" />
    <glyph glyph-name="N" unicode="N" horiz-adv-x="788" 
d="M215 1341q-6 -2 -10 -4l-162 4q31 -45 57 -59l64 -1462h4l55 1354q153 -163 269 -429q138 -319 155 -657l15 -303h4l71 1456l-137 90q0 -25 -4 -47q-4 -21 4 -27l31 -745q-89 451 -283 688q-35 38 -125 139l-6 7z" />
    <glyph glyph-name="O" unicode="O" horiz-adv-x="772" 
d="M500 356v0q121 277 223 697q-178 141 -481 256l-197 -142q21 -718 293 -1159q113 234 162 348zM580 1042v0v-168q0 -235 -218 -706q-206 358 -206 768q0 57 26 244q90 -17 201 -58q33 -12 197 -80z" />
    <glyph glyph-name="P" unicode="P" horiz-adv-x="680" 
d="M549 238v0q82 262 82 735q0 114 -6 241l-107 132q-12 -31 -147 -97q-147 -72 -168 -94l4 164h-162q31 -74 55 -94l54 -1903h4l28 1282l123 -65q125 -90 240 -301zM528 1098q13 -138 13 -176q0 -156 -49 -469q-49 97 -130 155q-40 29 -120 64q-52 23 -52 49q0 118 15 362
q2 38 133 102q54 27 174 83z" />
    <glyph glyph-name="Q" unicode="Q" horiz-adv-x="827" 
d="M563 59v0q60 -82 256 -194l-49 51q-56 31 -113.5 102.5t-76.5 133.5q-13 42 -21 157q16 39 23 47q118 279 223 697q-180 141 -483 256l-197 -142q6 -215 37 -409q-15 -2 -21 -2q-38 -8 -68 -33q-36 -29 -30 -64q25 -151 182 -198q74 -256 193 -453q45 86 84 168
q22 -63 61 -117zM659 1042v0v-168q0 -167 -106 -448q-37 272 -309 332q-8 82 -8 178q0 57 26 244q88 -17 199 -58q49 -18 198 -80zM471 328v0q4 -33 10 -72l-37 -88q-86 145 -131 274h19q37 0 88 13l-53 16q-31 0 -68 10q-37 119 -51 244q80 -21 149 -113q35 -47 54 -139
q10 -49 20 -145zM168 727v0q14 -100 39 -197q-28 22 -43 45q-47 73 -47 105q0 37 51 47z" />
    <glyph glyph-name="R" unicode="R" horiz-adv-x="684" 
d="M541 33v0q250 -369 422 -432q-164 126 -351 422q-170 269 -241 477q125 -74 180 -217q78 249 78 696q0 117 -6 242l-107 133q-17 -30 -162 -103q-128 -64 -153 -90l4 164h-162q25 -55 55 -96l49 -1702h5l32 1083q19 -14 37 -26q127 -267 320 -551zM524 1098
q13 -140 13 -176q0 -174 -41 -441q-22 40 -170 140q-140 95 -140 100q0 253 15 362q6 46 135 105q156 72 172 82z" />
    <glyph glyph-name="S" unicode="S" horiz-adv-x="934" 
d="M848 1047q22 173 74 210q-25 -2 -37 -2q-64 0 -109 43l-45 43q-166 15 -237 15q-401 0 -394 -295q7 -258 197 -330l350 -67q190 -56 195 -279q3 -156 -56 -226q-65 -75 -219 -71q-278 8 -387 55q-131 57 -151 201q12 110 141 160q36 14 168 37q34 6 59 6q84 0 154 -37
q43 -23 41 -78q-4 -91 -201 -104q-55 -4 -104 24t-66 78l-18 19q-4 -44 24 -90t68 -66q80 -40 156 -29q161 24 165 150q2 76 -49 114q-104 78 -221 78q-94 0 -190 -45q-142 -66 -142 -199q0 -30 9 -65q22 -181 167 -252q108 -53 312 -53q218 0 313 118q87 108 80 330
q-8 260 -201 336l-350 74q-185 39 -190 272q-3 178 247 178q198 0 279 -51q67 -42 113 -207q30 -107 32 -143h4z" />
    <glyph glyph-name="T" unicode="T" horiz-adv-x="936" 
d="M1090 1096v0q225 0 385 174l-11 8q-58 -67 -209 -104q-61 -15 -127 -15q-120 0 -383 101q-216 83 -362 83q-193 0 -309 -192q-31 -51 -31 -100q0 -129 71 -208q74 -83 201 -83q118 0 181 90q55 78 55 201q0 22 -16 71v-45q0 -78 -48.5 -143t-124.5 -78l-34 -6
q-11 -2 -64 -2q-157 0 -192 143q-8 33 -2 82q6 50 24 70q98 110 246 110q104 0 328 -67l45 -1467h12l43 1436q197 -59 322 -59z" />
    <glyph glyph-name="U" unicode="U" horiz-adv-x="1006" 
d="M991 1260v0q1 4 6 10q-13 6 -67 51q-37 31 -51 31q-11 0 -11 -13q-6 -192 -6 -258q0 -101 8.5 -302t8.5 -302q0 -219 -77 -306q-82 -93 -298 -93q-195 0 -277 76q-86 79 -86 272q0 114 14.5 341t14.5 341q0 2 -2 135q0 8 4 12h2v-2l2 2q-4 2 -8 7q-113 90 -145 90
q-9 0 -9 -6v-7q49 -175 52 -587q2 -394 59 -539q92 -236 381 -236q276 0 375 216q67 145 73 497q8 414 37 570z" />
    <glyph glyph-name="V" unicode="V" horiz-adv-x="838" 
d="M440 -51v0q365 729 365 1265q0 25 -2 60q-35 33 -53 43l-62 35v-99q0 -439 -131 -809l-147 -415q-139 356 -185 526q-75 277 -75 555q0 50 -3 176q0 8 -20 24.5t-27 14.5l-2 4l-53 23l-2 -35q-4 -70 -4 -96q0 -365 147 -785q132 -376 351 -719l4 2q-62 146 -101 230z" />
    <glyph glyph-name="W" unicode="W" horiz-adv-x="1362" 
d="M420 -82q8 -18 8 -29v-2l4 2q-3 4 -6 13q152 297 258 622q133 -420 377 -798l4 2q-61 145 -100 229q366 727 366 1264q0 26 -2 61q-29 29 -55 43l-62 33v-98q0 -443 -131 -809l-149 -416q-160 418 -207 620q82 293 82 553q0 29 -2 66q-34 31 -55 43l-62 35v-99
q0 -352 -76 -643q-26 -101 -204 -602q-130 332 -183 537q-75 290 -75 565q0 48 -3 176q0 9 -20 25t-29 14v4l-53 23q-6 -101 -6 -146q0 -692 379 -1290z" />
    <glyph glyph-name="X" unicode="X" horiz-adv-x="805" 
d="M1135 -176v0q145 -27 479 -27q-8 15 -53 15h-41l-7 -2h-2v-5h2v5l-198 14q-347 25 -529 190q-245 222 -487 627q47 79 115 182q192 291 393 410q12 10 16 14q17 17 21 19q-23 26 -49 65l2 2q-17 10 -23 13l-143 -107q-177 -133 -369 -539q-7 11 -18 37q-119 288 -119 514
q-1 4 -1 9t1 12v28q-2 3 -2 9q-39 24 -62 24q-2 0 -9 4t-9 4q-16 7 -23 5v-195q0 -163 146 -434q22 -41 61 -92q-143 -322 -215 -643q25 45 43 90q54 233 207 506q243 -374 449 -553q177 -154 424 -201z" />
    <glyph glyph-name="Y" unicode="Y" horiz-adv-x="580" 
d="M420 530q287 600 356 664l-55 149q-93 -193 -158 -346l-188 -446q-137 491 -174 676l-162 116q131 -444 293 -813l49 -1198h4z" />
    <glyph glyph-name="Z" unicode="Z" horiz-adv-x="1026" 
d="M1106 -76v0q201 0 362 -129q-116 191 -399 191q-133 0 -394 -55.5t-394 -55.5q-193 0 -269 41l213 279q311 407 600 407q40 0 88 -31q60 -39 86 -49q-114 146 -264 146q-22 0 -135 -47l309 340q177 195 303 372q-82 -57 -129 -78l-59 -26l-57 -8l-62 -4q-102 -7 -291 63
q-196 72 -290 72q-101 0 -187 -62q-94 -68 -94 -166q0 -95 60.5 -154t156.5 -59q95 0 149 63q52 60 52 156q0 19 -31 107q0 -114 -27 -166q-41 -78 -180 -78q-143 0 -143 152q0 53 76 90q63 31 123 31q102 0 317 -60q205 -57 317 -51l-327 -422q-149 -192 -205 -192
q-162 0 -193 213h-10q0 -258 215 -279l-407 -536q-58 67 -80 100q2 -66 55 -135q-139 -140 -158 -211l181 192q40 -40 146 -70q94 -26 163 -26q138 0 406.5 67.5t406.5 67.5z" />
    <glyph glyph-name="bracketleft" unicode="[" horiz-adv-x="469" 
d="M72 -653v-11h-9v9zM59 -664l322 -14v148q-29 -19 -70 -91l-239 -32l65 1831q24 7 96 21l7 1q87 12 145 86l-346 2l24 -1943h-4v-9z" />
    <glyph glyph-name="backslash" unicode="\" horiz-adv-x="899" 
d="M33 1352q41 -247 262 -447l387 -350q199 -225 199 -530v-19q-27 273 -234 465q-53 49 -383 350q-209 230 -239 531h8z" />
    <glyph glyph-name="bracketright" unicode="]" horiz-adv-x="469" 
d="M350 -653v-11h10v9zM365 -664l-322 -14v148q29 -19 70 -91l237 -32l-63 1831q-26 6 -103 22q-97 21 -145 86l346 2l-25 -1943h5v-9z" />
    <glyph glyph-name="asciicircum" unicode="^" horiz-adv-x="371" 
d="M328 1075q-17 166 -140 250l-4 -8l4 4q-157 -88 -145 -287l88 35q-16 21 -16 55q0 70 55 170q86 -94 86 -221v-35z" />
    <glyph glyph-name="underscore" unicode="_" horiz-adv-x="1104" 
d="M-70 -623l84 -57h1174l-86 57h-1172z" />
    <glyph glyph-name="grave" unicode="`" horiz-adv-x="373" 
d="M225 1163l117 -344l-311 410z" />
    <glyph glyph-name="a" unicode="a" horiz-adv-x="346" 
d="M274 315v0q0 185 43 269l-88 100q-8 -45 -14 -92q-25 22 -86 78l-94 -80q-4 -70 -4 -144q0 -278 84 -438q80 142 106 203q29 -131 80 -213q-27 178 -27 317zM201 420v0q0 -66 10 -125q-2 -64 -68 -184q-34 137 -34 303q0 92 10 176q35 -12 92 -55q-10 -60 -10 -115z" />
    <glyph glyph-name="b" unicode="b" horiz-adv-x="317" 
d="M203 10v0q84 160 84 441q0 67 -8 143l-93 80q-43 -56 -77 -107l22 443h-151q32 -47 57 -62l33 -1005h8l14 276q27 -55 111 -209zM197 592v0q10 -86 10 -174q0 -166 -33 -303q-63 112 -78 188l10 195q58 71 91 94z" />
    <glyph glyph-name="c" unicode="c" horiz-adv-x="254" 
d="M113 590v0q34 -29 116 -107l-22 66q-14 24 -84 123l-88 -107q-4 -61 -4 -123q0 -270 86 -432q98 148 98 297v43q-49 -207 -106 -223q-19 74 -19 184q0 123 23 279z" />
    <glyph glyph-name="d" unicode="d" horiz-adv-x="342" 
d="M29 664v-170q0 -158 8 -236q16 -156 67 -240v-4l9 -8l6 17q41 69 96 176v-187h139q-35 51 -61 68l-25 926q-9 340 -379 340q-104 0 -198 -29q-166 -51 -166 -148q2 -6 8 -39q31 -77 160 -77q45 0 134 16t134 16q62 0 113 -26q-31 80 -154 80q-28 0 -172 -29
q-49 -10 -86 -10q-70 0 -98 43q-8 12 -8 22q0 80 116 117q84 27 183 27q257 0 327 -164q33 -77 33 -170v-438q-65 88 -192 133zM215 465v0v-197q-18 -59 -78 -157q-35 129 -35 378v91q58 -33 113 -115z" />
    <glyph glyph-name="e" unicode="e" horiz-adv-x="266" 
d="M90 260v0q146 121 146 221q0 45 -29 78q-14 27 -88 109l-86 -107q-2 -45 -2 -92q0 -289 94 -463q98 150 98 301v39q-51 -211 -110 -221q-17 55 -23 135zM164 549v0q18 -31 18 -68q0 -86 -92 -182q-2 127 23 291q22 -10 51 -41z" />
    <glyph glyph-name="f" unicode="f" horiz-adv-x="307" 
d="M643 1075v0q53 0 91 25q44 28 44 78q0 96 -114 141q-83 33 -195 33q-198 0 -316 -89q-133 -100 -126 -292l6 -166l-45 -4q-74 0 -84 53h-8q6 -106 139 -111l39 -1093l18 12l23 1090l71 18l-4 8l-8 -2l4 -8q72 33 135 33q49 0 84 -19q24 -13 88 -71q-88 151 -221 151
q-37 0 -145 -35v97q0 201 72 294q82 105 278 105q97 0 182 -29q115 -39 115 -116q0 -56 -72 -56q-50 0 -147.5 27t-147.5 27q-116 0 -159 -125q49 67 120 67q48 0 141.5 -21.5t141.5 -21.5z" />
    <glyph glyph-name="g" unicode="g" horiz-adv-x="373" 
d="M293 143v0l16 480l-78 67v-153q-69 79 -186 120q-6 0 -6 -6q0 -278 4 -340q14 -215 82 -315l6 18q35 56 100 164v-481q0 -318 -350 -318q-307 0 -307 127q0 66 104 66q44 0 130.5 -18.5t130.5 -18.5q124 0 151 80q-53 -29 -113 -29q-45 0 -134 16.5t-134 16.5
q-58 0 -103 -28q-52 -32 -52 -87q0 -98 139 -145q97 -33 213 -33q114 0 239 96q142 109 140 246q-3 174 8 475zM231 461v0v-209q0 -21 -81 -152q-39 144 -37 308l2 163q57 -32 116 -110z" />
    <glyph glyph-name="h" unicode="h" horiz-adv-x="315" 
d="M332 -575v0l14 -25l8 4q-110 311 -110 733q0 228 35 457l-93 80l-80 -109l23 445h-152q33 -49 58 -64l33 -1007h8l30 557q44 55 74 82q-10 -932 152 -1153z" />
    <glyph glyph-name="i" unicode="i" horiz-adv-x="176" 
d="M88 725l47 182l-102 54zM94 -16l49 669h-147q18 -32 51 -47l39 -622h8z" />
    <glyph glyph-name="j" unicode="j" horiz-adv-x="195" 
d="M82 729l51 180l-104 58zM117 -207v0l26 864h-155q18 -32 53 -47l22 -819q2 -87 -32 -164q-71 -159 -328 -159q-97 0 -180 26q-117 37 -117 119q0 65 107 65q33 0 86 -10q137 -26 172 -26q125 0 151 77q-51 -26 -112 -26q-45 0 -134.5 16.5t-134.5 16.5q-119 0 -155 -95
l-7 -26q0 -95 162 -144q99 -30 195 -30q368 0 381 362z" />
    <glyph glyph-name="k" unicode="k" horiz-adv-x="340" 
d="M221 178v0q82 119 82 326q0 53 -6 110l-92 60q-64 -78 -99 -133l23 475h-154q35 -47 60 -62l33 -1009h8l18 358q100 -219 256 -360q88 -79 148 -103l4 8q-162 105 -281 330zM217 592v0q6 -55 6 -113q0 -129 -35 -231q-51 112 -82 229q72 90 111 115z" />
    <glyph glyph-name="l" unicode="l" horiz-adv-x="176" 
d="M121 -117l22 1137h-147q33 -49 57 -64l60 -1073h8z" />
    <glyph glyph-name="m" unicode="m" horiz-adv-x="498" 
d="M424 -6l39 571l-64 86q-41 -76 -104 -143q-6 117 -49 137l-6 10q-41 -75 -103 -141l13 141h-154q20 -30 53 -47l41 -620h8l31 411q14 62 80 113q49 -158 47 -518h6l31 409q14 60 76 107q49 -156 47 -516h8z" />
    <glyph glyph-name="n" unicode="n" horiz-adv-x="336" 
d="M262 -23q14 121 39 588l-63 86q-39 -76 -101 -141l10 145h-151q18 -30 53 -47l39 -622h8l33 393q6 74 80 131q39 -127 45 -533h8z" />
    <glyph glyph-name="o" unicode="o" horiz-adv-x="336" 
d="M229 197q55 138 78 340q-71 73 -190 129l-86 -80q6 -375 121 -582l8 21zM227 532v0q2 -38 2 -75q0 -174 -55 -355q-65 172 -65 387q0 52 4 101q41 -12 114 -58z" />
    <glyph glyph-name="p" unicode="p" horiz-adv-x="348" 
d="M233 4v0q84 160 84 440q0 68 -6 144l-90 80q-45 -58 -78 -105l4 88h-153q35 -47 59 -61l33 -1006h8l31 627q27 -57 108 -207zM227 586v0q11 -88 11 -176q0 -166 -33 -304q-60 109 -76 187l10 196q56 72 88 97z" />
    <glyph glyph-name="q" unicode="q" horiz-adv-x="336" 
d="M31 664v0v-177q0 -346 78 -477v-24l12 30l108 209v62h-10q-2 -43 -80 -183q-35 129 -35 379v90q56 -32 109 -114l29 -881h8l55 1069l-90 33v-21q-2 -18 -2 -38v-86q-61 83 -182 129z" />
    <glyph glyph-name="r" unicode="r" horiz-adv-x="322" 
d="M238 635v0l51 -74q-27 -115 -37 -184q-8 82 -43 145q-76 -55 -92 -125l-25 -438l-37 651q-30 13 -45 33h127l-12 -156q72 76 113 148z" />
    <glyph glyph-name="s" unicode="s" horiz-adv-x="401" 
d="M147 6q35 98 244 189q-143 112 -280 272q39 37 122 65q33 -38 48 -161h8q6 147 35 196l-78 86q-33 -71 -99 -112q-8 -4 -137 -70q140 -152 285 -260q-35 -45 -133 -80q-47 47 -41 141h-10q-15 -75 -41 -180z" />
    <glyph glyph-name="t" unicode="t" horiz-adv-x="199" 
d="M375 729v0l2 -4l8 4q-61 127 -205 127q-26 0 -51 -4l4 164h-153q32 -49 57 -64l8 -127q-84 -28 -139 -28q-76 0 -86 53l-8 -2l4 -25q28 -84 141 -84q43 0 92 11l51 -873h9l20 899q55 19 107 19q90 0 139 -66z" />
    <glyph glyph-name="u" unicode="u" horiz-adv-x="352" 
d="M279 301v0q0 180 45 266l-91 101q-28 -142 -28 -269q0 -61 8 -123q0 -63 -68 -186q-41 119 -41 279q0 108 23 221l-94 78q-2 -78 -2 -150q0 -356 88 -528q78 141 108 205q31 -134 78 -218q-26 183 -26 324z" />
    <glyph glyph-name="v" unicode="v" horiz-adv-x="371" 
d="M182 20v0l6 -20q136 197 152 569l-86 97q4 -54 4 -93q0 -274 -88 -477q-55 215 -55 367q0 76 18 123l-102 86v-64q0 -399 151 -588z" />
    <glyph glyph-name="w" unicode="w" horiz-adv-x="543" 
d="M231 655v0q2 -9 0 -116q-4 -270 -75 -449q-52 217 -52 371q0 74 17 125l-92 88q-11 -453 139 -666l4 -16q64 84 100 266q39 -158 101 -242l4 -18q123 203 137 575l-80 101q4 -58 4 -94q0 -279 -80 -486q-49 217 -49 371q0 76 17 127l-90 86q-5 -12 -5 -23z" />
    <glyph glyph-name="x" unicode="x" horiz-adv-x="379" 
d="M340 16v0l20 -16l7 8q-99 80 -166 281q106 227 153 262l-43 113q-63 -125 -135 -297q-16 61 -43 204l-121 95q64 -228 133 -377q-67 -195 -84 -264l-20 -80l10 -2q51 131 123 284q8 -20 53 -88q66 -100 113 -123z" />
    <glyph glyph-name="y" unicode="y" horiz-adv-x="311" 
d="M266 -334l23 936l-74 68l2 -410q0 -18 -74 -156q-37 154 -37 422q0 90 13 131h-146q39 -32 70 -47v-184q0 -229 72 -416v-16q71 129 102 190v-489q0 -332 -321 -332q-267 0 -267 137q0 68 95 68q39 0 115.5 -18.5t115.5 -18.5q111 0 139 82q-49 -29 -104 -29
q-40 0 -120 15.5t-120 15.5q-53 0 -95 -32q-46 -34 -46 -85q0 -92 121 -141q91 -37 196 -37q137 0 238.5 92t101.5 228v26z" />
    <glyph glyph-name="z" unicode="z" horiz-adv-x="406" 
d="M66 20q59 13 129 13q90 0 120 -37l60 129q-43 29 -72 141l-8 -2q2 -33 2 -55q0 -113 -37 -127q-37 -6 -65 -6q-56 0 -84 20q147 254 282 557l-51 -10q-61 -12 -129 -12q-92 0 -127 35l-66 -138q41 2 66 -159h8q-2 34 -2 69q0 101 31 133q53 9 88 9t59 -9l-106 -256
q-34 -82 -152 -307z" />
    <glyph glyph-name="braceleft" unicode="{" horiz-adv-x="506" 
d="M76 311l-4 6l-13 -8l11 -6q4 4 6 8zM193 115q10 -41 10 -95q0 -95 -31 -213q-51 -195 -51 -284q0 -101 82 -174q39 -35 100 -25q86 14 86 121q0 80 -41 135q-44 59 -121 68l-22 10q55 10 106 -6q143 -45 150 -176q7 -140 -131 -166q-84 -16 -140 24q-143 103 -143 240
q0 85 41 213q60 189 59 279q-1 38 -16 88q-33 108 -76 153l4 2l-6 4q42 44 76 154q15 50 16 88q1 91 -59 279q-41 128 -41 213q0 140 143 239q58 40 140 25q138 -26 131 -164q-7 -130 -150 -176q-59 -19 -106 -8l22 10q56 6 99.5 42.5t54.5 90.5q8 40 8 70q0 105 -86 120
q-62 10 -98 -22q-84 -76 -84 -176q0 -89 51 -285q31 -119 31 -213q0 -51 -11 -94q-55 -133 -114 -195q57 -59 117 -196z" />
    <glyph glyph-name="bar" unicode="|" horiz-adv-x="342" 
d="M215 537v0l-16 411q-25 15 -58 62h152l-17 -318l17 -612q26 -17 61 -68h-139v187q-55 -107 -96 -176l-6 -17l-9 8v4q-51 84 -67 240q-8 78 -8 236v170l-6 6q127 -45 192 -133zM215 465q-55 82 -113 115v-91q0 -249 35 -378q60 98 78 157v197z" />
    <glyph glyph-name="braceright" unicode="}" horiz-adv-x="494" 
d="M410 322l8 -9l10 6l-12 9zM293 125q67 141 117 197q-56 61 -115 194q-10 41 -10 94q0 91 32 213q50 191 50 285q0 31 -5 51q-17 68 -77 123q-39 36 -101 25q-84 -14 -84 -121q0 -82 40 -136q43 -59 122 -67l23 -10q-55 -10 -107 6q-145 45 -151 176q-7 139 133 166
q82 16 139 -25q143 -103 143 -239q0 -84 -41 -213q-60 -191 -59 -279q1 -45 14 -88q33 -106 78 -153l-6 -5l4 -2q-45 -47 -78 -153q-13 -43 -14 -88q-1 -88 59 -279q41 -129 41 -213q0 -140 -143 -239q-58 -40 -139 -25q-140 26 -133 164q6 130 151 176q57 18 107 8l-23 -10
q-56 -6 -101 -43t-55 -90q-6 -32 -6 -70q0 -107 84 -121q64 -10 101 23q58 52 77 125q5 19 5 51q0 92 -50 285q-32 123 -32 213q0 51 10 94z" />
    <glyph glyph-name="asciitilde" unicode="~" horiz-adv-x="815" 
d="M774 993q-80 -86 -166 -86q-53 0 -160.5 48.5t-160.5 48.5q-102 0 -240 -173l-8 -10q90 111 188 111q55 0 157 -43t157 -43q118 0 235 141z" />
    <glyph glyph-name="glyph707" unicode="&#xa0;" horiz-adv-x="377" 
 />
    <glyph glyph-name="exclamdown" unicode="&#xa1;" horiz-adv-x="176" 
d="M106 -229q29 -13 56 -56l-158 6l66 1018zM20 893l46 164l49 -211z" />
    <glyph glyph-name="cent" unicode="&#xa2;" horiz-adv-x="1462" 
d="M1247 145v0q70 0 191 23q-52 164 -166 283q10 47 10 94q0 181 -98.5 317.5t-270.5 194.5q-55 160 -170 289q-125 -109 -182 -289q-170 -58 -268 -195.5t-98 -316.5q0 -51 10 -96q-117 -121 -162 -283q107 -21 190 -21q66 0 127 11q158 -152 379 -152q222 0 379 152
q62 -11 129 -11zM739 1257v0q72 -81 113 -182q-55 10 -113 10q-57 0 -110 -10q39 101 110 182zM938 983v0q132 -59 207.5 -176t75.5 -262q0 -19 -2 -43q-129 112 -291 155q26 93 26 191q0 65 -16 135zM874 1008v0q21 -80 21 -160q0 -92 -27 -180q-63 12 -127 12
q-65 0 -129 -12q-26 88 -26 180q0 82 20 160q64 18 133 18q70 0 135 -18zM1257 383v0q64 -78 101 -170q-55 -8 -111 -8q-41 0 -82 6q64 78 92 172zM907 600v0q174 -45 301 -168q-28 -119 -110 -211q-185 43 -316 172q82 92 125 207zM741 621v0q52 0 107 -9
q-39 -96 -109 -176q-67 80 -108 176q59 9 110 9zM526 848v0q0 -98 27 -193q-164 -43 -295 -155q-2 20 -2 45q0 145 76 261.5t209 176.5q-15 -70 -15 -135zM739 348v0q131 -125 308 -174q-134 -111 -308 -111t-307 111q176 47 307 174zM571 598q45 -113 127 -205
q-135 -131 -317 -172q-82 90 -111 207q127 127 301 170zM221 377v0q31 -90 90 -166q-39 -6 -78 -6q-55 0 -108 8q37 88 96 164z" />
    <glyph glyph-name="sterling" unicode="&#xa3;" horiz-adv-x="1313" 
d="M324 -41v0l79 549l-151 -6l-23 51h181l10 72l-219 -4l-47 59l266 -2q-5 22 -58 176q-40 117 -43 217q-7 289 420 289q90 0 254 -14q84 -84 164 -84q21 0 39 2q-49 -35 -78 -207q-6 -36 -20 -146h-4q-4 42 -35 142q-50 161 -121 202q-87 50 -297 50q-74 0 -164 -50
q-100 -56 -100 -125q0 -79 41 -198q56 -163 74 -250l337 20l56 -90l-396 19l-14 -82l432 -19l58 -84l-496 41l-121 -528q115 -6 314 -90q228 -96 331 -113q48 -8 113 -6q137 4 199 33l8 -10q-125 -62 -262 -62q-133 0 -355 80q-250 90 -348 109l-8 -219q27 4 57 20
q62 33 76 80l12 14q5 -42 -25 -85.5t-71 -63.5q-81 -39 -166 -27q-171 25 -180 148q-5 75 49 114q109 78 232 78zM324 -96q-31 4 -54 4q-94 0 -166 -37q-47 -24 -43 -84q6 -101 226 -111q33 -2 45 2z" />
    <glyph glyph-name="yen" unicode="&#xa5;" horiz-adv-x="672" 
d="M70 352h270l-6 127h-131l-84 58h211q-162 366 -291 806l162 -116q37 -185 174 -676l188 446q65 153 158 346l55 -149q-69 -64 -354 -657h143l86 -58h-233l-4 -127h102l86 -57h-188l-29 -963h-4l-39 963h-188z" />
    <glyph glyph-name="brokenbar" unicode="&#xa6;" 
d="M127 0h768v1358h-768v-1358zM254 129v1100h512v-1100h-512z" />
    <glyph glyph-name="section" unicode="&#xa7;" horiz-adv-x="934" 
d="M188 367q-59 -82 -59 -142q0 -65 68 -86q112 -34 358 -43q114 -4 176 45q67 54 60 166q-5 70 -55 130.5t-118 74.5l-317 63q-171 66 -178 304q-2 51 18 73q-30 68 -32 166q-7 273 356 273q39 0 215 -15q78 -78 139 -78h33q-47 -29 -68 -192q0 -4 -16 -137h-4
q0 31 -29 133q-43 151 -121 198q-65 39 -233 39q-227 0 -223 -163q6 -204 172 -252q53 -15 315 -68q178 -71 182 -309q2 -85 -4 -113q17 -53 19 -127q4 -145 -102 -225q-94 -72 -244 -72q-175 0 -271 47q-159 78 -172 242q23 14 135 68zM174 897q19 -170 170 -213
q9 -3 315 -68q82 -34 117 -92q-12 196 -172 228l-317 63q-70 27 -113 82z" />
    <glyph glyph-name="dieresis" unicode="&#xa8;" horiz-adv-x="672" 
d="M522 1180l-55 235l102 -53zM160 1184l-56 235l103 -53z" />
    <glyph glyph-name="copyright" unicode="&#xa9;" horiz-adv-x="883" 
d="M846 1055v0q-213 139 -574 254l-235 -140q24 -718 348 -1157q137 237 193 344q146 278 268 699zM678 877q0 -240 -262 -715q-134 194 -191 367q-59 181 -59 409q0 57 31 246q100 -14 243 -58q76 -23 238 -79v-170zM502 883v0l-17 49q-20 26 -86 119l-86 -103
q-6 -63 -6 -123q0 -272 88 -430q97 144 97 295v4q-46 -180 -111 -192q-21 76 -21 192q0 125 25 289q37 -29 117 -100z" />
    <glyph glyph-name="ordfeminine" unicode="&#xaa;" horiz-adv-x="346" 
d="M274 868q0 41 43 125l-88 101q-8 -45 -14 -93l-86 78l-94 -80q-4 -69 -4 -143q0 -112 14 -156q6 -20 70 -139q39 66 106 203q29 -131 80 -213q-27 178 -27 317zM209 856l-2 6q4 -8 4 -14q0 -60 -68 -184q-6 18 -24 75q-10 32 -10 84q0 92 10 176q35 -12 92 -55
q-4 -24 -4 -22q0 -72 2 -66z" />
    <glyph glyph-name="guillemotleft" unicode="&#xab;" horiz-adv-x="854" 
d="M111 236q128 0 233 97q91 83 143 214q-120 237 -333 254l-33 -99q14 3 39 5q154 13 305 -185q-43 -77 -105 -133q-80 -72 -149 -63q-49 6 -72 24zM111 236q128 0 233 97q91 83 143 214q-120 237 -333 254l-33 -99q14 3 39 5q154 13 305 -185q-43 -77 -105 -133
q-80 -72 -149 -63q-49 6 -72 24zM438 236q127 0 233 97q91 83 144 214q-121 237 -334 254l-32 -99q24 4 38 5q155 13 306 -185q-44 -78 -105 -133q-80 -72 -149 -63q-49 6 -72 24z" />
    <glyph glyph-name="logicalnot" unicode="&#xac;" 
d="M127 0h768v1358h-768v-1358zM254 129v1100h512v-1100h-512z" />
    <glyph glyph-name="minus" unicode="&#xad;" horiz-adv-x="592" 
d="M31 545h446l86 -58h-448z" />
    <glyph glyph-name="minus" unicode="&#x2212;" horiz-adv-x="592" 
d="M31 545h446l86 -58h-448z" />
    <glyph glyph-name="registered" unicode="&#xae;" horiz-adv-x="883" 
d="M385 12v0q137 237 193 344q146 278 268 699q-213 139 -576 254l-233 -140q24 -718 348 -1157zM301 354q-135 258 -135 584q0 57 31 246q100 -14 243 -58q76 -23 238 -79v-170q0 -170 -133 -459q-23 24 -39 51q-76 162 -109 225q39 -18 49 -49q31 115 31 256v94l-47 64
q-8 -24 -43 -43l-53 -29v53h-72q6 -16 21 -47zM326 743q41 -99 108 -208q49 -80 53 -84q19 -27 54 -43q-52 -117 -125 -246q-62 90 -109 176h8zM428 944q4 -55 4 -65q0 -60 -12 -150q-2 6 -49 39q-27 19 -41 33q0 110 4 139q2 14 39 33l51 26z" />
    <glyph glyph-name="macron" unicode="&#xaf;" 
d="M127 0h768v1358h-768v-1358zM254 129v1100h512v-1100h-512z" />
    <glyph glyph-name="macron" unicode="&#x2c9;" 
d="M127 0h768v1358h-768v-1358zM254 129v1100h512v-1100h-512z" />
    <glyph glyph-name="degree" unicode="&#xb0;" horiz-adv-x="549" 
d="M332 1386v44l-64 18q-23 6 -65 14q-8 -37 -8 -61q0 -105 67 -191q70 117 70 176zM457 1466q-74 -189 -207 -350q-148 148 -158 389l107 47q170 -43 258 -86z" />
    <glyph glyph-name="plusminus" unicode="&#xb1;" horiz-adv-x="684" 
d="M651 487l-86 58h-194l10 194l-82 86l14 -280h-280l84 -58h196l15 -225l10 -69l33 294h280zM78 158l84 -58h448l-86 58h-446z" />
    <glyph glyph-name="twosuperior" unicode="&#xb2;" 
d="M127 0h768v1358h-768v-1358zM254 129v1100h512v-1100h-512z" />
    <glyph glyph-name="threesuperior" unicode="&#xb3;" 
d="M127 0h768v1358h-768v-1358zM254 129v1100h512v-1100h-512z" />
    <glyph glyph-name="acute" unicode="&#xb4;" horiz-adv-x="373" 
d="M147 1163l-116 -344l311 410z" />
    <glyph glyph-name="mu1" unicode="&#xb5;" horiz-adv-x="352" 
d="M279 301v0q0 180 45 266l-91 101q-28 -142 -28 -269q0 -61 8 -123q0 -63 -68 -186q-41 119 -41 279q0 108 23 221l-94 78q-2 -78 -2 -150q0 -173 73 -500q69 -309 119 -405l-39 217q-31 173 -22 199q4 8 65 166q31 -134 78 -218q-26 183 -26 324z" />
    <glyph glyph-name="paragraph" unicode="&#xb6;" 
d="M127 0h768v1358h-768v-1358zM254 129v1100h512v-1100h-512z" />
    <glyph glyph-name="ch225" unicode="&#xb7;" horiz-adv-x="377" 
 />
    <glyph glyph-name="cedilla" unicode="&#xb8;" 
d="M127 0h768v1358h-768v-1358zM254 129v1100h512v-1100h-512z" />
    <glyph glyph-name="onesuperior" unicode="&#xb9;" 
d="M127 0h768v1358h-768v-1358zM254 129v1100h512v-1100h-512z" />
    <glyph glyph-name="ordmasculine" unicode="&#xba;" 
d="M127 0h768v1358h-768v-1358zM254 129v1100h512v-1100h-512z" />
    <glyph glyph-name="guillemotright" unicode="&#xbb;" horiz-adv-x="854" 
d="M815 236q-127 0 -233 97q-91 83 -144 214q121 237 334 254l33 -99q-14 3 -39 5q-155 13 -305 -185q43 -78 104 -133q80 -72 150 -63q49 6 71 24zM815 236q-127 0 -233 97q-91 83 -144 214q121 237 334 254l33 -99q-14 3 -39 5q-155 13 -305 -185q43 -78 104 -133
q80 -72 150 -63q49 6 71 24zM487 236q-127 0 -233 97q-90 84 -143 214q120 237 333 254l33 -99q-14 3 -39 5q-154 13 -305 -185q43 -77 105 -133q80 -72 149 -63q49 6 72 24z" />
    <glyph glyph-name="onequarter" unicode="&#xbc;" 
d="M127 0h768v1358h-768v-1358zM254 129v1100h512v-1100h-512z" />
    <glyph glyph-name="onehalf" unicode="&#xbd;" 
d="M127 0h768v1358h-768v-1358zM254 129v1100h512v-1100h-512z" />
    <glyph glyph-name="threequarters" unicode="&#xbe;" 
d="M127 0h768v1358h-768v-1358zM254 129v1100h512v-1100h-512z" />
    <glyph glyph-name="questiondown" unicode="&#xbf;" horiz-adv-x="709" 
d="M307 870l47 162l45 -213zM170 205q156 194 172 274q8 43 0 90q-20 113 -84 164l14 12q147 -120 144 -253q-3 -118 -119 -279q-147 -204 -160 -281q-6 -38 -4 -55q10 -71 88 -133q49 -39 160 -35q184 7 184 158v24q0 63 -80 107q-63 35 -137 45l-35 14q31 2 43 2
q67 -2 129 -22q94 -31 117 -51q70 -61 68 -125q-4 -110 -119 -148q-59 -20 -135 -24q-123 -7 -203 39q-179 102 -176 215q3 100 133 262z" />
    <glyph glyph-name="Agrave" unicode="&#xc0;" horiz-adv-x="1087" 
d="M498 1735l116 -344l-311 409zM1102 -289q-187 469 -252 656q-53 4 -137 69l-135 105l-64 -293q-33 -150 -86 -289q-83 -217 -209 -217q-73 0 -125.5 49.5t-50.5 122.5q7 300 154 494q116 153 249 190q22 6 56 10q86 422 86 635q0 57 -10 115l131 -94l198 -795
q39 18 94 131q-22 -135 -79 -199q129 -503 192 -688zM664 997v0l-74 -393q72 -14 131 -53l86 -57q-88 270 -143 503zM473 567v0q-10 0 -18 -4q-50 -35 -125 -123q-93 -109 -119 -149q-152 -232 -141 -373q8 -111 100 -111q145 0 199 222v-4q26 108 114 540q-4 2 -10 2z" />
    <glyph glyph-name="Aacute" unicode="&#xc1;" horiz-adv-x="1087" 
d="M713 1757l194 66l-311 -410zM1102 -289q-187 469 -252 656q-53 4 -137 69l-135 105l-64 -293q-33 -150 -86 -289q-83 -217 -209 -217q-73 0 -125.5 49.5t-50.5 122.5q7 300 154 494q116 153 249 190q22 6 56 10q86 422 86 635q0 57 -10 115l131 -94l198 -795
q39 18 94 131q-22 -135 -79 -199q129 -503 192 -688zM664 997v0l-74 -393q72 -14 131 -53l86 -57q-88 270 -143 503zM473 567v0q-10 0 -18 -4q-50 -35 -125 -123q-93 -109 -119 -149q-152 -232 -141 -373q8 -111 100 -111q145 0 199 222v-4q26 108 114 540q-4 2 -10 2z" />
    <glyph glyph-name="Acircumflex" unicode="&#xc2;" horiz-adv-x="1087" 
d="M827 1552l-92 -45v43q0 156 -112 269q-70 -121 -70 -207q0 -45 20 -68l-112 -43q-2 20 -2 39q0 212 188 311q-3 -1 -6 -4l6 11q160 -105 180 -306zM1102 -289q-187 469 -252 656q-53 4 -137 69l-135 105l-64 -293q-33 -150 -86 -289q-83 -217 -209 -217
q-73 0 -125.5 49.5t-50.5 122.5q7 300 154 494q116 153 249 190q22 6 56 10q86 422 86 635q0 57 -10 115l131 -94l198 -795q39 18 94 131q-22 -135 -79 -199q129 -503 192 -688zM664 997v0l-74 -393q72 -14 131 -53l86 -57q-88 270 -143 503zM473 567v0q-10 0 -18 -4
q-50 -35 -125 -123q-93 -109 -119 -149q-152 -232 -141 -373q8 -111 100 -111q145 0 199 222v-4q26 108 114 540q-4 2 -10 2z" />
    <glyph glyph-name="Atilde" unicode="&#xc3;" horiz-adv-x="1087" 
d="M922 1645l2 -7q-101 -141 -203 -141q-45 0 -135 43t-135 43q-84 0 -162 -110l6 10q103 172 207 172q38 0 137 -48t139 -48q74 0 144 86zM1102 -289q-187 469 -252 656q-53 4 -137 69l-135 105l-64 -293q-33 -150 -86 -289q-83 -217 -209 -217q-73 0 -125.5 49.5
t-50.5 122.5q7 300 154 494q116 153 249 190q22 6 56 10q86 422 86 635q0 57 -10 115l131 -94l198 -795q39 18 94 131q-22 -135 -79 -199q129 -503 192 -688zM664 997v0l-74 -393q72 -14 131 -53l86 -57q-88 270 -143 503zM473 567v0q-10 0 -18 -4q-50 -35 -125 -123
q-93 -109 -119 -149q-152 -232 -141 -373q8 -111 100 -111q145 0 199 222v-4q26 108 114 540q-4 2 -10 2z" />
    <glyph glyph-name="Adieresis" unicode="&#xc4;" horiz-adv-x="1087" 
d="M774 1507l-55 236l102 -53zM412 1511l-56 236l103 -53zM1102 -289q-187 469 -252 656q-53 4 -137 69l-135 105l-64 -293q-33 -150 -86 -289q-83 -217 -209 -217q-73 0 -125.5 49.5t-50.5 122.5q7 300 154 494q116 153 249 190q22 6 56 10q86 422 86 635q0 57 -10 115
l131 -94l198 -795q39 18 94 131q-22 -135 -79 -199q129 -503 192 -688zM664 997v0l-74 -393q72 -14 131 -53l86 -57q-88 270 -143 503zM473 567v0q-10 0 -18 -4q-50 -35 -125 -123q-93 -109 -119 -149q-152 -232 -141 -373q8 -111 100 -111q145 0 199 222v-4q26 108 114 540
q-4 2 -10 2z" />
    <glyph glyph-name="Aring" unicode="&#xc5;" horiz-adv-x="1087" 
d="M940 1696q-68 -155 -166 -281q-44 -57 -119 -137q-204 176 -217 465l148 55q225 -47 354 -102zM768 1599v52q-33 10 -88 24q-4 2 -88 17q-12 -45 -12 -74q0 -127 92 -229q96 139 96 210zM1102 -289q-187 469 -252 656q-53 4 -137 69l-135 105l-64 -293q-33 -150 -86 -289
q-83 -217 -209 -217q-73 0 -125.5 49.5t-50.5 122.5q7 300 154 494q116 153 249 190q22 6 56 10q86 422 86 635q0 57 -10 115l131 -94l198 -795q39 18 94 131q-22 -135 -79 -199q129 -503 192 -688zM664 997v0l-74 -393q72 -14 131 -53l86 -57q-88 270 -143 503zM473 567v0
q-10 0 -18 -4q-50 -35 -125 -123q-93 -109 -119 -149q-152 -232 -141 -373q8 -111 100 -111q145 0 199 222v-4q26 108 114 540q-4 2 -10 2z" />
    <glyph glyph-name="AE" unicode="&#xc6;" horiz-adv-x="1626" 
d="M2095 -276v0q-209 129 -377 129q-120 0 -348 -72q-201 -64 -297 -68l-43 -2q-145 459 -201 692q-72 7 -147 62l-104 76q-124 -422 -199 -582q-102 -217 -225 -217q-77 0 -123.5 48t-38.5 124q31 301 194 494q141 167 267 159q-61 -52 -129 -127q-114 -125 -131 -149
q-173 -239 -175 -373q-2 -111 93 -111q145 0 215 222v-4q28 75 182 583q120 396 139 635q6 75 0 115l135 -70q62 -32 234 -86q182 -57 235 -57q117 0 252 117q-80 -179 -272 -179q-83 0 -305 64l-142 41l103 -627q114 90 176 90q147 0 280 -192q-61 55 -118 94
q-32 22 -99 22q-116 0 -225 -129q84 -481 146 -639q101 11 235 43q266 64 391 64q279 0 422 -190zM702 997v0l-106 -393q32 -6 129 -43l68 -26q-52 221 -91 462z" />
    <glyph glyph-name="Ccedilla" unicode="&#xc7;" horiz-adv-x="840" 
d="M555 -283l-164 -364l72 454zM1100 -287v0l-60 -14q-61 -6 -120 -6q-236 0 -436 102q-209 106 -328 301q-125 205 -125 463q0 365 237 598q71 70 166 121q110 59 195 59q80 0 133 -57q35 -49 35 -106q0 -28 -123 -249t-123 -261q0 -82 78 -164q-142 63 -142 213
q0 57 110 265.5t110 235.5q0 103 -89 103q-41 0 -92 -21q-393 -162 -393 -673q0 -86 10 -185q109 -491 523 -674q58 -26 184 -38q99 -10 188 0l37 4q81 9 336 98v-4q-248 -96 -311 -111z" />
    <glyph glyph-name="Egrave" unicode="&#xc8;" horiz-adv-x="907" 
d="M498 1735l116 -344l-311 409zM506 623v0h4l-41 -17h-2l-111 -16l-8 -359h8q106 0 170 -58t64 -163q0 -16 -37 -104v86q0 62 -46 104q-42 38 -106 45l-53 6l-8 -274h41q89 0 301 49q276 64 403 64q281 0 400 -191l-47 39q-62 51 -199 78q-61 12 -117 12q-119 0 -363 -72
q-235 -69 -364 -63q-11 1 -55 8l-2 -78h-12l-4 80q-119 31 -199 135q-29 38 -29 82q0 86 65 146q61 57 148 65l-16 353q-248 14 -248 231q0 35 6 80h14q-4 -101 41 -167q50 -75 148 -75l39 6l-10 256q-11 -4 -25 -4q-116 0 -172 117q-23 48 -23 98q0 45 23 84
q81 138 201 146q90 6 269 -63q187 -72 273 -72q39 0 86 12q103 26 148 76l37 28q-105 -178 -299 -178q-91 0 -299 64q-28 9 -129 36l-6 -208q38 47 38 102v90l7 -18q22 -57 22 -91q0 -122 -67 -180l-9 -280q189 53 213 53q152 0 258 -193q-47 48 -106 95q-35 22 -96 22
q-56 0 -119 -24zM266 1268q-90 -2 -155 -78q-29 -34 -13 -103q23 -98 123 -98q27 0 55 6zM307 152q-68 0 -115 -29q-57 -34 -57 -98q0 -54 25 -76q64 -57 157 -72z" />
    <glyph glyph-name="Eacute" unicode="&#xc9;" horiz-adv-x="907" 
d="M670 1720l194 66l-311 -410zM506 623v0h4l-41 -17h-2l-111 -16l-8 -359h8q106 0 170 -58t64 -163q0 -16 -37 -104v86q0 62 -46 104q-42 38 -106 45l-53 6l-8 -274h41q89 0 301 49q276 64 403 64q281 0 400 -191l-47 39q-62 51 -199 78q-61 12 -117 12q-119 0 -363 -72
q-235 -69 -364 -63q-11 1 -55 8l-2 -78h-12l-4 80q-119 31 -199 135q-29 38 -29 82q0 86 65 146q61 57 148 65l-16 353q-248 14 -248 231q0 35 6 80h14q-4 -101 41 -167q50 -75 148 -75l39 6l-10 256q-11 -4 -25 -4q-116 0 -172 117q-23 48 -23 98q0 45 23 84
q81 138 201 146q90 6 269 -63q187 -72 273 -72q39 0 86 12q103 26 148 76l37 28q-105 -178 -299 -178q-91 0 -299 64q-28 9 -129 36l-6 -208q38 47 38 102v90l7 -18q22 -57 22 -91q0 -122 -67 -180l-9 -280q189 53 213 53q152 0 258 -193q-47 48 -106 95q-35 22 -96 22
q-56 0 -119 -24zM266 1268q-90 -2 -155 -78q-29 -34 -13 -103q23 -98 123 -98q27 0 55 6zM307 152q-68 0 -115 -29q-57 -34 -57 -98q0 -54 25 -76q64 -57 157 -72z" />
    <glyph glyph-name="Ecircumflex" unicode="&#xca;" horiz-adv-x="907" 
d="M809 1534l-92 -45v43q0 156 -113 268q-69 -121 -69 -207q0 -45 20 -67l-113 -43q-1 20 -1 39q0 211 188 311q-3 -1 -6 -4l6 10q159 -104 180 -305zM506 623v0h4l-41 -17h-2l-111 -16l-8 -359h8q106 0 170 -58t64 -163q0 -16 -37 -104v86q0 62 -46 104q-42 38 -106 45
l-53 6l-8 -274h41q89 0 301 49q276 64 403 64q281 0 400 -191l-47 39q-62 51 -199 78q-61 12 -117 12q-119 0 -363 -72q-235 -69 -364 -63q-11 1 -55 8l-2 -78h-12l-4 80q-119 31 -199 135q-29 38 -29 82q0 86 65 146q61 57 148 65l-16 353q-248 14 -248 231q0 35 6 80h14
q-4 -101 41 -167q50 -75 148 -75l39 6l-10 256q-11 -4 -25 -4q-116 0 -172 117q-23 48 -23 98q0 45 23 84q81 138 201 146q90 6 269 -63q187 -72 273 -72q39 0 86 12q103 26 148 76l37 28q-105 -178 -299 -178q-91 0 -299 64q-28 9 -129 36l-6 -208q38 47 38 102v90l7 -18
q22 -57 22 -91q0 -122 -67 -180l-9 -280q189 53 213 53q152 0 258 -193q-47 48 -106 95q-35 22 -96 22q-56 0 -119 -24zM266 1268q-90 -2 -155 -78q-29 -34 -13 -103q23 -98 123 -98q27 0 55 6zM307 152q-68 0 -115 -29q-57 -34 -57 -98q0 -54 25 -76q64 -57 157 -72z" />
    <glyph glyph-name="Edieresis" unicode="&#xcb;" horiz-adv-x="907" 
d="M686 1507l-55 236l102 -53zM426 1507l-55 236l102 -53zM506 623v0h4l-41 -17h-2l-111 -16l-8 -359h8q106 0 170 -58t64 -163q0 -16 -37 -104v86q0 62 -46 104q-42 38 -106 45l-53 6l-8 -274h41q89 0 301 49q276 64 403 64q281 0 400 -191l-47 39q-62 51 -199 78
q-61 12 -117 12q-119 0 -363 -72q-235 -69 -364 -63q-11 1 -55 8l-2 -78h-12l-4 80q-119 31 -199 135q-29 38 -29 82q0 86 65 146q61 57 148 65l-16 353q-248 14 -248 231q0 35 6 80h14q-4 -101 41 -167q50 -75 148 -75l39 6l-10 256q-11 -4 -25 -4q-116 0 -172 117
q-23 48 -23 98q0 45 23 84q81 138 201 146q90 6 269 -63q187 -72 273 -72q39 0 86 12q103 26 148 76l37 28q-105 -178 -299 -178q-91 0 -299 64q-28 9 -129 36l-6 -208q38 47 38 102v90l7 -18q22 -57 22 -91q0 -122 -67 -180l-9 -280q189 53 213 53q152 0 258 -193
q-47 48 -106 95q-35 22 -96 22q-56 0 -119 -24zM266 1268q-90 -2 -155 -78q-29 -34 -13 -103q23 -98 123 -98q27 0 55 6zM307 152q-68 0 -115 -29q-57 -34 -57 -98q0 -54 25 -76q64 -57 157 -72z" />
    <glyph glyph-name="Igrave" unicode="&#xcc;" horiz-adv-x="252" 
d="M76 1792l117 -344l-312 410zM150 -180h-5l-47 1464q-24 12 -55 59l160 -6z" />
    <glyph glyph-name="Iacute" unicode="&#xcd;" horiz-adv-x="252" 
d="M303 1767l195 66l-312 -410zM150 -180h-5l-47 1464q-24 12 -55 59l160 -6z" />
    <glyph glyph-name="Icircumflex" unicode="&#xce;" horiz-adv-x="252" 
d="M356 1561l-92 -45v43q0 155 -112 268q-70 -121 -70 -207q0 -45 20 -68l-112 -43q-2 20 -2 39q0 212 188 312q-3 -2 -6 -5l6 11q160 -105 180 -305zM150 -180h-5l-47 1464q-24 12 -55 59l160 -6z" />
    <glyph glyph-name="Idieresis" unicode="&#xcf;" horiz-adv-x="252" 
d="M248 1507l-55 236l102 -53zM78 1507l-55 236l102 -53zM150 -180h-5l-47 1464q-24 12 -55 59l160 -6z" />
    <glyph glyph-name="Eth" unicode="&#xd0;" horiz-adv-x="1030" 
d="M375 1180q0 24 -19 129q-51 2 -92 2q-103 0 -108 -47q-3 -28 71 -56l148 -57v29zM399 201q-62 -25 -135 -60q-107 -51 -102 -73q10 -50 102 -50q74 0 142 9zM387 797l-6 198q-51 -20 -117 -30v4q86 30 86 65q0 11 -152.5 109t-154.5 106q-1 3 -1 9q0 39 93 63
q70 18 127 18q362 0 539 -125q211 -149 209 -495q-2 -258 -164 -576q-117 -112 -434 -145v-57h-4l-2 55q-70 -6 -144 -6q-58 0 -127 18q-93 24 -93 64q0 5 1 8q3 8 155 106t152 109q0 35 -86 65v5q84 -13 135 -35l-12 375q-104 43 -158 43q-98 0 -188 -111l8 10
q138 172 240 172q37 0 98 -22zM776 809l2 -6q-116 -141 -235 -141q-37 0 -101 20l-14 -369q21 -20 21 -39q0 -28 -27 -55l-8 -190q273 39 379 233q81 148 86 461q-21 262 -93 381q-89 147 -319 190l-21 -522h5q106 -49 159 -49q86 0 166 86z" />
    <glyph glyph-name="Ntilde" unicode="&#xd1;" horiz-adv-x="788" 
d="M713 1649l2 -7q-101 -141 -203 -141q-45 0 -135 43t-135 43q-84 0 -162 -110l6 10q103 172 207 172q39 0 136.5 -48t139.5 -48q74 0 144 86zM215 1341v0l2 5l6 -7q37 -39 135 -153q186 -224 273 -674l-31 745q-5 4 -5 15q0 9 2.5 29t2.5 30l137 -90l-71 -1456h-4l-15 303
q-17 338 -155 657q-116 266 -269 429l-55 -1354h-4l-64 1462q-26 14 -57 59l162 -4q4 2 10 4z" />
    <glyph glyph-name="Ograve" unicode="&#xd2;" horiz-adv-x="772" 
d="M305 1778l117 -344l-311 409zM500 356q-54 -124 -162 -348q-272 441 -293 1159l197 142q303 -115 481 -256q-103 -419 -223 -697zM580 1042l-197 80q-97 39 -201 58q-26 -187 -26 -244q0 -410 206 -768q218 471 218 706v168z" />
    <glyph glyph-name="Oacute" unicode="&#xd3;" horiz-adv-x="772" 
d="M563 1735l195 65l-312 -409zM500 356q-54 -124 -162 -348q-272 441 -293 1159l197 142q303 -115 481 -256q-103 -419 -223 -697zM580 1042l-197 80q-97 39 -201 58q-26 -187 -26 -244q0 -410 206 -768q218 471 218 706v168z" />
    <glyph glyph-name="Ocircumflex" unicode="&#xd4;" horiz-adv-x="772" 
d="M594 1528l-92 -45v43q0 155 -113 268q-70 -121 -70 -207q0 -45 21 -67l-113 -43q-1 20 -1 39q0 211 188 311q-3 -1 -6 -4l6 10q159 -104 180 -305zM500 356q-54 -124 -162 -348q-272 441 -293 1159l197 142q303 -115 481 -256q-103 -419 -223 -697zM580 1042l-197 80
q-97 39 -201 58q-26 -187 -26 -244q0 -410 206 -768q218 471 218 706v168z" />
    <glyph glyph-name="Otilde" unicode="&#xd5;" horiz-adv-x="772" 
d="M713 1649l2 -7q-101 -141 -203 -141q-45 0 -135 43t-135 43q-84 0 -162 -110l6 10q103 172 207 172q39 0 136.5 -48t139.5 -48q74 0 144 86zM500 356q-54 -124 -162 -348q-272 441 -293 1159l197 142q303 -115 481 -256q-103 -419 -223 -697zM580 1042l-197 80
q-97 39 -201 58q-26 -187 -26 -244q0 -410 206 -768q218 471 218 706v168z" />
    <glyph glyph-name="Odieresis" unicode="&#xd6;" horiz-adv-x="772" 
d="M543 1507l-56 236l103 -53zM250 1507l-55 236l102 -53zM500 356q-54 -124 -162 -348q-272 441 -293 1159l197 142q303 -115 481 -256q-103 -419 -223 -697zM580 1042l-197 80q-97 39 -201 58q-26 -187 -26 -244q0 -410 206 -768q218 471 218 706v168z" />
    <glyph glyph-name="multiply" unicode="&#xd7;" horiz-adv-x="608" 
d="M98 96l172 277l-164 200q-12 -4 -22 -4q-25 0 -47 11l119 88l147 -240l150 240l118 -88q-22 -11 -47 -11q-10 0 -22 4l-164 -200l172 -277l-6 -4l-199 240l-201 -240z" />
    <glyph glyph-name="Oslash" unicode="&#xd8;" horiz-adv-x="772" 
d="M819 1401v0h8q-28 -341 -237 -531q-113 -103 -383 -352q-207 -191 -236 -463v19q0 305 199 530q123 103 264 225q344 296 385 572zM500 356v0q-49 -114 -162 -348q-272 441 -293 1159l197 142q303 -115 481 -256q-102 -420 -223 -697zM580 1042l-197 80q-97 39 -201 58
q-26 -187 -26 -244q0 -410 206 -768q218 471 218 706v168z" />
    <glyph glyph-name="Ugrave" unicode="&#xd9;" horiz-adv-x="1006" 
d="M498 1735l116 -344l-311 409zM991 1260v0q-29 -156 -37 -570q-6 -352 -73 -497q-99 -216 -375 -216q-289 0 -381 236q-57 145 -59 539q-3 412 -52 587v7q0 6 9 6q26 0 79 -41q61 -47 74 -56l-2 -2v2h-2q-4 -4 -4 -12l2 -135q2 -124 -13 -341q-16 -234 -16 -341
q0 -193 86 -272q82 -76 277 -76q216 0 298 93q77 87 77 306q0 101 -8.5 302t-8.5 302q0 66 6 258q0 13 11 13q14 0 51 -31q54 -45 67 -51q-5 -6 -6 -10z" />
    <glyph glyph-name="Uacute" unicode="&#xda;" horiz-adv-x="1006" 
d="M563 1735l195 65l-312 -409zM991 1260v0q-29 -156 -37 -570q-6 -352 -73 -497q-99 -216 -375 -216q-289 0 -381 236q-57 145 -59 539q-3 412 -52 587v7q0 6 9 6q26 0 79 -41q61 -47 74 -56l-2 -2v2h-2q-4 -4 -4 -12l2 -135q2 -124 -13 -341q-16 -234 -16 -341
q0 -193 86 -272q82 -76 277 -76q216 0 298 93q77 87 77 306q0 101 -8.5 302t-8.5 302q0 66 6 258q0 13 11 13q14 0 51 -31q54 -45 67 -51q-5 -6 -6 -10z" />
    <glyph glyph-name="Ucircumflex" unicode="&#xdb;" horiz-adv-x="1006" 
d="M659 1524l-92 -45v43q0 155 -112 268q-70 -121 -70 -207q0 -45 21 -67l-113 -43q-2 19 -2 39q0 211 188 311q-3 -1 -6 -4l6 10q160 -105 180 -305zM991 1260v0q-29 -156 -37 -570q-6 -352 -73 -497q-99 -216 -375 -216q-289 0 -381 236q-57 145 -59 539q-3 412 -52 587v7
q0 6 9 6q26 0 79 -41q61 -47 74 -56l-2 -2v2h-2q-4 -4 -4 -12l2 -135q2 -124 -13 -341q-16 -234 -16 -341q0 -193 86 -272q82 -76 277 -76q216 0 298 93q77 87 77 306q0 101 -8.5 302t-8.5 302q0 66 6 258q0 13 11 13q14 0 51 -31q54 -45 67 -51q-5 -6 -6 -10z" />
    <glyph glyph-name="Udieresis" unicode="&#xdc;" horiz-adv-x="1006" 
d="M350 1507l-55 236l102 -53zM596 1507l-55 236l102 -53zM991 1260v0q-29 -156 -37 -570q-6 -352 -73 -497q-99 -216 -375 -216q-289 0 -381 236q-57 145 -59 539q-3 412 -52 587v7q0 6 9 6q26 0 79 -41q61 -47 74 -56l-2 -2v2h-2q-4 -4 -4 -12l2 -135q2 -124 -13 -341
q-16 -234 -16 -341q0 -193 86 -272q82 -76 277 -76q216 0 298 93q77 87 77 306q0 101 -8.5 302t-8.5 302q0 66 6 258q0 13 11 13q14 0 51 -31q54 -45 67 -51q-5 -6 -6 -10z" />
    <glyph glyph-name="Yacute" unicode="&#xdd;" horiz-adv-x="580" 
d="M563 1735l195 65l-312 -409zM420 530l-35 -1198h-4l-49 1198q-162 369 -293 813l162 -116q37 -185 174 -676l188 446q65 153 158 346l55 -149q-69 -64 -356 -664z" />
    <glyph glyph-name="Thorn" unicode="&#xde;" horiz-adv-x="471" 
d="M336 434q119 225 119 436q0 27 -19.5 75.5t-21.5 72.5l-90 80q-17 -19 -93 -54.5t-88 -50.5l4 375h-153q35 -47 59 -61l33 -1293h8l31 627q0 -4 97 -91q101 -90 114 -116zM330 1016q2 -28 24 -87q21 -55 21 -87q0 -66 -25 -154l-43 -151q-7 17 -100 98q-79 69 -78 88
l10 197q27 32 92 55q79 28 99 41z" />
    <glyph glyph-name="germandbls" unicode="&#xdf;" horiz-adv-x="606" 
d="M469 1352v0q199 -4 199 -154q0 -50 -45 -78q-38 -24 -91 -24q-137 22 -172 22q-71 0 -120 -67q43 125 159 125q54 0 150 -27q21 -6 37 -6q69 0 69 55q0 107 -186 125q-196 0 -278 -105q-72 -93 -72 -294v-97q98 34 145 35q222 4 268 -129l-174 -125q-53 -38 -69 -59
q153 -221 305 -371q-227 -123 -264 -256l-84 117q28 139 43 246h12q-6 -129 43 -193q109 47 145 109q-161 151 -309 354q68 43 150 94q94 80 92 121q-57 31 -109 31q-63 0 -135 -33l-4 8l8 2l4 -8l-71 -18l-23 -1090l-18 -12l-39 1093q-133 5 -139 111h8q10 -53 84 -53l45 4
l-6 166q-7 192 126 293q118 88 316 88z" />
    <glyph glyph-name="agrave" unicode="&#xe0;" horiz-adv-x="346" 
d="M106 1081l95 -282l-254 336zM274 315v0q0 -139 27 -317q-51 82 -80 213q-26 -61 -106 -203q-84 160 -84 438q0 74 4 144l94 80l86 -78q6 47 14 92l88 -100q-43 -84 -43 -269zM201 420v0q0 55 10 115q-57 43 -92 55q-10 -84 -10 -176q0 -166 34 -303q66 120 68 184
q-10 59 -10 125z" />
    <glyph glyph-name="aacute" unicode="&#xe1;" horiz-adv-x="346" 
d="M262 1079l160 54l-254 -336zM274 315v0q0 -139 27 -317q-51 82 -80 213q-26 -61 -106 -203q-84 160 -84 438q0 74 4 144l94 80l86 -78q6 47 14 92l88 -100q-43 -84 -43 -269zM201 420v0q0 55 10 115q-57 43 -92 55q-10 -84 -10 -176q0 -166 34 -303q66 120 68 184
q-10 59 -10 125z" />
    <glyph glyph-name="acircumflex" unicode="&#xe2;" horiz-adv-x="346" 
d="M330 893v0l-72 -37v35q0 127 -86 221q-55 -100 -55 -170q0 -35 16 -55l-88 -35q-12 199 145 287l-4 -4l4 8q123 -84 140 -250zM274 315v0q0 -139 27 -317q-51 82 -80 213q-26 -61 -106 -203q-84 160 -84 438q0 74 4 144l94 80l86 -78q6 47 14 92l88 -100
q-43 -84 -43 -269zM201 420v0q0 55 10 115q-57 43 -92 55q-10 -84 -10 -176q0 -166 34 -303q66 120 68 184q-10 59 -10 125z" />
    <glyph glyph-name="atilde" unicode="&#xe3;" horiz-adv-x="346" 
d="M375 963l2 -7q-62 -133 -123 -133q-13 0 -82 41t-82 41q-51 0 -98 -104l4 8q81 162 125 162q17 0 86.5 -45t81.5 -45q47 0 86 82zM274 315v0q0 -139 27 -317q-51 82 -80 213q-26 -61 -106 -203q-84 160 -84 438q0 74 4 144l94 80l86 -78q6 47 14 92l88 -100
q-43 -84 -43 -269zM201 420v0q0 55 10 115q-57 43 -92 55q-10 -84 -10 -176q0 -166 34 -303q66 120 68 184q-10 59 -10 125z" />
    <glyph glyph-name="adieresis" unicode="&#xe4;" horiz-adv-x="346" 
d="M88 725l-55 236l102 -54zM258 725l-55 236l102 -54zM274 315v0q0 -139 27 -317q-51 82 -80 213q-26 -61 -106 -203q-84 160 -84 438q0 74 4 144l94 80l86 -78q6 47 14 92l88 -100q-43 -84 -43 -269zM201 420v0q0 55 10 115q-57 43 -92 55q-10 -84 -10 -176
q0 -166 34 -303q66 120 68 184q-10 59 -10 125z" />
    <glyph glyph-name="aring" unicode="&#xe5;" horiz-adv-x="346" 
d="M225 924v37q-43 14 -55 20q-20 4 -55 12q-9 -39 -9 -57q0 -92 58 -172q61 108 61 160zM332 995q-51 -138 -103 -211q-16 -23 -75 -104q-129 135 -136 350l93 43q151 -41 221 -78zM274 315v0q0 -139 27 -317q-51 82 -80 213q-26 -61 -106 -203q-84 160 -84 438q0 74 4 144
l94 80l86 -78q6 47 14 92l88 -100q-43 -84 -43 -269zM201 420v0q0 55 10 115q-57 43 -92 55q-10 -84 -10 -176q0 -166 34 -303q66 120 68 184q-10 59 -10 125z" />
    <glyph glyph-name="ae" unicode="&#xe6;" horiz-adv-x="453" 
d="M305 119v0q55 20 105 227v-39q0 -168 -109 -309q-51 82 -80 213q-26 -61 -106 -203q-84 160 -84 438q0 74 4 144l94 80l86 -78q8 59 55 92q103 -86 123 -125q29 -33 29 -78q0 -100 -146 -221q7 -74 29 -141zM276 299v0q93 96 93 182q0 37 -19 68l-33 35q-45 -86 -45 -211
q0 -35 4 -74zM201 420v0q0 55 10 115q-57 43 -92 55q-10 -84 -10 -176q0 -166 34 -303q66 120 68 184q-10 59 -10 125z" />
    <glyph glyph-name="ccedilla" unicode="&#xe7;" horiz-adv-x="254" 
d="M156 -47l-127 -256l55 319zM113 590v0q-23 -156 -23 -279q0 -110 19 -184q57 16 106 223v-43q0 -149 -98 -297q-86 162 -86 432q0 62 4 123l88 107q70 -99 84 -123l22 -66q-82 78 -116 107z" />
    <glyph glyph-name="egrave" unicode="&#xe8;" horiz-adv-x="266" 
d="M106 1081l95 -282l-254 336zM90 260v0q6 -80 23 -135q59 10 110 221v-39q0 -151 -98 -301q-94 174 -94 463q0 47 2 92l86 107q74 -82 88 -109q29 -33 29 -78q0 -100 -146 -221zM164 549v0q-29 31 -51 41q-25 -164 -23 -291q92 96 92 182q0 37 -18 68z" />
    <glyph glyph-name="eacute" unicode="&#xe9;" horiz-adv-x="266" 
d="M215 1079l160 54l-254 -336zM90 260v0q6 -80 23 -135q59 10 110 221v-39q0 -151 -98 -301q-94 174 -94 463q0 47 2 92l86 107q74 -82 88 -109q29 -33 29 -78q0 -100 -146 -221zM164 549v0q-29 31 -51 41q-25 -164 -23 -291q92 96 92 182q0 37 -18 68z" />
    <glyph glyph-name="ecircumflex" unicode="&#xea;" horiz-adv-x="266" 
d="M297 893v0l-72 -37v35q0 127 -86 221q-55 -100 -55 -170q0 -35 16 -55l-88 -35q-12 199 146 287l-4 -4l4 8q123 -84 139 -250zM90 260v0q6 -80 23 -135q59 10 110 221v-39q0 -151 -98 -301q-94 174 -94 463q0 47 2 92l86 107q74 -82 88 -109q29 -33 29 -78
q0 -100 -146 -221zM164 549v0q-29 31 -51 41q-25 -164 -23 -291q92 96 92 182q0 37 -18 68z" />
    <glyph glyph-name="edieresis" unicode="&#xeb;" horiz-adv-x="266" 
d="M88 725l-55 236l102 -54zM258 725l-55 236l102 -54zM90 260v0q6 -80 23 -135q59 10 110 221v-39q0 -151 -98 -301q-94 174 -94 463q0 47 2 92l86 107q74 -82 88 -109q29 -33 29 -78q0 -100 -146 -221zM164 549v0q-29 31 -51 41q-25 -164 -23 -291q92 96 92 182
q0 37 -18 68z" />
    <glyph glyph-name="igrave" unicode="&#xec;" horiz-adv-x="176" 
d="M29 1081l94 -282l-254 336zM94 -16h-8l-39 622q-33 15 -51 47h147z" />
    <glyph glyph-name="iacute" unicode="&#xed;" horiz-adv-x="176" 
d="M174 1079l160 54l-254 -336zM94 -16h-8l-39 622q-33 15 -51 47h147z" />
    <glyph glyph-name="icircumflex" unicode="&#xee;" horiz-adv-x="176" 
d="M242 893v0l-72 -37v35q0 127 -86 221q-55 -100 -55 -170q0 -35 16 -55l-88 -35q-12 199 145 287l-4 -4l4 8q123 -84 140 -250zM94 -16h-8l-39 622q-33 15 -51 47h147z" />
    <glyph glyph-name="idieresis" unicode="&#xef;" horiz-adv-x="176" 
d="M172 725l-55 236l102 -54zM2 725l-55 236l102 -54zM94 -16h-8l-39 622q-33 15 -51 47h147z" />
    <glyph glyph-name="eth" unicode="&#xf0;" 
d="M127 0h768v1358h-768v-1358zM254 129v1100h512v-1100h-512z" />
    <glyph glyph-name="ntilde" unicode="&#xf1;" horiz-adv-x="336" 
d="M375 963l2 -7q-62 -133 -123 -133q-13 0 -82 41t-82 41q-51 0 -98 -104l4 8q81 162 125 162q17 0 86.5 -45t81.5 -45q47 0 86 82zM262 -23v0h-8q-6 406 -45 533q-74 -57 -80 -131l-33 -393h-8l-39 622q-35 17 -53 47h151l-10 -145q62 65 101 141l63 -86
q-25 -467 -39 -588z" />
    <glyph glyph-name="ograve" unicode="&#xf2;" horiz-adv-x="336" 
d="M106 1081l95 -282l-254 336zM229 197v0q-17 -41 -69 -172l-8 -21q-115 207 -121 582l86 80q119 -56 190 -129q-20 -175 -78 -340zM227 532v0q-73 46 -114 58q-4 -49 -4 -101q0 -215 65 -387q55 181 55 355q0 37 -2 75z" />
    <glyph glyph-name="oacute" unicode="&#xf3;" horiz-adv-x="336" 
d="M262 1079l160 54l-254 -336zM229 197v0q-17 -41 -69 -172l-8 -21q-115 207 -121 582l86 80q119 -56 190 -129q-20 -175 -78 -340zM227 532v0q-73 46 -114 58q-4 -49 -4 -101q0 -215 65 -387q55 181 55 355q0 37 -2 75z" />
    <glyph glyph-name="ocircumflex" unicode="&#xf4;" horiz-adv-x="336" 
d="M330 893v0l-72 -37v35q0 127 -86 221q-55 -100 -55 -170q0 -35 16 -55l-88 -35q-12 199 145 287l-4 -4l4 8q123 -84 140 -250zM229 197v0q-17 -41 -69 -172l-8 -21q-115 207 -121 582l86 80q119 -56 190 -129q-20 -175 -78 -340zM227 532q-73 46 -114 58q-4 -49 -4 -101
q0 -215 65 -387q55 181 55 355q0 37 -2 75z" />
    <glyph glyph-name="otilde" unicode="&#xf5;" horiz-adv-x="336" 
d="M375 963l2 -7q-62 -133 -123 -133q-13 0 -82 41t-82 41q-51 0 -98 -104l4 8q81 162 125 162q17 0 86.5 -45t81.5 -45q47 0 86 82zM229 197v0q-17 -41 -69 -172l-8 -21q-115 207 -121 582l86 80q119 -56 190 -129q-20 -175 -78 -340zM227 532v0q-73 46 -114 58
q-4 -49 -4 -101q0 -215 65 -387q55 181 55 355q0 37 -2 75z" />
    <glyph glyph-name="odieresis" unicode="&#xf6;" horiz-adv-x="336" 
d="M88 725l-55 236l102 -54zM233 725l-55 236l103 -54zM229 197v0q-17 -41 -69 -172l-8 -21q-115 207 -121 582l86 80q119 -56 190 -129q-20 -175 -78 -340zM227 532v0q-73 46 -114 58q-4 -49 -4 -101q0 -215 65 -387q55 181 55 355q0 37 -2 75z" />
    <glyph glyph-name="divide" unicode="&#xf7;" horiz-adv-x="602" 
d="M31 545l84 -58h448l-86 58h-446zM354 334l-43 -162l-51 211zM354 805l-43 -162l-51 211z" />
    <glyph glyph-name="oslash" unicode="&#xf8;" horiz-adv-x="336" 
d="M229 197q-18 -43 -69 -172l-8 -21q-31 59 -56 131q-2 -2 -5 -7t-5 -7q-10 -12 -51 -78q-21 12 -45 53q24 47 78 140q-35 149 -37 350l86 80q49 -27 141 -68q27 35 82 113q35 -27 68 -29q-35 -49 -101 -145q-20 -195 -78 -340zM227 532v0q-73 46 -114 58q-4 -49 -4 -101
q0 -90 12 -174q14 31 29 31q14 0 14 -41q0 -43 -19 -106q9 -43 29 -97q37 119 72 342q-35 -47 -58 -47q-14 0 -22 19q18 39 61 116z" />
    <glyph glyph-name="ugrave" unicode="&#xf9;" horiz-adv-x="352" 
d="M106 1081l95 -282l-254 336zM279 301q0 -141 26 -324q-47 84 -78 218q-30 -64 -108 -205q-88 172 -88 528q0 72 2 150l94 -78q-23 -113 -23 -221q0 -160 41 -279q68 123 68 186q-8 62 -8 123q0 127 28 269l91 -101q-45 -86 -45 -266z" />
    <glyph glyph-name="uacute" unicode="&#xfa;" horiz-adv-x="352" 
d="M262 1079l160 54l-254 -336zM279 301q0 -141 26 -324q-47 84 -78 218q-30 -64 -108 -205q-88 172 -88 528q0 72 2 150l94 -78q-23 -113 -23 -221q0 -160 41 -279q68 123 68 186q-8 62 -8 123q0 127 28 269l91 -101q-45 -86 -45 -266z" />
    <glyph glyph-name="ucircumflex" unicode="&#xfb;" horiz-adv-x="352" 
d="M330 893v0l-72 -37v35q0 127 -86 221q-55 -100 -55 -170q0 -35 16 -55l-88 -35q-12 199 145 287l-4 -4l4 8q123 -84 140 -250zM279 301v0q0 -141 26 -324q-47 84 -78 218q-30 -64 -108 -205q-88 172 -88 528q0 72 2 150l94 -78q-23 -113 -23 -221q0 -160 41 -279
q68 123 68 186q-8 62 -8 123q0 127 28 269l91 -101q-45 -86 -45 -266z" />
    <glyph glyph-name="udieresis" unicode="&#xfc;" horiz-adv-x="352" 
d="M258 725l-55 236l102 -54zM88 725l-55 236l102 -54zM279 301q0 -141 26 -324q-47 84 -78 218q-30 -64 -108 -205q-88 172 -88 528q0 72 2 150l94 -78q-23 -113 -23 -221q0 -160 41 -279q68 123 68 186q-8 62 -8 123q0 127 28 269l91 -101q-45 -86 -45 -266z" />
    <glyph glyph-name="yacute" unicode="&#xfd;" horiz-adv-x="311" 
d="M262 1079l160 54l-254 -336zM266 -360q-3 -136 -103 -228t-237 -92q-105 0 -196 37q-121 49 -121 141q0 51 46 85q42 32 95 32q40 0 120 -15.5t120 -15.5q55 0 104 29q-28 -82 -139 -82q-39 0 -115.5 18.5t-115.5 18.5q-95 0 -95 -68q0 -137 267 -137q321 0 321 332v489
q-31 -61 -102 -190v16q-72 187 -72 416v184q-31 15 -70 47h146q-13 -41 -13 -131q0 -268 37 -422q74 138 74 156l-2 410l74 -68z" />
    <glyph glyph-name="thorn" unicode="&#xfe;" horiz-adv-x="422" 
d="M295 4v0q84 160 84 440q0 68 -6 144l-90 80q-13 -22 -68 -54q-58 -34 -72 -51l4 375h-153q35 -47 59 -61l33 -1293h8l31 627q12 -31 82 -100q71 -73 88 -107zM289 586q10 -88 10 -176q0 -166 -33 -304q-17 32 -80 101q-51 56 -57 86l10 196q23 30 80 60z" />
    <glyph glyph-name="ydieresis" unicode="&#xff;" horiz-adv-x="311" 
d="M88 725l-55 236l102 -54zM258 725l-55 236l102 -54zM266 -360q-3 -136 -103 -228t-237 -92q-105 0 -196 37q-121 49 -121 141q0 51 46 85q42 32 95 32q40 0 120 -15.5t120 -15.5q55 0 104 29q-28 -82 -139 -82q-39 0 -115.5 18.5t-115.5 18.5q-95 0 -95 -68
q0 -137 267 -137q321 0 321 332v489q-31 -61 -102 -190v16q-72 187 -72 416v184q-31 15 -70 47h146q-13 -41 -13 -131q0 -268 37 -422q74 138 74 156l-2 410l74 -68z" />
    <glyph glyph-name="OE" unicode="&#x152;" horiz-adv-x="1190" 
d="M578 825q-114 0 -170 105q-23 43 -23 90q0 43 33 90q-5 1 -35 12q-110 39 -201 58q-26 -187 -26 -244q0 -410 206 -768q99 213 152 377q-147 43 -147 192q0 33 6 74h14q-9 -184 143 -215q39 131 48 229zM451 1096q-46 -42 -29 -109q22 -88 123 -88q22 0 35 2v141
q-76 31 -129 54zM590 1151h-10q79 -47 143 -98q-8 -29 -16 -64q20 35 20 55v80l6 -16q23 -61 23 -82q0 -111 -68 -162q-8 -4 -20 -8q-35 -119 -84 -262l96 16q4 1 108 29q73 20 105 20q151 0 258 -174q-58 51 -107 84q-31 21 -96 21q-55 0 -119 -23h5l-41 -14l-179 -25
q-26 2 -51 7l-63 -179q-15 -43 -162 -348q-272 441 -293 1159l197 142q145 -56 260 -115q49 29 106 33q92 6 270 -57q186 -66 273 -66q148 0 233 80l37 26q-104 -161 -299 -161q-94 0 -299 57q-162 45 -233 45zM496 162q60 48 135 51l49 2q100 4 164 -48q69 -55 69 -153
q0 -14 -36 -94v78q0 118 -152 135l-53 6l-41 2q-64 3 -113 -23q-59 -31 -59 -91q0 -48 24 -68q71 -58 158 -65l64 -5q64 -5 301 45q275 58 403 58q281 0 399 -172l-47 35q-64 48 -198 71q-64 11 -117 11q-120 0 -363 -66q-235 -64 -364 -57q-169 9 -273 133q-28 33 -28 73
q0 80 78 142z" />
    <glyph glyph-name="oe" unicode="&#x153;" horiz-adv-x="477" 
d="M111 532q-2 -53 -2 -75q0 -174 55 -355q65 172 65 387q0 52 -4 101q-41 -12 -114 -58zM295 260q6 -80 22 -135q60 10 111 221v-39q0 -151 -98 -301q-45 84 -68 193q-29 -111 -76 -195l-8 21l-69 172q-55 138 -78 340q71 73 190 129l58 -54l45 56q73 -82 88 -109
q28 -33 28 -78q0 -61 -145 -221zM369 549q-29 31 -52 41q-24 -164 -22 -291q92 96 92 182q0 23 -18 68z" />
    <glyph glyph-name="Scaron" unicode="&#x160;" horiz-adv-x="934" 
d="M848 1047q22 173 74 210q-25 -2 -37 -2q-64 0 -109 43l-45 43q-166 15 -237 15q-401 0 -394 -295q7 -258 197 -330l350 -67q190 -56 195 -279q3 -156 -56 -226q-65 -75 -219 -71q-278 8 -387 55q-131 57 -151 201q12 110 141 160q36 14 168 37q34 6 59 6q84 0 154 -37
q43 -23 41 -78q-4 -91 -201 -104q-55 -4 -104 24t-66 78l-18 19q-4 -44 24 -90t68 -66q80 -40 156 -29q161 24 165 150q2 76 -49 114q-104 78 -221 78q-94 0 -190 -45q-142 -66 -142 -199q0 -30 9 -65q22 -181 167 -252q108 -53 312 -53q218 0 313 118q87 108 80 330
q-8 260 -201 336l-350 74q-185 39 -190 272q-3 178 247 178q198 0 279 -51q67 -42 113 -207q30 -107 32 -143h4zM684 1806l-92 45v-43q0 -155 -113 -268q-69 121 -69 207q0 45 20 68l-113 43q-1 -20 -1 -39q0 -212 188 -312q-3 1 -6 4l6 -10q160 105 180 305z" />
    <glyph glyph-name="scaron" unicode="&#x161;" horiz-adv-x="401" 
d="M147 6q35 98 244 189q-143 112 -280 272q39 37 122 65q33 -38 48 -161h8q6 147 35 196l-78 86q-33 -71 -99 -112q-8 -4 -137 -70q140 -152 285 -260q-35 -45 -133 -80q-47 47 -41 141h-10q-15 -75 -41 -180zM330 1102v0l-72 37v-35q0 -127 -86 -221q-55 100 -55 170
q0 34 16 55l-88 35q-12 -199 145 -287l-4 4l4 -8q123 84 140 250z" />
    <glyph glyph-name="Ydieresis" unicode="&#x178;" horiz-adv-x="580" 
d="M283 1516l-56 235l103 -53zM543 1516l-56 235l103 -53zM420 530l-35 -1198h-4l-49 1198q-162 369 -293 813l162 -116q37 -185 174 -676l188 446q65 153 158 346l55 -149q-69 -64 -356 -664z" />
    <glyph glyph-name="florin" unicode="&#x192;" horiz-adv-x="6" 
d="M823 -291v0q138 0 267 60l-11 16q-63 -29 -198 -33q-63 -2 -111 6q-104 17 -330 111q-212 88 -336 88q-120 0 -233 -78q-57 -39 -51 -112q10 -123 182 -148q28 -4 51 -4q124 0 187 94q28 42 24 88l-16 -16q-16 -51 -75 -80q-52 -26 -110 -23q-215 9 -221 107q-4 56 43 80
q76 39 164 39q104 0 404 -111q227 -84 370 -84z" />
    <glyph glyph-name="circumflex" unicode="&#x2c6;" horiz-adv-x="545" 
d="M457 1204l-92 -45v43q0 156 -113 268q-70 -120 -70 -206q0 -45 21 -68l-113 -43q-1 20 -1 39q0 212 187 311q-3 -1 -6 -4l6 10q160 -104 181 -305z" />
    <glyph glyph-name="tilde" unicode="&#x2dc;" horiz-adv-x="756" 
d="M702 657l3 -6q-101 -137 -205 -137q-45 0 -136.5 42t-134.5 42q-86 0 -163 -109l8 11q122 168 207 168q43 0 138.5 -47.5t139.5 -47.5q76 0 143 84z" />
    <glyph glyph-name="mu" unicode="&#x3bc;" horiz-adv-x="195" 
d="M82 729l-53 238l104 -58zM-326 -553v0q-161 49 -161 143l6 27q37 94 155 94q86 -18 136 -18q61 0 112 26q-18 -55 -82 -69q-35 -8 -96 2q-74 12 -98 12q-107 0 -107 -65q0 -82 117 -119q49 -6 92 -6q214 0 283 153q34 76 32 164l-22 819q-35 15 -53 47h155l-26 -864
q-5 -161 -90 -256q-89 -100 -248 -100q-49 0 -105 10z" />
    <glyph glyph-name="endash" unicode="&#x2013;" horiz-adv-x="592" 
d="M31 545h446l86 -58h-448z" />
    <glyph glyph-name="emdash" unicode="&#x2014;" horiz-adv-x="915" 
d="M31 545l768 -8l86 -58l-770 8z" />
    <glyph glyph-name="quoteleft" unicode="&#x2018;" horiz-adv-x="197" 
d="M160 881q-72 106 -72 231q0 64 18 139q-71 -139 -71 -252q0 -79 31 -168z" />
    <glyph glyph-name="quoteright" unicode="&#x2019;" horiz-adv-x="197" 
d="M31 1192q71 -107 71 -231q0 -64 -18 -140q72 140 72 252q0 80 -31 168z" />
    <glyph glyph-name="quotesinglbase" unicode="&#x201a;" horiz-adv-x="219" 
d="M31 195v0l94 49q31 -88 31 -168q0 -113 -72 -252q18 76 18 139q0 125 -71 232z" />
    <glyph glyph-name="quotedblleft" unicode="&#x201c;" horiz-adv-x="377" 
d="M160 881q-72 106 -72 231q0 64 18 139q-71 -139 -71 -252q0 -79 31 -168zM340 881q-72 106 -72 231q0 64 19 139q-72 -139 -72 -252q0 -79 31 -168z" />
    <glyph glyph-name="quotedblright" unicode="&#x201d;" horiz-adv-x="383" 
d="M31 1192q71 -107 71 -231q0 -64 -18 -140q72 140 72 252q0 80 -31 168zM201 1192q73 -107 73 -231q0 -64 -18 -140q72 140 72 252q0 80 -31 168z" />
    <glyph glyph-name="quotedblbase" unicode="&#x201e;" horiz-adv-x="383" 
d="M31 195v0l94 49q31 -88 31 -168q0 -113 -72 -252q18 76 18 139q0 125 -71 232zM201 195v0l96 49q31 -88 31 -168q0 -113 -72 -252q18 76 18 139q0 125 -73 232z" />
    <glyph glyph-name="dagger" unicode="&#x2020;" horiz-adv-x="434" 
d="M512 756v-8l-295 -21l-16 -844h-8l-48 840l-176 -14q-4 -11 -16 -11q-19 2 -27 -2l-4 109l219 -19l-8 170q-24 15 -57 64h147l-6 -240z" />
    <glyph glyph-name="daggerdbl" unicode="&#x2021;" horiz-adv-x="434" 
d="M-137 135v8l313 27l-31 553l-176 -14q-4 -11 -16 -11q-19 2 -27 -2l-4 109l219 -19l-8 170q-24 15 -57 64h147l-6 -240l295 -24v-8l-295 -21l-10 -555l246 21l-4 -109q-19 -4 -43 12l-201 17l-4 -230h-8l-13 230z" />
    <glyph glyph-name="bullet" unicode="&#x2022;" 
d="M127 0h768v1358h-768v-1358zM254 129v1100h512v-1100h-512z" />
    <glyph glyph-name="ellipsis" unicode="&#x2026;" horiz-adv-x="586" 
d="M133 166l-43 -162l-51 211zM338 166l-43 -162l-51 211zM543 166l-43 -162l-51 211z" />
    <glyph glyph-name="perthousand" unicode="&#x2030;" horiz-adv-x="1307" 
d="M872 1352q-40 -273 -385 -572q-84 -73 -264 -225q-198 -225 -198 -530v-19q28 273 235 463l383 352q209 192 238 531h-9zM856 541v0l4 -2q-33 -210 -104 -344q-22 -43 -90 -172l-7 -13q-143 201 -153 578l110 78q154 -56 240 -125zM692 84v0q78 192 78 375q0 41 -4 78
q-104 51 -158 61q-8 -53 -8 -109q0 -223 92 -405zM383 1214v0l2 -2q-28 -203 -102 -344q-21 -44 -90 -172l-7 -12q-145 201 -153 578l108 77q154 -55 242 -125zM219 758v0q78 192 78 375q0 41 -6 77q-105 52 -158 62q-6 -53 -6 -109q0 -223 92 -405zM1266 541v0l4 -2
q-35 -215 -105 -344q-25 -42 -90 -172l-6 -13q-143 201 -154 578l111 78q154 -56 240 -125zM1102 84v0q78 192 78 375q0 41 -4 78q-105 51 -158 61q-8 -53 -8 -109q0 -223 92 -405z" />
    <glyph glyph-name="guilsinglleft" unicode="&#x2039;" horiz-adv-x="598" 
d="M487 236q-127 0 -233 97q-90 84 -143 214q120 237 333 254l33 -99q-14 3 -39 5q-154 13 -305 -185q43 -77 105 -133q80 -72 149 -63q49 6 72 24z" />
    <glyph glyph-name="guilsinglright" unicode="&#x203a;" horiz-adv-x="598" 
d="M111 236q128 0 233 97q91 83 143 214q-120 237 -333 254l-33 -99q14 3 39 5q154 13 305 -185q-43 -77 -105 -133q-80 -72 -149 -63q-49 6 -72 24z" />
    <glyph glyph-name="currency" unicode="&#x20ac;" horiz-adv-x="840" 
d="M563 582q-29 57 -18 133q8 55 146 245.5t143 221.5q1 14 1 26q0 76 -75 86q-42 6 -94 -8q-400 -105 -480 -579l17 -9q75 -40 243 -112q31 -8 82 -6q19 1 35 2zM-217 557q35 -46 143 -53q40 -3 80 22q-104 43 -151 43q-37 0 -72 -12zM53 582q6 12 8 26l11 13v6q4 26 10 57
q-115 49 -166 49q-65 0 -121 -39q-35 -24 -33 -82q2 -16 7 -30q61 43 127 43q61 0 157 -43zM424 371q-98 0 -254 75q53 -469 420 -696q60 -37 176 -64q109 -26 188 -26h37q103 0 346 49v-4q-237 -55 -323 -65l-62 -7q-264 11 -468 127q-219 124 -332 349q-93 186 -91 391
l-20 10q-47 -72 -123 -72q-129 0 -162 107q-58 -33 -55 -96q5 -98 164 -109q50 -3 87.5 26t47.5 78l12 17q6 -104 -71 -156q-57 -38 -121 -26q-128 25 -135 151q-5 83 65 137q-3 12 -4 27q-3 73 39 115q80 79 172 79q57 0 141 -36q107 392 473 530q114 43 201 31
q80 -11 125 -76q26 -49 18 -109q-4 -32 -155 -231t-158 -240q-6 -37 4 -69q41 8 68 24l8 -16q-27 -16 -70 -31q15 -39 43 -82q-49 31 -75 72q-48 -12 -95 -20q-105 0 -272 86l-35 18q-6 -57 -10 -119q145 -83 217 -98q38 -8 82 -6q99 4 145 33l9 -17q-60 -39 -197 -61z" />
    <glyph glyph-name="trademark" unicode="&#x2122;" horiz-adv-x="1114" 
d="M778 911l88 4q132 6 226 60l-7 2q-73 -43 -360 -43q-182 0 -276 20q-137 29 -220 29q-119 0 -188 -63q-18 -16 -18 -33q0 -52 61 -76q46 -18 104 -18q144 0 144 94q0 8 -10 24v-14q0 -62 -105 -72l-22 -2q-7 -2 -39 -2q-96 0 -117 47q-4 9 0 27q2 17 14 23q65 34 150 34
q63 0 198 -20l29 -549h8l25 539q108 -20 315 -11zM610 874q-3 0 -6 -2l-69 2q4 -17 6 -20l39 -473h2l34 438q36 -18 116.5 -193t119.5 -194q4 -2 4 4l10 119q4 47 -24 104q104 56 155 129l31 -407h2l51 496l-88 -3q0 -6 -4 -12q1 -2 4 -4q-27 -55 -41 -74q-40 -53 -123 -100
q-31 47 -98 110q-75 71 -119 83z" />
    <glyph glyph-name="periodcentered" unicode="&#x2219;" 
d="M127 0h768v1358h-768v-1358zM254 129v1100h512v-1100h-512z" />
    <glyph glyph-name="musicalnotedbl" unicode="&#x266b;" horiz-adv-x="1040" 
d="M702 553q-55 -322 -55 -560q0 -134 17 -200l-129 86l-259 821q-52 166 -157 414q-47 111 -105 158l-41 33q-23 18 -89.5 34.5t-94.5 10.5q-43 -10 -102 -115q26 121 88 180q25 30 71 31q97 3 195 -88q79 -73 113 -156l24 -59q52 -122 207 -488q83 -196 178 -516
q24 189 66 473q63 432 119 602q72 218 198 226q70 4 127.5 -44.5t59.5 -117.5q11 -299 -132 -506q-113 -164 -270 -213q19 23 70 82q-2 -4 -4 -6v0q18 18 77 94q97 125 109 158q129 187 129 357q0 145 -113 138q-145 -8 -188 -217l2 2q-21 -88 -111 -614z" />
    <glyph glyph-name="fi" unicode="&#xf001;" horiz-adv-x="1552" 
d="M743 1200h9q18 -53 45 -115q257 -589 360 -948q23 177 66 473q63 434 118 602q72 218 199 226q70 4 127 -44.5t59 -117.5q10 -301 -131 -506q-113 -164 -270 -213q18 23 70 82q-2 -4 -4 -6v0q18 18 77 94q97 125 109 158q129 187 129 357q0 145 -113 138
q-145 -8 -188 -217l2 2q-21 -88 -111 -614q-55 -322 -55 -560q0 -134 16 -200l-129 86l-258 821q-35 110 -96 258q-32 -152 -72 -403q-54 -335 -54 -576q0 -124 16 -184l-129 86l-259 821q-52 166 -157 414q-47 111 -105 158l-41 33q-23 18 -89.5 34.5t-94.5 10.5
q-43 -10 -102 -115q26 121 88 180q25 30 71 31q97 3 195 -88q79 -73 113 -156l24 -59q52 -122 207 -488q83 -196 178 -516l66 482q33 238 88 479q6 26 26 100z" />
    <glyph glyph-name="fl" unicode="&#xf002;" horiz-adv-x="805" 
d="M1135 -176v0q-247 47 -424 201q-206 179 -449 553q-153 -273 -207 -506q-18 -45 -43 -90q72 321 215 643q-39 51 -61 92q-146 271 -146 434v195q7 2 23 -5q2 0 9 -4t9 -4q23 0 62 -24q0 -6 2 -9v-28q-1 -7 -1 -12q0 -6 1 -9q0 -269 119 -514l18 -37q192 406 369 539
l143 107q6 -3 23 -13l-2 -2q26 -39 49 -65q-4 -2 -21 -19q-4 -4 -16 -14q-201 -119 -393 -410q-68 -103 -115 -182q243 -405 487 -627q177 -161 529 -190q69 -6 198 -14v-5h-2v5h2l7 2h41q45 0 53 -15q-334 0 -479 27z" />
    <glyph glyph-name="fi2" unicode="&#xfb01;" 
d="M815 1325v0l127 -137q6 -125 6 -244q0 -428 -65 -694l-2 -53q2 -19 2 -35q0 -148 -150 -252q-135 -94 -289 -94q-137 0 -254 41q-151 53 -151 155q0 54 59 88q49 37 117 37q53 0 156.5 -18.5t156.5 -18.5q74 0 125 27q-30 -74 -174 -74q-51 0 -150.5 20.5t-150.5 20.5
q-129 0 -129 -80q0 -157 350 -157q421 0 428 374l2 103q-57 80 -174 155q-133 68 -225 140l-16 569q-31 43 -56 96h160l-4 -172q-2 -67 -8 -211q-6 -134 -6 -227q0 -35 137 -104q149 -75 180 -148q43 277 43 455q0 119 -45 438z" />
    <glyph glyph-name="fl2" unicode="&#xfb02;" horiz-adv-x="1356" 
d="M195 -86q77 -45 190 -45q84 0 303 51q274 64 410 64q284 0 395 -183l-39 31q-67 53 -201 80q-60 12 -118 12q-118 0 -369 -74q-234 -69 -369 -63q-137 6 -229 98l-94 -112l28 69l45 60q-53 65 -55 129q35 -62 66 -86q4 -4 14 -13l416 551q-83 4 -142 59t-73 138
q-6 35 -6 80h8q10 -85 57 -145q54 -70 133 -70q22 0 39 4l43 10l467 612q-14 -2 -43 -2q-114 0 -342 64q-185 52 -262 49q-114 -4 -182 -78q-16 -12 -21 -47q-4 -28 4 -57q27 -99 144 -99q86 0 143 37q68 44 68 125v76q26 -78 26 -96q0 -214 -200 -219q-94 -2 -156 58.5
t-62 154.5q0 47 25 84q89 133 229 141q109 6 310 -62q209 -71 307 -71q20 0 61 4l68 90l53 -55q59 22 88 49l31 22q-41 -59 -86 -92l-8 -4l-523 -622l125 51q15 2 37 2q131 0 242 -142q-31 21 -111 68q-24 10 -57 10q-65 0 -193 -51l-143 -57z" />
    <glyph glyph-name="glyph223" horiz-adv-x="377" 
 />
    <glyph glyph-name="glyph224" horiz-adv-x="377" 
 />
    <glyph glyph-name="glyph223" horiz-adv-x="377" 
 />
    <glyph glyph-name="glyph224" horiz-adv-x="377" 
 />
    <glyph glyph-name="glyph705" horiz-adv-x="377" 
 />
    <glyph glyph-name="glyph706" horiz-adv-x="377" 
 />
    </font>
</defs>
</svg>
