<?xml version="1.0" standalone="no"?>
<!DOCTYPE svg PUBLIC "-//W3C//DTD SVG 1.1//EN" "http://www.w3.org/Graphics/SVG/1.1/DTD/svg11.dtd" >
<svg>
<metadata>
Created by FontForge 20120731 at Tue Sep  2 08:20:21 2014
 By root
weknow (c) (weknow.deviantart.com). 2012. All Rights Reserved
</metadata>
<defs>
<font id="StoryTelling" horiz-adv-x="1139" >
  <font-face 
    font-family="Story Telling"
    font-weight="400"
    font-stretch="normal"
    units-per-em="2048"
    panose-1="2 0 0 0 0 0 0 0 0 0"
    ascent="1638"
    descent="-410"
    x-height="1128"
    cap-height="1536"
    bbox="30 -360 1506 1734"
    underline-thickness="150"
    underline-position="-142"
    unicode-range="U+0020-F005"
  />
<missing-glyph horiz-adv-x="1084" 
d="M30 0v1280h1024v-1280h-1024zM62 32h960v1216h-960v-1216z" />
    <glyph glyph-name=".notdef" horiz-adv-x="1084" 
d="M30 0v1280h1024v-1280h-1024zM62 32h960v1216h-960v-1216z" />
    <glyph glyph-name=".null" horiz-adv-x="0" 
 />
    <glyph glyph-name="nonmarkingreturn" horiz-adv-x="569" 
 />
    <glyph glyph-name="space" unicode=" " horiz-adv-x="569" 
 />
    <glyph glyph-name="space" unicode="&#xa0;" horiz-adv-x="569" 
 />
    <glyph glyph-name="exclam" unicode="!" horiz-adv-x="368" 
d="M206 1562q132 -15 132 -128v-4q-20 -376 -52 -480q-6 -44 -92 -172h-16q-58 63 -128 360q-20 64 -20 152q56 268 140 268zM72 588h64q77 0 132 -92l4 -16q-22 -104 -92 -104h-24q-120 23 -120 80v24q0 68 36 108z" />
    <glyph glyph-name="quotedbl" unicode="&#x22;" horiz-adv-x="496" 
d="M374 1550q88 -19 88 -84l-12 -44q8 -13 16 -100v-24q-40 -72 -68 -72h-8q-31 0 -36 16v4q0 17 56 96v8l-32 -8q-63 0 -84 80v4q19 124 72 124h8zM206 1538q0 -17 16 -32l8 -48v-4q0 -45 -12 -80l8 -48v-12q0 -47 -52 -92q0 -10 -32 -16h-4q-22 0 -32 20q40 47 40 84h-4
l-20 -4q-43 0 -92 72v28l8 12v28q20 88 84 88l44 -4z" />
    <glyph glyph-name="numbersign" unicode="#" horiz-adv-x="1140" 
d="M446 1570h88q44 -38 44 -128l12 -120q-8 -50 -20 -76q94 -48 156 -48q148 352 248 352h16q51 0 92 -68l4 -20q0 -67 -60 -120q-36 -40 -76 -164h4q132 67 132 140h8l16 -52q0 -71 -40 -128q-102 -120 -176 -120l-16 -4l-28 -84h8q14 12 48 12h8q38 0 72 -28q12 -4 12 -24
v-4q0 -60 -136 -144q-37 -19 -76 -24q-28 -12 -40 -152q10 -68 64 -68h32l48 4v-16q0 -44 -84 -44q-115 0 -160 156l-20 124l4 12q-192 88 -204 88q-20 0 -68 -200q-61 -184 -88 -184q-25 -24 -56 -24h-16q-112 0 -168 104v20h4l64 -8q52 0 52 68q0 44 64 212l20 80l-4 4
h-52q-74 -19 -128 -84h-4v12q30 102 96 136l60 16h60q27 143 68 260h-16l-12 4q-70 0 -116 -48q-52 -32 -68 -32q-16 21 -16 52q31 124 124 124h32q52 0 108 -12q16 81 16 120h-4q-24 0 -24 52v8q2 9 52 36q2 9 32 20q0 12 8 12zM526 1158l-60 -244q117 -48 164 -48h12v8
l36 188h-4l-144 96h-4z" />
    <glyph glyph-name="dollar" unicode="$" horiz-adv-x="940" 
d="M486 1726q116 0 116 -120l8 -60q51 0 148 -32q152 -32 152 -116q0 -80 -128 -96h-40q-31 0 -84 20l4 4v16q0 98 -48 124l-32 -324l4 -40l-4 -4h-4l16 -104q28 -23 116 -36q91 -30 120 -88q15 0 48 -120v-28q0 -111 -140 -208q-48 -80 -124 -80q0 -5 -60 -16l-4 -68v-44
q-11 -9 -32 -96q-25 -20 -40 -20q-32 35 -32 184v32l-24 -4q-189 0 -312 144q-80 144 -80 208v12q30 104 92 104q46 0 88 -92v-68q0 -108 176 -188l60 -8v4q21 148 40 148l-4 16l16 188q0 42 -60 76q-156 100 -200 152q0 18 -40 28q-12 21 -28 124v28q0 199 268 240
q0 63 -28 136v4q0 8 20 8v20q6 12 56 40zM438 1446l-96 -120q-12 -26 -12 -56v-8q0 -89 80 -140l44 -36h4l-12 356l-4 4h-4zM582 794l-24 -256q84 40 84 160q0 48 -60 96z" />
    <glyph glyph-name="percent" unicode="%" horiz-adv-x="1088" 
d="M698 1562q27 0 36 -44v-24q0 -99 -104 -484q-18 -53 -28 -352q-8 -54 -64 -124q-2 -13 -48 -44q-42 -80 -160 -80q-19 0 -144 56v8q88 77 104 136q56 190 156 396q44 156 60 260q25 48 36 136q-3 15 -32 48q124 112 188 112zM174 1522q143 0 188 -52q104 -74 104 -128
q0 -96 -148 -184l-56 -12q-102 0 -192 112q-32 54 -40 112q13 152 124 152h20zM166 1346v-12q0 -56 56 -64q54 0 64 36q12 21 12 40v16q0 36 -76 72q-49 0 -56 -88zM846 842h28q116 0 144 -88q25 -27 40 -80q0 -142 -72 -184q-82 -44 -116 -44q-138 0 -192 132l-8 48
q0 110 100 192q33 24 76 24zM790 650q13 -64 56 -64h32q40 0 40 52v4q0 69 -44 88l-20 4h-4q-60 -11 -60 -80v-4z" />
    <glyph glyph-name="ampersand" unicode="&#x26;" horiz-adv-x="1156" 
d="M502 1582q101 0 276 -56q140 -89 140 -176q0 -61 -64 -184q-60 -73 -152 -140q-67 -44 -172 -84v-4q36 -15 156 -132q70 -83 152 -144q27 13 36 124q0 51 -32 128v4q0 33 56 48l12 8q92 0 124 -80q24 -32 24 -80v-24q0 -129 -124 -208v-4q55 -82 164 -116q23 0 28 -44v-4
q0 -20 -84 -32q-79 0 -244 116l-236 -108q-67 -20 -144 -20h-36q-153 0 -236 116q-116 111 -116 220q0 100 144 232q22 0 124 60q-136 196 -136 316v48q0 149 120 188q76 32 220 32zM334 1246q0 -95 84 -200l124 44l104 80q52 86 52 152q0 75 -112 96l-44 4h-36
q-59 0 -100 -36q-37 0 -72 -112v-28zM246 722q0 -55 44 -136q110 -88 212 -88h32q55 0 184 56v4q-324 304 -336 336q-46 -7 -136 -144v-28z" />
    <glyph glyph-name="quotesingle" unicode="'" horiz-adv-x="260" 
d="M206 1538q0 -17 16 -32l8 -48v-4q0 -45 -12 -80l8 -48v-12q0 -47 -52 -92q0 -10 -32 -16h-4q-22 0 -32 20q40 47 40 84h-4l-20 -4q-43 0 -92 72v28l8 12v28q20 88 84 88l44 -4z" />
    <glyph glyph-name="parenleft" unicode="(" horiz-adv-x="784" 
d="M522 1654q196 -11 196 -32q36 -40 36 -84q0 -33 -32 -60h-4q-6 0 -16 52q-80 60 -188 60q-122 0 -176 -112q-44 -51 -164 -448l-4 -56v-16q0 -131 108 -304q69 -186 124 -216q42 -76 156 -112q44 -14 44 -24v-4q0 -92 -176 -116h-8q-94 0 -204 96q-116 217 -116 344
q-28 0 -48 476q-20 84 -20 136q0 149 88 224q30 38 76 64q164 132 328 132z" />
    <glyph glyph-name="parenright" unicode=")" horiz-adv-x="808" 
d="M382 1698q46 0 152 -68q92 -65 92 -96q29 -29 72 -96q57 -15 80 -352v-28q0 -127 -56 -268q0 -46 -32 -64q0 -30 -24 -48q-30 -156 -72 -232q-132 -155 -204 -188q-68 -60 -140 -60q-204 22 -204 44q-16 16 -16 44v4q0 53 80 64q0 7 56 16h36q100 0 132 56q97 87 116 172
q15 29 24 124q32 38 32 124v36l68 244l4 68q0 183 -112 324q-81 73 -172 104h-84q-38 -32 -52 -32v4q18 55 64 100l44 -4z" />
    <glyph glyph-name="asterisk" unicode="*" horiz-adv-x="708" 
d="M374 1582h20q52 -45 52 -100v-16q-20 -78 -20 -104v-28h4q18 50 68 72q24 16 36 16h56q19 -13 32 -80q0 -69 -68 -120l-36 -8v-12q160 -127 160 -188q-10 -40 -108 -40q-81 0 -140 88q0 18 -100 32q-64 -67 -120 -96h-72q-108 19 -108 68q0 65 160 92q40 28 40 36
l-164 80q-28 24 -28 56v16q0 52 128 68h32l72 -52h4q12 132 40 180q42 40 60 40z" />
    <glyph glyph-name="plus" unicode="+" horiz-adv-x="1108" 
d="M542 1450h12q94 -22 120 -288l4 -108v-32l-4 -4v-4h24q142 0 376 92h4v-4q0 -170 -216 -240l-164 -24l-36 8l-40 -320l-68 -8q-87 0 -116 184l-4 76v16l8 124h-4l-108 12q-21 0 -152 -80l-76 -12q-72 4 -72 16v44q0 43 40 52l-4 20q0 73 172 84l48 4q137 -8 176 -20
q60 163 60 204v28q0 11 -24 44l-20 88q39 48 64 48z" />
    <glyph glyph-name="comma" unicode="," horiz-adv-x="260" 
d="M206 624q0 -17 16 -32l8 -48v-4q0 -45 -12 -80l8 -48v-12q0 -47 -52 -92q0 -10 -32 -16h-4q-22 0 -32 20q40 47 40 84h-4l-20 -4q-43 0 -92 72v28l8 12v28q20 88 84 88l44 -4z" />
    <glyph glyph-name="hyphen" unicode="-" horiz-adv-x="864" 
d="M486 1067q344 0 344 -36l4 -20v-4q0 -60 -184 -116q-126 -32 -192 -32q-408 41 -408 68q-20 0 -20 28v20l40 48l-4 12q0 28 196 28z" />
    <glyph glyph-name="hyphen" unicode="&#xad;" horiz-adv-x="864" 
d="M486 1067q344 0 344 -36l4 -20v-4q0 -60 -184 -116q-126 -32 -192 -32q-408 41 -408 68q-20 0 -20 28v20l40 48l-4 12q0 28 196 28z" />
    <glyph glyph-name="period" unicode="." horiz-adv-x="296" 
d="M66 602h64q77 0 132 -92l4 -16q-22 -104 -92 -104h-24q-120 23 -120 80v24q0 68 36 108z" />
    <glyph glyph-name="slash" unicode="/" horiz-adv-x="612" 
d="M542 1562q35 0 40 -52v-8q0 -106 -112 -516q-12 -49 -20 -324q-10 -63 -52 -108q-21 -41 -52 -56q-53 -88 -168 -88q-55 8 -148 64q98 71 116 172q68 198 140 344q40 117 60 240q40 128 40 156v16q0 14 -28 48q123 112 184 112z" />
    <glyph glyph-name="zero" unicode="0" horiz-adv-x="1144" 
d="M406 1539h16q80 0 116 -44q24 0 24 -16q0 -57 48 -252h-8q0 40 -80 80q-46 16 -156 20l-16 -4v8q56 13 56 20l-4 12q-108 0 -128 -40v-8l28 20v-8l-12 -16l8 -8q-62 -33 -104 -188q-16 -66 -16 -104q0 -121 44 -380q20 -9 20 -36h12q60 0 60 -28q161 -92 220 -92h16
q79 0 188 100q96 45 96 136q0 80 32 212v40l4 4l-4 4v24q-47 272 -76 272q-36 71 -152 116q-36 22 -36 48v8q0 46 88 56h24q113 0 276 -172q35 -33 52 -116q72 -98 72 -220q0 -173 -64 -336q-132 -170 -192 -188q-101 -80 -224 -80h-24q-251 0 -476 236q-96 148 -96 240v92
l-8 104q23 0 36 152q31 135 104 220q108 112 236 112z" />
    <glyph glyph-name="one" unicode="1" horiz-adv-x="428" 
d="M246 1535h4q64 0 72 -164l8 -152v-188q0 -120 64 -376l4 -48v-32q-43 -108 -64 -108q0 -39 -80 -80l-60 -4q-101 26 -164 64q68 64 68 136q0 119 52 404v124l-8 80l4 148q0 42 -48 84v4q94 108 148 108z" />
    <glyph glyph-name="two" unicode="2" horiz-adv-x="1024" 
d="M590 1599h4q225 0 288 -152l8 -20h-4l-16 4v-8l4 -12q-6 -60 -12 -60l4 -28v-4q0 -207 -256 -420q-65 -91 -120 -136q-84 -56 -84 -72q-64 -102 -76 -104h-4v-4l24 4q129 0 196 -60q73 -28 144 -28h48q150 0 208 80l48 36v-4q-42 -144 -96 -172l-84 -40h-16l-168 -16h-12
q-51 0 -196 60l-28 4l-16 -4l-8 8l-240 -28h-36q-64 12 -64 56v4l136 92q0 11 100 88q172 217 256 352q18 22 32 84l104 156q24 57 24 100q0 36 -48 72l16 48l-60 16q-75 0 -84 -28q-116 -47 -116 -68l-28 -36v-12q0 -25 64 -112v-12q-136 52 -136 152q0 121 212 212
q48 12 88 12z" />
    <glyph glyph-name="three" unicode="3" horiz-adv-x="940" 
d="M322 1523h28q104 0 232 -80q116 -83 116 -116l12 -80q-20 -73 -104 -180q139 0 264 -164q24 -54 40 -204q-5 -35 -108 -188q-129 -100 -224 -100q-126 -28 -224 -28q-114 31 -300 144l-4 4q-15 0 -20 120q24 116 88 116q57 0 88 -52q-44 -17 -48 -24q-20 -16 -20 -64v-8
q37 -105 88 -132q27 -20 92 -20h12q82 7 208 124q76 77 76 148q0 133 -48 164q-70 48 -128 52l-60 -4q-64 0 -152 72v4l8 8q45 -36 88 -36q117 0 192 132q12 38 12 100v8q0 48 -108 124q-59 24 -100 24h-24l-16 4q-148 -18 -148 -60l-4 -4v-4q0 -59 60 -92h4v-8h-4
q-108 0 -108 32q-36 41 -36 72q29 108 44 108q0 37 120 72q59 16 116 16z" />
    <glyph glyph-name="four" unicode="4" horiz-adv-x="1020" 
d="M186 1539q80 0 80 -296q0 -103 -52 -256q202 52 344 52q100 -4 180 -16l4 84l-12 96l8 108q0 78 -52 112v4q100 108 152 108h4q60 0 68 -156q12 -100 12 -180v-128l-4 -16l4 -16v-36q0 -95 64 -356l4 -52q0 -32 -48 -116q-16 0 -24 -40q-48 -56 -132 -56q-97 22 -164 64
q60 69 60 96l32 308q-133 36 -248 36h-48q-139 0 -204 -64q-61 -11 -136 -44h-44v16q40 36 40 208q32 150 32 328l-44 36q-12 0 -12 8v8l4 4v4h-24v8q134 140 152 140h4z" />
    <glyph glyph-name="five" unicode="5" horiz-adv-x="972" 
d="M298 1495h108q14 0 196 -84q36 -16 156 -16q41 0 108 40v4h8v-44q-55 -96 -172 -96l-4 -4h-4l-272 56l-40 8l-28 -4l8 -36v-40q-44 -133 -44 -244q127 64 192 64h24q249 0 396 -212l12 -152q0 -86 -156 -240q-102 -82 -212 -96q-4 -12 -116 -16h-8q-145 0 -336 96
q-76 69 -76 76l-8 80v8q0 43 112 120h140l4 4h4l20 -32l-4 -4h-116q-36 -79 -36 -100v-24q46 -124 136 -124h20q184 0 224 112q28 91 40 184q-30 112 -72 112q-128 64 -288 64l-92 16v8q72 40 72 136q15 22 24 92l-20 108h-4q-22 -7 -64 -84l4 -16h-4l-12 12l4 4h4
q-32 71 -32 108v8q12 63 76 132q47 16 128 16z" />
    <glyph glyph-name="six" unicode="6" horiz-adv-x="996" 
d="M586 1439q273 0 328 -172l4 -28q-38 -72 -136 -72q-52 5 -52 20l4 20q0 45 -368 56h-44q0 -8 12 -8q0 -23 -80 -100q-76 -100 -76 -156v-24q30 -316 48 -316q84 -160 168 -160q200 7 200 48q58 29 92 160l8 72q0 64 -72 136q-14 0 -32 16h-24q-125 0 -220 -72
q-13 -25 -44 -56l-8 8v32q9 72 92 144q68 24 96 24h20q271 0 412 -144q0 -8 40 -44l12 -72q0 -124 -160 -272q-146 -96 -288 -96h-24q-254 0 -424 292q-40 98 -40 196q20 204 44 204q74 237 128 264q0 25 108 64q150 28 276 36z" />
    <glyph glyph-name="seven" unicode="7" horiz-adv-x="880" 
d="M834 1487h4l8 -8l4 -84q0 -46 -64 -116l-4 -28l4 -36l-20 -48l4 -36q0 -24 -56 -96l-196 -360q-52 -97 -112 -252q-13 -36 -76 -36l-84 -4h-12q-56 4 -56 16q8 66 48 112q112 141 180 276l24 60q23 0 68 120q192 249 192 284h-4l-48 -4q-63 0 -228 76l-76 4
q-164 0 -212 -56l-72 -52l-4 4q-12 33 -16 80q12 70 60 124q59 56 112 56l120 -8h8q82 -60 300 -60q144 0 204 72z" />
    <glyph glyph-name="eight" unicode="8" horiz-adv-x="996" 
d="M462 1523h4q252 -19 252 -44l72 -24q136 -99 136 -160q0 -80 -28 -96q-114 -130 -164 -136q-55 -48 -92 -48v-4q102 0 232 -88q27 -26 40 -52q52 -12 52 -112v-16q0 -83 -76 -224q-47 -56 -252 -124q-48 -12 -88 -12q-181 0 -376 108q-85 89 -100 152q-44 94 -44 184v28
q20 80 40 80q52 52 92 52h12q41 0 268 -40h4v4q-139 44 -272 232l-44 84v12l8 8h32v12q0 118 124 184q137 40 168 40zM318 1303q17 -132 48 -168q100 -108 140 -108l36 8l16 -20q57 41 96 128q60 51 60 108v8q0 125 -116 144h-8q-217 0 -252 -64zM210 807q0 -150 212 -260
l44 -4h24q164 0 204 92q48 57 48 152v4l4 4q0 71 -84 108l-60 12l32 -40h-4q-77 26 -152 64h-4q-94 -24 -240 -48q-24 -43 -24 -84z" />
    <glyph glyph-name="nine" unicode="9" horiz-adv-x="1008" 
d="M410 1567l156 -24l80 4q165 -29 204 -80l24 -28h56v-4q0 -13 -20 -40v-12q21 0 68 -296v-32q0 -63 -32 -172v-16q0 -139 8 -220q-125 -232 -284 -232q-179 -32 -280 -32h-12q-75 0 -176 112q-92 151 -92 236v8q0 92 92 164h68q36 0 76 -24v-4q-52 -30 -52 -56v-28
q26 -176 64 -176q111 -76 200 -76q124 3 156 76q62 66 68 120q9 0 12 36v12q0 45 -28 184l24 92v8q0 199 -64 260q-36 68 -156 108h-156q-125 0 -176 -84q-32 -19 -32 -76q4 -85 112 -212q0 -15 72 -36l24 -16l4 4h228v-4q0 -88 -160 -88q-200 0 -380 160q-76 118 -76 204
v24q32 128 80 156q87 76 108 76q44 8 136 8h20l20 -4q8 18 16 20zM354 875q24 -2 24 -12v-8h-4l-20 16v4z" />
    <glyph glyph-name="colon" unicode=":" horiz-adv-x="264" 
d="M154 1406q80 -11 80 -68v-8q-30 -88 -100 -88h-48q-48 2 -48 44q21 120 116 120zM102 854q34 0 68 -52q29 0 40 -44q-10 -92 -28 -92l-52 -8q-88 17 -88 84q-12 0 -12 56q0 45 72 56z" />
    <glyph glyph-name="semicolon" unicode=";" horiz-adv-x="268" 
d="M114 1386h8q35 0 76 -32q-13 -120 -84 -120q-84 0 -84 72q0 57 80 76zM130 842q99 -13 100 -48l4 -24l-4 -4l4 -4h4q0 -78 -104 -172l-12 -4q-60 0 -60 12q68 36 68 68v8q-75 0 -88 52v24q0 46 56 88z" />
    <glyph glyph-name="semicolon" unicode="&#x37e;" horiz-adv-x="268" 
d="M114 1386h8q35 0 76 -32q-13 -120 -84 -120q-84 0 -84 72q0 57 80 76zM130 842q99 -13 100 -48l4 -24l-4 -4l4 -4h4q0 -78 -104 -172l-12 -4q-60 0 -60 12q68 36 68 68v8q-75 0 -88 52v24q0 46 56 88z" />
    <glyph glyph-name="less" unicode="&#x3c;" horiz-adv-x="972" 
d="M870 1510q48 -12 48 -52v-4q-5 -73 -84 -156l-132 -92q-122 -89 -368 -200q139 -153 372 -332q159 -108 236 -168v-4q-57 12 -172 64q-77 0 -416 188l-244 192q-80 59 -80 108v4q7 12 132 56q159 99 332 188q44 45 172 96q54 18 196 112h8z" />
    <glyph glyph-name="equal" unicode="=" horiz-adv-x="876" 
d="M842 1386l4 -4v-52q-81 -85 -256 -120l-20 -4q-50 0 -300 60l-48 4q-87 -28 -128 -28h-8q-33 0 -56 64q0 26 128 72h8q237 -40 432 -40q198 0 244 48zM746 762q100 -14 100 -68q0 -65 -144 -92q-74 18 -268 36h-36l-168 -4q-160 18 -160 92v4h4q0 -14 216 -28h4l332 52z
" />
    <glyph glyph-name="greater" unicode="&#x3e;" horiz-adv-x="964" 
d="M78 1494q74 -121 248 -180l236 -108q352 -125 352 -168q18 -8 20 -16v-8q0 -63 -204 -156q-433 -308 -604 -412q-8 -20 -68 -24l-4 4v8q0 113 112 188q234 180 376 228q96 51 156 108q-63 25 -344 84q-91 38 -140 92q-180 112 -180 228l-4 84v8h4q13 0 28 -12q3 52 16 52
z" />
    <glyph glyph-name="question" unicode="?" horiz-adv-x="1076" 
d="M466 1734q52 -3 52 -16l4 4h4q69 0 272 -80q56 -31 200 -176q48 -105 48 -160q0 -32 -40 -56q-32 -116 -64 -116q-8 -33 -48 -76q-24 -73 -204 -188q-64 -32 -64 -68q0 -65 -100 -100l-28 -4q-104 14 -104 84l-4 4v4l16 8l-4 12q0 33 28 52q0 7 108 76q32 33 116 92
q128 156 128 228q0 140 -156 232q-54 16 -112 16h-44q-162 0 -204 -48q-72 -44 -72 -72q-20 -27 -20 -44q0 -88 48 -108q0 -25 32 -28q65 0 96 88l-24 24v4q12 24 64 24q66 0 76 -96v-16q0 -113 -96 -164h-28q-231 0 -300 180q-12 41 -12 84v28q0 213 132 292q0 43 264 80
h40zM530 618q58 0 88 -132q0 -84 -56 -92h-20q-136 13 -136 108q0 50 68 100q28 16 56 16z" />
    <glyph glyph-name="at" unicode="@" horiz-adv-x="1484" 
d="M710 1622h24q211 0 268 -64q144 -66 204 -136q43 -59 152 -176q28 -46 52 -220q0 -152 -100 -304q-57 -57 -148 -88l-88 -16q-387 0 -480 80q-142 73 -196 208q-48 49 -48 176q1 145 56 184q30 62 172 116l44 4q188 0 252 -36q6 -9 56 -16q64 -59 116 -156l4 -16v-20
l-24 -188v-52q0 -94 40 -108q51 0 104 84q28 77 28 144v28q0 92 -64 244q-122 156 -216 156q-140 28 -304 28q-106 0 -164 -64q-62 -33 -152 -164q-96 -119 -96 -292v-12q0 -133 96 -240q33 -42 140 -108q54 -54 168 -100q89 -24 188 -36q102 -36 280 -36q288 0 288 68
q0 22 -28 40q29 48 60 48q60 -30 60 -120v-24q0 -132 -192 -132h-36l-136 20q-47 0 -156 -28l-24 -4q-79 0 -344 68q-181 20 -272 64q-88 78 -152 188q-112 213 -112 356q0 82 36 252q49 86 188 224q27 24 36 24l-12 40q134 112 432 112zM502 974q0 -76 72 -144
q59 -52 192 -52l104 20l16 -4l4 140v28q0 129 -68 212q-55 48 -132 48q-133 0 -176 -152q-12 -43 -12 -96z" />
    <glyph glyph-name="A" unicode="A" horiz-adv-x="1412" 
d="M742 1548q130 -28 148 -40l-4 -20l8 -96v-48l-48 -212l-20 -104h4q116 61 136 128h8l8 -60q0 -45 -100 -176l-76 -52l-8 -88q22 -124 68 -172q54 -48 100 -48q95 0 124 160q0 20 -24 20v4q100 100 208 100q57 0 104 -92l4 -20q0 -170 -184 -284q-90 -64 -200 -64
q-252 0 -252 44q-32 0 -68 148q-28 149 -28 280q-99 38 -148 80l-4 -44l4 -20q0 -44 -48 -188q0 -48 -96 -208q-53 -68 -148 -68h-4q-102 0 -156 100l-20 100l4 4h40q56 0 156 52q57 46 80 108q35 76 68 212h-40q-32 0 -64 -28h-4l-8 8q14 140 120 140h20q72 287 128 340
q57 68 68 68l84 4l8 -8q0 29 52 40zM518 1052q88 -56 136 -56v16l-16 20q36 168 36 200q0 103 28 168q-5 28 -16 28q-58 0 -124 -116z" />
    <glyph glyph-name="B" unicode="B" horiz-adv-x="1148" 
d="M582 1544q64 0 220 -88q112 -84 112 -156q12 -6 12 -36h4q0 -97 -56 -148q-63 -69 -128 -116h4l96 4q157 0 228 -124q32 -48 32 -68v-12l12 -108q0 -95 -164 -224q-128 -76 -316 -76q-156 0 -284 92h-4q-20 -14 -20 -36q-53 -64 -128 -64q-85 19 -172 60v4l56 72
q16 90 28 288q36 126 36 280v16l-12 100l8 120q0 71 -52 96v8q100 108 152 108h4q40 0 60 -76h24q20 0 172 72q24 12 76 12zM470 1408q-132 -93 -132 -128l-8 -40v-232q0 -94 68 -380v-28q0 -37 -20 -60v-4q78 -60 180 -60q133 0 208 96q92 140 92 236v12q0 83 -336 100
l-88 -20q176 182 232 288q26 0 52 136q-29 76 -96 76zM590 976v-4h16q70 4 124 20v4z" />
    <glyph glyph-name="C" unicode="C" horiz-adv-x="1000" 
d="M582 1556h20q143 0 332 -148q28 -41 28 -92v-24q0 -114 -84 -204l-112 -64h-108q-62 0 -84 60l-8 20q0 74 64 128l4 -4l-4 -4q11 -90 32 -96h4l48 4l-4 28q56 48 56 108q-26 84 -60 84q-36 36 -128 36q-128 0 -204 -72q-136 -109 -136 -152q-32 -49 -32 -128
q0 -134 84 -320q9 0 40 -48q125 -96 248 -96q153 0 200 128q24 3 24 32h-4q-20 -12 -40 -12h-4q-29 0 -92 76v20q25 88 144 88q164 -18 164 -132v-8q0 -127 -128 -288q-102 -88 -240 -88l-64 -4q-149 0 -216 52q-213 107 -264 260q-28 60 -28 140l36 336q37 141 176 252
q199 132 340 132z" />
    <glyph glyph-name="D" unicode="D" horiz-adv-x="1124" 
d="M314 1536q31 0 40 -20q75 12 188 12h16q69 0 280 -80l64 -60l-4 -4v-4q96 -76 96 -120q96 -144 96 -376l4 -124q0 -22 -36 -72q-35 -100 -184 -252q-139 -48 -216 -48q-171 24 -216 64l-40 20q0 -56 -96 -84l-36 -4q-36 0 -172 64v4q72 50 72 172q0 99 48 360v136l-8 76
l4 128q-57 -32 -112 -32q-46 0 -72 36v4q0 28 64 88h4v-4q-12 -17 -12 -32q5 -18 36 -32q52 78 52 88q97 96 140 96zM386 1408l16 -200l-4 -152q0 -148 64 -392l8 -64l-8 -40q73 -36 124 -36q0 -12 36 -12q129 0 204 88q97 97 128 240l12 60q-18 286 -68 312
q-59 87 -164 156q-114 48 -268 48h-72z" />
    <glyph glyph-name="E" unicode="E" horiz-adv-x="1140" 
d="M1018 1616q45 -27 76 -88l16 -64v-8q0 -92 -80 -132q-92 -84 -144 -84h-16l-20 -12l-88 4l-60 -4q-115 0 -316 172l-68 4q12 -96 12 -176v-224q0 -19 112 -28q88 0 112 60q0 17 -56 36v4q31 24 76 24q124 0 124 -120v-8q0 -51 -144 -116l-72 -16q-43 0 -136 56h-4
q56 -224 56 -280v-20q0 -23 -20 -48q66 -40 152 -40h32q298 0 380 116l4 12h-4q-40 28 -40 68v8q24 48 72 48q112 -19 112 -80q-7 -172 -48 -172q-136 -124 -316 -124q-350 8 -452 24q-22 -12 -76 -12q-97 22 -164 64q64 62 64 112q20 257 56 424v136l-8 68l4 148
q0 47 -44 68l-8 20q98 106 148 112l24 -4l84 8q102 0 180 -64q53 -60 180 -60h36q198 0 264 132q-2 20 -24 20l-20 -4v4q27 36 52 36z" />
    <glyph glyph-name="F" unicode="F" horiz-adv-x="1136" 
d="M982 1608h4q58 0 120 -152v-24q0 -33 -132 -168q-106 -40 -152 -40q-114 0 -352 128q-96 28 -148 28l12 -172l-4 -188q73 -48 120 -48q64 6 64 32q0 24 -36 52v8q74 32 120 32h12q50 0 104 -124q0 -94 -240 -140h-40q-27 0 -84 20q52 -203 52 -252q0 -35 -52 -124
q-16 0 -24 -36q-48 -56 -124 -56q-36 0 -172 64v4q72 50 72 172q0 97 48 360v136l-8 72l4 144q0 66 -64 92q41 92 120 92q16 16 44 16l212 -28q0 -12 112 -52q65 -40 136 -40q61 -16 168 -20q72 0 140 60l4 36v8q0 92 -52 92v8z" />
    <glyph glyph-name="G" unicode="G" horiz-adv-x="1056" 
d="M938 1592h12q58 -36 76 -100q-8 -9 -8 -48l-52 -64q-71 -56 -140 -56q-60 0 -144 64q-84 -9 -84 -36q-123 -19 -240 -112q-96 -83 -96 -260q0 -247 144 -332q31 -48 108 -72q190 0 260 144l8 60q0 97 -68 132q-16 8 -44 8h-4q-72 0 -80 -64q0 -40 84 -40l12 -20
q0 -68 -124 -68q-77 0 -92 128q19 156 76 156l88 24q243 0 292 -92q92 -91 92 -144v-4q0 -104 -120 -296q-102 -116 -300 -116q-304 0 -404 172q-152 190 -152 380l-8 96q0 80 64 192q176 184 220 184q0 30 180 56q53 36 100 36l-24 28v4q219 0 256 -48l48 -12q58 0 72 80
v12z" />
    <glyph glyph-name="H" unicode="H" horiz-adv-x="1108" 
d="M258 1536h4q68 0 68 -184q12 -57 12 -168v-20l-4 -108q201 -148 312 -148l68 -4q96 3 96 8q12 39 12 72v132l-8 76l4 144q0 52 -48 88v4q95 108 148 108h4q64 -13 64 -108q12 -77 20 -220l-4 -120v-52h4l8 16l-8 56l4 4h4q20 -26 20 -92t-24 -108q48 -201 64 -308
q0 -30 -32 -88q0 -21 -36 -48q0 -48 -92 -80l-40 -4q-36 0 -172 64v4q72 55 72 160l12 176l-28 -4h-64q-60 0 -316 124l-36 8q48 -195 64 -316q0 -32 -48 -120q-16 0 -28 -44q-56 -48 -92 -48l-32 -4q-88 21 -172 64v4q72 51 72 164q0 129 40 300h-4l-60 -52h-12
q-11 0 -16 44q-28 28 -28 64q0 80 108 132l24 4l-12 92l4 96l4 4v4q0 94 -52 116v8q99 108 152 108z" />
    <glyph glyph-name="I" unicode="I" horiz-adv-x="428" 
d="M246 1536h4q60 0 68 -156q12 -100 12 -180v-184q0 -106 64 -372l4 -48q-14 -78 -68 -136q0 -31 -76 -68l-56 -8q-77 18 -168 60v8q64 62 64 120q16 233 52 400l4 152l-12 76l8 112q0 80 -52 112v4q100 108 152 108z" />
    <glyph glyph-name="J" unicode="J" horiz-adv-x="868" 
d="M502 1524h4l4 -20v-44q0 -25 68 -116q29 -61 92 -136q160 -215 160 -292l8 -144q0 -67 -44 -168q-153 -180 -224 -180q-87 -40 -192 -40q-146 0 -304 164q-44 116 -44 172q0 26 40 100q66 96 104 96q91 44 240 44q43 -45 64 -116q0 -65 -100 -112h-40q-40 19 -40 64l8 28
q-108 -68 -108 -140q0 -104 172 -152h56q144 0 192 172q28 103 28 172q0 56 -124 232q-144 105 -144 220l8 44q0 24 -32 28l-16 -4q-32 11 -32 20v4q68 3 180 100z" />
    <glyph glyph-name="K" unicode="K" horiz-adv-x="1092" 
d="M862 1576q23 0 116 -64v-8l-12 -12q-14 24 -48 24h-16q-117 0 -148 -244q0 -108 -104 -244l-28 -20q62 -40 88 -152q16 -150 48 -200q37 -120 88 -120q0 -7 64 -12q37 0 152 64v-4q0 -17 -40 -68q-38 -68 -100 -100q-101 -32 -188 -32q-46 0 -124 148q-20 238 -64 336
q-21 43 -72 64q-61 -20 -120 -20h-16q60 -233 60 -296v-12q0 -21 -44 -104q-13 -2 -36 -52q-44 -48 -120 -48q-104 24 -168 64q68 69 68 136q12 226 44 356q-32 13 -32 52v24q1 11 36 24l4 16v52l-8 88l4 136q0 61 -52 88v4q95 112 156 112q64 -15 64 -120q16 -113 16 -196
v-180q9 8 84 16q66 17 124 100q91 108 132 280q43 124 124 124h68z" />
    <glyph glyph-name="L" unicode="L" horiz-adv-x="1060" 
d="M250 1632q66 0 76 -212l4 -96v-200q0 -118 64 -376l4 -48v-20l-16 -48h4q90 -36 144 -76q59 -28 208 -40q76 0 196 84l36 48v8q-4 16 -40 16v8l40 8h16q44 -83 44 -120q0 -99 -160 -160q-66 -24 -152 -24q-163 0 -444 84q-75 0 -244 68v8q64 62 64 112q20 259 56 420v140
l-8 68l4 148q0 48 -52 88q105 112 156 112z" />
    <glyph glyph-name="M" unicode="M" horiz-adv-x="1100" 
d="M246 1536h8q107 -47 176 -96q180 -155 180 -336v-36h4q52 72 84 216q69 100 76 132l-8 8v4q95 108 148 108h4q66 0 76 -192l8 -128l-4 -108v-60q0 -144 68 -400l4 -44q0 -30 -32 -88q0 -21 -36 -48q0 -48 -92 -80l-40 -4q-36 0 -172 64v4q76 51 76 212q0 97 44 316v120
q-123 -156 -244 -192l-120 -24q-96 47 -96 84v12q0 84 48 84l12 8h8q14 0 28 -76h16q40 48 40 100q0 76 -108 188l-72 56h-4l8 -152l-4 -132q0 -134 64 -396l8 -60q0 -32 -48 -120q-16 0 -28 -44l-48 -36q-16 -12 -76 -16q-88 21 -172 64v4q72 51 72 164q0 107 48 364v64
l4 60l-12 92l4 104h4l-4 4v32q0 54 -48 88v4q101 108 148 108z" />
    <glyph glyph-name="N" unicode="N" horiz-adv-x="1096" 
d="M246 1536h4l88 -20q122 -117 180 -360q78 -170 100 -264q36 -178 104 -236q13 -19 44 -36q0 101 48 364v136l-8 72l4 144q0 52 -48 88v4q100 108 148 108q76 0 76 -188q6 0 12 -144l-4 -152q0 -140 68 -408l4 -40q0 -40 -52 -128q-16 0 -16 -24q-47 -68 -132 -68
q-36 0 -172 64v4l12 12v4q-62 46 -192 396q-31 77 -84 172q-60 135 -60 200q-21 65 -48 96q8 -48 8 -132v-120l-4 -24l4 -20v-20q0 -116 64 -364l4 -56q0 -23 -44 -112q-16 0 -32 -48q-8 0 -36 -28q-31 -24 -88 -24q-77 18 -168 60v8q64 62 64 120q12 206 52 400l4 152
l-12 80l8 108q0 80 -52 112v4q100 108 152 108z" />
    <glyph glyph-name="O" unicode="O" horiz-adv-x="1136" 
d="M642 1580h24q125 -12 160 -40l20 -16v-44q0 -14 -20 -40q0 -9 -76 -72q-5 -16 -36 -16h-32q-60 0 -68 36l-124 40h-12q-156 -23 -156 -44q-58 -38 -88 -112q-32 -21 -32 -56q-30 -26 -32 -148v-28q0 -190 120 -296q92 -104 116 -108q116 -64 184 -64h12q39 16 108 28
q68 20 132 104q37 46 64 144q52 70 52 160v56q0 166 -112 196l-56 12q-48 -20 -48 -64q0 -38 28 -60v-12q24 24 52 24h4q53 0 64 -88q0 -59 -52 -80q0 -12 -16 -20h-24q-192 32 -192 192v12q0 79 104 124q26 47 128 72h20q128 -39 128 -68q120 -113 120 -232
q0 -191 -60 -316q-23 -59 -172 -256l-60 -44q-152 -72 -260 -72q-98 0 -232 72q-183 115 -248 264q-44 175 -44 372q8 160 48 160q35 95 92 144q0 12 24 12q21 30 176 112q90 32 156 32h12q36 0 68 -12q0 12 36 40z" />
    <glyph glyph-name="P" unicode="P" horiz-adv-x="932" 
d="M246 1536h4q22 0 36 -24q112 24 192 24q248 -19 248 -44q164 -96 164 -180q8 0 12 -136q-25 -105 -88 -148q-124 -168 -272 -168h-24q-94 0 -172 112l-16 12v-4q0 -53 64 -340l4 -40q0 -33 -48 -120q-18 0 -24 -40q-58 -56 -120 -56h-8q-77 18 -168 60v8q64 62 64 120
q12 211 52 396l4 152l-12 84l8 108q0 80 -52 112v4q100 108 152 108zM318 1392l12 -192v-112h4q57 32 88 32q52 0 52 -100v-20q0 -12 48 -24q148 49 148 200q0 197 -172 260q-27 11 -88 16q-50 0 -92 -60z" />
    <glyph glyph-name="Q" unicode="Q" horiz-adv-x="1220" 
d="M526 1596q164 -29 164 -52q84 -36 88 -48v-12q-40 -108 -120 -108l-192 52q-154 -48 -200 -92q-112 -148 -112 -256q13 -220 24 -240q143 -204 304 -264l64 -12v4q-84 111 -84 260v52q0 120 56 204q14 104 48 104l48 120q0 32 168 60q83 0 244 -108q27 -33 40 -76
q-24 -282 -76 -424q-28 -111 -92 -172l-28 -56q84 56 112 56q104 0 128 -72q39 -124 80 -124v-8q-76 0 -164 72l-28 16q-71 0 -148 -72l-44 -16q-52 0 -124 24h-116q-220 0 -288 88q-143 129 -160 212q-84 173 -84 292l-4 56q30 259 88 308q32 65 152 144q67 52 108 52
q42 0 148 36zM586 820l4 -116l-4 -12q23 -87 56 -116q49 18 132 136q140 270 140 356v36q0 120 -100 168l-20 4q-120 0 -208 -392v-64z" />
    <glyph glyph-name="R" unicode="R" horiz-adv-x="1140" 
d="M246 1536h4q17 0 40 -20l172 20q274 -1 364 -176q24 -75 24 -108l-52 -136q-40 -2 -40 -16q-44 -80 -176 -124h-64q-40 0 -72 24v-4q0 -108 164 -276q139 -80 204 -80q116 0 160 88l4 16q0 8 -24 16v4q23 20 40 20q116 -32 116 -96q0 -135 -200 -256l-104 -12
q-185 0 -280 96l-112 160l-40 88h-4v-4q28 -97 28 -156v-16q-35 -112 -60 -112q0 -50 -96 -88l-36 -4q-34 0 -176 60v4q68 69 68 140q0 124 52 404v128l-8 72l4 148l-52 88q100 108 152 108zM322 1360q0 -59 32 -108l-24 -24v-120h40q180 34 180 68q19 4 48 80
q0 127 -108 164l-32 4h-24q-79 0 -112 -64z" />
    <glyph glyph-name="S" unicode="S" horiz-adv-x="968" 
d="M542 1544q138 0 296 -72q96 -94 96 -132l-4 -36l8 -32q-52 -104 -168 -172q-109 -36 -132 -36h-48q-69 0 -160 60l-8 12v12q162 34 212 92q56 101 56 124l-4 24l8 8q0 71 -124 80q-64 0 -132 -68q-49 -25 -96 -116l-8 -56v-44q0 -79 220 -196q352 -108 352 -212
q28 -52 28 -132q0 -125 -136 -208q-148 -60 -280 -60q-230 28 -348 88q-124 82 -124 136q-16 59 -16 152q0 60 96 112l16 4q51 -4 64 -12q-5 -49 -20 -84q0 -180 172 -248q56 -28 148 -28q57 0 152 92q20 2 56 96q-16 80 -56 108q-92 64 -132 64q-25 22 -160 80
q-151 84 -220 300v8q15 83 44 112q128 142 180 144q79 36 172 36z" />
    <glyph glyph-name="T" unicode="T" horiz-adv-x="1144" 
d="M338 1552h4l220 -16q26 0 236 -116q80 -36 152 -36h48q20 0 52 36q-12 28 -40 28h-48q20 24 52 24h40q60 -42 60 -84v-4q0 -71 -64 -116l4 -16q0 -24 -96 -44h-36q-168 53 -264 136l-24 12l8 -144v-188q0 -114 64 -372l4 -48v-16q-35 -112 -60 -112q0 -50 -96 -88l-36 -4
q-46 0 -176 64q64 69 64 116q16 230 52 404l4 64v88l-8 72l4 140l-12 56q-76 -8 -184 -64q-101 -96 -128 -96l-32 -4q-56 0 -72 56q20 24 32 108q31 72 188 128q21 36 88 36z" />
    <glyph glyph-name="U" unicode="U" horiz-adv-x="1148" 
d="M870 1564h16q88 0 88 -92q-9 -64 -48 -64l-4 -12q0 -34 64 -308l12 -112v-8q-20 -63 -28 -180q0 -202 84 -256h32q24 59 24 84h8v-40q0 -23 -60 -84q-33 -64 -104 -64h-12q-108 33 -108 68l-4 4h-4q-94 -116 -204 -116h-12q-205 0 -352 76q-81 34 -116 108
q-21 35 -44 168q48 266 48 456l4 36h4q-8 21 -8 84v8q0 11 -28 52q0 25 -60 40q-20 -7 -20 -36h-8v4q37 104 76 104q60 76 100 76h4q104 -32 104 -156q8 -24 8 -104q0 -129 -28 -316v-208q0 -36 44 -128q0 -30 52 -72l-4 -4l12 -4h4v4h-8v8l80 -8h12q76 0 236 80
q36 33 52 108l-4 20l32 252q0 59 -24 164q15 340 56 340z" />
    <glyph glyph-name="V" unicode="V" horiz-adv-x="1012" 
d="M882 1600q52 0 96 -84l4 -48v-20q0 -100 -72 -100l-12 4v12q18 0 28 40v4l-12 -8q-20 0 -36 48q-27 -23 -32 -44l4 -16q0 -67 -100 -368q0 -44 -104 -296q0 -46 -64 -268q-12 -9 -36 -72h-8q-72 29 -136 156q-52 153 -52 232q-56 126 -56 152l4 88l-20 100l4 4v4
q0 45 -72 216q-34 56 -116 56l-28 8l-20 -32h-8l-8 28v16q0 49 64 116q54 40 112 40q62 0 152 -140q19 -59 44 -196q23 -43 80 -204q12 -328 40 -340l-4 40v8q0 70 92 284q0 126 56 300q19 113 60 156q93 88 116 88v24q0 9 40 12z" />
    <glyph glyph-name="W" unicode="W" horiz-adv-x="1040" 
d="M854 1556h12q58 0 68 -172l8 -152v-184q0 -123 64 -368l4 -56v-16q-25 -87 -64 -120q0 -40 -84 -76l-172 -28h-8q-97 0 -156 124q-7 0 -16 24h-4q-152 -140 -248 -140q-156 0 -204 132l-16 260l28 296q36 158 36 292q-8 76 -64 76q-8 0 -8 16q70 80 116 80h12
q43 0 96 -84q60 -162 60 -260l-12 -272v-60q0 -91 48 -316l4 -52q68 65 68 132q36 60 36 160q-11 84 -36 84l-24 4l-20 -8l-16 4v4q21 22 40 24q123 0 172 -132l36 -148q43 -89 60 -108l4 -4h4q32 0 48 312q36 140 36 240v76l-8 76l4 144q0 44 -52 88q100 108 148 108z" />
    <glyph glyph-name="X" unicode="X" horiz-adv-x="1156" 
d="M302 1612l40 -8l-4 -28q77 -102 172 -360h4q88 226 144 264q52 64 88 76q53 48 124 48q128 -23 128 -84q0 -34 -64 -88h-16q-19 11 -40 52q-21 -4 -68 -84q-74 -97 -116 -176q-110 -126 -128 -188q88 -236 160 -328q215 -188 308 -188q84 32 84 64h8v-4q0 -43 -112 -128
q-58 -28 -144 -28q-103 0 -288 176q-23 31 -108 212h-8q-8 -40 -108 -184q-53 -200 -84 -228q-24 -16 -88 -16q-152 43 -152 88l-4 64q0 28 52 68l304 404q-68 215 -152 368q-67 80 -116 80q-33 -2 -64 -24h-8q0 118 124 164q81 16 132 16z" />
    <glyph glyph-name="Y" unicode="Y" horiz-adv-x="1000" 
d="M886 1612q45 0 84 -100q0 -45 -52 -124q0 77 -52 92q-40 -22 -40 -52q-53 -63 -112 -336q-54 -304 -80 -304q-24 -66 -60 -224q-29 -102 -112 -148q-66 -32 -124 -32q-40 0 -132 128h4q36 -20 56 -20h8q70 0 136 172q84 142 132 352l8 24h-44q-141 0 -192 140l-92 172
q-24 64 -120 64q-44 -28 -56 -28q-16 5 -16 36v16q0 22 76 76q45 40 124 40q139 0 208 -268q73 -156 108 -156l32 -12q48 125 76 304q26 102 68 136q79 52 164 52z" />
    <glyph glyph-name="Z" unicode="Z" horiz-adv-x="1136" 
d="M710 1676q142 0 204 -124v-8q0 -91 -120 -128q-80 -59 -136 -176q-78 -110 -176 -224q-34 -123 -76 -172q-40 -69 -40 -180q-7 0 -8 -20v-12h20q60 0 160 -64q41 -33 276 -52q216 17 216 104q-19 32 -64 32v8l92 16q35 0 48 -40v-16q0 -60 -44 -100q-45 -136 -580 -136
q-121 15 -212 36q-116 0 -148 36q-92 86 -92 116q22 196 128 352q0 24 244 344q176 252 260 276v8q-109 16 -232 16h-20q-156 0 -232 -44q-76 -13 -76 -36q0 -20 64 -24q-41 -48 -64 -48q-44 10 -44 20v8q0 88 116 184q37 24 320 40z" />
    <glyph glyph-name="bracketleft" unicode="[" horiz-adv-x="684" 
d="M370 1710q203 0 260 -28q24 -9 24 -16v-4q0 -113 -84 -160h-12q-5 0 -20 60q-21 28 -80 28h-20q-114 0 -164 -68q-68 -109 -68 -176q0 -62 48 -360q0 -632 52 -632q30 -28 64 -28h8q35 0 160 24q64 -7 64 -24v-4q-42 -108 -132 -108l-188 -24q-148 13 -148 104
q-40 64 -100 560l-4 92v52q24 294 76 500q0 23 48 108q0 32 24 32l188 44v20l4 4v4z" />
    <glyph glyph-name="backslash" unicode="\" horiz-adv-x="772" 
d="M138 1538q29 0 184 -84q42 -30 108 -284q23 -62 60 -228q88 -224 136 -376q32 -36 100 -36l16 4v-8q-66 -104 -208 -104l-40 4h-20q-44 19 -60 64q-108 344 -140 524q-44 146 -132 352q-17 11 -88 24q-24 33 -24 56q0 72 108 92z" />
    <glyph glyph-name="bracketright" unicode="]" horiz-adv-x="768" 
d="M526 1730q37 0 176 -72q-12 -41 -12 -108q0 -320 24 -320q20 -120 20 -200v-24l4 -32q-20 -277 -48 -504v-16q-20 -57 -40 -208q-44 -76 -144 -76h-120q-199 0 -272 80l-8 64q0 57 72 80h8l-4 -20q0 -42 68 -68q93 -40 108 -40q59 0 116 52q15 86 52 520q28 91 28 232v16
l-4 400q-59 68 -176 96l-24 -8l-172 8h-4q-46 0 -140 -100h-4q0 147 52 156q53 28 192 52q95 40 252 40z" />
    <glyph glyph-name="asciicircum" unicode="^" horiz-adv-x="516" 
d="M278 1526q78 0 136 -256q40 -80 72 -168l-8 -8h-28q-55 0 -128 192l-48 56q0 -8 -16 -8q0 -14 -80 -116q0 -36 -68 -48h-44q-36 6 -36 24q0 53 164 292q48 40 84 40z" />
    <glyph glyph-name="underscore" unicode="_" horiz-adv-x="1188" 
d="M722 386l416 -8l20 -4v-4q-31 -43 -240 -104q-143 -40 -308 -40h-52l-372 12q-26 0 -156 64v4q0 60 524 60z" />
    <glyph glyph-name="grave" unicode="`" horiz-adv-x="468" 
d="M142 1526q56 0 80 -116q101 -280 168 -280h48q-25 -28 -80 -28q-122 0 -172 156q-32 100 -80 100h-4q-8 0 -8 -16l-4 -4h-4q-29 0 -56 112v12q0 48 112 64z" />
    <glyph glyph-name="a" unicode="a" horiz-adv-x="960" 
d="M394 1316q70 -4 156 -28l-4 4v4l4 4h72v-8l-16 -24q108 -89 144 -96q21 -42 40 -188l-36 -248v-20q0 -152 120 -152q36 0 44 48h8l4 -28v-8q0 -46 -48 -108q-53 -24 -104 -24q-81 0 -152 40q-65 -60 -84 -60q-98 -48 -148 -48h-60q-192 18 -192 52q-104 141 -104 152
l-8 88q0 76 76 136q115 52 212 52q222 0 264 104l4 20v16q0 41 -20 116q-64 64 -188 64h-28q-111 0 -176 -80l-4 -24q0 -36 48 -36l8 8h4v-4q-25 -68 -64 -68l-72 4q-28 35 -28 64q0 38 88 144q16 48 40 60q87 72 200 72zM170 592q31 -92 120 -92h24q87 0 260 124
q28 0 28 80l48 144q-76 -81 -160 -108q-284 -23 -284 -48q-36 0 -36 -100z" />
    <glyph glyph-name="b" unicode="b" horiz-adv-x="908" 
d="M246 1528q68 -15 68 -112q16 -123 16 -200v-196q24 48 188 48q288 0 288 -104q0 -39 40 -100q28 -72 28 -184l4 -16q-51 -171 -184 -276q-82 -36 -228 -36q-76 0 -156 68q-26 -44 -120 -44q-87 21 -160 64q68 65 68 136q0 120 52 408v128l-8 68l4 148q0 49 -52 88
q105 112 152 112zM386 912l28 -20l4 4h28v-8l-8 -8h-8l-12 8q-7 0 -16 -40l-48 -20q44 -182 44 -232v-24l-4 -20l4 -4l-4 -4h8v8q51 -12 124 -12q65 0 88 60q92 122 92 248v4q0 63 -112 84q0 13 -136 28q-42 0 -72 -52z" />
    <glyph glyph-name="c" unicode="c" horiz-adv-x="844" 
d="M470 1148q126 0 248 -116q52 0 52 -24q44 -37 44 -56q0 -68 -84 -136q-13 0 -36 -24h-32l-16 -4l-16 4h-32q-56 17 -56 76l-4 16h8q7 -32 48 -32q28 0 28 48v4q0 36 -44 84l-104 8q-111 -17 -152 -56q-61 -56 -76 -132v-24q0 -71 60 -204q60 -60 92 -72l4 4h4l24 -4
q128 23 128 48l104 116q21 16 44 16h32q72 -43 72 -76q0 -63 -144 -200q-109 -76 -212 -76q-113 0 -244 100q-65 71 -156 228q-24 63 -24 80v20q0 71 36 148q38 101 152 164q73 36 88 36z" />
    <glyph glyph-name="d" unicode="d" horiz-adv-x="916" 
d="M742 1532h16q92 0 92 -76v-44q-20 0 -20 8q-56 0 -56 -60q-7 0 -20 -112v-8l20 -224l-16 -232v-44q8 -256 52 -256h8v-4q49 9 64 24h4q0 -112 -116 -144l-28 -4q-60 6 -116 60q-80 -80 -180 -80q-251 0 -300 120q-104 192 -104 296q-5 0 -12 60q9 98 64 204q27 45 120 68
q175 60 212 60h48q53 0 128 -32v4q12 40 28 304q73 112 112 112zM214 776q46 -167 88 -212q29 -48 56 -48h8q65 0 132 64q28 24 60 24l12 -4q0 47 28 208q-35 0 -104 72v8h4q92 0 92 28q-15 76 -104 76h-12q-180 -40 -220 -108q-33 -50 -40 -108z" />
    <glyph glyph-name="e" unicode="e" horiz-adv-x="836" 
d="M478 1152q205 0 328 -152v-20q0 -142 -108 -212q-129 -112 -196 -112h-12q-108 0 -196 72v4l12 -4q216 42 216 80q42 44 52 44l92 16q-25 116 -32 116l-56 16q-268 -14 -268 -80q-40 0 -52 -116q0 -115 60 -208q57 -52 104 -52q78 0 240 108q0 31 64 40q48 -13 48 -52v-8
q0 -125 -116 -180q-85 -84 -132 -84l-104 -4h-28q-96 0 -240 124q-124 209 -124 228v56q16 146 140 276q94 88 216 88q76 5 92 16z" />
    <glyph glyph-name="f" unicode="f" horiz-adv-x="912" 
d="M638 1612q128 0 212 -108q17 -7 32 -68v-4q0 -138 -140 -192l-32 -4q-116 0 -116 88h8q0 -25 40 -32h8q42 0 72 80q0 58 -152 84l-60 4h-16q-77 0 -160 -88l-16 -12q12 -96 12 -200v-20q30 -56 60 -56h48q13 0 20 40q-6 16 -12 16h-16l-12 -8h-8l-4 16q15 40 48 40
q96 -9 96 -84q-19 -128 -84 -128h-4q-49 1 -136 76v-4q0 -142 64 -396l8 -64q0 -25 -44 -112q-24 -10 -24 -36q-45 -64 -132 -64h-8q-84 24 -160 56q0 14 52 76q15 37 32 296q32 134 32 168v28l-48 52v60q0 35 36 72h4l4 108v32q0 54 -48 92q123 136 200 136q37 15 240 36
q43 24 104 24z" />
    <glyph glyph-name="g" unicode="g" horiz-adv-x="1012" 
d="M542 1128h108q48 -5 48 -24l-4 -20q62 0 108 -76q44 -37 60 -100v-20q0 -23 -152 -76h-8q-28 0 -80 40q17 16 32 16l76 -32q9 0 16 36q-25 120 -108 120h-44q-179 0 -232 -132q-19 -33 -28 -100q11 -188 28 -188q62 -88 212 -88h24q53 3 148 84q19 22 28 56q0 84 -40 140
q58 84 104 84l4 -4h4q48 4 56 12h4l16 -4l16 4h4q16 0 16 -48v-28q0 -97 -36 -200l60 -484q0 -137 -124 -268q-63 -107 -148 -124q-111 -28 -216 -28q-154 0 -196 52q-124 77 -172 212l-12 64l32 172v4q0 50 -72 64l-44 -12v4q18 51 64 88q0 11 60 16q0 13 24 16
q144 -35 144 -68q40 -52 40 -124v-4l-24 -184q0 -84 96 -124q16 -8 44 -8h8q160 17 160 48q0 10 100 140q52 104 52 232v16l4 12l-4 20v112h-4q-90 -84 -180 -84l-148 -8q-118 0 -252 164q-92 160 -92 244q0 175 220 336q90 52 200 52z" />
    <glyph glyph-name="h" unicode="h" horiz-adv-x="1012" 
d="M250 1528q66 0 76 -228l4 -108v-160q80 76 180 76q136 0 272 -84q52 -97 52 -172v-12l-12 -188v-60q0 -96 52 -96h12q38 0 96 48v-4q-41 -144 -136 -144q-51 -16 -120 -16q0 9 -40 60l-8 64l32 332q0 78 -68 112q-23 32 -120 32q-105 0 -144 -76l-36 -40q56 -209 56 -280
q0 -25 -44 -108q-12 -1 -40 -56q-39 -44 -124 -44l-160 56v8q64 66 64 116q12 214 48 380q5 0 8 96l-4 4l4 20v48l-12 92l8 112q0 70 -52 108q99 112 156 112z" />
    <glyph glyph-name="i" unicode="i" horiz-adv-x="516" 
d="M214 1492h20q60 0 84 -108v-48q0 -64 -60 -88q-65 -40 -100 -40q-46 0 -52 104l-8 44q13 80 48 80v20q25 36 68 36zM178 1076h52q104 -9 104 -100v-16l-28 -352q0 -63 100 -84q72 9 72 32h8v-4q-39 -97 -80 -120q-85 -59 -160 -64l-20 -4q-116 37 -116 104q24 71 44 392
l4 28v16q0 20 -32 48h-8q-21 0 -88 -32v8q0 66 104 140q16 8 44 8z" />
    <glyph glyph-name="j" unicode="j" horiz-adv-x="840" 
d="M514 1476q124 -21 124 -52q11 0 16 -40v-48q-23 -43 -44 -112l-40 -16h-24q-71 0 -160 84l-4 28v32q0 88 132 124zM538 1080q100 0 156 -68v-84l-24 -240v-60q0 -43 124 -312l-4 -16q20 -49 20 -92q-9 -204 -32 -204q-50 -98 -140 -216q-199 -148 -348 -148h-32
q-77 0 -144 68q-43 0 -84 268q0 86 56 160q8 30 24 40l4 24v8l-4 4v4l4 4l16 -8l20 4q-8 15 -80 56v4l68 8q53 0 116 -64q12 0 20 -192q23 -84 60 -84q43 -28 68 -28q38 0 56 56q72 88 72 140l8 192q-30 0 -60 240q20 84 20 188v32q0 152 -56 152q-28 5 -28 12v36
q53 93 124 116z" />
    <glyph glyph-name="k" unicode="k" horiz-adv-x="924" 
d="M246 1528q58 0 68 -108q16 -123 16 -200v-196q0 -128 40 -264q41 15 84 64q29 0 36 176q34 74 156 132l48 4q49 0 200 -84v-8q0 -23 -164 -52q-96 -42 -96 -128l4 -4v-4q0 -14 -44 -96q39 0 88 -128q52 -76 96 -76q29 0 76 64h4l8 -48q-24 -176 -52 -176q-26 -40 -60 -40
l-68 -8q-91 0 -108 184q0 114 -108 124h-24q-48 -7 -48 -20v-80q-18 -21 -40 -80q-32 -15 -32 -48q-54 -52 -120 -52h-12q-68 15 -164 60v4q64 62 64 112q16 227 56 420v132l-8 80l4 140q0 56 -52 92q105 112 152 112z" />
    <glyph glyph-name="l" unicode="l" horiz-adv-x="444" 
d="M158 1516h8q60 0 112 -172l4 -24q-24 -165 -24 -264v-8q0 -438 40 -500q0 -62 96 -80q6 16 12 16l8 -8v-4q-31 -15 -52 -64q-43 -80 -108 -80h-12q-113 0 -156 120l-12 88q0 50 44 368l8 328q0 164 -64 164l-32 24v4q77 92 128 92z" />
    <glyph glyph-name="m" unicode="m" horiz-adv-x="1368" 
d="M566 1116q124 0 196 -88v-4q77 75 168 84l116 8h24q85 0 164 -108l24 -124v-4q-12 -147 -32 -268v-32q0 -79 84 -128h20q-78 -112 -192 -112h-28q-80 0 -80 40q-11 0 -16 80q0 44 52 224q24 111 24 212q0 136 -112 136q-53 0 -108 -56q-7 -1 -48 -80l-24 -24
q0 -320 -32 -320q-77 -72 -120 -96l-4 4q32 29 32 300q0 121 -104 200q-30 16 -92 16q-148 -87 -148 -108q-20 -94 -20 -240l-8 -48l24 -140q-22 -100 -100 -100h-4q-64 0 -120 48v4q0 109 60 372l4 60q0 81 -40 116h-28l-68 -20q0 65 80 152l76 24q136 -23 136 -80h4
q103 100 240 100zM1330 456h8v-4h-8v4z" />
    <glyph glyph-name="n" unicode="n" horiz-adv-x="848" 
d="M558 1116q166 0 220 -124q20 -59 20 -140q0 -129 -52 -356l-4 -28q0 -88 64 -88l12 4q-60 -64 -104 -64q-120 0 -120 92q0 31 52 148q28 101 28 192q0 143 -120 216l-72 8q-25 0 -152 -100q-16 -75 -20 -160l4 -24l-12 -116l20 -132v-16q-23 -84 -84 -84l-20 -4
q-59 0 -116 48q0 121 60 384l4 52q0 81 -44 116h-24l-68 -20q0 58 72 148q20 12 84 28q132 -22 132 -76v-4h4q112 100 236 100z" />
    <glyph glyph-name="o" unicode="o" horiz-adv-x="868" 
d="M350 1132l60 -8l104 4q78 -9 148 -72q20 -16 40 -80v-4q0 -59 -108 -108l-92 12v4l72 40l12 36q-11 40 -68 40q-164 0 -304 -212l-24 -60q0 -121 48 -152q124 -72 248 -72q87 0 156 96q36 72 36 136q-20 66 -20 92q6 48 80 48q42 0 80 -72q20 -34 20 -80
q0 -209 -156 -304q-50 -44 -92 -44q-331 0 -388 76q-123 125 -160 248l-12 52q15 146 44 196q77 188 276 188z" />
    <glyph glyph-name="p" unicode="p" horiz-adv-x="968" 
d="M486 1144q193 0 268 -80q136 -104 136 -132l48 -196v-24q0 -92 -128 -204q-137 -84 -256 -84h-116q-37 0 -88 20q32 -112 52 -248q-3 -39 -32 -84q0 -27 -36 -48q0 -39 -80 -80l-60 -4q-101 26 -164 64q68 65 68 128q0 128 52 408v140l-8 64l4 148q0 45 -48 88v4
q100 108 152 108q25 0 52 -40q117 52 184 52zM358 956l56 -80q0 -10 -32 -16l-52 12v-16l4 -44l-4 -64v-136q100 -124 164 -124l60 -4q83 27 188 160q28 64 48 156v24q-3 36 -60 104q-78 96 -268 96q-65 0 -104 -68z" />
    <glyph glyph-name="q" unicode="q" horiz-adv-x="920" 
d="M482 1140q92 0 188 -76h4q33 68 76 68q104 0 104 -60l4 -48l-4 -12l-20 4q-47 0 -56 -48l-20 -140q20 -125 20 -208v-24l-16 -224q0 -292 64 -292q33 2 64 24v-8q0 -77 -56 -108q-22 -32 -92 -32q-56 0 -124 76q-44 30 -44 132q0 69 32 260v32l-4 4v4q-92 -56 -144 -56
h-12q-206 0 -316 104q-100 138 -100 316v8q0 159 84 200q210 104 368 104zM166 908q23 -257 68 -300q59 -56 116 -56q169 0 196 76l56 56q16 60 28 256q-41 0 -76 64h4l44 12v16q0 44 -124 44q-150 0 -240 -84q-14 0 -60 -52q-8 0 -12 -32z" />
    <glyph glyph-name="r" unicode="r" horiz-adv-x="860" 
d="M186 1096q124 -27 124 -48h8q89 48 176 48h44q40 0 100 -64q48 -40 132 -40q25 8 28 20v12q0 40 -48 40h-8v8q0 10 28 20q60 -14 60 -68v-20q-36 -100 -92 -100h-24q-23 0 -104 56l-60 12h-20l-4 4q-99 -14 -176 -80q-32 0 -44 -316v-12l20 -136q-22 -88 -96 -88l-4 -4
h-4q-100 15 -104 40l-4 -4h-4l-4 4v12q0 135 60 384v48q0 86 -40 116h-24l-72 -20q7 68 80 152zM742 1064v-12h-8v4z" />
    <glyph glyph-name="s" unicode="s" horiz-adv-x="708" 
d="M454 1168h16q130 0 176 -100q12 -29 16 -68q0 -55 -100 -136h-40q-43 0 -80 40h8l12 -4q84 10 84 60q0 52 -84 52h-24q-128 -15 -128 -92v-4q0 -92 276 -184q92 -84 92 -204v-40q0 -42 -44 -84q-112 -88 -300 -88q-72 0 -172 60q0 7 -60 40q-72 119 -72 156v12
q36 132 132 132h8q51 -33 68 -56q0 -41 -20 -112q24 -108 132 -108q50 0 184 60q16 26 16 48q-25 88 -68 88q-288 164 -288 212q-40 69 -40 128q27 83 136 156q93 36 164 36zM426 912h8l8 -8h-8z" />
    <glyph glyph-name="t" unicode="t" horiz-adv-x="836" 
d="M262 1516h4q71 0 120 -180v-24q0 -43 -16 -128q35 -24 68 -24q11 0 24 16q24 0 24 68v4h-4l-20 -4q0 60 40 60h16q72 -12 72 -64q-81 -160 -152 -160h-12l-60 8v-104q0 -373 40 -440q0 -59 96 -76v4l12 12l8 -8q0 -12 -24 -12v-4h16q80 0 140 108l8 48v16q0 22 -20 32
l-44 -12v4q24 48 104 48q104 -15 104 -100v-12q0 -92 -72 -164q0 -51 -232 -108l-80 -8h-8q-75 0 -172 52q-60 63 -60 172v12q0 42 44 372l8 260q-44 64 -92 64q-39 0 -56 -72h-8q-48 32 -48 80v16q33 44 96 44h8q39 0 92 -20v8q0 83 -88 116v8q75 92 124 92z" />
    <glyph glyph-name="u" unicode="u" horiz-adv-x="1024" 
d="M782 1128h4q68 0 68 -124v-8q0 -68 -24 -272q8 -244 68 -244l44 -12h16q15 0 36 16v-8q0 -56 -120 -120q-23 -16 -100 -28q-50 0 -100 84h-8q-43 -88 -140 -88l-44 -12h-4q-195 0 -288 104q-23 0 -28 412q-32 107 -64 148h-4q-48 -13 -48 -28l8 -24h-4q-20 10 -20 32v20
q0 81 148 108h16q104 0 104 -312v-28q0 -172 164 -220q16 -8 44 -8h12q51 0 104 64q76 232 76 292q0 76 -56 172v20q0 64 140 64z" />
    <glyph glyph-name="v" unicode="v" horiz-adv-x="916" 
d="M790 1128q96 0 96 -120v-20q0 -102 -76 -276q-25 -16 -76 -156q-86 -154 -168 -212l-56 -20h-52q-61 47 -80 84q-24 22 -40 84q-28 17 -28 60q0 96 -44 236q-13 9 -64 128q-45 56 -84 56h-28l-4 4h-4l-4 -20v-16l8 -24h-4q-52 38 -52 68v16q0 55 112 92l24 4
q169 0 228 -344q45 -161 88 -236l36 -8q71 29 120 140q64 203 64 288l-16 112q0 65 104 80z" />
    <glyph glyph-name="w" unicode="w" horiz-adv-x="1536" 
d="M1374 1156h16q43 0 80 -48q36 -36 36 -104v-28q0 -25 -40 -132q0 -41 -108 -264q-40 -133 -100 -164q-60 -100 -176 -100h-32q-124 0 -124 28q-57 54 -84 204v20l16 212v12h-4q0 -65 -156 -368q-84 -104 -216 -104q-126 0 -180 148q-36 108 -36 352q-46 180 -120 180
q-41 0 -52 -84l-4 -4h-12q-48 81 -48 128q21 64 108 64h48q189 0 244 -172l4 -56v-24l-4 -40q4 -126 64 -268l28 -16q51 29 136 168l72 116q12 32 12 88q0 120 -56 120h-24q-48 0 -80 -60h-8l-4 28v20q0 69 112 116q33 11 108 16q90 0 128 -124q48 -107 48 -268
q53 -182 76 -200l40 -32h8q76 23 112 84q76 180 76 332v28q0 66 -52 104l-8 8q85 84 156 84z" />
    <glyph glyph-name="x" unicode="x" horiz-adv-x="988" 
d="M818 1168q62 0 88 -40v-4q-10 -95 -220 -520l-24 -28q44 -68 108 -68l60 -16q100 25 100 40v4l-28 44l4 4h4q35 -32 40 -76l8 -116q0 -47 -124 -80l-80 -8q-97 0 -148 68q-61 54 -72 80q-184 -136 -276 -136h-36q-116 26 -116 112q-9 7 -16 52l4 32v4h8v-20l8 -8h76
q115 0 208 64l48 32q-56 86 -168 352q-30 76 -104 76q-44 0 -44 -48q-5 -41 -12 -48q-84 30 -84 100q0 65 80 92l100 12h16q89 0 204 -208q31 -95 148 -224q112 137 112 244q0 50 -44 104l-4 16q0 100 176 116z" />
    <glyph glyph-name="y" unicode="y" horiz-adv-x="952" 
d="M806 1128h32q26 0 40 -212q44 -44 44 -444q0 -371 -64 -468l-68 -168q-94 -89 -236 -140h-108q-171 40 -224 84q-160 115 -160 184l-16 28v32l4 32l-4 32q0 103 264 168h24q88 -13 88 -84v-8q0 -73 -44 -108h-8l-8 8l12 44v20q0 46 -76 60h-16q-67 0 -84 -116v-20
q0 -55 52 -116q92 -80 200 -80q77 0 152 84l56 100l24 76l-12 312l-4 4h-4q0 -69 -124 -156q-52 -16 -84 -16q-146 0 -288 188q-36 126 -36 376l-16 144q-12 0 -12 12l-4 4h-4q-36 -37 -36 -60h4l16 -4v-8l-28 -16h-8l12 32q-15 0 -24 60q18 124 112 124q69 0 136 -204
q20 -324 48 -324q73 -116 160 -116h12q77 0 184 152l-4 24l44 204q0 243 84 280z" />
    <glyph glyph-name="z" unicode="z" horiz-adv-x="912" 
d="M770 1160h28l8 -8v-24q0 -98 -68 -256q0 -50 -232 -328l-92 -84q16 -8 188 -24q80 0 176 56q35 24 48 112q56 -40 56 -124q0 -68 -112 -156q-161 -68 -244 -68h-28q-168 0 -348 64q-120 64 -120 132v32q8 40 40 40h40q42 32 52 32l56 -4l28 8q0 -8 12 -8q215 102 320 276
q40 85 40 184v4q0 44 -88 44q-272 -16 -272 -76l-4 -12q0 -9 56 -28v-4l-60 -16h-8q-120 17 -120 100q19 100 88 100l28 4h40l220 -20q61 0 272 52z" />
    <glyph glyph-name="braceleft" unicode="{" horiz-adv-x="560" 
d="M414 1734q88 -23 88 -48l4 4h4q18 -8 20 -16v-8q0 -26 -52 -116l-4 -24h-8l4 16l-4 36h-20q-52 0 -52 -12v-4q20 0 20 -16l16 -128q-18 -214 -60 -240l-80 -160l-44 -56v-4q8 -13 100 -76q28 -39 36 -92q44 -58 44 -128l-16 -212v-40q0 -33 20 -80h8q2 16 12 16h12
q51 0 60 -88v-8q0 -23 -28 -40h-60q-104 0 -104 24q-60 76 -60 100q-20 74 -20 152l8 56q-20 60 -20 236q-31 101 -132 168q-60 52 -76 52v4q10 12 72 40q92 95 92 188q28 134 44 316q53 188 176 188z" />
    <glyph glyph-name="bar" unicode="|" horiz-adv-x="264" 
d="M106 1726q82 0 112 -68l16 -204q-32 -253 -32 -312l4 -40l-4 -4h-4q12 -48 12 -108v-60l-36 -468l-4 -160q-13 0 -28 -84q-21 -28 -44 -28q-27 0 -36 240q9 206 44 236l-4 16l16 184q0 29 -32 136l-28 544q-12 66 -28 108v4q0 8 20 8v20q6 12 56 40z" />
    <glyph glyph-name="braceright" unicode="}" horiz-adv-x="560" 
d="M146 1734q141 0 184 -240q37 -388 80 -388q28 -64 108 -92l12 -12v-4q-30 0 -160 -128q-52 -40 -52 -204q0 -72 -16 -124l8 -60q0 -166 -68 -228q-16 -40 -52 -40l-64 -4h-60q-28 17 -28 40v8q9 88 60 88h12q8 0 8 -12l4 -4h8q20 47 20 88v28l-16 224q0 51 44 128
q15 69 52 96q84 52 84 72q-55 48 -108 192q-68 71 -68 192l-8 64q8 148 28 148h8v4q0 12 -52 12h-20l-4 -40h-8q0 24 -32 68q-20 43 -20 60v8q8 16 24 16l4 -4q37 48 88 48z" />
    <glyph glyph-name="asciitilde" unicode="~" horiz-adv-x="1196" 
d="M314 1146h44q123 0 308 -84q184 -48 324 -48h8q132 0 132 60v8q0 32 -44 32h-20v8l28 8q72 -9 72 -64v-36q0 -113 -140 -160q-94 -48 -188 -48h-4q-108 0 -404 152q-90 20 -124 20h-40q-160 0 -160 -88h-8q-68 24 -68 84v4q0 152 284 152zM1054 1114v-8h-8z" />
    <glyph glyph-name="Adieresis" unicode="&#xc4;" horiz-adv-x="1366" 
 />
    <glyph glyph-name="Aring" unicode="&#xc5;" horiz-adv-x="1366" 
 />
    <glyph glyph-name="Ccedilla" unicode="&#xc7;" horiz-adv-x="1479" 
 />
    <glyph glyph-name="Eacute" unicode="&#xc9;" horiz-adv-x="1366" 
 />
    <glyph glyph-name="Ntilde" unicode="&#xd1;" horiz-adv-x="1479" 
 />
    <glyph glyph-name="Odieresis" unicode="&#xd6;" horiz-adv-x="1593" 
 />
    <glyph glyph-name="Udieresis" unicode="&#xdc;" horiz-adv-x="1479" 
 />
    <glyph glyph-name="aacute" unicode="&#xe1;" 
 />
    <glyph glyph-name="agrave" unicode="&#xe0;" 
 />
    <glyph glyph-name="acircumflex" unicode="&#xe2;" 
 />
    <glyph glyph-name="adieresis" unicode="&#xe4;" 
 />
    <glyph glyph-name="atilde" unicode="&#xe3;" 
 />
    <glyph glyph-name="aring" unicode="&#xe5;" 
 />
    <glyph glyph-name="ccedilla" unicode="&#xe7;" horiz-adv-x="1024" 
 />
    <glyph glyph-name="eacute" unicode="&#xe9;" 
 />
    <glyph glyph-name="egrave" unicode="&#xe8;" 
 />
    <glyph glyph-name="ecircumflex" unicode="&#xea;" 
 />
    <glyph glyph-name="edieresis" unicode="&#xeb;" 
 />
    <glyph glyph-name="iacute" unicode="&#xed;" horiz-adv-x="569" 
 />
    <glyph glyph-name="igrave" unicode="&#xec;" horiz-adv-x="569" 
 />
    <glyph glyph-name="icircumflex" unicode="&#xee;" horiz-adv-x="569" 
 />
    <glyph glyph-name="idieresis" unicode="&#xef;" horiz-adv-x="569" 
 />
    <glyph glyph-name="ntilde" unicode="&#xf1;" 
 />
    <glyph glyph-name="oacute" unicode="&#xf3;" 
 />
    <glyph glyph-name="ograve" unicode="&#xf2;" 
 />
    <glyph glyph-name="ocircumflex" unicode="&#xf4;" 
 />
    <glyph glyph-name="odieresis" unicode="&#xf6;" 
 />
    <glyph glyph-name="otilde" unicode="&#xf5;" 
 />
    <glyph glyph-name="uacute" unicode="&#xfa;" 
 />
    <glyph glyph-name="ugrave" unicode="&#xf9;" 
 />
    <glyph glyph-name="ucircumflex" unicode="&#xfb;" 
 />
    <glyph glyph-name="udieresis" unicode="&#xfc;" 
 />
    <glyph glyph-name="dagger" unicode="&#x2020;" 
 />
    <glyph glyph-name="degree" unicode="&#xb0;" horiz-adv-x="819" 
 />
    <glyph glyph-name="cent" unicode="&#xa2;" 
 />
    <glyph glyph-name="sterling" unicode="&#xa3;" 
 />
    <glyph glyph-name="section" unicode="&#xa7;" 
 />
    <glyph glyph-name="bullet" unicode="&#x2022;" horiz-adv-x="717" 
 />
    <glyph glyph-name="paragraph" unicode="&#xb6;" horiz-adv-x="1100" 
 />
    <glyph glyph-name="germandbls" unicode="&#xdf;" horiz-adv-x="1251" 
 />
    <glyph glyph-name="registered" unicode="&#xae;" horiz-adv-x="1509" 
 />
    <glyph glyph-name="copyright" unicode="&#xa9;" horiz-adv-x="1509" 
 />
    <glyph glyph-name="trademark" unicode="&#x2122;" horiz-adv-x="2048" 
 />
    <glyph glyph-name="acute" unicode="&#xb4;" horiz-adv-x="682" 
 />
    <glyph glyph-name="dieresis" unicode="&#xa8;" horiz-adv-x="682" 
 />
    <glyph glyph-name="notequal" unicode="&#x2260;" horiz-adv-x="1124" 
 />
    <glyph glyph-name="AE" unicode="&#xc6;" horiz-adv-x="2048" 
 />
    <glyph glyph-name="Oslash" unicode="&#xd8;" horiz-adv-x="1593" 
 />
    <glyph glyph-name="infinity" unicode="&#x221e;" horiz-adv-x="1460" 
 />
    <glyph glyph-name="plusminus" unicode="&#xb1;" horiz-adv-x="1124" 
 />
    <glyph glyph-name="lessequal" unicode="&#x2264;" horiz-adv-x="1124" 
 />
    <glyph glyph-name="greaterequal" unicode="&#x2265;" horiz-adv-x="1124" 
 />
    <glyph glyph-name="yen" unicode="&#xa5;" 
 />
    <glyph glyph-name="mu" unicode="&#xb5;" horiz-adv-x="1180" 
 />
    <glyph glyph-name="partialdiff" unicode="&#x2202;" horiz-adv-x="1012" 
 />
    <glyph glyph-name="summation" unicode="&#x2211;" horiz-adv-x="1460" 
 />
    <glyph glyph-name="product" unicode="&#x220f;" horiz-adv-x="1686" 
 />
    <glyph glyph-name="glyph155" horiz-adv-x="1124" 
 />
    <glyph glyph-name="integral" unicode="&#x222b;" horiz-adv-x="561" 
 />
    <glyph glyph-name="ordfeminine" unicode="&#xaa;" horiz-adv-x="758" 
 />
    <glyph glyph-name="ordmasculine" unicode="&#xba;" horiz-adv-x="748" 
 />
    <glyph glyph-name="Omega" unicode="&#x2126;" horiz-adv-x="1573" 
 />
    <glyph glyph-name="ae" unicode="&#xe6;" horiz-adv-x="1821" 
 />
    <glyph glyph-name="oslash" unicode="&#xf8;" horiz-adv-x="1251" 
 />
    <glyph glyph-name="questiondown" unicode="&#xbf;" horiz-adv-x="1251" 
 />
    <glyph glyph-name="exclamdown" unicode="&#xa1;" horiz-adv-x="682" 
 />
    <glyph glyph-name="logicalnot" unicode="&#xac;" horiz-adv-x="1196" 
 />
    <glyph glyph-name="radical" unicode="&#x221a;" horiz-adv-x="1124" 
 />
    <glyph glyph-name="florin" unicode="&#x192;" 
 />
    <glyph glyph-name="approxequal" unicode="&#x2248;" horiz-adv-x="1124" 
 />
    <glyph glyph-name="Delta" unicode="&#x2206;" horiz-adv-x="1253" 
 />
    <glyph glyph-name="guillemotleft" unicode="&#xab;" 
 />
    <glyph glyph-name="guillemotright" unicode="&#xbb;" 
 />
    <glyph glyph-name="ellipsis" unicode="&#x2026;" horiz-adv-x="2048" 
 />
    <glyph glyph-name="Agrave" unicode="&#xc0;" horiz-adv-x="1366" 
 />
    <glyph glyph-name="Atilde" unicode="&#xc3;" horiz-adv-x="1366" 
 />
    <glyph glyph-name="Otilde" unicode="&#xd5;" horiz-adv-x="1593" 
 />
    <glyph glyph-name="OE" unicode="&#x152;" horiz-adv-x="2048" 
 />
    <glyph glyph-name="oe" unicode="&#x153;" horiz-adv-x="1933" 
 />
    <glyph glyph-name="endash" unicode="&#x2013;" 
 />
    <glyph glyph-name="emdash" unicode="&#x2014;" horiz-adv-x="2048" 
 />
    <glyph glyph-name="quotedblleft" unicode="&#x201c;" horiz-adv-x="682" 
 />
    <glyph glyph-name="quotedblright" unicode="&#x201d;" horiz-adv-x="682" 
 />
    <glyph glyph-name="quoteleft" unicode="&#x2018;" horiz-adv-x="455" 
 />
    <glyph glyph-name="quoteright" unicode="&#x2019;" horiz-adv-x="455" 
 />
    <glyph glyph-name="divide" unicode="&#xf7;" horiz-adv-x="1124" 
 />
    <glyph glyph-name="lozenge" unicode="&#x25ca;" horiz-adv-x="1012" 
 />
    <glyph glyph-name="ydieresis" unicode="&#xff;" horiz-adv-x="1024" 
 />
    <glyph glyph-name="Ydieresis" unicode="&#x178;" horiz-adv-x="1366" 
 />
    <glyph glyph-name="fraction" unicode="&#x2044;" horiz-adv-x="342" 
 />
    <glyph glyph-name="fraction" unicode="&#x2215;" horiz-adv-x="342" 
 />
    <glyph glyph-name="Euro" unicode="&#x20ac;" 
 />
    <glyph glyph-name="guilsinglleft" unicode="&#x2039;" horiz-adv-x="682" 
 />
    <glyph glyph-name="guilsinglright" unicode="&#x203a;" horiz-adv-x="682" 
 />
    <glyph glyph-name="uniF001" unicode="&#xf001;" horiz-adv-x="1024" 
 />
    <glyph glyph-name="uniF001" unicode="&#xfb01;" horiz-adv-x="1024" 
 />
    <glyph glyph-name="uniF002" unicode="&#xf002;" horiz-adv-x="1024" 
 />
    <glyph glyph-name="uniF002" unicode="&#xfb02;" horiz-adv-x="1024" 
 />
    <glyph glyph-name="daggerdbl" unicode="&#x2021;" 
 />
    <glyph glyph-name="periodcentered" unicode="&#xb7;" horiz-adv-x="569" 
 />
    <glyph glyph-name="periodcentered" unicode="&#x2219;" horiz-adv-x="569" 
 />
    <glyph glyph-name="quotesinglbase" unicode="&#x201a;" horiz-adv-x="455" 
 />
    <glyph glyph-name="quotedblbase" unicode="&#x201e;" horiz-adv-x="682" 
 />
    <glyph glyph-name="perthousand" unicode="&#x2030;" horiz-adv-x="2048" 
 />
    <glyph glyph-name="Acircumflex" unicode="&#xc2;" horiz-adv-x="1366" 
 />
    <glyph glyph-name="Ecircumflex" unicode="&#xca;" horiz-adv-x="1366" 
 />
    <glyph glyph-name="Aacute" unicode="&#xc1;" horiz-adv-x="1366" 
 />
    <glyph glyph-name="Edieresis" unicode="&#xcb;" horiz-adv-x="1366" 
 />
    <glyph glyph-name="Egrave" unicode="&#xc8;" horiz-adv-x="1366" 
 />
    <glyph glyph-name="Iacute" unicode="&#xcd;" horiz-adv-x="569" 
 />
    <glyph glyph-name="Icircumflex" unicode="&#xce;" horiz-adv-x="569" 
 />
    <glyph glyph-name="Idieresis" unicode="&#xcf;" horiz-adv-x="569" 
 />
    <glyph glyph-name="Igrave" unicode="&#xcc;" horiz-adv-x="569" 
 />
    <glyph glyph-name="Oacute" unicode="&#xd3;" horiz-adv-x="1593" 
 />
    <glyph glyph-name="Ocircumflex" unicode="&#xd4;" horiz-adv-x="1593" 
 />
    <glyph glyph-name="Ograve" unicode="&#xd2;" horiz-adv-x="1593" 
 />
    <glyph glyph-name="Uacute" unicode="&#xda;" horiz-adv-x="1479" 
 />
    <glyph glyph-name="Ucircumflex" unicode="&#xdb;" horiz-adv-x="1479" 
 />
    <glyph glyph-name="Ugrave" unicode="&#xd9;" horiz-adv-x="1479" 
 />
    <glyph glyph-name="dotlessi" unicode="&#x131;" horiz-adv-x="569" 
 />
    <glyph glyph-name="circumflex" unicode="&#x2c6;" horiz-adv-x="682" 
 />
    <glyph glyph-name="tilde" unicode="&#x2dc;" horiz-adv-x="682" 
 />
    <glyph glyph-name="uni02C9" unicode="&#x2c9;" horiz-adv-x="682" 
 />
    <glyph glyph-name="breve" unicode="&#x2d8;" horiz-adv-x="682" 
 />
    <glyph glyph-name="dotaccent" unicode="&#x2d9;" horiz-adv-x="682" 
 />
    <glyph glyph-name="ring" unicode="&#x2da;" horiz-adv-x="682" 
 />
    <glyph glyph-name="cedilla" unicode="&#xb8;" horiz-adv-x="682" 
 />
    <glyph glyph-name="hungarumlaut" unicode="&#x2dd;" horiz-adv-x="682" 
 />
    <glyph glyph-name="ogonek" unicode="&#x2db;" horiz-adv-x="682" 
 />
    <glyph glyph-name="caron" unicode="&#x2c7;" horiz-adv-x="682" 
 />
    <glyph glyph-name="Lslash" unicode="&#x141;" 
 />
    <glyph glyph-name="lslash" unicode="&#x142;" horiz-adv-x="455" 
 />
    <glyph glyph-name="Scaron" unicode="&#x160;" horiz-adv-x="1366" 
 />
    <glyph glyph-name="scaron" unicode="&#x161;" horiz-adv-x="1024" 
 />
    <glyph glyph-name="Zcaron" unicode="&#x17d;" horiz-adv-x="1251" 
 />
    <glyph glyph-name="zcaron" unicode="&#x17e;" horiz-adv-x="1024" 
 />
    <glyph glyph-name="brokenbar" unicode="&#xa6;" horiz-adv-x="532" 
 />
    <glyph glyph-name="Eth" unicode="&#xd0;" horiz-adv-x="1479" 
 />
    <glyph glyph-name="eth" unicode="&#xf0;" 
 />
    <glyph glyph-name="Yacute" unicode="&#xdd;" horiz-adv-x="1366" 
 />
    <glyph glyph-name="yacute" unicode="&#xfd;" horiz-adv-x="1024" 
 />
    <glyph glyph-name="Thorn" unicode="&#xde;" horiz-adv-x="1366" 
 />
    <glyph glyph-name="thorn" unicode="&#xfe;" 
 />
    <glyph glyph-name="minus" unicode="&#x2212;" horiz-adv-x="1196" 
 />
    <glyph glyph-name="multiply" unicode="&#xd7;" horiz-adv-x="1196" 
 />
    <glyph glyph-name="uni00B9" unicode="&#xb9;" horiz-adv-x="682" 
 />
    <glyph glyph-name="uni00B2" unicode="&#xb2;" horiz-adv-x="682" 
 />
    <glyph glyph-name="uni00B3" unicode="&#xb3;" horiz-adv-x="682" 
 />
    <glyph glyph-name="onehalf" unicode="&#xbd;" horiz-adv-x="1708" 
 />
    <glyph glyph-name="onequarter" unicode="&#xbc;" horiz-adv-x="1708" 
 />
    <glyph glyph-name="threequarters" unicode="&#xbe;" horiz-adv-x="1708" 
 />
    <glyph glyph-name="franc" unicode="&#x20a3;" 
 />
    <glyph glyph-name="Gbreve" unicode="&#x11e;" horiz-adv-x="1593" 
 />
    <glyph glyph-name="gbreve" unicode="&#x11f;" 
 />
    <glyph glyph-name="Idotaccent" unicode="&#x130;" horiz-adv-x="569" 
 />
    <glyph glyph-name="Scedilla" unicode="&#x15e;" horiz-adv-x="1366" 
 />
    <glyph glyph-name="scedilla" unicode="&#x15f;" horiz-adv-x="1024" 
 />
    <glyph glyph-name="Cacute" unicode="&#x106;" horiz-adv-x="1479" 
 />
    <glyph glyph-name="cacute" unicode="&#x107;" horiz-adv-x="1024" 
 />
    <glyph glyph-name="Ccaron" unicode="&#x10c;" horiz-adv-x="1479" 
 />
    <glyph glyph-name="ccaron" unicode="&#x10d;" horiz-adv-x="1024" 
 />
    <glyph glyph-name="dcroat" unicode="&#x111;" 
 />
    <glyph glyph-name="currency" unicode="&#xa4;" 
 />
    <glyph glyph-name="macron" unicode="&#xaf;" horiz-adv-x="1131" 
 />
    <glyph glyph-name="Amacron" unicode="&#x100;" horiz-adv-x="1366" 
 />
    <glyph glyph-name="amacron" unicode="&#x101;" 
 />
    <glyph glyph-name="Abreve" unicode="&#x102;" horiz-adv-x="1366" 
 />
    <glyph glyph-name="abreve" unicode="&#x103;" 
 />
    <glyph glyph-name="Aogonek" unicode="&#x104;" horiz-adv-x="1366" 
 />
    <glyph glyph-name="aogonek" unicode="&#x105;" 
 />
    <glyph glyph-name="Ccircumflex" unicode="&#x108;" horiz-adv-x="1479" 
 />
    <glyph glyph-name="ccircumflex" unicode="&#x109;" horiz-adv-x="1024" 
 />
    <glyph glyph-name="Cdotaccent" unicode="&#x10a;" horiz-adv-x="1479" 
 />
    <glyph glyph-name="cdotaccent" unicode="&#x10b;" horiz-adv-x="1024" 
 />
    <glyph glyph-name="Dcaron" unicode="&#x10e;" horiz-adv-x="1479" 
 />
    <glyph glyph-name="dcaron" unicode="&#x10f;" horiz-adv-x="1259" 
 />
    <glyph glyph-name="Dcroat" unicode="&#x110;" horiz-adv-x="1479" 
 />
    <glyph glyph-name="Emacron" unicode="&#x112;" horiz-adv-x="1366" 
 />
    <glyph glyph-name="emacron" unicode="&#x113;" 
 />
    <glyph glyph-name="Ebreve" unicode="&#x114;" horiz-adv-x="1366" 
 />
    <glyph glyph-name="ebreve" unicode="&#x115;" 
 />
    <glyph glyph-name="Edotaccent" unicode="&#x116;" horiz-adv-x="1366" 
 />
    <glyph glyph-name="edotaccent" unicode="&#x117;" 
 />
    <glyph glyph-name="Eogonek" unicode="&#x118;" horiz-adv-x="1366" 
 />
    <glyph glyph-name="eogonek" unicode="&#x119;" 
 />
    <glyph glyph-name="Ecaron" unicode="&#x11a;" horiz-adv-x="1366" 
 />
    <glyph glyph-name="ecaron" unicode="&#x11b;" 
 />
    <glyph glyph-name="Gcircumflex" unicode="&#x11c;" horiz-adv-x="1593" 
 />
    <glyph glyph-name="gcircumflex" unicode="&#x11d;" 
 />
    <glyph glyph-name="Gdotaccent" unicode="&#x120;" horiz-adv-x="1593" 
 />
    <glyph glyph-name="gdotaccent" unicode="&#x121;" 
 />
    <glyph glyph-name="Gcommaaccent" unicode="&#x122;" horiz-adv-x="1593" 
 />
    <glyph glyph-name="gcommaaccent" unicode="&#x123;" 
 />
    <glyph glyph-name="Hcircumflex" unicode="&#x124;" horiz-adv-x="1479" 
 />
    <glyph glyph-name="hcircumflex" unicode="&#x125;" 
 />
    <glyph glyph-name="Hbar" unicode="&#x126;" horiz-adv-x="1479" 
 />
    <glyph glyph-name="hbar" unicode="&#x127;" 
 />
    <glyph glyph-name="Itilde" unicode="&#x128;" horiz-adv-x="569" 
 />
    <glyph glyph-name="itilde" unicode="&#x129;" horiz-adv-x="569" 
 />
    <glyph glyph-name="Imacron" unicode="&#x12a;" horiz-adv-x="569" 
 />
    <glyph glyph-name="imacron" unicode="&#x12b;" horiz-adv-x="569" 
 />
    <glyph glyph-name="Ibreve" unicode="&#x12c;" horiz-adv-x="569" 
 />
    <glyph glyph-name="ibreve" unicode="&#x12d;" horiz-adv-x="569" 
 />
    <glyph glyph-name="Iogonek" unicode="&#x12e;" horiz-adv-x="569" 
 />
    <glyph glyph-name="iogonek" unicode="&#x12f;" horiz-adv-x="455" 
 />
    <glyph glyph-name="IJ" unicode="&#x132;" horiz-adv-x="1505" 
 />
    <glyph glyph-name="ij" unicode="&#x133;" horiz-adv-x="909" 
 />
    <glyph glyph-name="Jcircumflex" unicode="&#x134;" horiz-adv-x="1024" 
 />
    <glyph glyph-name="jcircumflex" unicode="&#x135;" horiz-adv-x="455" 
 />
    <glyph glyph-name="Kcommaaccent" unicode="&#x136;" horiz-adv-x="1366" 
 />
    <glyph glyph-name="kcommaaccent" unicode="&#x137;" horiz-adv-x="1024" 
 />
    <glyph glyph-name="kgreenlandic" unicode="&#x138;" horiz-adv-x="1024" 
 />
    <glyph glyph-name="Lacute" unicode="&#x139;" 
 />
    <glyph glyph-name="lacute" unicode="&#x13a;" horiz-adv-x="455" 
 />
    <glyph glyph-name="Lcommaaccent" unicode="&#x13b;" 
 />
    <glyph glyph-name="lcommaaccent" unicode="&#x13c;" horiz-adv-x="455" 
 />
    <glyph glyph-name="Lcaron" unicode="&#x13d;" 
 />
    <glyph glyph-name="lcaron" unicode="&#x13e;" horiz-adv-x="597" 
 />
    <glyph glyph-name="Ldot" unicode="&#x13f;" 
 />
    <glyph glyph-name="ldot" unicode="&#x140;" horiz-adv-x="684" 
 />
    <glyph glyph-name="Nacute" unicode="&#x143;" horiz-adv-x="1479" 
 />
    <glyph glyph-name="nacute" unicode="&#x144;" 
 />
    <glyph glyph-name="Ncommaaccent" unicode="&#x145;" horiz-adv-x="1479" 
 />
    <glyph glyph-name="ncommaaccent" unicode="&#x146;" 
 />
    <glyph glyph-name="Ncaron" unicode="&#x147;" horiz-adv-x="1479" 
 />
    <glyph glyph-name="ncaron" unicode="&#x148;" 
 />
    <glyph glyph-name="napostrophe" unicode="&#x149;" horiz-adv-x="1237" 
 />
    <glyph glyph-name="Eng" unicode="&#x14a;" horiz-adv-x="1481" 
 />
    <glyph glyph-name="eng" unicode="&#x14b;" 
 />
    <glyph glyph-name="Omacron" unicode="&#x14c;" horiz-adv-x="1593" 
 />
    <glyph glyph-name="omacron" unicode="&#x14d;" 
 />
    <glyph glyph-name="Obreve" unicode="&#x14e;" horiz-adv-x="1593" 
 />
    <glyph glyph-name="obreve" unicode="&#x14f;" 
 />
    <glyph glyph-name="Ohungarumlaut" unicode="&#x150;" horiz-adv-x="1593" 
 />
    <glyph glyph-name="ohungarumlaut" unicode="&#x151;" 
 />
    <glyph glyph-name="Racute" unicode="&#x154;" horiz-adv-x="1479" 
 />
    <glyph glyph-name="racute" unicode="&#x155;" horiz-adv-x="682" 
 />
    <glyph glyph-name="Rcommaaccent" unicode="&#x156;" horiz-adv-x="1479" 
 />
    <glyph glyph-name="rcommaaccent" unicode="&#x157;" horiz-adv-x="682" 
 />
    <glyph glyph-name="Rcaron" unicode="&#x158;" horiz-adv-x="1479" 
 />
    <glyph glyph-name="rcaron" unicode="&#x159;" horiz-adv-x="682" 
 />
    <glyph glyph-name="Sacute" unicode="&#x15a;" horiz-adv-x="1366" 
 />
    <glyph glyph-name="sacute" unicode="&#x15b;" horiz-adv-x="1024" 
 />
    <glyph glyph-name="Scircumflex" unicode="&#x15c;" horiz-adv-x="1366" 
 />
    <glyph glyph-name="scircumflex" unicode="&#x15d;" horiz-adv-x="1024" 
 />
    <glyph glyph-name="Tcommaaccent" unicode="&#x162;" horiz-adv-x="1251" 
 />
    <glyph glyph-name="tcommaaccent" unicode="&#x163;" horiz-adv-x="569" 
 />
    <glyph glyph-name="Tcaron" unicode="&#x164;" horiz-adv-x="1251" 
 />
    <glyph glyph-name="tcaron" unicode="&#x165;" horiz-adv-x="768" 
 />
    <glyph glyph-name="Tbar" unicode="&#x166;" horiz-adv-x="1251" 
 />
    <glyph glyph-name="tbar" unicode="&#x167;" horiz-adv-x="569" 
 />
    <glyph glyph-name="Utilde" unicode="&#x168;" horiz-adv-x="1479" 
 />
    <glyph glyph-name="utilde" unicode="&#x169;" 
 />
    <glyph glyph-name="Umacron" unicode="&#x16a;" horiz-adv-x="1479" 
 />
    <glyph glyph-name="umacron" unicode="&#x16b;" 
 />
    <glyph glyph-name="Ubreve" unicode="&#x16c;" horiz-adv-x="1479" 
 />
    <glyph glyph-name="ubreve" unicode="&#x16d;" 
 />
    <glyph glyph-name="Uring" unicode="&#x16e;" horiz-adv-x="1479" 
 />
    <glyph glyph-name="uring" unicode="&#x16f;" 
 />
    <glyph glyph-name="Uhungarumlaut" unicode="&#x170;" horiz-adv-x="1479" 
 />
    <glyph glyph-name="uhungarumlaut" unicode="&#x171;" 
 />
    <glyph glyph-name="Uogonek" unicode="&#x172;" horiz-adv-x="1479" 
 />
    <glyph glyph-name="uogonek" unicode="&#x173;" 
 />
    <glyph glyph-name="Wcircumflex" unicode="&#x174;" horiz-adv-x="1933" 
 />
    <glyph glyph-name="wcircumflex" unicode="&#x175;" horiz-adv-x="1479" 
 />
    <glyph glyph-name="Ycircumflex" unicode="&#x176;" horiz-adv-x="1366" 
 />
    <glyph glyph-name="ycircumflex" unicode="&#x177;" horiz-adv-x="1024" 
 />
    <glyph glyph-name="Zacute" unicode="&#x179;" horiz-adv-x="1251" 
 />
    <glyph glyph-name="zacute" unicode="&#x17a;" horiz-adv-x="1024" 
 />
    <glyph glyph-name="Zdotaccent" unicode="&#x17b;" horiz-adv-x="1251" 
 />
    <glyph glyph-name="zdotaccent" unicode="&#x17c;" horiz-adv-x="1024" 
 />
    <glyph glyph-name="longs" unicode="&#x17f;" horiz-adv-x="455" 
 />
    <glyph glyph-name="Aringacute" unicode="&#x1fa;" horiz-adv-x="1366" 
 />
    <glyph glyph-name="aringacute" unicode="&#x1fb;" 
 />
    <glyph glyph-name="AEacute" unicode="&#x1fc;" horiz-adv-x="2048" 
 />
    <glyph glyph-name="aeacute" unicode="&#x1fd;" horiz-adv-x="1821" 
 />
    <glyph glyph-name="Oslashacute" unicode="&#x1fe;" horiz-adv-x="1593" 
 />
    <glyph glyph-name="oslashacute" unicode="&#x1ff;" horiz-adv-x="1251" 
 />
    <glyph glyph-name="tonos" unicode="&#x384;" horiz-adv-x="682" 
 />
    <glyph glyph-name="dieresistonos" unicode="&#x385;" horiz-adv-x="682" 
 />
    <glyph glyph-name="Alphatonos" unicode="&#x386;" horiz-adv-x="1367" 
 />
    <glyph glyph-name="anoteleia" unicode="&#x387;" horiz-adv-x="569" 
 />
    <glyph glyph-name="Epsilontonos" unicode="&#x388;" horiz-adv-x="1606" 
 />
    <glyph glyph-name="Etatonos" unicode="&#x389;" horiz-adv-x="1716" 
 />
    <glyph glyph-name="Iotatonos" unicode="&#x38a;" horiz-adv-x="786" 
 />
    <glyph glyph-name="Omicrontonos" unicode="&#x38c;" horiz-adv-x="1586" 
 />
    <glyph glyph-name="Upsilontonos" unicode="&#x38e;" horiz-adv-x="1752" 
 />
    <glyph glyph-name="Omegatonos" unicode="&#x38f;" horiz-adv-x="1541" 
 />
    <glyph glyph-name="iotadieresistonos" unicode="&#x390;" horiz-adv-x="455" 
 />
    <glyph glyph-name="Alpha" unicode="&#x391;" horiz-adv-x="1366" 
 />
    <glyph glyph-name="Beta" unicode="&#x392;" horiz-adv-x="1366" 
 />
    <glyph glyph-name="Gamma" unicode="&#x393;" horiz-adv-x="1128" 
 />
    <glyph glyph-name="uni0394" unicode="&#x394;" horiz-adv-x="1368" 
 />
    <glyph glyph-name="Epsilon" unicode="&#x395;" horiz-adv-x="1366" 
 />
    <glyph glyph-name="Zeta" unicode="&#x396;" horiz-adv-x="1251" 
 />
    <glyph glyph-name="Eta" unicode="&#x397;" horiz-adv-x="1479" 
 />
    <glyph glyph-name="Theta" unicode="&#x398;" horiz-adv-x="1593" 
 />
    <glyph glyph-name="Iota" unicode="&#x399;" horiz-adv-x="569" 
 />
    <glyph glyph-name="Kappa" unicode="&#x39a;" horiz-adv-x="1366" 
 />
    <glyph glyph-name="Lambda" unicode="&#x39b;" horiz-adv-x="1368" 
 />
    <glyph glyph-name="Mu" unicode="&#x39c;" horiz-adv-x="1706" 
 />
    <glyph glyph-name="Nu" unicode="&#x39d;" horiz-adv-x="1479" 
 />
    <glyph glyph-name="Xi" unicode="&#x39e;" horiz-adv-x="1331" 
 />
    <glyph glyph-name="Omicron" unicode="&#x39f;" horiz-adv-x="1593" 
 />
    <glyph glyph-name="Pi" unicode="&#x3a0;" horiz-adv-x="1479" 
 />
    <glyph glyph-name="Rho" unicode="&#x3a1;" horiz-adv-x="1366" 
 />
    <glyph glyph-name="Sigma" unicode="&#x3a3;" horiz-adv-x="1266" 
 />
    <glyph glyph-name="Tau" unicode="&#x3a4;" horiz-adv-x="1251" 
 />
    <glyph glyph-name="Upsilon" unicode="&#x3a5;" horiz-adv-x="1366" 
 />
    <glyph glyph-name="Phi" unicode="&#x3a6;" horiz-adv-x="1634" 
 />
    <glyph glyph-name="Chi" unicode="&#x3a7;" horiz-adv-x="1366" 
 />
    <glyph glyph-name="Psi" unicode="&#x3a8;" horiz-adv-x="1711" 
 />
    <glyph glyph-name="uni03A9" unicode="&#x3a9;" horiz-adv-x="1531" 
 />
    <glyph glyph-name="Iotadieresis" unicode="&#x3aa;" horiz-adv-x="569" 
 />
    <glyph glyph-name="Upsilondieresis" unicode="&#x3ab;" horiz-adv-x="1366" 
 />
    <glyph glyph-name="alphatonos" unicode="&#x3ac;" horiz-adv-x="1184" 
 />
    <glyph glyph-name="epsilontonos" unicode="&#x3ad;" horiz-adv-x="913" 
 />
    <glyph glyph-name="etatonos" unicode="&#x3ae;" 
 />
    <glyph glyph-name="iotatonos" unicode="&#x3af;" horiz-adv-x="455" 
 />
    <glyph glyph-name="upsilondieresistonos" unicode="&#x3b0;" horiz-adv-x="1120" 
 />
    <glyph glyph-name="alpha" unicode="&#x3b1;" horiz-adv-x="1184" 
 />
    <glyph glyph-name="beta" unicode="&#x3b2;" horiz-adv-x="1178" 
 />
    <glyph glyph-name="gamma" unicode="&#x3b3;" horiz-adv-x="1024" 
 />
    <glyph glyph-name="delta" unicode="&#x3b4;" horiz-adv-x="1140" 
 />
    <glyph glyph-name="epsilon" unicode="&#x3b5;" horiz-adv-x="913" 
 />
    <glyph glyph-name="zeta" unicode="&#x3b6;" horiz-adv-x="903" 
 />
    <glyph glyph-name="eta" unicode="&#x3b7;" 
 />
    <glyph glyph-name="theta" unicode="&#x3b8;" 
 />
    <glyph glyph-name="iota" unicode="&#x3b9;" horiz-adv-x="455" 
 />
    <glyph glyph-name="kappa" unicode="&#x3ba;" horiz-adv-x="1024" 
 />
    <glyph glyph-name="lambda" unicode="&#x3bb;" horiz-adv-x="1024" 
 />
    <glyph glyph-name="uni03BC" unicode="&#x3bc;" horiz-adv-x="1180" 
 />
    <glyph glyph-name="nu" unicode="&#x3bd;" horiz-adv-x="1024" 
 />
    <glyph glyph-name="xi" unicode="&#x3be;" horiz-adv-x="917" 
 />
    <glyph glyph-name="omicron" unicode="&#x3bf;" 
 />
    <glyph glyph-name="pi" unicode="&#x3c0;" horiz-adv-x="1413" 
 />
    <glyph glyph-name="rho" unicode="&#x3c1;" horiz-adv-x="1165" 
 />
    <glyph glyph-name="sigma1" unicode="&#x3c2;" horiz-adv-x="987" 
 />
    <glyph glyph-name="sigma" unicode="&#x3c3;" horiz-adv-x="1264" 
 />
    <glyph glyph-name="tau" unicode="&#x3c4;" horiz-adv-x="809" 
 />
    <glyph glyph-name="upsilon" unicode="&#x3c5;" horiz-adv-x="1120" 
 />
    <glyph glyph-name="phi" unicode="&#x3c6;" horiz-adv-x="1328" 
 />
    <glyph glyph-name="chi" unicode="&#x3c7;" horiz-adv-x="1075" 
 />
    <glyph glyph-name="psi" unicode="&#x3c8;" horiz-adv-x="1460" 
 />
    <glyph glyph-name="omega" unicode="&#x3c9;" horiz-adv-x="1599" 
 />
    <glyph glyph-name="iotadieresis" unicode="&#x3ca;" horiz-adv-x="455" 
 />
    <glyph glyph-name="upsilondieresis" unicode="&#x3cb;" horiz-adv-x="1120" 
 />
    <glyph glyph-name="omicrontonos" unicode="&#x3cc;" 
 />
    <glyph glyph-name="upsilontonos" unicode="&#x3cd;" horiz-adv-x="1120" 
 />
    <glyph glyph-name="omegatonos" unicode="&#x3ce;" horiz-adv-x="1599" 
 />
    <glyph glyph-name="afii10023" unicode="&#x401;" horiz-adv-x="1367" 
 />
    <glyph glyph-name="afii10051" unicode="&#x402;" horiz-adv-x="1771" 
 />
    <glyph glyph-name="afii10052" unicode="&#x403;" horiz-adv-x="1109" 
 />
    <glyph glyph-name="afii10053" unicode="&#x404;" horiz-adv-x="1472" 
 />
    <glyph glyph-name="afii10054" unicode="&#x405;" horiz-adv-x="1366" 
 />
    <glyph glyph-name="afii10055" unicode="&#x406;" horiz-adv-x="569" 
 />
    <glyph glyph-name="afii10056" unicode="&#x407;" horiz-adv-x="569" 
 />
    <glyph glyph-name="afii10057" unicode="&#x408;" horiz-adv-x="1024" 
 />
    <glyph glyph-name="afii10058" unicode="&#x409;" horiz-adv-x="2165" 
 />
    <glyph glyph-name="afii10059" unicode="&#x40a;" horiz-adv-x="2069" 
 />
    <glyph glyph-name="afii10060" unicode="&#x40b;" horiz-adv-x="1749" 
 />
    <glyph glyph-name="afii10061" unicode="&#x40c;" horiz-adv-x="1193" 
 />
    <glyph glyph-name="afii10062" unicode="&#x40e;" horiz-adv-x="1301" 
 />
    <glyph glyph-name="afii10145" unicode="&#x40f;" horiz-adv-x="1472" 
 />
    <glyph glyph-name="afii10017" unicode="&#x410;" horiz-adv-x="1366" 
 />
    <glyph glyph-name="afii10018" unicode="&#x411;" horiz-adv-x="1344" 
 />
    <glyph glyph-name="afii10019" unicode="&#x412;" horiz-adv-x="1366" 
 />
    <glyph glyph-name="afii10020" unicode="&#x413;" horiz-adv-x="1109" 
 />
    <glyph glyph-name="afii10021" unicode="&#x414;" horiz-adv-x="1387" 
 />
    <glyph glyph-name="afii10022" unicode="&#x415;" horiz-adv-x="1366" 
 />
    <glyph glyph-name="afii10024" unicode="&#x416;" horiz-adv-x="1891" 
 />
    <glyph glyph-name="afii10025" unicode="&#x417;" horiz-adv-x="1237" 
 />
    <glyph glyph-name="afii10026" unicode="&#x418;" horiz-adv-x="1472" 
 />
    <glyph glyph-name="afii10027" unicode="&#x419;" horiz-adv-x="1472" 
 />
    <glyph glyph-name="afii10028" unicode="&#x41a;" horiz-adv-x="1193" 
 />
    <glyph glyph-name="afii10029" unicode="&#x41b;" horiz-adv-x="1344" 
 />
    <glyph glyph-name="afii10030" unicode="&#x41c;" horiz-adv-x="1706" 
 />
    <glyph glyph-name="afii10031" unicode="&#x41d;" horiz-adv-x="1479" 
 />
    <glyph glyph-name="afii10032" unicode="&#x41e;" horiz-adv-x="1593" 
 />
    <glyph glyph-name="afii10033" unicode="&#x41f;" horiz-adv-x="1472" 
 />
    <glyph glyph-name="afii10034" unicode="&#x420;" horiz-adv-x="1366" 
 />
    <glyph glyph-name="afii10035" unicode="&#x421;" horiz-adv-x="1479" 
 />
    <glyph glyph-name="afii10036" unicode="&#x422;" horiz-adv-x="1251" 
 />
    <glyph glyph-name="afii10037" unicode="&#x423;" horiz-adv-x="1301" 
 />
    <glyph glyph-name="afii10038" unicode="&#x424;" horiz-adv-x="1557" 
 />
    <glyph glyph-name="afii10039" unicode="&#x425;" horiz-adv-x="1366" 
 />
    <glyph glyph-name="afii10040" unicode="&#x426;" horiz-adv-x="1515" 
 />
    <glyph glyph-name="afii10041" unicode="&#x427;" horiz-adv-x="1365" 
 />
    <glyph glyph-name="afii10042" unicode="&#x428;" horiz-adv-x="1877" 
 />
    <glyph glyph-name="afii10043" unicode="&#x429;" horiz-adv-x="1920" 
 />
    <glyph glyph-name="afii10044" unicode="&#x42a;" horiz-adv-x="1621" 
 />
    <glyph glyph-name="afii10045" unicode="&#x42b;" horiz-adv-x="1813" 
 />
    <glyph glyph-name="afii10046" unicode="&#x42c;" horiz-adv-x="1344" 
 />
    <glyph glyph-name="afii10047" unicode="&#x42d;" horiz-adv-x="1472" 
 />
    <glyph glyph-name="afii10048" unicode="&#x42e;" horiz-adv-x="2069" 
 />
    <glyph glyph-name="afii10049" unicode="&#x42f;" horiz-adv-x="1479" 
 />
    <glyph glyph-name="afii10065" unicode="&#x430;" 
 />
    <glyph glyph-name="afii10066" unicode="&#x431;" horiz-adv-x="1173" 
 />
    <glyph glyph-name="afii10067" unicode="&#x432;" horiz-adv-x="1088" 
 />
    <glyph glyph-name="afii10068" unicode="&#x433;" horiz-adv-x="747" 
 />
    <glyph glyph-name="afii10069" unicode="&#x434;" horiz-adv-x="1195" 
 />
    <glyph glyph-name="afii10070" unicode="&#x435;" 
 />
    <glyph glyph-name="afii10072" unicode="&#x436;" horiz-adv-x="1370" 
 />
    <glyph glyph-name="afii10073" unicode="&#x437;" horiz-adv-x="939" 
 />
    <glyph glyph-name="afii10074" unicode="&#x438;" horiz-adv-x="1144" 
 />
    <glyph glyph-name="afii10075" unicode="&#x439;" horiz-adv-x="1144" 
 />
    <glyph glyph-name="afii10076" unicode="&#x43a;" horiz-adv-x="896" 
 />
    <glyph glyph-name="afii10077" unicode="&#x43b;" horiz-adv-x="1195" 
 />
    <glyph glyph-name="afii10078" unicode="&#x43c;" horiz-adv-x="1408" 
 />
    <glyph glyph-name="afii10079" unicode="&#x43d;" horiz-adv-x="1131" 
 />
    <glyph glyph-name="afii10080" unicode="&#x43e;" 
 />
    <glyph glyph-name="afii10081" unicode="&#x43f;" horiz-adv-x="1109" 
 />
    <glyph glyph-name="afii10082" unicode="&#x440;" 
 />
    <glyph glyph-name="afii10083" unicode="&#x441;" horiz-adv-x="1024" 
 />
    <glyph glyph-name="afii10084" unicode="&#x442;" horiz-adv-x="938" 
 />
    <glyph glyph-name="afii10085" unicode="&#x443;" horiz-adv-x="1024" 
 />
    <glyph glyph-name="afii10086" unicode="&#x444;" horiz-adv-x="1685" 
 />
    <glyph glyph-name="afii10087" unicode="&#x445;" horiz-adv-x="1024" 
 />
    <glyph glyph-name="afii10088" unicode="&#x446;" horiz-adv-x="1173" 
 />
    <glyph glyph-name="afii10089" unicode="&#x447;" horiz-adv-x="1067" 
 />
    <glyph glyph-name="afii10090" unicode="&#x448;" horiz-adv-x="1643" 
 />
    <glyph glyph-name="afii10091" unicode="&#x449;" horiz-adv-x="1685" 
 />
    <glyph glyph-name="afii10092" unicode="&#x44a;" horiz-adv-x="1280" 
 />
    <glyph glyph-name="afii10093" unicode="&#x44b;" horiz-adv-x="1472" 
 />
    <glyph glyph-name="afii10094" unicode="&#x44c;" horiz-adv-x="1067" 
 />
    <glyph glyph-name="afii10095" unicode="&#x44d;" horiz-adv-x="1045" 
 />
    <glyph glyph-name="afii10096" unicode="&#x44e;" horiz-adv-x="1536" 
 />
    <glyph glyph-name="afii10097" unicode="&#x44f;" horiz-adv-x="1109" 
 />
    <glyph glyph-name="afii10071" unicode="&#x451;" 
 />
    <glyph glyph-name="afii10099" unicode="&#x452;" 
 />
    <glyph glyph-name="afii10100" unicode="&#x453;" horiz-adv-x="747" 
 />
    <glyph glyph-name="afii10101" unicode="&#x454;" horiz-adv-x="1045" 
 />
    <glyph glyph-name="afii10102" unicode="&#x455;" horiz-adv-x="1024" 
 />
    <glyph glyph-name="afii10103" unicode="&#x456;" horiz-adv-x="455" 
 />
    <glyph glyph-name="afii10104" unicode="&#x457;" horiz-adv-x="569" 
 />
    <glyph glyph-name="afii10105" unicode="&#x458;" horiz-adv-x="455" 
 />
    <glyph glyph-name="afii10106" unicode="&#x459;" horiz-adv-x="1856" 
 />
    <glyph glyph-name="afii10107" unicode="&#x45a;" horiz-adv-x="1664" 
 />
    <glyph glyph-name="afii10108" unicode="&#x45b;" 
 />
    <glyph glyph-name="afii10109" unicode="&#x45c;" horiz-adv-x="896" 
 />
    <glyph glyph-name="afii10110" unicode="&#x45e;" horiz-adv-x="1024" 
 />
    <glyph glyph-name="afii10193" unicode="&#x45f;" horiz-adv-x="1131" 
 />
    <glyph glyph-name="afii10050" unicode="&#x490;" horiz-adv-x="1001" 
 />
    <glyph glyph-name="afii10098" unicode="&#x491;" horiz-adv-x="842" 
 />
    <glyph glyph-name="Wgrave" unicode="&#x1e80;" horiz-adv-x="1933" 
 />
    <glyph glyph-name="wgrave" unicode="&#x1e81;" horiz-adv-x="1479" 
 />
    <glyph glyph-name="Wacute" unicode="&#x1e82;" horiz-adv-x="1933" 
 />
    <glyph glyph-name="wacute" unicode="&#x1e83;" horiz-adv-x="1479" 
 />
    <glyph glyph-name="Wdieresis" unicode="&#x1e84;" horiz-adv-x="1933" 
 />
    <glyph glyph-name="wdieresis" unicode="&#x1e85;" horiz-adv-x="1479" 
 />
    <glyph glyph-name="Ygrave" unicode="&#x1ef2;" horiz-adv-x="1366" 
 />
    <glyph glyph-name="ygrave" unicode="&#x1ef3;" horiz-adv-x="1024" 
 />
    <glyph glyph-name="afii00208" unicode="&#x2015;" horiz-adv-x="2048" 
 />
    <glyph glyph-name="underscoredbl" unicode="&#x2017;" horiz-adv-x="1131" 
 />
    <glyph glyph-name="quotereversed" unicode="&#x201b;" horiz-adv-x="455" 
 />
    <glyph glyph-name="minute" unicode="&#x2032;" horiz-adv-x="384" 
 />
    <glyph glyph-name="second" unicode="&#x2033;" horiz-adv-x="725" 
 />
    <glyph glyph-name="exclamdbl" unicode="&#x203c;" horiz-adv-x="1024" 
 />
    <glyph glyph-name="uni203E" unicode="&#x203e;" horiz-adv-x="682" 
 />
    <glyph glyph-name="uni207F" unicode="&#x207f;" horiz-adv-x="747" 
 />
    <glyph glyph-name="lira" unicode="&#x20a4;" 
 />
    <glyph glyph-name="peseta" unicode="&#x20a7;" horiz-adv-x="2240" 
 />
    <glyph glyph-name="afii61248" unicode="&#x2105;" horiz-adv-x="1813" 
 />
    <glyph glyph-name="afii61289" unicode="&#x2113;" horiz-adv-x="662" 
 />
    <glyph glyph-name="afii61352" unicode="&#x2116;" horiz-adv-x="2197" 
 />
    <glyph glyph-name="estimated" unicode="&#x212e;" horiz-adv-x="1229" 
 />
    <glyph glyph-name="oneeighth" unicode="&#x215b;" horiz-adv-x="1708" 
 />
    <glyph glyph-name="threeeighths" unicode="&#x215c;" horiz-adv-x="1708" 
 />
    <glyph glyph-name="fiveeighths" unicode="&#x215d;" horiz-adv-x="1708" 
 />
    <glyph glyph-name="seveneighths" unicode="&#x215e;" horiz-adv-x="1708" 
 />
    <glyph glyph-name="arrowleft" unicode="&#x2190;" horiz-adv-x="2048" 
 />
    <glyph glyph-name="arrowup" unicode="&#x2191;" horiz-adv-x="1024" 
 />
    <glyph glyph-name="arrowright" unicode="&#x2192;" horiz-adv-x="2048" 
 />
    <glyph glyph-name="arrowdown" unicode="&#x2193;" horiz-adv-x="1024" 
 />
    <glyph glyph-name="arrowboth" unicode="&#x2194;" horiz-adv-x="2048" 
 />
    <glyph glyph-name="arrowupdn" unicode="&#x2195;" horiz-adv-x="1024" 
 />
    <glyph glyph-name="arrowupdnbse" unicode="&#x21a8;" horiz-adv-x="1024" 
 />
    <glyph glyph-name="orthogonal" unicode="&#x221f;" horiz-adv-x="2005" 
 />
    <glyph glyph-name="intersection" unicode="&#x2229;" horiz-adv-x="1472" 
 />
    <glyph glyph-name="equivalence" unicode="&#x2261;" horiz-adv-x="1195" 
 />
    <glyph glyph-name="house" unicode="&#x2302;" horiz-adv-x="1237" 
 />
    <glyph glyph-name="revlogicalnot" unicode="&#x2310;" horiz-adv-x="1196" 
 />
    <glyph glyph-name="integraltp" unicode="&#x2320;" horiz-adv-x="1237" 
 />
    <glyph glyph-name="integralbt" unicode="&#x2321;" horiz-adv-x="1237" 
 />
    <glyph glyph-name="SF100000" unicode="&#x2500;" horiz-adv-x="1451" 
 />
    <glyph glyph-name="SF110000" unicode="&#x2502;" horiz-adv-x="1280" 
 />
    <glyph glyph-name="SF010000" unicode="&#x250c;" horiz-adv-x="1451" 
 />
    <glyph glyph-name="SF030000" unicode="&#x2510;" horiz-adv-x="1451" 
 />
    <glyph glyph-name="SF020000" unicode="&#x2514;" horiz-adv-x="1451" 
 />
    <glyph glyph-name="SF040000" unicode="&#x2518;" horiz-adv-x="1451" 
 />
    <glyph glyph-name="SF080000" unicode="&#x251c;" horiz-adv-x="1451" 
 />
    <glyph glyph-name="SF090000" unicode="&#x2524;" horiz-adv-x="1451" 
 />
    <glyph glyph-name="SF060000" unicode="&#x252c;" horiz-adv-x="1451" 
 />
    <glyph glyph-name="SF070000" unicode="&#x2534;" horiz-adv-x="1451" 
 />
    <glyph glyph-name="SF050000" unicode="&#x253c;" horiz-adv-x="1451" 
 />
    <glyph glyph-name="SF430000" unicode="&#x2550;" horiz-adv-x="1451" 
 />
    <glyph glyph-name="SF240000" unicode="&#x2551;" horiz-adv-x="1451" 
 />
    <glyph glyph-name="SF510000" unicode="&#x2552;" horiz-adv-x="1451" 
 />
    <glyph glyph-name="SF520000" unicode="&#x2553;" horiz-adv-x="1451" 
 />
    <glyph glyph-name="SF390000" unicode="&#x2554;" horiz-adv-x="1451" 
 />
    <glyph glyph-name="SF220000" unicode="&#x2555;" horiz-adv-x="1451" 
 />
    <glyph glyph-name="SF210000" unicode="&#x2556;" horiz-adv-x="1451" 
 />
    <glyph glyph-name="SF250000" unicode="&#x2557;" horiz-adv-x="1451" 
 />
    <glyph glyph-name="SF500000" unicode="&#x2558;" horiz-adv-x="1451" 
 />
    <glyph glyph-name="SF490000" unicode="&#x2559;" horiz-adv-x="1451" 
 />
    <glyph glyph-name="SF380000" unicode="&#x255a;" horiz-adv-x="1451" 
 />
    <glyph glyph-name="SF280000" unicode="&#x255b;" horiz-adv-x="1451" 
 />
    <glyph glyph-name="SF270000" unicode="&#x255c;" horiz-adv-x="1451" 
 />
    <glyph glyph-name="SF260000" unicode="&#x255d;" horiz-adv-x="1451" 
 />
    <glyph glyph-name="SF360000" unicode="&#x255e;" horiz-adv-x="1451" 
 />
    <glyph glyph-name="SF370000" unicode="&#x255f;" horiz-adv-x="1451" 
 />
    <glyph glyph-name="SF420000" unicode="&#x2560;" horiz-adv-x="1451" 
 />
    <glyph glyph-name="SF190000" unicode="&#x2561;" horiz-adv-x="1451" 
 />
    <glyph glyph-name="SF200000" unicode="&#x2562;" horiz-adv-x="1451" 
 />
    <glyph glyph-name="SF230000" unicode="&#x2563;" horiz-adv-x="1451" 
 />
    <glyph glyph-name="SF470000" unicode="&#x2564;" horiz-adv-x="1451" 
 />
    <glyph glyph-name="SF480000" unicode="&#x2565;" horiz-adv-x="1451" 
 />
    <glyph glyph-name="SF410000" unicode="&#x2566;" horiz-adv-x="1451" 
 />
    <glyph glyph-name="SF450000" unicode="&#x2567;" horiz-adv-x="1451" 
 />
    <glyph glyph-name="SF460000" unicode="&#x2568;" horiz-adv-x="1451" 
 />
    <glyph glyph-name="SF400000" unicode="&#x2569;" horiz-adv-x="1451" 
 />
    <glyph glyph-name="SF540000" unicode="&#x256a;" horiz-adv-x="1451" 
 />
    <glyph glyph-name="SF530000" unicode="&#x256b;" horiz-adv-x="1451" 
 />
    <glyph glyph-name="SF440000" unicode="&#x256c;" horiz-adv-x="1451" 
 />
    <glyph glyph-name="upblock" unicode="&#x2580;" horiz-adv-x="1451" 
 />
    <glyph glyph-name="dnblock" unicode="&#x2584;" horiz-adv-x="1451" 
 />
    <glyph glyph-name="block" unicode="&#x2588;" horiz-adv-x="1451" 
 />
    <glyph glyph-name="lfblock" unicode="&#x258c;" horiz-adv-x="1451" 
 />
    <glyph glyph-name="rtblock" unicode="&#x2590;" horiz-adv-x="1451" 
 />
    <glyph glyph-name="ltshade" unicode="&#x2591;" horiz-adv-x="1451" 
 />
    <glyph glyph-name="shade" unicode="&#x2592;" horiz-adv-x="1451" 
 />
    <glyph glyph-name="dkshade" unicode="&#x2593;" horiz-adv-x="1493" 
 />
    <glyph glyph-name="filledbox" unicode="&#x25a0;" horiz-adv-x="1237" 
 />
    <glyph glyph-name="H22073" unicode="&#x25a1;" horiz-adv-x="1237" 
 />
    <glyph glyph-name="H18543" unicode="&#x25aa;" horiz-adv-x="726" 
 />
    <glyph glyph-name="H18551" unicode="&#x25ab;" horiz-adv-x="726" 
 />
    <glyph glyph-name="filledrect" unicode="&#x25ac;" horiz-adv-x="2048" 
 />
    <glyph glyph-name="triagup" unicode="&#x25b2;" horiz-adv-x="2027" 
 />
    <glyph glyph-name="triagrt" unicode="&#x25ba;" horiz-adv-x="2027" 
 />
    <glyph glyph-name="triagdn" unicode="&#x25bc;" horiz-adv-x="2027" 
 />
    <glyph glyph-name="triaglf" unicode="&#x25c4;" horiz-adv-x="2027" 
 />
    <glyph glyph-name="circle" unicode="&#x25cb;" horiz-adv-x="1237" 
 />
    <glyph glyph-name="H18533" unicode="&#x25cf;" horiz-adv-x="1237" 
 />
    <glyph glyph-name="invbullet" unicode="&#x25d8;" horiz-adv-x="1237" 
 />
    <glyph glyph-name="invcircle" unicode="&#x25d9;" horiz-adv-x="1237" 
 />
    <glyph glyph-name="openbullet" unicode="&#x25e6;" horiz-adv-x="726" 
 />
    <glyph glyph-name="smileface" unicode="&#x263a;" horiz-adv-x="2091" 
 />
    <glyph glyph-name="invsmileface" unicode="&#x263b;" horiz-adv-x="2155" 
 />
    <glyph glyph-name="sun" unicode="&#x263c;" horiz-adv-x="1877" 
 />
    <glyph glyph-name="female" unicode="&#x2640;" horiz-adv-x="1536" 
 />
    <glyph glyph-name="male" unicode="&#x2642;" horiz-adv-x="1536" 
 />
    <glyph glyph-name="spade" unicode="&#x2660;" horiz-adv-x="1088" 
 />
    <glyph glyph-name="club" unicode="&#x2663;" horiz-adv-x="1344" 
 />
    <glyph glyph-name="heart" unicode="&#x2665;" horiz-adv-x="1216" 
 />
    <glyph glyph-name="diamond" unicode="&#x2666;" horiz-adv-x="1045" 
 />
    <glyph glyph-name="musicalnote" unicode="&#x266a;" horiz-adv-x="1024" 
 />
    <glyph glyph-name="musicalnotedbl" unicode="&#x266b;" horiz-adv-x="1536" 
 />
    <glyph glyph-name="uniF004" unicode="&#xf004;" horiz-adv-x="682" 
 />
    <glyph glyph-name="uniF005" unicode="&#xf005;" horiz-adv-x="682" 
 />
    </font>
</defs>
</svg>
